0
SECTION
2
HEADER
9
$ACADVER
1
AC1015
0
ENDSEC
0
SECTION
2
ENTITIES
0
LWPOLYLINE
8
LM3-FIX-P030-001
90
4
70
1
10
-228.800000
20
-130.200000
10
-104.000000
20
-130.200000
10
-104.000000
20
130.200000
10
-228.800000
20
130.200000
0
LWPOLYLINE
8
LM3-FIX-P030-002
90
4
70
1
10
-192.400000
20
-130.200000
10
-140.400000
20
-130.200000
10
-140.400000
20
130.200000
10
-192.400000
20
130.200000
0
LWPOLYLINE
8
LM3-FIX-P030-003
90
4
70
1
10
-184.400000
20
-163.800000
10
-148.400000
20
-163.800000
10
-148.400000
20
163.800000
10
-184.400000
20
163.800000
0
LWPOLYLINE
8
LM3-FIX-P030-004
90
4
70
1
10
-62.400000
20
-130.200000
10
62.400000
20
-130.200000
10
62.400000
20
130.200000
10
-62.400000
20
130.200000
0
LWPOLYLINE
8
LM3-FIX-P030-005
90
4
70
1
10
-26.000000
20
-130.200000
10
26.000000
20
-130.200000
10
26.000000
20
130.200000
10
-26.000000
20
130.200000
0
LWPOLYLINE
8
LM3-FIX-P030-006
90
4
70
1
10
-18.000000
20
-163.800000
10
18.000000
20
-163.800000
10
18.000000
20
163.800000
10
-18.000000
20
163.800000
0
LWPOLYLINE
8
LM3-FIX-P030-007
90
4
70
1
10
104.000000
20
-130.200000
10
228.800000
20
-130.200000
10
228.800000
20
130.200000
10
104.000000
20
130.200000
0
LWPOLYLINE
8
LM3-FIX-P030-008
90
4
70
1
10
140.400000
20
-130.200000
10
192.400000
20
-130.200000
10
192.400000
20
130.200000
10
140.400000
20
130.200000
0
LWPOLYLINE
8
LM3-FIX-P030-009
90
4
70
1
10
148.400000
20
-163.800000
10
184.400000
20
-163.800000
10
184.400000
20
163.800000
10
148.400000
20
163.800000
0
LWPOLYLINE
8
LM3-FIX-P030-010
90
4
70
1
10
-11.000000
20
-153.800000
10
11.000000
20
-153.800000
10
11.000000
20
-131.800000
10
-11.000000
20
-131.800000
0
LWPOLYLINE
8
LM3-FIX-P030-011
90
4
70
1
10
-11.000000
20
131.800000
10
11.000000
20
131.800000
10
11.000000
20
153.800000
10
-11.000000
20
153.800000
0
LWPOLYLINE
8
LM3-FIX-P030-012
90
4
70
1
10
-239.200000
20
-197.400000
10
239.200000
20
-197.400000
10
239.200000
20
-138.600000
10
-239.200000
20
-138.600000
0
ENDSEC
0
EOF
