0
SECTION
2
HEADER
9
$ACADVER
1
AC1015
0
ENDSEC
0
SECTION
2
ENTITIES
0
LWPOLYLINE
8
LM3-BDY-P070-001
90
4
70
1
10
-7900.000000
20
-90.000000
10
7900.000000
20
-90.000000
10
7900.000000
20
90.000000
10
-7900.000000
20
90.000000
0
LWPOLYLINE
8
LM3-BDY-P070-002
90
4
70
1
10
-7900.000000
20
-90.000000
10
7900.000000
20
-90.000000
10
7900.000000
20
90.000000
10
-7900.000000
20
90.000000
0
LWPOLYLINE
8
LM3-BDY-P070-003
90
4
70
1
10
-7900.000000
20
-90.000000
10
7900.000000
20
-90.000000
10
7900.000000
20
90.000000
10
-7900.000000
20
90.000000
0
LWPOLYLINE
8
LM3-BDY-P070-004
90
4
70
1
10
-7160.000000
20
-90.000000
10
-7060.000000
20
-90.000000
10
-7060.000000
20
90.000000
10
-7160.000000
20
90.000000
0
LWPOLYLINE
8
LM3-BDY-P070-005
90
4
70
1
10
-4790.000000
20
-90.000000
10
-4690.000000
20
-90.000000
10
-4690.000000
20
90.000000
10
-4790.000000
20
90.000000
0
LWPOLYLINE
8
LM3-BDY-P070-006
90
4
70
1
10
-2420.000000
20
-90.000000
10
-2320.000000
20
-90.000000
10
-2320.000000
20
90.000000
10
-2420.000000
20
90.000000
0
LWPOLYLINE
8
LM3-BDY-P070-007
90
4
70
1
10
-50.000000
20
-90.000000
10
50.000000
20
-90.000000
10
50.000000
20
90.000000
10
-50.000000
20
90.000000
0
LWPOLYLINE
8
LM3-BDY-P070-008
90
4
70
1
10
2320.000000
20
-90.000000
10
2420.000000
20
-90.000000
10
2420.000000
20
90.000000
10
2320.000000
20
90.000000
0
LWPOLYLINE
8
LM3-BDY-P070-009
90
4
70
1
10
4690.000000
20
-90.000000
10
4790.000000
20
-90.000000
10
4790.000000
20
90.000000
10
4690.000000
20
90.000000
0
LWPOLYLINE
8
LM3-BDY-P070-010
90
4
70
1
10
7060.000000
20
-90.000000
10
7160.000000
20
-90.000000
10
7160.000000
20
90.000000
10
7060.000000
20
90.000000
0
ENDSEC
0
EOF
