0
SECTION
2
HEADER
9
$ACADVER
1
AC1015
0
ENDSEC
0
SECTION
2
ENTITIES
0
LWPOLYLINE
8
LM3-BOG-P061-001
90
4
70
1
10
-1500.000000
20
-777.000000
10
1500.000000
20
-777.000000
10
1500.000000
20
-567.000000
10
-1500.000000
20
-567.000000
0
LWPOLYLINE
8
LM3-BOG-P061-002
90
4
70
1
10
-1500.000000
20
567.000000
10
1500.000000
20
567.000000
10
1500.000000
20
777.000000
10
-1500.000000
20
777.000000
0
LWPOLYLINE
8
LM3-BOG-P061-003
90
4
70
1
10
-1087.500000
20
-840.000000
10
-1012.500000
20
-840.000000
10
-1012.500000
20
840.000000
10
-1087.500000
20
840.000000
0
LWPOLYLINE
8
LM3-BOG-P061-004
90
4
70
1
10
-37.500000
20
-840.000000
10
37.500000
20
-840.000000
10
37.500000
20
840.000000
10
-37.500000
20
840.000000
0
LWPOLYLINE
8
LM3-BOG-P061-005
90
4
70
1
10
1012.500000
20
-840.000000
10
1087.500000
20
-840.000000
10
1087.500000
20
840.000000
10
1012.500000
20
840.000000
0
ENDSEC
0
EOF
