0
SECTION
2
HEADER
9
$ACADVER
1
AC1015
0
ENDSEC
0
SECTION
2
ENTITIES
0
LWPOLYLINE
8
LM3-HV-P020-001
90
4
70
1
10
-7000.000000
20
-155.400000
10
7000.000000
20
-155.400000
10
7000.000000
20
-113.400000
10
-7000.000000
20
-113.400000
0
LWPOLYLINE
8
LM3-HV-P020-002
90
4
70
1
10
-7000.000000
20
113.400000
10
7000.000000
20
113.400000
10
7000.000000
20
155.400000
10
-7000.000000
20
155.400000
0
LWPOLYLINE
8
LM3-HV-P020-003
90
4
70
1
10
-5075.000000
20
-168.000000
10
-4725.000000
20
-168.000000
10
-4725.000000
20
168.000000
10
-5075.000000
20
168.000000
0
LWPOLYLINE
8
LM3-HV-P020-004
90
4
70
1
10
-175.000000
20
-168.000000
10
175.000000
20
-168.000000
10
175.000000
20
168.000000
10
-175.000000
20
168.000000
0
LWPOLYLINE
8
LM3-HV-P020-005
90
4
70
1
10
4725.000000
20
-168.000000
10
5075.000000
20
-168.000000
10
5075.000000
20
168.000000
10
4725.000000
20
168.000000
0
ENDSEC
0
EOF
