0
SECTION
2
HEADER
9
$ACADVER
1
AC1015
0
ENDSEC
0
SECTION
2
ENTITIES
0
LWPOLYLINE
8
LM3-CTRL-P040-001
90
4
70
1
10
-4000.000000
20
-740.000000
10
4000.000000
20
-740.000000
10
4000.000000
20
-540.000000
10
-4000.000000
20
-540.000000
0
LWPOLYLINE
8
LM3-CTRL-P040-002
90
4
70
1
10
-4000.000000
20
540.000000
10
4000.000000
20
540.000000
10
4000.000000
20
740.000000
10
-4000.000000
20
740.000000
0
LWPOLYLINE
8
LM3-CTRL-P040-003
90
4
70
1
10
-2900.000000
20
-800.000000
10
-2700.000000
20
-800.000000
10
-2700.000000
20
800.000000
10
-2900.000000
20
800.000000
0
LWPOLYLINE
8
LM3-CTRL-P040-004
90
4
70
1
10
-100.000000
20
-800.000000
10
100.000000
20
-800.000000
10
100.000000
20
800.000000
10
-100.000000
20
800.000000
0
LWPOLYLINE
8
LM3-CTRL-P040-005
90
4
70
1
10
2700.000000
20
-800.000000
10
2900.000000
20
-800.000000
10
2900.000000
20
800.000000
10
2700.000000
20
800.000000
0
ENDSEC
0
EOF
