0
SECTION
2
HEADER
9
$ACADVER
1
AC1015
0
ENDSEC
0
SECTION
2
ENTITIES
0
LWPOLYLINE
8
LM3-END-P060-001
90
4
70
1
10
-1325.000000
20
-140.000000
10
-1185.000000
20
-140.000000
10
-1185.000000
20
140.000000
10
-1325.000000
20
140.000000
0
LWPOLYLINE
8
LM3-END-P060-002
90
4
70
1
10
1185.000000
20
-140.000000
10
1325.000000
20
-140.000000
10
1325.000000
20
140.000000
10
1185.000000
20
140.000000
0
LWPOLYLINE
8
LM3-END-P060-003
90
4
70
1
10
-1185.000000
20
-140.000000
10
1185.000000
20
-140.000000
10
1185.000000
20
140.000000
10
-1185.000000
20
140.000000
0
LWPOLYLINE
8
LM3-END-P060-004
90
4
70
1
10
-1185.000000
20
-140.000000
10
1185.000000
20
-140.000000
10
1185.000000
20
140.000000
10
-1185.000000
20
140.000000
0
ENDSEC
0
EOF
