0
SECTION
2
HEADER
9
$ACADVER
1
AC1015
0
ENDSEC
0
SECTION
2
ENTITIES
0
LWPOLYLINE
8
LM3-ROOF-P040-001
90
4
70
1
10
-6000.000000
20
-828.000000
10
-4080.000000
20
-828.000000
10
-4080.000000
20
-184.000000
10
-6000.000000
20
-184.000000
0
LWPOLYLINE
8
LM3-ROOF-P040-002
90
4
70
1
10
-5880.000000
20
230.000000
10
-4200.000000
20
230.000000
10
-4200.000000
20
782.000000
10
-5880.000000
20
782.000000
0
LWPOLYLINE
8
LM3-ROOF-P040-003
90
4
70
1
10
-2640.000000
20
-828.000000
10
-720.000000
20
-828.000000
10
-720.000000
20
-184.000000
10
-2640.000000
20
-184.000000
0
LWPOLYLINE
8
LM3-ROOF-P040-004
90
4
70
1
10
-2520.000000
20
230.000000
10
-840.000000
20
230.000000
10
-840.000000
20
782.000000
10
-2520.000000
20
782.000000
0
LWPOLYLINE
8
LM3-ROOF-P040-005
90
4
70
1
10
720.000000
20
-828.000000
10
2640.000000
20
-828.000000
10
2640.000000
20
-184.000000
10
720.000000
20
-184.000000
0
LWPOLYLINE
8
LM3-ROOF-P040-006
90
4
70
1
10
840.000000
20
230.000000
10
2520.000000
20
230.000000
10
2520.000000
20
782.000000
10
840.000000
20
782.000000
0
LWPOLYLINE
8
LM3-ROOF-P040-007
90
4
70
1
10
4080.000000
20
-828.000000
10
6000.000000
20
-828.000000
10
6000.000000
20
-184.000000
10
4080.000000
20
-184.000000
0
LWPOLYLINE
8
LM3-ROOF-P040-008
90
4
70
1
10
4200.000000
20
230.000000
10
5880.000000
20
230.000000
10
5880.000000
20
782.000000
10
4200.000000
20
782.000000
0
LWPOLYLINE
8
LM3-ROOF-P040-009
90
4
70
1
10
-6000.000000
20
-1081.000000
10
6000.000000
20
-1081.000000
10
6000.000000
20
-897.000000
10
-6000.000000
20
-897.000000
0
LWPOLYLINE
8
LM3-ROOF-P040-010
90
4
70
1
10
-6000.000000
20
897.000000
10
6000.000000
20
897.000000
10
6000.000000
20
1081.000000
10
-6000.000000
20
1081.000000
0
ENDSEC
0
EOF
