0
SECTION
2
HEADER
9
$ACADVER
1
AC1015
0
ENDSEC
0
SECTION
2
ENTITIES
0
LWPOLYLINE
8
LM3-FAS-P020-001
90
4
70
1
10
-925.000000
20
-259.200000
10
925.000000
20
-259.200000
10
925.000000
20
259.200000
10
-925.000000
20
259.200000
0
LWPOLYLINE
8
LM3-FAS-P020-002
90
4
70
1
10
-814.000000
20
-45.000000
10
814.000000
20
-45.000000
10
814.000000
20
45.000000
10
-814.000000
20
45.000000
0
LWPOLYLINE
8
LM3-FAS-P020-003
90
4
70
1
10
-804.750000
20
-280.800000
10
-231.250000
20
-280.800000
10
-231.250000
20
280.800000
10
-804.750000
20
280.800000
0
LWPOLYLINE
8
LM3-FAS-P020-004
90
4
70
1
10
-752.000000
20
-295.200000
10
-728.000000
20
-295.200000
10
-728.000000
20
295.200000
10
-752.000000
20
295.200000
0
LWPOLYLINE
8
LM3-FAS-P020-005
90
4
70
1
10
-752.000000
20
-295.200000
10
-728.000000
20
-295.200000
10
-728.000000
20
295.200000
10
-752.000000
20
295.200000
0
LWPOLYLINE
8
LM3-FAS-P020-006
90
4
70
1
10
231.250000
20
-280.800000
10
804.750000
20
-280.800000
10
804.750000
20
280.800000
10
231.250000
20
280.800000
0
LWPOLYLINE
8
LM3-FAS-P020-007
90
4
70
1
10
728.000000
20
-295.200000
10
752.000000
20
-295.200000
10
752.000000
20
295.200000
10
728.000000
20
295.200000
0
LWPOLYLINE
8
LM3-FAS-P020-008
90
4
70
1
10
728.000000
20
-295.200000
10
752.000000
20
-295.200000
10
752.000000
20
295.200000
10
728.000000
20
295.200000
0
ENDSEC
0
EOF
