0
SECTION
2
HEADER
9
$ACADVER
1
AC1015
0
ENDSEC
0
SECTION
2
ENTITIES
0
LWPOLYLINE
8
LM3-HV-P030-001
90
4
70
1
10
-3250.000000
20
-351.500000
10
3250.000000
20
-351.500000
10
3250.000000
20
-256.500000
10
-3250.000000
20
-256.500000
0
LWPOLYLINE
8
LM3-HV-P030-002
90
4
70
1
10
-3250.000000
20
256.500000
10
3250.000000
20
256.500000
10
3250.000000
20
351.500000
10
-3250.000000
20
351.500000
0
LWPOLYLINE
8
LM3-HV-P030-003
90
4
70
1
10
-2356.250000
20
-380.000000
10
-2193.750000
20
-380.000000
10
-2193.750000
20
380.000000
10
-2356.250000
20
380.000000
0
LWPOLYLINE
8
LM3-HV-P030-004
90
4
70
1
10
-81.250000
20
-380.000000
10
81.250000
20
-380.000000
10
81.250000
20
380.000000
10
-81.250000
20
380.000000
0
LWPOLYLINE
8
LM3-HV-P030-005
90
4
70
1
10
2193.750000
20
-380.000000
10
2356.250000
20
-380.000000
10
2356.250000
20
380.000000
10
2193.750000
20
380.000000
0
ENDSEC
0
EOF
