0
SECTION
2
HEADER
9
$ACADVER
1
AC1015
0
ENDSEC
0
SECTION
2
ENTITIES
0
LWPOLYLINE
8
LM3-BDY-P100-001
90
4
70
1
10
-750.000000
20
-130.000000
10
-610.000000
20
-130.000000
10
-610.000000
20
130.000000
10
-750.000000
20
130.000000
0
LWPOLYLINE
8
LM3-BDY-P100-002
90
4
70
1
10
610.000000
20
-130.000000
10
750.000000
20
-130.000000
10
750.000000
20
130.000000
10
610.000000
20
130.000000
0
LWPOLYLINE
8
LM3-BDY-P100-003
90
4
70
1
10
-610.000000
20
-130.000000
10
610.000000
20
-130.000000
10
610.000000
20
130.000000
10
-610.000000
20
130.000000
0
LWPOLYLINE
8
LM3-BDY-P100-004
90
4
70
1
10
-610.000000
20
-130.000000
10
610.000000
20
-130.000000
10
610.000000
20
130.000000
10
-610.000000
20
130.000000
0
ENDSEC
0
EOF
