0
SECTION
2
HEADER
9
$ACADVER
1
AC1015
0
ENDSEC
0
SECTION
2
ENTITIES
0
LWPOLYLINE
8
LM3-CWL-P016-001
90
4
70
1
10
-360.000000
20
-60.000000
10
-288.000000
20
-60.000000
10
-288.000000
20
60.000000
10
-360.000000
20
60.000000
0
LWPOLYLINE
8
LM3-CWL-P016-002
90
4
70
1
10
288.000000
20
-60.000000
10
360.000000
20
-60.000000
10
360.000000
20
60.000000
10
288.000000
20
60.000000
0
LWPOLYLINE
8
LM3-CWL-P016-003
90
4
70
1
10
-288.000000
20
-60.000000
10
288.000000
20
-60.000000
10
288.000000
20
60.000000
10
-288.000000
20
60.000000
0
LWPOLYLINE
8
LM3-CWL-P016-004
90
4
70
1
10
-288.000000
20
-60.000000
10
288.000000
20
-60.000000
10
288.000000
20
60.000000
10
-288.000000
20
60.000000
0
ENDSEC
0
EOF
