0
SECTION
2
HEADER
9
$ACADVER
1
AC1015
0
ENDSEC
0
SECTION
2
ENTITIES
0
LWPOLYLINE
8
LM3-ART-P010-001
90
4
70
1
10
-1200.000000
20
-150.000000
10
-1060.000000
20
-150.000000
10
-1060.000000
20
150.000000
10
-1200.000000
20
150.000000
0
LWPOLYLINE
8
LM3-ART-P010-002
90
4
70
1
10
1060.000000
20
-150.000000
10
1200.000000
20
-150.000000
10
1200.000000
20
150.000000
10
1060.000000
20
150.000000
0
LWPOLYLINE
8
LM3-ART-P010-003
90
4
70
1
10
-1060.000000
20
-150.000000
10
1060.000000
20
-150.000000
10
1060.000000
20
150.000000
10
-1060.000000
20
150.000000
0
LWPOLYLINE
8
LM3-ART-P010-004
90
4
70
1
10
-1060.000000
20
-150.000000
10
1060.000000
20
-150.000000
10
1060.000000
20
150.000000
10
-1060.000000
20
150.000000
0
ENDSEC
0
EOF
