0
SECTION
2
HEADER
9
$ACADVER
1
AC1015
0
ENDSEC
0
SECTION
2
ENTITIES
0
LWPOLYLINE
8
LM3-BDY-P020-001
90
4
70
1
10
-7900.000000
20
-110.000000
10
7900.000000
20
-110.000000
10
7900.000000
20
110.000000
10
-7900.000000
20
110.000000
0
LWPOLYLINE
8
LM3-BDY-P020-002
90
4
70
1
10
-7358.000000
20
-1325.000000
10
-7178.000000
20
-1325.000000
10
-7178.000000
20
1325.000000
10
-7358.000000
20
1325.000000
0
LWPOLYLINE
8
LM3-BDY-P020-003
90
4
70
1
10
-4988.000000
20
-1325.000000
10
-4808.000000
20
-1325.000000
10
-4808.000000
20
1325.000000
10
-4988.000000
20
1325.000000
0
LWPOLYLINE
8
LM3-BDY-P020-004
90
4
70
1
10
-2618.000000
20
-1325.000000
10
-2438.000000
20
-1325.000000
10
-2438.000000
20
1325.000000
10
-2618.000000
20
1325.000000
0
LWPOLYLINE
8
LM3-BDY-P020-005
90
4
70
1
10
-90.000000
20
-1325.000000
10
90.000000
20
-1325.000000
10
90.000000
20
1325.000000
10
-90.000000
20
1325.000000
0
LWPOLYLINE
8
LM3-BDY-P020-006
90
4
70
1
10
2438.000000
20
-1325.000000
10
2618.000000
20
-1325.000000
10
2618.000000
20
1325.000000
10
2438.000000
20
1325.000000
0
LWPOLYLINE
8
LM3-BDY-P020-007
90
4
70
1
10
4808.000000
20
-1325.000000
10
4988.000000
20
-1325.000000
10
4988.000000
20
1325.000000
10
4808.000000
20
1325.000000
0
LWPOLYLINE
8
LM3-BDY-P020-008
90
4
70
1
10
7178.000000
20
-1325.000000
10
7358.000000
20
-1325.000000
10
7358.000000
20
1325.000000
10
7178.000000
20
1325.000000
0
ENDSEC
0
EOF
