0
SECTION
2
HEADER
9
$ACADVER
1
AC1015
0
ENDSEC
0
SECTION
2
ENTITIES
0
LWPOLYLINE
8
LM3-BDY-P120-001
90
4
70
1
10
-645.000000
20
-356.000000
10
-315.000000
20
-356.000000
10
-315.000000
20
-76.000000
10
-645.000000
20
-76.000000
0
LWPOLYLINE
8
LM3-BDY-P120-002
90
4
70
1
10
-522.000000
20
-258.000000
10
-438.000000
20
-258.000000
10
-438.000000
20
-174.000000
10
-522.000000
20
-174.000000
0
LWPOLYLINE
8
LM3-BDY-P120-003
90
4
70
1
10
-645.000000
20
76.000000
10
-315.000000
20
76.000000
10
-315.000000
20
356.000000
10
-645.000000
20
356.000000
0
LWPOLYLINE
8
LM3-BDY-P120-004
90
4
70
1
10
-522.000000
20
174.000000
10
-438.000000
20
174.000000
10
-438.000000
20
258.000000
10
-522.000000
20
258.000000
0
LWPOLYLINE
8
LM3-BDY-P120-005
90
4
70
1
10
315.000000
20
-356.000000
10
645.000000
20
-356.000000
10
645.000000
20
-76.000000
10
315.000000
20
-76.000000
0
LWPOLYLINE
8
LM3-BDY-P120-006
90
4
70
1
10
438.000000
20
-258.000000
10
522.000000
20
-258.000000
10
522.000000
20
-174.000000
10
438.000000
20
-174.000000
0
LWPOLYLINE
8
LM3-BDY-P120-007
90
4
70
1
10
315.000000
20
76.000000
10
645.000000
20
76.000000
10
645.000000
20
356.000000
10
315.000000
20
356.000000
0
LWPOLYLINE
8
LM3-BDY-P120-008
90
4
70
1
10
438.000000
20
174.000000
10
522.000000
20
174.000000
10
522.000000
20
258.000000
10
438.000000
20
258.000000
0
LWPOLYLINE
8
LM3-BDY-P120-009
90
4
70
1
10
-70.000000
20
-376.000000
10
70.000000
20
-376.000000
10
70.000000
20
-236.000000
10
-70.000000
20
-236.000000
0
LWPOLYLINE
8
LM3-BDY-P120-010
90
4
70
1
10
-70.000000
20
236.000000
10
70.000000
20
236.000000
10
70.000000
20
376.000000
10
-70.000000
20
376.000000
0
LWPOLYLINE
8
LM3-BDY-P120-011
90
4
70
1
10
-749.000000
20
-60.000000
10
-499.000000
20
-60.000000
10
-499.000000
20
60.000000
10
-749.000000
20
60.000000
0
LWPOLYLINE
8
LM3-BDY-P120-012
90
4
70
1
10
499.000000
20
-60.000000
10
749.000000
20
-60.000000
10
749.000000
20
60.000000
10
499.000000
20
60.000000
0
LWPOLYLINE
8
LM3-BDY-P120-013
90
4
70
1
10
-175.000000
20
-427.000000
10
175.000000
20
-427.000000
10
175.000000
20
-419.000000
10
-175.000000
20
-419.000000
0
LWPOLYLINE
8
LM3-BDY-P120-014
90
4
70
1
10
-175.000000
20
419.000000
10
175.000000
20
419.000000
10
175.000000
20
427.000000
10
-175.000000
20
427.000000
0
ENDSEC
0
EOF
