0
SECTION
2
HEADER
9
$ACADVER
1
AC1015
0
ENDSEC
0
SECTION
2
ENTITIES
0
LWPOLYLINE
8
LM3-ROOF-P010-001
90
4
70
1
10
-1400.000000
20
-378.000000
10
1400.000000
20
-378.000000
10
1400.000000
20
378.000000
10
-1400.000000
20
378.000000
0
LWPOLYLINE
8
LM3-ROOF-P010-002
90
4
70
1
10
-672.000000
20
-900.000000
10
672.000000
20
-900.000000
10
672.000000
20
900.000000
10
-672.000000
20
900.000000
0
LWPOLYLINE
8
LM3-ROOF-P010-003
90
4
70
1
10
-252.000000
20
-198.000000
10
252.000000
20
-198.000000
10
252.000000
20
198.000000
10
-252.000000
20
198.000000
0
ENDSEC
0
EOF
