0
SECTION
2
HEADER
9
$ACADVER
1
AC1015
0
ENDSEC
0
SECTION
2
ENTITIES
0
LWPOLYLINE
8
LM3-BDY-P120-001
90
4
70
1
10
-800.000000
20
-189.000000
10
800.000000
20
-189.000000
10
800.000000
20
189.000000
10
-800.000000
20
189.000000
0
LWPOLYLINE
8
LM3-BDY-P120-002
90
4
70
1
10
-384.000000
20
-450.000000
10
384.000000
20
-450.000000
10
384.000000
20
450.000000
10
-384.000000
20
450.000000
0
LWPOLYLINE
8
LM3-BDY-P120-003
90
4
70
1
10
-144.000000
20
-99.000000
10
144.000000
20
-99.000000
10
144.000000
20
99.000000
10
-144.000000
20
99.000000
0
ENDSEC
0
EOF
