0
SECTION
2
HEADER
9
$ACADVER
1
AC1015
0
ENDSEC
0
SECTION
2
ENTITIES
0
LWPOLYLINE
8
LM3-CWL-P011-001
90
4
70
1
10
-625.000000
20
-1375.000000
10
625.000000
20
-1375.000000
10
625.000000
20
1375.000000
10
-625.000000
20
1375.000000
0
LWPOLYLINE
8
LM3-CWL-P011-002
90
4
70
1
10
-487.500000
20
-1265.000000
10
487.500000
20
-1265.000000
10
487.500000
20
1265.000000
10
-487.500000
20
1265.000000
0
LWPOLYLINE
8
LM3-CWL-P011-003
90
4
70
1
10
-325.000000
20
-1072.500000
10
325.000000
20
-1072.500000
10
325.000000
20
1072.500000
10
-325.000000
20
1072.500000
0
ENDSEC
0
EOF
