0
SECTION
2
HEADER
9
$ACADVER
1
AC1015
0
ENDSEC
0
SECTION
2
ENTITIES
0
LWPOLYLINE
8
LM3-WIN-P010-001
90
4
70
1
10
-825.000000
20
-70.000000
10
-700.000000
20
-70.000000
10
-700.000000
20
70.000000
10
-825.000000
20
70.000000
0
LWPOLYLINE
8
LM3-WIN-P010-002
90
4
70
1
10
700.000000
20
-70.000000
10
825.000000
20
-70.000000
10
825.000000
20
70.000000
10
700.000000
20
70.000000
0
LWPOLYLINE
8
LM3-WIN-P010-003
90
4
70
1
10
-700.000000
20
-70.000000
10
700.000000
20
-70.000000
10
700.000000
20
70.000000
10
-700.000000
20
70.000000
0
LWPOLYLINE
8
LM3-WIN-P010-004
90
4
70
1
10
-700.000000
20
-70.000000
10
700.000000
20
-70.000000
10
700.000000
20
70.000000
10
-700.000000
20
70.000000
0
LWPOLYLINE
8
LM3-WIN-P010-005
90
4
70
1
10
-709.500000
20
-26.600000
10
-607.000000
20
-26.600000
10
-607.000000
20
26.600000
10
-709.500000
20
26.600000
0
LWPOLYLINE
8
LM3-WIN-P010-006
90
4
70
1
10
607.000000
20
-26.600000
10
709.500000
20
-26.600000
10
709.500000
20
26.600000
10
607.000000
20
26.600000
0
LWPOLYLINE
8
LM3-WIN-P010-007
90
4
70
1
10
-607.000000
20
-26.600000
10
607.000000
20
-26.600000
10
607.000000
20
26.600000
10
-607.000000
20
26.600000
0
LWPOLYLINE
8
LM3-WIN-P010-008
90
4
70
1
10
-607.000000
20
-26.600000
10
607.000000
20
-26.600000
10
607.000000
20
26.600000
10
-607.000000
20
26.600000
0
LWPOLYLINE
8
LM3-WIN-P010-009
90
4
70
1
10
-643.500000
20
-22.400000
10
643.500000
20
-22.400000
10
643.500000
20
22.400000
10
-643.500000
20
22.400000
0
LWPOLYLINE
8
LM3-WIN-P010-010
90
4
70
1
10
-709.500000
20
-38.500000
10
-511.500000
20
-38.500000
10
-511.500000
20
38.500000
10
-709.500000
20
38.500000
0
LWPOLYLINE
8
LM3-WIN-P010-011
90
4
70
1
10
511.500000
20
-38.500000
10
709.500000
20
-38.500000
10
709.500000
20
38.500000
10
511.500000
20
38.500000
0
LWPOLYLINE
8
LM3-WIN-P010-012
90
4
70
1
10
-571.000000
20
-50.400000
10
-551.000000
20
-50.400000
10
-551.000000
20
50.400000
10
-571.000000
20
50.400000
0
LWPOLYLINE
8
LM3-WIN-P010-013
90
4
70
1
10
-571.000000
20
-50.400000
10
-551.000000
20
-50.400000
10
-551.000000
20
50.400000
10
-571.000000
20
50.400000
0
LWPOLYLINE
8
LM3-WIN-P010-014
90
4
70
1
10
-10.000000
20
-50.400000
10
10.000000
20
-50.400000
10
10.000000
20
50.400000
10
-10.000000
20
50.400000
0
LWPOLYLINE
8
LM3-WIN-P010-015
90
4
70
1
10
-10.000000
20
-50.400000
10
10.000000
20
-50.400000
10
10.000000
20
50.400000
10
-10.000000
20
50.400000
0
LWPOLYLINE
8
LM3-WIN-P010-016
90
4
70
1
10
551.000000
20
-50.400000
10
571.000000
20
-50.400000
10
571.000000
20
50.400000
10
551.000000
20
50.400000
0
LWPOLYLINE
8
LM3-WIN-P010-017
90
4
70
1
10
551.000000
20
-50.400000
10
571.000000
20
-50.400000
10
571.000000
20
50.400000
10
551.000000
20
50.400000
0
ENDSEC
0
EOF
