0
SECTION
2
HEADER
9
$ACADVER
1
AC1015
0
ENDSEC
0
SECTION
2
ENTITIES
0
LWPOLYLINE
8
LM3-HV-P010-001
90
4
70
1
10
-2700.000000
20
-189.000000
10
2700.000000
20
-189.000000
10
2700.000000
20
189.000000
10
-2700.000000
20
189.000000
0
LWPOLYLINE
8
LM3-HV-P010-002
90
4
70
1
10
-1296.000000
20
-450.000000
10
1296.000000
20
-450.000000
10
1296.000000
20
450.000000
10
-1296.000000
20
450.000000
0
LWPOLYLINE
8
LM3-HV-P010-003
90
4
70
1
10
-486.000000
20
-99.000000
10
486.000000
20
-99.000000
10
486.000000
20
99.000000
10
-486.000000
20
99.000000
0
ENDSEC
0
EOF
