0
SECTION
2
HEADER
9
$ACADVER
1
AC1015
0
ENDSEC
0
SECTION
2
ENTITIES
0
LWPOLYLINE
8
LM3-BOG-P030-001
90
4
70
1
10
-1600.000000
20
-493.500000
10
1600.000000
20
-493.500000
10
1600.000000
20
493.500000
10
-1600.000000
20
493.500000
0
LWPOLYLINE
8
LM3-BOG-P030-002
90
4
70
1
10
-768.000000
20
-1175.000000
10
768.000000
20
-1175.000000
10
768.000000
20
1175.000000
10
-768.000000
20
1175.000000
0
LWPOLYLINE
8
LM3-BOG-P030-003
90
4
70
1
10
-288.000000
20
-258.500000
10
288.000000
20
-258.500000
10
288.000000
20
258.500000
10
-288.000000
20
258.500000
0
ENDSEC
0
EOF
