0
SECTION
2
HEADER
9
$ACADVER
1
AC1015
0
ENDSEC
0
SECTION
2
ENTITIES
0
LWPOLYLINE
8
LM3-FAS-P010-001
90
4
70
1
10
-1150.000000
20
-130.000000
10
-1010.000000
20
-130.000000
10
-1010.000000
20
130.000000
10
-1150.000000
20
130.000000
0
LWPOLYLINE
8
LM3-FAS-P010-002
90
4
70
1
10
1010.000000
20
-130.000000
10
1150.000000
20
-130.000000
10
1150.000000
20
130.000000
10
1010.000000
20
130.000000
0
LWPOLYLINE
8
LM3-FAS-P010-003
90
4
70
1
10
-1010.000000
20
-130.000000
10
1010.000000
20
-130.000000
10
1010.000000
20
130.000000
10
-1010.000000
20
130.000000
0
LWPOLYLINE
8
LM3-FAS-P010-004
90
4
70
1
10
-1010.000000
20
-130.000000
10
1010.000000
20
-130.000000
10
1010.000000
20
130.000000
10
-1010.000000
20
130.000000
0
LWPOLYLINE
8
LM3-FAS-P010-005
90
4
70
1
10
-1012.000000
20
-54.600000
10
-872.000000
20
-54.600000
10
-872.000000
20
54.600000
10
-1012.000000
20
54.600000
0
LWPOLYLINE
8
LM3-FAS-P010-006
90
4
70
1
10
872.000000
20
-54.600000
10
1012.000000
20
-54.600000
10
1012.000000
20
54.600000
10
872.000000
20
54.600000
0
LWPOLYLINE
8
LM3-FAS-P010-007
90
4
70
1
10
-872.000000
20
-54.600000
10
872.000000
20
-54.600000
10
872.000000
20
54.600000
10
-872.000000
20
54.600000
0
LWPOLYLINE
8
LM3-FAS-P010-008
90
4
70
1
10
-872.000000
20
-54.600000
10
872.000000
20
-54.600000
10
872.000000
20
54.600000
10
-872.000000
20
54.600000
0
LWPOLYLINE
8
LM3-FAS-P010-009
90
4
70
1
10
-803.000000
20
-80.600000
10
-623.000000
20
-80.600000
10
-623.000000
20
80.600000
10
-803.000000
20
80.600000
0
LWPOLYLINE
8
LM3-FAS-P010-010
90
4
70
1
10
-818.000000
20
-93.600000
10
-608.000000
20
-93.600000
10
-608.000000
20
93.600000
10
-818.000000
20
93.600000
0
LWPOLYLINE
8
LM3-FAS-P010-011
90
4
70
1
10
623.000000
20
-80.600000
10
803.000000
20
-80.600000
10
803.000000
20
80.600000
10
623.000000
20
80.600000
0
LWPOLYLINE
8
LM3-FAS-P010-012
90
4
70
1
10
608.000000
20
-93.600000
10
818.000000
20
-93.600000
10
818.000000
20
93.600000
10
608.000000
20
93.600000
0
LWPOLYLINE
8
LM3-FAS-P010-013
90
4
70
1
10
-874.000000
20
-71.500000
10
874.000000
20
-71.500000
10
874.000000
20
71.500000
10
-874.000000
20
71.500000
0
ENDSEC
0
EOF
