0
SECTION
2
HEADER
9
$ACADVER
1
AC1015
0
ENDSEC
0
SECTION
2
ENTITIES
0
LWPOLYLINE
8
LM3-CWL-P015-001
90
4
70
1
10
-325.000000
20
-260.000000
10
325.000000
20
-260.000000
10
325.000000
20
260.000000
10
-325.000000
20
260.000000
0
LWPOLYLINE
8
LM3-CWL-P015-002
90
4
70
1
10
-253.500000
20
-239.200000
10
253.500000
20
-239.200000
10
253.500000
20
239.200000
10
-253.500000
20
239.200000
0
LWPOLYLINE
8
LM3-CWL-P015-003
90
4
70
1
10
-169.000000
20
-202.800000
10
169.000000
20
-202.800000
10
169.000000
20
202.800000
10
-169.000000
20
202.800000
0
ENDSEC
0
EOF
