0
SECTION
2
HEADER
9
$ACADVER
1
AC1015
0
ENDSEC
0
SECTION
2
ENTITIES
0
LWPOLYLINE
8
LM3-BDY-P133-001
90
4
70
1
10
-500.000000
20
-1425.000000
10
500.000000
20
-1425.000000
10
500.000000
20
1425.000000
10
-500.000000
20
1425.000000
0
LWPOLYLINE
8
LM3-BDY-P133-002
90
4
70
1
10
-360.000000
20
-1026.000000
10
360.000000
20
-1026.000000
10
360.000000
20
1026.000000
10
-360.000000
20
1026.000000
0
LWPOLYLINE
8
LM3-BDY-P133-003
90
4
70
1
10
-310.000000
20
-1368.000000
10
310.000000
20
-1368.000000
10
310.000000
20
-1083.000000
10
-310.000000
20
-1083.000000
0
LWPOLYLINE
8
LM3-BDY-P133-004
90
4
70
1
10
190.000000
20
741.000000
10
410.000000
20
741.000000
10
410.000000
20
1197.000000
10
190.000000
20
1197.000000
0
ENDSEC
0
EOF
