0
SECTION
2
HEADER
9
$ACADVER
1
AC1015
0
ENDSEC
0
SECTION
2
ENTITIES
0
LWPOLYLINE
8
LM3-BDY-P021-001
90
4
70
1
10
-6920.000000
20
-1325.000000
10
-6760.000000
20
-1325.000000
10
-6760.000000
20
1325.000000
10
-6920.000000
20
1325.000000
0
LWPOLYLINE
8
LM3-BDY-P021-002
90
4
70
1
10
-4944.000000
20
-1325.000000
10
-4784.000000
20
-1325.000000
10
-4784.000000
20
1325.000000
10
-4944.000000
20
1325.000000
0
LWPOLYLINE
8
LM3-BDY-P021-003
90
4
70
1
10
-2968.000000
20
-1325.000000
10
-2808.000000
20
-1325.000000
10
-2808.000000
20
1325.000000
10
-2968.000000
20
1325.000000
0
LWPOLYLINE
8
LM3-BDY-P021-004
90
4
70
1
10
-992.000000
20
-1325.000000
10
-832.000000
20
-1325.000000
10
-832.000000
20
1325.000000
10
-992.000000
20
1325.000000
0
LWPOLYLINE
8
LM3-BDY-P021-005
90
4
70
1
10
832.000000
20
-1325.000000
10
992.000000
20
-1325.000000
10
992.000000
20
1325.000000
10
832.000000
20
1325.000000
0
LWPOLYLINE
8
LM3-BDY-P021-006
90
4
70
1
10
2808.000000
20
-1325.000000
10
2968.000000
20
-1325.000000
10
2968.000000
20
1325.000000
10
2808.000000
20
1325.000000
0
LWPOLYLINE
8
LM3-BDY-P021-007
90
4
70
1
10
4784.000000
20
-1325.000000
10
4944.000000
20
-1325.000000
10
4944.000000
20
1325.000000
10
4784.000000
20
1325.000000
0
LWPOLYLINE
8
LM3-BDY-P021-008
90
4
70
1
10
6760.000000
20
-1325.000000
10
6920.000000
20
-1325.000000
10
6920.000000
20
1325.000000
10
6760.000000
20
1325.000000
0
LWPOLYLINE
8
LM3-BDY-P021-009
90
4
70
1
10
-5834.000000
20
-1243.000000
10
-5414.000000
20
-1243.000000
10
-5414.000000
20
-983.000000
10
-5834.000000
20
-983.000000
0
LWPOLYLINE
8
LM3-BDY-P021-010
90
4
70
1
10
-5834.000000
20
983.000000
10
-5414.000000
20
983.000000
10
-5414.000000
20
1243.000000
10
-5834.000000
20
1243.000000
0
LWPOLYLINE
8
LM3-BDY-P021-011
90
4
70
1
10
-2034.000000
20
-1243.000000
10
-1614.000000
20
-1243.000000
10
-1614.000000
20
-983.000000
10
-2034.000000
20
-983.000000
0
LWPOLYLINE
8
LM3-BDY-P021-012
90
4
70
1
10
-2034.000000
20
983.000000
10
-1614.000000
20
983.000000
10
-1614.000000
20
1243.000000
10
-2034.000000
20
1243.000000
0
LWPOLYLINE
8
LM3-BDY-P021-013
90
4
70
1
10
1614.000000
20
-1243.000000
10
2034.000000
20
-1243.000000
10
2034.000000
20
-983.000000
10
1614.000000
20
-983.000000
0
LWPOLYLINE
8
LM3-BDY-P021-014
90
4
70
1
10
1614.000000
20
983.000000
10
2034.000000
20
983.000000
10
2034.000000
20
1243.000000
10
1614.000000
20
1243.000000
0
LWPOLYLINE
8
LM3-BDY-P021-015
90
4
70
1
10
5414.000000
20
-1243.000000
10
5834.000000
20
-1243.000000
10
5834.000000
20
-983.000000
10
5414.000000
20
-983.000000
0
LWPOLYLINE
8
LM3-BDY-P021-016
90
4
70
1
10
5414.000000
20
983.000000
10
5834.000000
20
983.000000
10
5834.000000
20
1243.000000
10
5414.000000
20
1243.000000
0
ENDSEC
0
EOF
