0
SECTION
2
HEADER
9
$ACADVER
1
AC1015
0
ENDSEC
0
SECTION
2
ENTITIES
0
LWPOLYLINE
8
LM3-ROOF-P030-001
90
4
70
1
10
-1600.000000
20
-1200.000000
10
1600.000000
20
-1200.000000
10
1600.000000
20
1200.000000
10
-1600.000000
20
1200.000000
0
LWPOLYLINE
8
LM3-ROOF-P030-002
90
4
70
1
10
-1152.000000
20
-864.000000
10
1152.000000
20
-864.000000
10
1152.000000
20
864.000000
10
-1152.000000
20
864.000000
0
LWPOLYLINE
8
LM3-ROOF-P030-003
90
4
70
1
10
-992.000000
20
-1152.000000
10
992.000000
20
-1152.000000
10
992.000000
20
-912.000000
10
-992.000000
20
-912.000000
0
LWPOLYLINE
8
LM3-ROOF-P030-004
90
4
70
1
10
608.000000
20
624.000000
10
1312.000000
20
624.000000
10
1312.000000
20
1008.000000
10
608.000000
20
1008.000000
0
ENDSEC
0
EOF
