0
SECTION
2
HEADER
9
$ACADVER
1
AC1015
0
ENDSEC
0
SECTION
2
ENTITIES
0
LWPOLYLINE
8
LM3-CWL-P014-001
90
4
70
1
10
-500.000000
20
-1325.000000
10
500.000000
20
-1325.000000
10
500.000000
20
1325.000000
10
-500.000000
20
1325.000000
0
LWPOLYLINE
8
LM3-CWL-P014-002
90
4
70
1
10
-390.000000
20
-1219.000000
10
390.000000
20
-1219.000000
10
390.000000
20
1219.000000
10
-390.000000
20
1219.000000
0
LWPOLYLINE
8
LM3-CWL-P014-003
90
4
70
1
10
-260.000000
20
-1033.500000
10
260.000000
20
-1033.500000
10
260.000000
20
1033.500000
10
-260.000000
20
1033.500000
0
ENDSEC
0
EOF
