0
SECTION
2
HEADER
9
$ACADVER
1
AC1015
0
ENDSEC
0
SECTION
2
ENTITIES
0
LWPOLYLINE
8
LM3-BOG-P050-001
90
4
70
1
10
-700.000000
20
-88.200000
10
700.000000
20
-88.200000
10
700.000000
20
88.200000
10
-700.000000
20
88.200000
0
LWPOLYLINE
8
LM3-BOG-P050-002
90
4
70
1
10
-336.000000
20
-210.000000
10
336.000000
20
-210.000000
10
336.000000
20
210.000000
10
-336.000000
20
210.000000
0
LWPOLYLINE
8
LM3-BOG-P050-003
90
4
70
1
10
-126.000000
20
-46.200000
10
126.000000
20
-46.200000
10
126.000000
20
46.200000
10
-126.000000
20
46.200000
0
ENDSEC
0
EOF
