0
SECTION
2
HEADER
9
$ACADVER
1
AC1015
0
ENDSEC
0
SECTION
2
ENTITIES
0
LWPOLYLINE
8
LM3-BDY-P040-001
90
4
70
1
10
-625.000000
20
-550.000000
10
625.000000
20
-550.000000
10
625.000000
20
550.000000
10
-625.000000
20
550.000000
0
LWPOLYLINE
8
LM3-BDY-P040-002
90
4
70
1
10
-512.500000
20
-550.000000
10
512.500000
20
-550.000000
10
512.500000
20
-418.000000
10
-512.500000
20
-418.000000
0
LWPOLYLINE
8
LM3-BDY-P040-003
90
4
70
1
10
225.000000
20
363.000000
10
525.000000
20
363.000000
10
525.000000
20
517.000000
10
225.000000
20
517.000000
0
ENDSEC
0
EOF
