0
SECTION
2
HEADER
9
$ACADVER
1
AC1015
0
ENDSEC
0
SECTION
2
ENTITIES
0
LWPOLYLINE
8
LM3-BDY-P061-001
90
4
70
1
10
-2600.000000
20
-1325.000000
10
-416.000000
20
-1325.000000
10
-416.000000
20
1325.000000
10
-2600.000000
20
1325.000000
0
LWPOLYLINE
8
LM3-BDY-P061-002
90
4
70
1
10
416.000000
20
-1325.000000
10
2600.000000
20
-1325.000000
10
2600.000000
20
1325.000000
10
416.000000
20
1325.000000
0
LWPOLYLINE
8
LM3-BDY-P061-003
90
4
70
1
10
-468.000000
20
-1325.000000
10
468.000000
20
-1325.000000
10
468.000000
20
1325.000000
10
-468.000000
20
1325.000000
0
LWPOLYLINE
8
LM3-BDY-P061-004
90
4
70
1
10
780.000000
20
-689.000000
10
1820.000000
20
-689.000000
10
1820.000000
20
689.000000
10
780.000000
20
689.000000
0
ENDSEC
0
EOF
