0
SECTION
2
HEADER
9
$ACADVER
1
AC1015
0
ENDSEC
0
SECTION
2
ENTITIES
0
LWPOLYLINE
8
LM3-BDY-P080-001
90
4
70
1
10
-7800.000000
20
-925.000000
10
7800.000000
20
-925.000000
10
7800.000000
20
-675.000000
10
-7800.000000
20
-675.000000
0
LWPOLYLINE
8
LM3-BDY-P080-002
90
4
70
1
10
-7800.000000
20
675.000000
10
7800.000000
20
675.000000
10
7800.000000
20
925.000000
10
-7800.000000
20
925.000000
0
LWPOLYLINE
8
LM3-BDY-P080-003
90
4
70
1
10
-5655.000000
20
-1000.000000
10
-5265.000000
20
-1000.000000
10
-5265.000000
20
1000.000000
10
-5655.000000
20
1000.000000
0
LWPOLYLINE
8
LM3-BDY-P080-004
90
4
70
1
10
-195.000000
20
-1000.000000
10
195.000000
20
-1000.000000
10
195.000000
20
1000.000000
10
-195.000000
20
1000.000000
0
LWPOLYLINE
8
LM3-BDY-P080-005
90
4
70
1
10
5265.000000
20
-1000.000000
10
5655.000000
20
-1000.000000
10
5655.000000
20
1000.000000
10
5265.000000
20
1000.000000
0
ENDSEC
0
EOF
