0
SECTION
2
HEADER
9
$ACADVER
1
AC1015
0
ENDSEC
0
SECTION
2
ENTITIES
0
LWPOLYLINE
8
LM3-BOG-P010-001
90
4
70
1
10
-1700.000000
20
-1250.000000
10
1700.000000
20
-1250.000000
10
1700.000000
20
-1030.000000
10
-1700.000000
20
-1030.000000
0
LWPOLYLINE
8
LM3-BOG-P010-002
90
4
70
1
10
-1700.000000
20
1030.000000
10
1700.000000
20
1030.000000
10
1700.000000
20
1250.000000
10
-1700.000000
20
1250.000000
0
LWPOLYLINE
8
LM3-BOG-P010-003
90
4
70
1
10
-1286.000000
20
-1100.000000
10
-1026.000000
20
-1100.000000
10
-1026.000000
20
1100.000000
10
-1286.000000
20
1100.000000
0
LWPOLYLINE
8
LM3-BOG-P010-004
90
4
70
1
10
-130.000000
20
-1100.000000
10
130.000000
20
-1100.000000
10
130.000000
20
1100.000000
10
-130.000000
20
1100.000000
0
LWPOLYLINE
8
LM3-BOG-P010-005
90
4
70
1
10
1026.000000
20
-1100.000000
10
1286.000000
20
-1100.000000
10
1286.000000
20
1100.000000
10
1026.000000
20
1100.000000
0
LWPOLYLINE
8
LM3-BOG-P010-006
90
4
70
1
10
-1366.000000
20
-1110.000000
10
-946.000000
20
-1110.000000
10
-946.000000
20
-790.000000
10
-1366.000000
20
-790.000000
0
LWPOLYLINE
8
LM3-BOG-P010-007
90
4
70
1
10
-1336.000000
20
-1130.000000
10
-976.000000
20
-1130.000000
10
-976.000000
20
-770.000000
10
-1336.000000
20
-770.000000
0
LWPOLYLINE
8
LM3-BOG-P010-008
90
4
70
1
10
-1366.000000
20
790.000000
10
-946.000000
20
790.000000
10
-946.000000
20
1110.000000
10
-1366.000000
20
1110.000000
0
LWPOLYLINE
8
LM3-BOG-P010-009
90
4
70
1
10
-1336.000000
20
770.000000
10
-976.000000
20
770.000000
10
-976.000000
20
1130.000000
10
-1336.000000
20
1130.000000
0
LWPOLYLINE
8
LM3-BOG-P010-010
90
4
70
1
10
946.000000
20
-1110.000000
10
1366.000000
20
-1110.000000
10
1366.000000
20
-790.000000
10
946.000000
20
-790.000000
0
LWPOLYLINE
8
LM3-BOG-P010-011
90
4
70
1
10
976.000000
20
-1130.000000
10
1336.000000
20
-1130.000000
10
1336.000000
20
-770.000000
10
976.000000
20
-770.000000
0
LWPOLYLINE
8
LM3-BOG-P010-012
90
4
70
1
10
946.000000
20
790.000000
10
1366.000000
20
790.000000
10
1366.000000
20
1110.000000
10
946.000000
20
1110.000000
0
LWPOLYLINE
8
LM3-BOG-P010-013
90
4
70
1
10
976.000000
20
770.000000
10
1336.000000
20
770.000000
10
1336.000000
20
1130.000000
10
976.000000
20
1130.000000
0
LWPOLYLINE
8
LM3-BOG-P010-014
90
4
70
1
10
-260.000000
20
-885.000000
10
260.000000
20
-885.000000
10
260.000000
20
-465.000000
10
-260.000000
20
-465.000000
0
LWPOLYLINE
8
LM3-BOG-P010-015
90
4
70
1
10
-260.000000
20
465.000000
10
260.000000
20
465.000000
10
260.000000
20
885.000000
10
-260.000000
20
885.000000
0
LWPOLYLINE
8
LM3-BOG-P010-016
90
4
70
1
10
-972.000000
20
-240.000000
10
-252.000000
20
-240.000000
10
-252.000000
20
240.000000
10
-972.000000
20
240.000000
0
LWPOLYLINE
8
LM3-BOG-P010-017
90
4
70
1
10
420.000000
20
-190.000000
10
940.000000
20
-190.000000
10
940.000000
20
190.000000
10
420.000000
20
190.000000
0
ENDSEC
0
EOF
