0
SECTION
2
HEADER
9
$ACADVER
1
AC1015
0
ENDSEC
0
SECTION
2
ENTITIES
0
LWPOLYLINE
8
LM3-END-P062-001
90
4
70
1
10
-593.253968
20
-1050.000000
10
-521.031746
20
-1050.000000
10
-521.031746
20
-910.000000
10
-593.253968
20
-910.000000
0
LWPOLYLINE
8
LM3-END-P062-002
90
4
70
1
10
-593.253968
20
910.000000
10
-521.031746
20
910.000000
10
-521.031746
20
1050.000000
10
-593.253968
20
1050.000000
0
LWPOLYLINE
8
LM3-END-P062-003
90
4
70
1
10
-593.253968
20
-910.000000
10
-521.031746
20
-910.000000
10
-521.031746
20
910.000000
10
-593.253968
20
910.000000
0
LWPOLYLINE
8
LM3-END-P062-004
90
4
70
1
10
-593.253968
20
-910.000000
10
-521.031746
20
-910.000000
10
-521.031746
20
910.000000
10
-593.253968
20
910.000000
0
LWPOLYLINE
8
LM3-END-P062-005
90
4
70
1
10
-407.539683
20
-1050.000000
10
-335.317460
20
-1050.000000
10
-335.317460
20
-910.000000
10
-407.539683
20
-910.000000
0
LWPOLYLINE
8
LM3-END-P062-006
90
4
70
1
10
-407.539683
20
910.000000
10
-335.317460
20
910.000000
10
-335.317460
20
1050.000000
10
-407.539683
20
1050.000000
0
LWPOLYLINE
8
LM3-END-P062-007
90
4
70
1
10
-407.539683
20
-910.000000
10
-335.317460
20
-910.000000
10
-335.317460
20
910.000000
10
-407.539683
20
910.000000
0
LWPOLYLINE
8
LM3-END-P062-008
90
4
70
1
10
-407.539683
20
-910.000000
10
-335.317460
20
-910.000000
10
-335.317460
20
910.000000
10
-407.539683
20
910.000000
0
LWPOLYLINE
8
LM3-END-P062-009
90
4
70
1
10
-221.825397
20
-1050.000000
10
-149.603175
20
-1050.000000
10
-149.603175
20
-910.000000
10
-221.825397
20
-910.000000
0
LWPOLYLINE
8
LM3-END-P062-010
90
4
70
1
10
-221.825397
20
910.000000
10
-149.603175
20
910.000000
10
-149.603175
20
1050.000000
10
-221.825397
20
1050.000000
0
LWPOLYLINE
8
LM3-END-P062-011
90
4
70
1
10
-221.825397
20
-910.000000
10
-149.603175
20
-910.000000
10
-149.603175
20
910.000000
10
-221.825397
20
910.000000
0
LWPOLYLINE
8
LM3-END-P062-012
90
4
70
1
10
-221.825397
20
-910.000000
10
-149.603175
20
-910.000000
10
-149.603175
20
910.000000
10
-221.825397
20
910.000000
0
LWPOLYLINE
8
LM3-END-P062-013
90
4
70
1
10
-36.111111
20
-1050.000000
10
36.111111
20
-1050.000000
10
36.111111
20
-910.000000
10
-36.111111
20
-910.000000
0
LWPOLYLINE
8
LM3-END-P062-014
90
4
70
1
10
-36.111111
20
910.000000
10
36.111111
20
910.000000
10
36.111111
20
1050.000000
10
-36.111111
20
1050.000000
0
LWPOLYLINE
8
LM3-END-P062-015
90
4
70
1
10
-36.111111
20
-910.000000
10
36.111111
20
-910.000000
10
36.111111
20
910.000000
10
-36.111111
20
910.000000
0
LWPOLYLINE
8
LM3-END-P062-016
90
4
70
1
10
-36.111111
20
-910.000000
10
36.111111
20
-910.000000
10
36.111111
20
910.000000
10
-36.111111
20
910.000000
0
LWPOLYLINE
8
LM3-END-P062-017
90
4
70
1
10
149.603175
20
-1050.000000
10
221.825397
20
-1050.000000
10
221.825397
20
-910.000000
10
149.603175
20
-910.000000
0
LWPOLYLINE
8
LM3-END-P062-018
90
4
70
1
10
149.603175
20
910.000000
10
221.825397
20
910.000000
10
221.825397
20
1050.000000
10
149.603175
20
1050.000000
0
LWPOLYLINE
8
LM3-END-P062-019
90
4
70
1
10
149.603175
20
-910.000000
10
221.825397
20
-910.000000
10
221.825397
20
910.000000
10
149.603175
20
910.000000
0
LWPOLYLINE
8
LM3-END-P062-020
90
4
70
1
10
149.603175
20
-910.000000
10
221.825397
20
-910.000000
10
221.825397
20
910.000000
10
149.603175
20
910.000000
0
LWPOLYLINE
8
LM3-END-P062-021
90
4
70
1
10
335.317460
20
-1050.000000
10
407.539683
20
-1050.000000
10
407.539683
20
-910.000000
10
335.317460
20
-910.000000
0
LWPOLYLINE
8
LM3-END-P062-022
90
4
70
1
10
335.317460
20
910.000000
10
407.539683
20
910.000000
10
407.539683
20
1050.000000
10
335.317460
20
1050.000000
0
LWPOLYLINE
8
LM3-END-P062-023
90
4
70
1
10
335.317460
20
-910.000000
10
407.539683
20
-910.000000
10
407.539683
20
910.000000
10
335.317460
20
910.000000
0
LWPOLYLINE
8
LM3-END-P062-024
90
4
70
1
10
335.317460
20
-910.000000
10
407.539683
20
-910.000000
10
407.539683
20
910.000000
10
335.317460
20
910.000000
0
LWPOLYLINE
8
LM3-END-P062-025
90
4
70
1
10
521.031746
20
-1050.000000
10
593.253968
20
-1050.000000
10
593.253968
20
-910.000000
10
521.031746
20
-910.000000
0
LWPOLYLINE
8
LM3-END-P062-026
90
4
70
1
10
521.031746
20
910.000000
10
593.253968
20
910.000000
10
593.253968
20
1050.000000
10
521.031746
20
1050.000000
0
LWPOLYLINE
8
LM3-END-P062-027
90
4
70
1
10
521.031746
20
-910.000000
10
593.253968
20
-910.000000
10
593.253968
20
910.000000
10
521.031746
20
910.000000
0
LWPOLYLINE
8
LM3-END-P062-028
90
4
70
1
10
521.031746
20
-910.000000
10
593.253968
20
-910.000000
10
593.253968
20
910.000000
10
521.031746
20
910.000000
0
ENDSEC
0
EOF
