0
SECTION
2
HEADER
9
$ACADVER
1
AC1015
0
ENDSEC
0
SECTION
2
ENTITIES
0
LWPOLYLINE
8
LM3-END-P030-001
90
4
70
1
10
-450.000000
20
-350.000000
10
450.000000
20
-350.000000
10
450.000000
20
350.000000
10
-450.000000
20
350.000000
0
LWPOLYLINE
8
LM3-END-P030-002
90
4
70
1
10
-351.000000
20
-322.000000
10
351.000000
20
-322.000000
10
351.000000
20
322.000000
10
-351.000000
20
322.000000
0
LWPOLYLINE
8
LM3-END-P030-003
90
4
70
1
10
-234.000000
20
-273.000000
10
234.000000
20
-273.000000
10
234.000000
20
273.000000
10
-234.000000
20
273.000000
0
ENDSEC
0
EOF
