0
SECTION
2
HEADER
9
$ACADVER
1
AC1015
0
ENDSEC
0
SECTION
2
ENTITIES
0
LWPOLYLINE
8
LM3-BDY-P110-001
90
4
70
1
10
-825.000000
20
-70.000000
10
-700.000000
20
-70.000000
10
-700.000000
20
70.000000
10
-825.000000
20
70.000000
0
LWPOLYLINE
8
LM3-BDY-P110-002
90
4
70
1
10
700.000000
20
-70.000000
10
825.000000
20
-70.000000
10
825.000000
20
70.000000
10
700.000000
20
70.000000
0
LWPOLYLINE
8
LM3-BDY-P110-003
90
4
70
1
10
-700.000000
20
-70.000000
10
700.000000
20
-70.000000
10
700.000000
20
70.000000
10
-700.000000
20
70.000000
0
LWPOLYLINE
8
LM3-BDY-P110-004
90
4
70
1
10
-700.000000
20
-70.000000
10
700.000000
20
-70.000000
10
700.000000
20
70.000000
10
-700.000000
20
70.000000
0
ENDSEC
0
EOF
