0
SECTION
2
HEADER
9
$ACADVER
1
AC1015
0
ENDSEC
0
SECTION
2
ENTITIES
0
LWPOLYLINE
8
LM3-BDY-P140-001
90
4
70
1
10
-7900.000000
20
-67.600000
10
7900.000000
20
-67.600000
10
7900.000000
20
-47.600000
10
-7900.000000
20
-47.600000
0
LWPOLYLINE
8
LM3-BDY-P140-002
90
4
70
1
10
-7900.000000
20
47.600000
10
7900.000000
20
47.600000
10
7900.000000
20
67.600000
10
-7900.000000
20
67.600000
0
LWPOLYLINE
8
LM3-BDY-P140-003
90
4
70
1
10
-5727.500000
20
-72.000000
10
-5332.500000
20
-72.000000
10
-5332.500000
20
72.000000
10
-5727.500000
20
72.000000
0
LWPOLYLINE
8
LM3-BDY-P140-004
90
4
70
1
10
-197.500000
20
-72.000000
10
197.500000
20
-72.000000
10
197.500000
20
72.000000
10
-197.500000
20
72.000000
0
LWPOLYLINE
8
LM3-BDY-P140-005
90
4
70
1
10
5332.500000
20
-72.000000
10
5727.500000
20
-72.000000
10
5727.500000
20
72.000000
10
5332.500000
20
72.000000
0
ENDSEC
0
EOF
