0
SECTION
2
HEADER
9
$ACADVER
1
AC1015
0
ENDSEC
0
SECTION
2
ENTITIES
0
LWPOLYLINE
8
LM3-DOOR-P010-001
90
4
70
1
10
-750.000000
20
-130.000000
10
750.000000
20
-130.000000
10
750.000000
20
130.000000
10
-750.000000
20
130.000000
0
LWPOLYLINE
8
LM3-DOOR-P010-002
90
4
70
1
10
-750.000000
20
-130.000000
10
-620.000000
20
-130.000000
10
-620.000000
20
130.000000
10
-750.000000
20
130.000000
0
LWPOLYLINE
8
LM3-DOOR-P010-003
90
4
70
1
10
620.000000
20
-130.000000
10
750.000000
20
-130.000000
10
750.000000
20
130.000000
10
620.000000
20
130.000000
0
LWPOLYLINE
8
LM3-DOOR-P010-004
90
4
70
1
10
-750.000000
20
-130.000000
10
750.000000
20
-130.000000
10
750.000000
20
130.000000
10
-750.000000
20
130.000000
0
LWPOLYLINE
8
LM3-DOOR-P010-005
90
4
70
1
10
210.000000
20
-84.500000
10
630.000000
20
-84.500000
10
630.000000
20
84.500000
10
210.000000
20
84.500000
0
LWPOLYLINE
8
LM3-DOOR-P010-006
90
4
70
1
10
-630.000000
20
-106.600000
10
-450.000000
20
-106.600000
10
-450.000000
20
106.600000
10
-630.000000
20
106.600000
0
LWPOLYLINE
8
LM3-DOOR-P010-007
90
4
70
1
10
-554.000000
20
-130.000000
10
-526.000000
20
-130.000000
10
-526.000000
20
130.000000
10
-554.000000
20
130.000000
0
LWPOLYLINE
8
LM3-DOOR-P010-008
90
4
70
1
10
-630.000000
20
-106.600000
10
-450.000000
20
-106.600000
10
-450.000000
20
106.600000
10
-630.000000
20
106.600000
0
LWPOLYLINE
8
LM3-DOOR-P010-009
90
4
70
1
10
-554.000000
20
-130.000000
10
-526.000000
20
-130.000000
10
-526.000000
20
130.000000
10
-554.000000
20
130.000000
0
LWPOLYLINE
8
LM3-DOOR-P010-010
90
4
70
1
10
450.000000
20
-106.600000
10
630.000000
20
-106.600000
10
630.000000
20
106.600000
10
450.000000
20
106.600000
0
LWPOLYLINE
8
LM3-DOOR-P010-011
90
4
70
1
10
526.000000
20
-130.000000
10
554.000000
20
-130.000000
10
554.000000
20
130.000000
10
526.000000
20
130.000000
0
LWPOLYLINE
8
LM3-DOOR-P010-012
90
4
70
1
10
450.000000
20
-106.600000
10
630.000000
20
-106.600000
10
630.000000
20
106.600000
10
450.000000
20
106.600000
0
LWPOLYLINE
8
LM3-DOOR-P010-013
90
4
70
1
10
526.000000
20
-130.000000
10
554.000000
20
-130.000000
10
554.000000
20
130.000000
10
526.000000
20
130.000000
0
LWPOLYLINE
8
LM3-DOOR-P010-014
90
4
70
1
10
-612.500000
20
-58.500000
10
-557.500000
20
-58.500000
10
-557.500000
20
58.500000
10
-612.500000
20
58.500000
0
LWPOLYLINE
8
LM3-DOOR-P010-015
90
4
70
1
10
557.500000
20
-58.500000
10
612.500000
20
-58.500000
10
612.500000
20
58.500000
10
557.500000
20
58.500000
0
ENDSEC
0
EOF
