<svg xmlns="http://www.w3.org/2000/svg" width="960" height="540" viewBox="0 0 960 540">
<rect width="960" height="540" fill="white" stroke="#162332" stroke-width="2"/>
<text x="28" y="35" font-family="sans-serif" font-size="20" font-weight="bold">LM3-CWL-P016 — CWL-FRP-06 backing-ring flange fiberglass cast set</text>
<text x="28" y="56" font-family="sans-serif" font-size="11">DESIGN-REFERENCE ENVELOPE SHEET · NOT FOR MANUFACTURE</text>
<text x="35.0" y="72.0" font-family="sans-serif" font-size="12">PLAN X/Y</text>
<rect x="35.000" y="343.667" width="26.000" height="43.333" fill="none" stroke="#167d8d" stroke-width="0.8" data-primitive="001"/>
<rect x="269.000" y="343.667" width="26.000" height="43.333" fill="none" stroke="#167d8d" stroke-width="0.8" data-primitive="002"/>
<rect x="61.000" y="343.667" width="208.000" height="43.333" fill="none" stroke="#167d8d" stroke-width="0.8" data-primitive="003"/>
<rect x="61.000" y="343.667" width="208.000" height="43.333" fill="none" stroke="#167d8d" stroke-width="0.8" data-primitive="004"/>
<text x="35.0" y="407" font-family="monospace" font-size="10">720.0 × 120.0 mm</text>
<text x="345.0" y="72.0" font-family="sans-serif" font-size="12">SIDE X/Z</text>
<rect x="345.000" y="127.000" width="26.000" height="260.000" fill="none" stroke="#167d8d" stroke-width="0.8" data-primitive="001"/>
<rect x="579.000" y="127.000" width="26.000" height="260.000" fill="none" stroke="#167d8d" stroke-width="0.8" data-primitive="002"/>
<rect x="371.000" y="127.000" width="208.000" height="26.000" fill="none" stroke="#167d8d" stroke-width="0.8" data-primitive="003"/>
<rect x="371.000" y="361.000" width="208.000" height="26.000" fill="none" stroke="#167d8d" stroke-width="0.8" data-primitive="004"/>
<text x="345.0" y="407" font-family="monospace" font-size="10">720.0 × 720.0 mm</text>
<text x="655.0" y="72.0" font-family="sans-serif" font-size="12">END Y/Z</text>
<rect x="655.000" y="87.000" width="50.000" height="300.000" fill="none" stroke="#167d8d" stroke-width="0.8" data-primitive="001"/>
<rect x="655.000" y="87.000" width="50.000" height="300.000" fill="none" stroke="#167d8d" stroke-width="0.8" data-primitive="002"/>
<rect x="655.000" y="87.000" width="50.000" height="30.000" fill="none" stroke="#167d8d" stroke-width="0.8" data-primitive="003"/>
<rect x="655.000" y="357.000" width="50.000" height="30.000" fill="none" stroke="#167d8d" stroke-width="0.8" data-primitive="004"/>
<text x="655.0" y="407" font-family="monospace" font-size="10">120.0 × 720.0 mm</text>
<line x1="28" y1="442" x2="932" y2="442" stroke="#162332"/>
<text x="28" y="466" font-family="monospace" font-size="12">OVERALL X/Y/Z: 720.0 / 120.0 / 720.0 mm</text>
<text x="28" y="490" font-family="sans-serif" font-size="11">Verify material, datums, tolerances, weld/laminate definition and process qualification before release.</text>
<text x="28" y="514" font-family="sans-serif" font-size="10">Source: controlled LM3 product manifest and parametric geometry · units: mm · scale: fit to view</text>
</svg>
