<svg xmlns="http://www.w3.org/2000/svg" width="960" height="540" viewBox="0 0 960 540">
<rect width="960" height="540" fill="white" stroke="#162332" stroke-width="2"/>
<text x="28" y="35" font-family="sans-serif" font-size="20" font-weight="bold">LM3-BDY-P021 — underframe cross-bearer, door-bay outrigger, and equipment-bracket pack</text>
<text x="28" y="56" font-family="sans-serif" font-size="11">DESIGN-REFERENCE ENVELOPE SHEET · NOT FOR MANUFACTURE</text>
<text x="35.0" y="72.0" font-family="sans-serif" font-size="12">PLAN X/Y</text>
<rect x="35.000" y="337.217" width="3.006" height="49.783" fill="none" stroke="#167d8d" stroke-width="0.8" data-primitive="001"/>
<rect x="72.121" y="337.217" width="3.006" height="49.783" fill="none" stroke="#167d8d" stroke-width="0.8" data-primitive="002"/>
<rect x="109.243" y="337.217" width="3.006" height="49.783" fill="none" stroke="#167d8d" stroke-width="0.8" data-primitive="003"/>
<rect x="146.364" y="337.217" width="3.006" height="49.783" fill="none" stroke="#167d8d" stroke-width="0.8" data-primitive="004"/>
<rect x="180.630" y="337.217" width="3.006" height="49.783" fill="none" stroke="#167d8d" stroke-width="0.8" data-primitive="005"/>
<rect x="217.751" y="337.217" width="3.006" height="49.783" fill="none" stroke="#167d8d" stroke-width="0.8" data-primitive="006"/>
<rect x="254.873" y="337.217" width="3.006" height="49.783" fill="none" stroke="#167d8d" stroke-width="0.8" data-primitive="007"/>
<rect x="291.994" y="337.217" width="3.006" height="49.783" fill="none" stroke="#167d8d" stroke-width="0.8" data-primitive="008"/>
<rect x="55.402" y="380.575" width="7.890" height="4.884" fill="none" stroke="#167d8d" stroke-width="0.8" data-primitive="009"/>
<rect x="55.402" y="338.757" width="7.890" height="4.884" fill="none" stroke="#167d8d" stroke-width="0.8" data-primitive="010"/>
<rect x="126.789" y="380.575" width="7.890" height="4.884" fill="none" stroke="#167d8d" stroke-width="0.8" data-primitive="011"/>
<rect x="126.789" y="338.757" width="7.890" height="4.884" fill="none" stroke="#167d8d" stroke-width="0.8" data-primitive="012"/>
<rect x="195.321" y="380.575" width="7.890" height="4.884" fill="none" stroke="#167d8d" stroke-width="0.8" data-primitive="013"/>
<rect x="195.321" y="338.757" width="7.890" height="4.884" fill="none" stroke="#167d8d" stroke-width="0.8" data-primitive="014"/>
<rect x="266.708" y="380.575" width="7.890" height="4.884" fill="none" stroke="#167d8d" stroke-width="0.8" data-primitive="015"/>
<rect x="266.708" y="338.757" width="7.890" height="4.884" fill="none" stroke="#167d8d" stroke-width="0.8" data-primitive="016"/>
<text x="35.0" y="407" font-family="monospace" font-size="10">13840.0 × 2650.0 mm</text>
<text x="345.0" y="72.0" font-family="sans-serif" font-size="12">SIDE X/Z</text>
<rect x="345.000" y="383.032" width="3.006" height="3.727" fill="none" stroke="#167d8d" stroke-width="0.8" data-primitive="001"/>
<rect x="382.121" y="383.032" width="3.006" height="3.727" fill="none" stroke="#167d8d" stroke-width="0.8" data-primitive="002"/>
<rect x="419.243" y="383.032" width="3.006" height="3.727" fill="none" stroke="#167d8d" stroke-width="0.8" data-primitive="003"/>
<rect x="456.364" y="383.032" width="3.006" height="3.727" fill="none" stroke="#167d8d" stroke-width="0.8" data-primitive="004"/>
<rect x="490.630" y="383.032" width="3.006" height="3.727" fill="none" stroke="#167d8d" stroke-width="0.8" data-primitive="005"/>
<rect x="527.751" y="383.032" width="3.006" height="3.727" fill="none" stroke="#167d8d" stroke-width="0.8" data-primitive="006"/>
<rect x="564.873" y="383.032" width="3.006" height="3.727" fill="none" stroke="#167d8d" stroke-width="0.8" data-primitive="007"/>
<rect x="601.994" y="383.032" width="3.006" height="3.727" fill="none" stroke="#167d8d" stroke-width="0.8" data-primitive="008"/>
<rect x="365.402" y="384.956" width="7.890" height="2.044" fill="none" stroke="#167d8d" stroke-width="0.8" data-primitive="009"/>
<rect x="365.402" y="384.956" width="7.890" height="2.044" fill="none" stroke="#167d8d" stroke-width="0.8" data-primitive="010"/>
<rect x="436.789" y="384.956" width="7.890" height="2.044" fill="none" stroke="#167d8d" stroke-width="0.8" data-primitive="011"/>
<rect x="436.789" y="384.956" width="7.890" height="2.044" fill="none" stroke="#167d8d" stroke-width="0.8" data-primitive="012"/>
<rect x="505.321" y="384.956" width="7.890" height="2.044" fill="none" stroke="#167d8d" stroke-width="0.8" data-primitive="013"/>
<rect x="505.321" y="384.956" width="7.890" height="2.044" fill="none" stroke="#167d8d" stroke-width="0.8" data-primitive="014"/>
<rect x="576.708" y="384.956" width="7.890" height="2.044" fill="none" stroke="#167d8d" stroke-width="0.8" data-primitive="015"/>
<rect x="576.708" y="384.956" width="7.890" height="2.044" fill="none" stroke="#167d8d" stroke-width="0.8" data-primitive="016"/>
<text x="345.0" y="407" font-family="monospace" font-size="10">13840.0 × 211.2 mm</text>
<text x="655.0" y="72.0" font-family="sans-serif" font-size="12">END Y/Z</text>
<rect x="655.000" y="366.278" width="260.000" height="19.466" fill="none" stroke="#167d8d" stroke-width="0.8" data-primitive="001"/>
<rect x="655.000" y="366.278" width="260.000" height="19.466" fill="none" stroke="#167d8d" stroke-width="0.8" data-primitive="002"/>
<rect x="655.000" y="366.278" width="260.000" height="19.466" fill="none" stroke="#167d8d" stroke-width="0.8" data-primitive="003"/>
<rect x="655.000" y="366.278" width="260.000" height="19.466" fill="none" stroke="#167d8d" stroke-width="0.8" data-primitive="004"/>
<rect x="655.000" y="366.278" width="260.000" height="19.466" fill="none" stroke="#167d8d" stroke-width="0.8" data-primitive="005"/>
<rect x="655.000" y="366.278" width="260.000" height="19.466" fill="none" stroke="#167d8d" stroke-width="0.8" data-primitive="006"/>
<rect x="655.000" y="366.278" width="260.000" height="19.466" fill="none" stroke="#167d8d" stroke-width="0.8" data-primitive="007"/>
<rect x="655.000" y="366.278" width="260.000" height="19.466" fill="none" stroke="#167d8d" stroke-width="0.8" data-primitive="008"/>
<rect x="663.045" y="376.325" width="25.509" height="10.675" fill="none" stroke="#167d8d" stroke-width="0.8" data-primitive="009"/>
<rect x="881.445" y="376.325" width="25.509" height="10.675" fill="none" stroke="#167d8d" stroke-width="0.8" data-primitive="010"/>
<rect x="663.045" y="376.325" width="25.509" height="10.675" fill="none" stroke="#167d8d" stroke-width="0.8" data-primitive="011"/>
<rect x="881.445" y="376.325" width="25.509" height="10.675" fill="none" stroke="#167d8d" stroke-width="0.8" data-primitive="012"/>
<rect x="663.045" y="376.325" width="25.509" height="10.675" fill="none" stroke="#167d8d" stroke-width="0.8" data-primitive="013"/>
<rect x="881.445" y="376.325" width="25.509" height="10.675" fill="none" stroke="#167d8d" stroke-width="0.8" data-primitive="014"/>
<rect x="663.045" y="376.325" width="25.509" height="10.675" fill="none" stroke="#167d8d" stroke-width="0.8" data-primitive="015"/>
<rect x="881.445" y="376.325" width="25.509" height="10.675" fill="none" stroke="#167d8d" stroke-width="0.8" data-primitive="016"/>
<text x="655.0" y="407" font-family="monospace" font-size="10">2650.0 × 211.2 mm</text>
<line x1="28" y1="442" x2="932" y2="442" stroke="#162332"/>
<text x="28" y="466" font-family="monospace" font-size="12">OVERALL X/Y/Z: 13840.0 / 2650.0 / 211.2 mm</text>
<text x="28" y="490" font-family="sans-serif" font-size="11">Verify material, datums, tolerances, weld/laminate definition and process qualification before release.</text>
<text x="28" y="514" font-family="sans-serif" font-size="10">Source: controlled LM3 product manifest and parametric geometry · units: mm · scale: fit to view</text>
</svg>
