ISO-10303-21;
HEADER;
FILE_DESCRIPTION(('ViewDefinition [CoordinationView]'),'2;1');
FILE_NAME('LM3-ART-SA800.ifc','2026-08-30T00:00:00+00:00',('OpenSourceRail'),('OpenSourceRail'),'IfcOpenShell 0.8.5','OpenSourceRail deterministic LM3 product-library exporter','design-reference / not for construction');
FILE_SCHEMA(('IFC4X3_ADD2'));
ENDSEC;
DATA;
#1=IFCPROJECT('3CJ8V6o4bS1wVubSB2X1hA',$,'LM3-ART-SA800 \X2\2014\X0\ complete inter-car structural articulation, passenger gangway and service transfer','Design-reference geometry and assembly hierarchy only; supplier freeze, released drawings/tolerances, calculations, qualified processes and first-article tests remain mandatory.',$,$,$,(#12),#7);
#2=IFCSITE('0kgbodziTUIBilHXWpSz50',$,'LM3 product library',$,$,#18,$,$,.ELEMENT.,$,$,$,$,$);
#3=IFCBUILDING('0QpAdqyPvN$goaYf7eA591',$,'LM3 assembly inspection fixture',$,$,#21,$,$,.ELEMENT.,$,$,$);
#4=IFCSIUNIT(*,.LENGTHUNIT.,$,.METRE.);
#5=IFCSIUNIT(*,.AREAUNIT.,$,.SQUARE_METRE.);
#6=IFCSIUNIT(*,.VOLUMEUNIT.,$,.CUBIC_METRE.);
#7=IFCUNITASSIGNMENT((#6,#4,#5));
#8=IFCCARTESIANPOINT((0.,0.,0.));
#9=IFCDIRECTION((0.,0.,1.));
#10=IFCDIRECTION((1.,0.,0.));
#11=IFCAXIS2PLACEMENT3D(#8,#9,#10);
#12=IFCGEOMETRICREPRESENTATIONCONTEXT($,'Model',3,1.0000000000000001E-05,#11,$);
#13=IFCGEOMETRICREPRESENTATIONSUBCONTEXT('Body','Model',*,*,*,*,#12,$,.MODEL_VIEW.,$);
#14=IFCRELAGGREGATES('2uQdTzE19PVh$a5NnxqAMD',$,$,$,#1,(#2));
#15=IFCRELAGGREGATES('0Pa$xMQMzJrf4lzbRR9hR7',$,$,$,#2,(#3));
#16=IFCCARTESIANPOINT((0.,0.,0.));
#17=IFCAXIS2PLACEMENT3D(#16,$,$);
#18=IFCLOCALPLACEMENT($,#17);
#19=IFCCARTESIANPOINT((0.,0.,0.));
#20=IFCAXIS2PLACEMENT3D(#19,$,$);
#21=IFCLOCALPLACEMENT($,#20);
#22=IFCPROPERTYSINGLEVALUE('Status',$,IFCTEXT('design-reference-not-released'),$);
#23=IFCPROPERTYSINGLEVALUE('ReleaseBoundary',$,IFCTEXT('Design-reference geometry and assembly hierarchy only; supplier freeze, released drawings/tolerances, calculations, qualified processes and first-article tests remain mandatory.'),$);
#24=IFCPROPERTYSINGLEVALUE('Manifest',$,IFCTEXT('design/component-catalogue/catalog/buildable-trainset/buildable-trainset-manifest.json'),$);
#25=IFCPROPERTYSINGLEVALUE('ManifestSha256',$,IFCTEXT('7654747909805305ce2018109b5b649c4817a8f8c44a3ec8f2e8a6f74d48243e'),$);
#26=IFCPROPERTYSET('2TXGX_YIbRYPa4Cli9HWBd',$,'OSR_ProductLibrary',$,(#22,#23,#24,#25));
#27=IFCRELDEFINESBYPROPERTIES('09V$uYP1jNfBnBNsCJvYly',$,$,$,(#1),#26);
#28=IFCELEMENTASSEMBLY('209b3LunvK4vUpBdce7uJK',$,'complete inter-car structural articulation, passenger gangway and service transfer','motion-envelope proof | trainline continuity | water ingress/drain test',$,$,$,'LM3-ART-SA800',$,$);
#29=IFCPROPERTYSINGLEVALUE('OSRId',$,IFCTEXT('LM3-ART-SA800'),$);
#30=IFCPROPERTYSINGLEVALUE('Layer',$,IFCTEXT('assembly'),$);
#31=IFCPROPERTYSINGLEVALUE('BuildCell',$,IFCTEXT('final assembly and commissioning cell'),$);
#32=IFCPROPERTYSINGLEVALUE('QuantityPerTrainset',$,IFCINTEGER(2),$);
#33=IFCPROPERTYSINGLEVALUE('GeometryStatus',$,IFCTEXT('complete-hierarchy-inspection-layout'),$);
#34=IFCPROPERTYSET('2P$pSKwnbTCvkAEAcQ$zNe',$,'OSR_AssemblyDefinition',$,(#29,#30,#31,#32,#33));
#35=IFCRELDEFINESBYPROPERTIES('0q_xI65bvSqRJ8_RCyavyo',$,$,$,(#28),#34);
#36=IFCELEMENTASSEMBLY('3XgAqmOcDLawN8ppB3Z9tZ',$,'structural articulation joint and anti-lift load path','pin/bearing identity | shimmed datum survey | proof load | lubrication/seal release | motion sweep',$,$,$,'LM3-ART-SA810',$,$);
#37=IFCPROPERTYSINGLEVALUE('OSRId',$,IFCTEXT('LM3-ART-SA810'),$);
#38=IFCPROPERTYSINGLEVALUE('Layer',$,IFCTEXT('subassembly'),$);
#39=IFCPROPERTYSINGLEVALUE('BuildCell',$,IFCTEXT('articulation bench and proof-load cell'),$);
#40=IFCPROPERTYSINGLEVALUE('QuantityPerTrainset',$,IFCINTEGER(2),$);
#41=IFCPROPERTYSINGLEVALUE('GeometryStatus',$,IFCTEXT('complete-hierarchy-inspection-layout'),$);
#42=IFCPROPERTYSET('2mISCFcFDQYOlesAA1vcKI',$,'OSR_AssemblyDefinition',$,(#37,#38,#39,#40,#41));
#43=IFCRELDEFINESBYPROPERTIES('3YdUvcQLzIevYIE2mtE_B7',$,$,$,(#36),#42);
#44=IFCELEMENTASSEMBLY('29putB_KTP1AumL7emSzVM',$,'passenger gangway bellows, bridge and turntable subassembly','fire-material pack | bridge load test | gap/pinch gauge | water test | full-motion sweep',$,$,$,'LM3-ART-SA820',$,$);
#45=IFCPROPERTYSINGLEVALUE('OSRId',$,IFCTEXT('LM3-ART-SA820'),$);
#46=IFCPROPERTYSINGLEVALUE('Layer',$,IFCTEXT('subassembly'),$);
#47=IFCPROPERTYSINGLEVALUE('BuildCell',$,IFCTEXT('gangway clean assembly cell'),$);
#48=IFCPROPERTYSINGLEVALUE('QuantityPerTrainset',$,IFCINTEGER(2),$);
#49=IFCPROPERTYSINGLEVALUE('GeometryStatus',$,IFCTEXT('complete-hierarchy-inspection-layout'),$);
#50=IFCPROPERTYSET('3o$3DesvzKIfzuznSwsae6',$,'OSR_AssemblyDefinition',$,(#45,#46,#47,#48,#49));
#51=IFCRELDEFINESBYPROPERTIES('0$yk_1NWjG3ggpfMnZmU3I',$,$,$,(#44),#50);
#52=IFCELEMENTASSEMBLY('3_p1ThvBrKu9Ej5KC6LyjG',$,'articulation service-transfer and segregated trainline subassembly','HV/LV segregation | continuity/pressure test | bend-radius sweep | drain test | replaceability trial',$,$,$,'LM3-ART-SA830',$,$);
#53=IFCPROPERTYSINGLEVALUE('OSRId',$,IFCTEXT('LM3-ART-SA830'),$);
#54=IFCPROPERTYSINGLEVALUE('Layer',$,IFCTEXT('subassembly'),$);
#55=IFCPROPERTYSINGLEVALUE('BuildCell',$,IFCTEXT('harness, hose and articulation bench'),$);
#56=IFCPROPERTYSINGLEVALUE('QuantityPerTrainset',$,IFCINTEGER(2),$);
#57=IFCPROPERTYSINGLEVALUE('GeometryStatus',$,IFCTEXT('complete-hierarchy-inspection-layout'),$);
#58=IFCPROPERTYSET('2kn3qQMnjTlRCIcdapdBhN',$,'OSR_AssemblyDefinition',$,(#53,#54,#55,#56,#57));
#59=IFCRELDEFINESBYPROPERTIES('1FeppQBbPQUg8kaw8xKeSZ',$,$,$,(#52),#58);
#60=IFCBUILDINGELEMENTPROXY('118E7nObrP6Rd4kfSusizU',$,'articulation adapter frame, anti-lift keeper, and shim kit','Machined/welded adapter frames for lower pivot, upper links, bellows, and trainlines.',$,#481,#97,'LM3-ART-P010',$);
#61=IFCPROPERTYSINGLEVALUE('OSRId',$,IFCTEXT('LM3-ART-P010'),$);
#62=IFCPROPERTYSINGLEVALUE('Parent',$,IFCTEXT('LM3-ART-SA810'),$);
#63=IFCPROPERTYSINGLEVALUE('Route',$,IFCTEXT('MAKE'),$);
#64=IFCPROPERTYSINGLEVALUE('Maturity',$,IFCTEXT('release-candidate'),$);
#65=IFCPROPERTYSINGLEVALUE('QuantityPerTrainset',$,IFCINTEGER(2),$);
#66=IFCPROPERTYSINGLEVALUE('Unit',$,IFCTEXT('kit'),$);
#67=IFCPROPERTYSINGLEVALUE('GeometryStatus',$,IFCTEXT('design-reference-not-released'),$);
#68=IFCPROPERTYSET('1NDEPSRnLIBgp4rkVB4Z3w',$,'OSR_ProductDefinition',$,(#61,#62,#63,#64,#65,#66,#67));
#69=IFCRELDEFINESBYPROPERTIES('0S56EK3lnPjxNP7lRgnoON',$,$,$,(#60),#68);
#70=IFCCARTESIANPOINTLIST3D(((-1.2,-0.14999999999999999,-1.2),(-1.2,-0.14999999999999999,1.2),(-1.2,0.14999999999999999,-1.2),(-1.2,0.14999999999999999,1.2),(-1.0600000000000001,-0.14999999999999999,-1.2),(-1.0600000000000001,-0.14999999999999999,1.2),(-1.0600000000000001,0.14999999999999999,-1.2),(-1.0600000000000001,0.14999999999999999,1.2),(1.0600000000000001,-0.14999999999999999,-1.2),(1.0600000000000001,-0.14999999999999999,1.2),(1.0600000000000001,0.14999999999999999,-1.2),(1.0600000000000001,0.14999999999999999,1.2),(1.2,-0.14999999999999999,-1.2),(1.2,-0.14999999999999999,1.2),(1.2,0.14999999999999999,-1.2),(1.2,0.14999999999999999,1.2),(-1.0600000000000001,-0.14999999999999999,1.0600000000000001),(-1.0600000000000001,-0.14999999999999999,1.2),(-1.0600000000000001,0.14999999999999999,1.0600000000000001),(-1.0600000000000001,0.14999999999999999,1.2),(1.0600000000000001,-0.14999999999999999,1.0600000000000001),(1.0600000000000001,-0.14999999999999999,1.2),(1.0600000000000001,0.14999999999999999,1.0600000000000001),(1.0600000000000001,0.14999999999999999,1.2),(-1.0600000000000001,-0.14999999999999999,-1.2),(-1.0600000000000001,-0.14999999999999999,-1.0600000000000001),(-1.0600000000000001,0.14999999999999999,-1.2),(-1.0600000000000001,0.14999999999999999,-1.0600000000000001),(1.0600000000000001,-0.14999999999999999,-1.2),(1.0600000000000001,-0.14999999999999999,-1.0600000000000001),(1.0600000000000001,0.14999999999999999,-1.2),(1.0600000000000001,0.14999999999999999,-1.0600000000000001)),$);
#71=IFCINDEXEDPOLYGONALFACE((1,2,4,3));
#72=IFCINDEXEDPOLYGONALFACE((5,7,8,6));
#73=IFCINDEXEDPOLYGONALFACE((1,5,6,2));
#74=IFCINDEXEDPOLYGONALFACE((3,4,8,7));
#75=IFCINDEXEDPOLYGONALFACE((1,3,7,5));
#76=IFCINDEXEDPOLYGONALFACE((2,6,8,4));
#77=IFCINDEXEDPOLYGONALFACE((9,10,12,11));
#78=IFCINDEXEDPOLYGONALFACE((13,15,16,14));
#79=IFCINDEXEDPOLYGONALFACE((9,13,14,10));
#80=IFCINDEXEDPOLYGONALFACE((11,12,16,15));
#81=IFCINDEXEDPOLYGONALFACE((9,11,15,13));
#82=IFCINDEXEDPOLYGONALFACE((10,14,16,12));
#83=IFCINDEXEDPOLYGONALFACE((17,18,20,19));
#84=IFCINDEXEDPOLYGONALFACE((21,23,24,22));
#85=IFCINDEXEDPOLYGONALFACE((17,21,22,18));
#86=IFCINDEXEDPOLYGONALFACE((19,20,24,23));
#87=IFCINDEXEDPOLYGONALFACE((17,19,23,21));
#88=IFCINDEXEDPOLYGONALFACE((18,22,24,20));
#89=IFCINDEXEDPOLYGONALFACE((25,26,28,27));
#90=IFCINDEXEDPOLYGONALFACE((29,31,32,30));
#91=IFCINDEXEDPOLYGONALFACE((25,29,30,26));
#92=IFCINDEXEDPOLYGONALFACE((27,28,32,31));
#93=IFCINDEXEDPOLYGONALFACE((25,27,31,29));
#94=IFCINDEXEDPOLYGONALFACE((26,30,32,28));
#95=IFCPOLYGONALFACESET(#70,$,(#71,#72,#73,#74,#75,#76,#77,#78,#79,#80,#81,#82,#83,#84,#85,#86,#87,#88,#89,#90,#91,#92,#93,#94),$);
#96=IFCSHAPEREPRESENTATION(#13,'Body','Tessellation',(#95));
#97=IFCPRODUCTDEFINITIONSHAPE($,$,(#96));
#98=IFCBUILDINGELEMENTPROXY('1I1lIOdqrL0gVfMsCtv9iX',$,'articulation lower spherical pivot, bearing housing and pin set','Supplier-sized spherical bearing, housing, pin, bushes and retainers transmit the released draw, buff, vertical and anti-lift loads through the OSR adapter.',$,#484,#139,'LM3-ART-P020',$);
#99=IFCPROPERTYSINGLEVALUE('OSRId',$,IFCTEXT('LM3-ART-P020'),$);
#100=IFCPROPERTYSINGLEVALUE('Parent',$,IFCTEXT('LM3-ART-SA810'),$);
#101=IFCPROPERTYSINGLEVALUE('Route',$,IFCTEXT('BID'),$);
#102=IFCPROPERTYSINGLEVALUE('Maturity',$,IFCTEXT('buildable-after-supplier-freeze'),$);
#103=IFCPROPERTYSINGLEVALUE('QuantityPerTrainset',$,IFCINTEGER(2),$);
#104=IFCPROPERTYSINGLEVALUE('Unit',$,IFCTEXT('joint set'),$);
#105=IFCPROPERTYSINGLEVALUE('GeometryStatus',$,IFCTEXT('design-reference-not-released'),$);
#106=IFCPROPERTYSET('3KxukYFTrKHhRoq_DesDnb',$,'OSR_ProductDefinition',$,(#99,#100,#101,#102,#103,#104,#105));
#107=IFCRELDEFINESBYPROPERTIES('3PUpZqLZvMV8U9Gdc0zB_5',$,$,$,(#98),#106);
#108=IFCCARTESIANPOINTLIST3D(((0.21840000000000004,0.,-0.18719999999999998),(0.20771074315886157,0.067489311571488519,-0.18719999999999998),(0.17668931157148857,0.12837229910067616,-0.18719999999999998),(0.12837229910067616,0.17668931157148857,-0.18719999999999998),(0.067489311571488533,0.20771074315886157,-0.18719999999999998),(1.33731430466891E-17,0.21840000000000004,-0.18719999999999998),(-0.067489311571488506,0.20771074315886159,-0.18719999999999998),(-0.12837229910067613,0.17668931157148857,-0.18719999999999998),(-0.17668931157148854,0.12837229910067618,-0.18719999999999998),(-0.20771074315886157,0.067489311571488547,-0.18719999999999998),(-0.21840000000000004,2.67462860933782E-17,-0.18719999999999998),(-0.20771074315886162,-0.067489311571488408,-0.18719999999999998),(-0.17668931157148857,-0.12837229910067613,-0.18719999999999998),(-0.12837229910067618,-0.17668931157148854,-0.18719999999999998),(-0.067489311571488561,-0.20771074315886157,-0.18719999999999998),(-4.0119429140067297E-17,-0.21840000000000004,-0.18719999999999998),(0.067489311571488492,-0.20771074315886159,-0.18719999999999998),(0.1283722991006761,-0.17668931157148857,-0.18719999999999998),(0.17668931157148854,-0.12837229910067621,-0.18719999999999998),(0.20771074315886157,-0.067489311571488575,-0.18719999999999998),(0.21840000000000004,0.,0.18719999999999998),(0.20771074315886157,0.067489311571488519,0.18719999999999998),(0.17668931157148857,0.12837229910067616,0.18719999999999998),(0.12837229910067616,0.17668931157148857,0.18719999999999998),(0.067489311571488533,0.20771074315886157,0.18719999999999998),(1.33731430466891E-17,0.21840000000000004,0.18719999999999998),(-0.067489311571488506,0.20771074315886159,0.18719999999999998),(-0.12837229910067613,0.17668931157148857,0.18719999999999998),(-0.17668931157148854,0.12837229910067618,0.18719999999999998),(-0.20771074315886157,0.067489311571488547,0.18719999999999998),(-0.21840000000000004,2.67462860933782E-17,0.18719999999999998),(-0.20771074315886162,-0.067489311571488408,0.18719999999999998),(-0.17668931157148857,-0.12837229910067613,0.18719999999999998),(-0.12837229910067618,-0.17668931157148854,0.18719999999999998),(-0.067489311571488561,-0.20771074315886157,0.18719999999999998),(-4.0119429140067297E-17,-0.21840000000000004,0.18719999999999998),(0.067489311571488492,-0.20771074315886159,0.18719999999999998),(0.1283722991006761,-0.17668931157148857,0.18719999999999998),(0.17668931157148854,-0.12837229910067621,0.18719999999999998),(0.20771074315886157,-0.067489311571488575,0.18719999999999998),(-0.39000000000000001,-0.39000000000000001,-0.26000000000000001),(-0.39000000000000001,-0.39000000000000001,-0.13519999999999999),(-0.39000000000000001,0.39000000000000001,-0.26000000000000001),(-0.39000000000000001,0.39000000000000001,-0.13519999999999999),(0.39000000000000001,-0.39000000000000001,-0.26000000000000001),(0.39000000000000001,-0.39000000000000001,-0.13519999999999999),(0.39000000000000001,0.39000000000000001,-0.26000000000000001),(0.39000000000000001,0.39000000000000001,-0.13519999999999999)),$);
#109=IFCINDEXEDPOLYGONALFACE((20,19,18,17,16,15,14,13,12,11,10,9,8,7,6,5,4,3,2,1));
#110=IFCINDEXEDPOLYGONALFACE((21,22,23,24,25,26,27,28,29,30,31,32,33,34,35,36,37,38,39,40));
#111=IFCINDEXEDPOLYGONALFACE((1,2,22,21));
#112=IFCINDEXEDPOLYGONALFACE((2,3,23,22));
#113=IFCINDEXEDPOLYGONALFACE((3,4,24,23));
#114=IFCINDEXEDPOLYGONALFACE((4,5,25,24));
#115=IFCINDEXEDPOLYGONALFACE((5,6,26,25));
#116=IFCINDEXEDPOLYGONALFACE((6,7,27,26));
#117=IFCINDEXEDPOLYGONALFACE((7,8,28,27));
#118=IFCINDEXEDPOLYGONALFACE((8,9,29,28));
#119=IFCINDEXEDPOLYGONALFACE((9,10,30,29));
#120=IFCINDEXEDPOLYGONALFACE((10,11,31,30));
#121=IFCINDEXEDPOLYGONALFACE((11,12,32,31));
#122=IFCINDEXEDPOLYGONALFACE((12,13,33,32));
#123=IFCINDEXEDPOLYGONALFACE((13,14,34,33));
#124=IFCINDEXEDPOLYGONALFACE((14,15,35,34));
#125=IFCINDEXEDPOLYGONALFACE((15,16,36,35));
#126=IFCINDEXEDPOLYGONALFACE((16,17,37,36));
#127=IFCINDEXEDPOLYGONALFACE((17,18,38,37));
#128=IFCINDEXEDPOLYGONALFACE((18,19,39,38));
#129=IFCINDEXEDPOLYGONALFACE((19,20,40,39));
#130=IFCINDEXEDPOLYGONALFACE((20,1,21,40));
#131=IFCINDEXEDPOLYGONALFACE((41,42,44,43));
#132=IFCINDEXEDPOLYGONALFACE((45,47,48,46));
#133=IFCINDEXEDPOLYGONALFACE((41,45,46,42));
#134=IFCINDEXEDPOLYGONALFACE((43,44,48,47));
#135=IFCINDEXEDPOLYGONALFACE((41,43,47,45));
#136=IFCINDEXEDPOLYGONALFACE((42,46,48,44));
#137=IFCPOLYGONALFACESET(#108,$,(#109,#110,#111,#112,#113,#114,#115,#116,#117,#118,#119,#120,#121,#122,#123,#124,#125,#126,#127,#128,#129,#130,#131,#132,#133,#134,#135,#136),$);
#138=IFCSHAPEREPRESENTATION(#13,'Body','Tessellation',(#137));
#139=IFCPRODUCTDEFINITIONSHAPE($,$,(#138));
#140=IFCBUILDINGELEMENTPROXY('3wby8lyK1KNP9dKAcwdGMO',$,'articulation upper lateral/yaw links, spherical joints and retained pins','Paired upper links stabilize roll/yaw while the lower pivot carries the primary articulation loads; all rod ends and pins remain positively retained.',$,#487,#171,'LM3-ART-P021',$);
#141=IFCPROPERTYSINGLEVALUE('OSRId',$,IFCTEXT('LM3-ART-P021'),$);
#142=IFCPROPERTYSINGLEVALUE('Parent',$,IFCTEXT('LM3-ART-SA810'),$);
#143=IFCPROPERTYSINGLEVALUE('Route',$,IFCTEXT('BID'),$);
#144=IFCPROPERTYSINGLEVALUE('Maturity',$,IFCTEXT('buildable-after-supplier-freeze'),$);
#145=IFCPROPERTYSINGLEVALUE('QuantityPerTrainset',$,IFCINTEGER(2),$);
#146=IFCPROPERTYSINGLEVALUE('Unit',$,IFCTEXT('joint set'),$);
#147=IFCPROPERTYSINGLEVALUE('GeometryStatus',$,IFCTEXT('design-reference-not-released'),$);
#148=IFCPROPERTYSET('3DTVTkccbU$B66_fAzPnBL',$,'OSR_ProductDefinition',$,(#141,#142,#143,#144,#145,#146,#147));
#149=IFCRELDEFINESBYPROPERTIES('2DP8WBenHJz9oYa78AfIpz',$,$,$,(#140),#148);
#150=IFCCARTESIANPOINTLIST3D(((-0.59999999999999998,-0.315,-0.088200000000000001),(-0.59999999999999998,-0.315,0.088200000000000001),(-0.59999999999999998,0.315,-0.088200000000000001),(-0.59999999999999998,0.315,0.088200000000000001),(0.59999999999999998,-0.315,-0.088200000000000001),(0.59999999999999998,-0.315,0.088200000000000001),(0.59999999999999998,0.315,-0.088200000000000001),(0.59999999999999998,0.315,0.088200000000000001),(-0.28799999999999998,-0.75,-0.06720000000000001),(-0.28799999999999998,-0.75,0.06720000000000001),(-0.28799999999999998,0.75,-0.06720000000000001),(-0.28799999999999998,0.75,0.06720000000000001),(0.28799999999999998,-0.75,-0.06720000000000001),(0.28799999999999998,-0.75,0.06720000000000001),(0.28799999999999998,0.75,-0.06720000000000001),(0.28799999999999998,0.75,0.06720000000000001),(-0.108,-0.16500000000000001,-0.20999999999999999),(-0.108,-0.16500000000000001,0.20999999999999999),(-0.108,0.16500000000000001,-0.20999999999999999),(-0.108,0.16500000000000001,0.20999999999999999),(0.108,-0.16500000000000001,-0.20999999999999999),(0.108,-0.16500000000000001,0.20999999999999999),(0.108,0.16500000000000001,-0.20999999999999999),(0.108,0.16500000000000001,0.20999999999999999)),$);
#151=IFCINDEXEDPOLYGONALFACE((1,2,4,3));
#152=IFCINDEXEDPOLYGONALFACE((5,7,8,6));
#153=IFCINDEXEDPOLYGONALFACE((1,5,6,2));
#154=IFCINDEXEDPOLYGONALFACE((3,4,8,7));
#155=IFCINDEXEDPOLYGONALFACE((1,3,7,5));
#156=IFCINDEXEDPOLYGONALFACE((2,6,8,4));
#157=IFCINDEXEDPOLYGONALFACE((9,10,12,11));
#158=IFCINDEXEDPOLYGONALFACE((13,15,16,14));
#159=IFCINDEXEDPOLYGONALFACE((9,13,14,10));
#160=IFCINDEXEDPOLYGONALFACE((11,12,16,15));
#161=IFCINDEXEDPOLYGONALFACE((9,11,15,13));
#162=IFCINDEXEDPOLYGONALFACE((10,14,16,12));
#163=IFCINDEXEDPOLYGONALFACE((17,18,20,19));
#164=IFCINDEXEDPOLYGONALFACE((21,23,24,22));
#165=IFCINDEXEDPOLYGONALFACE((17,21,22,18));
#166=IFCINDEXEDPOLYGONALFACE((19,20,24,23));
#167=IFCINDEXEDPOLYGONALFACE((17,19,23,21));
#168=IFCINDEXEDPOLYGONALFACE((18,22,24,20));
#169=IFCPOLYGONALFACESET(#150,$,(#151,#152,#153,#154,#155,#156,#157,#158,#159,#160,#161,#162,#163,#164,#165,#166,#167,#168),$);
#170=IFCSHAPEREPRESENTATION(#13,'Body','Tessellation',(#169));
#171=IFCPRODUCTDEFINITIONSHAPE($,$,(#170));
#172=IFCBUILDINGELEMENTPROXY('2$xTB$t6jMjxscf4yYQevR',$,'inter-car double-wall corrugated bellows and clamp-frame set','A supplier-tailored metro gangway bellows seals the passenger connection without becoming part of the structural draw/buff load path.',$,#490,#353,'LM3-ART-P022',$);
#173=IFCPROPERTYSINGLEVALUE('OSRId',$,IFCTEXT('LM3-ART-P022'),$);
#174=IFCPROPERTYSINGLEVALUE('Parent',$,IFCTEXT('LM3-ART-SA820'),$);
#175=IFCPROPERTYSINGLEVALUE('Route',$,IFCTEXT('BID'),$);
#176=IFCPROPERTYSINGLEVALUE('Maturity',$,IFCTEXT('buildable-after-supplier-freeze'),$);
#177=IFCPROPERTYSINGLEVALUE('QuantityPerTrainset',$,IFCINTEGER(2),$);
#178=IFCPROPERTYSINGLEVALUE('Unit',$,IFCTEXT('gangway set'),$);
#179=IFCPROPERTYSINGLEVALUE('GeometryStatus',$,IFCTEXT('design-reference-not-released'),$);
#180=IFCPROPERTYSET('0DFCviBqrVW9VFmzgBck17',$,'OSR_ProductDefinition',$,(#173,#174,#175,#176,#177,#178,#179));
#181=IFCRELDEFINESBYPROPERTIES('2NOYloEhvS1vn1RygGKm8d',$,$,$,(#172),#180);
#182=IFCCARTESIANPOINTLIST3D(((-0.50198412698412709,-1.05,-1.1499999999999999),(-0.50198412698412709,-1.05,1.1499999999999999),(-0.50198412698412709,-0.91000000000000003,-1.1499999999999999),(-0.50198412698412709,-0.91000000000000003,1.1499999999999999),(-0.44087301587301597,-1.05,-1.1499999999999999),(-0.44087301587301597,-1.05,1.1499999999999999),(-0.44087301587301597,-0.91000000000000003,-1.1499999999999999),(-0.44087301587301597,-0.91000000000000003,1.1499999999999999),(-0.50198412698412698,0.91000000000000003,-1.1499999999999999),(-0.50198412698412698,0.91000000000000003,1.1499999999999999),(-0.50198412698412698,1.05,-1.1499999999999999),(-0.50198412698412698,1.05,1.1499999999999999),(-0.44087301587301586,0.91000000000000003,-1.1499999999999999),(-0.44087301587301586,0.91000000000000003,1.1499999999999999),(-0.44087301587301586,1.05,-1.1499999999999999),(-0.44087301587301586,1.05,1.1499999999999999),(-0.50198412698412709,-0.91000000000000003,1.01),(-0.50198412698412709,-0.91000000000000003,1.1499999999999999),(-0.50198412698412709,0.91000000000000003,1.01),(-0.50198412698412709,0.91000000000000003,1.1499999999999999),(-0.44087301587301586,-0.91000000000000003,1.01),(-0.44087301587301586,-0.91000000000000003,1.1499999999999999),(-0.44087301587301586,0.91000000000000003,1.01),(-0.44087301587301586,0.91000000000000003,1.1499999999999999),(-0.50198412698412709,-0.91000000000000003,-1.1499999999999999),(-0.50198412698412709,-0.91000000000000003,-1.01),(-0.50198412698412709,0.91000000000000003,-1.1499999999999999),(-0.50198412698412709,0.91000000000000003,-1.01),(-0.44087301587301586,-0.91000000000000003,-1.1499999999999999),(-0.44087301587301586,-0.91000000000000003,-1.01),(-0.44087301587301586,0.91000000000000003,-1.1499999999999999),(-0.44087301587301586,0.91000000000000003,-1.01),(-0.34484126984126989,-1.05,-1.1499999999999999),(-0.34484126984126989,-1.05,1.1499999999999999),(-0.34484126984126989,-0.91000000000000003,-1.1499999999999999),(-0.34484126984126989,-0.91000000000000003,1.1499999999999999),(-0.28373015873015878,-1.05,-1.1499999999999999),(-0.28373015873015878,-1.05,1.1499999999999999),(-0.28373015873015878,-0.91000000000000003,-1.1499999999999999),(-0.28373015873015878,-0.91000000000000003,1.1499999999999999),(-0.34484126984126978,0.91000000000000003,-1.1499999999999999),(-0.34484126984126978,0.91000000000000003,1.1499999999999999),(-0.34484126984126978,1.05,-1.1499999999999999),(-0.34484126984126978,1.05,1.1499999999999999),(-0.28373015873015867,0.91000000000000003,-1.1499999999999999),(-0.28373015873015867,0.91000000000000003,1.1499999999999999),(-0.28373015873015867,1.05,-1.1499999999999999),(-0.28373015873015867,1.05,1.1499999999999999),(-0.34484126984126989,-0.91000000000000003,1.01),(-0.34484126984126989,-0.91000000000000003,1.1499999999999999),(-0.34484126984126989,0.91000000000000003,1.01),(-0.34484126984126989,0.91000000000000003,1.1499999999999999),(-0.28373015873015867,-0.91000000000000003,1.01),(-0.28373015873015867,-0.91000000000000003,1.1499999999999999),(-0.28373015873015867,0.91000000000000003,1.01),(-0.28373015873015867,0.91000000000000003,1.1499999999999999),(-0.34484126984126989,-0.91000000000000003,-1.1499999999999999),(-0.34484126984126989,-0.91000000000000003,-1.01),(-0.34484126984126989,0.91000000000000003,-1.1499999999999999),(-0.34484126984126989,0.91000000000000003,-1.01),(-0.28373015873015867,-0.91000000000000003,-1.1499999999999999),(-0.28373015873015867,-0.91000000000000003,-1.01),(-0.28373015873015867,0.91000000000000003,-1.1499999999999999),(-0.28373015873015867,0.91000000000000003,-1.01),(-0.18769841269841281,-1.05,-1.1499999999999999),(-0.18769841269841281,-1.05,1.1499999999999999),(-0.18769841269841281,-0.91000000000000003,-1.1499999999999999),(-0.18769841269841281,-0.91000000000000003,1.1499999999999999),(-0.12658730158730166,-1.05,-1.1499999999999999),(-0.12658730158730166,-1.05,1.1499999999999999),(-0.12658730158730166,-0.91000000000000003,-1.1499999999999999),(-0.12658730158730166,-0.91000000000000003,1.1499999999999999),(-0.18769841269841264,0.91000000000000003,-1.1499999999999999),(-0.18769841269841264,0.91000000000000003,1.1499999999999999),(-0.18769841269841264,1.05,-1.1499999999999999),(-0.18769841269841264,1.05,1.1499999999999999),(-0.12658730158730153,0.91000000000000003,-1.1499999999999999),(-0.12658730158730153,0.91000000000000003,1.1499999999999999),(-0.12658730158730153,1.05,-1.1499999999999999),(-0.12658730158730153,1.05,1.1499999999999999),(-0.18769841269841275,-0.91000000000000003,1.01),(-0.18769841269841275,-0.91000000000000003,1.1499999999999999),(-0.18769841269841275,0.91000000000000003,1.01),(-0.18769841269841275,0.91000000000000003,1.1499999999999999),(-0.12658730158730155,-0.91000000000000003,1.01),(-0.12658730158730155,-0.91000000000000003,1.1499999999999999),(-0.12658730158730155,0.91000000000000003,1.01),(-0.12658730158730155,0.91000000000000003,1.1499999999999999),(-0.18769841269841275,-0.91000000000000003,-1.1499999999999999),(-0.18769841269841275,-0.91000000000000003,-1.01),(-0.18769841269841275,0.91000000000000003,-1.1499999999999999),(-0.18769841269841275,0.91000000000000003,-1.01),(-0.12658730158730155,-0.91000000000000003,-1.1499999999999999),(-0.12658730158730155,-0.91000000000000003,-1.01),(-0.12658730158730155,0.91000000000000003,-1.1499999999999999),(-0.12658730158730155,0.91000000000000003,-1.01),(-0.03055555555555562,-1.05,-1.1499999999999999),(-0.03055555555555562,-1.05,1.1499999999999999),(-0.03055555555555562,-0.91000000000000003,-1.1499999999999999),(-0.03055555555555562,-0.91000000000000003,1.1499999999999999),(0.030555555555555499,-1.05,-1.1499999999999999),(0.030555555555555499,-1.05,1.1499999999999999),(0.030555555555555499,-0.91000000000000003,-1.1499999999999999),(0.030555555555555499,-0.91000000000000003,1.1499999999999999),(-0.030555555555555499,0.91000000000000003,-1.1499999999999999),(-0.030555555555555499,0.91000000000000003,1.1499999999999999),(-0.030555555555555499,1.05,-1.1499999999999999),(-0.030555555555555499,1.05,1.1499999999999999),(0.03055555555555562,0.91000000000000003,-1.1499999999999999),(0.03055555555555562,0.91000000000000003,1.1499999999999999),(0.03055555555555562,1.05,-1.1499999999999999),(0.03055555555555562,1.05,1.1499999999999999),(-0.030555555555555614,-0.91000000000000003,1.01),(-0.030555555555555614,-0.91000000000000003,1.1499999999999999),(-0.030555555555555614,0.91000000000000003,1.01),(-0.030555555555555614,0.91000000000000003,1.1499999999999999),(0.030555555555555614,-0.91000000000000003,1.01),(0.030555555555555614,-0.91000000000000003,1.1499999999999999),(0.030555555555555614,0.91000000000000003,1.01),(0.030555555555555614,0.91000000000000003,1.1499999999999999),(-0.030555555555555614,-0.91000000000000003,-1.1499999999999999),(-0.030555555555555614,-0.91000000000000003,-1.01),(-0.030555555555555614,0.91000000000000003,-1.1499999999999999),(-0.030555555555555614,0.91000000000000003,-1.01),(0.030555555555555614,-0.91000000000000003,-1.1499999999999999),(0.030555555555555614,-0.91000000000000003,-1.01),(0.030555555555555614,0.91000000000000003,-1.1499999999999999),(0.030555555555555614,0.91000000000000003,-1.01),(0.12658730158730147,-1.05,-1.1499999999999999),(0.12658730158730147,-1.05,1.1499999999999999),(0.12658730158730147,-0.91000000000000003,-1.1499999999999999),(0.12658730158730147,-0.91000000000000003,1.1499999999999999),(0.18769841269841259,-1.05,-1.1499999999999999),(0.18769841269841259,-1.05,1.1499999999999999),(0.18769841269841259,-0.91000000000000003,-1.1499999999999999),(0.18769841269841259,-0.91000000000000003,1.1499999999999999),(0.12658730158730161,0.91000000000000003,-1.1499999999999999),(0.12658730158730161,0.91000000000000003,1.1499999999999999),(0.12658730158730161,1.05,-1.1499999999999999),(0.12658730158730161,1.05,1.1499999999999999),(0.18769841269841273,0.91000000000000003,-1.1499999999999999),(0.18769841269841273,0.91000000000000003,1.1499999999999999),(0.18769841269841273,1.05,-1.1499999999999999),(0.18769841269841273,1.05,1.1499999999999999),(0.1265873015873015,-0.91000000000000003,1.01),(0.1265873015873015,-0.91000000000000003,1.1499999999999999),(0.1265873015873015,0.91000000000000003,1.01),(0.1265873015873015,0.91000000000000003,1.1499999999999999),(0.1876984126984127,-0.91000000000000003,1.01),(0.1876984126984127,-0.91000000000000003,1.1499999999999999),(0.1876984126984127,0.91000000000000003,1.01),(0.1876984126984127,0.91000000000000003,1.1499999999999999),(0.1265873015873015,-0.91000000000000003,-1.1499999999999999),(0.1265873015873015,-0.91000000000000003,-1.01),(0.1265873015873015,0.91000000000000003,-1.1499999999999999),(0.1265873015873015,0.91000000000000003,-1.01),(0.1876984126984127,-0.91000000000000003,-1.1499999999999999),(0.1876984126984127,-0.91000000000000003,-1.01),(0.1876984126984127,0.91000000000000003,-1.1499999999999999),(0.1876984126984127,0.91000000000000003,-1.01),(0.28373015873015872,-1.05,-1.1499999999999999),(0.28373015873015872,-1.05,1.1499999999999999),(0.28373015873015872,-0.91000000000000003,-1.1499999999999999),(0.28373015873015872,-0.91000000000000003,1.1499999999999999),(0.34484126984126984,-1.05,-1.1499999999999999),(0.34484126984126984,-1.05,1.1499999999999999),(0.34484126984126984,-0.91000000000000003,-1.1499999999999999),(0.34484126984126984,-0.91000000000000003,1.1499999999999999),(0.28373015873015883,0.91000000000000003,-1.1499999999999999),(0.28373015873015883,0.91000000000000003,1.1499999999999999),(0.28373015873015883,1.05,-1.1499999999999999),(0.28373015873015883,1.05,1.1499999999999999),(0.34484126984126995,0.91000000000000003,-1.1499999999999999),(0.34484126984126995,0.91000000000000003,1.1499999999999999),(0.34484126984126995,1.05,-1.1499999999999999),(0.34484126984126995,1.05,1.1499999999999999),(0.28373015873015872,-0.91000000000000003,1.01),(0.28373015873015872,-0.91000000000000003,1.1499999999999999),(0.28373015873015872,0.91000000000000003,1.01),(0.28373015873015872,0.91000000000000003,1.1499999999999999),(0.34484126984126995,-0.91000000000000003,1.01),(0.34484126984126995,-0.91000000000000003,1.1499999999999999),(0.34484126984126995,0.91000000000000003,1.01),(0.34484126984126995,0.91000000000000003,1.1499999999999999),(0.28373015873015872,-0.91000000000000003,-1.1499999999999999),(0.28373015873015872,-0.91000000000000003,-1.01),(0.28373015873015872,0.91000000000000003,-1.1499999999999999),(0.28373015873015872,0.91000000000000003,-1.01),(0.34484126984126995,-0.91000000000000003,-1.1499999999999999),(0.34484126984126995,-0.91000000000000003,-1.01),(0.34484126984126995,0.91000000000000003,-1.1499999999999999),(0.34484126984126995,0.91000000000000003,-1.01),(0.44087301587301586,-1.05,-1.1499999999999999),(0.44087301587301586,-1.05,1.1499999999999999),(0.44087301587301586,-0.91000000000000003,-1.1499999999999999),(0.44087301587301586,-0.91000000000000003,1.1499999999999999),(0.50198412698412698,-1.05,-1.1499999999999999),(0.50198412698412698,-1.05,1.1499999999999999),(0.50198412698412698,-0.91000000000000003,-1.1499999999999999),(0.50198412698412698,-0.91000000000000003,1.1499999999999999),(0.44087301587301597,0.91000000000000003,-1.1499999999999999),(0.44087301587301597,0.91000000000000003,1.1499999999999999),(0.44087301587301597,1.05,-1.1499999999999999),(0.44087301587301597,1.05,1.1499999999999999),(0.50198412698412709,0.91000000000000003,-1.1499999999999999),(0.50198412698412709,0.91000000000000003,1.1499999999999999),(0.50198412698412709,1.05,-1.1499999999999999),(0.50198412698412709,1.05,1.1499999999999999),(0.44087301587301586,-0.91000000000000003,1.01),(0.44087301587301586,-0.91000000000000003,1.1499999999999999),(0.44087301587301586,0.91000000000000003,1.01),(0.44087301587301586,0.91000000000000003,1.1499999999999999),(0.50198412698412709,-0.91000000000000003,1.01),(0.50198412698412709,-0.91000000000000003,1.1499999999999999),(0.50198412698412709,0.91000000000000003,1.01),(0.50198412698412709,0.91000000000000003,1.1499999999999999),(0.44087301587301586,-0.91000000000000003,-1.1499999999999999),(0.44087301587301586,-0.91000000000000003,-1.01),(0.44087301587301586,0.91000000000000003,-1.1499999999999999),(0.44087301587301586,0.91000000000000003,-1.01),(0.50198412698412709,-0.91000000000000003,-1.1499999999999999),(0.50198412698412709,-0.91000000000000003,-1.01),(0.50198412698412709,0.91000000000000003,-1.1499999999999999),(0.50198412698412709,0.91000000000000003,-1.01)),$);
#183=IFCINDEXEDPOLYGONALFACE((1,2,4,3));
#184=IFCINDEXEDPOLYGONALFACE((5,7,8,6));
#185=IFCINDEXEDPOLYGONALFACE((1,5,6,2));
#186=IFCINDEXEDPOLYGONALFACE((3,4,8,7));
#187=IFCINDEXEDPOLYGONALFACE((1,3,7,5));
#188=IFCINDEXEDPOLYGONALFACE((2,6,8,4));
#189=IFCINDEXEDPOLYGONALFACE((9,10,12,11));
#190=IFCINDEXEDPOLYGONALFACE((13,15,16,14));
#191=IFCINDEXEDPOLYGONALFACE((9,13,14,10));
#192=IFCINDEXEDPOLYGONALFACE((11,12,16,15));
#193=IFCINDEXEDPOLYGONALFACE((9,11,15,13));
#194=IFCINDEXEDPOLYGONALFACE((10,14,16,12));
#195=IFCINDEXEDPOLYGONALFACE((17,18,20,19));
#196=IFCINDEXEDPOLYGONALFACE((21,23,24,22));
#197=IFCINDEXEDPOLYGONALFACE((17,21,22,18));
#198=IFCINDEXEDPOLYGONALFACE((19,20,24,23));
#199=IFCINDEXEDPOLYGONALFACE((17,19,23,21));
#200=IFCINDEXEDPOLYGONALFACE((18,22,24,20));
#201=IFCINDEXEDPOLYGONALFACE((25,26,28,27));
#202=IFCINDEXEDPOLYGONALFACE((29,31,32,30));
#203=IFCINDEXEDPOLYGONALFACE((25,29,30,26));
#204=IFCINDEXEDPOLYGONALFACE((27,28,32,31));
#205=IFCINDEXEDPOLYGONALFACE((25,27,31,29));
#206=IFCINDEXEDPOLYGONALFACE((26,30,32,28));
#207=IFCINDEXEDPOLYGONALFACE((33,34,36,35));
#208=IFCINDEXEDPOLYGONALFACE((37,39,40,38));
#209=IFCINDEXEDPOLYGONALFACE((33,37,38,34));
#210=IFCINDEXEDPOLYGONALFACE((35,36,40,39));
#211=IFCINDEXEDPOLYGONALFACE((33,35,39,37));
#212=IFCINDEXEDPOLYGONALFACE((34,38,40,36));
#213=IFCINDEXEDPOLYGONALFACE((41,42,44,43));
#214=IFCINDEXEDPOLYGONALFACE((45,47,48,46));
#215=IFCINDEXEDPOLYGONALFACE((41,45,46,42));
#216=IFCINDEXEDPOLYGONALFACE((43,44,48,47));
#217=IFCINDEXEDPOLYGONALFACE((41,43,47,45));
#218=IFCINDEXEDPOLYGONALFACE((42,46,48,44));
#219=IFCINDEXEDPOLYGONALFACE((49,50,52,51));
#220=IFCINDEXEDPOLYGONALFACE((53,55,56,54));
#221=IFCINDEXEDPOLYGONALFACE((49,53,54,50));
#222=IFCINDEXEDPOLYGONALFACE((51,52,56,55));
#223=IFCINDEXEDPOLYGONALFACE((49,51,55,53));
#224=IFCINDEXEDPOLYGONALFACE((50,54,56,52));
#225=IFCINDEXEDPOLYGONALFACE((57,58,60,59));
#226=IFCINDEXEDPOLYGONALFACE((61,63,64,62));
#227=IFCINDEXEDPOLYGONALFACE((57,61,62,58));
#228=IFCINDEXEDPOLYGONALFACE((59,60,64,63));
#229=IFCINDEXEDPOLYGONALFACE((57,59,63,61));
#230=IFCINDEXEDPOLYGONALFACE((58,62,64,60));
#231=IFCINDEXEDPOLYGONALFACE((65,66,68,67));
#232=IFCINDEXEDPOLYGONALFACE((69,71,72,70));
#233=IFCINDEXEDPOLYGONALFACE((65,69,70,66));
#234=IFCINDEXEDPOLYGONALFACE((67,68,72,71));
#235=IFCINDEXEDPOLYGONALFACE((65,67,71,69));
#236=IFCINDEXEDPOLYGONALFACE((66,70,72,68));
#237=IFCINDEXEDPOLYGONALFACE((73,74,76,75));
#238=IFCINDEXEDPOLYGONALFACE((77,79,80,78));
#239=IFCINDEXEDPOLYGONALFACE((73,77,78,74));
#240=IFCINDEXEDPOLYGONALFACE((75,76,80,79));
#241=IFCINDEXEDPOLYGONALFACE((73,75,79,77));
#242=IFCINDEXEDPOLYGONALFACE((74,78,80,76));
#243=IFCINDEXEDPOLYGONALFACE((81,82,84,83));
#244=IFCINDEXEDPOLYGONALFACE((85,87,88,86));
#245=IFCINDEXEDPOLYGONALFACE((81,85,86,82));
#246=IFCINDEXEDPOLYGONALFACE((83,84,88,87));
#247=IFCINDEXEDPOLYGONALFACE((81,83,87,85));
#248=IFCINDEXEDPOLYGONALFACE((82,86,88,84));
#249=IFCINDEXEDPOLYGONALFACE((89,90,92,91));
#250=IFCINDEXEDPOLYGONALFACE((93,95,96,94));
#251=IFCINDEXEDPOLYGONALFACE((89,93,94,90));
#252=IFCINDEXEDPOLYGONALFACE((91,92,96,95));
#253=IFCINDEXEDPOLYGONALFACE((89,91,95,93));
#254=IFCINDEXEDPOLYGONALFACE((90,94,96,92));
#255=IFCINDEXEDPOLYGONALFACE((97,98,100,99));
#256=IFCINDEXEDPOLYGONALFACE((101,103,104,102));
#257=IFCINDEXEDPOLYGONALFACE((97,101,102,98));
#258=IFCINDEXEDPOLYGONALFACE((99,100,104,103));
#259=IFCINDEXEDPOLYGONALFACE((97,99,103,101));
#260=IFCINDEXEDPOLYGONALFACE((98,102,104,100));
#261=IFCINDEXEDPOLYGONALFACE((105,106,108,107));
#262=IFCINDEXEDPOLYGONALFACE((109,111,112,110));
#263=IFCINDEXEDPOLYGONALFACE((105,109,110,106));
#264=IFCINDEXEDPOLYGONALFACE((107,108,112,111));
#265=IFCINDEXEDPOLYGONALFACE((105,107,111,109));
#266=IFCINDEXEDPOLYGONALFACE((106,110,112,108));
#267=IFCINDEXEDPOLYGONALFACE((113,114,116,115));
#268=IFCINDEXEDPOLYGONALFACE((117,119,120,118));
#269=IFCINDEXEDPOLYGONALFACE((113,117,118,114));
#270=IFCINDEXEDPOLYGONALFACE((115,116,120,119));
#271=IFCINDEXEDPOLYGONALFACE((113,115,119,117));
#272=IFCINDEXEDPOLYGONALFACE((114,118,120,116));
#273=IFCINDEXEDPOLYGONALFACE((121,122,124,123));
#274=IFCINDEXEDPOLYGONALFACE((125,127,128,126));
#275=IFCINDEXEDPOLYGONALFACE((121,125,126,122));
#276=IFCINDEXEDPOLYGONALFACE((123,124,128,127));
#277=IFCINDEXEDPOLYGONALFACE((121,123,127,125));
#278=IFCINDEXEDPOLYGONALFACE((122,126,128,124));
#279=IFCINDEXEDPOLYGONALFACE((129,130,132,131));
#280=IFCINDEXEDPOLYGONALFACE((133,135,136,134));
#281=IFCINDEXEDPOLYGONALFACE((129,133,134,130));
#282=IFCINDEXEDPOLYGONALFACE((131,132,136,135));
#283=IFCINDEXEDPOLYGONALFACE((129,131,135,133));
#284=IFCINDEXEDPOLYGONALFACE((130,134,136,132));
#285=IFCINDEXEDPOLYGONALFACE((137,138,140,139));
#286=IFCINDEXEDPOLYGONALFACE((141,143,144,142));
#287=IFCINDEXEDPOLYGONALFACE((137,141,142,138));
#288=IFCINDEXEDPOLYGONALFACE((139,140,144,143));
#289=IFCINDEXEDPOLYGONALFACE((137,139,143,141));
#290=IFCINDEXEDPOLYGONALFACE((138,142,144,140));
#291=IFCINDEXEDPOLYGONALFACE((145,146,148,147));
#292=IFCINDEXEDPOLYGONALFACE((149,151,152,150));
#293=IFCINDEXEDPOLYGONALFACE((145,149,150,146));
#294=IFCINDEXEDPOLYGONALFACE((147,148,152,151));
#295=IFCINDEXEDPOLYGONALFACE((145,147,151,149));
#296=IFCINDEXEDPOLYGONALFACE((146,150,152,148));
#297=IFCINDEXEDPOLYGONALFACE((153,154,156,155));
#298=IFCINDEXEDPOLYGONALFACE((157,159,160,158));
#299=IFCINDEXEDPOLYGONALFACE((153,157,158,154));
#300=IFCINDEXEDPOLYGONALFACE((155,156,160,159));
#301=IFCINDEXEDPOLYGONALFACE((153,155,159,157));
#302=IFCINDEXEDPOLYGONALFACE((154,158,160,156));
#303=IFCINDEXEDPOLYGONALFACE((161,162,164,163));
#304=IFCINDEXEDPOLYGONALFACE((165,167,168,166));
#305=IFCINDEXEDPOLYGONALFACE((161,165,166,162));
#306=IFCINDEXEDPOLYGONALFACE((163,164,168,167));
#307=IFCINDEXEDPOLYGONALFACE((161,163,167,165));
#308=IFCINDEXEDPOLYGONALFACE((162,166,168,164));
#309=IFCINDEXEDPOLYGONALFACE((169,170,172,171));
#310=IFCINDEXEDPOLYGONALFACE((173,175,176,174));
#311=IFCINDEXEDPOLYGONALFACE((169,173,174,170));
#312=IFCINDEXEDPOLYGONALFACE((171,172,176,175));
#313=IFCINDEXEDPOLYGONALFACE((169,171,175,173));
#314=IFCINDEXEDPOLYGONALFACE((170,174,176,172));
#315=IFCINDEXEDPOLYGONALFACE((177,178,180,179));
#316=IFCINDEXEDPOLYGONALFACE((181,183,184,182));
#317=IFCINDEXEDPOLYGONALFACE((177,181,182,178));
#318=IFCINDEXEDPOLYGONALFACE((179,180,184,183));
#319=IFCINDEXEDPOLYGONALFACE((177,179,183,181));
#320=IFCINDEXEDPOLYGONALFACE((178,182,184,180));
#321=IFCINDEXEDPOLYGONALFACE((185,186,188,187));
#322=IFCINDEXEDPOLYGONALFACE((189,191,192,190));
#323=IFCINDEXEDPOLYGONALFACE((185,189,190,186));
#324=IFCINDEXEDPOLYGONALFACE((187,188,192,191));
#325=IFCINDEXEDPOLYGONALFACE((185,187,191,189));
#326=IFCINDEXEDPOLYGONALFACE((186,190,192,188));
#327=IFCINDEXEDPOLYGONALFACE((193,194,196,195));
#328=IFCINDEXEDPOLYGONALFACE((197,199,200,198));
#329=IFCINDEXEDPOLYGONALFACE((193,197,198,194));
#330=IFCINDEXEDPOLYGONALFACE((195,196,200,199));
#331=IFCINDEXEDPOLYGONALFACE((193,195,199,197));
#332=IFCINDEXEDPOLYGONALFACE((194,198,200,196));
#333=IFCINDEXEDPOLYGONALFACE((201,202,204,203));
#334=IFCINDEXEDPOLYGONALFACE((205,207,208,206));
#335=IFCINDEXEDPOLYGONALFACE((201,205,206,202));
#336=IFCINDEXEDPOLYGONALFACE((203,204,208,207));
#337=IFCINDEXEDPOLYGONALFACE((201,203,207,205));
#338=IFCINDEXEDPOLYGONALFACE((202,206,208,204));
#339=IFCINDEXEDPOLYGONALFACE((209,210,212,211));
#340=IFCINDEXEDPOLYGONALFACE((213,215,216,214));
#341=IFCINDEXEDPOLYGONALFACE((209,213,214,210));
#342=IFCINDEXEDPOLYGONALFACE((211,212,216,215));
#343=IFCINDEXEDPOLYGONALFACE((209,211,215,213));
#344=IFCINDEXEDPOLYGONALFACE((210,214,216,212));
#345=IFCINDEXEDPOLYGONALFACE((217,218,220,219));
#346=IFCINDEXEDPOLYGONALFACE((221,223,224,222));
#347=IFCINDEXEDPOLYGONALFACE((217,221,222,218));
#348=IFCINDEXEDPOLYGONALFACE((219,220,224,223));
#349=IFCINDEXEDPOLYGONALFACE((217,219,223,221));
#350=IFCINDEXEDPOLYGONALFACE((218,222,224,220));
#351=IFCPOLYGONALFACESET(#182,$,(#183,#184,#185,#186,#187,#188,#189,#190,#191,#192,#193,#194,#195,#196,#197,#198,#199,#200,#201,#202,#203,#204,#205,#206,#207,#208,#209,#210,#211,#212,#213,#214,#215,#216,#217,#218,#219,#220,#221,#222,#223,#224,#225,#226,#227,#228,#229,#230,#231,#232,#233,#234,#235,#236,#237,#238,#239,#240,#241,#242,#243,#244,#245,#246,#247,#248,#249,#250,#251,#252,#253,#254,#255,#256,#257,#258,#259,#260,#261,#262,#263,#264,#265,#266,#267,#268,#269,#270,#271,#272,#273,#274,#275,#276,#277,#278,#279,#280,#281,#282,#283,#284,#285,#286,#287,#288,#289,#290,#291,#292,#293,#294,#295,#296,#297,#298,#299,#300,#301,#302,#303,#304,#305,#306,#307,#308,#309,#310,#311,#312,#313,#314,#315,#316,#317,#318,#319,#320,#321,#322,#323,#324,#325,#326,#327,#328,#329,#330,#331,#332,#333,#334,#335,#336,#337,#338,#339,#340,#341,#342,#343,#344,#345,#346,#347,#348,#349,#350),$);
#352=IFCSHAPEREPRESENTATION(#13,'Body','Tessellation',(#351));
#353=IFCPRODUCTDEFINITIONSHAPE($,$,(#352));
#354=IFCBUILDINGELEMENTPROXY('0ZUyWBF8jUSPCQQXUSRwD3',$,'inter-car passenger bridge, turntable and flexible interior-panel set','The bridge and turntable provide a flush, anti-slip passenger path across the full released articulation envelope with guarded pinch zones.',$,#493,#385,'LM3-ART-P023',$);
#355=IFCPROPERTYSINGLEVALUE('OSRId',$,IFCTEXT('LM3-ART-P023'),$);
#356=IFCPROPERTYSINGLEVALUE('Parent',$,IFCTEXT('LM3-ART-SA820'),$);
#357=IFCPROPERTYSINGLEVALUE('Route',$,IFCTEXT('BID'),$);
#358=IFCPROPERTYSINGLEVALUE('Maturity',$,IFCTEXT('buildable-after-supplier-freeze'),$);
#359=IFCPROPERTYSINGLEVALUE('QuantityPerTrainset',$,IFCINTEGER(2),$);
#360=IFCPROPERTYSINGLEVALUE('Unit',$,IFCTEXT('gangway set'),$);
#361=IFCPROPERTYSINGLEVALUE('GeometryStatus',$,IFCTEXT('design-reference-not-released'),$);
#362=IFCPROPERTYSET('0dQ5aLX55HDOXtesM8UnK5',$,'OSR_ProductDefinition',$,(#355,#356,#357,#358,#359,#360,#361));
#363=IFCRELDEFINESBYPROPERTIES('1r8xlw7lfJse52DWFMxsQ1',$,$,$,(#354),#362);
#364=IFCCARTESIANPOINTLIST3D(((-0.625,-0.38850000000000001,-0.054600000000000003),(-0.625,-0.38850000000000001,0.054600000000000003),(-0.625,0.38850000000000001,-0.054600000000000003),(-0.625,0.38850000000000001,0.054600000000000003),(0.625,-0.38850000000000001,-0.054600000000000003),(0.625,-0.38850000000000001,0.054600000000000003),(0.625,0.38850000000000001,-0.054600000000000003),(0.625,0.38850000000000001,0.054600000000000003),(-0.29999999999999999,-0.92500000000000004,-0.041599999999999998),(-0.29999999999999999,-0.92500000000000004,0.041599999999999998),(-0.29999999999999999,0.92500000000000004,-0.041599999999999998),(-0.29999999999999999,0.92500000000000004,0.041599999999999998),(0.29999999999999999,-0.92500000000000004,-0.041599999999999998),(0.29999999999999999,-0.92500000000000004,0.041599999999999998),(0.29999999999999999,0.92500000000000004,-0.041599999999999998),(0.29999999999999999,0.92500000000000004,0.041599999999999998),(-0.1125,-0.20349999999999999,-0.13),(-0.1125,-0.20349999999999999,0.13),(-0.1125,0.20349999999999999,-0.13),(-0.1125,0.20349999999999999,0.13),(0.1125,-0.20349999999999999,-0.13),(0.1125,-0.20349999999999999,0.13),(0.1125,0.20349999999999999,-0.13),(0.1125,0.20349999999999999,0.13)),$);
#365=IFCINDEXEDPOLYGONALFACE((1,2,4,3));
#366=IFCINDEXEDPOLYGONALFACE((5,7,8,6));
#367=IFCINDEXEDPOLYGONALFACE((1,5,6,2));
#368=IFCINDEXEDPOLYGONALFACE((3,4,8,7));
#369=IFCINDEXEDPOLYGONALFACE((1,3,7,5));
#370=IFCINDEXEDPOLYGONALFACE((2,6,8,4));
#371=IFCINDEXEDPOLYGONALFACE((9,10,12,11));
#372=IFCINDEXEDPOLYGONALFACE((13,15,16,14));
#373=IFCINDEXEDPOLYGONALFACE((9,13,14,10));
#374=IFCINDEXEDPOLYGONALFACE((11,12,16,15));
#375=IFCINDEXEDPOLYGONALFACE((9,11,15,13));
#376=IFCINDEXEDPOLYGONALFACE((10,14,16,12));
#377=IFCINDEXEDPOLYGONALFACE((17,18,20,19));
#378=IFCINDEXEDPOLYGONALFACE((21,23,24,22));
#379=IFCINDEXEDPOLYGONALFACE((17,21,22,18));
#380=IFCINDEXEDPOLYGONALFACE((19,20,24,23));
#381=IFCINDEXEDPOLYGONALFACE((17,19,23,21));
#382=IFCINDEXEDPOLYGONALFACE((18,22,24,20));
#383=IFCPOLYGONALFACESET(#364,$,(#365,#366,#367,#368,#369,#370,#371,#372,#373,#374,#375,#376,#377,#378,#379,#380,#381,#382),$);
#384=IFCSHAPEREPRESENTATION(#13,'Body','Tessellation',(#383));
#385=IFCPRODUCTDEFINITIONSHAPE($,$,(#384));
#386=IFCBUILDINGELEMENTPROXY('2yt7JpUQHMY8TKcOgt1hn7',$,'articulation trainline carrier, support arms, abrasion liners and drain path','A replaceable energy-chain/support system controls service-loop bend radius and separates HV, LV/data and coolant across the joint.',$,#496,#429,'LM3-ART-P024',$);
#387=IFCPROPERTYSINGLEVALUE('OSRId',$,IFCTEXT('LM3-ART-P024'),$);
#388=IFCPROPERTYSINGLEVALUE('Parent',$,IFCTEXT('LM3-ART-SA830'),$);
#389=IFCPROPERTYSINGLEVALUE('Route',$,IFCTEXT('SOURCE'),$);
#390=IFCPROPERTYSINGLEVALUE('Maturity',$,IFCTEXT('buildable-after-supplier-freeze'),$);
#391=IFCPROPERTYSINGLEVALUE('QuantityPerTrainset',$,IFCINTEGER(2),$);
#392=IFCPROPERTYSINGLEVALUE('Unit',$,IFCTEXT('carrier set'),$);
#393=IFCPROPERTYSINGLEVALUE('GeometryStatus',$,IFCTEXT('design-reference-not-released'),$);
#394=IFCPROPERTYSET('1twp2yvU9JFfT9YauRGE32',$,'OSR_ProductDefinition',$,(#387,#388,#389,#390,#391,#392,#393));
#395=IFCRELDEFINESBYPROPERTIES('1j3anho2LVl8YLNR8USWDo',$,$,$,(#386),#394);
#396=IFCCARTESIANPOINTLIST3D(((-0.65000000000000002,-0.59199999999999997,-0.038399999999999997),(-0.65000000000000002,-0.59199999999999997,0.038399999999999997),(-0.65000000000000002,-0.432,-0.038399999999999997),(-0.65000000000000002,-0.432,0.038399999999999997),(0.65000000000000002,-0.59199999999999997,-0.038399999999999997),(0.65000000000000002,-0.59199999999999997,0.038399999999999997),(0.65000000000000002,-0.432,-0.038399999999999997),(0.65000000000000002,-0.432,0.038399999999999997),(-0.65000000000000002,0.432,-0.038399999999999997),(-0.65000000000000002,0.432,0.038399999999999997),(-0.65000000000000002,0.59199999999999997,-0.038399999999999997),(-0.65000000000000002,0.59199999999999997,0.038399999999999997),(0.65000000000000002,0.432,-0.038399999999999997),(0.65000000000000002,0.432,0.038399999999999997),(0.65000000000000002,0.59199999999999997,-0.038399999999999997),(0.65000000000000002,0.59199999999999997,0.038399999999999997),(-0.47124999999999995,-0.64000000000000001,-0.048000000000000001),(-0.47124999999999995,-0.64000000000000001,0.048000000000000001),(-0.47124999999999995,0.64000000000000001,-0.048000000000000001),(-0.47124999999999995,0.64000000000000001,0.048000000000000001),(-0.43874999999999992,-0.64000000000000001,-0.048000000000000001),(-0.43874999999999992,-0.64000000000000001,0.048000000000000001),(-0.43874999999999992,0.64000000000000001,-0.048000000000000001),(-0.43874999999999992,0.64000000000000001,0.048000000000000001),(-0.016250000000000001,-0.64000000000000001,-0.048000000000000001),(-0.016250000000000001,-0.64000000000000001,0.048000000000000001),(-0.016250000000000001,0.64000000000000001,-0.048000000000000001),(-0.016250000000000001,0.64000000000000001,0.048000000000000001),(0.016250000000000001,-0.64000000000000001,-0.048000000000000001),(0.016250000000000001,-0.64000000000000001,0.048000000000000001),(0.016250000000000001,0.64000000000000001,-0.048000000000000001),(0.016250000000000001,0.64000000000000001,0.048000000000000001),(0.43874999999999992,-0.64000000000000001,-0.048000000000000001),(0.43874999999999992,-0.64000000000000001,0.048000000000000001),(0.43874999999999992,0.64000000000000001,-0.048000000000000001),(0.43874999999999992,0.64000000000000001,0.048000000000000001),(0.47124999999999995,-0.64000000000000001,-0.048000000000000001),(0.47124999999999995,-0.64000000000000001,0.048000000000000001),(0.47124999999999995,0.64000000000000001,-0.048000000000000001),(0.47124999999999995,0.64000000000000001,0.048000000000000001)),$);
#397=IFCINDEXEDPOLYGONALFACE((1,2,4,3));
#398=IFCINDEXEDPOLYGONALFACE((5,7,8,6));
#399=IFCINDEXEDPOLYGONALFACE((1,5,6,2));
#400=IFCINDEXEDPOLYGONALFACE((3,4,8,7));
#401=IFCINDEXEDPOLYGONALFACE((1,3,7,5));
#402=IFCINDEXEDPOLYGONALFACE((2,6,8,4));
#403=IFCINDEXEDPOLYGONALFACE((9,10,12,11));
#404=IFCINDEXEDPOLYGONALFACE((13,15,16,14));
#405=IFCINDEXEDPOLYGONALFACE((9,13,14,10));
#406=IFCINDEXEDPOLYGONALFACE((11,12,16,15));
#407=IFCINDEXEDPOLYGONALFACE((9,11,15,13));
#408=IFCINDEXEDPOLYGONALFACE((10,14,16,12));
#409=IFCINDEXEDPOLYGONALFACE((17,18,20,19));
#410=IFCINDEXEDPOLYGONALFACE((21,23,24,22));
#411=IFCINDEXEDPOLYGONALFACE((17,21,22,18));
#412=IFCINDEXEDPOLYGONALFACE((19,20,24,23));
#413=IFCINDEXEDPOLYGONALFACE((17,19,23,21));
#414=IFCINDEXEDPOLYGONALFACE((18,22,24,20));
#415=IFCINDEXEDPOLYGONALFACE((25,26,28,27));
#416=IFCINDEXEDPOLYGONALFACE((29,31,32,30));
#417=IFCINDEXEDPOLYGONALFACE((25,29,30,26));
#418=IFCINDEXEDPOLYGONALFACE((27,28,32,31));
#419=IFCINDEXEDPOLYGONALFACE((25,27,31,29));
#420=IFCINDEXEDPOLYGONALFACE((26,30,32,28));
#421=IFCINDEXEDPOLYGONALFACE((33,34,36,35));
#422=IFCINDEXEDPOLYGONALFACE((37,39,40,38));
#423=IFCINDEXEDPOLYGONALFACE((33,37,38,34));
#424=IFCINDEXEDPOLYGONALFACE((35,36,40,39));
#425=IFCINDEXEDPOLYGONALFACE((33,35,39,37));
#426=IFCINDEXEDPOLYGONALFACE((34,38,40,36));
#427=IFCPOLYGONALFACESET(#396,$,(#397,#398,#399,#400,#401,#402,#403,#404,#405,#406,#407,#408,#409,#410,#411,#412,#413,#414,#415,#416,#417,#418,#419,#420,#421,#422,#423,#424,#425,#426),$);
#428=IFCSHAPEREPRESENTATION(#13,'Body','Tessellation',(#427));
#429=IFCPRODUCTDEFINITIONSHAPE($,$,(#428));
#430=IFCBUILDINGELEMENTPROXY('3wiyRInXjSzxgM$5bdic3x',$,'inter-car HV/LV jumper, coolant hose loop, energy chain, and drain sleeve kit','Flexible services package that follows articulation yaw/pitch/roll without violating segregation or bend radius.',$,#499,#473,'LM3-ART-P030',$);
#431=IFCPROPERTYSINGLEVALUE('OSRId',$,IFCTEXT('LM3-ART-P030'),$);
#432=IFCPROPERTYSINGLEVALUE('Parent',$,IFCTEXT('LM3-ART-SA830'),$);
#433=IFCPROPERTYSINGLEVALUE('Route',$,IFCTEXT('BID'),$);
#434=IFCPROPERTYSINGLEVALUE('Maturity',$,IFCTEXT('buildable-after-supplier-freeze'),$);
#435=IFCPROPERTYSINGLEVALUE('QuantityPerTrainset',$,IFCINTEGER(2),$);
#436=IFCPROPERTYSINGLEVALUE('Unit',$,IFCTEXT('articulation kit'),$);
#437=IFCPROPERTYSINGLEVALUE('GeometryStatus',$,IFCTEXT('design-reference-not-released'),$);
#438=IFCPROPERTYSET('08i3VRevHPTRErERZpxL$N',$,'OSR_ProductDefinition',$,(#431,#432,#433,#434,#435,#436,#437));
#439=IFCRELDEFINESBYPROPERTIES('04aaWuG4HO6gYxEcWH1hky',$,$,$,(#430),#438);
#440=IFCCARTESIANPOINTLIST3D(((-0.69999999999999996,-0.59199999999999997,-0.043199999999999995),(-0.69999999999999996,-0.59199999999999997,0.043199999999999995),(-0.69999999999999996,-0.432,-0.043199999999999995),(-0.69999999999999996,-0.432,0.043199999999999995),(0.69999999999999996,-0.59199999999999997,-0.043199999999999995),(0.69999999999999996,-0.59199999999999997,0.043199999999999995),(0.69999999999999996,-0.432,-0.043199999999999995),(0.69999999999999996,-0.432,0.043199999999999995),(-0.69999999999999996,0.432,-0.043199999999999995),(-0.69999999999999996,0.432,0.043199999999999995),(-0.69999999999999996,0.59199999999999997,-0.043199999999999995),(-0.69999999999999996,0.59199999999999997,0.043199999999999995),(0.69999999999999996,0.432,-0.043199999999999995),(0.69999999999999996,0.432,0.043199999999999995),(0.69999999999999996,0.59199999999999997,-0.043199999999999995),(0.69999999999999996,0.59199999999999997,0.043199999999999995),(-0.50749999999999995,-0.64000000000000001,-0.053999999999999999),(-0.50749999999999995,-0.64000000000000001,0.053999999999999999),(-0.50749999999999995,0.64000000000000001,-0.053999999999999999),(-0.50749999999999995,0.64000000000000001,0.053999999999999999),(-0.47249999999999992,-0.64000000000000001,-0.053999999999999999),(-0.47249999999999992,-0.64000000000000001,0.053999999999999999),(-0.47249999999999992,0.64000000000000001,-0.053999999999999999),(-0.47249999999999992,0.64000000000000001,0.053999999999999999),(-0.017500000000000002,-0.64000000000000001,-0.053999999999999999),(-0.017500000000000002,-0.64000000000000001,0.053999999999999999),(-0.017500000000000002,0.64000000000000001,-0.053999999999999999),(-0.017500000000000002,0.64000000000000001,0.053999999999999999),(0.017500000000000002,-0.64000000000000001,-0.053999999999999999),(0.017500000000000002,-0.64000000000000001,0.053999999999999999),(0.017500000000000002,0.64000000000000001,-0.053999999999999999),(0.017500000000000002,0.64000000000000001,0.053999999999999999),(0.47249999999999992,-0.64000000000000001,-0.053999999999999999),(0.47249999999999992,-0.64000000000000001,0.053999999999999999),(0.47249999999999992,0.64000000000000001,-0.053999999999999999),(0.47249999999999992,0.64000000000000001,0.053999999999999999),(0.50749999999999995,-0.64000000000000001,-0.053999999999999999),(0.50749999999999995,-0.64000000000000001,0.053999999999999999),(0.50749999999999995,0.64000000000000001,-0.053999999999999999),(0.50749999999999995,0.64000000000000001,0.053999999999999999)),$);
#441=IFCINDEXEDPOLYGONALFACE((1,2,4,3));
#442=IFCINDEXEDPOLYGONALFACE((5,7,8,6));
#443=IFCINDEXEDPOLYGONALFACE((1,5,6,2));
#444=IFCINDEXEDPOLYGONALFACE((3,4,8,7));
#445=IFCINDEXEDPOLYGONALFACE((1,3,7,5));
#446=IFCINDEXEDPOLYGONALFACE((2,6,8,4));
#447=IFCINDEXEDPOLYGONALFACE((9,10,12,11));
#448=IFCINDEXEDPOLYGONALFACE((13,15,16,14));
#449=IFCINDEXEDPOLYGONALFACE((9,13,14,10));
#450=IFCINDEXEDPOLYGONALFACE((11,12,16,15));
#451=IFCINDEXEDPOLYGONALFACE((9,11,15,13));
#452=IFCINDEXEDPOLYGONALFACE((10,14,16,12));
#453=IFCINDEXEDPOLYGONALFACE((17,18,20,19));
#454=IFCINDEXEDPOLYGONALFACE((21,23,24,22));
#455=IFCINDEXEDPOLYGONALFACE((17,21,22,18));
#456=IFCINDEXEDPOLYGONALFACE((19,20,24,23));
#457=IFCINDEXEDPOLYGONALFACE((17,19,23,21));
#458=IFCINDEXEDPOLYGONALFACE((18,22,24,20));
#459=IFCINDEXEDPOLYGONALFACE((25,26,28,27));
#460=IFCINDEXEDPOLYGONALFACE((29,31,32,30));
#461=IFCINDEXEDPOLYGONALFACE((25,29,30,26));
#462=IFCINDEXEDPOLYGONALFACE((27,28,32,31));
#463=IFCINDEXEDPOLYGONALFACE((25,27,31,29));
#464=IFCINDEXEDPOLYGONALFACE((26,30,32,28));
#465=IFCINDEXEDPOLYGONALFACE((33,34,36,35));
#466=IFCINDEXEDPOLYGONALFACE((37,39,40,38));
#467=IFCINDEXEDPOLYGONALFACE((33,37,38,34));
#468=IFCINDEXEDPOLYGONALFACE((35,36,40,39));
#469=IFCINDEXEDPOLYGONALFACE((33,35,39,37));
#470=IFCINDEXEDPOLYGONALFACE((34,38,40,36));
#471=IFCPOLYGONALFACESET(#440,$,(#441,#442,#443,#444,#445,#446,#447,#448,#449,#450,#451,#452,#453,#454,#455,#456,#457,#458,#459,#460,#461,#462,#463,#464,#465,#466,#467,#468,#469,#470),$);
#472=IFCSHAPEREPRESENTATION(#13,'Body','Tessellation',(#471));
#473=IFCPRODUCTDEFINITIONSHAPE($,$,(#472));
#474=IFCRELAGGREGATES('3cDN9Lpk9RpuMynt4uH99g',$,$,$,#28,(#36,#44,#52));
#475=IFCRELAGGREGATES('1EuoyY2aLPvPLC1X2EBMZc',$,$,$,#36,(#60,#98,#140));
#476=IFCRELAGGREGATES('30W9FbcFXM38ssMNKUVYb_',$,$,$,#44,(#172,#354));
#477=IFCRELAGGREGATES('2vy2WSdC5IiOdthdrNUjC1',$,$,$,#52,(#386,#430));
#478=IFCRELCONTAINEDINSPATIALSTRUCTURE('1DXlt6llfM4wUBHIX1Pe9w',$,$,$,(#28),#3);
#479=IFCCARTESIANPOINT((0.,0.,0.));
#480=IFCAXIS2PLACEMENT3D(#479,$,$);
#481=IFCLOCALPLACEMENT($,#480);
#482=IFCCARTESIANPOINT((3.2000000000000002,0.,0.));
#483=IFCAXIS2PLACEMENT3D(#482,$,$);
#484=IFCLOCALPLACEMENT($,#483);
#485=IFCCARTESIANPOINT((6.4000000000000004,0.,0.));
#486=IFCAXIS2PLACEMENT3D(#485,$,$);
#487=IFCLOCALPLACEMENT($,#486);
#488=IFCCARTESIANPOINT((9.5999999999999996,0.,0.));
#489=IFCAXIS2PLACEMENT3D(#488,$,$);
#490=IFCLOCALPLACEMENT($,#489);
#491=IFCCARTESIANPOINT((0.,2.8999999999999999,0.));
#492=IFCAXIS2PLACEMENT3D(#491,$,$);
#493=IFCLOCALPLACEMENT($,#492);
#494=IFCCARTESIANPOINT((3.2000000000000002,2.8999999999999999,0.));
#495=IFCAXIS2PLACEMENT3D(#494,$,$);
#496=IFCLOCALPLACEMENT($,#495);
#497=IFCCARTESIANPOINT((6.4000000000000004,2.8999999999999999,0.));
#498=IFCAXIS2PLACEMENT3D(#497,$,$);
#499=IFCLOCALPLACEMENT($,#498);
ENDSEC;
END-ISO-10303-21;
