ISO-10303-21;
HEADER;
FILE_DESCRIPTION(('ViewDefinition [CoordinationView]'),'2;1');
FILE_NAME('LM3-TTART-SA850.ifc','2026-08-30T00:00:00+00:00',('OpenSourceRail'),('OpenSourceRail'),'IfcOpenShell 0.8.5','OpenSourceRail deterministic LM3 product-library exporter','design-reference / not for construction');
FILE_SCHEMA(('IFC4X3_ADD2'));
ENDSEC;
DATA;
#1=IFCPROJECT('1LiMN_2NjGCP55cWWaWC8h',$,'LM3-TTART-SA850 \X2\2014\X0\ optional train-to-train open mid-connection articulation','Design-reference geometry and assembly hierarchy only; supplier freeze, released drawings/tolerances, calculations, qualified processes and first-article tests remain mandatory.',$,$,$,(#12),#7);
#2=IFCSITE('12lsIPsK5Qpfv1kx20zNBP',$,'LM3 product library',$,$,#18,$,$,.ELEMENT.,$,$,$,$,$);
#3=IFCBUILDING('2ervPvUqDTVvsXcYOjeMeR',$,'LM3 assembly inspection fixture',$,$,#21,$,$,.ELEMENT.,$,$,$);
#4=IFCSIUNIT(*,.LENGTHUNIT.,$,.METRE.);
#5=IFCSIUNIT(*,.AREAUNIT.,$,.SQUARE_METRE.);
#6=IFCSIUNIT(*,.VOLUMEUNIT.,$,.CUBIC_METRE.);
#7=IFCUNITASSIGNMENT((#6,#4,#5));
#8=IFCCARTESIANPOINT((0.,0.,0.));
#9=IFCDIRECTION((0.,0.,1.));
#10=IFCDIRECTION((1.,0.,0.));
#11=IFCAXIS2PLACEMENT3D(#8,#9,#10);
#12=IFCGEOMETRICREPRESENTATIONCONTEXT($,'Model',3,1.0000000000000001E-05,#11,$);
#13=IFCGEOMETRICREPRESENTATIONSUBCONTEXT('Body','Model',*,*,*,*,#12,$,.MODEL_VIEW.,$);
#14=IFCRELAGGREGATES('3luypHfHPTSwvy1U03o5Zi',$,$,$,#1,(#2));
#15=IFCRELAGGREGATES('0xO5UuE9DG5PoKKBRvZKQJ',$,$,$,#2,(#3));
#16=IFCCARTESIANPOINT((0.,0.,0.));
#17=IFCAXIS2PLACEMENT3D(#16,$,$);
#18=IFCLOCALPLACEMENT($,#17);
#19=IFCCARTESIANPOINT((0.,0.,0.));
#20=IFCAXIS2PLACEMENT3D(#19,$,$);
#21=IFCLOCALPLACEMENT($,#20);
#22=IFCPROPERTYSINGLEVALUE('Status',$,IFCTEXT('design-reference-not-released'),$);
#23=IFCPROPERTYSINGLEVALUE('ReleaseBoundary',$,IFCTEXT('Design-reference geometry and assembly hierarchy only; supplier freeze, released drawings/tolerances, calculations, qualified processes and first-article tests remain mandatory.'),$);
#24=IFCPROPERTYSINGLEVALUE('Manifest',$,IFCTEXT('design/component-catalogue/catalog/buildable-trainset/buildable-trainset-manifest.json'),$);
#25=IFCPROPERTYSINGLEVALUE('ManifestSha256',$,IFCTEXT('7654747909805305ce2018109b5b649c4817a8f8c44a3ec8f2e8a6f74d48243e'),$);
#26=IFCPROPERTYSET('0dAHHnzLXIGgZsGRxzGIEj',$,'OSR_ProductLibrary',$,(#22,#23,#24,#25));
#27=IFCRELDEFINESBYPROPERTIES('1AYXwAPIvG3fee_iOm9Edf',$,$,$,(#1),#26);
#28=IFCELEMENTASSEMBLY('2CAq9Fo8PRDB4Y_bStiCUN',$,'optional train-to-train open mid-connection articulation','open-end option configuration record | train-to-train motion-envelope proof | walk-through gangway continuity | water ingress/drain test',$,$,$,'LM3-TTART-SA850',$,$);
#29=IFCPROPERTYSINGLEVALUE('OSRId',$,IFCTEXT('LM3-TTART-SA850'),$);
#30=IFCPROPERTYSINGLEVALUE('Layer',$,IFCTEXT('assembly'),$);
#31=IFCPROPERTYSINGLEVALUE('BuildCell',$,IFCTEXT('final assembly and commissioning cell'),$);
#32=IFCPROPERTYSINGLEVALUE('QuantityPerTrainset',$,IFCINTEGER(0),$);
#33=IFCPROPERTYSINGLEVALUE('GeometryStatus',$,IFCTEXT('complete-hierarchy-inspection-layout'),$);
#34=IFCPROPERTYSET('06lkkCZDPPmxpmKteqmayl',$,'OSR_AssemblyDefinition',$,(#29,#30,#31,#32,#33));
#35=IFCRELDEFINESBYPROPERTIES('0JiLKr6K5J8OjaDfzoK_Nh',$,$,$,(#28),#34);
#36=IFCELEMENTASSEMBLY('3ehalgH5jNQeyxoM8MqTEf',$,'common configurable train-end interface set','common bolt-grid survey | selected end-option fit gauge | seal and drain continuity | panoramic-or-open-mid configuration record',$,$,$,'LM3-EIF-SA650',$,$);
#37=IFCPROPERTYSINGLEVALUE('OSRId',$,IFCTEXT('LM3-EIF-SA650'),$);
#38=IFCPROPERTYSINGLEVALUE('Layer',$,IFCTEXT('subassembly'),$);
#39=IFCPROPERTYSINGLEVALUE('BuildCell',$,IFCTEXT('end-interface fixture / final assembly cell'),$);
#40=IFCPROPERTYSINGLEVALUE('QuantityPerTrainset',$,IFCINTEGER(2),$);
#41=IFCPROPERTYSINGLEVALUE('GeometryStatus',$,IFCTEXT('complete-hierarchy-inspection-layout'),$);
#42=IFCPROPERTYSET('0wruszUw1VDPdDDrrS$0$_',$,'OSR_AssemblyDefinition',$,(#37,#38,#39,#40,#41));
#43=IFCRELDEFINESBYPROPERTIES('0Rcm0_gOPTfOFHBB792pNG',$,$,$,(#36),#42);
#44=IFCBUILDINGELEMENTPROXY('122Fy$6HTNHv5_1xSe_fLZ',$,'common reversible end-interface carrier ring, option bolt grid, and sealing datum kit','Common structural and sealing datum that lets the same train end accept either the panoramic closed nose or the open mid-train connection.',$,#527,#81,'LM3-END-P060',$);
#45=IFCPROPERTYSINGLEVALUE('OSRId',$,IFCTEXT('LM3-END-P060'),$);
#46=IFCPROPERTYSINGLEVALUE('Parent',$,IFCTEXT('LM3-EIF-SA650'),$);
#47=IFCPROPERTYSINGLEVALUE('Route',$,IFCTEXT('MAKE'),$);
#48=IFCPROPERTYSINGLEVALUE('Maturity',$,IFCTEXT('release-candidate'),$);
#49=IFCPROPERTYSINGLEVALUE('QuantityPerTrainset',$,IFCINTEGER(2),$);
#50=IFCPROPERTYSINGLEVALUE('Unit',$,IFCTEXT('end position'),$);
#51=IFCPROPERTYSINGLEVALUE('GeometryStatus',$,IFCTEXT('design-reference-not-released'),$);
#52=IFCPROPERTYSET('1gDpQhFYjQN8AwR0Mc9$hu',$,'OSR_ProductDefinition',$,(#45,#46,#47,#48,#49,#50,#51));
#53=IFCRELDEFINESBYPROPERTIES('3AGLzazNXJ3uoDWHg3hahx',$,$,$,(#44),#52);
#54=IFCCARTESIANPOINTLIST3D(((-1.325,-0.14000000000000001,-1.325),(-1.325,-0.14000000000000001,1.325),(-1.325,0.14000000000000001,-1.325),(-1.325,0.14000000000000001,1.325),(-1.1850000000000001,-0.14000000000000001,-1.325),(-1.1850000000000001,-0.14000000000000001,1.325),(-1.1850000000000001,0.14000000000000001,-1.325),(-1.1850000000000001,0.14000000000000001,1.325),(1.1850000000000001,-0.14000000000000001,-1.325),(1.1850000000000001,-0.14000000000000001,1.325),(1.1850000000000001,0.14000000000000001,-1.325),(1.1850000000000001,0.14000000000000001,1.325),(1.325,-0.14000000000000001,-1.325),(1.325,-0.14000000000000001,1.325),(1.325,0.14000000000000001,-1.325),(1.325,0.14000000000000001,1.325),(-1.1850000000000001,-0.14000000000000001,1.1850000000000001),(-1.1850000000000001,-0.14000000000000001,1.325),(-1.1850000000000001,0.14000000000000001,1.1850000000000001),(-1.1850000000000001,0.14000000000000001,1.325),(1.1850000000000001,-0.14000000000000001,1.1850000000000001),(1.1850000000000001,-0.14000000000000001,1.325),(1.1850000000000001,0.14000000000000001,1.1850000000000001),(1.1850000000000001,0.14000000000000001,1.325),(-1.1850000000000001,-0.14000000000000001,-1.325),(-1.1850000000000001,-0.14000000000000001,-1.1850000000000001),(-1.1850000000000001,0.14000000000000001,-1.325),(-1.1850000000000001,0.14000000000000001,-1.1850000000000001),(1.1850000000000001,-0.14000000000000001,-1.325),(1.1850000000000001,-0.14000000000000001,-1.1850000000000001),(1.1850000000000001,0.14000000000000001,-1.325),(1.1850000000000001,0.14000000000000001,-1.1850000000000001)),$);
#55=IFCINDEXEDPOLYGONALFACE((1,2,4,3));
#56=IFCINDEXEDPOLYGONALFACE((5,7,8,6));
#57=IFCINDEXEDPOLYGONALFACE((1,5,6,2));
#58=IFCINDEXEDPOLYGONALFACE((3,4,8,7));
#59=IFCINDEXEDPOLYGONALFACE((1,3,7,5));
#60=IFCINDEXEDPOLYGONALFACE((2,6,8,4));
#61=IFCINDEXEDPOLYGONALFACE((9,10,12,11));
#62=IFCINDEXEDPOLYGONALFACE((13,15,16,14));
#63=IFCINDEXEDPOLYGONALFACE((9,13,14,10));
#64=IFCINDEXEDPOLYGONALFACE((11,12,16,15));
#65=IFCINDEXEDPOLYGONALFACE((9,11,15,13));
#66=IFCINDEXEDPOLYGONALFACE((10,14,16,12));
#67=IFCINDEXEDPOLYGONALFACE((17,18,20,19));
#68=IFCINDEXEDPOLYGONALFACE((21,23,24,22));
#69=IFCINDEXEDPOLYGONALFACE((17,21,22,18));
#70=IFCINDEXEDPOLYGONALFACE((19,20,24,23));
#71=IFCINDEXEDPOLYGONALFACE((17,19,23,21));
#72=IFCINDEXEDPOLYGONALFACE((18,22,24,20));
#73=IFCINDEXEDPOLYGONALFACE((25,26,28,27));
#74=IFCINDEXEDPOLYGONALFACE((29,31,32,30));
#75=IFCINDEXEDPOLYGONALFACE((25,29,30,26));
#76=IFCINDEXEDPOLYGONALFACE((27,28,32,31));
#77=IFCINDEXEDPOLYGONALFACE((25,27,31,29));
#78=IFCINDEXEDPOLYGONALFACE((26,30,32,28));
#79=IFCPOLYGONALFACESET(#54,$,(#55,#56,#57,#58,#59,#60,#61,#62,#63,#64,#65,#66,#67,#68,#69,#70,#71,#72,#73,#74,#75,#76,#77,#78),$);
#80=IFCSHAPEREPRESENTATION(#13,'Body','Tessellation',(#79));
#81=IFCPRODUCTDEFINITIONSHAPE($,$,(#80));
#82=IFCBUILDINGELEMENTPROXY('0z472BZ19Hyw_RdZqMGHdt',$,'panoramic-end option shim, cowl/glass carrier, and sensor datum closeout kit','Default end-option kit that closes the common interface with the panoramic glass cowl, T-OBS sensor datum, coupler access, and weather seals.',$,#530,#113,'LM3-END-P061',$);
#83=IFCPROPERTYSINGLEVALUE('OSRId',$,IFCTEXT('LM3-END-P061'),$);
#84=IFCPROPERTYSINGLEVALUE('Parent',$,IFCTEXT('LM3-EIF-SA650'),$);
#85=IFCPROPERTYSINGLEVALUE('Route',$,IFCTEXT('MAKE'),$);
#86=IFCPROPERTYSINGLEVALUE('Maturity',$,IFCTEXT('release-candidate'),$);
#87=IFCPROPERTYSINGLEVALUE('QuantityPerTrainset',$,IFCINTEGER(2),$);
#88=IFCPROPERTYSINGLEVALUE('Unit',$,IFCTEXT('option kit'),$);
#89=IFCPROPERTYSINGLEVALUE('GeometryStatus',$,IFCTEXT('design-reference-not-released'),$);
#90=IFCPROPERTYSET('0Xh0tZha5NSgvh0lr0VDFP',$,'OSR_ProductDefinition',$,(#83,#84,#85,#86,#87,#88,#89));
#91=IFCRELDEFINESBYPROPERTIES('13TEl_DHnIZQxW_dd5WMK0',$,$,$,(#82),#90);
#92=IFCCARTESIANPOINTLIST3D(((-0.625,-1.325,-1.272),(-0.625,-1.325,-0.318),(-0.625,1.325,-1.272),(-0.625,1.325,-0.318),(0.625,-1.325,-1.272),(0.625,-1.325,-0.318),(0.625,1.325,-1.272),(0.625,1.325,-0.318),(-0.48749999999999999,-1.2190000000000001,-0.45050000000000007),(-0.48749999999999999,-1.2190000000000001,0.45050000000000007),(-0.48749999999999999,1.2190000000000001,-0.45050000000000007),(-0.48749999999999999,1.2190000000000001,0.45050000000000007),(0.48749999999999999,-1.2190000000000001,-0.45050000000000007),(0.48749999999999999,-1.2190000000000001,0.45050000000000007),(0.48749999999999999,1.2190000000000001,-0.45050000000000007),(0.48749999999999999,1.2190000000000001,0.45050000000000007),(-0.32500000000000001,-1.0335000000000001,0.47699999999999998),(-0.32500000000000001,-1.0335000000000001,1.1659999999999999),(-0.32500000000000001,1.0335000000000001,0.47699999999999998),(-0.32500000000000001,1.0335000000000001,1.1659999999999999),(0.32500000000000001,-1.0335000000000001,0.47699999999999998),(0.32500000000000001,-1.0335000000000001,1.1659999999999999),(0.32500000000000001,1.0335000000000001,0.47699999999999998),(0.32500000000000001,1.0335000000000001,1.1659999999999999)),$);
#93=IFCINDEXEDPOLYGONALFACE((1,2,4,3));
#94=IFCINDEXEDPOLYGONALFACE((5,7,8,6));
#95=IFCINDEXEDPOLYGONALFACE((1,5,6,2));
#96=IFCINDEXEDPOLYGONALFACE((3,4,8,7));
#97=IFCINDEXEDPOLYGONALFACE((1,3,7,5));
#98=IFCINDEXEDPOLYGONALFACE((2,6,8,4));
#99=IFCINDEXEDPOLYGONALFACE((9,10,12,11));
#100=IFCINDEXEDPOLYGONALFACE((13,15,16,14));
#101=IFCINDEXEDPOLYGONALFACE((9,13,14,10));
#102=IFCINDEXEDPOLYGONALFACE((11,12,16,15));
#103=IFCINDEXEDPOLYGONALFACE((9,11,15,13));
#104=IFCINDEXEDPOLYGONALFACE((10,14,16,12));
#105=IFCINDEXEDPOLYGONALFACE((17,18,20,19));
#106=IFCINDEXEDPOLYGONALFACE((21,23,24,22));
#107=IFCINDEXEDPOLYGONALFACE((17,21,22,18));
#108=IFCINDEXEDPOLYGONALFACE((19,20,24,23));
#109=IFCINDEXEDPOLYGONALFACE((17,19,23,21));
#110=IFCINDEXEDPOLYGONALFACE((18,22,24,20));
#111=IFCPOLYGONALFACESET(#92,$,(#93,#94,#95,#96,#97,#98,#99,#100,#101,#102,#103,#104,#105,#106,#107,#108,#109,#110),$);
#112=IFCSHAPEREPRESENTATION(#13,'Body','Tessellation',(#111));
#113=IFCPRODUCTDEFINITIONSHAPE($,$,(#112));
#114=IFCBUILDINGELEMENTPROXY('0RZbVJJH1TYA0W2IDwUvB4',$,'mid open-connection option portal trim, bellows clamp, threshold bridge, and drain kit','Optional end treatment for marrying two train modules into a walk-through consist; it replaces the panoramic cowl/glass with an open passenger portal and gangway clamp datum.',$,#533,#295,'LM3-END-P062',$);
#115=IFCPROPERTYSINGLEVALUE('OSRId',$,IFCTEXT('LM3-END-P062'),$);
#116=IFCPROPERTYSINGLEVALUE('Parent',$,IFCTEXT('LM3-EIF-SA650'),$);
#117=IFCPROPERTYSINGLEVALUE('Route',$,IFCTEXT('MAKE'),$);
#118=IFCPROPERTYSINGLEVALUE('Maturity',$,IFCTEXT('release-candidate'),$);
#119=IFCPROPERTYSINGLEVALUE('QuantityPerTrainset',$,IFCINTEGER(0),$);
#120=IFCPROPERTYSINGLEVALUE('Unit',$,IFCTEXT('option kit'),$);
#121=IFCPROPERTYSINGLEVALUE('GeometryStatus',$,IFCTEXT('design-reference-not-released'),$);
#122=IFCPROPERTYSET('0$_TQm40bHsxriI8a2k$S5',$,'OSR_ProductDefinition',$,(#115,#116,#117,#118,#119,#120,#121));
#123=IFCRELDEFINESBYPROPERTIES('3YirOh8rnSPwKLQu5wTU5K',$,$,$,(#114),#122);
#124=IFCCARTESIANPOINTLIST3D(((-0.59325396825396826,-1.05,-1.175),(-0.59325396825396826,-1.05,1.175),(-0.59325396825396826,-0.91000000000000003,-1.175),(-0.59325396825396826,-0.91000000000000003,1.175),(-0.52103174603174607,-1.05,-1.175),(-0.52103174603174607,-1.05,1.175),(-0.52103174603174607,-0.91000000000000003,-1.175),(-0.52103174603174607,-0.91000000000000003,1.175),(-0.59325396825396814,0.91000000000000003,-1.175),(-0.59325396825396814,0.91000000000000003,1.175),(-0.59325396825396814,1.05,-1.175),(-0.59325396825396814,1.05,1.175),(-0.52103174603174596,0.91000000000000003,-1.175),(-0.52103174603174596,0.91000000000000003,1.175),(-0.52103174603174596,1.05,-1.175),(-0.52103174603174596,1.05,1.175),(-0.59325396825396826,-0.91000000000000003,1.0349999999999999),(-0.59325396825396826,-0.91000000000000003,1.175),(-0.59325396825396826,0.91000000000000003,1.0349999999999999),(-0.59325396825396826,0.91000000000000003,1.175),(-0.52103174603174596,-0.91000000000000003,1.0349999999999999),(-0.52103174603174596,-0.91000000000000003,1.175),(-0.52103174603174596,0.91000000000000003,1.0349999999999999),(-0.52103174603174596,0.91000000000000003,1.175),(-0.59325396825396826,-0.91000000000000003,-1.175),(-0.59325396825396826,-0.91000000000000003,-1.0349999999999999),(-0.59325396825396826,0.91000000000000003,-1.175),(-0.59325396825396826,0.91000000000000003,-1.0349999999999999),(-0.52103174603174596,-0.91000000000000003,-1.175),(-0.52103174603174596,-0.91000000000000003,-1.0349999999999999),(-0.52103174603174596,0.91000000000000003,-1.175),(-0.52103174603174596,0.91000000000000003,-1.0349999999999999),(-0.40753968253968265,-1.05,-1.175),(-0.40753968253968265,-1.05,1.175),(-0.40753968253968265,-0.91000000000000003,-1.175),(-0.40753968253968265,-0.91000000000000003,1.175),(-0.33531746031746035,-1.05,-1.175),(-0.33531746031746035,-1.05,1.175),(-0.33531746031746035,-0.91000000000000003,-1.175),(-0.33531746031746035,-0.91000000000000003,1.175),(-0.40753968253968254,0.91000000000000003,-1.175),(-0.40753968253968254,0.91000000000000003,1.175),(-0.40753968253968254,1.05,-1.175),(-0.40753968253968254,1.05,1.175),(-0.33531746031746024,0.91000000000000003,-1.175),(-0.33531746031746024,0.91000000000000003,1.175),(-0.33531746031746024,1.05,-1.175),(-0.33531746031746024,1.05,1.175),(-0.40753968253968265,-0.91000000000000003,1.0349999999999999),(-0.40753968253968265,-0.91000000000000003,1.175),(-0.40753968253968265,0.91000000000000003,1.0349999999999999),(-0.40753968253968265,0.91000000000000003,1.175),(-0.33531746031746024,-0.91000000000000003,1.0349999999999999),(-0.33531746031746024,-0.91000000000000003,1.175),(-0.33531746031746024,0.91000000000000003,1.0349999999999999),(-0.33531746031746024,0.91000000000000003,1.175),(-0.40753968253968265,-0.91000000000000003,-1.175),(-0.40753968253968265,-0.91000000000000003,-1.0349999999999999),(-0.40753968253968265,0.91000000000000003,-1.175),(-0.40753968253968265,0.91000000000000003,-1.0349999999999999),(-0.33531746031746024,-0.91000000000000003,-1.175),(-0.33531746031746024,-0.91000000000000003,-1.0349999999999999),(-0.33531746031746024,0.91000000000000003,-1.175),(-0.33531746031746024,0.91000000000000003,-1.0349999999999999),(-0.2218253968253969,-1.05,-1.175),(-0.2218253968253969,-1.05,1.175),(-0.2218253968253969,-0.91000000000000003,-1.175),(-0.2218253968253969,-0.91000000000000003,1.175),(-0.14960317460317465,-1.05,-1.175),(-0.14960317460317465,-1.05,1.175),(-0.14960317460317465,-0.91000000000000003,-1.175),(-0.14960317460317465,-0.91000000000000003,1.175),(-0.22182539682539679,0.91000000000000003,-1.175),(-0.22182539682539679,0.91000000000000003,1.175),(-0.22182539682539679,1.05,-1.175),(-0.22182539682539679,1.05,1.175),(-0.14960317460317454,0.91000000000000003,-1.175),(-0.14960317460317454,0.91000000000000003,1.175),(-0.14960317460317454,1.05,-1.175),(-0.14960317460317454,1.05,1.175),(-0.2218253968253969,-0.91000000000000003,1.0349999999999999),(-0.2218253968253969,-0.91000000000000003,1.175),(-0.2218253968253969,0.91000000000000003,1.0349999999999999),(-0.2218253968253969,0.91000000000000003,1.175),(-0.14960317460317454,-0.91000000000000003,1.0349999999999999),(-0.14960317460317454,-0.91000000000000003,1.175),(-0.14960317460317454,0.91000000000000003,1.0349999999999999),(-0.14960317460317454,0.91000000000000003,1.175),(-0.2218253968253969,-0.91000000000000003,-1.175),(-0.2218253968253969,-0.91000000000000003,-1.0349999999999999),(-0.2218253968253969,0.91000000000000003,-1.175),(-0.2218253968253969,0.91000000000000003,-1.0349999999999999),(-0.14960317460317454,-0.91000000000000003,-1.175),(-0.14960317460317454,-0.91000000000000003,-1.0349999999999999),(-0.14960317460317454,0.91000000000000003,-1.175),(-0.14960317460317454,0.91000000000000003,-1.0349999999999999),(-0.036111111111111177,-1.05,-1.175),(-0.036111111111111177,-1.05,1.175),(-0.036111111111111177,-0.91000000000000003,-1.175),(-0.036111111111111177,-0.91000000000000003,1.175),(0.036111111111111059,-1.05,-1.175),(0.036111111111111059,-1.05,1.175),(0.036111111111111059,-0.91000000000000003,-1.175),(0.036111111111111059,-0.91000000000000003,1.175),(-0.036111111111111059,0.91000000000000003,-1.175),(-0.036111111111111059,0.91000000000000003,1.175),(-0.036111111111111059,1.05,-1.175),(-0.036111111111111059,1.05,1.175),(0.036111111111111177,0.91000000000000003,-1.175),(0.036111111111111177,0.91000000000000003,1.175),(0.036111111111111177,1.05,-1.175),(0.036111111111111177,1.05,1.175),(-0.03611111111111117,-0.91000000000000003,1.0349999999999999),(-0.03611111111111117,-0.91000000000000003,1.175),(-0.03611111111111117,0.91000000000000003,1.0349999999999999),(-0.03611111111111117,0.91000000000000003,1.175),(0.03611111111111117,-0.91000000000000003,1.0349999999999999),(0.03611111111111117,-0.91000000000000003,1.175),(0.03611111111111117,0.91000000000000003,1.0349999999999999),(0.03611111111111117,0.91000000000000003,1.175),(-0.03611111111111117,-0.91000000000000003,-1.175),(-0.03611111111111117,-0.91000000000000003,-1.0349999999999999),(-0.03611111111111117,0.91000000000000003,-1.175),(-0.03611111111111117,0.91000000000000003,-1.0349999999999999),(0.03611111111111117,-0.91000000000000003,-1.175),(0.03611111111111117,-0.91000000000000003,-1.0349999999999999),(0.03611111111111117,0.91000000000000003,-1.175),(0.03611111111111117,0.91000000000000003,-1.0349999999999999),(0.14960317460317449,-1.05,-1.175),(0.14960317460317449,-1.05,1.175),(0.14960317460317449,-0.91000000000000003,-1.175),(0.14960317460317449,-0.91000000000000003,1.175),(0.22182539682539673,-1.05,-1.175),(0.22182539682539673,-1.05,1.175),(0.22182539682539673,-0.91000000000000003,-1.175),(0.22182539682539673,-0.91000000000000003,1.175),(0.1496031746031746,0.91000000000000003,-1.175),(0.1496031746031746,0.91000000000000003,1.175),(0.1496031746031746,1.05,-1.175),(0.1496031746031746,1.05,1.175),(0.22182539682539684,0.91000000000000003,-1.175),(0.22182539682539684,0.91000000000000003,1.175),(0.22182539682539684,1.05,-1.175),(0.22182539682539684,1.05,1.175),(0.14960317460317449,-0.91000000000000003,1.0349999999999999),(0.14960317460317449,-0.91000000000000003,1.175),(0.14960317460317449,0.91000000000000003,1.0349999999999999),(0.14960317460317449,0.91000000000000003,1.175),(0.22182539682539684,-0.91000000000000003,1.0349999999999999),(0.22182539682539684,-0.91000000000000003,1.175),(0.22182539682539684,0.91000000000000003,1.0349999999999999),(0.22182539682539684,0.91000000000000003,1.175),(0.14960317460317449,-0.91000000000000003,-1.175),(0.14960317460317449,-0.91000000000000003,-1.0349999999999999),(0.14960317460317449,0.91000000000000003,-1.175),(0.14960317460317449,0.91000000000000003,-1.0349999999999999),(0.22182539682539684,-0.91000000000000003,-1.175),(0.22182539682539684,-0.91000000000000003,-1.0349999999999999),(0.22182539682539684,0.91000000000000003,-1.175),(0.22182539682539684,0.91000000000000003,-1.0349999999999999),(0.33531746031746024,-1.05,-1.175),(0.33531746031746024,-1.05,1.175),(0.33531746031746024,-0.91000000000000003,-1.175),(0.33531746031746024,-0.91000000000000003,1.175),(0.40753968253968254,-1.05,-1.175),(0.40753968253968254,-1.05,1.175),(0.40753968253968254,-0.91000000000000003,-1.175),(0.40753968253968254,-0.91000000000000003,1.175),(0.33531746031746035,0.91000000000000003,-1.175),(0.33531746031746035,0.91000000000000003,1.175),(0.33531746031746035,1.05,-1.175),(0.33531746031746035,1.05,1.175),(0.40753968253968265,0.91000000000000003,-1.175),(0.40753968253968265,0.91000000000000003,1.175),(0.40753968253968265,1.05,-1.175),(0.40753968253968265,1.05,1.175),(0.33531746031746024,-0.91000000000000003,1.0349999999999999),(0.33531746031746024,-0.91000000000000003,1.175),(0.33531746031746024,0.91000000000000003,1.0349999999999999),(0.33531746031746024,0.91000000000000003,1.175),(0.40753968253968265,-0.91000000000000003,1.0349999999999999),(0.40753968253968265,-0.91000000000000003,1.175),(0.40753968253968265,0.91000000000000003,1.0349999999999999),(0.40753968253968265,0.91000000000000003,1.175),(0.33531746031746024,-0.91000000000000003,-1.175),(0.33531746031746024,-0.91000000000000003,-1.0349999999999999),(0.33531746031746024,0.91000000000000003,-1.175),(0.33531746031746024,0.91000000000000003,-1.0349999999999999),(0.40753968253968265,-0.91000000000000003,-1.175),(0.40753968253968265,-0.91000000000000003,-1.0349999999999999),(0.40753968253968265,0.91000000000000003,-1.175),(0.40753968253968265,0.91000000000000003,-1.0349999999999999),(0.52103174603174596,-1.05,-1.175),(0.52103174603174596,-1.05,1.175),(0.52103174603174596,-0.91000000000000003,-1.175),(0.52103174603174596,-0.91000000000000003,1.175),(0.59325396825396814,-1.05,-1.175),(0.59325396825396814,-1.05,1.175),(0.59325396825396814,-0.91000000000000003,-1.175),(0.59325396825396814,-0.91000000000000003,1.175),(0.52103174603174607,0.91000000000000003,-1.175),(0.52103174603174607,0.91000000000000003,1.175),(0.52103174603174607,1.05,-1.175),(0.52103174603174607,1.05,1.175),(0.59325396825396826,0.91000000000000003,-1.175),(0.59325396825396826,0.91000000000000003,1.175),(0.59325396825396826,1.05,-1.175),(0.59325396825396826,1.05,1.175),(0.52103174603174596,-0.91000000000000003,1.0349999999999999),(0.52103174603174596,-0.91000000000000003,1.175),(0.52103174603174596,0.91000000000000003,1.0349999999999999),(0.52103174603174596,0.91000000000000003,1.175),(0.59325396825396826,-0.91000000000000003,1.0349999999999999),(0.59325396825396826,-0.91000000000000003,1.175),(0.59325396825396826,0.91000000000000003,1.0349999999999999),(0.59325396825396826,0.91000000000000003,1.175),(0.52103174603174596,-0.91000000000000003,-1.175),(0.52103174603174596,-0.91000000000000003,-1.0349999999999999),(0.52103174603174596,0.91000000000000003,-1.175),(0.52103174603174596,0.91000000000000003,-1.0349999999999999),(0.59325396825396826,-0.91000000000000003,-1.175),(0.59325396825396826,-0.91000000000000003,-1.0349999999999999),(0.59325396825396826,0.91000000000000003,-1.175),(0.59325396825396826,0.91000000000000003,-1.0349999999999999)),$);
#125=IFCINDEXEDPOLYGONALFACE((1,2,4,3));
#126=IFCINDEXEDPOLYGONALFACE((5,7,8,6));
#127=IFCINDEXEDPOLYGONALFACE((1,5,6,2));
#128=IFCINDEXEDPOLYGONALFACE((3,4,8,7));
#129=IFCINDEXEDPOLYGONALFACE((1,3,7,5));
#130=IFCINDEXEDPOLYGONALFACE((2,6,8,4));
#131=IFCINDEXEDPOLYGONALFACE((9,10,12,11));
#132=IFCINDEXEDPOLYGONALFACE((13,15,16,14));
#133=IFCINDEXEDPOLYGONALFACE((9,13,14,10));
#134=IFCINDEXEDPOLYGONALFACE((11,12,16,15));
#135=IFCINDEXEDPOLYGONALFACE((9,11,15,13));
#136=IFCINDEXEDPOLYGONALFACE((10,14,16,12));
#137=IFCINDEXEDPOLYGONALFACE((17,18,20,19));
#138=IFCINDEXEDPOLYGONALFACE((21,23,24,22));
#139=IFCINDEXEDPOLYGONALFACE((17,21,22,18));
#140=IFCINDEXEDPOLYGONALFACE((19,20,24,23));
#141=IFCINDEXEDPOLYGONALFACE((17,19,23,21));
#142=IFCINDEXEDPOLYGONALFACE((18,22,24,20));
#143=IFCINDEXEDPOLYGONALFACE((25,26,28,27));
#144=IFCINDEXEDPOLYGONALFACE((29,31,32,30));
#145=IFCINDEXEDPOLYGONALFACE((25,29,30,26));
#146=IFCINDEXEDPOLYGONALFACE((27,28,32,31));
#147=IFCINDEXEDPOLYGONALFACE((25,27,31,29));
#148=IFCINDEXEDPOLYGONALFACE((26,30,32,28));
#149=IFCINDEXEDPOLYGONALFACE((33,34,36,35));
#150=IFCINDEXEDPOLYGONALFACE((37,39,40,38));
#151=IFCINDEXEDPOLYGONALFACE((33,37,38,34));
#152=IFCINDEXEDPOLYGONALFACE((35,36,40,39));
#153=IFCINDEXEDPOLYGONALFACE((33,35,39,37));
#154=IFCINDEXEDPOLYGONALFACE((34,38,40,36));
#155=IFCINDEXEDPOLYGONALFACE((41,42,44,43));
#156=IFCINDEXEDPOLYGONALFACE((45,47,48,46));
#157=IFCINDEXEDPOLYGONALFACE((41,45,46,42));
#158=IFCINDEXEDPOLYGONALFACE((43,44,48,47));
#159=IFCINDEXEDPOLYGONALFACE((41,43,47,45));
#160=IFCINDEXEDPOLYGONALFACE((42,46,48,44));
#161=IFCINDEXEDPOLYGONALFACE((49,50,52,51));
#162=IFCINDEXEDPOLYGONALFACE((53,55,56,54));
#163=IFCINDEXEDPOLYGONALFACE((49,53,54,50));
#164=IFCINDEXEDPOLYGONALFACE((51,52,56,55));
#165=IFCINDEXEDPOLYGONALFACE((49,51,55,53));
#166=IFCINDEXEDPOLYGONALFACE((50,54,56,52));
#167=IFCINDEXEDPOLYGONALFACE((57,58,60,59));
#168=IFCINDEXEDPOLYGONALFACE((61,63,64,62));
#169=IFCINDEXEDPOLYGONALFACE((57,61,62,58));
#170=IFCINDEXEDPOLYGONALFACE((59,60,64,63));
#171=IFCINDEXEDPOLYGONALFACE((57,59,63,61));
#172=IFCINDEXEDPOLYGONALFACE((58,62,64,60));
#173=IFCINDEXEDPOLYGONALFACE((65,66,68,67));
#174=IFCINDEXEDPOLYGONALFACE((69,71,72,70));
#175=IFCINDEXEDPOLYGONALFACE((65,69,70,66));
#176=IFCINDEXEDPOLYGONALFACE((67,68,72,71));
#177=IFCINDEXEDPOLYGONALFACE((65,67,71,69));
#178=IFCINDEXEDPOLYGONALFACE((66,70,72,68));
#179=IFCINDEXEDPOLYGONALFACE((73,74,76,75));
#180=IFCINDEXEDPOLYGONALFACE((77,79,80,78));
#181=IFCINDEXEDPOLYGONALFACE((73,77,78,74));
#182=IFCINDEXEDPOLYGONALFACE((75,76,80,79));
#183=IFCINDEXEDPOLYGONALFACE((73,75,79,77));
#184=IFCINDEXEDPOLYGONALFACE((74,78,80,76));
#185=IFCINDEXEDPOLYGONALFACE((81,82,84,83));
#186=IFCINDEXEDPOLYGONALFACE((85,87,88,86));
#187=IFCINDEXEDPOLYGONALFACE((81,85,86,82));
#188=IFCINDEXEDPOLYGONALFACE((83,84,88,87));
#189=IFCINDEXEDPOLYGONALFACE((81,83,87,85));
#190=IFCINDEXEDPOLYGONALFACE((82,86,88,84));
#191=IFCINDEXEDPOLYGONALFACE((89,90,92,91));
#192=IFCINDEXEDPOLYGONALFACE((93,95,96,94));
#193=IFCINDEXEDPOLYGONALFACE((89,93,94,90));
#194=IFCINDEXEDPOLYGONALFACE((91,92,96,95));
#195=IFCINDEXEDPOLYGONALFACE((89,91,95,93));
#196=IFCINDEXEDPOLYGONALFACE((90,94,96,92));
#197=IFCINDEXEDPOLYGONALFACE((97,98,100,99));
#198=IFCINDEXEDPOLYGONALFACE((101,103,104,102));
#199=IFCINDEXEDPOLYGONALFACE((97,101,102,98));
#200=IFCINDEXEDPOLYGONALFACE((99,100,104,103));
#201=IFCINDEXEDPOLYGONALFACE((97,99,103,101));
#202=IFCINDEXEDPOLYGONALFACE((98,102,104,100));
#203=IFCINDEXEDPOLYGONALFACE((105,106,108,107));
#204=IFCINDEXEDPOLYGONALFACE((109,111,112,110));
#205=IFCINDEXEDPOLYGONALFACE((105,109,110,106));
#206=IFCINDEXEDPOLYGONALFACE((107,108,112,111));
#207=IFCINDEXEDPOLYGONALFACE((105,107,111,109));
#208=IFCINDEXEDPOLYGONALFACE((106,110,112,108));
#209=IFCINDEXEDPOLYGONALFACE((113,114,116,115));
#210=IFCINDEXEDPOLYGONALFACE((117,119,120,118));
#211=IFCINDEXEDPOLYGONALFACE((113,117,118,114));
#212=IFCINDEXEDPOLYGONALFACE((115,116,120,119));
#213=IFCINDEXEDPOLYGONALFACE((113,115,119,117));
#214=IFCINDEXEDPOLYGONALFACE((114,118,120,116));
#215=IFCINDEXEDPOLYGONALFACE((121,122,124,123));
#216=IFCINDEXEDPOLYGONALFACE((125,127,128,126));
#217=IFCINDEXEDPOLYGONALFACE((121,125,126,122));
#218=IFCINDEXEDPOLYGONALFACE((123,124,128,127));
#219=IFCINDEXEDPOLYGONALFACE((121,123,127,125));
#220=IFCINDEXEDPOLYGONALFACE((122,126,128,124));
#221=IFCINDEXEDPOLYGONALFACE((129,130,132,131));
#222=IFCINDEXEDPOLYGONALFACE((133,135,136,134));
#223=IFCINDEXEDPOLYGONALFACE((129,133,134,130));
#224=IFCINDEXEDPOLYGONALFACE((131,132,136,135));
#225=IFCINDEXEDPOLYGONALFACE((129,131,135,133));
#226=IFCINDEXEDPOLYGONALFACE((130,134,136,132));
#227=IFCINDEXEDPOLYGONALFACE((137,138,140,139));
#228=IFCINDEXEDPOLYGONALFACE((141,143,144,142));
#229=IFCINDEXEDPOLYGONALFACE((137,141,142,138));
#230=IFCINDEXEDPOLYGONALFACE((139,140,144,143));
#231=IFCINDEXEDPOLYGONALFACE((137,139,143,141));
#232=IFCINDEXEDPOLYGONALFACE((138,142,144,140));
#233=IFCINDEXEDPOLYGONALFACE((145,146,148,147));
#234=IFCINDEXEDPOLYGONALFACE((149,151,152,150));
#235=IFCINDEXEDPOLYGONALFACE((145,149,150,146));
#236=IFCINDEXEDPOLYGONALFACE((147,148,152,151));
#237=IFCINDEXEDPOLYGONALFACE((145,147,151,149));
#238=IFCINDEXEDPOLYGONALFACE((146,150,152,148));
#239=IFCINDEXEDPOLYGONALFACE((153,154,156,155));
#240=IFCINDEXEDPOLYGONALFACE((157,159,160,158));
#241=IFCINDEXEDPOLYGONALFACE((153,157,158,154));
#242=IFCINDEXEDPOLYGONALFACE((155,156,160,159));
#243=IFCINDEXEDPOLYGONALFACE((153,155,159,157));
#244=IFCINDEXEDPOLYGONALFACE((154,158,160,156));
#245=IFCINDEXEDPOLYGONALFACE((161,162,164,163));
#246=IFCINDEXEDPOLYGONALFACE((165,167,168,166));
#247=IFCINDEXEDPOLYGONALFACE((161,165,166,162));
#248=IFCINDEXEDPOLYGONALFACE((163,164,168,167));
#249=IFCINDEXEDPOLYGONALFACE((161,163,167,165));
#250=IFCINDEXEDPOLYGONALFACE((162,166,168,164));
#251=IFCINDEXEDPOLYGONALFACE((169,170,172,171));
#252=IFCINDEXEDPOLYGONALFACE((173,175,176,174));
#253=IFCINDEXEDPOLYGONALFACE((169,173,174,170));
#254=IFCINDEXEDPOLYGONALFACE((171,172,176,175));
#255=IFCINDEXEDPOLYGONALFACE((169,171,175,173));
#256=IFCINDEXEDPOLYGONALFACE((170,174,176,172));
#257=IFCINDEXEDPOLYGONALFACE((177,178,180,179));
#258=IFCINDEXEDPOLYGONALFACE((181,183,184,182));
#259=IFCINDEXEDPOLYGONALFACE((177,181,182,178));
#260=IFCINDEXEDPOLYGONALFACE((179,180,184,183));
#261=IFCINDEXEDPOLYGONALFACE((177,179,183,181));
#262=IFCINDEXEDPOLYGONALFACE((178,182,184,180));
#263=IFCINDEXEDPOLYGONALFACE((185,186,188,187));
#264=IFCINDEXEDPOLYGONALFACE((189,191,192,190));
#265=IFCINDEXEDPOLYGONALFACE((185,189,190,186));
#266=IFCINDEXEDPOLYGONALFACE((187,188,192,191));
#267=IFCINDEXEDPOLYGONALFACE((185,187,191,189));
#268=IFCINDEXEDPOLYGONALFACE((186,190,192,188));
#269=IFCINDEXEDPOLYGONALFACE((193,194,196,195));
#270=IFCINDEXEDPOLYGONALFACE((197,199,200,198));
#271=IFCINDEXEDPOLYGONALFACE((193,197,198,194));
#272=IFCINDEXEDPOLYGONALFACE((195,196,200,199));
#273=IFCINDEXEDPOLYGONALFACE((193,195,199,197));
#274=IFCINDEXEDPOLYGONALFACE((194,198,200,196));
#275=IFCINDEXEDPOLYGONALFACE((201,202,204,203));
#276=IFCINDEXEDPOLYGONALFACE((205,207,208,206));
#277=IFCINDEXEDPOLYGONALFACE((201,205,206,202));
#278=IFCINDEXEDPOLYGONALFACE((203,204,208,207));
#279=IFCINDEXEDPOLYGONALFACE((201,203,207,205));
#280=IFCINDEXEDPOLYGONALFACE((202,206,208,204));
#281=IFCINDEXEDPOLYGONALFACE((209,210,212,211));
#282=IFCINDEXEDPOLYGONALFACE((213,215,216,214));
#283=IFCINDEXEDPOLYGONALFACE((209,213,214,210));
#284=IFCINDEXEDPOLYGONALFACE((211,212,216,215));
#285=IFCINDEXEDPOLYGONALFACE((209,211,215,213));
#286=IFCINDEXEDPOLYGONALFACE((210,214,216,212));
#287=IFCINDEXEDPOLYGONALFACE((217,218,220,219));
#288=IFCINDEXEDPOLYGONALFACE((221,223,224,222));
#289=IFCINDEXEDPOLYGONALFACE((217,221,222,218));
#290=IFCINDEXEDPOLYGONALFACE((219,220,224,223));
#291=IFCINDEXEDPOLYGONALFACE((217,219,223,221));
#292=IFCINDEXEDPOLYGONALFACE((218,222,224,220));
#293=IFCPOLYGONALFACESET(#124,$,(#125,#126,#127,#128,#129,#130,#131,#132,#133,#134,#135,#136,#137,#138,#139,#140,#141,#142,#143,#144,#145,#146,#147,#148,#149,#150,#151,#152,#153,#154,#155,#156,#157,#158,#159,#160,#161,#162,#163,#164,#165,#166,#167,#168,#169,#170,#171,#172,#173,#174,#175,#176,#177,#178,#179,#180,#181,#182,#183,#184,#185,#186,#187,#188,#189,#190,#191,#192,#193,#194,#195,#196,#197,#198,#199,#200,#201,#202,#203,#204,#205,#206,#207,#208,#209,#210,#211,#212,#213,#214,#215,#216,#217,#218,#219,#220,#221,#222,#223,#224,#225,#226,#227,#228,#229,#230,#231,#232,#233,#234,#235,#236,#237,#238,#239,#240,#241,#242,#243,#244,#245,#246,#247,#248,#249,#250,#251,#252,#253,#254,#255,#256,#257,#258,#259,#260,#261,#262,#263,#264,#265,#266,#267,#268,#269,#270,#271,#272,#273,#274,#275,#276,#277,#278,#279,#280,#281,#282,#283,#284,#285,#286,#287,#288,#289,#290,#291,#292),$);
#294=IFCSHAPEREPRESENTATION(#13,'Body','Tessellation',(#293));
#295=IFCPRODUCTDEFINITIONSHAPE($,$,(#294));
#296=IFCBUILDINGELEMENTPROXY('3IYkzoxLfUnfyTxJc4VgFP',$,'train-to-train open-end articulation, gangway, drawbar, turntable, and service-jumper cassette','Supplier open-end gangway/articulation cassette for joining two otherwise complete train modules through their common end-interface frames.',$,#536,#477,'LM3-ART-P040',$);
#297=IFCPROPERTYSINGLEVALUE('OSRId',$,IFCTEXT('LM3-ART-P040'),$);
#298=IFCPROPERTYSINGLEVALUE('Parent',$,IFCTEXT('LM3-TTART-SA850'),$);
#299=IFCPROPERTYSINGLEVALUE('Route',$,IFCTEXT('BID'),$);
#300=IFCPROPERTYSINGLEVALUE('Maturity',$,IFCTEXT('buildable-after-supplier-freeze'),$);
#301=IFCPROPERTYSINGLEVALUE('QuantityPerTrainset',$,IFCINTEGER(0),$);
#302=IFCPROPERTYSINGLEVALUE('Unit',$,IFCTEXT('joint kit'),$);
#303=IFCPROPERTYSINGLEVALUE('GeometryStatus',$,IFCTEXT('design-reference-not-released'),$);
#304=IFCPROPERTYSET('16h8BfLO5TUPQYg3Z2smav',$,'OSR_ProductDefinition',$,(#297,#298,#299,#300,#301,#302,#303));
#305=IFCRELDEFINESBYPROPERTIES('2MXWXiL6XH_xNhSLVZ6kKu',$,$,$,(#296),#304);
#306=IFCCARTESIANPOINTLIST3D(((-0.6617063492063493,-1.125,-1.2),(-0.6617063492063493,-1.125,1.2),(-0.6617063492063493,-0.98499999999999999,-1.2),(-0.6617063492063493,-0.98499999999999999,1.2),(-0.5811507936507937,-1.125,-1.2),(-0.5811507936507937,-1.125,1.2),(-0.5811507936507937,-0.98499999999999999,-1.2),(-0.5811507936507937,-0.98499999999999999,1.2),(-0.66170634920634919,0.98499999999999999,-1.2),(-0.66170634920634919,0.98499999999999999,1.2),(-0.66170634920634919,1.125,-1.2),(-0.66170634920634919,1.125,1.2),(-0.58115079365079358,0.98499999999999999,-1.2),(-0.58115079365079358,0.98499999999999999,1.2),(-0.58115079365079358,1.125,-1.2),(-0.58115079365079358,1.125,1.2),(-0.6617063492063493,-0.98499999999999999,1.0600000000000001),(-0.6617063492063493,-0.98499999999999999,1.2),(-0.6617063492063493,0.98499999999999999,1.0600000000000001),(-0.6617063492063493,0.98499999999999999,1.2),(-0.58115079365079358,-0.98499999999999999,1.0600000000000001),(-0.58115079365079358,-0.98499999999999999,1.2),(-0.58115079365079358,0.98499999999999999,1.0600000000000001),(-0.58115079365079358,0.98499999999999999,1.2),(-0.6617063492063493,-0.98499999999999999,-1.2),(-0.6617063492063493,-0.98499999999999999,-1.0600000000000001),(-0.6617063492063493,0.98499999999999999,-1.2),(-0.6617063492063493,0.98499999999999999,-1.0600000000000001),(-0.58115079365079358,-0.98499999999999999,-1.2),(-0.58115079365079358,-0.98499999999999999,-1.0600000000000001),(-0.58115079365079358,0.98499999999999999,-1.2),(-0.58115079365079358,0.98499999999999999,-1.0600000000000001),(-0.45456349206349211,-1.125,-1.2),(-0.45456349206349211,-1.125,1.2),(-0.45456349206349211,-0.98499999999999999,-1.2),(-0.45456349206349211,-0.98499999999999999,1.2),(-0.37400793650793657,-1.125,-1.2),(-0.37400793650793657,-1.125,1.2),(-0.37400793650793657,-0.98499999999999999,-1.2),(-0.37400793650793657,-0.98499999999999999,1.2),(-0.454563492063492,0.98499999999999999,-1.2),(-0.454563492063492,0.98499999999999999,1.2),(-0.454563492063492,1.125,-1.2),(-0.454563492063492,1.125,1.2),(-0.37400793650793646,0.98499999999999999,-1.2),(-0.37400793650793646,0.98499999999999999,1.2),(-0.37400793650793646,1.125,-1.2),(-0.37400793650793646,1.125,1.2),(-0.45456349206349211,-0.98499999999999999,1.0600000000000001),(-0.45456349206349211,-0.98499999999999999,1.2),(-0.45456349206349211,0.98499999999999999,1.0600000000000001),(-0.45456349206349211,0.98499999999999999,1.2),(-0.37400793650793646,-0.98499999999999999,1.0600000000000001),(-0.37400793650793646,-0.98499999999999999,1.2),(-0.37400793650793646,0.98499999999999999,1.0600000000000001),(-0.37400793650793646,0.98499999999999999,1.2),(-0.45456349206349211,-0.98499999999999999,-1.2),(-0.45456349206349211,-0.98499999999999999,-1.0600000000000001),(-0.45456349206349211,0.98499999999999999,-1.2),(-0.45456349206349211,0.98499999999999999,-1.0600000000000001),(-0.37400793650793646,-0.98499999999999999,-1.2),(-0.37400793650793646,-0.98499999999999999,-1.0600000000000001),(-0.37400793650793646,0.98499999999999999,-1.2),(-0.37400793650793646,0.98499999999999999,-1.0600000000000001),(-0.24742063492063496,-1.125,-1.2),(-0.24742063492063496,-1.125,1.2),(-0.24742063492063496,-0.98499999999999999,-1.2),(-0.24742063492063496,-0.98499999999999999,1.2),(-0.16686507936507938,-1.125,-1.2),(-0.16686507936507938,-1.125,1.2),(-0.16686507936507938,-0.98499999999999999,-1.2),(-0.16686507936507938,-0.98499999999999999,1.2),(-0.24742063492063482,0.98499999999999999,-1.2),(-0.24742063492063482,0.98499999999999999,1.2),(-0.24742063492063482,1.125,-1.2),(-0.24742063492063482,1.125,1.2),(-0.16686507936507924,0.98499999999999999,-1.2),(-0.16686507936507924,0.98499999999999999,1.2),(-0.16686507936507924,1.125,-1.2),(-0.16686507936507924,1.125,1.2),(-0.24742063492063493,-0.98499999999999999,1.0600000000000001),(-0.24742063492063493,-0.98499999999999999,1.2),(-0.24742063492063493,0.98499999999999999,1.0600000000000001),(-0.24742063492063493,0.98499999999999999,1.2),(-0.16686507936507927,-0.98499999999999999,1.0600000000000001),(-0.16686507936507927,-0.98499999999999999,1.2),(-0.16686507936507927,0.98499999999999999,1.0600000000000001),(-0.16686507936507927,0.98499999999999999,1.2),(-0.24742063492063493,-0.98499999999999999,-1.2),(-0.24742063492063493,-0.98499999999999999,-1.0600000000000001),(-0.24742063492063493,0.98499999999999999,-1.2),(-0.24742063492063493,0.98499999999999999,-1.0600000000000001),(-0.16686507936507927,-0.98499999999999999,-1.2),(-0.16686507936507927,-0.98499999999999999,-1.0600000000000001),(-0.16686507936507927,0.98499999999999999,-1.2),(-0.16686507936507927,0.98499999999999999,-1.0600000000000001),(-0.04027777777777785,-1.125,-1.2),(-0.04027777777777785,-1.125,1.2),(-0.04027777777777785,-0.98499999999999999,-1.2),(-0.04027777777777785,-0.98499999999999999,1.2),(0.040277777777777725,-1.125,-1.2),(0.040277777777777725,-1.125,1.2),(0.040277777777777725,-0.98499999999999999,-1.2),(0.040277777777777725,-0.98499999999999999,1.2),(-0.040277777777777725,0.98499999999999999,-1.2),(-0.040277777777777725,0.98499999999999999,1.2),(-0.040277777777777725,1.125,-1.2),(-0.040277777777777725,1.125,1.2),(0.04027777777777785,0.98499999999999999,-1.2),(0.04027777777777785,0.98499999999999999,1.2),(0.04027777777777785,1.125,-1.2),(0.04027777777777785,1.125,1.2),(-0.040277777777777836,-0.98499999999999999,1.0600000000000001),(-0.040277777777777836,-0.98499999999999999,1.2),(-0.040277777777777836,0.98499999999999999,1.0600000000000001),(-0.040277777777777836,0.98499999999999999,1.2),(0.040277777777777836,-0.98499999999999999,1.0600000000000001),(0.040277777777777836,-0.98499999999999999,1.2),(0.040277777777777836,0.98499999999999999,1.0600000000000001),(0.040277777777777836,0.98499999999999999,1.2),(-0.040277777777777836,-0.98499999999999999,-1.2),(-0.040277777777777836,-0.98499999999999999,-1.0600000000000001),(-0.040277777777777836,0.98499999999999999,-1.2),(-0.040277777777777836,0.98499999999999999,-1.0600000000000001),(0.040277777777777836,-0.98499999999999999,-1.2),(0.040277777777777836,-0.98499999999999999,-1.0600000000000001),(0.040277777777777836,0.98499999999999999,-1.2),(0.040277777777777836,0.98499999999999999,-1.0600000000000001),(0.16686507936507924,-1.125,-1.2),(0.16686507936507924,-1.125,1.2),(0.16686507936507924,-0.98499999999999999,-1.2),(0.16686507936507924,-0.98499999999999999,1.2),(0.24742063492063482,-1.125,-1.2),(0.24742063492063482,-1.125,1.2),(0.24742063492063482,-0.98499999999999999,-1.2),(0.24742063492063482,-0.98499999999999999,1.2),(0.16686507936507938,0.98499999999999999,-1.2),(0.16686507936507938,0.98499999999999999,1.2),(0.16686507936507938,1.125,-1.2),(0.16686507936507938,1.125,1.2),(0.24742063492063496,0.98499999999999999,-1.2),(0.24742063492063496,0.98499999999999999,1.2),(0.24742063492063496,1.125,-1.2),(0.24742063492063496,1.125,1.2),(0.16686507936507927,-0.98499999999999999,1.0600000000000001),(0.16686507936507927,-0.98499999999999999,1.2),(0.16686507936507927,0.98499999999999999,1.0600000000000001),(0.16686507936507927,0.98499999999999999,1.2),(0.24742063492063493,-0.98499999999999999,1.0600000000000001),(0.24742063492063493,-0.98499999999999999,1.2),(0.24742063492063493,0.98499999999999999,1.0600000000000001),(0.24742063492063493,0.98499999999999999,1.2),(0.16686507936507927,-0.98499999999999999,-1.2),(0.16686507936507927,-0.98499999999999999,-1.0600000000000001),(0.16686507936507927,0.98499999999999999,-1.2),(0.16686507936507927,0.98499999999999999,-1.0600000000000001),(0.24742063492063493,-0.98499999999999999,-1.2),(0.24742063492063493,-0.98499999999999999,-1.0600000000000001),(0.24742063492063493,0.98499999999999999,-1.2),(0.24742063492063493,0.98499999999999999,-1.0600000000000001),(0.3740079365079364,-1.125,-1.2),(0.3740079365079364,-1.125,1.2),(0.3740079365079364,-0.98499999999999999,-1.2),(0.3740079365079364,-0.98499999999999999,1.2),(0.45456349206349195,-1.125,-1.2),(0.45456349206349195,-1.125,1.2),(0.45456349206349195,-0.98499999999999999,-1.2),(0.45456349206349195,-0.98499999999999999,1.2),(0.37400793650793651,0.98499999999999999,-1.2),(0.37400793650793651,0.98499999999999999,1.2),(0.37400793650793651,1.125,-1.2),(0.37400793650793651,1.125,1.2),(0.45456349206349206,0.98499999999999999,-1.2),(0.45456349206349206,0.98499999999999999,1.2),(0.45456349206349206,1.125,-1.2),(0.45456349206349206,1.125,1.2),(0.3740079365079364,-0.98499999999999999,1.0600000000000001),(0.3740079365079364,-0.98499999999999999,1.2),(0.3740079365079364,0.98499999999999999,1.0600000000000001),(0.3740079365079364,0.98499999999999999,1.2),(0.45456349206349206,-0.98499999999999999,1.0600000000000001),(0.45456349206349206,-0.98499999999999999,1.2),(0.45456349206349206,0.98499999999999999,1.0600000000000001),(0.45456349206349206,0.98499999999999999,1.2),(0.3740079365079364,-0.98499999999999999,-1.2),(0.3740079365079364,-0.98499999999999999,-1.0600000000000001),(0.3740079365079364,0.98499999999999999,-1.2),(0.3740079365079364,0.98499999999999999,-1.0600000000000001),(0.45456349206349206,-0.98499999999999999,-1.2),(0.45456349206349206,-0.98499999999999999,-1.0600000000000001),(0.45456349206349206,0.98499999999999999,-1.2),(0.45456349206349206,0.98499999999999999,-1.0600000000000001),(0.58115079365079347,-1.125,-1.2),(0.58115079365079347,-1.125,1.2),(0.58115079365079347,-0.98499999999999999,-1.2),(0.58115079365079347,-0.98499999999999999,1.2),(0.66170634920634908,-1.125,-1.2),(0.66170634920634908,-1.125,1.2),(0.66170634920634908,-0.98499999999999999,-1.2),(0.66170634920634908,-0.98499999999999999,1.2),(0.58115079365079358,0.98499999999999999,-1.2),(0.58115079365079358,0.98499999999999999,1.2),(0.58115079365079358,1.125,-1.2),(0.58115079365079358,1.125,1.2),(0.66170634920634919,0.98499999999999999,-1.2),(0.66170634920634919,0.98499999999999999,1.2),(0.66170634920634919,1.125,-1.2),(0.66170634920634919,1.125,1.2),(0.58115079365079347,-0.98499999999999999,1.0600000000000001),(0.58115079365079347,-0.98499999999999999,1.2),(0.58115079365079347,0.98499999999999999,1.0600000000000001),(0.58115079365079347,0.98499999999999999,1.2),(0.66170634920634919,-0.98499999999999999,1.0600000000000001),(0.66170634920634919,-0.98499999999999999,1.2),(0.66170634920634919,0.98499999999999999,1.0600000000000001),(0.66170634920634919,0.98499999999999999,1.2),(0.58115079365079347,-0.98499999999999999,-1.2),(0.58115079365079347,-0.98499999999999999,-1.0600000000000001),(0.58115079365079347,0.98499999999999999,-1.2),(0.58115079365079347,0.98499999999999999,-1.0600000000000001),(0.66170634920634919,-0.98499999999999999,-1.2),(0.66170634920634919,-0.98499999999999999,-1.0600000000000001),(0.66170634920634919,0.98499999999999999,-1.2),(0.66170634920634919,0.98499999999999999,-1.0600000000000001)),$);
#307=IFCINDEXEDPOLYGONALFACE((1,2,4,3));
#308=IFCINDEXEDPOLYGONALFACE((5,7,8,6));
#309=IFCINDEXEDPOLYGONALFACE((1,5,6,2));
#310=IFCINDEXEDPOLYGONALFACE((3,4,8,7));
#311=IFCINDEXEDPOLYGONALFACE((1,3,7,5));
#312=IFCINDEXEDPOLYGONALFACE((2,6,8,4));
#313=IFCINDEXEDPOLYGONALFACE((9,10,12,11));
#314=IFCINDEXEDPOLYGONALFACE((13,15,16,14));
#315=IFCINDEXEDPOLYGONALFACE((9,13,14,10));
#316=IFCINDEXEDPOLYGONALFACE((11,12,16,15));
#317=IFCINDEXEDPOLYGONALFACE((9,11,15,13));
#318=IFCINDEXEDPOLYGONALFACE((10,14,16,12));
#319=IFCINDEXEDPOLYGONALFACE((17,18,20,19));
#320=IFCINDEXEDPOLYGONALFACE((21,23,24,22));
#321=IFCINDEXEDPOLYGONALFACE((17,21,22,18));
#322=IFCINDEXEDPOLYGONALFACE((19,20,24,23));
#323=IFCINDEXEDPOLYGONALFACE((17,19,23,21));
#324=IFCINDEXEDPOLYGONALFACE((18,22,24,20));
#325=IFCINDEXEDPOLYGONALFACE((25,26,28,27));
#326=IFCINDEXEDPOLYGONALFACE((29,31,32,30));
#327=IFCINDEXEDPOLYGONALFACE((25,29,30,26));
#328=IFCINDEXEDPOLYGONALFACE((27,28,32,31));
#329=IFCINDEXEDPOLYGONALFACE((25,27,31,29));
#330=IFCINDEXEDPOLYGONALFACE((26,30,32,28));
#331=IFCINDEXEDPOLYGONALFACE((33,34,36,35));
#332=IFCINDEXEDPOLYGONALFACE((37,39,40,38));
#333=IFCINDEXEDPOLYGONALFACE((33,37,38,34));
#334=IFCINDEXEDPOLYGONALFACE((35,36,40,39));
#335=IFCINDEXEDPOLYGONALFACE((33,35,39,37));
#336=IFCINDEXEDPOLYGONALFACE((34,38,40,36));
#337=IFCINDEXEDPOLYGONALFACE((41,42,44,43));
#338=IFCINDEXEDPOLYGONALFACE((45,47,48,46));
#339=IFCINDEXEDPOLYGONALFACE((41,45,46,42));
#340=IFCINDEXEDPOLYGONALFACE((43,44,48,47));
#341=IFCINDEXEDPOLYGONALFACE((41,43,47,45));
#342=IFCINDEXEDPOLYGONALFACE((42,46,48,44));
#343=IFCINDEXEDPOLYGONALFACE((49,50,52,51));
#344=IFCINDEXEDPOLYGONALFACE((53,55,56,54));
#345=IFCINDEXEDPOLYGONALFACE((49,53,54,50));
#346=IFCINDEXEDPOLYGONALFACE((51,52,56,55));
#347=IFCINDEXEDPOLYGONALFACE((49,51,55,53));
#348=IFCINDEXEDPOLYGONALFACE((50,54,56,52));
#349=IFCINDEXEDPOLYGONALFACE((57,58,60,59));
#350=IFCINDEXEDPOLYGONALFACE((61,63,64,62));
#351=IFCINDEXEDPOLYGONALFACE((57,61,62,58));
#352=IFCINDEXEDPOLYGONALFACE((59,60,64,63));
#353=IFCINDEXEDPOLYGONALFACE((57,59,63,61));
#354=IFCINDEXEDPOLYGONALFACE((58,62,64,60));
#355=IFCINDEXEDPOLYGONALFACE((65,66,68,67));
#356=IFCINDEXEDPOLYGONALFACE((69,71,72,70));
#357=IFCINDEXEDPOLYGONALFACE((65,69,70,66));
#358=IFCINDEXEDPOLYGONALFACE((67,68,72,71));
#359=IFCINDEXEDPOLYGONALFACE((65,67,71,69));
#360=IFCINDEXEDPOLYGONALFACE((66,70,72,68));
#361=IFCINDEXEDPOLYGONALFACE((73,74,76,75));
#362=IFCINDEXEDPOLYGONALFACE((77,79,80,78));
#363=IFCINDEXEDPOLYGONALFACE((73,77,78,74));
#364=IFCINDEXEDPOLYGONALFACE((75,76,80,79));
#365=IFCINDEXEDPOLYGONALFACE((73,75,79,77));
#366=IFCINDEXEDPOLYGONALFACE((74,78,80,76));
#367=IFCINDEXEDPOLYGONALFACE((81,82,84,83));
#368=IFCINDEXEDPOLYGONALFACE((85,87,88,86));
#369=IFCINDEXEDPOLYGONALFACE((81,85,86,82));
#370=IFCINDEXEDPOLYGONALFACE((83,84,88,87));
#371=IFCINDEXEDPOLYGONALFACE((81,83,87,85));
#372=IFCINDEXEDPOLYGONALFACE((82,86,88,84));
#373=IFCINDEXEDPOLYGONALFACE((89,90,92,91));
#374=IFCINDEXEDPOLYGONALFACE((93,95,96,94));
#375=IFCINDEXEDPOLYGONALFACE((89,93,94,90));
#376=IFCINDEXEDPOLYGONALFACE((91,92,96,95));
#377=IFCINDEXEDPOLYGONALFACE((89,91,95,93));
#378=IFCINDEXEDPOLYGONALFACE((90,94,96,92));
#379=IFCINDEXEDPOLYGONALFACE((97,98,100,99));
#380=IFCINDEXEDPOLYGONALFACE((101,103,104,102));
#381=IFCINDEXEDPOLYGONALFACE((97,101,102,98));
#382=IFCINDEXEDPOLYGONALFACE((99,100,104,103));
#383=IFCINDEXEDPOLYGONALFACE((97,99,103,101));
#384=IFCINDEXEDPOLYGONALFACE((98,102,104,100));
#385=IFCINDEXEDPOLYGONALFACE((105,106,108,107));
#386=IFCINDEXEDPOLYGONALFACE((109,111,112,110));
#387=IFCINDEXEDPOLYGONALFACE((105,109,110,106));
#388=IFCINDEXEDPOLYGONALFACE((107,108,112,111));
#389=IFCINDEXEDPOLYGONALFACE((105,107,111,109));
#390=IFCINDEXEDPOLYGONALFACE((106,110,112,108));
#391=IFCINDEXEDPOLYGONALFACE((113,114,116,115));
#392=IFCINDEXEDPOLYGONALFACE((117,119,120,118));
#393=IFCINDEXEDPOLYGONALFACE((113,117,118,114));
#394=IFCINDEXEDPOLYGONALFACE((115,116,120,119));
#395=IFCINDEXEDPOLYGONALFACE((113,115,119,117));
#396=IFCINDEXEDPOLYGONALFACE((114,118,120,116));
#397=IFCINDEXEDPOLYGONALFACE((121,122,124,123));
#398=IFCINDEXEDPOLYGONALFACE((125,127,128,126));
#399=IFCINDEXEDPOLYGONALFACE((121,125,126,122));
#400=IFCINDEXEDPOLYGONALFACE((123,124,128,127));
#401=IFCINDEXEDPOLYGONALFACE((121,123,127,125));
#402=IFCINDEXEDPOLYGONALFACE((122,126,128,124));
#403=IFCINDEXEDPOLYGONALFACE((129,130,132,131));
#404=IFCINDEXEDPOLYGONALFACE((133,135,136,134));
#405=IFCINDEXEDPOLYGONALFACE((129,133,134,130));
#406=IFCINDEXEDPOLYGONALFACE((131,132,136,135));
#407=IFCINDEXEDPOLYGONALFACE((129,131,135,133));
#408=IFCINDEXEDPOLYGONALFACE((130,134,136,132));
#409=IFCINDEXEDPOLYGONALFACE((137,138,140,139));
#410=IFCINDEXEDPOLYGONALFACE((141,143,144,142));
#411=IFCINDEXEDPOLYGONALFACE((137,141,142,138));
#412=IFCINDEXEDPOLYGONALFACE((139,140,144,143));
#413=IFCINDEXEDPOLYGONALFACE((137,139,143,141));
#414=IFCINDEXEDPOLYGONALFACE((138,142,144,140));
#415=IFCINDEXEDPOLYGONALFACE((145,146,148,147));
#416=IFCINDEXEDPOLYGONALFACE((149,151,152,150));
#417=IFCINDEXEDPOLYGONALFACE((145,149,150,146));
#418=IFCINDEXEDPOLYGONALFACE((147,148,152,151));
#419=IFCINDEXEDPOLYGONALFACE((145,147,151,149));
#420=IFCINDEXEDPOLYGONALFACE((146,150,152,148));
#421=IFCINDEXEDPOLYGONALFACE((153,154,156,155));
#422=IFCINDEXEDPOLYGONALFACE((157,159,160,158));
#423=IFCINDEXEDPOLYGONALFACE((153,157,158,154));
#424=IFCINDEXEDPOLYGONALFACE((155,156,160,159));
#425=IFCINDEXEDPOLYGONALFACE((153,155,159,157));
#426=IFCINDEXEDPOLYGONALFACE((154,158,160,156));
#427=IFCINDEXEDPOLYGONALFACE((161,162,164,163));
#428=IFCINDEXEDPOLYGONALFACE((165,167,168,166));
#429=IFCINDEXEDPOLYGONALFACE((161,165,166,162));
#430=IFCINDEXEDPOLYGONALFACE((163,164,168,167));
#431=IFCINDEXEDPOLYGONALFACE((161,163,167,165));
#432=IFCINDEXEDPOLYGONALFACE((162,166,168,164));
#433=IFCINDEXEDPOLYGONALFACE((169,170,172,171));
#434=IFCINDEXEDPOLYGONALFACE((173,175,176,174));
#435=IFCINDEXEDPOLYGONALFACE((169,173,174,170));
#436=IFCINDEXEDPOLYGONALFACE((171,172,176,175));
#437=IFCINDEXEDPOLYGONALFACE((169,171,175,173));
#438=IFCINDEXEDPOLYGONALFACE((170,174,176,172));
#439=IFCINDEXEDPOLYGONALFACE((177,178,180,179));
#440=IFCINDEXEDPOLYGONALFACE((181,183,184,182));
#441=IFCINDEXEDPOLYGONALFACE((177,181,182,178));
#442=IFCINDEXEDPOLYGONALFACE((179,180,184,183));
#443=IFCINDEXEDPOLYGONALFACE((177,179,183,181));
#444=IFCINDEXEDPOLYGONALFACE((178,182,184,180));
#445=IFCINDEXEDPOLYGONALFACE((185,186,188,187));
#446=IFCINDEXEDPOLYGONALFACE((189,191,192,190));
#447=IFCINDEXEDPOLYGONALFACE((185,189,190,186));
#448=IFCINDEXEDPOLYGONALFACE((187,188,192,191));
#449=IFCINDEXEDPOLYGONALFACE((185,187,191,189));
#450=IFCINDEXEDPOLYGONALFACE((186,190,192,188));
#451=IFCINDEXEDPOLYGONALFACE((193,194,196,195));
#452=IFCINDEXEDPOLYGONALFACE((197,199,200,198));
#453=IFCINDEXEDPOLYGONALFACE((193,197,198,194));
#454=IFCINDEXEDPOLYGONALFACE((195,196,200,199));
#455=IFCINDEXEDPOLYGONALFACE((193,195,199,197));
#456=IFCINDEXEDPOLYGONALFACE((194,198,200,196));
#457=IFCINDEXEDPOLYGONALFACE((201,202,204,203));
#458=IFCINDEXEDPOLYGONALFACE((205,207,208,206));
#459=IFCINDEXEDPOLYGONALFACE((201,205,206,202));
#460=IFCINDEXEDPOLYGONALFACE((203,204,208,207));
#461=IFCINDEXEDPOLYGONALFACE((201,203,207,205));
#462=IFCINDEXEDPOLYGONALFACE((202,206,208,204));
#463=IFCINDEXEDPOLYGONALFACE((209,210,212,211));
#464=IFCINDEXEDPOLYGONALFACE((213,215,216,214));
#465=IFCINDEXEDPOLYGONALFACE((209,213,214,210));
#466=IFCINDEXEDPOLYGONALFACE((211,212,216,215));
#467=IFCINDEXEDPOLYGONALFACE((209,211,215,213));
#468=IFCINDEXEDPOLYGONALFACE((210,214,216,212));
#469=IFCINDEXEDPOLYGONALFACE((217,218,220,219));
#470=IFCINDEXEDPOLYGONALFACE((221,223,224,222));
#471=IFCINDEXEDPOLYGONALFACE((217,221,222,218));
#472=IFCINDEXEDPOLYGONALFACE((219,220,224,223));
#473=IFCINDEXEDPOLYGONALFACE((217,219,223,221));
#474=IFCINDEXEDPOLYGONALFACE((218,222,224,220));
#475=IFCPOLYGONALFACESET(#306,$,(#307,#308,#309,#310,#311,#312,#313,#314,#315,#316,#317,#318,#319,#320,#321,#322,#323,#324,#325,#326,#327,#328,#329,#330,#331,#332,#333,#334,#335,#336,#337,#338,#339,#340,#341,#342,#343,#344,#345,#346,#347,#348,#349,#350,#351,#352,#353,#354,#355,#356,#357,#358,#359,#360,#361,#362,#363,#364,#365,#366,#367,#368,#369,#370,#371,#372,#373,#374,#375,#376,#377,#378,#379,#380,#381,#382,#383,#384,#385,#386,#387,#388,#389,#390,#391,#392,#393,#394,#395,#396,#397,#398,#399,#400,#401,#402,#403,#404,#405,#406,#407,#408,#409,#410,#411,#412,#413,#414,#415,#416,#417,#418,#419,#420,#421,#422,#423,#424,#425,#426,#427,#428,#429,#430,#431,#432,#433,#434,#435,#436,#437,#438,#439,#440,#441,#442,#443,#444,#445,#446,#447,#448,#449,#450,#451,#452,#453,#454,#455,#456,#457,#458,#459,#460,#461,#462,#463,#464,#465,#466,#467,#468,#469,#470,#471,#472,#473,#474),$);
#476=IFCSHAPEREPRESENTATION(#13,'Body','Tessellation',(#475));
#477=IFCPRODUCTDEFINITIONSHAPE($,$,(#476));
#478=IFCBUILDINGELEMENTPROXY('2Y4jRxKXrN9vaA6KvwpUER',$,'train-to-train jumper blanking, transition harness, isolation label, and dust-cover kit','Pre-terminated service transition and blanking hardware for open-end train-to-train gangway joints and protected unused end connectors.',$,#539,#521,'LM3-ART-P041',$);
#479=IFCPROPERTYSINGLEVALUE('OSRId',$,IFCTEXT('LM3-ART-P041'),$);
#480=IFCPROPERTYSINGLEVALUE('Parent',$,IFCTEXT('LM3-TTART-SA850'),$);
#481=IFCPROPERTYSINGLEVALUE('Route',$,IFCTEXT('SOURCE'),$);
#482=IFCPROPERTYSINGLEVALUE('Maturity',$,IFCTEXT('buildable-after-supplier-freeze'),$);
#483=IFCPROPERTYSINGLEVALUE('QuantityPerTrainset',$,IFCINTEGER(0),$);
#484=IFCPROPERTYSINGLEVALUE('Unit',$,IFCTEXT('joint kit'),$);
#485=IFCPROPERTYSINGLEVALUE('GeometryStatus',$,IFCTEXT('design-reference-not-released'),$);
#486=IFCPROPERTYSET('2oG5KnQOTLge$ta$87MZIb',$,'OSR_ProductDefinition',$,(#479,#480,#481,#482,#483,#484,#485));
#487=IFCRELDEFINESBYPROPERTIES('3FuJCNAsTLXeEiUcpTpSCl',$,$,$,(#478),#486);
#488=IFCCARTESIANPOINTLIST3D(((-0.59999999999999998,-0.3145,-0.031199999999999999),(-0.59999999999999998,-0.3145,0.031199999999999999),(-0.59999999999999998,-0.22950000000000001,-0.031199999999999999),(-0.59999999999999998,-0.22950000000000001,0.031199999999999999),(0.59999999999999998,-0.3145,-0.031199999999999999),(0.59999999999999998,-0.3145,0.031199999999999999),(0.59999999999999998,-0.22950000000000001,-0.031199999999999999),(0.59999999999999998,-0.22950000000000001,0.031199999999999999),(-0.59999999999999998,0.22950000000000001,-0.031199999999999999),(-0.59999999999999998,0.22950000000000001,0.031199999999999999),(-0.59999999999999998,0.3145,-0.031199999999999999),(-0.59999999999999998,0.3145,0.031199999999999999),(0.59999999999999998,0.22950000000000001,-0.031199999999999999),(0.59999999999999998,0.22950000000000001,0.031199999999999999),(0.59999999999999998,0.3145,-0.031199999999999999),(0.59999999999999998,0.3145,0.031199999999999999),(-0.435,-0.34000000000000002,-0.039),(-0.435,-0.34000000000000002,0.039),(-0.435,0.34000000000000002,-0.039),(-0.435,0.34000000000000002,0.039),(-0.40500000000000003,-0.34000000000000002,-0.039),(-0.40500000000000003,-0.34000000000000002,0.039),(-0.40500000000000003,0.34000000000000002,-0.039),(-0.40500000000000003,0.34000000000000002,0.039),(-0.014999999999999999,-0.34000000000000002,-0.039),(-0.014999999999999999,-0.34000000000000002,0.039),(-0.014999999999999999,0.34000000000000002,-0.039),(-0.014999999999999999,0.34000000000000002,0.039),(0.014999999999999999,-0.34000000000000002,-0.039),(0.014999999999999999,-0.34000000000000002,0.039),(0.014999999999999999,0.34000000000000002,-0.039),(0.014999999999999999,0.34000000000000002,0.039),(0.40500000000000003,-0.34000000000000002,-0.039),(0.40500000000000003,-0.34000000000000002,0.039),(0.40500000000000003,0.34000000000000002,-0.039),(0.40500000000000003,0.34000000000000002,0.039),(0.435,-0.34000000000000002,-0.039),(0.435,-0.34000000000000002,0.039),(0.435,0.34000000000000002,-0.039),(0.435,0.34000000000000002,0.039)),$);
#489=IFCINDEXEDPOLYGONALFACE((1,2,4,3));
#490=IFCINDEXEDPOLYGONALFACE((5,7,8,6));
#491=IFCINDEXEDPOLYGONALFACE((1,5,6,2));
#492=IFCINDEXEDPOLYGONALFACE((3,4,8,7));
#493=IFCINDEXEDPOLYGONALFACE((1,3,7,5));
#494=IFCINDEXEDPOLYGONALFACE((2,6,8,4));
#495=IFCINDEXEDPOLYGONALFACE((9,10,12,11));
#496=IFCINDEXEDPOLYGONALFACE((13,15,16,14));
#497=IFCINDEXEDPOLYGONALFACE((9,13,14,10));
#498=IFCINDEXEDPOLYGONALFACE((11,12,16,15));
#499=IFCINDEXEDPOLYGONALFACE((9,11,15,13));
#500=IFCINDEXEDPOLYGONALFACE((10,14,16,12));
#501=IFCINDEXEDPOLYGONALFACE((17,18,20,19));
#502=IFCINDEXEDPOLYGONALFACE((21,23,24,22));
#503=IFCINDEXEDPOLYGONALFACE((17,21,22,18));
#504=IFCINDEXEDPOLYGONALFACE((19,20,24,23));
#505=IFCINDEXEDPOLYGONALFACE((17,19,23,21));
#506=IFCINDEXEDPOLYGONALFACE((18,22,24,20));
#507=IFCINDEXEDPOLYGONALFACE((25,26,28,27));
#508=IFCINDEXEDPOLYGONALFACE((29,31,32,30));
#509=IFCINDEXEDPOLYGONALFACE((25,29,30,26));
#510=IFCINDEXEDPOLYGONALFACE((27,28,32,31));
#511=IFCINDEXEDPOLYGONALFACE((25,27,31,29));
#512=IFCINDEXEDPOLYGONALFACE((26,30,32,28));
#513=IFCINDEXEDPOLYGONALFACE((33,34,36,35));
#514=IFCINDEXEDPOLYGONALFACE((37,39,40,38));
#515=IFCINDEXEDPOLYGONALFACE((33,37,38,34));
#516=IFCINDEXEDPOLYGONALFACE((35,36,40,39));
#517=IFCINDEXEDPOLYGONALFACE((33,35,39,37));
#518=IFCINDEXEDPOLYGONALFACE((34,38,40,36));
#519=IFCPOLYGONALFACESET(#488,$,(#489,#490,#491,#492,#493,#494,#495,#496,#497,#498,#499,#500,#501,#502,#503,#504,#505,#506,#507,#508,#509,#510,#511,#512,#513,#514,#515,#516,#517,#518),$);
#520=IFCSHAPEREPRESENTATION(#13,'Body','Tessellation',(#519));
#521=IFCPRODUCTDEFINITIONSHAPE($,$,(#520));
#522=IFCRELAGGREGATES('3Cplo62HnNhxBRhfiF2wrP',$,$,$,#28,(#296,#478,#36));
#523=IFCRELAGGREGATES('3$TJwvOXHHQO9UuGPisySq',$,$,$,#36,(#44,#82,#114));
#524=IFCRELCONTAINEDINSPATIALSTRUCTURE('0oP$t3vVvIqxFer5gn_taD',$,$,$,(#28),#3);
#525=IFCCARTESIANPOINT((0.,0.,0.));
#526=IFCAXIS2PLACEMENT3D(#525,$,$);
#527=IFCLOCALPLACEMENT($,#526);
#528=IFCCARTESIANPOINT((3.4500000000000002,0.,0.));
#529=IFCAXIS2PLACEMENT3D(#528,$,$);
#530=IFCLOCALPLACEMENT($,#529);
#531=IFCCARTESIANPOINT((6.9000000000000004,0.,0.));
#532=IFCAXIS2PLACEMENT3D(#531,$,$);
#533=IFCLOCALPLACEMENT($,#532);
#534=IFCCARTESIANPOINT((10.35,0.,0.));
#535=IFCAXIS2PLACEMENT3D(#534,$,$);
#536=IFCLOCALPLACEMENT($,#535);
#537=IFCCARTESIANPOINT((0.,3.4500000000000002,0.));
#538=IFCAXIS2PLACEMENT3D(#537,$,$);
#539=IFCLOCALPLACEMENT($,#538);
ENDSEC;
END-ISO-10303-21;
