ISO-10303-21;
HEADER;
FILE_DESCRIPTION(('ViewDefinition [CoordinationView]'),'2;1');
FILE_NAME('LM3-HV-SA510.ifc','2026-08-30T00:00:00+00:00',('OpenSourceRail'),('OpenSourceRail'),'IfcOpenShell 0.8.5','OpenSourceRail deterministic LM3 product-library exporter','design-reference / not for construction');
FILE_SCHEMA(('IFC4X3_ADD2'));
ENDSEC;
DATA;
#1=IFCPROJECT('0LnY9IeT9Qfuc1eeHP10Y2',$,'LM3-HV-SA510 \X2\2014\X0\ per-car LFP battery, two controllers, DC auxiliary/charge interface, mist, and cooling assembly','Design-reference geometry and assembly hierarchy only; supplier freeze, released drawings/tolerances, calculations, qualified processes and first-article tests remain mandatory.',$,$,$,(#12),#7);
#2=IFCSITE('12gNn_NaPVqBjFn93JMqMD',$,'LM3 product library',$,$,#18,$,$,.ELEMENT.,$,$,$,$,$);
#3=IFCBUILDING('0cap9fFjrG2enizm5mzXJO',$,'LM3 assembly inspection fixture',$,$,#21,$,$,.ELEMENT.,$,$,$);
#4=IFCSIUNIT(*,.LENGTHUNIT.,$,.METRE.);
#5=IFCSIUNIT(*,.AREAUNIT.,$,.SQUARE_METRE.);
#6=IFCSIUNIT(*,.VOLUMEUNIT.,$,.CUBIC_METRE.);
#7=IFCUNITASSIGNMENT((#6,#4,#5));
#8=IFCCARTESIANPOINT((0.,0.,0.));
#9=IFCDIRECTION((0.,0.,1.));
#10=IFCDIRECTION((1.,0.,0.));
#11=IFCAXIS2PLACEMENT3D(#8,#9,#10);
#12=IFCGEOMETRICREPRESENTATIONCONTEXT($,'Model',3,1.0000000000000001E-05,#11,$);
#13=IFCGEOMETRICREPRESENTATIONSUBCONTEXT('Body','Model',*,*,*,*,#12,$,.MODEL_VIEW.,$);
#14=IFCRELAGGREGATES('3$9qOFkUDL88ZimCQcZc6s',$,$,$,#1,(#2));
#15=IFCRELAGGREGATES('2V9a4v6vvQph$sZcRFK3xn',$,$,$,#2,(#3));
#16=IFCCARTESIANPOINT((0.,0.,0.));
#17=IFCAXIS2PLACEMENT3D(#16,$,$);
#18=IFCLOCALPLACEMENT($,#17);
#19=IFCCARTESIANPOINT((0.,0.,0.));
#20=IFCAXIS2PLACEMENT3D(#19,$,$);
#21=IFCLOCALPLACEMENT($,#20);
#22=IFCPROPERTYSINGLEVALUE('Status',$,IFCTEXT('design-reference-not-released'),$);
#23=IFCPROPERTYSINGLEVALUE('ReleaseBoundary',$,IFCTEXT('Design-reference geometry and assembly hierarchy only; supplier freeze, released drawings/tolerances, calculations, qualified processes and first-article tests remain mandatory.'),$);
#24=IFCPROPERTYSINGLEVALUE('Manifest',$,IFCTEXT('design/component-catalogue/catalog/buildable-trainset/buildable-trainset-manifest.json'),$);
#25=IFCPROPERTYSINGLEVALUE('ManifestSha256',$,IFCTEXT('7654747909805305ce2018109b5b649c4817a8f8c44a3ec8f2e8a6f74d48243e'),$);
#26=IFCPROPERTYSET('28ej7ChjbOYOHs8Hmi4HPB',$,'OSR_ProductLibrary',$,(#22,#23,#24,#25));
#27=IFCRELDEFINESBYPROPERTIES('2x28Ii03PVL8DzsJG8BJ5w',$,$,$,(#1),#26);
#28=IFCELEMENTASSEMBLY('2sKf26Y5bHvAw7aE7Axo_r',$,'per-car LFP battery, two controllers, DC auxiliary/charge interface, mist, and cooling assembly','HVIL test | insulation resistance | coolant pressure test | first energisation release',$,$,$,'LM3-HV-SA510',$,$);
#29=IFCPROPERTYSINGLEVALUE('OSRId',$,IFCTEXT('LM3-HV-SA510'),$);
#30=IFCPROPERTYSINGLEVALUE('Layer',$,IFCTEXT('subassembly'),$);
#31=IFCPROPERTYSINGLEVALUE('BuildCell',$,IFCTEXT('final assembly and commissioning cell'),$);
#32=IFCPROPERTYSINGLEVALUE('QuantityPerTrainset',$,IFCINTEGER(3),$);
#33=IFCPROPERTYSINGLEVALUE('GeometryStatus',$,IFCTEXT('complete-hierarchy-inspection-layout'),$);
#34=IFCPROPERTYSET('04ulKwrwnJxQjXHmZvFXr5',$,'OSR_AssemblyDefinition',$,(#29,#30,#31,#32,#33));
#35=IFCRELDEFINESBYPROPERTIES('1yV30yXOTHjxNilQOMeETw',$,$,$,(#28),#34);
#36=IFCBUILDINGELEMENTPROXY('2alQAFHRzQj9rc1PK89TmM',$,'battery tray rails, vent plenum, and service-lid gutter kit','Under-seat cassette structure with drainage, fire vent, and service access.',$,#352,#67,'LM3-BDY-P050',$);
#37=IFCPROPERTYSINGLEVALUE('OSRId',$,IFCTEXT('LM3-BDY-P050'),$);
#38=IFCPROPERTYSINGLEVALUE('Parent',$,IFCTEXT('LM3-HV-SA510'),$);
#39=IFCPROPERTYSINGLEVALUE('Route',$,IFCTEXT('MAKE'),$);
#40=IFCPROPERTYSINGLEVALUE('Maturity',$,IFCTEXT('release-candidate'),$);
#41=IFCPROPERTYSINGLEVALUE('QuantityPerTrainset',$,IFCINTEGER(3),$);
#42=IFCPROPERTYSINGLEVALUE('Unit',$,IFCTEXT('kit'),$);
#43=IFCPROPERTYSINGLEVALUE('GeometryStatus',$,IFCTEXT('design-reference-not-released'),$);
#44=IFCPROPERTYSET('1H29hjE8DMiwZtUSHwUihS',$,'OSR_ProductDefinition',$,(#37,#38,#39,#40,#41,#42,#43));
#45=IFCRELDEFINESBYPROPERTIES('1brnEI3EjIghOAU6K80k7Y',$,$,$,(#36),#44);
#46=IFCCARTESIANPOINTLIST3D(((-3.1000000000000001,-0.189,-0.10920000000000001),(-3.1000000000000001,-0.189,0.10920000000000001),(-3.1000000000000001,0.189,-0.10920000000000001),(-3.1000000000000001,0.189,0.10920000000000001),(3.1000000000000001,-0.189,-0.10920000000000001),(3.1000000000000001,-0.189,0.10920000000000001),(3.1000000000000001,0.189,-0.10920000000000001),(3.1000000000000001,0.189,0.10920000000000001),(-1.488,-0.45000000000000001,-0.083199999999999996),(-1.488,-0.45000000000000001,0.083199999999999996),(-1.488,0.45000000000000001,-0.083199999999999996),(-1.488,0.45000000000000001,0.083199999999999996),(1.488,-0.45000000000000001,-0.083199999999999996),(1.488,-0.45000000000000001,0.083199999999999996),(1.488,0.45000000000000001,-0.083199999999999996),(1.488,0.45000000000000001,0.083199999999999996),(-0.55800000000000005,-0.099000000000000005,-0.26000000000000001),(-0.55800000000000005,-0.099000000000000005,0.26000000000000001),(-0.55800000000000005,0.099000000000000005,-0.26000000000000001),(-0.55800000000000005,0.099000000000000005,0.26000000000000001),(0.55800000000000005,-0.099000000000000005,-0.26000000000000001),(0.55800000000000005,-0.099000000000000005,0.26000000000000001),(0.55800000000000005,0.099000000000000005,-0.26000000000000001),(0.55800000000000005,0.099000000000000005,0.26000000000000001)),$);
#47=IFCINDEXEDPOLYGONALFACE((1,2,4,3));
#48=IFCINDEXEDPOLYGONALFACE((5,7,8,6));
#49=IFCINDEXEDPOLYGONALFACE((1,5,6,2));
#50=IFCINDEXEDPOLYGONALFACE((3,4,8,7));
#51=IFCINDEXEDPOLYGONALFACE((1,3,7,5));
#52=IFCINDEXEDPOLYGONALFACE((2,6,8,4));
#53=IFCINDEXEDPOLYGONALFACE((9,10,12,11));
#54=IFCINDEXEDPOLYGONALFACE((13,15,16,14));
#55=IFCINDEXEDPOLYGONALFACE((9,13,14,10));
#56=IFCINDEXEDPOLYGONALFACE((11,12,16,15));
#57=IFCINDEXEDPOLYGONALFACE((9,11,15,13));
#58=IFCINDEXEDPOLYGONALFACE((10,14,16,12));
#59=IFCINDEXEDPOLYGONALFACE((17,18,20,19));
#60=IFCINDEXEDPOLYGONALFACE((21,23,24,22));
#61=IFCINDEXEDPOLYGONALFACE((17,21,22,18));
#62=IFCINDEXEDPOLYGONALFACE((19,20,24,23));
#63=IFCINDEXEDPOLYGONALFACE((17,19,23,21));
#64=IFCINDEXEDPOLYGONALFACE((18,22,24,20));
#65=IFCPOLYGONALFACESET(#46,$,(#47,#48,#49,#50,#51,#52,#53,#54,#55,#56,#57,#58,#59,#60,#61,#62,#63,#64),$);
#66=IFCSHAPEREPRESENTATION(#13,'Body','Tessellation',(#65));
#67=IFCPRODUCTDEFINITIONSHAPE($,$,(#66));
#68=IFCBUILDINGELEMENTPROXY('1qLLjPAL5HDRUpqUj_WSG1',$,'battery sliding trays, retention straps, service interlocks, and drain pans','Local mechanical retention and service hardware for the supplier battery modules.',$,#355,#99,'LM3-HV-P010',$);
#69=IFCPROPERTYSINGLEVALUE('OSRId',$,IFCTEXT('LM3-HV-P010'),$);
#70=IFCPROPERTYSINGLEVALUE('Parent',$,IFCTEXT('LM3-HV-SA510'),$);
#71=IFCPROPERTYSINGLEVALUE('Route',$,IFCTEXT('MAKE'),$);
#72=IFCPROPERTYSINGLEVALUE('Maturity',$,IFCTEXT('release-candidate'),$);
#73=IFCPROPERTYSINGLEVALUE('QuantityPerTrainset',$,IFCINTEGER(3),$);
#74=IFCPROPERTYSINGLEVALUE('Unit',$,IFCTEXT('car kit'),$);
#75=IFCPROPERTYSINGLEVALUE('GeometryStatus',$,IFCTEXT('design-reference-not-released'),$);
#76=IFCPROPERTYSET('3wa$fqzvvQUA3cr$5h0J8$',$,'OSR_ProductDefinition',$,(#69,#70,#71,#72,#73,#74,#75));
#77=IFCRELDEFINESBYPROPERTIES('0WFIOmgCTMjRA2UO03vqYA',$,$,$,(#68),#76);
#78=IFCCARTESIANPOINTLIST3D(((-2.7000000000000002,-0.189,-0.06720000000000001),(-2.7000000000000002,-0.189,0.06720000000000001),(-2.7000000000000002,0.189,-0.06720000000000001),(-2.7000000000000002,0.189,0.06720000000000001),(2.7000000000000002,-0.189,-0.06720000000000001),(2.7000000000000002,-0.189,0.06720000000000001),(2.7000000000000002,0.189,-0.06720000000000001),(2.7000000000000002,0.189,0.06720000000000001),(-1.296,-0.45000000000000001,-0.051200000000000002),(-1.296,-0.45000000000000001,0.051200000000000002),(-1.296,0.45000000000000001,-0.051200000000000002),(-1.296,0.45000000000000001,0.051200000000000002),(1.296,-0.45000000000000001,-0.051200000000000002),(1.296,-0.45000000000000001,0.051200000000000002),(1.296,0.45000000000000001,-0.051200000000000002),(1.296,0.45000000000000001,0.051200000000000002),(-0.48599999999999999,-0.099000000000000005,-0.16),(-0.48599999999999999,-0.099000000000000005,0.16),(-0.48599999999999999,0.099000000000000005,-0.16),(-0.48599999999999999,0.099000000000000005,0.16),(0.48599999999999999,-0.099000000000000005,-0.16),(0.48599999999999999,-0.099000000000000005,0.16),(0.48599999999999999,0.099000000000000005,-0.16),(0.48599999999999999,0.099000000000000005,0.16)),$);
#79=IFCINDEXEDPOLYGONALFACE((1,2,4,3));
#80=IFCINDEXEDPOLYGONALFACE((5,7,8,6));
#81=IFCINDEXEDPOLYGONALFACE((1,5,6,2));
#82=IFCINDEXEDPOLYGONALFACE((3,4,8,7));
#83=IFCINDEXEDPOLYGONALFACE((1,3,7,5));
#84=IFCINDEXEDPOLYGONALFACE((2,6,8,4));
#85=IFCINDEXEDPOLYGONALFACE((9,10,12,11));
#86=IFCINDEXEDPOLYGONALFACE((13,15,16,14));
#87=IFCINDEXEDPOLYGONALFACE((9,13,14,10));
#88=IFCINDEXEDPOLYGONALFACE((11,12,16,15));
#89=IFCINDEXEDPOLYGONALFACE((9,11,15,13));
#90=IFCINDEXEDPOLYGONALFACE((10,14,16,12));
#91=IFCINDEXEDPOLYGONALFACE((17,18,20,19));
#92=IFCINDEXEDPOLYGONALFACE((21,23,24,22));
#93=IFCINDEXEDPOLYGONALFACE((17,21,22,18));
#94=IFCINDEXEDPOLYGONALFACE((19,20,24,23));
#95=IFCINDEXEDPOLYGONALFACE((17,19,23,21));
#96=IFCINDEXEDPOLYGONALFACE((18,22,24,20));
#97=IFCPOLYGONALFACESET(#78,$,(#79,#80,#81,#82,#83,#84,#85,#86,#87,#88,#89,#90,#91,#92,#93,#94,#95,#96),$);
#98=IFCSHAPEREPRESENTATION(#13,'Body','Tessellation',(#97));
#99=IFCPRODUCTDEFINITIONSHAPE($,$,(#98));
#100=IFCBUILDINGELEMENTPROXY('1dGlAmc6rI1O_Pa64UQ4yZ',$,'segregated HV cable tray, bonding studs, grommets, and orange cover set','Maintains HV/LV segregation from battery, inverter, roof PV, and side-pin charger interfaces.',$,#358,#143,'LM3-HV-P020',$);
#101=IFCPROPERTYSINGLEVALUE('OSRId',$,IFCTEXT('LM3-HV-P020'),$);
#102=IFCPROPERTYSINGLEVALUE('Parent',$,IFCTEXT('LM3-HV-SA510'),$);
#103=IFCPROPERTYSINGLEVALUE('Route',$,IFCTEXT('MAKE'),$);
#104=IFCPROPERTYSINGLEVALUE('Maturity',$,IFCTEXT('release-candidate'),$);
#105=IFCPROPERTYSINGLEVALUE('QuantityPerTrainset',$,IFCINTEGER(3),$);
#106=IFCPROPERTYSINGLEVALUE('Unit',$,IFCTEXT('car kit'),$);
#107=IFCPROPERTYSINGLEVALUE('GeometryStatus',$,IFCTEXT('design-reference-not-released'),$);
#108=IFCPROPERTYSET('1TW3wsD7PKV8Un0pDpVF0V',$,'OSR_ProductDefinition',$,(#101,#102,#103,#104,#105,#106,#107));
#109=IFCRELDEFINESBYPROPERTIES('0u2N0bumzLh81Y2QZ2Qizf',$,$,$,(#100),#108);
#110=IFCCARTESIANPOINTLIST3D(((-7.,-0.15540000000000001,-0.021599999999999998),(-7.,-0.15540000000000001,0.021599999999999998),(-7.,-0.1134,-0.021599999999999998),(-7.,-0.1134,0.021599999999999998),(7.,-0.15540000000000001,-0.021599999999999998),(7.,-0.15540000000000001,0.021599999999999998),(7.,-0.1134,-0.021599999999999998),(7.,-0.1134,0.021599999999999998),(-7.,0.1134,-0.021599999999999998),(-7.,0.1134,0.021599999999999998),(-7.,0.15540000000000001,-0.021599999999999998),(-7.,0.15540000000000001,0.021599999999999998),(7.,0.1134,-0.021599999999999998),(7.,0.1134,0.021599999999999998),(7.,0.15540000000000001,-0.021599999999999998),(7.,0.15540000000000001,0.021599999999999998),(-5.0750000000000002,-0.16800000000000001,-0.027),(-5.0750000000000002,-0.16800000000000001,0.027),(-5.0750000000000002,0.16800000000000001,-0.027),(-5.0750000000000002,0.16800000000000001,0.027),(-4.7249999999999996,-0.16800000000000001,-0.027),(-4.7249999999999996,-0.16800000000000001,0.027),(-4.7249999999999996,0.16800000000000001,-0.027),(-4.7249999999999996,0.16800000000000001,0.027),(-0.17499999999999999,-0.16800000000000001,-0.027),(-0.17499999999999999,-0.16800000000000001,0.027),(-0.17499999999999999,0.16800000000000001,-0.027),(-0.17499999999999999,0.16800000000000001,0.027),(0.17499999999999999,-0.16800000000000001,-0.027),(0.17499999999999999,-0.16800000000000001,0.027),(0.17499999999999999,0.16800000000000001,-0.027),(0.17499999999999999,0.16800000000000001,0.027),(4.7249999999999996,-0.16800000000000001,-0.027),(4.7249999999999996,-0.16800000000000001,0.027),(4.7249999999999996,0.16800000000000001,-0.027),(4.7249999999999996,0.16800000000000001,0.027),(5.0750000000000002,-0.16800000000000001,-0.027),(5.0750000000000002,-0.16800000000000001,0.027),(5.0750000000000002,0.16800000000000001,-0.027),(5.0750000000000002,0.16800000000000001,0.027)),$);
#111=IFCINDEXEDPOLYGONALFACE((1,2,4,3));
#112=IFCINDEXEDPOLYGONALFACE((5,7,8,6));
#113=IFCINDEXEDPOLYGONALFACE((1,5,6,2));
#114=IFCINDEXEDPOLYGONALFACE((3,4,8,7));
#115=IFCINDEXEDPOLYGONALFACE((1,3,7,5));
#116=IFCINDEXEDPOLYGONALFACE((2,6,8,4));
#117=IFCINDEXEDPOLYGONALFACE((9,10,12,11));
#118=IFCINDEXEDPOLYGONALFACE((13,15,16,14));
#119=IFCINDEXEDPOLYGONALFACE((9,13,14,10));
#120=IFCINDEXEDPOLYGONALFACE((11,12,16,15));
#121=IFCINDEXEDPOLYGONALFACE((9,11,15,13));
#122=IFCINDEXEDPOLYGONALFACE((10,14,16,12));
#123=IFCINDEXEDPOLYGONALFACE((17,18,20,19));
#124=IFCINDEXEDPOLYGONALFACE((21,23,24,22));
#125=IFCINDEXEDPOLYGONALFACE((17,21,22,18));
#126=IFCINDEXEDPOLYGONALFACE((19,20,24,23));
#127=IFCINDEXEDPOLYGONALFACE((17,19,23,21));
#128=IFCINDEXEDPOLYGONALFACE((18,22,24,20));
#129=IFCINDEXEDPOLYGONALFACE((25,26,28,27));
#130=IFCINDEXEDPOLYGONALFACE((29,31,32,30));
#131=IFCINDEXEDPOLYGONALFACE((25,29,30,26));
#132=IFCINDEXEDPOLYGONALFACE((27,28,32,31));
#133=IFCINDEXEDPOLYGONALFACE((25,27,31,29));
#134=IFCINDEXEDPOLYGONALFACE((26,30,32,28));
#135=IFCINDEXEDPOLYGONALFACE((33,34,36,35));
#136=IFCINDEXEDPOLYGONALFACE((37,39,40,38));
#137=IFCINDEXEDPOLYGONALFACE((33,37,38,34));
#138=IFCINDEXEDPOLYGONALFACE((35,36,40,39));
#139=IFCINDEXEDPOLYGONALFACE((33,35,39,37));
#140=IFCINDEXEDPOLYGONALFACE((34,38,40,36));
#141=IFCPOLYGONALFACESET(#110,$,(#111,#112,#113,#114,#115,#116,#117,#118,#119,#120,#121,#122,#123,#124,#125,#126,#127,#128,#129,#130,#131,#132,#133,#134,#135,#136,#137,#138,#139,#140),$);
#142=IFCSHAPEREPRESENTATION(#13,'Body','Tessellation',(#141));
#143=IFCPRODUCTDEFINITIONSHAPE($,$,(#142));
#144=IFCBUILDINGELEMENTPROXY('3gvhISL8HGOh0cu38n5T5F',$,'coolant manifold brackets, bleed/drain points, and insulated pipe clamp kit','Fabricated support and maintainability kit for HVAC/battery/inverter thermal loops.',$,#361,#187,'LM3-HV-P030',$);
#145=IFCPROPERTYSINGLEVALUE('OSRId',$,IFCTEXT('LM3-HV-P030'),$);
#146=IFCPROPERTYSINGLEVALUE('Parent',$,IFCTEXT('LM3-HV-SA510'),$);
#147=IFCPROPERTYSINGLEVALUE('Route',$,IFCTEXT('MAKE'),$);
#148=IFCPROPERTYSINGLEVALUE('Maturity',$,IFCTEXT('release-candidate'),$);
#149=IFCPROPERTYSINGLEVALUE('QuantityPerTrainset',$,IFCINTEGER(3),$);
#150=IFCPROPERTYSINGLEVALUE('Unit',$,IFCTEXT('car kit'),$);
#151=IFCPROPERTYSINGLEVALUE('GeometryStatus',$,IFCTEXT('design-reference-not-released'),$);
#152=IFCPROPERTYSET('0YpLnr8iHJTQHJzK04OiK4',$,'OSR_ProductDefinition',$,(#145,#146,#147,#148,#149,#150,#151));
#153=IFCRELDEFINESBYPROPERTIES('37EyZXjXLQSAImrdcotNdf',$,$,$,(#144),#152);
#154=IFCCARTESIANPOINTLIST3D(((-3.25,-0.35149999999999998,-0.031199999999999999),(-3.25,-0.35149999999999998,0.031199999999999999),(-3.25,-0.25650000000000001,-0.031199999999999999),(-3.25,-0.25650000000000001,0.031199999999999999),(3.25,-0.35149999999999998,-0.031199999999999999),(3.25,-0.35149999999999998,0.031199999999999999),(3.25,-0.25650000000000001,-0.031199999999999999),(3.25,-0.25650000000000001,0.031199999999999999),(-3.25,0.25650000000000001,-0.031199999999999999),(-3.25,0.25650000000000001,0.031199999999999999),(-3.25,0.35149999999999998,-0.031199999999999999),(-3.25,0.35149999999999998,0.031199999999999999),(3.25,0.25650000000000001,-0.031199999999999999),(3.25,0.25650000000000001,0.031199999999999999),(3.25,0.35149999999999998,-0.031199999999999999),(3.25,0.35149999999999998,0.031199999999999999),(-2.3562500000000002,-0.38,-0.039),(-2.3562500000000002,-0.38,0.039),(-2.3562500000000002,0.38,-0.039),(-2.3562500000000002,0.38,0.039),(-2.1937500000000001,-0.38,-0.039),(-2.1937500000000001,-0.38,0.039),(-2.1937500000000001,0.38,-0.039),(-2.1937500000000001,0.38,0.039),(-0.081250000000000003,-0.38,-0.039),(-0.081250000000000003,-0.38,0.039),(-0.081250000000000003,0.38,-0.039),(-0.081250000000000003,0.38,0.039),(0.081250000000000003,-0.38,-0.039),(0.081250000000000003,-0.38,0.039),(0.081250000000000003,0.38,-0.039),(0.081250000000000003,0.38,0.039),(2.1937500000000001,-0.38,-0.039),(2.1937500000000001,-0.38,0.039),(2.1937500000000001,0.38,-0.039),(2.1937500000000001,0.38,0.039),(2.3562500000000002,-0.38,-0.039),(2.3562500000000002,-0.38,0.039),(2.3562500000000002,0.38,-0.039),(2.3562500000000002,0.38,0.039)),$);
#155=IFCINDEXEDPOLYGONALFACE((1,2,4,3));
#156=IFCINDEXEDPOLYGONALFACE((5,7,8,6));
#157=IFCINDEXEDPOLYGONALFACE((1,5,6,2));
#158=IFCINDEXEDPOLYGONALFACE((3,4,8,7));
#159=IFCINDEXEDPOLYGONALFACE((1,3,7,5));
#160=IFCINDEXEDPOLYGONALFACE((2,6,8,4));
#161=IFCINDEXEDPOLYGONALFACE((9,10,12,11));
#162=IFCINDEXEDPOLYGONALFACE((13,15,16,14));
#163=IFCINDEXEDPOLYGONALFACE((9,13,14,10));
#164=IFCINDEXEDPOLYGONALFACE((11,12,16,15));
#165=IFCINDEXEDPOLYGONALFACE((9,11,15,13));
#166=IFCINDEXEDPOLYGONALFACE((10,14,16,12));
#167=IFCINDEXEDPOLYGONALFACE((17,18,20,19));
#168=IFCINDEXEDPOLYGONALFACE((21,23,24,22));
#169=IFCINDEXEDPOLYGONALFACE((17,21,22,18));
#170=IFCINDEXEDPOLYGONALFACE((19,20,24,23));
#171=IFCINDEXEDPOLYGONALFACE((17,19,23,21));
#172=IFCINDEXEDPOLYGONALFACE((18,22,24,20));
#173=IFCINDEXEDPOLYGONALFACE((25,26,28,27));
#174=IFCINDEXEDPOLYGONALFACE((29,31,32,30));
#175=IFCINDEXEDPOLYGONALFACE((25,29,30,26));
#176=IFCINDEXEDPOLYGONALFACE((27,28,32,31));
#177=IFCINDEXEDPOLYGONALFACE((25,27,31,29));
#178=IFCINDEXEDPOLYGONALFACE((26,30,32,28));
#179=IFCINDEXEDPOLYGONALFACE((33,34,36,35));
#180=IFCINDEXEDPOLYGONALFACE((37,39,40,38));
#181=IFCINDEXEDPOLYGONALFACE((33,37,38,34));
#182=IFCINDEXEDPOLYGONALFACE((35,36,40,39));
#183=IFCINDEXEDPOLYGONALFACE((33,35,39,37));
#184=IFCINDEXEDPOLYGONALFACE((34,38,40,36));
#185=IFCPOLYGONALFACESET(#154,$,(#155,#156,#157,#158,#159,#160,#161,#162,#163,#164,#165,#166,#167,#168,#169,#170,#171,#172,#173,#174,#175,#176,#177,#178,#179,#180,#181,#182,#183,#184),$);
#186=IFCSHAPEREPRESENTATION(#13,'Body','Tessellation',(#185));
#187=IFCPRODUCTDEFINITIONSHAPE($,$,(#186));
#188=IFCBUILDINGELEMENTPROXY('3C8W2RqcDL2OiALHCnTQsm',$,'two independent motor controllers, isolated LV DC/DC, MPPT, station protection, and cooling-loop kit','Per-car 800 V-class traction, auxiliary, PV, and station-interface electronics; no central AC bus.',$,#364,#219,'LM3-TRC-P030',$);
#189=IFCPROPERTYSINGLEVALUE('OSRId',$,IFCTEXT('LM3-TRC-P030'),$);
#190=IFCPROPERTYSINGLEVALUE('Parent',$,IFCTEXT('LM3-HV-SA510'),$);
#191=IFCPROPERTYSINGLEVALUE('Route',$,IFCTEXT('BID'),$);
#192=IFCPROPERTYSINGLEVALUE('Maturity',$,IFCTEXT('buildable-after-supplier-freeze'),$);
#193=IFCPROPERTYSINGLEVALUE('QuantityPerTrainset',$,IFCINTEGER(3),$);
#194=IFCPROPERTYSINGLEVALUE('Unit',$,IFCTEXT('car kit'),$);
#195=IFCPROPERTYSINGLEVALUE('GeometryStatus',$,IFCTEXT('design-reference-not-released'),$);
#196=IFCPROPERTYSET('2YgaxuohrPNuvVPnZcm8pV',$,'OSR_ProductDefinition',$,(#189,#190,#191,#192,#193,#194,#195));
#197=IFCRELDEFINESBYPROPERTIES('2EVlPw2$zMCADepq5TcU00',$,$,$,(#188),#196);
#198=IFCCARTESIANPOINTLIST3D(((-1.1000000000000001,-0.59999999999999998,-0.25419999999999998),(-1.1000000000000001,-0.59999999999999998,0.25419999999999998),(-1.1000000000000001,0.59999999999999998,-0.25419999999999998),(-1.1000000000000001,0.59999999999999998,0.25419999999999998),(1.1000000000000001,-0.59999999999999998,-0.25419999999999998),(1.1000000000000001,-0.59999999999999998,0.25419999999999998),(1.1000000000000001,0.59999999999999998,-0.25419999999999998),(1.1000000000000001,0.59999999999999998,0.25419999999999998),(-0.90200000000000002,-0.59999999999999998,-0.29759999999999998),(-0.90200000000000002,-0.59999999999999998,-0.22319999999999998),(-0.90200000000000002,-0.45600000000000002,-0.29759999999999998),(-0.90200000000000002,-0.45600000000000002,-0.22319999999999998),(0.90200000000000002,-0.59999999999999998,-0.29759999999999998),(0.90200000000000002,-0.59999999999999998,-0.22319999999999998),(0.90200000000000002,-0.45600000000000002,-0.29759999999999998),(0.90200000000000002,-0.45600000000000002,-0.22319999999999998),(0.39600000000000002,0.39600000000000002,-0.049599999999999998),(0.39600000000000002,0.39600000000000002,0.049599999999999998),(0.39600000000000002,0.56399999999999995,-0.049599999999999998),(0.39600000000000002,0.56399999999999995,0.049599999999999998),(0.92400000000000004,0.39600000000000002,-0.049599999999999998),(0.92400000000000004,0.39600000000000002,0.049599999999999998),(0.92400000000000004,0.56399999999999995,-0.049599999999999998),(0.92400000000000004,0.56399999999999995,0.049599999999999998)),$);
#199=IFCINDEXEDPOLYGONALFACE((1,2,4,3));
#200=IFCINDEXEDPOLYGONALFACE((5,7,8,6));
#201=IFCINDEXEDPOLYGONALFACE((1,5,6,2));
#202=IFCINDEXEDPOLYGONALFACE((3,4,8,7));
#203=IFCINDEXEDPOLYGONALFACE((1,3,7,5));
#204=IFCINDEXEDPOLYGONALFACE((2,6,8,4));
#205=IFCINDEXEDPOLYGONALFACE((9,10,12,11));
#206=IFCINDEXEDPOLYGONALFACE((13,15,16,14));
#207=IFCINDEXEDPOLYGONALFACE((9,13,14,10));
#208=IFCINDEXEDPOLYGONALFACE((11,12,16,15));
#209=IFCINDEXEDPOLYGONALFACE((9,11,15,13));
#210=IFCINDEXEDPOLYGONALFACE((10,14,16,12));
#211=IFCINDEXEDPOLYGONALFACE((17,18,20,19));
#212=IFCINDEXEDPOLYGONALFACE((21,23,24,22));
#213=IFCINDEXEDPOLYGONALFACE((17,21,22,18));
#214=IFCINDEXEDPOLYGONALFACE((19,20,24,23));
#215=IFCINDEXEDPOLYGONALFACE((17,19,23,21));
#216=IFCINDEXEDPOLYGONALFACE((18,22,24,20));
#217=IFCPOLYGONALFACESET(#198,$,(#199,#200,#201,#202,#203,#204,#205,#206,#207,#208,#209,#210,#211,#212,#213,#214,#215,#216),$);
#218=IFCSHAPEREPRESENTATION(#13,'Body','Tessellation',(#217));
#219=IFCPRODUCTDEFINITIONSHAPE($,$,(#218));
#220=IFCBUILDINGELEMENTPROXY('1erHpY_rnUvgf3rZxoGeC6',$,'battery-225kwh-lfp-800v saloon-isolated side traction battery pack','Optimizer-selected per-car pack; final supplier must fit the externally accessed side tray, cooling, BMS, fire separation, and outward-only vent path.',$,#367,#251,'LM3-TRC-P040',$);
#221=IFCPROPERTYSINGLEVALUE('OSRId',$,IFCTEXT('LM3-TRC-P040'),$);
#222=IFCPROPERTYSINGLEVALUE('Parent',$,IFCTEXT('LM3-HV-SA510'),$);
#223=IFCPROPERTYSINGLEVALUE('Route',$,IFCTEXT('BID'),$);
#224=IFCPROPERTYSINGLEVALUE('Maturity',$,IFCTEXT('buildable-after-supplier-freeze'),$);
#225=IFCPROPERTYSINGLEVALUE('QuantityPerTrainset',$,IFCINTEGER(3),$);
#226=IFCPROPERTYSINGLEVALUE('Unit',$,IFCTEXT('ea'),$);
#227=IFCPROPERTYSINGLEVALUE('GeometryStatus',$,IFCTEXT('design-reference-not-released'),$);
#228=IFCPROPERTYSET('0Txlu2eOfNluLMeqb_C$ph',$,'OSR_ProductDefinition',$,(#221,#222,#223,#224,#225,#226,#227));
#229=IFCRELDEFINESBYPROPERTIES('35K8vLpT5RhfymbdDwHywD',$,$,$,(#220),#228);
#230=IFCCARTESIANPOINTLIST3D(((-2.6000000000000001,-0.39000000000000001,-0.29519999999999996),(-2.6000000000000001,-0.39000000000000001,0.29519999999999996),(-2.6000000000000001,0.39000000000000001,-0.29519999999999996),(-2.6000000000000001,0.39000000000000001,0.29519999999999996),(2.6000000000000001,-0.39000000000000001,-0.29519999999999996),(2.6000000000000001,-0.39000000000000001,0.29519999999999996),(2.6000000000000001,0.39000000000000001,-0.29519999999999996),(2.6000000000000001,0.39000000000000001,0.29519999999999996),(-2.1320000000000001,-0.39000000000000001,-0.34559999999999996),(-2.1320000000000001,-0.39000000000000001,-0.25919999999999999),(-2.1320000000000001,-0.2964,-0.34559999999999996),(-2.1320000000000001,-0.2964,-0.25919999999999999),(2.1320000000000001,-0.39000000000000001,-0.34559999999999996),(2.1320000000000001,-0.39000000000000001,-0.25919999999999999),(2.1320000000000001,-0.2964,-0.34559999999999996),(2.1320000000000001,-0.2964,-0.25919999999999999),(0.93600000000000005,0.25739999999999996,-0.057599999999999998),(0.93600000000000005,0.25739999999999996,0.057599999999999998),(0.93600000000000005,0.36660000000000004,-0.057599999999999998),(0.93600000000000005,0.36660000000000004,0.057599999999999998),(2.1840000000000002,0.25739999999999996,-0.057599999999999998),(2.1840000000000002,0.25739999999999996,0.057599999999999998),(2.1840000000000002,0.36660000000000004,-0.057599999999999998),(2.1840000000000002,0.36660000000000004,0.057599999999999998)),$);
#231=IFCINDEXEDPOLYGONALFACE((1,2,4,3));
#232=IFCINDEXEDPOLYGONALFACE((5,7,8,6));
#233=IFCINDEXEDPOLYGONALFACE((1,5,6,2));
#234=IFCINDEXEDPOLYGONALFACE((3,4,8,7));
#235=IFCINDEXEDPOLYGONALFACE((1,3,7,5));
#236=IFCINDEXEDPOLYGONALFACE((2,6,8,4));
#237=IFCINDEXEDPOLYGONALFACE((9,10,12,11));
#238=IFCINDEXEDPOLYGONALFACE((13,15,16,14));
#239=IFCINDEXEDPOLYGONALFACE((9,13,14,10));
#240=IFCINDEXEDPOLYGONALFACE((11,12,16,15));
#241=IFCINDEXEDPOLYGONALFACE((9,11,15,13));
#242=IFCINDEXEDPOLYGONALFACE((10,14,16,12));
#243=IFCINDEXEDPOLYGONALFACE((17,18,20,19));
#244=IFCINDEXEDPOLYGONALFACE((21,23,24,22));
#245=IFCINDEXEDPOLYGONALFACE((17,21,22,18));
#246=IFCINDEXEDPOLYGONALFACE((19,20,24,23));
#247=IFCINDEXEDPOLYGONALFACE((17,19,23,21));
#248=IFCINDEXEDPOLYGONALFACE((18,22,24,20));
#249=IFCPOLYGONALFACESET(#230,$,(#231,#232,#233,#234,#235,#236,#237,#238,#239,#240,#241,#242,#243,#244,#245,#246,#247,#248),$);
#250=IFCSHAPEREPRESENTATION(#13,'Body','Tessellation',(#249));
#251=IFCPRODUCTDEFINITIONSHAPE($,$,(#250));
#252=IFCBUILDINGELEMENTPROXY('1aV3Z_Bb1Jvh6lnzfZrzUq',$,'station side-pin charging connector, actuator, shutter, and alignment target','Conductive station charging interface with mechanical guide datum and safety interlocks.',$,#370,#283,'LM3-TRC-P060',$);
#253=IFCPROPERTYSINGLEVALUE('OSRId',$,IFCTEXT('LM3-TRC-P060'),$);
#254=IFCPROPERTYSINGLEVALUE('Parent',$,IFCTEXT('LM3-HV-SA510'),$);
#255=IFCPROPERTYSINGLEVALUE('Route',$,IFCTEXT('BID'),$);
#256=IFCPROPERTYSINGLEVALUE('Maturity',$,IFCTEXT('buildable-after-supplier-freeze'),$);
#257=IFCPROPERTYSINGLEVALUE('QuantityPerTrainset',$,IFCINTEGER(3),$);
#258=IFCPROPERTYSINGLEVALUE('Unit',$,IFCTEXT('car kit'),$);
#259=IFCPROPERTYSINGLEVALUE('GeometryStatus',$,IFCTEXT('design-reference-not-released'),$);
#260=IFCPROPERTYSET('1wLwm5YiXOTB3R$TKjyjHR',$,'OSR_ProductDefinition',$,(#253,#254,#255,#256,#257,#258,#259));
#261=IFCRELDEFINESBYPROPERTIES('03jGDw2H5GMvL2mn8vU31l',$,$,$,(#252),#260);
#262=IFCCARTESIANPOINTLIST3D(((-0.52500000000000002,-0.31,-0.22139999999999999),(-0.52500000000000002,-0.31,0.22139999999999999),(-0.52500000000000002,0.31,-0.22139999999999999),(-0.52500000000000002,0.31,0.22139999999999999),(0.52500000000000002,-0.31,-0.22139999999999999),(0.52500000000000002,-0.31,0.22139999999999999),(0.52500000000000002,0.31,-0.22139999999999999),(0.52500000000000002,0.31,0.22139999999999999),(-0.43049999999999999,-0.31,-0.25919999999999999),(-0.43049999999999999,-0.31,-0.19439999999999999),(-0.43049999999999999,-0.23560000000000003,-0.25919999999999999),(-0.43049999999999999,-0.23560000000000003,-0.19439999999999999),(0.43049999999999999,-0.31,-0.25919999999999999),(0.43049999999999999,-0.31,-0.19439999999999999),(0.43049999999999999,-0.23560000000000003,-0.25919999999999999),(0.43049999999999999,-0.23560000000000003,-0.19439999999999999),(0.189,0.2046,-0.043200000000000002),(0.189,0.2046,0.043200000000000002),(0.189,0.29139999999999999,-0.043200000000000002),(0.189,0.29139999999999999,0.043200000000000002),(0.441,0.2046,-0.043200000000000002),(0.441,0.2046,0.043200000000000002),(0.441,0.29139999999999999,-0.043200000000000002),(0.441,0.29139999999999999,0.043200000000000002)),$);
#263=IFCINDEXEDPOLYGONALFACE((1,2,4,3));
#264=IFCINDEXEDPOLYGONALFACE((5,7,8,6));
#265=IFCINDEXEDPOLYGONALFACE((1,5,6,2));
#266=IFCINDEXEDPOLYGONALFACE((3,4,8,7));
#267=IFCINDEXEDPOLYGONALFACE((1,3,7,5));
#268=IFCINDEXEDPOLYGONALFACE((2,6,8,4));
#269=IFCINDEXEDPOLYGONALFACE((9,10,12,11));
#270=IFCINDEXEDPOLYGONALFACE((13,15,16,14));
#271=IFCINDEXEDPOLYGONALFACE((9,13,14,10));
#272=IFCINDEXEDPOLYGONALFACE((11,12,16,15));
#273=IFCINDEXEDPOLYGONALFACE((9,11,15,13));
#274=IFCINDEXEDPOLYGONALFACE((10,14,16,12));
#275=IFCINDEXEDPOLYGONALFACE((17,18,20,19));
#276=IFCINDEXEDPOLYGONALFACE((21,23,24,22));
#277=IFCINDEXEDPOLYGONALFACE((17,21,22,18));
#278=IFCINDEXEDPOLYGONALFACE((19,20,24,23));
#279=IFCINDEXEDPOLYGONALFACE((17,19,23,21));
#280=IFCINDEXEDPOLYGONALFACE((18,22,24,20));
#281=IFCPOLYGONALFACESET(#262,$,(#263,#264,#265,#266,#267,#268,#269,#270,#271,#272,#273,#274,#275,#276,#277,#278,#279,#280),$);
#282=IFCSHAPEREPRESENTATION(#13,'Body','Tessellation',(#281));
#283=IFCPRODUCTDEFINITIONSHAPE($,$,(#282));
#284=IFCBUILDINGELEMENTPROXY('1UYRS8vVTV$Pdezx$LeM$g',$,'HV contactor, fuse, pre-charge, service-disconnect, and current-sensor panel','Supplier-certified high-voltage protection panel between battery, charger, PV, and inverter.',$,#373,#315,'LM3-TRC-P070',$);
#285=IFCPROPERTYSINGLEVALUE('OSRId',$,IFCTEXT('LM3-TRC-P070'),$);
#286=IFCPROPERTYSINGLEVALUE('Parent',$,IFCTEXT('LM3-HV-SA510'),$);
#287=IFCPROPERTYSINGLEVALUE('Route',$,IFCTEXT('SOURCE'),$);
#288=IFCPROPERTYSINGLEVALUE('Maturity',$,IFCTEXT('buildable-after-supplier-freeze'),$);
#289=IFCPROPERTYSINGLEVALUE('QuantityPerTrainset',$,IFCINTEGER(3),$);
#290=IFCPROPERTYSINGLEVALUE('Unit',$,IFCTEXT('car kit'),$);
#291=IFCPROPERTYSINGLEVALUE('GeometryStatus',$,IFCTEXT('design-reference-not-released'),$);
#292=IFCPROPERTYSET('2iGwewt7PI_g2r$BxjkOc6',$,'OSR_ProductDefinition',$,(#285,#286,#287,#288,#289,#290,#291));
#293=IFCRELDEFINESBYPROPERTIES('0XPZUiC8PIJ92tgn_09Ord',$,$,$,(#284),#292);
#294=IFCCARTESIANPOINTLIST3D(((-0.75,-0.20999999999999999,-0.43049999999999999),(-0.75,-0.20999999999999999,0.43049999999999999),(-0.75,0.20999999999999999,-0.43049999999999999),(-0.75,0.20999999999999999,0.43049999999999999),(0.75,-0.20999999999999999,-0.43049999999999999),(0.75,-0.20999999999999999,0.43049999999999999),(0.75,0.20999999999999999,-0.43049999999999999),(0.75,0.20999999999999999,0.43049999999999999),(-0.61499999999999999,-0.20999999999999999,-0.504),(-0.61499999999999999,-0.20999999999999999,-0.378),(-0.61499999999999999,-0.15960000000000002,-0.504),(-0.61499999999999999,-0.15960000000000002,-0.378),(0.61499999999999999,-0.20999999999999999,-0.504),(0.61499999999999999,-0.20999999999999999,-0.378),(0.61499999999999999,-0.15960000000000002,-0.504),(0.61499999999999999,-0.15960000000000002,-0.378),(0.27000000000000002,0.1386,-0.084000000000000005),(0.27000000000000002,0.1386,0.084000000000000005),(0.27000000000000002,0.19739999999999999,-0.084000000000000005),(0.27000000000000002,0.19739999999999999,0.084000000000000005),(0.63,0.1386,-0.084000000000000005),(0.63,0.1386,0.084000000000000005),(0.63,0.19739999999999999,-0.084000000000000005),(0.63,0.19739999999999999,0.084000000000000005)),$);
#295=IFCINDEXEDPOLYGONALFACE((1,2,4,3));
#296=IFCINDEXEDPOLYGONALFACE((5,7,8,6));
#297=IFCINDEXEDPOLYGONALFACE((1,5,6,2));
#298=IFCINDEXEDPOLYGONALFACE((3,4,8,7));
#299=IFCINDEXEDPOLYGONALFACE((1,3,7,5));
#300=IFCINDEXEDPOLYGONALFACE((2,6,8,4));
#301=IFCINDEXEDPOLYGONALFACE((9,10,12,11));
#302=IFCINDEXEDPOLYGONALFACE((13,15,16,14));
#303=IFCINDEXEDPOLYGONALFACE((9,13,14,10));
#304=IFCINDEXEDPOLYGONALFACE((11,12,16,15));
#305=IFCINDEXEDPOLYGONALFACE((9,11,15,13));
#306=IFCINDEXEDPOLYGONALFACE((10,14,16,12));
#307=IFCINDEXEDPOLYGONALFACE((17,18,20,19));
#308=IFCINDEXEDPOLYGONALFACE((21,23,24,22));
#309=IFCINDEXEDPOLYGONALFACE((17,21,22,18));
#310=IFCINDEXEDPOLYGONALFACE((19,20,24,23));
#311=IFCINDEXEDPOLYGONALFACE((17,19,23,21));
#312=IFCINDEXEDPOLYGONALFACE((18,22,24,20));
#313=IFCPOLYGONALFACESET(#294,$,(#295,#296,#297,#298,#299,#300,#301,#302,#303,#304,#305,#306,#307,#308,#309,#310,#311,#312),$);
#314=IFCSHAPEREPRESENTATION(#13,'Body','Tessellation',(#313));
#315=IFCPRODUCTDEFINITIONSHAPE($,$,(#314));
#316=IFCBUILDINGELEMENTPROXY('0NsFWPdrXOyhDyIl4JKrrn',$,'battery temperature/off-gas detection, electrical-enclosure smoke detection, and localized mist kit','Per-car battery reservoir, DC pump, stainless pipe, nozzles, outward vents, and diagnostic sensors; no saloon or electrical-bay suppression.',$,#376,#347,'LM3-SAF-P010',$);
#317=IFCPROPERTYSINGLEVALUE('OSRId',$,IFCTEXT('LM3-SAF-P010'),$);
#318=IFCPROPERTYSINGLEVALUE('Parent',$,IFCTEXT('LM3-HV-SA510'),$);
#319=IFCPROPERTYSINGLEVALUE('Route',$,IFCTEXT('SOURCE'),$);
#320=IFCPROPERTYSINGLEVALUE('Maturity',$,IFCTEXT('buildable-after-supplier-freeze'),$);
#321=IFCPROPERTYSINGLEVALUE('QuantityPerTrainset',$,IFCINTEGER(3),$);
#322=IFCPROPERTYSINGLEVALUE('Unit',$,IFCTEXT('car kit'),$);
#323=IFCPROPERTYSINGLEVALUE('GeometryStatus',$,IFCTEXT('design-reference-not-released'),$);
#324=IFCPROPERTYSET('3ICXmMWCfLZeYE_4awjoc2',$,'OSR_ProductDefinition',$,(#317,#318,#319,#320,#321,#322,#323));
#325=IFCRELDEFINESBYPROPERTIES('1$hYcXmEfOWBB2yVzUeN1t',$,$,$,(#316),#324);
#326=IFCCARTESIANPOINTLIST3D(((-0.80000000000000004,-0.45000000000000001,-0.2132),(-0.80000000000000004,-0.45000000000000001,0.2132),(-0.80000000000000004,0.45000000000000001,-0.2132),(-0.80000000000000004,0.45000000000000001,0.2132),(0.80000000000000004,-0.45000000000000001,-0.2132),(0.80000000000000004,-0.45000000000000001,0.2132),(0.80000000000000004,0.45000000000000001,-0.2132),(0.80000000000000004,0.45000000000000001,0.2132),(-0.65600000000000003,-0.45000000000000001,-0.24959999999999999),(-0.65600000000000003,-0.45000000000000001,-0.18720000000000001),(-0.65600000000000003,-0.34200000000000003,-0.24959999999999999),(-0.65600000000000003,-0.34200000000000003,-0.18720000000000001),(0.65600000000000003,-0.45000000000000001,-0.24959999999999999),(0.65600000000000003,-0.45000000000000001,-0.18720000000000001),(0.65600000000000003,-0.34200000000000003,-0.24959999999999999),(0.65600000000000003,-0.34200000000000003,-0.18720000000000001),(0.28799999999999998,0.29699999999999999,-0.041599999999999998),(0.28799999999999998,0.29699999999999999,0.041599999999999998),(0.28799999999999998,0.42299999999999999,-0.041599999999999998),(0.28799999999999998,0.42299999999999999,0.041599999999999998),(0.67200000000000004,0.29699999999999999,-0.041599999999999998),(0.67200000000000004,0.29699999999999999,0.041599999999999998),(0.67200000000000004,0.42299999999999999,-0.041599999999999998),(0.67200000000000004,0.42299999999999999,0.041599999999999998)),$);
#327=IFCINDEXEDPOLYGONALFACE((1,2,4,3));
#328=IFCINDEXEDPOLYGONALFACE((5,7,8,6));
#329=IFCINDEXEDPOLYGONALFACE((1,5,6,2));
#330=IFCINDEXEDPOLYGONALFACE((3,4,8,7));
#331=IFCINDEXEDPOLYGONALFACE((1,3,7,5));
#332=IFCINDEXEDPOLYGONALFACE((2,6,8,4));
#333=IFCINDEXEDPOLYGONALFACE((9,10,12,11));
#334=IFCINDEXEDPOLYGONALFACE((13,15,16,14));
#335=IFCINDEXEDPOLYGONALFACE((9,13,14,10));
#336=IFCINDEXEDPOLYGONALFACE((11,12,16,15));
#337=IFCINDEXEDPOLYGONALFACE((9,11,15,13));
#338=IFCINDEXEDPOLYGONALFACE((10,14,16,12));
#339=IFCINDEXEDPOLYGONALFACE((17,18,20,19));
#340=IFCINDEXEDPOLYGONALFACE((21,23,24,22));
#341=IFCINDEXEDPOLYGONALFACE((17,21,22,18));
#342=IFCINDEXEDPOLYGONALFACE((19,20,24,23));
#343=IFCINDEXEDPOLYGONALFACE((17,19,23,21));
#344=IFCINDEXEDPOLYGONALFACE((18,22,24,20));
#345=IFCPOLYGONALFACESET(#326,$,(#327,#328,#329,#330,#331,#332,#333,#334,#335,#336,#337,#338,#339,#340,#341,#342,#343,#344),$);
#346=IFCSHAPEREPRESENTATION(#13,'Body','Tessellation',(#345));
#347=IFCPRODUCTDEFINITIONSHAPE($,$,(#346));
#348=IFCRELAGGREGATES('0xr54qzX5Iuw_zUbuJqBhp',$,$,$,#28,(#36,#68,#100,#144,#316,#188,#220,#252,#284));
#349=IFCRELCONTAINEDINSPATIALSTRUCTURE('2beix3yEDI48HI4gjF4lMf',$,$,$,(#28),#3);
#350=IFCCARTESIANPOINT((0.,0.,0.));
#351=IFCAXIS2PLACEMENT3D(#350,$,$);
#352=IFCLOCALPLACEMENT($,#351);
#353=IFCCARTESIANPOINT((14.800000000000001,0.,0.));
#354=IFCAXIS2PLACEMENT3D(#353,$,$);
#355=IFCLOCALPLACEMENT($,#354);
#356=IFCCARTESIANPOINT((29.600000000000001,0.,0.));
#357=IFCAXIS2PLACEMENT3D(#356,$,$);
#358=IFCLOCALPLACEMENT($,#357);
#359=IFCCARTESIANPOINT((44.399999999999999,0.,0.));
#360=IFCAXIS2PLACEMENT3D(#359,$,$);
#361=IFCLOCALPLACEMENT($,#360);
#362=IFCCARTESIANPOINT((0.,2.,0.));
#363=IFCAXIS2PLACEMENT3D(#362,$,$);
#364=IFCLOCALPLACEMENT($,#363);
#365=IFCCARTESIANPOINT((14.800000000000001,2.,0.));
#366=IFCAXIS2PLACEMENT3D(#365,$,$);
#367=IFCLOCALPLACEMENT($,#366);
#368=IFCCARTESIANPOINT((29.600000000000001,2.,0.));
#369=IFCAXIS2PLACEMENT3D(#368,$,$);
#370=IFCLOCALPLACEMENT($,#369);
#371=IFCCARTESIANPOINT((44.399999999999999,2.,0.));
#372=IFCAXIS2PLACEMENT3D(#371,$,$);
#373=IFCLOCALPLACEMENT($,#372);
#374=IFCCARTESIANPOINT((0.,4.,0.));
#375=IFCAXIS2PLACEMENT3D(#374,$,$);
#376=IFCLOCALPLACEMENT($,#375);
ENDSEC;
END-ISO-10303-21;
