ISO-10303-21;
HEADER;
FILE_DESCRIPTION(('ViewDefinition [CoordinationView]'),'2;1');
FILE_NAME('LM3-EIF-SA650.ifc','2026-08-30T00:00:00+00:00',('OpenSourceRail'),('OpenSourceRail'),'IfcOpenShell 0.8.5','OpenSourceRail deterministic LM3 product-library exporter','design-reference / not for construction');
FILE_SCHEMA(('IFC4X3_ADD2'));
ENDSEC;
DATA;
#1=IFCPROJECT('3FPQl36ZbLrh8nKwY$b3FA',$,'LM3-EIF-SA650 \X2\2014\X0\ common configurable train-end interface set','Design-reference geometry and assembly hierarchy only; supplier freeze, released drawings/tolerances, calculations, qualified processes and first-article tests remain mandatory.',$,$,$,(#12),#7);
#2=IFCSITE('2Me$Q42SzSPgUUKxG$IqPu',$,'LM3 product library',$,$,#18,$,$,.ELEMENT.,$,$,$,$,$);
#3=IFCBUILDING('0vbLCnYZLUMPlzOFa_mSMr',$,'LM3 assembly inspection fixture',$,$,#21,$,$,.ELEMENT.,$,$,$);
#4=IFCSIUNIT(*,.LENGTHUNIT.,$,.METRE.);
#5=IFCSIUNIT(*,.AREAUNIT.,$,.SQUARE_METRE.);
#6=IFCSIUNIT(*,.VOLUMEUNIT.,$,.CUBIC_METRE.);
#7=IFCUNITASSIGNMENT((#6,#4,#5));
#8=IFCCARTESIANPOINT((0.,0.,0.));
#9=IFCDIRECTION((0.,0.,1.));
#10=IFCDIRECTION((1.,0.,0.));
#11=IFCAXIS2PLACEMENT3D(#8,#9,#10);
#12=IFCGEOMETRICREPRESENTATIONCONTEXT($,'Model',3,1.0000000000000001E-05,#11,$);
#13=IFCGEOMETRICREPRESENTATIONSUBCONTEXT('Body','Model',*,*,*,*,#12,$,.MODEL_VIEW.,$);
#14=IFCRELAGGREGATES('2t9n8GkkLSdOfnqEsMJUYP',$,$,$,#1,(#2));
#15=IFCRELAGGREGATES('3FBSKFuW5VXuCTysPHW6d0',$,$,$,#2,(#3));
#16=IFCCARTESIANPOINT((0.,0.,0.));
#17=IFCAXIS2PLACEMENT3D(#16,$,$);
#18=IFCLOCALPLACEMENT($,#17);
#19=IFCCARTESIANPOINT((0.,0.,0.));
#20=IFCAXIS2PLACEMENT3D(#19,$,$);
#21=IFCLOCALPLACEMENT($,#20);
#22=IFCPROPERTYSINGLEVALUE('Status',$,IFCTEXT('design-reference-not-released'),$);
#23=IFCPROPERTYSINGLEVALUE('ReleaseBoundary',$,IFCTEXT('Design-reference geometry and assembly hierarchy only; supplier freeze, released drawings/tolerances, calculations, qualified processes and first-article tests remain mandatory.'),$);
#24=IFCPROPERTYSINGLEVALUE('Manifest',$,IFCTEXT('design/component-catalogue/catalog/buildable-trainset/buildable-trainset-manifest.json'),$);
#25=IFCPROPERTYSINGLEVALUE('ManifestSha256',$,IFCTEXT('7654747909805305ce2018109b5b649c4817a8f8c44a3ec8f2e8a6f74d48243e'),$);
#26=IFCPROPERTYSET('0RCkgeuTbS3hL53_ZqQR$0',$,'OSR_ProductLibrary',$,(#22,#23,#24,#25));
#27=IFCRELDEFINESBYPROPERTIES('1ueA2fnkjJYxYQbz$v96fg',$,$,$,(#1),#26);
#28=IFCELEMENTASSEMBLY('1JTyo_c$XPS8s9m7rMVcfI',$,'common configurable train-end interface set','common bolt-grid survey | selected end-option fit gauge | seal and drain continuity | panoramic-or-open-mid configuration record',$,$,$,'LM3-EIF-SA650',$,$);
#29=IFCPROPERTYSINGLEVALUE('OSRId',$,IFCTEXT('LM3-EIF-SA650'),$);
#30=IFCPROPERTYSINGLEVALUE('Layer',$,IFCTEXT('subassembly'),$);
#31=IFCPROPERTYSINGLEVALUE('BuildCell',$,IFCTEXT('end-interface fixture / final assembly cell'),$);
#32=IFCPROPERTYSINGLEVALUE('QuantityPerTrainset',$,IFCINTEGER(2),$);
#33=IFCPROPERTYSINGLEVALUE('GeometryStatus',$,IFCTEXT('complete-hierarchy-inspection-layout'),$);
#34=IFCPROPERTYSET('2DD$yyl3vMMAGmyyqYav8r',$,'OSR_AssemblyDefinition',$,(#29,#30,#31,#32,#33));
#35=IFCRELDEFINESBYPROPERTIES('21w$HM38HVjhaqB_JMMIKk',$,$,$,(#28),#34);
#36=IFCBUILDINGELEMENTPROXY('30RAprU8fH8P4LQJMMX2kc',$,'common reversible end-interface carrier ring, option bolt grid, and sealing datum kit','Common structural and sealing datum that lets the same train end accept either the panoramic closed nose or the open mid-train connection.',$,#292,#73,'LM3-END-P060',$);
#37=IFCPROPERTYSINGLEVALUE('OSRId',$,IFCTEXT('LM3-END-P060'),$);
#38=IFCPROPERTYSINGLEVALUE('Parent',$,IFCTEXT('LM3-EIF-SA650'),$);
#39=IFCPROPERTYSINGLEVALUE('Route',$,IFCTEXT('MAKE'),$);
#40=IFCPROPERTYSINGLEVALUE('Maturity',$,IFCTEXT('release-candidate'),$);
#41=IFCPROPERTYSINGLEVALUE('QuantityPerTrainset',$,IFCINTEGER(2),$);
#42=IFCPROPERTYSINGLEVALUE('Unit',$,IFCTEXT('end position'),$);
#43=IFCPROPERTYSINGLEVALUE('GeometryStatus',$,IFCTEXT('design-reference-not-released'),$);
#44=IFCPROPERTYSET('3Cht6PDKvQLBhG5mRAGCGs',$,'OSR_ProductDefinition',$,(#37,#38,#39,#40,#41,#42,#43));
#45=IFCRELDEFINESBYPROPERTIES('3aKCExHRHQ1hNNQk89vkfW',$,$,$,(#36),#44);
#46=IFCCARTESIANPOINTLIST3D(((-1.325,-0.14000000000000001,-1.325),(-1.325,-0.14000000000000001,1.325),(-1.325,0.14000000000000001,-1.325),(-1.325,0.14000000000000001,1.325),(-1.1850000000000001,-0.14000000000000001,-1.325),(-1.1850000000000001,-0.14000000000000001,1.325),(-1.1850000000000001,0.14000000000000001,-1.325),(-1.1850000000000001,0.14000000000000001,1.325),(1.1850000000000001,-0.14000000000000001,-1.325),(1.1850000000000001,-0.14000000000000001,1.325),(1.1850000000000001,0.14000000000000001,-1.325),(1.1850000000000001,0.14000000000000001,1.325),(1.325,-0.14000000000000001,-1.325),(1.325,-0.14000000000000001,1.325),(1.325,0.14000000000000001,-1.325),(1.325,0.14000000000000001,1.325),(-1.1850000000000001,-0.14000000000000001,1.1850000000000001),(-1.1850000000000001,-0.14000000000000001,1.325),(-1.1850000000000001,0.14000000000000001,1.1850000000000001),(-1.1850000000000001,0.14000000000000001,1.325),(1.1850000000000001,-0.14000000000000001,1.1850000000000001),(1.1850000000000001,-0.14000000000000001,1.325),(1.1850000000000001,0.14000000000000001,1.1850000000000001),(1.1850000000000001,0.14000000000000001,1.325),(-1.1850000000000001,-0.14000000000000001,-1.325),(-1.1850000000000001,-0.14000000000000001,-1.1850000000000001),(-1.1850000000000001,0.14000000000000001,-1.325),(-1.1850000000000001,0.14000000000000001,-1.1850000000000001),(1.1850000000000001,-0.14000000000000001,-1.325),(1.1850000000000001,-0.14000000000000001,-1.1850000000000001),(1.1850000000000001,0.14000000000000001,-1.325),(1.1850000000000001,0.14000000000000001,-1.1850000000000001)),$);
#47=IFCINDEXEDPOLYGONALFACE((1,2,4,3));
#48=IFCINDEXEDPOLYGONALFACE((5,7,8,6));
#49=IFCINDEXEDPOLYGONALFACE((1,5,6,2));
#50=IFCINDEXEDPOLYGONALFACE((3,4,8,7));
#51=IFCINDEXEDPOLYGONALFACE((1,3,7,5));
#52=IFCINDEXEDPOLYGONALFACE((2,6,8,4));
#53=IFCINDEXEDPOLYGONALFACE((9,10,12,11));
#54=IFCINDEXEDPOLYGONALFACE((13,15,16,14));
#55=IFCINDEXEDPOLYGONALFACE((9,13,14,10));
#56=IFCINDEXEDPOLYGONALFACE((11,12,16,15));
#57=IFCINDEXEDPOLYGONALFACE((9,11,15,13));
#58=IFCINDEXEDPOLYGONALFACE((10,14,16,12));
#59=IFCINDEXEDPOLYGONALFACE((17,18,20,19));
#60=IFCINDEXEDPOLYGONALFACE((21,23,24,22));
#61=IFCINDEXEDPOLYGONALFACE((17,21,22,18));
#62=IFCINDEXEDPOLYGONALFACE((19,20,24,23));
#63=IFCINDEXEDPOLYGONALFACE((17,19,23,21));
#64=IFCINDEXEDPOLYGONALFACE((18,22,24,20));
#65=IFCINDEXEDPOLYGONALFACE((25,26,28,27));
#66=IFCINDEXEDPOLYGONALFACE((29,31,32,30));
#67=IFCINDEXEDPOLYGONALFACE((25,29,30,26));
#68=IFCINDEXEDPOLYGONALFACE((27,28,32,31));
#69=IFCINDEXEDPOLYGONALFACE((25,27,31,29));
#70=IFCINDEXEDPOLYGONALFACE((26,30,32,28));
#71=IFCPOLYGONALFACESET(#46,$,(#47,#48,#49,#50,#51,#52,#53,#54,#55,#56,#57,#58,#59,#60,#61,#62,#63,#64,#65,#66,#67,#68,#69,#70),$);
#72=IFCSHAPEREPRESENTATION(#13,'Body','Tessellation',(#71));
#73=IFCPRODUCTDEFINITIONSHAPE($,$,(#72));
#74=IFCBUILDINGELEMENTPROXY('3bB3$AVzzMuRx7BofL4FxS',$,'panoramic-end option shim, cowl/glass carrier, and sensor datum closeout kit','Default end-option kit that closes the common interface with the panoramic glass cowl, T-OBS sensor datum, coupler access, and weather seals.',$,#295,#105,'LM3-END-P061',$);
#75=IFCPROPERTYSINGLEVALUE('OSRId',$,IFCTEXT('LM3-END-P061'),$);
#76=IFCPROPERTYSINGLEVALUE('Parent',$,IFCTEXT('LM3-EIF-SA650'),$);
#77=IFCPROPERTYSINGLEVALUE('Route',$,IFCTEXT('MAKE'),$);
#78=IFCPROPERTYSINGLEVALUE('Maturity',$,IFCTEXT('release-candidate'),$);
#79=IFCPROPERTYSINGLEVALUE('QuantityPerTrainset',$,IFCINTEGER(2),$);
#80=IFCPROPERTYSINGLEVALUE('Unit',$,IFCTEXT('option kit'),$);
#81=IFCPROPERTYSINGLEVALUE('GeometryStatus',$,IFCTEXT('design-reference-not-released'),$);
#82=IFCPROPERTYSET('0SK_mzeEzIWASooHjKYmhL',$,'OSR_ProductDefinition',$,(#75,#76,#77,#78,#79,#80,#81));
#83=IFCRELDEFINESBYPROPERTIES('1q_vIeUEHI7eDulWU4dc1W',$,$,$,(#74),#82);
#84=IFCCARTESIANPOINTLIST3D(((-0.625,-1.325,-1.272),(-0.625,-1.325,-0.318),(-0.625,1.325,-1.272),(-0.625,1.325,-0.318),(0.625,-1.325,-1.272),(0.625,-1.325,-0.318),(0.625,1.325,-1.272),(0.625,1.325,-0.318),(-0.48749999999999999,-1.2190000000000001,-0.45050000000000007),(-0.48749999999999999,-1.2190000000000001,0.45050000000000007),(-0.48749999999999999,1.2190000000000001,-0.45050000000000007),(-0.48749999999999999,1.2190000000000001,0.45050000000000007),(0.48749999999999999,-1.2190000000000001,-0.45050000000000007),(0.48749999999999999,-1.2190000000000001,0.45050000000000007),(0.48749999999999999,1.2190000000000001,-0.45050000000000007),(0.48749999999999999,1.2190000000000001,0.45050000000000007),(-0.32500000000000001,-1.0335000000000001,0.47699999999999998),(-0.32500000000000001,-1.0335000000000001,1.1659999999999999),(-0.32500000000000001,1.0335000000000001,0.47699999999999998),(-0.32500000000000001,1.0335000000000001,1.1659999999999999),(0.32500000000000001,-1.0335000000000001,0.47699999999999998),(0.32500000000000001,-1.0335000000000001,1.1659999999999999),(0.32500000000000001,1.0335000000000001,0.47699999999999998),(0.32500000000000001,1.0335000000000001,1.1659999999999999)),$);
#85=IFCINDEXEDPOLYGONALFACE((1,2,4,3));
#86=IFCINDEXEDPOLYGONALFACE((5,7,8,6));
#87=IFCINDEXEDPOLYGONALFACE((1,5,6,2));
#88=IFCINDEXEDPOLYGONALFACE((3,4,8,7));
#89=IFCINDEXEDPOLYGONALFACE((1,3,7,5));
#90=IFCINDEXEDPOLYGONALFACE((2,6,8,4));
#91=IFCINDEXEDPOLYGONALFACE((9,10,12,11));
#92=IFCINDEXEDPOLYGONALFACE((13,15,16,14));
#93=IFCINDEXEDPOLYGONALFACE((9,13,14,10));
#94=IFCINDEXEDPOLYGONALFACE((11,12,16,15));
#95=IFCINDEXEDPOLYGONALFACE((9,11,15,13));
#96=IFCINDEXEDPOLYGONALFACE((10,14,16,12));
#97=IFCINDEXEDPOLYGONALFACE((17,18,20,19));
#98=IFCINDEXEDPOLYGONALFACE((21,23,24,22));
#99=IFCINDEXEDPOLYGONALFACE((17,21,22,18));
#100=IFCINDEXEDPOLYGONALFACE((19,20,24,23));
#101=IFCINDEXEDPOLYGONALFACE((17,19,23,21));
#102=IFCINDEXEDPOLYGONALFACE((18,22,24,20));
#103=IFCPOLYGONALFACESET(#84,$,(#85,#86,#87,#88,#89,#90,#91,#92,#93,#94,#95,#96,#97,#98,#99,#100,#101,#102),$);
#104=IFCSHAPEREPRESENTATION(#13,'Body','Tessellation',(#103));
#105=IFCPRODUCTDEFINITIONSHAPE($,$,(#104));
#106=IFCBUILDINGELEMENTPROXY('3wxxZeQBbH6R$W6XrH_Zx4',$,'mid open-connection option portal trim, bellows clamp, threshold bridge, and drain kit','Optional end treatment for marrying two train modules into a walk-through consist; it replaces the panoramic cowl/glass with an open passenger portal and gangway clamp datum.',$,#298,#287,'LM3-END-P062',$);
#107=IFCPROPERTYSINGLEVALUE('OSRId',$,IFCTEXT('LM3-END-P062'),$);
#108=IFCPROPERTYSINGLEVALUE('Parent',$,IFCTEXT('LM3-EIF-SA650'),$);
#109=IFCPROPERTYSINGLEVALUE('Route',$,IFCTEXT('MAKE'),$);
#110=IFCPROPERTYSINGLEVALUE('Maturity',$,IFCTEXT('release-candidate'),$);
#111=IFCPROPERTYSINGLEVALUE('QuantityPerTrainset',$,IFCINTEGER(0),$);
#112=IFCPROPERTYSINGLEVALUE('Unit',$,IFCTEXT('option kit'),$);
#113=IFCPROPERTYSINGLEVALUE('GeometryStatus',$,IFCTEXT('design-reference-not-released'),$);
#114=IFCPROPERTYSET('14bXiwtqPTSwaGiGaDJ$SO',$,'OSR_ProductDefinition',$,(#107,#108,#109,#110,#111,#112,#113));
#115=IFCRELDEFINESBYPROPERTIES('0qD9D4is5Nxetfa4uvhxOm',$,$,$,(#106),#114);
#116=IFCCARTESIANPOINTLIST3D(((-0.59325396825396826,-1.05,-1.175),(-0.59325396825396826,-1.05,1.175),(-0.59325396825396826,-0.91000000000000003,-1.175),(-0.59325396825396826,-0.91000000000000003,1.175),(-0.52103174603174607,-1.05,-1.175),(-0.52103174603174607,-1.05,1.175),(-0.52103174603174607,-0.91000000000000003,-1.175),(-0.52103174603174607,-0.91000000000000003,1.175),(-0.59325396825396814,0.91000000000000003,-1.175),(-0.59325396825396814,0.91000000000000003,1.175),(-0.59325396825396814,1.05,-1.175),(-0.59325396825396814,1.05,1.175),(-0.52103174603174596,0.91000000000000003,-1.175),(-0.52103174603174596,0.91000000000000003,1.175),(-0.52103174603174596,1.05,-1.175),(-0.52103174603174596,1.05,1.175),(-0.59325396825396826,-0.91000000000000003,1.0349999999999999),(-0.59325396825396826,-0.91000000000000003,1.175),(-0.59325396825396826,0.91000000000000003,1.0349999999999999),(-0.59325396825396826,0.91000000000000003,1.175),(-0.52103174603174596,-0.91000000000000003,1.0349999999999999),(-0.52103174603174596,-0.91000000000000003,1.175),(-0.52103174603174596,0.91000000000000003,1.0349999999999999),(-0.52103174603174596,0.91000000000000003,1.175),(-0.59325396825396826,-0.91000000000000003,-1.175),(-0.59325396825396826,-0.91000000000000003,-1.0349999999999999),(-0.59325396825396826,0.91000000000000003,-1.175),(-0.59325396825396826,0.91000000000000003,-1.0349999999999999),(-0.52103174603174596,-0.91000000000000003,-1.175),(-0.52103174603174596,-0.91000000000000003,-1.0349999999999999),(-0.52103174603174596,0.91000000000000003,-1.175),(-0.52103174603174596,0.91000000000000003,-1.0349999999999999),(-0.40753968253968265,-1.05,-1.175),(-0.40753968253968265,-1.05,1.175),(-0.40753968253968265,-0.91000000000000003,-1.175),(-0.40753968253968265,-0.91000000000000003,1.175),(-0.33531746031746035,-1.05,-1.175),(-0.33531746031746035,-1.05,1.175),(-0.33531746031746035,-0.91000000000000003,-1.175),(-0.33531746031746035,-0.91000000000000003,1.175),(-0.40753968253968254,0.91000000000000003,-1.175),(-0.40753968253968254,0.91000000000000003,1.175),(-0.40753968253968254,1.05,-1.175),(-0.40753968253968254,1.05,1.175),(-0.33531746031746024,0.91000000000000003,-1.175),(-0.33531746031746024,0.91000000000000003,1.175),(-0.33531746031746024,1.05,-1.175),(-0.33531746031746024,1.05,1.175),(-0.40753968253968265,-0.91000000000000003,1.0349999999999999),(-0.40753968253968265,-0.91000000000000003,1.175),(-0.40753968253968265,0.91000000000000003,1.0349999999999999),(-0.40753968253968265,0.91000000000000003,1.175),(-0.33531746031746024,-0.91000000000000003,1.0349999999999999),(-0.33531746031746024,-0.91000000000000003,1.175),(-0.33531746031746024,0.91000000000000003,1.0349999999999999),(-0.33531746031746024,0.91000000000000003,1.175),(-0.40753968253968265,-0.91000000000000003,-1.175),(-0.40753968253968265,-0.91000000000000003,-1.0349999999999999),(-0.40753968253968265,0.91000000000000003,-1.175),(-0.40753968253968265,0.91000000000000003,-1.0349999999999999),(-0.33531746031746024,-0.91000000000000003,-1.175),(-0.33531746031746024,-0.91000000000000003,-1.0349999999999999),(-0.33531746031746024,0.91000000000000003,-1.175),(-0.33531746031746024,0.91000000000000003,-1.0349999999999999),(-0.2218253968253969,-1.05,-1.175),(-0.2218253968253969,-1.05,1.175),(-0.2218253968253969,-0.91000000000000003,-1.175),(-0.2218253968253969,-0.91000000000000003,1.175),(-0.14960317460317465,-1.05,-1.175),(-0.14960317460317465,-1.05,1.175),(-0.14960317460317465,-0.91000000000000003,-1.175),(-0.14960317460317465,-0.91000000000000003,1.175),(-0.22182539682539679,0.91000000000000003,-1.175),(-0.22182539682539679,0.91000000000000003,1.175),(-0.22182539682539679,1.05,-1.175),(-0.22182539682539679,1.05,1.175),(-0.14960317460317454,0.91000000000000003,-1.175),(-0.14960317460317454,0.91000000000000003,1.175),(-0.14960317460317454,1.05,-1.175),(-0.14960317460317454,1.05,1.175),(-0.2218253968253969,-0.91000000000000003,1.0349999999999999),(-0.2218253968253969,-0.91000000000000003,1.175),(-0.2218253968253969,0.91000000000000003,1.0349999999999999),(-0.2218253968253969,0.91000000000000003,1.175),(-0.14960317460317454,-0.91000000000000003,1.0349999999999999),(-0.14960317460317454,-0.91000000000000003,1.175),(-0.14960317460317454,0.91000000000000003,1.0349999999999999),(-0.14960317460317454,0.91000000000000003,1.175),(-0.2218253968253969,-0.91000000000000003,-1.175),(-0.2218253968253969,-0.91000000000000003,-1.0349999999999999),(-0.2218253968253969,0.91000000000000003,-1.175),(-0.2218253968253969,0.91000000000000003,-1.0349999999999999),(-0.14960317460317454,-0.91000000000000003,-1.175),(-0.14960317460317454,-0.91000000000000003,-1.0349999999999999),(-0.14960317460317454,0.91000000000000003,-1.175),(-0.14960317460317454,0.91000000000000003,-1.0349999999999999),(-0.036111111111111177,-1.05,-1.175),(-0.036111111111111177,-1.05,1.175),(-0.036111111111111177,-0.91000000000000003,-1.175),(-0.036111111111111177,-0.91000000000000003,1.175),(0.036111111111111059,-1.05,-1.175),(0.036111111111111059,-1.05,1.175),(0.036111111111111059,-0.91000000000000003,-1.175),(0.036111111111111059,-0.91000000000000003,1.175),(-0.036111111111111059,0.91000000000000003,-1.175),(-0.036111111111111059,0.91000000000000003,1.175),(-0.036111111111111059,1.05,-1.175),(-0.036111111111111059,1.05,1.175),(0.036111111111111177,0.91000000000000003,-1.175),(0.036111111111111177,0.91000000000000003,1.175),(0.036111111111111177,1.05,-1.175),(0.036111111111111177,1.05,1.175),(-0.03611111111111117,-0.91000000000000003,1.0349999999999999),(-0.03611111111111117,-0.91000000000000003,1.175),(-0.03611111111111117,0.91000000000000003,1.0349999999999999),(-0.03611111111111117,0.91000000000000003,1.175),(0.03611111111111117,-0.91000000000000003,1.0349999999999999),(0.03611111111111117,-0.91000000000000003,1.175),(0.03611111111111117,0.91000000000000003,1.0349999999999999),(0.03611111111111117,0.91000000000000003,1.175),(-0.03611111111111117,-0.91000000000000003,-1.175),(-0.03611111111111117,-0.91000000000000003,-1.0349999999999999),(-0.03611111111111117,0.91000000000000003,-1.175),(-0.03611111111111117,0.91000000000000003,-1.0349999999999999),(0.03611111111111117,-0.91000000000000003,-1.175),(0.03611111111111117,-0.91000000000000003,-1.0349999999999999),(0.03611111111111117,0.91000000000000003,-1.175),(0.03611111111111117,0.91000000000000003,-1.0349999999999999),(0.14960317460317449,-1.05,-1.175),(0.14960317460317449,-1.05,1.175),(0.14960317460317449,-0.91000000000000003,-1.175),(0.14960317460317449,-0.91000000000000003,1.175),(0.22182539682539673,-1.05,-1.175),(0.22182539682539673,-1.05,1.175),(0.22182539682539673,-0.91000000000000003,-1.175),(0.22182539682539673,-0.91000000000000003,1.175),(0.1496031746031746,0.91000000000000003,-1.175),(0.1496031746031746,0.91000000000000003,1.175),(0.1496031746031746,1.05,-1.175),(0.1496031746031746,1.05,1.175),(0.22182539682539684,0.91000000000000003,-1.175),(0.22182539682539684,0.91000000000000003,1.175),(0.22182539682539684,1.05,-1.175),(0.22182539682539684,1.05,1.175),(0.14960317460317449,-0.91000000000000003,1.0349999999999999),(0.14960317460317449,-0.91000000000000003,1.175),(0.14960317460317449,0.91000000000000003,1.0349999999999999),(0.14960317460317449,0.91000000000000003,1.175),(0.22182539682539684,-0.91000000000000003,1.0349999999999999),(0.22182539682539684,-0.91000000000000003,1.175),(0.22182539682539684,0.91000000000000003,1.0349999999999999),(0.22182539682539684,0.91000000000000003,1.175),(0.14960317460317449,-0.91000000000000003,-1.175),(0.14960317460317449,-0.91000000000000003,-1.0349999999999999),(0.14960317460317449,0.91000000000000003,-1.175),(0.14960317460317449,0.91000000000000003,-1.0349999999999999),(0.22182539682539684,-0.91000000000000003,-1.175),(0.22182539682539684,-0.91000000000000003,-1.0349999999999999),(0.22182539682539684,0.91000000000000003,-1.175),(0.22182539682539684,0.91000000000000003,-1.0349999999999999),(0.33531746031746024,-1.05,-1.175),(0.33531746031746024,-1.05,1.175),(0.33531746031746024,-0.91000000000000003,-1.175),(0.33531746031746024,-0.91000000000000003,1.175),(0.40753968253968254,-1.05,-1.175),(0.40753968253968254,-1.05,1.175),(0.40753968253968254,-0.91000000000000003,-1.175),(0.40753968253968254,-0.91000000000000003,1.175),(0.33531746031746035,0.91000000000000003,-1.175),(0.33531746031746035,0.91000000000000003,1.175),(0.33531746031746035,1.05,-1.175),(0.33531746031746035,1.05,1.175),(0.40753968253968265,0.91000000000000003,-1.175),(0.40753968253968265,0.91000000000000003,1.175),(0.40753968253968265,1.05,-1.175),(0.40753968253968265,1.05,1.175),(0.33531746031746024,-0.91000000000000003,1.0349999999999999),(0.33531746031746024,-0.91000000000000003,1.175),(0.33531746031746024,0.91000000000000003,1.0349999999999999),(0.33531746031746024,0.91000000000000003,1.175),(0.40753968253968265,-0.91000000000000003,1.0349999999999999),(0.40753968253968265,-0.91000000000000003,1.175),(0.40753968253968265,0.91000000000000003,1.0349999999999999),(0.40753968253968265,0.91000000000000003,1.175),(0.33531746031746024,-0.91000000000000003,-1.175),(0.33531746031746024,-0.91000000000000003,-1.0349999999999999),(0.33531746031746024,0.91000000000000003,-1.175),(0.33531746031746024,0.91000000000000003,-1.0349999999999999),(0.40753968253968265,-0.91000000000000003,-1.175),(0.40753968253968265,-0.91000000000000003,-1.0349999999999999),(0.40753968253968265,0.91000000000000003,-1.175),(0.40753968253968265,0.91000000000000003,-1.0349999999999999),(0.52103174603174596,-1.05,-1.175),(0.52103174603174596,-1.05,1.175),(0.52103174603174596,-0.91000000000000003,-1.175),(0.52103174603174596,-0.91000000000000003,1.175),(0.59325396825396814,-1.05,-1.175),(0.59325396825396814,-1.05,1.175),(0.59325396825396814,-0.91000000000000003,-1.175),(0.59325396825396814,-0.91000000000000003,1.175),(0.52103174603174607,0.91000000000000003,-1.175),(0.52103174603174607,0.91000000000000003,1.175),(0.52103174603174607,1.05,-1.175),(0.52103174603174607,1.05,1.175),(0.59325396825396826,0.91000000000000003,-1.175),(0.59325396825396826,0.91000000000000003,1.175),(0.59325396825396826,1.05,-1.175),(0.59325396825396826,1.05,1.175),(0.52103174603174596,-0.91000000000000003,1.0349999999999999),(0.52103174603174596,-0.91000000000000003,1.175),(0.52103174603174596,0.91000000000000003,1.0349999999999999),(0.52103174603174596,0.91000000000000003,1.175),(0.59325396825396826,-0.91000000000000003,1.0349999999999999),(0.59325396825396826,-0.91000000000000003,1.175),(0.59325396825396826,0.91000000000000003,1.0349999999999999),(0.59325396825396826,0.91000000000000003,1.175),(0.52103174603174596,-0.91000000000000003,-1.175),(0.52103174603174596,-0.91000000000000003,-1.0349999999999999),(0.52103174603174596,0.91000000000000003,-1.175),(0.52103174603174596,0.91000000000000003,-1.0349999999999999),(0.59325396825396826,-0.91000000000000003,-1.175),(0.59325396825396826,-0.91000000000000003,-1.0349999999999999),(0.59325396825396826,0.91000000000000003,-1.175),(0.59325396825396826,0.91000000000000003,-1.0349999999999999)),$);
#117=IFCINDEXEDPOLYGONALFACE((1,2,4,3));
#118=IFCINDEXEDPOLYGONALFACE((5,7,8,6));
#119=IFCINDEXEDPOLYGONALFACE((1,5,6,2));
#120=IFCINDEXEDPOLYGONALFACE((3,4,8,7));
#121=IFCINDEXEDPOLYGONALFACE((1,3,7,5));
#122=IFCINDEXEDPOLYGONALFACE((2,6,8,4));
#123=IFCINDEXEDPOLYGONALFACE((9,10,12,11));
#124=IFCINDEXEDPOLYGONALFACE((13,15,16,14));
#125=IFCINDEXEDPOLYGONALFACE((9,13,14,10));
#126=IFCINDEXEDPOLYGONALFACE((11,12,16,15));
#127=IFCINDEXEDPOLYGONALFACE((9,11,15,13));
#128=IFCINDEXEDPOLYGONALFACE((10,14,16,12));
#129=IFCINDEXEDPOLYGONALFACE((17,18,20,19));
#130=IFCINDEXEDPOLYGONALFACE((21,23,24,22));
#131=IFCINDEXEDPOLYGONALFACE((17,21,22,18));
#132=IFCINDEXEDPOLYGONALFACE((19,20,24,23));
#133=IFCINDEXEDPOLYGONALFACE((17,19,23,21));
#134=IFCINDEXEDPOLYGONALFACE((18,22,24,20));
#135=IFCINDEXEDPOLYGONALFACE((25,26,28,27));
#136=IFCINDEXEDPOLYGONALFACE((29,31,32,30));
#137=IFCINDEXEDPOLYGONALFACE((25,29,30,26));
#138=IFCINDEXEDPOLYGONALFACE((27,28,32,31));
#139=IFCINDEXEDPOLYGONALFACE((25,27,31,29));
#140=IFCINDEXEDPOLYGONALFACE((26,30,32,28));
#141=IFCINDEXEDPOLYGONALFACE((33,34,36,35));
#142=IFCINDEXEDPOLYGONALFACE((37,39,40,38));
#143=IFCINDEXEDPOLYGONALFACE((33,37,38,34));
#144=IFCINDEXEDPOLYGONALFACE((35,36,40,39));
#145=IFCINDEXEDPOLYGONALFACE((33,35,39,37));
#146=IFCINDEXEDPOLYGONALFACE((34,38,40,36));
#147=IFCINDEXEDPOLYGONALFACE((41,42,44,43));
#148=IFCINDEXEDPOLYGONALFACE((45,47,48,46));
#149=IFCINDEXEDPOLYGONALFACE((41,45,46,42));
#150=IFCINDEXEDPOLYGONALFACE((43,44,48,47));
#151=IFCINDEXEDPOLYGONALFACE((41,43,47,45));
#152=IFCINDEXEDPOLYGONALFACE((42,46,48,44));
#153=IFCINDEXEDPOLYGONALFACE((49,50,52,51));
#154=IFCINDEXEDPOLYGONALFACE((53,55,56,54));
#155=IFCINDEXEDPOLYGONALFACE((49,53,54,50));
#156=IFCINDEXEDPOLYGONALFACE((51,52,56,55));
#157=IFCINDEXEDPOLYGONALFACE((49,51,55,53));
#158=IFCINDEXEDPOLYGONALFACE((50,54,56,52));
#159=IFCINDEXEDPOLYGONALFACE((57,58,60,59));
#160=IFCINDEXEDPOLYGONALFACE((61,63,64,62));
#161=IFCINDEXEDPOLYGONALFACE((57,61,62,58));
#162=IFCINDEXEDPOLYGONALFACE((59,60,64,63));
#163=IFCINDEXEDPOLYGONALFACE((57,59,63,61));
#164=IFCINDEXEDPOLYGONALFACE((58,62,64,60));
#165=IFCINDEXEDPOLYGONALFACE((65,66,68,67));
#166=IFCINDEXEDPOLYGONALFACE((69,71,72,70));
#167=IFCINDEXEDPOLYGONALFACE((65,69,70,66));
#168=IFCINDEXEDPOLYGONALFACE((67,68,72,71));
#169=IFCINDEXEDPOLYGONALFACE((65,67,71,69));
#170=IFCINDEXEDPOLYGONALFACE((66,70,72,68));
#171=IFCINDEXEDPOLYGONALFACE((73,74,76,75));
#172=IFCINDEXEDPOLYGONALFACE((77,79,80,78));
#173=IFCINDEXEDPOLYGONALFACE((73,77,78,74));
#174=IFCINDEXEDPOLYGONALFACE((75,76,80,79));
#175=IFCINDEXEDPOLYGONALFACE((73,75,79,77));
#176=IFCINDEXEDPOLYGONALFACE((74,78,80,76));
#177=IFCINDEXEDPOLYGONALFACE((81,82,84,83));
#178=IFCINDEXEDPOLYGONALFACE((85,87,88,86));
#179=IFCINDEXEDPOLYGONALFACE((81,85,86,82));
#180=IFCINDEXEDPOLYGONALFACE((83,84,88,87));
#181=IFCINDEXEDPOLYGONALFACE((81,83,87,85));
#182=IFCINDEXEDPOLYGONALFACE((82,86,88,84));
#183=IFCINDEXEDPOLYGONALFACE((89,90,92,91));
#184=IFCINDEXEDPOLYGONALFACE((93,95,96,94));
#185=IFCINDEXEDPOLYGONALFACE((89,93,94,90));
#186=IFCINDEXEDPOLYGONALFACE((91,92,96,95));
#187=IFCINDEXEDPOLYGONALFACE((89,91,95,93));
#188=IFCINDEXEDPOLYGONALFACE((90,94,96,92));
#189=IFCINDEXEDPOLYGONALFACE((97,98,100,99));
#190=IFCINDEXEDPOLYGONALFACE((101,103,104,102));
#191=IFCINDEXEDPOLYGONALFACE((97,101,102,98));
#192=IFCINDEXEDPOLYGONALFACE((99,100,104,103));
#193=IFCINDEXEDPOLYGONALFACE((97,99,103,101));
#194=IFCINDEXEDPOLYGONALFACE((98,102,104,100));
#195=IFCINDEXEDPOLYGONALFACE((105,106,108,107));
#196=IFCINDEXEDPOLYGONALFACE((109,111,112,110));
#197=IFCINDEXEDPOLYGONALFACE((105,109,110,106));
#198=IFCINDEXEDPOLYGONALFACE((107,108,112,111));
#199=IFCINDEXEDPOLYGONALFACE((105,107,111,109));
#200=IFCINDEXEDPOLYGONALFACE((106,110,112,108));
#201=IFCINDEXEDPOLYGONALFACE((113,114,116,115));
#202=IFCINDEXEDPOLYGONALFACE((117,119,120,118));
#203=IFCINDEXEDPOLYGONALFACE((113,117,118,114));
#204=IFCINDEXEDPOLYGONALFACE((115,116,120,119));
#205=IFCINDEXEDPOLYGONALFACE((113,115,119,117));
#206=IFCINDEXEDPOLYGONALFACE((114,118,120,116));
#207=IFCINDEXEDPOLYGONALFACE((121,122,124,123));
#208=IFCINDEXEDPOLYGONALFACE((125,127,128,126));
#209=IFCINDEXEDPOLYGONALFACE((121,125,126,122));
#210=IFCINDEXEDPOLYGONALFACE((123,124,128,127));
#211=IFCINDEXEDPOLYGONALFACE((121,123,127,125));
#212=IFCINDEXEDPOLYGONALFACE((122,126,128,124));
#213=IFCINDEXEDPOLYGONALFACE((129,130,132,131));
#214=IFCINDEXEDPOLYGONALFACE((133,135,136,134));
#215=IFCINDEXEDPOLYGONALFACE((129,133,134,130));
#216=IFCINDEXEDPOLYGONALFACE((131,132,136,135));
#217=IFCINDEXEDPOLYGONALFACE((129,131,135,133));
#218=IFCINDEXEDPOLYGONALFACE((130,134,136,132));
#219=IFCINDEXEDPOLYGONALFACE((137,138,140,139));
#220=IFCINDEXEDPOLYGONALFACE((141,143,144,142));
#221=IFCINDEXEDPOLYGONALFACE((137,141,142,138));
#222=IFCINDEXEDPOLYGONALFACE((139,140,144,143));
#223=IFCINDEXEDPOLYGONALFACE((137,139,143,141));
#224=IFCINDEXEDPOLYGONALFACE((138,142,144,140));
#225=IFCINDEXEDPOLYGONALFACE((145,146,148,147));
#226=IFCINDEXEDPOLYGONALFACE((149,151,152,150));
#227=IFCINDEXEDPOLYGONALFACE((145,149,150,146));
#228=IFCINDEXEDPOLYGONALFACE((147,148,152,151));
#229=IFCINDEXEDPOLYGONALFACE((145,147,151,149));
#230=IFCINDEXEDPOLYGONALFACE((146,150,152,148));
#231=IFCINDEXEDPOLYGONALFACE((153,154,156,155));
#232=IFCINDEXEDPOLYGONALFACE((157,159,160,158));
#233=IFCINDEXEDPOLYGONALFACE((153,157,158,154));
#234=IFCINDEXEDPOLYGONALFACE((155,156,160,159));
#235=IFCINDEXEDPOLYGONALFACE((153,155,159,157));
#236=IFCINDEXEDPOLYGONALFACE((154,158,160,156));
#237=IFCINDEXEDPOLYGONALFACE((161,162,164,163));
#238=IFCINDEXEDPOLYGONALFACE((165,167,168,166));
#239=IFCINDEXEDPOLYGONALFACE((161,165,166,162));
#240=IFCINDEXEDPOLYGONALFACE((163,164,168,167));
#241=IFCINDEXEDPOLYGONALFACE((161,163,167,165));
#242=IFCINDEXEDPOLYGONALFACE((162,166,168,164));
#243=IFCINDEXEDPOLYGONALFACE((169,170,172,171));
#244=IFCINDEXEDPOLYGONALFACE((173,175,176,174));
#245=IFCINDEXEDPOLYGONALFACE((169,173,174,170));
#246=IFCINDEXEDPOLYGONALFACE((171,172,176,175));
#247=IFCINDEXEDPOLYGONALFACE((169,171,175,173));
#248=IFCINDEXEDPOLYGONALFACE((170,174,176,172));
#249=IFCINDEXEDPOLYGONALFACE((177,178,180,179));
#250=IFCINDEXEDPOLYGONALFACE((181,183,184,182));
#251=IFCINDEXEDPOLYGONALFACE((177,181,182,178));
#252=IFCINDEXEDPOLYGONALFACE((179,180,184,183));
#253=IFCINDEXEDPOLYGONALFACE((177,179,183,181));
#254=IFCINDEXEDPOLYGONALFACE((178,182,184,180));
#255=IFCINDEXEDPOLYGONALFACE((185,186,188,187));
#256=IFCINDEXEDPOLYGONALFACE((189,191,192,190));
#257=IFCINDEXEDPOLYGONALFACE((185,189,190,186));
#258=IFCINDEXEDPOLYGONALFACE((187,188,192,191));
#259=IFCINDEXEDPOLYGONALFACE((185,187,191,189));
#260=IFCINDEXEDPOLYGONALFACE((186,190,192,188));
#261=IFCINDEXEDPOLYGONALFACE((193,194,196,195));
#262=IFCINDEXEDPOLYGONALFACE((197,199,200,198));
#263=IFCINDEXEDPOLYGONALFACE((193,197,198,194));
#264=IFCINDEXEDPOLYGONALFACE((195,196,200,199));
#265=IFCINDEXEDPOLYGONALFACE((193,195,199,197));
#266=IFCINDEXEDPOLYGONALFACE((194,198,200,196));
#267=IFCINDEXEDPOLYGONALFACE((201,202,204,203));
#268=IFCINDEXEDPOLYGONALFACE((205,207,208,206));
#269=IFCINDEXEDPOLYGONALFACE((201,205,206,202));
#270=IFCINDEXEDPOLYGONALFACE((203,204,208,207));
#271=IFCINDEXEDPOLYGONALFACE((201,203,207,205));
#272=IFCINDEXEDPOLYGONALFACE((202,206,208,204));
#273=IFCINDEXEDPOLYGONALFACE((209,210,212,211));
#274=IFCINDEXEDPOLYGONALFACE((213,215,216,214));
#275=IFCINDEXEDPOLYGONALFACE((209,213,214,210));
#276=IFCINDEXEDPOLYGONALFACE((211,212,216,215));
#277=IFCINDEXEDPOLYGONALFACE((209,211,215,213));
#278=IFCINDEXEDPOLYGONALFACE((210,214,216,212));
#279=IFCINDEXEDPOLYGONALFACE((217,218,220,219));
#280=IFCINDEXEDPOLYGONALFACE((221,223,224,222));
#281=IFCINDEXEDPOLYGONALFACE((217,221,222,218));
#282=IFCINDEXEDPOLYGONALFACE((219,220,224,223));
#283=IFCINDEXEDPOLYGONALFACE((217,219,223,221));
#284=IFCINDEXEDPOLYGONALFACE((218,222,224,220));
#285=IFCPOLYGONALFACESET(#116,$,(#117,#118,#119,#120,#121,#122,#123,#124,#125,#126,#127,#128,#129,#130,#131,#132,#133,#134,#135,#136,#137,#138,#139,#140,#141,#142,#143,#144,#145,#146,#147,#148,#149,#150,#151,#152,#153,#154,#155,#156,#157,#158,#159,#160,#161,#162,#163,#164,#165,#166,#167,#168,#169,#170,#171,#172,#173,#174,#175,#176,#177,#178,#179,#180,#181,#182,#183,#184,#185,#186,#187,#188,#189,#190,#191,#192,#193,#194,#195,#196,#197,#198,#199,#200,#201,#202,#203,#204,#205,#206,#207,#208,#209,#210,#211,#212,#213,#214,#215,#216,#217,#218,#219,#220,#221,#222,#223,#224,#225,#226,#227,#228,#229,#230,#231,#232,#233,#234,#235,#236,#237,#238,#239,#240,#241,#242,#243,#244,#245,#246,#247,#248,#249,#250,#251,#252,#253,#254,#255,#256,#257,#258,#259,#260,#261,#262,#263,#264,#265,#266,#267,#268,#269,#270,#271,#272,#273,#274,#275,#276,#277,#278,#279,#280,#281,#282,#283,#284),$);
#286=IFCSHAPEREPRESENTATION(#13,'Body','Tessellation',(#285));
#287=IFCPRODUCTDEFINITIONSHAPE($,$,(#286));
#288=IFCRELAGGREGATES('0FPEueMpHUhhBB5zcWIj9R',$,$,$,#28,(#36,#74,#106));
#289=IFCRELCONTAINEDINSPATIALSTRUCTURE('1_BAo5jX5H8ucYO6EzLjNk',$,$,$,(#28),#3);
#290=IFCCARTESIANPOINT((0.,0.,0.));
#291=IFCAXIS2PLACEMENT3D(#290,$,$);
#292=IFCLOCALPLACEMENT($,#291);
#293=IFCCARTESIANPOINT((3.4500000000000002,0.,0.));
#294=IFCAXIS2PLACEMENT3D(#293,$,$);
#295=IFCLOCALPLACEMENT($,#294);
#296=IFCCARTESIANPOINT((6.9000000000000004,0.,0.));
#297=IFCAXIS2PLACEMENT3D(#296,$,$);
#298=IFCLOCALPLACEMENT($,#297);
ENDSEC;
END-ISO-10303-21;
