ISO-10303-21;
HEADER;
FILE_DESCRIPTION(('ViewDefinition [CoordinationView]'),'2;1');
FILE_NAME('LM3-BDY-SA110.ifc','2026-08-30T00:00:00+00:00',('OpenSourceRail'),('OpenSourceRail'),'IfcOpenShell 0.8.5','OpenSourceRail deterministic LM3 product-library exporter','design-reference / not for construction');
FILE_SCHEMA(('IFC4X3_ADD2'));
ENDSEC;
DATA;
#1=IFCPROJECT('23w1syv5fGBvJ8E1N2B2qc',$,'LM3-BDY-SA110 \X2\2014\X0\ underframe datum weldment','Design-reference geometry and assembly hierarchy only; supplier freeze, released drawings/tolerances, calculations, qualified processes and first-article tests remain mandatory.',$,$,$,(#12),#7);
#2=IFCSITE('0_YGLMNQfM8PtXtiH4utAs',$,'LM3 product library',$,$,#18,$,$,.ELEMENT.,$,$,$,$,$);
#3=IFCBUILDING('33cpS2tm9QghyltUdCBe2V',$,'LM3 assembly inspection fixture',$,$,#21,$,$,.ELEMENT.,$,$,$);
#4=IFCSIUNIT(*,.LENGTHUNIT.,$,.METRE.);
#5=IFCSIUNIT(*,.AREAUNIT.,$,.SQUARE_METRE.);
#6=IFCSIUNIT(*,.VOLUMEUNIT.,$,.CUBIC_METRE.);
#7=IFCUNITASSIGNMENT((#6,#4,#5));
#8=IFCCARTESIANPOINT((0.,0.,0.));
#9=IFCDIRECTION((0.,0.,1.));
#10=IFCDIRECTION((1.,0.,0.));
#11=IFCAXIS2PLACEMENT3D(#8,#9,#10);
#12=IFCGEOMETRICREPRESENTATIONCONTEXT($,'Model',3,1.0000000000000001E-05,#11,$);
#13=IFCGEOMETRICREPRESENTATIONSUBCONTEXT('Body','Model',*,*,*,*,#12,$,.MODEL_VIEW.,$);
#14=IFCRELAGGREGATES('1NuEYqK4jIQQ9uLRt5WC_A',$,$,$,#1,(#2));
#15=IFCRELAGGREGATES('3ZFzYeS2fGuQM8$I7dmWAZ',$,$,$,#2,(#3));
#16=IFCCARTESIANPOINT((0.,0.,0.));
#17=IFCAXIS2PLACEMENT3D(#16,$,$);
#18=IFCLOCALPLACEMENT($,#17);
#19=IFCCARTESIANPOINT((0.,0.,0.));
#20=IFCAXIS2PLACEMENT3D(#19,$,$);
#21=IFCLOCALPLACEMENT($,#20);
#22=IFCPROPERTYSINGLEVALUE('Status',$,IFCTEXT('design-reference-not-released'),$);
#23=IFCPROPERTYSINGLEVALUE('ReleaseBoundary',$,IFCTEXT('Design-reference geometry and assembly hierarchy only; supplier freeze, released drawings/tolerances, calculations, qualified processes and first-article tests remain mandatory.'),$);
#24=IFCPROPERTYSINGLEVALUE('Manifest',$,IFCTEXT('design/component-catalogue/catalog/buildable-trainset/buildable-trainset-manifest.json'),$);
#25=IFCPROPERTYSINGLEVALUE('ManifestSha256',$,IFCTEXT('1179a30e147f3569fc4ccc8ce621621cec7985f620d2c788f8da93eec9ed7c05'),$);
#26=IFCPROPERTYSET('1VCyD9o7TN$RrWrDSi_ptE',$,'OSR_ProductLibrary',$,(#22,#23,#24,#25));
#27=IFCRELDEFINESBYPROPERTIES('2Ibvz8BhLOjAgFGEBNL2HL',$,$,$,(#1),#26);
#28=IFCELEMENTASSEMBLY('11Be_h4uPP6QfZ3fG4A1Ta',$,'underframe datum weldment','material release | fixture tack survey | weld/NDT release | post-weld datum survey',$,$,$,'LM3-BDY-SA110',$,$);
#29=IFCPROPERTYSINGLEVALUE('OSRId',$,IFCTEXT('LM3-BDY-SA110'),$);
#30=IFCPROPERTYSINGLEVALUE('Layer',$,IFCTEXT('subassembly'),$);
#31=IFCPROPERTYSINGLEVALUE('BuildCell',$,IFCTEXT('weld and fixture cell'),$);
#32=IFCPROPERTYSINGLEVALUE('QuantityPerTrainset',$,IFCINTEGER(3),$);
#33=IFCPROPERTYSINGLEVALUE('GeometryStatus',$,IFCTEXT('complete-hierarchy-inspection-layout'),$);
#34=IFCPROPERTYSET('1a8niC2W1KG9WdfNZT_tea',$,'OSR_AssemblyDefinition',$,(#29,#30,#31,#32,#33));
#35=IFCRELDEFINESBYPROPERTIES('0woGdgjFvGjP7s8D$UmS$h',$,$,$,(#28),#34);
#36=IFCMEMBER('1jeWJcAwXNKONq7NuJ$P4Y',$,'laser-cut side sill beam, LH/RH','S355 RHS/folded section cut, formed, drilled, and fixture-welded locally.',$,#393,#56,'LM3-BDY-P010',$);
#37=IFCPROPERTYSINGLEVALUE('OSRId',$,IFCTEXT('LM3-BDY-P010'),$);
#38=IFCPROPERTYSINGLEVALUE('Parent',$,IFCTEXT('LM3-BDY-SA110'),$);
#39=IFCPROPERTYSINGLEVALUE('Route',$,IFCTEXT('MAKE'),$);
#40=IFCPROPERTYSINGLEVALUE('Maturity',$,IFCTEXT('release-candidate'),$);
#41=IFCPROPERTYSINGLEVALUE('QuantityPerTrainset',$,IFCINTEGER(6),$);
#42=IFCPROPERTYSINGLEVALUE('Unit',$,IFCTEXT('ea'),$);
#43=IFCPROPERTYSINGLEVALUE('GeometryStatus',$,IFCTEXT('design-reference-not-released'),$);
#44=IFCPROPERTYSINGLEVALUE('GeometryLevel',$,IFCTEXT('interface-detailed'),$);
#45=IFCPROPERTYSET('19B99asbzKz9IrFNJNjn7l',$,'OSR_ProductDefinition',$,(#37,#38,#39,#40,#41,#42,#43,#44));
#46=IFCRELDEFINESBYPROPERTIES('2S4rNKtbnQCAFTv972mUeX',$,$,$,(#36),#45);
#47=IFCCARTESIANPOINTLIST3D(((-8.,-0.089999999999999997,-0.13),(-8.,-0.089999999999999997,0.13),(-8.,0.089999999999999997,-0.13),(-8.,0.089999999999999997,0.13),(8.,-0.089999999999999997,-0.13),(8.,-0.089999999999999997,0.13),(8.,0.089999999999999997,-0.13),(8.,0.089999999999999997,0.13)),$);
#48=IFCINDEXEDPOLYGONALFACE((1,2,4,3));
#49=IFCINDEXEDPOLYGONALFACE((5,7,8,6));
#50=IFCINDEXEDPOLYGONALFACE((1,5,6,2));
#51=IFCINDEXEDPOLYGONALFACE((3,4,8,7));
#52=IFCINDEXEDPOLYGONALFACE((1,3,7,5));
#53=IFCINDEXEDPOLYGONALFACE((2,6,8,4));
#54=IFCPOLYGONALFACESET(#47,$,(#48,#49,#50,#51,#52,#53),$);
#55=IFCSHAPEREPRESENTATION(#13,'Body','Tessellation',(#54));
#56=IFCPRODUCTDEFINITIONSHAPE($,$,(#55));
#57=IFCMEMBER('3PPqoEnHvQFeZty5cDrluv',$,'underframe centre spine and longitudinal load-path kit','Cut plate/RHS centre-spine kit for one car; QR-marked before welding and kept separate from the repeated cross-bearer pack.',$,#396,#119,'LM3-BDY-P020',$);
#58=IFCPROPERTYSINGLEVALUE('OSRId',$,IFCTEXT('LM3-BDY-P020'),$);
#59=IFCPROPERTYSINGLEVALUE('Parent',$,IFCTEXT('LM3-BDY-SA110'),$);
#60=IFCPROPERTYSINGLEVALUE('Route',$,IFCTEXT('MAKE'),$);
#61=IFCPROPERTYSINGLEVALUE('Maturity',$,IFCTEXT('release-candidate'),$);
#62=IFCPROPERTYSINGLEVALUE('QuantityPerTrainset',$,IFCINTEGER(3),$);
#63=IFCPROPERTYSINGLEVALUE('Unit',$,IFCTEXT('kit'),$);
#64=IFCPROPERTYSINGLEVALUE('GeometryStatus',$,IFCTEXT('design-reference-not-released'),$);
#65=IFCPROPERTYSINGLEVALUE('GeometryLevel',$,IFCTEXT('interface-detailed'),$);
#66=IFCPROPERTYSET('2AmyyrofDMXvmSGOiKXazD',$,'OSR_ProductDefinition',$,(#58,#59,#60,#61,#62,#63,#64,#65));
#67=IFCRELDEFINESBYPROPERTIES('09pojIjkPTmxZ0uENpqSO6',$,$,$,(#57),#66);
#68=IFCCARTESIANPOINTLIST3D(((-7.9000000000000004,-0.11,-0.19),(-7.9000000000000004,-0.11,0.19),(-7.9000000000000004,0.11,-0.19),(-7.9000000000000004,0.11,0.19),(7.9000000000000004,-0.11,-0.19),(7.9000000000000004,-0.11,0.19),(7.9000000000000004,0.11,-0.19),(7.9000000000000004,0.11,0.19),(-7.3579999999999997,-1.325,-0.13679999999999998),(-7.3579999999999997,-1.325,0.13679999999999998),(-7.3579999999999997,1.325,-0.13679999999999998),(-7.3579999999999997,1.325,0.13679999999999998),(-7.1779999999999999,-1.325,-0.13679999999999998),(-7.1779999999999999,-1.325,0.13679999999999998),(-7.1779999999999999,1.325,-0.13679999999999998),(-7.1779999999999999,1.325,0.13679999999999998),(-4.9880000000000004,-1.325,-0.13679999999999998),(-4.9880000000000004,-1.325,0.13679999999999998),(-4.9880000000000004,1.325,-0.13679999999999998),(-4.9880000000000004,1.325,0.13679999999999998),(-4.8079999999999998,-1.325,-0.13679999999999998),(-4.8079999999999998,-1.325,0.13679999999999998),(-4.8079999999999998,1.325,-0.13679999999999998),(-4.8079999999999998,1.325,0.13679999999999998),(-2.6179999999999999,-1.325,-0.13679999999999998),(-2.6179999999999999,-1.325,0.13679999999999998),(-2.6179999999999999,1.325,-0.13679999999999998),(-2.6179999999999999,1.325,0.13679999999999998),(-2.4380000000000002,-1.325,-0.13679999999999998),(-2.4380000000000002,-1.325,0.13679999999999998),(-2.4380000000000002,1.325,-0.13679999999999998),(-2.4380000000000002,1.325,0.13679999999999998),(-0.089999999999999997,-1.325,-0.13679999999999998),(-0.089999999999999997,-1.325,0.13679999999999998),(-0.089999999999999997,1.325,-0.13679999999999998),(-0.089999999999999997,1.325,0.13679999999999998),(0.089999999999999997,-1.325,-0.13679999999999998),(0.089999999999999997,-1.325,0.13679999999999998),(0.089999999999999997,1.325,-0.13679999999999998),(0.089999999999999997,1.325,0.13679999999999998),(2.4380000000000002,-1.325,-0.13679999999999998),(2.4380000000000002,-1.325,0.13679999999999998),(2.4380000000000002,1.325,-0.13679999999999998),(2.4380000000000002,1.325,0.13679999999999998),(2.6179999999999999,-1.325,-0.13679999999999998),(2.6179999999999999,-1.325,0.13679999999999998),(2.6179999999999999,1.325,-0.13679999999999998),(2.6179999999999999,1.325,0.13679999999999998),(4.8079999999999998,-1.325,-0.13679999999999998),(4.8079999999999998,-1.325,0.13679999999999998),(4.8079999999999998,1.325,-0.13679999999999998),(4.8079999999999998,1.325,0.13679999999999998),(4.9880000000000004,-1.325,-0.13679999999999998),(4.9880000000000004,-1.325,0.13679999999999998),(4.9880000000000004,1.325,-0.13679999999999998),(4.9880000000000004,1.325,0.13679999999999998),(7.1779999999999999,-1.325,-0.13679999999999998),(7.1779999999999999,-1.325,0.13679999999999998),(7.1779999999999999,1.325,-0.13679999999999998),(7.1779999999999999,1.325,0.13679999999999998),(7.3579999999999997,-1.325,-0.13679999999999998),(7.3579999999999997,-1.325,0.13679999999999998),(7.3579999999999997,1.325,-0.13679999999999998),(7.3579999999999997,1.325,0.13679999999999998)),$);
#69=IFCINDEXEDPOLYGONALFACE((1,2,4,3));
#70=IFCINDEXEDPOLYGONALFACE((5,7,8,6));
#71=IFCINDEXEDPOLYGONALFACE((1,5,6,2));
#72=IFCINDEXEDPOLYGONALFACE((3,4,8,7));
#73=IFCINDEXEDPOLYGONALFACE((1,3,7,5));
#74=IFCINDEXEDPOLYGONALFACE((2,6,8,4));
#75=IFCINDEXEDPOLYGONALFACE((9,10,12,11));
#76=IFCINDEXEDPOLYGONALFACE((13,15,16,14));
#77=IFCINDEXEDPOLYGONALFACE((9,13,14,10));
#78=IFCINDEXEDPOLYGONALFACE((11,12,16,15));
#79=IFCINDEXEDPOLYGONALFACE((9,11,15,13));
#80=IFCINDEXEDPOLYGONALFACE((10,14,16,12));
#81=IFCINDEXEDPOLYGONALFACE((17,18,20,19));
#82=IFCINDEXEDPOLYGONALFACE((21,23,24,22));
#83=IFCINDEXEDPOLYGONALFACE((17,21,22,18));
#84=IFCINDEXEDPOLYGONALFACE((19,20,24,23));
#85=IFCINDEXEDPOLYGONALFACE((17,19,23,21));
#86=IFCINDEXEDPOLYGONALFACE((18,22,24,20));
#87=IFCINDEXEDPOLYGONALFACE((25,26,28,27));
#88=IFCINDEXEDPOLYGONALFACE((29,31,32,30));
#89=IFCINDEXEDPOLYGONALFACE((25,29,30,26));
#90=IFCINDEXEDPOLYGONALFACE((27,28,32,31));
#91=IFCINDEXEDPOLYGONALFACE((25,27,31,29));
#92=IFCINDEXEDPOLYGONALFACE((26,30,32,28));
#93=IFCINDEXEDPOLYGONALFACE((33,34,36,35));
#94=IFCINDEXEDPOLYGONALFACE((37,39,40,38));
#95=IFCINDEXEDPOLYGONALFACE((33,37,38,34));
#96=IFCINDEXEDPOLYGONALFACE((35,36,40,39));
#97=IFCINDEXEDPOLYGONALFACE((33,35,39,37));
#98=IFCINDEXEDPOLYGONALFACE((34,38,40,36));
#99=IFCINDEXEDPOLYGONALFACE((41,42,44,43));
#100=IFCINDEXEDPOLYGONALFACE((45,47,48,46));
#101=IFCINDEXEDPOLYGONALFACE((41,45,46,42));
#102=IFCINDEXEDPOLYGONALFACE((43,44,48,47));
#103=IFCINDEXEDPOLYGONALFACE((41,43,47,45));
#104=IFCINDEXEDPOLYGONALFACE((42,46,48,44));
#105=IFCINDEXEDPOLYGONALFACE((49,50,52,51));
#106=IFCINDEXEDPOLYGONALFACE((53,55,56,54));
#107=IFCINDEXEDPOLYGONALFACE((49,53,54,50));
#108=IFCINDEXEDPOLYGONALFACE((51,52,56,55));
#109=IFCINDEXEDPOLYGONALFACE((49,51,55,53));
#110=IFCINDEXEDPOLYGONALFACE((50,54,56,52));
#111=IFCINDEXEDPOLYGONALFACE((57,58,60,59));
#112=IFCINDEXEDPOLYGONALFACE((61,63,64,62));
#113=IFCINDEXEDPOLYGONALFACE((57,61,62,58));
#114=IFCINDEXEDPOLYGONALFACE((59,60,64,63));
#115=IFCINDEXEDPOLYGONALFACE((57,59,63,61));
#116=IFCINDEXEDPOLYGONALFACE((58,62,64,60));
#117=IFCPOLYGONALFACESET(#68,$,(#69,#70,#71,#72,#73,#74,#75,#76,#77,#78,#79,#80,#81,#82,#83,#84,#85,#86,#87,#88,#89,#90,#91,#92,#93,#94,#95,#96,#97,#98,#99,#100,#101,#102,#103,#104,#105,#106,#107,#108,#109,#110,#111,#112,#113,#114,#115,#116),$);
#118=IFCSHAPEREPRESENTATION(#13,'Body','Tessellation',(#117));
#119=IFCPRODUCTDEFINITIONSHAPE($,$,(#118));
#120=IFCBUILDINGELEMENTPROXY('2HD_oNFkPNfPptcxGGu$aN',$,'underframe cross-bearer, door-bay outrigger, and equipment-bracket pack','Repeated laser-cut/folded transverse members are nested, station-marked, and gauged independently before the underframe weldment is closed.',$,#399,#230,'LM3-BDY-P021',$);
#121=IFCPROPERTYSINGLEVALUE('OSRId',$,IFCTEXT('LM3-BDY-P021'),$);
#122=IFCPROPERTYSINGLEVALUE('Parent',$,IFCTEXT('LM3-BDY-SA110'),$);
#123=IFCPROPERTYSINGLEVALUE('Route',$,IFCTEXT('MAKE'),$);
#124=IFCPROPERTYSINGLEVALUE('Maturity',$,IFCTEXT('release-candidate'),$);
#125=IFCPROPERTYSINGLEVALUE('QuantityPerTrainset',$,IFCINTEGER(3),$);
#126=IFCPROPERTYSINGLEVALUE('Unit',$,IFCTEXT('car pack'),$);
#127=IFCPROPERTYSINGLEVALUE('GeometryStatus',$,IFCTEXT('design-reference-not-released'),$);
#128=IFCPROPERTYSINGLEVALUE('GeometryLevel',$,IFCTEXT('interface-detailed'),$);
#129=IFCPROPERTYSET('1nePKk_UXLuR8AZffryCWL',$,'OSR_ProductDefinition',$,(#121,#122,#123,#124,#125,#126,#127,#128));
#130=IFCRELDEFINESBYPROPERTIES('3o$QImKC5LWxUzKtOxsWvm',$,$,$,(#120),#129);
#131=IFCCARTESIANPOINTLIST3D(((-6.9199999999999999,-1.325,-0.099199999999999997),(-6.9199999999999999,-1.325,0.099199999999999997),(-6.9199999999999999,1.325,-0.099199999999999997),(-6.9199999999999999,1.325,0.099199999999999997),(-6.7599999999999998,-1.325,-0.099199999999999997),(-6.7599999999999998,-1.325,0.099199999999999997),(-6.7599999999999998,1.325,-0.099199999999999997),(-6.7599999999999998,1.325,0.099199999999999997),(-4.944,-1.325,-0.099199999999999997),(-4.944,-1.325,0.099199999999999997),(-4.944,1.325,-0.099199999999999997),(-4.944,1.325,0.099199999999999997),(-4.7839999999999998,-1.325,-0.099199999999999997),(-4.7839999999999998,-1.325,0.099199999999999997),(-4.7839999999999998,1.325,-0.099199999999999997),(-4.7839999999999998,1.325,0.099199999999999997),(-2.968,-1.325,-0.099199999999999997),(-2.968,-1.325,0.099199999999999997),(-2.968,1.325,-0.099199999999999997),(-2.968,1.325,0.099199999999999997),(-2.8079999999999998,-1.325,-0.099199999999999997),(-2.8079999999999998,-1.325,0.099199999999999997),(-2.8079999999999998,1.325,-0.099199999999999997),(-2.8079999999999998,1.325,0.099199999999999997),(-0.99199999999999999,-1.325,-0.099199999999999997),(-0.99199999999999999,-1.325,0.099199999999999997),(-0.99199999999999999,1.325,-0.099199999999999997),(-0.99199999999999999,1.325,0.099199999999999997),(-0.83199999999999996,-1.325,-0.099199999999999997),(-0.83199999999999996,-1.325,0.099199999999999997),(-0.83199999999999996,1.325,-0.099199999999999997),(-0.83199999999999996,1.325,0.099199999999999997),(0.83199999999999996,-1.325,-0.099199999999999997),(0.83199999999999996,-1.325,0.099199999999999997),(0.83199999999999996,1.325,-0.099199999999999997),(0.83199999999999996,1.325,0.099199999999999997),(0.99199999999999999,-1.325,-0.099199999999999997),(0.99199999999999999,-1.325,0.099199999999999997),(0.99199999999999999,1.325,-0.099199999999999997),(0.99199999999999999,1.325,0.099199999999999997),(2.8079999999999998,-1.325,-0.099199999999999997),(2.8079999999999998,-1.325,0.099199999999999997),(2.8079999999999998,1.325,-0.099199999999999997),(2.8079999999999998,1.325,0.099199999999999997),(2.968,-1.325,-0.099199999999999997),(2.968,-1.325,0.099199999999999997),(2.968,1.325,-0.099199999999999997),(2.968,1.325,0.099199999999999997),(4.7839999999999998,-1.325,-0.099199999999999997),(4.7839999999999998,-1.325,0.099199999999999997),(4.7839999999999998,1.325,-0.099199999999999997),(4.7839999999999998,1.325,0.099199999999999997),(4.944,-1.325,-0.099199999999999997),(4.944,-1.325,0.099199999999999997),(4.944,1.325,-0.099199999999999997),(4.944,1.325,0.099199999999999997),(6.7599999999999998,-1.325,-0.099199999999999997),(6.7599999999999998,-1.325,0.099199999999999997),(6.7599999999999998,1.325,-0.099199999999999997),(6.7599999999999998,1.325,0.099199999999999997),(6.9199999999999999,-1.325,-0.099199999999999997),(6.9199999999999999,-1.325,0.099199999999999997),(6.9199999999999999,1.325,-0.099199999999999997),(6.9199999999999999,1.325,0.099199999999999997),(-5.8339999999999996,-1.2430000000000001,-0.112),(-5.8339999999999996,-1.2430000000000001,-0.0031999999999999884),(-5.8339999999999996,-0.98299999999999998,-0.112),(-5.8339999999999996,-0.98299999999999998,-0.0031999999999999884),(-5.4139999999999997,-1.2430000000000001,-0.112),(-5.4139999999999997,-1.2430000000000001,-0.0031999999999999884),(-5.4139999999999997,-0.98299999999999998,-0.112),(-5.4139999999999997,-0.98299999999999998,-0.0031999999999999884),(-5.8339999999999996,0.98299999999999998,-0.112),(-5.8339999999999996,0.98299999999999998,-0.0031999999999999884),(-5.8339999999999996,1.2430000000000001,-0.112),(-5.8339999999999996,1.2430000000000001,-0.0031999999999999884),(-5.4139999999999997,0.98299999999999998,-0.112),(-5.4139999999999997,0.98299999999999998,-0.0031999999999999884),(-5.4139999999999997,1.2430000000000001,-0.112),(-5.4139999999999997,1.2430000000000001,-0.0031999999999999884),(-2.0339999999999998,-1.2430000000000001,-0.112),(-2.0339999999999998,-1.2430000000000001,-0.0031999999999999884),(-2.0339999999999998,-0.98299999999999998,-0.112),(-2.0339999999999998,-0.98299999999999998,-0.0031999999999999884),(-1.6140000000000001,-1.2430000000000001,-0.112),(-1.6140000000000001,-1.2430000000000001,-0.0031999999999999884),(-1.6140000000000001,-0.98299999999999998,-0.112),(-1.6140000000000001,-0.98299999999999998,-0.0031999999999999884),(-2.0339999999999998,0.98299999999999998,-0.112),(-2.0339999999999998,0.98299999999999998,-0.0031999999999999884),(-2.0339999999999998,1.2430000000000001,-0.112),(-2.0339999999999998,1.2430000000000001,-0.0031999999999999884),(-1.6140000000000001,0.98299999999999998,-0.112),(-1.6140000000000001,0.98299999999999998,-0.0031999999999999884),(-1.6140000000000001,1.2430000000000001,-0.112),(-1.6140000000000001,1.2430000000000001,-0.0031999999999999884),(1.6140000000000001,-1.2430000000000001,-0.112),(1.6140000000000001,-1.2430000000000001,-0.0031999999999999884),(1.6140000000000001,-0.98299999999999998,-0.112),(1.6140000000000001,-0.98299999999999998,-0.0031999999999999884),(2.0339999999999998,-1.2430000000000001,-0.112),(2.0339999999999998,-1.2430000000000001,-0.0031999999999999884),(2.0339999999999998,-0.98299999999999998,-0.112),(2.0339999999999998,-0.98299999999999998,-0.0031999999999999884),(1.6140000000000001,0.98299999999999998,-0.112),(1.6140000000000001,0.98299999999999998,-0.0031999999999999884),(1.6140000000000001,1.2430000000000001,-0.112),(1.6140000000000001,1.2430000000000001,-0.0031999999999999884),(2.0339999999999998,0.98299999999999998,-0.112),(2.0339999999999998,0.98299999999999998,-0.0031999999999999884),(2.0339999999999998,1.2430000000000001,-0.112),(2.0339999999999998,1.2430000000000001,-0.0031999999999999884),(5.4139999999999997,-1.2430000000000001,-0.112),(5.4139999999999997,-1.2430000000000001,-0.0031999999999999884),(5.4139999999999997,-0.98299999999999998,-0.112),(5.4139999999999997,-0.98299999999999998,-0.0031999999999999884),(5.8339999999999996,-1.2430000000000001,-0.112),(5.8339999999999996,-1.2430000000000001,-0.0031999999999999884),(5.8339999999999996,-0.98299999999999998,-0.112),(5.8339999999999996,-0.98299999999999998,-0.0031999999999999884),(5.4139999999999997,0.98299999999999998,-0.112),(5.4139999999999997,0.98299999999999998,-0.0031999999999999884),(5.4139999999999997,1.2430000000000001,-0.112),(5.4139999999999997,1.2430000000000001,-0.0031999999999999884),(5.8339999999999996,0.98299999999999998,-0.112),(5.8339999999999996,0.98299999999999998,-0.0031999999999999884),(5.8339999999999996,1.2430000000000001,-0.112),(5.8339999999999996,1.2430000000000001,-0.0031999999999999884)),$);
#132=IFCINDEXEDPOLYGONALFACE((1,2,4,3));
#133=IFCINDEXEDPOLYGONALFACE((5,7,8,6));
#134=IFCINDEXEDPOLYGONALFACE((1,5,6,2));
#135=IFCINDEXEDPOLYGONALFACE((3,4,8,7));
#136=IFCINDEXEDPOLYGONALFACE((1,3,7,5));
#137=IFCINDEXEDPOLYGONALFACE((2,6,8,4));
#138=IFCINDEXEDPOLYGONALFACE((9,10,12,11));
#139=IFCINDEXEDPOLYGONALFACE((13,15,16,14));
#140=IFCINDEXEDPOLYGONALFACE((9,13,14,10));
#141=IFCINDEXEDPOLYGONALFACE((11,12,16,15));
#142=IFCINDEXEDPOLYGONALFACE((9,11,15,13));
#143=IFCINDEXEDPOLYGONALFACE((10,14,16,12));
#144=IFCINDEXEDPOLYGONALFACE((17,18,20,19));
#145=IFCINDEXEDPOLYGONALFACE((21,23,24,22));
#146=IFCINDEXEDPOLYGONALFACE((17,21,22,18));
#147=IFCINDEXEDPOLYGONALFACE((19,20,24,23));
#148=IFCINDEXEDPOLYGONALFACE((17,19,23,21));
#149=IFCINDEXEDPOLYGONALFACE((18,22,24,20));
#150=IFCINDEXEDPOLYGONALFACE((25,26,28,27));
#151=IFCINDEXEDPOLYGONALFACE((29,31,32,30));
#152=IFCINDEXEDPOLYGONALFACE((25,29,30,26));
#153=IFCINDEXEDPOLYGONALFACE((27,28,32,31));
#154=IFCINDEXEDPOLYGONALFACE((25,27,31,29));
#155=IFCINDEXEDPOLYGONALFACE((26,30,32,28));
#156=IFCINDEXEDPOLYGONALFACE((33,34,36,35));
#157=IFCINDEXEDPOLYGONALFACE((37,39,40,38));
#158=IFCINDEXEDPOLYGONALFACE((33,37,38,34));
#159=IFCINDEXEDPOLYGONALFACE((35,36,40,39));
#160=IFCINDEXEDPOLYGONALFACE((33,35,39,37));
#161=IFCINDEXEDPOLYGONALFACE((34,38,40,36));
#162=IFCINDEXEDPOLYGONALFACE((41,42,44,43));
#163=IFCINDEXEDPOLYGONALFACE((45,47,48,46));
#164=IFCINDEXEDPOLYGONALFACE((41,45,46,42));
#165=IFCINDEXEDPOLYGONALFACE((43,44,48,47));
#166=IFCINDEXEDPOLYGONALFACE((41,43,47,45));
#167=IFCINDEXEDPOLYGONALFACE((42,46,48,44));
#168=IFCINDEXEDPOLYGONALFACE((49,50,52,51));
#169=IFCINDEXEDPOLYGONALFACE((53,55,56,54));
#170=IFCINDEXEDPOLYGONALFACE((49,53,54,50));
#171=IFCINDEXEDPOLYGONALFACE((51,52,56,55));
#172=IFCINDEXEDPOLYGONALFACE((49,51,55,53));
#173=IFCINDEXEDPOLYGONALFACE((50,54,56,52));
#174=IFCINDEXEDPOLYGONALFACE((57,58,60,59));
#175=IFCINDEXEDPOLYGONALFACE((61,63,64,62));
#176=IFCINDEXEDPOLYGONALFACE((57,61,62,58));
#177=IFCINDEXEDPOLYGONALFACE((59,60,64,63));
#178=IFCINDEXEDPOLYGONALFACE((57,59,63,61));
#179=IFCINDEXEDPOLYGONALFACE((58,62,64,60));
#180=IFCINDEXEDPOLYGONALFACE((65,66,68,67));
#181=IFCINDEXEDPOLYGONALFACE((69,71,72,70));
#182=IFCINDEXEDPOLYGONALFACE((65,69,70,66));
#183=IFCINDEXEDPOLYGONALFACE((67,68,72,71));
#184=IFCINDEXEDPOLYGONALFACE((65,67,71,69));
#185=IFCINDEXEDPOLYGONALFACE((66,70,72,68));
#186=IFCINDEXEDPOLYGONALFACE((73,74,76,75));
#187=IFCINDEXEDPOLYGONALFACE((77,79,80,78));
#188=IFCINDEXEDPOLYGONALFACE((73,77,78,74));
#189=IFCINDEXEDPOLYGONALFACE((75,76,80,79));
#190=IFCINDEXEDPOLYGONALFACE((73,75,79,77));
#191=IFCINDEXEDPOLYGONALFACE((74,78,80,76));
#192=IFCINDEXEDPOLYGONALFACE((81,82,84,83));
#193=IFCINDEXEDPOLYGONALFACE((85,87,88,86));
#194=IFCINDEXEDPOLYGONALFACE((81,85,86,82));
#195=IFCINDEXEDPOLYGONALFACE((83,84,88,87));
#196=IFCINDEXEDPOLYGONALFACE((81,83,87,85));
#197=IFCINDEXEDPOLYGONALFACE((82,86,88,84));
#198=IFCINDEXEDPOLYGONALFACE((89,90,92,91));
#199=IFCINDEXEDPOLYGONALFACE((93,95,96,94));
#200=IFCINDEXEDPOLYGONALFACE((89,93,94,90));
#201=IFCINDEXEDPOLYGONALFACE((91,92,96,95));
#202=IFCINDEXEDPOLYGONALFACE((89,91,95,93));
#203=IFCINDEXEDPOLYGONALFACE((90,94,96,92));
#204=IFCINDEXEDPOLYGONALFACE((97,98,100,99));
#205=IFCINDEXEDPOLYGONALFACE((101,103,104,102));
#206=IFCINDEXEDPOLYGONALFACE((97,101,102,98));
#207=IFCINDEXEDPOLYGONALFACE((99,100,104,103));
#208=IFCINDEXEDPOLYGONALFACE((97,99,103,101));
#209=IFCINDEXEDPOLYGONALFACE((98,102,104,100));
#210=IFCINDEXEDPOLYGONALFACE((105,106,108,107));
#211=IFCINDEXEDPOLYGONALFACE((109,111,112,110));
#212=IFCINDEXEDPOLYGONALFACE((105,109,110,106));
#213=IFCINDEXEDPOLYGONALFACE((107,108,112,111));
#214=IFCINDEXEDPOLYGONALFACE((105,107,111,109));
#215=IFCINDEXEDPOLYGONALFACE((106,110,112,108));
#216=IFCINDEXEDPOLYGONALFACE((113,114,116,115));
#217=IFCINDEXEDPOLYGONALFACE((117,119,120,118));
#218=IFCINDEXEDPOLYGONALFACE((113,117,118,114));
#219=IFCINDEXEDPOLYGONALFACE((115,116,120,119));
#220=IFCINDEXEDPOLYGONALFACE((113,115,119,117));
#221=IFCINDEXEDPOLYGONALFACE((114,118,120,116));
#222=IFCINDEXEDPOLYGONALFACE((121,122,124,123));
#223=IFCINDEXEDPOLYGONALFACE((125,127,128,126));
#224=IFCINDEXEDPOLYGONALFACE((121,125,126,122));
#225=IFCINDEXEDPOLYGONALFACE((123,124,128,127));
#226=IFCINDEXEDPOLYGONALFACE((121,123,127,125));
#227=IFCINDEXEDPOLYGONALFACE((122,126,128,124));
#228=IFCPOLYGONALFACESET(#131,$,(#132,#133,#134,#135,#136,#137,#138,#139,#140,#141,#142,#143,#144,#145,#146,#147,#148,#149,#150,#151,#152,#153,#154,#155,#156,#157,#158,#159,#160,#161,#162,#163,#164,#165,#166,#167,#168,#169,#170,#171,#172,#173,#174,#175,#176,#177,#178,#179,#180,#181,#182,#183,#184,#185,#186,#187,#188,#189,#190,#191,#192,#193,#194,#195,#196,#197,#198,#199,#200,#201,#202,#203,#204,#205,#206,#207,#208,#209,#210,#211,#212,#213,#214,#215,#216,#217,#218,#219,#220,#221,#222,#223,#224,#225,#226,#227),$);
#229=IFCSHAPEREPRESENTATION(#13,'Body','Tessellation',(#228));
#230=IFCPRODUCTDEFINITIONSHAPE($,$,(#229));
#231=IFCMEMBER('3ADtgn1_5VS8w1KX2Y2NF$',$,'bolster box, air-spring pad, and centre-pivot insert set','Folded and welded bolster boxes, machined after weld where required.',$,#402,#289,'LM3-BDY-P030',$);
#232=IFCPROPERTYSINGLEVALUE('OSRId',$,IFCTEXT('LM3-BDY-P030'),$);
#233=IFCPROPERTYSINGLEVALUE('Parent',$,IFCTEXT('LM3-BDY-SA110'),$);
#234=IFCPROPERTYSINGLEVALUE('Route',$,IFCTEXT('MAKE'),$);
#235=IFCPROPERTYSINGLEVALUE('Maturity',$,IFCTEXT('release-candidate'),$);
#236=IFCPROPERTYSINGLEVALUE('QuantityPerTrainset',$,IFCINTEGER(6),$);
#237=IFCPROPERTYSINGLEVALUE('Unit',$,IFCTEXT('set'),$);
#238=IFCPROPERTYSINGLEVALUE('GeometryStatus',$,IFCTEXT('design-reference-not-released'),$);
#239=IFCPROPERTYSINGLEVALUE('GeometryLevel',$,IFCTEXT('interface-detailed'),$);
#240=IFCPROPERTYSET('3Tz6F5FirHhv9B2E7HQM9g',$,'OSR_ProductDefinition',$,(#232,#233,#234,#235,#236,#237,#238,#239));
#241=IFCRELDEFINESBYPROPERTIES('2RALziOBrNIgrCDQYsSQbC',$,$,$,(#231),#240);
#242=IFCCARTESIANPOINTLIST3D(((0.84999999999999998,0.,-0.13019999999999998),(0.80839803885088046,0.2626644452187053,-0.13019999999999998),(0.68766444521870529,0.49961746444860217,-0.13019999999999998),(0.49961746444860217,0.68766444521870529,-0.13019999999999998),(0.2626644452187053,0.80839803885088046,-0.13019999999999998),(5.2047488963762507E-17,0.84999999999999998,-0.13019999999999998),(-0.26266444521870524,0.80839803885088057,-0.13019999999999998),(-0.49961746444860206,0.68766444521870529,-0.13019999999999998),(-0.68766444521870518,0.49961746444860222,-0.13019999999999998),(-0.80839803885088046,0.26266444521870536,-0.13019999999999998),(-0.84999999999999998,1.0409497792752501E-16,-0.13019999999999998),(-0.80839803885088068,-0.26266444521870486,-0.13019999999999998),(-0.6876644452187054,-0.49961746444860206,-0.13019999999999998),(-0.49961746444860222,-0.68766444521870518,-0.13019999999999998),(-0.26266444521870541,-0.80839803885088046,-0.13019999999999998),(-1.5614246689128752E-16,-0.84999999999999998,-0.13019999999999998),(0.26266444521870513,-0.80839803885088057,-0.13019999999999998),(0.49961746444860194,-0.6876644452187054,-0.13019999999999998),(0.68766444521870518,-0.49961746444860233,-0.13019999999999998),(0.80839803885088046,-0.26266444521870547,-0.13019999999999998),(0.84999999999999998,0.,0.13019999999999998),(0.80839803885088046,0.2626644452187053,0.13019999999999998),(0.68766444521870529,0.49961746444860217,0.13019999999999998),(0.49961746444860217,0.68766444521870529,0.13019999999999998),(0.2626644452187053,0.80839803885088046,0.13019999999999998),(5.2047488963762507E-17,0.84999999999999998,0.13019999999999998),(-0.26266444521870524,0.80839803885088057,0.13019999999999998),(-0.49961746444860206,0.68766444521870529,0.13019999999999998),(-0.68766444521870518,0.49961746444860222,0.13019999999999998),(-0.80839803885088046,0.26266444521870536,0.13019999999999998),(-0.84999999999999998,1.0409497792752501E-16,0.13019999999999998),(-0.80839803885088068,-0.26266444521870486,0.13019999999999998),(-0.6876644452187054,-0.49961746444860206,0.13019999999999998),(-0.49961746444860222,-0.68766444521870518,0.13019999999999998),(-0.26266444521870541,-0.80839803885088046,0.13019999999999998),(-1.5614246689128752E-16,-0.84999999999999998,0.13019999999999998),(0.26266444521870513,-0.80839803885088057,0.13019999999999998),(0.49961746444860194,-0.6876644452187054,0.13019999999999998),(0.68766444521870518,-0.49961746444860233,0.13019999999999998),(0.80839803885088046,-0.26266444521870547,0.13019999999999998),(0.20399999999999999,0.,-0.20999999999999999),(0.19401552932421132,0.063039466852489262,-0.20999999999999999),(0.16503946685248927,0.11990819146766452,-0.20999999999999999),(0.11990819146766452,0.16503946685248927,-0.20999999999999999),(0.063039466852489276,0.19401552932421132,-0.20999999999999999),(1.2491397351303001E-17,0.20399999999999999,-0.20999999999999999),(-0.063039466852489248,0.19401552932421134,-0.20999999999999999),(-0.11990819146766449,0.16503946685248927,-0.20999999999999999),(-0.16503946685248924,0.11990819146766453,-0.20999999999999999),(-0.19401552932421132,0.06303946685248929,-0.20999999999999999),(-0.20399999999999999,2.4982794702606002E-17,-0.20999999999999999),(-0.19401552932421134,-0.063039466852489165,-0.20999999999999999),(-0.1650394668524893,-0.11990819146766449,-0.20999999999999999),(-0.11990819146766453,-0.16503946685248924,-0.20999999999999999),(-0.063039466852489304,-0.19401552932421132,-0.20999999999999999),(-3.7474192053909005E-17,-0.20399999999999999,-0.20999999999999999),(0.063039466852489234,-0.19401552932421134,-0.20999999999999999),(0.11990819146766447,-0.1650394668524893,-0.20999999999999999),(0.16503946685248924,-0.11990819146766456,-0.20999999999999999),(0.19401552932421132,-0.063039466852489304,-0.20999999999999999),(0.20399999999999999,0.,0.20999999999999999),(0.19401552932421132,0.063039466852489262,0.20999999999999999),(0.16503946685248927,0.11990819146766452,0.20999999999999999),(0.11990819146766452,0.16503946685248927,0.20999999999999999),(0.063039466852489276,0.19401552932421132,0.20999999999999999),(1.2491397351303001E-17,0.20399999999999999,0.20999999999999999),(-0.063039466852489248,0.19401552932421134,0.20999999999999999),(-0.11990819146766449,0.16503946685248927,0.20999999999999999),(-0.16503946685248924,0.11990819146766453,0.20999999999999999),(-0.19401552932421132,0.06303946685248929,0.20999999999999999),(-0.20399999999999999,2.4982794702606002E-17,0.20999999999999999),(-0.19401552932421134,-0.063039466852489165,0.20999999999999999),(-0.1650394668524893,-0.11990819146766449,0.20999999999999999),(-0.11990819146766453,-0.16503946685248924,0.20999999999999999),(-0.063039466852489304,-0.19401552932421132,0.20999999999999999),(-3.7474192053909005E-17,-0.20399999999999999,0.20999999999999999),(0.063039466852489234,-0.19401552932421134,0.20999999999999999),(0.11990819146766447,-0.1650394668524893,0.20999999999999999),(0.16503946685248924,-0.11990819146766456,0.20999999999999999),(0.19401552932421132,-0.063039466852489304,0.20999999999999999)),$);
#243=IFCINDEXEDPOLYGONALFACE((20,19,18,17,16,15,14,13,12,11,10,9,8,7,6,5,4,3,2,1));
#244=IFCINDEXEDPOLYGONALFACE((21,22,23,24,25,26,27,28,29,30,31,32,33,34,35,36,37,38,39,40));
#245=IFCINDEXEDPOLYGONALFACE((1,2,22,21));
#246=IFCINDEXEDPOLYGONALFACE((2,3,23,22));
#247=IFCINDEXEDPOLYGONALFACE((3,4,24,23));
#248=IFCINDEXEDPOLYGONALFACE((4,5,25,24));
#249=IFCINDEXEDPOLYGONALFACE((5,6,26,25));
#250=IFCINDEXEDPOLYGONALFACE((6,7,27,26));
#251=IFCINDEXEDPOLYGONALFACE((7,8,28,27));
#252=IFCINDEXEDPOLYGONALFACE((8,9,29,28));
#253=IFCINDEXEDPOLYGONALFACE((9,10,30,29));
#254=IFCINDEXEDPOLYGONALFACE((10,11,31,30));
#255=IFCINDEXEDPOLYGONALFACE((11,12,32,31));
#256=IFCINDEXEDPOLYGONALFACE((12,13,33,32));
#257=IFCINDEXEDPOLYGONALFACE((13,14,34,33));
#258=IFCINDEXEDPOLYGONALFACE((14,15,35,34));
#259=IFCINDEXEDPOLYGONALFACE((15,16,36,35));
#260=IFCINDEXEDPOLYGONALFACE((16,17,37,36));
#261=IFCINDEXEDPOLYGONALFACE((17,18,38,37));
#262=IFCINDEXEDPOLYGONALFACE((18,19,39,38));
#263=IFCINDEXEDPOLYGONALFACE((19,20,40,39));
#264=IFCINDEXEDPOLYGONALFACE((20,1,21,40));
#265=IFCINDEXEDPOLYGONALFACE((60,59,58,57,56,55,54,53,52,51,50,49,48,47,46,45,44,43,42,41));
#266=IFCINDEXEDPOLYGONALFACE((61,62,63,64,65,66,67,68,69,70,71,72,73,74,75,76,77,78,79,80));
#267=IFCINDEXEDPOLYGONALFACE((41,42,62,61));
#268=IFCINDEXEDPOLYGONALFACE((42,43,63,62));
#269=IFCINDEXEDPOLYGONALFACE((43,44,64,63));
#270=IFCINDEXEDPOLYGONALFACE((44,45,65,64));
#271=IFCINDEXEDPOLYGONALFACE((45,46,66,65));
#272=IFCINDEXEDPOLYGONALFACE((46,47,67,66));
#273=IFCINDEXEDPOLYGONALFACE((47,48,68,67));
#274=IFCINDEXEDPOLYGONALFACE((48,49,69,68));
#275=IFCINDEXEDPOLYGONALFACE((49,50,70,69));
#276=IFCINDEXEDPOLYGONALFACE((50,51,71,70));
#277=IFCINDEXEDPOLYGONALFACE((51,52,72,71));
#278=IFCINDEXEDPOLYGONALFACE((52,53,73,72));
#279=IFCINDEXEDPOLYGONALFACE((53,54,74,73));
#280=IFCINDEXEDPOLYGONALFACE((54,55,75,74));
#281=IFCINDEXEDPOLYGONALFACE((55,56,76,75));
#282=IFCINDEXEDPOLYGONALFACE((56,57,77,76));
#283=IFCINDEXEDPOLYGONALFACE((57,58,78,77));
#284=IFCINDEXEDPOLYGONALFACE((58,59,79,78));
#285=IFCINDEXEDPOLYGONALFACE((59,60,80,79));
#286=IFCINDEXEDPOLYGONALFACE((60,41,61,80));
#287=IFCPOLYGONALFACESET(#242,$,(#243,#244,#245,#246,#247,#248,#249,#250,#251,#252,#253,#254,#255,#256,#257,#258,#259,#260,#261,#262,#263,#264,#265,#266,#267,#268,#269,#270,#271,#272,#273,#274,#275,#276,#277,#278,#279,#280,#281,#282,#283,#284,#285,#286),$);
#288=IFCSHAPEREPRESENTATION(#13,'Body','Tessellation',(#287));
#289=IFCPRODUCTDEFINITIONSHAPE($,$,(#288));
#290=IFCDISCRETEACCESSORY('3uKq_CgMbJxOr2qPyQLWx$',$,'jacking pad, lifting eye, towing lug, and recovery-label kit','Locally fabricated and proof-marked recovery fittings tied into released underframe load paths.',$,#405,#388,'LM3-BDY-P120',$);
#291=IFCPROPERTYSINGLEVALUE('OSRId',$,IFCTEXT('LM3-BDY-P120'),$);
#292=IFCPROPERTYSINGLEVALUE('Parent',$,IFCTEXT('LM3-BDY-SA110'),$);
#293=IFCPROPERTYSINGLEVALUE('Route',$,IFCTEXT('MAKE'),$);
#294=IFCPROPERTYSINGLEVALUE('Maturity',$,IFCTEXT('release-candidate'),$);
#295=IFCPROPERTYSINGLEVALUE('QuantityPerTrainset',$,IFCINTEGER(3),$);
#296=IFCPROPERTYSINGLEVALUE('Unit',$,IFCTEXT('car kit'),$);
#297=IFCPROPERTYSINGLEVALUE('GeometryStatus',$,IFCTEXT('design-reference-not-released'),$);
#298=IFCPROPERTYSINGLEVALUE('GeometryLevel',$,IFCTEXT('design-reference-detail'),$);
#299=IFCPROPERTYSET('01bXk6cqLPBwggmbZ4rYZq',$,'OSR_ProductDefinition',$,(#291,#292,#293,#294,#295,#296,#297,#298));
#300=IFCRELDEFINESBYPROPERTIES('0kkt6dvYbJYPxWrih0Su30',$,$,$,(#290),#299);
#301=IFCCARTESIANPOINTLIST3D(((-0.64500000000000002,-0.35599999999999998,-0.096599999999999991),(-0.64500000000000002,-0.35599999999999998,-0.026600000000000002),(-0.64500000000000002,-0.075999999999999998,-0.096599999999999991),(-0.64500000000000002,-0.075999999999999998,-0.026600000000000002),(-0.315,-0.35599999999999998,-0.096599999999999991),(-0.315,-0.35599999999999998,-0.026600000000000002),(-0.315,-0.075999999999999998,-0.096599999999999991),(-0.315,-0.075999999999999998,-0.026600000000000002),(-0.52200000000000002,-0.25800000000000001,-0.022599999999999999),(-0.52200000000000002,-0.25800000000000001,0.067400000000000002),(-0.52200000000000002,-0.17399999999999999,-0.022599999999999999),(-0.52200000000000002,-0.17399999999999999,0.067400000000000002),(-0.438,-0.25800000000000001,-0.022599999999999999),(-0.438,-0.25800000000000001,0.067400000000000002),(-0.438,-0.17399999999999999,-0.022599999999999999),(-0.438,-0.17399999999999999,0.067400000000000002),(-0.64500000000000002,0.075999999999999998,-0.096599999999999991),(-0.64500000000000002,0.075999999999999998,-0.026600000000000002),(-0.64500000000000002,0.35599999999999998,-0.096599999999999991),(-0.64500000000000002,0.35599999999999998,-0.026600000000000002),(-0.315,0.075999999999999998,-0.096599999999999991),(-0.315,0.075999999999999998,-0.026600000000000002),(-0.315,0.35599999999999998,-0.096599999999999991),(-0.315,0.35599999999999998,-0.026600000000000002),(-0.52200000000000002,0.17399999999999999,-0.022599999999999999),(-0.52200000000000002,0.17399999999999999,0.067400000000000002),(-0.52200000000000002,0.25800000000000001,-0.022599999999999999),(-0.52200000000000002,0.25800000000000001,0.067400000000000002),(-0.438,0.17399999999999999,-0.022599999999999999),(-0.438,0.17399999999999999,0.067400000000000002),(-0.438,0.25800000000000001,-0.022599999999999999),(-0.438,0.25800000000000001,0.067400000000000002),(0.315,-0.35599999999999998,-0.096599999999999991),(0.315,-0.35599999999999998,-0.026600000000000002),(0.315,-0.075999999999999998,-0.096599999999999991),(0.315,-0.075999999999999998,-0.026600000000000002),(0.64500000000000002,-0.35599999999999998,-0.096599999999999991),(0.64500000000000002,-0.35599999999999998,-0.026600000000000002),(0.64500000000000002,-0.075999999999999998,-0.096599999999999991),(0.64500000000000002,-0.075999999999999998,-0.026600000000000002),(0.438,-0.25800000000000001,-0.022599999999999999),(0.438,-0.25800000000000001,0.067400000000000002),(0.438,-0.17399999999999999,-0.022599999999999999),(0.438,-0.17399999999999999,0.067400000000000002),(0.52200000000000002,-0.25800000000000001,-0.022599999999999999),(0.52200000000000002,-0.25800000000000001,0.067400000000000002),(0.52200000000000002,-0.17399999999999999,-0.022599999999999999),(0.52200000000000002,-0.17399999999999999,0.067400000000000002),(0.315,0.075999999999999998,-0.096599999999999991),(0.315,0.075999999999999998,-0.026600000000000002),(0.315,0.35599999999999998,-0.096599999999999991),(0.315,0.35599999999999998,-0.026600000000000002),(0.64500000000000002,0.075999999999999998,-0.096599999999999991),(0.64500000000000002,0.075999999999999998,-0.026600000000000002),(0.64500000000000002,0.35599999999999998,-0.096599999999999991),(0.64500000000000002,0.35599999999999998,-0.026600000000000002),(0.438,0.17399999999999999,-0.022599999999999999),(0.438,0.17399999999999999,0.067400000000000002),(0.438,0.25800000000000001,-0.022599999999999999),(0.438,0.25800000000000001,0.067400000000000002),(0.52200000000000002,0.17399999999999999,-0.022599999999999999),(0.52200000000000002,0.17399999999999999,0.067400000000000002),(0.52200000000000002,0.25800000000000001,-0.022599999999999999),(0.52200000000000002,0.25800000000000001,0.067400000000000002),(-0.070000000000000007,-0.376,0.044700000000000004),(-0.070000000000000007,-0.376,0.089700000000000002),(-0.070000000000000007,-0.23599999999999999,0.044700000000000004),(-0.070000000000000007,-0.23599999999999999,0.089700000000000002),(0.070000000000000007,-0.376,0.044700000000000004),(0.070000000000000007,-0.376,0.089700000000000002),(0.070000000000000007,-0.23599999999999999,0.044700000000000004),(0.070000000000000007,-0.23599999999999999,0.089700000000000002),(-0.070000000000000007,0.23599999999999999,0.044700000000000004),(-0.070000000000000007,0.23599999999999999,0.089700000000000002),(-0.070000000000000007,0.376,0.044700000000000004),(-0.070000000000000007,0.376,0.089700000000000002),(0.070000000000000007,0.23599999999999999,0.044700000000000004),(0.070000000000000007,0.23599999999999999,0.089700000000000002),(0.070000000000000007,0.376,0.044700000000000004),(0.070000000000000007,0.376,0.089700000000000002),(-0.749,-0.059999999999999998,0.010999999999999999),(-0.749,-0.059999999999999998,0.10100000000000001),(-0.749,0.059999999999999998,0.010999999999999999),(-0.749,0.059999999999999998,0.10100000000000001),(-0.499,-0.059999999999999998,0.010999999999999999),(-0.499,-0.059999999999999998,0.10100000000000001),(-0.499,0.059999999999999998,0.010999999999999999),(-0.499,0.059999999999999998,0.10100000000000001),(0.499,-0.059999999999999998,0.010999999999999999),(0.499,-0.059999999999999998,0.10100000000000001),(0.499,0.059999999999999998,0.010999999999999999),(0.499,0.059999999999999998,0.10100000000000001),(0.749,-0.059999999999999998,0.010999999999999999),(0.749,-0.059999999999999998,0.10100000000000001),(0.749,0.059999999999999998,0.010999999999999999),(0.749,0.059999999999999998,0.10100000000000001),(-0.17499999999999999,-0.42699999999999999,-0.050000000000000003),(-0.17499999999999999,-0.42699999999999999,0.050000000000000003),(-0.17499999999999999,-0.41899999999999998,-0.050000000000000003),(-0.17499999999999999,-0.41899999999999998,0.050000000000000003),(0.17499999999999999,-0.42699999999999999,-0.050000000000000003),(0.17499999999999999,-0.42699999999999999,0.050000000000000003),(0.17499999999999999,-0.41899999999999998,-0.050000000000000003),(0.17499999999999999,-0.41899999999999998,0.050000000000000003),(-0.17499999999999999,0.41899999999999998,-0.050000000000000003),(-0.17499999999999999,0.41899999999999998,0.050000000000000003),(-0.17499999999999999,0.42699999999999999,-0.050000000000000003),(-0.17499999999999999,0.42699999999999999,0.050000000000000003),(0.17499999999999999,0.41899999999999998,-0.050000000000000003),(0.17499999999999999,0.41899999999999998,0.050000000000000003),(0.17499999999999999,0.42699999999999999,-0.050000000000000003),(0.17499999999999999,0.42699999999999999,0.050000000000000003)),$);
#302=IFCINDEXEDPOLYGONALFACE((1,2,4,3));
#303=IFCINDEXEDPOLYGONALFACE((5,7,8,6));
#304=IFCINDEXEDPOLYGONALFACE((1,5,6,2));
#305=IFCINDEXEDPOLYGONALFACE((3,4,8,7));
#306=IFCINDEXEDPOLYGONALFACE((1,3,7,5));
#307=IFCINDEXEDPOLYGONALFACE((2,6,8,4));
#308=IFCINDEXEDPOLYGONALFACE((9,10,12,11));
#309=IFCINDEXEDPOLYGONALFACE((13,15,16,14));
#310=IFCINDEXEDPOLYGONALFACE((9,13,14,10));
#311=IFCINDEXEDPOLYGONALFACE((11,12,16,15));
#312=IFCINDEXEDPOLYGONALFACE((9,11,15,13));
#313=IFCINDEXEDPOLYGONALFACE((10,14,16,12));
#314=IFCINDEXEDPOLYGONALFACE((17,18,20,19));
#315=IFCINDEXEDPOLYGONALFACE((21,23,24,22));
#316=IFCINDEXEDPOLYGONALFACE((17,21,22,18));
#317=IFCINDEXEDPOLYGONALFACE((19,20,24,23));
#318=IFCINDEXEDPOLYGONALFACE((17,19,23,21));
#319=IFCINDEXEDPOLYGONALFACE((18,22,24,20));
#320=IFCINDEXEDPOLYGONALFACE((25,26,28,27));
#321=IFCINDEXEDPOLYGONALFACE((29,31,32,30));
#322=IFCINDEXEDPOLYGONALFACE((25,29,30,26));
#323=IFCINDEXEDPOLYGONALFACE((27,28,32,31));
#324=IFCINDEXEDPOLYGONALFACE((25,27,31,29));
#325=IFCINDEXEDPOLYGONALFACE((26,30,32,28));
#326=IFCINDEXEDPOLYGONALFACE((33,34,36,35));
#327=IFCINDEXEDPOLYGONALFACE((37,39,40,38));
#328=IFCINDEXEDPOLYGONALFACE((33,37,38,34));
#329=IFCINDEXEDPOLYGONALFACE((35,36,40,39));
#330=IFCINDEXEDPOLYGONALFACE((33,35,39,37));
#331=IFCINDEXEDPOLYGONALFACE((34,38,40,36));
#332=IFCINDEXEDPOLYGONALFACE((41,42,44,43));
#333=IFCINDEXEDPOLYGONALFACE((45,47,48,46));
#334=IFCINDEXEDPOLYGONALFACE((41,45,46,42));
#335=IFCINDEXEDPOLYGONALFACE((43,44,48,47));
#336=IFCINDEXEDPOLYGONALFACE((41,43,47,45));
#337=IFCINDEXEDPOLYGONALFACE((42,46,48,44));
#338=IFCINDEXEDPOLYGONALFACE((49,50,52,51));
#339=IFCINDEXEDPOLYGONALFACE((53,55,56,54));
#340=IFCINDEXEDPOLYGONALFACE((49,53,54,50));
#341=IFCINDEXEDPOLYGONALFACE((51,52,56,55));
#342=IFCINDEXEDPOLYGONALFACE((49,51,55,53));
#343=IFCINDEXEDPOLYGONALFACE((50,54,56,52));
#344=IFCINDEXEDPOLYGONALFACE((57,58,60,59));
#345=IFCINDEXEDPOLYGONALFACE((61,63,64,62));
#346=IFCINDEXEDPOLYGONALFACE((57,61,62,58));
#347=IFCINDEXEDPOLYGONALFACE((59,60,64,63));
#348=IFCINDEXEDPOLYGONALFACE((57,59,63,61));
#349=IFCINDEXEDPOLYGONALFACE((58,62,64,60));
#350=IFCINDEXEDPOLYGONALFACE((65,66,68,67));
#351=IFCINDEXEDPOLYGONALFACE((69,71,72,70));
#352=IFCINDEXEDPOLYGONALFACE((65,69,70,66));
#353=IFCINDEXEDPOLYGONALFACE((67,68,72,71));
#354=IFCINDEXEDPOLYGONALFACE((65,67,71,69));
#355=IFCINDEXEDPOLYGONALFACE((66,70,72,68));
#356=IFCINDEXEDPOLYGONALFACE((73,74,76,75));
#357=IFCINDEXEDPOLYGONALFACE((77,79,80,78));
#358=IFCINDEXEDPOLYGONALFACE((73,77,78,74));
#359=IFCINDEXEDPOLYGONALFACE((75,76,80,79));
#360=IFCINDEXEDPOLYGONALFACE((73,75,79,77));
#361=IFCINDEXEDPOLYGONALFACE((74,78,80,76));
#362=IFCINDEXEDPOLYGONALFACE((81,82,84,83));
#363=IFCINDEXEDPOLYGONALFACE((85,87,88,86));
#364=IFCINDEXEDPOLYGONALFACE((81,85,86,82));
#365=IFCINDEXEDPOLYGONALFACE((83,84,88,87));
#366=IFCINDEXEDPOLYGONALFACE((81,83,87,85));
#367=IFCINDEXEDPOLYGONALFACE((82,86,88,84));
#368=IFCINDEXEDPOLYGONALFACE((89,90,92,91));
#369=IFCINDEXEDPOLYGONALFACE((93,95,96,94));
#370=IFCINDEXEDPOLYGONALFACE((89,93,94,90));
#371=IFCINDEXEDPOLYGONALFACE((91,92,96,95));
#372=IFCINDEXEDPOLYGONALFACE((89,91,95,93));
#373=IFCINDEXEDPOLYGONALFACE((90,94,96,92));
#374=IFCINDEXEDPOLYGONALFACE((97,98,100,99));
#375=IFCINDEXEDPOLYGONALFACE((101,103,104,102));
#376=IFCINDEXEDPOLYGONALFACE((97,101,102,98));
#377=IFCINDEXEDPOLYGONALFACE((99,100,104,103));
#378=IFCINDEXEDPOLYGONALFACE((97,99,103,101));
#379=IFCINDEXEDPOLYGONALFACE((98,102,104,100));
#380=IFCINDEXEDPOLYGONALFACE((105,106,108,107));
#381=IFCINDEXEDPOLYGONALFACE((109,111,112,110));
#382=IFCINDEXEDPOLYGONALFACE((105,109,110,106));
#383=IFCINDEXEDPOLYGONALFACE((107,108,112,111));
#384=IFCINDEXEDPOLYGONALFACE((105,107,111,109));
#385=IFCINDEXEDPOLYGONALFACE((106,110,112,108));
#386=IFCPOLYGONALFACESET(#301,$,(#302,#303,#304,#305,#306,#307,#308,#309,#310,#311,#312,#313,#314,#315,#316,#317,#318,#319,#320,#321,#322,#323,#324,#325,#326,#327,#328,#329,#330,#331,#332,#333,#334,#335,#336,#337,#338,#339,#340,#341,#342,#343,#344,#345,#346,#347,#348,#349,#350,#351,#352,#353,#354,#355,#356,#357,#358,#359,#360,#361,#362,#363,#364,#365,#366,#367,#368,#369,#370,#371,#372,#373,#374,#375,#376,#377,#378,#379,#380,#381,#382,#383,#384,#385),$);
#387=IFCSHAPEREPRESENTATION(#13,'Body','Tessellation',(#386));
#388=IFCPRODUCTDEFINITIONSHAPE($,$,(#387));
#389=IFCRELAGGREGATES('1WecJl_sPQfOQCr3r6_tve',$,$,$,#28,(#36,#57,#120,#231,#290));
#390=IFCRELCONTAINEDINSPATIALSTRUCTURE('248sRTdw1NDQXronn0OTHH',$,$,$,(#28),#3);
#391=IFCCARTESIANPOINT((0.,0.,0.));
#392=IFCAXIS2PLACEMENT3D(#391,$,$);
#393=IFCLOCALPLACEMENT($,#392);
#394=IFCCARTESIANPOINT((16.800000000000001,0.,0.));
#395=IFCAXIS2PLACEMENT3D(#394,$,$);
#396=IFCLOCALPLACEMENT($,#395);
#397=IFCCARTESIANPOINT((33.600000000000001,0.,0.));
#398=IFCAXIS2PLACEMENT3D(#397,$,$);
#399=IFCLOCALPLACEMENT($,#398);
#400=IFCCARTESIANPOINT((50.399999999999999,0.,0.));
#401=IFCAXIS2PLACEMENT3D(#400,$,$);
#402=IFCLOCALPLACEMENT($,#401);
#403=IFCCARTESIANPOINT((0.,3.4500000000000002,0.));
#404=IFCAXIS2PLACEMENT3D(#403,$,$);
#405=IFCLOCALPLACEMENT($,#404);
ENDSEC;
END-ISO-10303-21;
