ISO-10303-21;
HEADER;
FILE_DESCRIPTION(('ViewDefinition [CoordinationView]'),'2;1');
FILE_NAME('LM3-DOOR-SA310.ifc','2026-08-30T00:00:00+00:00',('OpenSourceRail'),('OpenSourceRail'),'IfcOpenShell 0.8.5','OpenSourceRail deterministic LM3 product-library exporter','design-reference / not for construction');
FILE_SCHEMA(('IFC4X3_ADD2'));
ENDSEC;
DATA;
#1=IFCPROJECT('1nJmbsGg1TVeqAM3NfFC3L',$,'LM3-DOOR-SA310 \X2\2014\X0\ door cassette and threshold assembly','Design-reference geometry and assembly hierarchy only; supplier freeze, released drawings/tolerances, calculations, qualified processes and first-article tests remain mandatory.',$,$,$,(#12),#7);
#2=IFCSITE('21CQ8XSWzTPAqWmWAtcekV',$,'LM3 product library',$,$,#18,$,$,.ELEMENT.,$,$,$,$,$);
#3=IFCBUILDING('2CxgAI_9TKUf8v2WdUpxjc',$,'LM3 assembly inspection fixture',$,$,#21,$,$,.ELEMENT.,$,$,$);
#4=IFCSIUNIT(*,.LENGTHUNIT.,$,.METRE.);
#5=IFCSIUNIT(*,.AREAUNIT.,$,.SQUARE_METRE.);
#6=IFCSIUNIT(*,.VOLUMEUNIT.,$,.CUBIC_METRE.);
#7=IFCUNITASSIGNMENT((#6,#4,#5));
#8=IFCCARTESIANPOINT((0.,0.,0.));
#9=IFCDIRECTION((0.,0.,1.));
#10=IFCDIRECTION((1.,0.,0.));
#11=IFCAXIS2PLACEMENT3D(#8,#9,#10);
#12=IFCGEOMETRICREPRESENTATIONCONTEXT($,'Model',3,1.0000000000000001E-05,#11,$);
#13=IFCGEOMETRICREPRESENTATIONSUBCONTEXT('Body','Model',*,*,*,*,#12,$,.MODEL_VIEW.,$);
#14=IFCRELAGGREGATES('0c9tzeHjHUVfKhTYigxcnK',$,$,$,#1,(#2));
#15=IFCRELAGGREGATES('1tH33FzaTL2expdbV9XR6D',$,$,$,#2,(#3));
#16=IFCCARTESIANPOINT((0.,0.,0.));
#17=IFCAXIS2PLACEMENT3D(#16,$,$);
#18=IFCLOCALPLACEMENT($,#17);
#19=IFCCARTESIANPOINT((0.,0.,0.));
#20=IFCAXIS2PLACEMENT3D(#19,$,$);
#21=IFCLOCALPLACEMENT($,#20);
#22=IFCPROPERTYSINGLEVALUE('Status',$,IFCTEXT('design-reference-not-released'),$);
#23=IFCPROPERTYSINGLEVALUE('ReleaseBoundary',$,IFCTEXT('Design-reference geometry and assembly hierarchy only; supplier freeze, released drawings/tolerances, calculations, qualified processes and first-article tests remain mandatory.'),$);
#24=IFCPROPERTYSINGLEVALUE('Manifest',$,IFCTEXT('design/component-catalogue/catalog/buildable-trainset/buildable-trainset-manifest.json'),$);
#25=IFCPROPERTYSINGLEVALUE('ManifestSha256',$,IFCTEXT('1179a30e147f3569fc4ccc8ce621621cec7985f620d2c788f8da93eec9ed7c05'),$);
#26=IFCPROPERTYSET('0Se7m8yOrNKxzT$NeLQmg8',$,'OSR_ProductLibrary',$,(#22,#23,#24,#25));
#27=IFCRELDEFINESBYPROPERTIES('1OzglHJKLU$fq_mo1xHaUu',$,$,$,(#1),#26);
#28=IFCELEMENTASSEMBLY('2uncr4vuPLchlw1_dlWJkl',$,'door cassette and threshold assembly','door gauge fit | obstruction test | closed-and-locked test',$,$,$,'LM3-DOOR-SA310',$,$);
#29=IFCPROPERTYSINGLEVALUE('OSRId',$,IFCTEXT('LM3-DOOR-SA310'),$);
#30=IFCPROPERTYSINGLEVALUE('Layer',$,IFCTEXT('subassembly'),$);
#31=IFCPROPERTYSINGLEVALUE('BuildCell',$,IFCTEXT('final assembly and commissioning cell'),$);
#32=IFCPROPERTYSINGLEVALUE('QuantityPerTrainset',$,IFCINTEGER(12),$);
#33=IFCPROPERTYSINGLEVALUE('GeometryStatus',$,IFCTEXT('complete-hierarchy-inspection-layout'),$);
#34=IFCPROPERTYSET('0QiHQczdzUjP3Sc716URY1',$,'OSR_AssemblyDefinition',$,(#29,#30,#31,#32,#33));
#35=IFCRELDEFINESBYPROPERTIES('3Gg54dkKvJXR0_44LzmGrb',$,$,$,(#28),#34);
#36=IFCBUILDINGELEMENTPROXY('0s72UF3kfULurHXj5qLHbW',$,'door portal reinforcement, threshold beam, and cassette shim kit','Machined/folded datum frame that turns the body aperture into a repeatable COTS door cassette interface.',$,#289,#74,'LM3-BDY-P100',$);
#37=IFCPROPERTYSINGLEVALUE('OSRId',$,IFCTEXT('LM3-BDY-P100'),$);
#38=IFCPROPERTYSINGLEVALUE('Parent',$,IFCTEXT('LM3-DOOR-SA310'),$);
#39=IFCPROPERTYSINGLEVALUE('Route',$,IFCTEXT('MAKE'),$);
#40=IFCPROPERTYSINGLEVALUE('Maturity',$,IFCTEXT('release-candidate'),$);
#41=IFCPROPERTYSINGLEVALUE('QuantityPerTrainset',$,IFCINTEGER(12),$);
#42=IFCPROPERTYSINGLEVALUE('Unit',$,IFCTEXT('opening kit'),$);
#43=IFCPROPERTYSINGLEVALUE('GeometryStatus',$,IFCTEXT('design-reference-not-released'),$);
#44=IFCPROPERTYSINGLEVALUE('GeometryLevel',$,IFCTEXT('interface-detailed'),$);
#45=IFCPROPERTYSET('1wbAee$5DStwLKLR1hkYlL',$,'OSR_ProductDefinition',$,(#37,#38,#39,#40,#41,#42,#43,#44));
#46=IFCRELDEFINESBYPROPERTIES('1jIU5aSeHTq8WNXWtalzz8',$,$,$,(#36),#45);
#47=IFCCARTESIANPOINTLIST3D(((-0.75,-0.13,-1.075),(-0.75,-0.13,1.075),(-0.75,0.13,-1.075),(-0.75,0.13,1.075),(-0.60999999999999999,-0.13,-1.075),(-0.60999999999999999,-0.13,1.075),(-0.60999999999999999,0.13,-1.075),(-0.60999999999999999,0.13,1.075),(0.60999999999999999,-0.13,-1.075),(0.60999999999999999,-0.13,1.075),(0.60999999999999999,0.13,-1.075),(0.60999999999999999,0.13,1.075),(0.75,-0.13,-1.075),(0.75,-0.13,1.075),(0.75,0.13,-1.075),(0.75,0.13,1.075),(-0.60999999999999999,-0.13,0.93500000000000005),(-0.60999999999999999,-0.13,1.075),(-0.60999999999999999,0.13,0.93500000000000005),(-0.60999999999999999,0.13,1.075),(0.60999999999999999,-0.13,0.93500000000000005),(0.60999999999999999,-0.13,1.075),(0.60999999999999999,0.13,0.93500000000000005),(0.60999999999999999,0.13,1.075),(-0.60999999999999999,-0.13,-1.075),(-0.60999999999999999,-0.13,-0.93500000000000005),(-0.60999999999999999,0.13,-1.075),(-0.60999999999999999,0.13,-0.93500000000000005),(0.60999999999999999,-0.13,-1.075),(0.60999999999999999,-0.13,-0.93500000000000005),(0.60999999999999999,0.13,-1.075),(0.60999999999999999,0.13,-0.93500000000000005)),$);
#48=IFCINDEXEDPOLYGONALFACE((1,2,4,3));
#49=IFCINDEXEDPOLYGONALFACE((5,7,8,6));
#50=IFCINDEXEDPOLYGONALFACE((1,5,6,2));
#51=IFCINDEXEDPOLYGONALFACE((3,4,8,7));
#52=IFCINDEXEDPOLYGONALFACE((1,3,7,5));
#53=IFCINDEXEDPOLYGONALFACE((2,6,8,4));
#54=IFCINDEXEDPOLYGONALFACE((9,10,12,11));
#55=IFCINDEXEDPOLYGONALFACE((13,15,16,14));
#56=IFCINDEXEDPOLYGONALFACE((9,13,14,10));
#57=IFCINDEXEDPOLYGONALFACE((11,12,16,15));
#58=IFCINDEXEDPOLYGONALFACE((9,11,15,13));
#59=IFCINDEXEDPOLYGONALFACE((10,14,16,12));
#60=IFCINDEXEDPOLYGONALFACE((17,18,20,19));
#61=IFCINDEXEDPOLYGONALFACE((21,23,24,22));
#62=IFCINDEXEDPOLYGONALFACE((17,21,22,18));
#63=IFCINDEXEDPOLYGONALFACE((19,20,24,23));
#64=IFCINDEXEDPOLYGONALFACE((17,19,23,21));
#65=IFCINDEXEDPOLYGONALFACE((18,22,24,20));
#66=IFCINDEXEDPOLYGONALFACE((25,26,28,27));
#67=IFCINDEXEDPOLYGONALFACE((29,31,32,30));
#68=IFCINDEXEDPOLYGONALFACE((25,29,30,26));
#69=IFCINDEXEDPOLYGONALFACE((27,28,32,31));
#70=IFCINDEXEDPOLYGONALFACE((25,27,31,29));
#71=IFCINDEXEDPOLYGONALFACE((26,30,32,28));
#72=IFCPOLYGONALFACESET(#47,$,(#48,#49,#50,#51,#52,#53,#54,#55,#56,#57,#58,#59,#60,#61,#62,#63,#64,#65,#66,#67,#68,#69,#70,#71),$);
#73=IFCSHAPEREPRESENTATION(#13,'Body','Tessellation',(#72));
#74=IFCPRODUCTDEFINITIONSHAPE($,$,(#73));
#75=IFCBUILDINGELEMENTPROXY('0L5Vc33WLUnvwmMuCPUfiW',$,'door four-point adjustable carrier, datum pin, dry seal, and keyed connector bracket kit','The certified door remains a complete supplier cassette; four common adjustable shoes absorb body tolerance and make removal predictable.',$,#292,#179,'LM3-DOOR-P010',$);
#76=IFCPROPERTYSINGLEVALUE('OSRId',$,IFCTEXT('LM3-DOOR-P010'),$);
#77=IFCPROPERTYSINGLEVALUE('Parent',$,IFCTEXT('LM3-DOOR-SA310'),$);
#78=IFCPROPERTYSINGLEVALUE('Route',$,IFCTEXT('MAKE'),$);
#79=IFCPROPERTYSINGLEVALUE('Maturity',$,IFCTEXT('concept'),$);
#80=IFCPROPERTYSINGLEVALUE('QuantityPerTrainset',$,IFCINTEGER(12),$);
#81=IFCPROPERTYSINGLEVALUE('Unit',$,IFCTEXT('opening kit'),$);
#82=IFCPROPERTYSINGLEVALUE('GeometryStatus',$,IFCTEXT('design-reference-not-released'),$);
#83=IFCPROPERTYSINGLEVALUE('GeometryLevel',$,IFCTEXT('interface-detailed'),$);
#84=IFCPROPERTYSET('1yJvbv19fPz9tezkNTMIvW',$,'OSR_ProductDefinition',$,(#76,#77,#78,#79,#80,#81,#82,#83));
#85=IFCRELDEFINESBYPROPERTIES('3_HLADZUrL1Qvy_Gmo6c8w',$,$,$,(#75),#84);
#86=IFCCARTESIANPOINTLIST3D(((-0.75,-0.13,0.92400000000000004),(-0.75,-0.13,1.054),(-0.75,0.13,0.92400000000000004),(-0.75,0.13,1.054),(0.75,-0.13,0.92400000000000004),(0.75,-0.13,1.054),(0.75,0.13,0.92400000000000004),(0.75,0.13,1.054),(-0.75,-0.13,-1.075),(-0.75,-0.13,1.075),(-0.75,0.13,-1.075),(-0.75,0.13,1.075),(-0.62,-0.13,-1.075),(-0.62,-0.13,1.075),(-0.62,0.13,-1.075),(-0.62,0.13,1.075),(0.62,-0.13,-1.075),(0.62,-0.13,1.075),(0.62,0.13,-1.075),(0.62,0.13,1.075),(0.75,-0.13,-1.075),(0.75,-0.13,1.075),(0.75,0.13,-1.075),(0.75,0.13,1.075),(-0.75,-0.13,-1.0654999999999999),(-0.75,-0.13,-0.9554999999999999),(-0.75,0.13,-1.0654999999999999),(-0.75,0.13,-0.9554999999999999),(0.75,-0.13,-1.0654999999999999),(0.75,-0.13,-0.9554999999999999),(0.75,0.13,-1.0654999999999999),(0.75,0.13,-0.9554999999999999),(0.21000000000000002,-0.084500000000000006,0.70950000000000002),(0.21000000000000002,-0.084500000000000006,0.96750000000000003),(0.21000000000000002,0.084500000000000006,0.70950000000000002),(0.21000000000000002,0.084500000000000006,0.96750000000000003),(0.63000000000000012,-0.084500000000000006,0.70950000000000002),(0.63000000000000012,-0.084500000000000006,0.96750000000000003),(0.63000000000000012,0.084500000000000006,0.70950000000000002),(0.63000000000000012,0.084500000000000006,0.96750000000000003),(-0.63,-0.1066,-0.90700000000000003),(-0.63,-0.1066,-0.72699999999999998),(-0.63,0.1066,-0.90700000000000003),(-0.63,0.1066,-0.72699999999999998),(-0.45000000000000001,-0.1066,-0.90700000000000003),(-0.45000000000000001,-0.1066,-0.72699999999999998),(-0.45000000000000001,0.1066,-0.90700000000000003),(-0.45000000000000001,0.1066,-0.72699999999999998),(-0.55400000000000005,-0.13,-0.83099999999999996),(-0.55400000000000005,-0.13,-0.80300000000000005),(-0.55400000000000005,0.13,-0.83099999999999996),(-0.55400000000000005,0.13,-0.80300000000000005),(-0.52600000000000002,-0.13,-0.83099999999999996),(-0.52600000000000002,-0.13,-0.80300000000000005),(-0.52600000000000002,0.13,-0.83099999999999996),(-0.52600000000000002,0.13,-0.80300000000000005),(-0.63,-0.1066,0.72699999999999998),(-0.63,-0.1066,0.90700000000000003),(-0.63,0.1066,0.72699999999999998),(-0.63,0.1066,0.90700000000000003),(-0.45000000000000001,-0.1066,0.72699999999999998),(-0.45000000000000001,-0.1066,0.90700000000000003),(-0.45000000000000001,0.1066,0.72699999999999998),(-0.45000000000000001,0.1066,0.90700000000000003),(-0.55400000000000005,-0.13,0.80300000000000005),(-0.55400000000000005,-0.13,0.83099999999999996),(-0.55400000000000005,0.13,0.80300000000000005),(-0.55400000000000005,0.13,0.83099999999999996),(-0.52600000000000002,-0.13,0.80300000000000005),(-0.52600000000000002,-0.13,0.83099999999999996),(-0.52600000000000002,0.13,0.80300000000000005),(-0.52600000000000002,0.13,0.83099999999999996),(0.45000000000000001,-0.1066,-0.90700000000000003),(0.45000000000000001,-0.1066,-0.72699999999999998),(0.45000000000000001,0.1066,-0.90700000000000003),(0.45000000000000001,0.1066,-0.72699999999999998),(0.63,-0.1066,-0.90700000000000003),(0.63,-0.1066,-0.72699999999999998),(0.63,0.1066,-0.90700000000000003),(0.63,0.1066,-0.72699999999999998),(0.52600000000000002,-0.13,-0.83099999999999996),(0.52600000000000002,-0.13,-0.80300000000000005),(0.52600000000000002,0.13,-0.83099999999999996),(0.52600000000000002,0.13,-0.80300000000000005),(0.55400000000000005,-0.13,-0.83099999999999996),(0.55400000000000005,-0.13,-0.80300000000000005),(0.55400000000000005,0.13,-0.83099999999999996),(0.55400000000000005,0.13,-0.80300000000000005),(0.45000000000000001,-0.1066,0.72699999999999998),(0.45000000000000001,-0.1066,0.90700000000000003),(0.45000000000000001,0.1066,0.72699999999999998),(0.45000000000000001,0.1066,0.90700000000000003),(0.63,-0.1066,0.72699999999999998),(0.63,-0.1066,0.90700000000000003),(0.63,0.1066,0.72699999999999998),(0.63,0.1066,0.90700000000000003),(0.52600000000000002,-0.13,0.80300000000000005),(0.52600000000000002,-0.13,0.83099999999999996),(0.52600000000000002,0.13,0.80300000000000005),(0.52600000000000002,0.13,0.83099999999999996),(0.55400000000000005,-0.13,0.80300000000000005),(0.55400000000000005,-0.13,0.83099999999999996),(0.55400000000000005,0.13,0.80300000000000005),(0.55400000000000005,0.13,0.83099999999999996),(-0.61250000000000004,-0.058500000000000003,-0.83850000000000002),(-0.61250000000000004,-0.058500000000000003,0.83850000000000002),(-0.61250000000000004,0.058500000000000003,-0.83850000000000002),(-0.61250000000000004,0.058500000000000003,0.83850000000000002),(-0.5575,-0.058500000000000003,-0.83850000000000002),(-0.5575,-0.058500000000000003,0.83850000000000002),(-0.5575,0.058500000000000003,-0.83850000000000002),(-0.5575,0.058500000000000003,0.83850000000000002),(0.5575,-0.058500000000000003,-0.83850000000000002),(0.5575,-0.058500000000000003,0.83850000000000002),(0.5575,0.058500000000000003,-0.83850000000000002),(0.5575,0.058500000000000003,0.83850000000000002),(0.61250000000000004,-0.058500000000000003,-0.83850000000000002),(0.61250000000000004,-0.058500000000000003,0.83850000000000002),(0.61250000000000004,0.058500000000000003,-0.83850000000000002),(0.61250000000000004,0.058500000000000003,0.83850000000000002)),$);
#87=IFCINDEXEDPOLYGONALFACE((1,2,4,3));
#88=IFCINDEXEDPOLYGONALFACE((5,7,8,6));
#89=IFCINDEXEDPOLYGONALFACE((1,5,6,2));
#90=IFCINDEXEDPOLYGONALFACE((3,4,8,7));
#91=IFCINDEXEDPOLYGONALFACE((1,3,7,5));
#92=IFCINDEXEDPOLYGONALFACE((2,6,8,4));
#93=IFCINDEXEDPOLYGONALFACE((9,10,12,11));
#94=IFCINDEXEDPOLYGONALFACE((13,15,16,14));
#95=IFCINDEXEDPOLYGONALFACE((9,13,14,10));
#96=IFCINDEXEDPOLYGONALFACE((11,12,16,15));
#97=IFCINDEXEDPOLYGONALFACE((9,11,15,13));
#98=IFCINDEXEDPOLYGONALFACE((10,14,16,12));
#99=IFCINDEXEDPOLYGONALFACE((17,18,20,19));
#100=IFCINDEXEDPOLYGONALFACE((21,23,24,22));
#101=IFCINDEXEDPOLYGONALFACE((17,21,22,18));
#102=IFCINDEXEDPOLYGONALFACE((19,20,24,23));
#103=IFCINDEXEDPOLYGONALFACE((17,19,23,21));
#104=IFCINDEXEDPOLYGONALFACE((18,22,24,20));
#105=IFCINDEXEDPOLYGONALFACE((25,26,28,27));
#106=IFCINDEXEDPOLYGONALFACE((29,31,32,30));
#107=IFCINDEXEDPOLYGONALFACE((25,29,30,26));
#108=IFCINDEXEDPOLYGONALFACE((27,28,32,31));
#109=IFCINDEXEDPOLYGONALFACE((25,27,31,29));
#110=IFCINDEXEDPOLYGONALFACE((26,30,32,28));
#111=IFCINDEXEDPOLYGONALFACE((33,34,36,35));
#112=IFCINDEXEDPOLYGONALFACE((37,39,40,38));
#113=IFCINDEXEDPOLYGONALFACE((33,37,38,34));
#114=IFCINDEXEDPOLYGONALFACE((35,36,40,39));
#115=IFCINDEXEDPOLYGONALFACE((33,35,39,37));
#116=IFCINDEXEDPOLYGONALFACE((34,38,40,36));
#117=IFCINDEXEDPOLYGONALFACE((41,42,44,43));
#118=IFCINDEXEDPOLYGONALFACE((45,47,48,46));
#119=IFCINDEXEDPOLYGONALFACE((41,45,46,42));
#120=IFCINDEXEDPOLYGONALFACE((43,44,48,47));
#121=IFCINDEXEDPOLYGONALFACE((41,43,47,45));
#122=IFCINDEXEDPOLYGONALFACE((42,46,48,44));
#123=IFCINDEXEDPOLYGONALFACE((49,50,52,51));
#124=IFCINDEXEDPOLYGONALFACE((53,55,56,54));
#125=IFCINDEXEDPOLYGONALFACE((49,53,54,50));
#126=IFCINDEXEDPOLYGONALFACE((51,52,56,55));
#127=IFCINDEXEDPOLYGONALFACE((49,51,55,53));
#128=IFCINDEXEDPOLYGONALFACE((50,54,56,52));
#129=IFCINDEXEDPOLYGONALFACE((57,58,60,59));
#130=IFCINDEXEDPOLYGONALFACE((61,63,64,62));
#131=IFCINDEXEDPOLYGONALFACE((57,61,62,58));
#132=IFCINDEXEDPOLYGONALFACE((59,60,64,63));
#133=IFCINDEXEDPOLYGONALFACE((57,59,63,61));
#134=IFCINDEXEDPOLYGONALFACE((58,62,64,60));
#135=IFCINDEXEDPOLYGONALFACE((65,66,68,67));
#136=IFCINDEXEDPOLYGONALFACE((69,71,72,70));
#137=IFCINDEXEDPOLYGONALFACE((65,69,70,66));
#138=IFCINDEXEDPOLYGONALFACE((67,68,72,71));
#139=IFCINDEXEDPOLYGONALFACE((65,67,71,69));
#140=IFCINDEXEDPOLYGONALFACE((66,70,72,68));
#141=IFCINDEXEDPOLYGONALFACE((73,74,76,75));
#142=IFCINDEXEDPOLYGONALFACE((77,79,80,78));
#143=IFCINDEXEDPOLYGONALFACE((73,77,78,74));
#144=IFCINDEXEDPOLYGONALFACE((75,76,80,79));
#145=IFCINDEXEDPOLYGONALFACE((73,75,79,77));
#146=IFCINDEXEDPOLYGONALFACE((74,78,80,76));
#147=IFCINDEXEDPOLYGONALFACE((81,82,84,83));
#148=IFCINDEXEDPOLYGONALFACE((85,87,88,86));
#149=IFCINDEXEDPOLYGONALFACE((81,85,86,82));
#150=IFCINDEXEDPOLYGONALFACE((83,84,88,87));
#151=IFCINDEXEDPOLYGONALFACE((81,83,87,85));
#152=IFCINDEXEDPOLYGONALFACE((82,86,88,84));
#153=IFCINDEXEDPOLYGONALFACE((89,90,92,91));
#154=IFCINDEXEDPOLYGONALFACE((93,95,96,94));
#155=IFCINDEXEDPOLYGONALFACE((89,93,94,90));
#156=IFCINDEXEDPOLYGONALFACE((91,92,96,95));
#157=IFCINDEXEDPOLYGONALFACE((89,91,95,93));
#158=IFCINDEXEDPOLYGONALFACE((90,94,96,92));
#159=IFCINDEXEDPOLYGONALFACE((97,98,100,99));
#160=IFCINDEXEDPOLYGONALFACE((101,103,104,102));
#161=IFCINDEXEDPOLYGONALFACE((97,101,102,98));
#162=IFCINDEXEDPOLYGONALFACE((99,100,104,103));
#163=IFCINDEXEDPOLYGONALFACE((97,99,103,101));
#164=IFCINDEXEDPOLYGONALFACE((98,102,104,100));
#165=IFCINDEXEDPOLYGONALFACE((105,106,108,107));
#166=IFCINDEXEDPOLYGONALFACE((109,111,112,110));
#167=IFCINDEXEDPOLYGONALFACE((105,109,110,106));
#168=IFCINDEXEDPOLYGONALFACE((107,108,112,111));
#169=IFCINDEXEDPOLYGONALFACE((105,107,111,109));
#170=IFCINDEXEDPOLYGONALFACE((106,110,112,108));
#171=IFCINDEXEDPOLYGONALFACE((113,114,116,115));
#172=IFCINDEXEDPOLYGONALFACE((117,119,120,118));
#173=IFCINDEXEDPOLYGONALFACE((113,117,118,114));
#174=IFCINDEXEDPOLYGONALFACE((115,116,120,119));
#175=IFCINDEXEDPOLYGONALFACE((113,115,119,117));
#176=IFCINDEXEDPOLYGONALFACE((114,118,120,116));
#177=IFCPOLYGONALFACESET(#86,$,(#87,#88,#89,#90,#91,#92,#93,#94,#95,#96,#97,#98,#99,#100,#101,#102,#103,#104,#105,#106,#107,#108,#109,#110,#111,#112,#113,#114,#115,#116,#117,#118,#119,#120,#121,#122,#123,#124,#125,#126,#127,#128,#129,#130,#131,#132,#133,#134,#135,#136,#137,#138,#139,#140,#141,#142,#143,#144,#145,#146,#147,#148,#149,#150,#151,#152,#153,#154,#155,#156,#157,#158,#159,#160,#161,#162,#163,#164,#165,#166,#167,#168,#169,#170,#171,#172,#173,#174,#175,#176),$);
#178=IFCSHAPEREPRESENTATION(#13,'Body','Tessellation',(#177));
#179=IFCPRODUCTDEFINITIONSHAPE($,$,(#178));
#180=IFCDOOR('0XZnYghSDG5vjZzauJyDQ7',$,'electric plug/sliding door cassette','Certified rail door supplier owns mechanics, seals, controller, and lifecycle evidence.',$,#295,#284,'LM3-EXT-P010',$,$,$,$,$);
#181=IFCPROPERTYSINGLEVALUE('OSRId',$,IFCTEXT('LM3-EXT-P010'),$);
#182=IFCPROPERTYSINGLEVALUE('Parent',$,IFCTEXT('LM3-DOOR-SA310'),$);
#183=IFCPROPERTYSINGLEVALUE('Route',$,IFCTEXT('BID'),$);
#184=IFCPROPERTYSINGLEVALUE('Maturity',$,IFCTEXT('buildable-after-supplier-freeze'),$);
#185=IFCPROPERTYSINGLEVALUE('QuantityPerTrainset',$,IFCINTEGER(12),$);
#186=IFCPROPERTYSINGLEVALUE('Unit',$,IFCTEXT('ea'),$);
#187=IFCPROPERTYSINGLEVALUE('GeometryStatus',$,IFCTEXT('design-reference-not-released'),$);
#188=IFCPROPERTYSINGLEVALUE('GeometryLevel',$,IFCTEXT('coordination-envelope'),$);
#189=IFCPROPERTYSET('2fBEEef7DT_vnLQYafolsf',$,'OSR_ProductDefinition',$,(#181,#182,#183,#184,#185,#186,#187,#188));
#190=IFCRELDEFINESBYPROPERTIES('26U0Ete6rSsQnAVb1168yu',$,$,$,(#180),#189);
#191=IFCCARTESIANPOINTLIST3D(((-0.67500000000000004,-0.13,-1.0249999999999999),(-0.67500000000000004,-0.13,1.0249999999999999),(-0.67500000000000004,0.13,-1.0249999999999999),(-0.67500000000000004,0.13,1.0249999999999999),(-0.54000000000000004,-0.13,-1.0249999999999999),(-0.54000000000000004,-0.13,1.0249999999999999),(-0.54000000000000004,0.13,-1.0249999999999999),(-0.54000000000000004,0.13,1.0249999999999999),(0.54000000000000004,-0.13,-1.0249999999999999),(0.54000000000000004,-0.13,1.0249999999999999),(0.54000000000000004,0.13,-1.0249999999999999),(0.54000000000000004,0.13,1.0249999999999999),(0.67500000000000004,-0.13,-1.0249999999999999),(0.67500000000000004,-0.13,1.0249999999999999),(0.67500000000000004,0.13,-1.0249999999999999),(0.67500000000000004,0.13,1.0249999999999999),(-0.54000000000000004,-0.13,0.89000000000000001),(-0.54000000000000004,-0.13,1.0249999999999999),(-0.54000000000000004,0.13,0.89000000000000001),(-0.54000000000000004,0.13,1.0249999999999999),(0.54000000000000004,-0.13,0.89000000000000001),(0.54000000000000004,-0.13,1.0249999999999999),(0.54000000000000004,0.13,0.89000000000000001),(0.54000000000000004,0.13,1.0249999999999999),(-0.54000000000000004,-0.13,-1.0249999999999999),(-0.54000000000000004,-0.13,-0.89000000000000001),(-0.54000000000000004,0.13,-1.0249999999999999),(-0.54000000000000004,0.13,-0.89000000000000001),(0.54000000000000004,-0.13,-1.0249999999999999),(0.54000000000000004,-0.13,-0.89000000000000001),(0.54000000000000004,0.13,-1.0249999999999999),(0.54000000000000004,0.13,-0.89000000000000001),(-0.59399999999999997,-0.058500000000000003,-0.85075000000000001),(-0.59399999999999997,-0.058500000000000003,0.85075000000000001),(-0.59399999999999997,0.058500000000000003,-0.85075000000000001),(-0.59399999999999997,0.058500000000000003,0.85075000000000001),(-0.027,-0.058500000000000003,-0.85075000000000001),(-0.027,-0.058500000000000003,0.85075000000000001),(-0.027,0.058500000000000003,-0.85075000000000001),(-0.027,0.058500000000000003,0.85075000000000001),(-0.57131999999999994,-0.023399999999999997,-0.90400000000000003),(-0.57131999999999994,-0.023399999999999997,-0.85899999999999999),(-0.57131999999999994,0.023399999999999997,-0.90400000000000003),(-0.57131999999999994,0.023399999999999997,-0.85899999999999999),(-0.049680000000000009,-0.023399999999999997,-0.90400000000000003),(-0.049680000000000009,-0.023399999999999997,-0.85899999999999999),(-0.049680000000000009,0.023399999999999997,-0.90400000000000003),(-0.049680000000000009,0.023399999999999997,-0.85899999999999999),(0.0044999999999999997,-0.041599999999999998,-0.77900000000000003),(0.0044999999999999997,-0.041599999999999998,0.77900000000000003),(0.0044999999999999997,0.041599999999999998,-0.77900000000000003),(0.0044999999999999997,0.041599999999999998,0.77900000000000003),(0.049500000000000002,-0.041599999999999998,-0.77900000000000003),(0.049500000000000002,-0.041599999999999998,0.77900000000000003),(0.049500000000000002,0.041599999999999998,-0.77900000000000003),(0.049500000000000002,0.041599999999999998,0.77900000000000003),(-0.38900000000000001,-0.071499999999999994,0.78200000000000003),(-0.38900000000000001,-0.071499999999999994,0.85799999999999998),(-0.38900000000000001,0.071499999999999994,0.78200000000000003),(-0.38900000000000001,0.071499999999999994,0.85799999999999998),(-0.313,-0.071499999999999994,0.78200000000000003),(-0.313,-0.071499999999999994,0.85799999999999998),(-0.313,0.071499999999999994,0.78200000000000003),(-0.313,0.071499999999999994,0.85799999999999998),(0.027,-0.058500000000000003,-0.85075000000000001),(0.027,-0.058500000000000003,0.85075000000000001),(0.027,0.058500000000000003,-0.85075000000000001),(0.027,0.058500000000000003,0.85075000000000001),(0.59399999999999997,-0.058500000000000003,-0.85075000000000001),(0.59399999999999997,-0.058500000000000003,0.85075000000000001),(0.59399999999999997,0.058500000000000003,-0.85075000000000001),(0.59399999999999997,0.058500000000000003,0.85075000000000001),(0.049680000000000009,-0.023399999999999997,-0.90400000000000003),(0.049680000000000009,-0.023399999999999997,-0.85899999999999999),(0.049680000000000009,0.023399999999999997,-0.90400000000000003),(0.049680000000000009,0.023399999999999997,-0.85899999999999999),(0.57131999999999994,-0.023399999999999997,-0.90400000000000003),(0.57131999999999994,-0.023399999999999997,-0.85899999999999999),(0.57131999999999994,0.023399999999999997,-0.90400000000000003),(0.57131999999999994,0.023399999999999997,-0.85899999999999999),(-0.049500000000000002,-0.041599999999999998,-0.77900000000000003),(-0.049500000000000002,-0.041599999999999998,0.77900000000000003),(-0.049500000000000002,0.041599999999999998,-0.77900000000000003),(-0.049500000000000002,0.041599999999999998,0.77900000000000003),(-0.0044999999999999997,-0.041599999999999998,-0.77900000000000003),(-0.0044999999999999997,-0.041599999999999998,0.77900000000000003),(-0.0044999999999999997,0.041599999999999998,-0.77900000000000003),(-0.0044999999999999997,0.041599999999999998,0.77900000000000003),(0.313,-0.071499999999999994,0.78200000000000003),(0.313,-0.071499999999999994,0.85799999999999998),(0.313,0.071499999999999994,0.78200000000000003),(0.313,0.071499999999999994,0.85799999999999998),(0.38900000000000001,-0.071499999999999994,0.78200000000000003),(0.38900000000000001,-0.071499999999999994,0.85799999999999998),(0.38900000000000001,0.071499999999999994,0.78200000000000003),(0.38900000000000001,0.071499999999999994,0.85799999999999998),(-0.55349999999999999,-0.080599999999999991,0.82150000000000001),(-0.55349999999999999,-0.080599999999999991,0.9415),(-0.55349999999999999,0.080599999999999991,0.82150000000000001),(-0.55349999999999999,0.080599999999999991,0.9415),(0.55349999999999999,-0.080599999999999991,0.82150000000000001),(0.55349999999999999,-0.080599999999999991,0.9415),(0.55349999999999999,0.080599999999999991,0.82150000000000001),(0.55349999999999999,0.080599999999999991,0.9415),(0.28800000000000003,-0.080599999999999991,0.79149999999999998),(0.28800000000000003,-0.080599999999999991,0.97150000000000003),(0.28800000000000003,0.080599999999999991,0.79149999999999998),(0.28800000000000003,0.080599999999999991,0.97150000000000003),(0.46800000000000008,-0.080599999999999991,0.79149999999999998),(0.46800000000000008,-0.080599999999999991,0.97150000000000003),(0.46800000000000008,0.080599999999999991,0.79149999999999998),(0.46800000000000008,0.080599999999999991,0.97150000000000003),(-0.11,-0.093599999999999989,0.52500000000000002),(-0.11,-0.093599999999999989,0.70499999999999996),(-0.11,0.093599999999999989,0.52500000000000002),(-0.11,0.093599999999999989,0.70499999999999996),(0.11,-0.093599999999999989,0.52500000000000002),(0.11,-0.093599999999999989,0.70499999999999996),(0.11,0.093599999999999989,0.52500000000000002),(0.11,0.093599999999999989,0.70499999999999996)),$);
#192=IFCINDEXEDPOLYGONALFACE((1,2,4,3));
#193=IFCINDEXEDPOLYGONALFACE((5,7,8,6));
#194=IFCINDEXEDPOLYGONALFACE((1,5,6,2));
#195=IFCINDEXEDPOLYGONALFACE((3,4,8,7));
#196=IFCINDEXEDPOLYGONALFACE((1,3,7,5));
#197=IFCINDEXEDPOLYGONALFACE((2,6,8,4));
#198=IFCINDEXEDPOLYGONALFACE((9,10,12,11));
#199=IFCINDEXEDPOLYGONALFACE((13,15,16,14));
#200=IFCINDEXEDPOLYGONALFACE((9,13,14,10));
#201=IFCINDEXEDPOLYGONALFACE((11,12,16,15));
#202=IFCINDEXEDPOLYGONALFACE((9,11,15,13));
#203=IFCINDEXEDPOLYGONALFACE((10,14,16,12));
#204=IFCINDEXEDPOLYGONALFACE((17,18,20,19));
#205=IFCINDEXEDPOLYGONALFACE((21,23,24,22));
#206=IFCINDEXEDPOLYGONALFACE((17,21,22,18));
#207=IFCINDEXEDPOLYGONALFACE((19,20,24,23));
#208=IFCINDEXEDPOLYGONALFACE((17,19,23,21));
#209=IFCINDEXEDPOLYGONALFACE((18,22,24,20));
#210=IFCINDEXEDPOLYGONALFACE((25,26,28,27));
#211=IFCINDEXEDPOLYGONALFACE((29,31,32,30));
#212=IFCINDEXEDPOLYGONALFACE((25,29,30,26));
#213=IFCINDEXEDPOLYGONALFACE((27,28,32,31));
#214=IFCINDEXEDPOLYGONALFACE((25,27,31,29));
#215=IFCINDEXEDPOLYGONALFACE((26,30,32,28));
#216=IFCINDEXEDPOLYGONALFACE((33,34,36,35));
#217=IFCINDEXEDPOLYGONALFACE((37,39,40,38));
#218=IFCINDEXEDPOLYGONALFACE((33,37,38,34));
#219=IFCINDEXEDPOLYGONALFACE((35,36,40,39));
#220=IFCINDEXEDPOLYGONALFACE((33,35,39,37));
#221=IFCINDEXEDPOLYGONALFACE((34,38,40,36));
#222=IFCINDEXEDPOLYGONALFACE((41,42,44,43));
#223=IFCINDEXEDPOLYGONALFACE((45,47,48,46));
#224=IFCINDEXEDPOLYGONALFACE((41,45,46,42));
#225=IFCINDEXEDPOLYGONALFACE((43,44,48,47));
#226=IFCINDEXEDPOLYGONALFACE((41,43,47,45));
#227=IFCINDEXEDPOLYGONALFACE((42,46,48,44));
#228=IFCINDEXEDPOLYGONALFACE((49,50,52,51));
#229=IFCINDEXEDPOLYGONALFACE((53,55,56,54));
#230=IFCINDEXEDPOLYGONALFACE((49,53,54,50));
#231=IFCINDEXEDPOLYGONALFACE((51,52,56,55));
#232=IFCINDEXEDPOLYGONALFACE((49,51,55,53));
#233=IFCINDEXEDPOLYGONALFACE((50,54,56,52));
#234=IFCINDEXEDPOLYGONALFACE((57,58,60,59));
#235=IFCINDEXEDPOLYGONALFACE((61,63,64,62));
#236=IFCINDEXEDPOLYGONALFACE((57,61,62,58));
#237=IFCINDEXEDPOLYGONALFACE((59,60,64,63));
#238=IFCINDEXEDPOLYGONALFACE((57,59,63,61));
#239=IFCINDEXEDPOLYGONALFACE((58,62,64,60));
#240=IFCINDEXEDPOLYGONALFACE((65,66,68,67));
#241=IFCINDEXEDPOLYGONALFACE((69,71,72,70));
#242=IFCINDEXEDPOLYGONALFACE((65,69,70,66));
#243=IFCINDEXEDPOLYGONALFACE((67,68,72,71));
#244=IFCINDEXEDPOLYGONALFACE((65,67,71,69));
#245=IFCINDEXEDPOLYGONALFACE((66,70,72,68));
#246=IFCINDEXEDPOLYGONALFACE((73,74,76,75));
#247=IFCINDEXEDPOLYGONALFACE((77,79,80,78));
#248=IFCINDEXEDPOLYGONALFACE((73,77,78,74));
#249=IFCINDEXEDPOLYGONALFACE((75,76,80,79));
#250=IFCINDEXEDPOLYGONALFACE((73,75,79,77));
#251=IFCINDEXEDPOLYGONALFACE((74,78,80,76));
#252=IFCINDEXEDPOLYGONALFACE((81,82,84,83));
#253=IFCINDEXEDPOLYGONALFACE((85,87,88,86));
#254=IFCINDEXEDPOLYGONALFACE((81,85,86,82));
#255=IFCINDEXEDPOLYGONALFACE((83,84,88,87));
#256=IFCINDEXEDPOLYGONALFACE((81,83,87,85));
#257=IFCINDEXEDPOLYGONALFACE((82,86,88,84));
#258=IFCINDEXEDPOLYGONALFACE((89,90,92,91));
#259=IFCINDEXEDPOLYGONALFACE((93,95,96,94));
#260=IFCINDEXEDPOLYGONALFACE((89,93,94,90));
#261=IFCINDEXEDPOLYGONALFACE((91,92,96,95));
#262=IFCINDEXEDPOLYGONALFACE((89,91,95,93));
#263=IFCINDEXEDPOLYGONALFACE((90,94,96,92));
#264=IFCINDEXEDPOLYGONALFACE((97,98,100,99));
#265=IFCINDEXEDPOLYGONALFACE((101,103,104,102));
#266=IFCINDEXEDPOLYGONALFACE((97,101,102,98));
#267=IFCINDEXEDPOLYGONALFACE((99,100,104,103));
#268=IFCINDEXEDPOLYGONALFACE((97,99,103,101));
#269=IFCINDEXEDPOLYGONALFACE((98,102,104,100));
#270=IFCINDEXEDPOLYGONALFACE((105,106,108,107));
#271=IFCINDEXEDPOLYGONALFACE((109,111,112,110));
#272=IFCINDEXEDPOLYGONALFACE((105,109,110,106));
#273=IFCINDEXEDPOLYGONALFACE((107,108,112,111));
#274=IFCINDEXEDPOLYGONALFACE((105,107,111,109));
#275=IFCINDEXEDPOLYGONALFACE((106,110,112,108));
#276=IFCINDEXEDPOLYGONALFACE((113,114,116,115));
#277=IFCINDEXEDPOLYGONALFACE((117,119,120,118));
#278=IFCINDEXEDPOLYGONALFACE((113,117,118,114));
#279=IFCINDEXEDPOLYGONALFACE((115,116,120,119));
#280=IFCINDEXEDPOLYGONALFACE((113,115,119,117));
#281=IFCINDEXEDPOLYGONALFACE((114,118,120,116));
#282=IFCPOLYGONALFACESET(#191,$,(#192,#193,#194,#195,#196,#197,#198,#199,#200,#201,#202,#203,#204,#205,#206,#207,#208,#209,#210,#211,#212,#213,#214,#215,#216,#217,#218,#219,#220,#221,#222,#223,#224,#225,#226,#227,#228,#229,#230,#231,#232,#233,#234,#235,#236,#237,#238,#239,#240,#241,#242,#243,#244,#245,#246,#247,#248,#249,#250,#251,#252,#253,#254,#255,#256,#257,#258,#259,#260,#261,#262,#263,#264,#265,#266,#267,#268,#269,#270,#271,#272,#273,#274,#275,#276,#277,#278,#279,#280,#281),$);
#283=IFCSHAPEREPRESENTATION(#13,'Body','Tessellation',(#282));
#284=IFCPRODUCTDEFINITIONSHAPE($,$,(#283));
#285=IFCRELAGGREGATES('1Kv6VgyxbSrRw5gtggDXRR',$,$,$,#28,(#36,#75,#180));
#286=IFCRELCONTAINEDINSPATIALSTRUCTURE('2B1f99JdjOY8GMdk$Bmr4G',$,$,$,(#28),#3);
#287=IFCCARTESIANPOINT((0.,0.,0.));
#288=IFCAXIS2PLACEMENT3D(#287,$,$);
#289=IFCLOCALPLACEMENT($,#288);
#290=IFCCARTESIANPOINT((2.2999999999999998,0.,0.));
#291=IFCAXIS2PLACEMENT3D(#290,$,$);
#292=IFCLOCALPLACEMENT($,#291);
#293=IFCCARTESIANPOINT((4.5999999999999996,0.,0.));
#294=IFCAXIS2PLACEMENT3D(#293,$,$);
#295=IFCLOCALPLACEMENT($,#294);
ENDSEC;
END-ISO-10303-21;
