ISO-10303-21;
HEADER;
FILE_DESCRIPTION(('ViewDefinition [CoordinationView]'),'2;1');
FILE_NAME('LM3-BOG-SA611.ifc','2026-08-30T00:00:00+00:00',('OpenSourceRail'),('OpenSourceRail'),'IfcOpenShell 0.8.5','OpenSourceRail deterministic LM3 product-library exporter','design-reference / not for construction');
FILE_SCHEMA(('IFC4X3_ADD2'));
ENDSEC;
DATA;
#1=IFCPROJECT('1jz$$$DPPG28t0owiiE$fy',$,'LM3-BOG-SA611 \X2\2014\X0\ powered-bogie running unit: wheelsets, axleboxes, primary suspension and brakes','Design-reference geometry and assembly hierarchy only; supplier freeze, released drawings/tolerances, calculations, qualified processes and first-article tests remain mandatory.',$,$,$,(#12),#7);
#2=IFCSITE('2Z7$DZXB9VRuUDr9SUisav',$,'LM3 product library',$,$,#18,$,$,.ELEMENT.,$,$,$,$,$);
#3=IFCBUILDING('0xuXXxXgvVLfRUP1wTlD2P',$,'LM3 assembly inspection fixture',$,$,#21,$,$,.ELEMENT.,$,$,$);
#4=IFCSIUNIT(*,.LENGTHUNIT.,$,.METRE.);
#5=IFCSIUNIT(*,.AREAUNIT.,$,.SQUARE_METRE.);
#6=IFCSIUNIT(*,.VOLUMEUNIT.,$,.CUBIC_METRE.);
#7=IFCUNITASSIGNMENT((#6,#4,#5));
#8=IFCCARTESIANPOINT((0.,0.,0.));
#9=IFCDIRECTION((0.,0.,1.));
#10=IFCDIRECTION((1.,0.,0.));
#11=IFCAXIS2PLACEMENT3D(#8,#9,#10);
#12=IFCGEOMETRICREPRESENTATIONCONTEXT($,'Model',3,1.0000000000000001E-05,#11,$);
#13=IFCGEOMETRICREPRESENTATIONSUBCONTEXT('Body','Model',*,*,*,*,#12,$,.MODEL_VIEW.,$);
#14=IFCRELAGGREGATES('1NnDTJ95rON8tNmf3Chvon',$,$,$,#1,(#2));
#15=IFCRELAGGREGATES('31EiHYMT9NnARHw2eQR161',$,$,$,#2,(#3));
#16=IFCCARTESIANPOINT((0.,0.,0.));
#17=IFCAXIS2PLACEMENT3D(#16,$,$);
#18=IFCLOCALPLACEMENT($,#17);
#19=IFCCARTESIANPOINT((0.,0.,0.));
#20=IFCAXIS2PLACEMENT3D(#19,$,$);
#21=IFCLOCALPLACEMENT($,#20);
#22=IFCPROPERTYSINGLEVALUE('Status',$,IFCTEXT('design-reference-not-released'),$);
#23=IFCPROPERTYSINGLEVALUE('ReleaseBoundary',$,IFCTEXT('Design-reference geometry and assembly hierarchy only; supplier freeze, released drawings/tolerances, calculations, qualified processes and first-article tests remain mandatory.'),$);
#24=IFCPROPERTYSINGLEVALUE('Manifest',$,IFCTEXT('design/component-catalogue/catalog/buildable-trainset/buildable-trainset-manifest.json'),$);
#25=IFCPROPERTYSINGLEVALUE('ManifestSha256',$,IFCTEXT('7654747909805305ce2018109b5b649c4817a8f8c44a3ec8f2e8a6f74d48243e'),$);
#26=IFCPROPERTYSET('1wFf6boYHPre6QjqW1WK3J',$,'OSR_ProductLibrary',$,(#22,#23,#24,#25));
#27=IFCRELDEFINESBYPROPERTIES('3nC4B_fxTKZw184awQwVO1',$,$,$,(#1),#26);
#28=IFCELEMENTASSEMBLY('3_K53zYPLV5eAd9yO3eh5e',$,'powered-bogie running unit: wheelsets, axleboxes, primary suspension and brakes','wheelset identity | bearing installation | primary-height match | static brake/WSP test | free rotation',$,$,$,'LM3-BOG-SA611',$,$);
#29=IFCPROPERTYSINGLEVALUE('OSRId',$,IFCTEXT('LM3-BOG-SA611'),$);
#30=IFCPROPERTYSINGLEVALUE('Layer',$,IFCTEXT('subassembly'),$);
#31=IFCPROPERTYSINGLEVALUE('BuildCell',$,IFCTEXT('bogie clean assembly and brake cell'),$);
#32=IFCPROPERTYSINGLEVALUE('QuantityPerTrainset',$,IFCINTEGER(3),$);
#33=IFCPROPERTYSINGLEVALUE('GeometryStatus',$,IFCTEXT('complete-hierarchy-inspection-layout'),$);
#34=IFCPROPERTYSET('0Rlirf41nGEQQYj8wXRGTH',$,'OSR_AssemblyDefinition',$,(#29,#30,#31,#32,#33));
#35=IFCRELDEFINESBYPROPERTIES('1oDjarcQrOchMXwNB86ByO',$,$,$,(#28),#34);
#36=IFCBUILDINGELEMENTPROXY('2eZNlPgf1IQQhIu6$MJCPz',$,'powered-bogie wheelset with axle-mounted brake discs','Supplier-machined axle, wheels and brake-disc seats are procured as a dynamically balanced, traceable railway wheelset; wheels or axles are not mixed between qualified families.',$,#518,#160,'LM3-BOG-P040',$);
#37=IFCPROPERTYSINGLEVALUE('OSRId',$,IFCTEXT('LM3-BOG-P040'),$);
#38=IFCPROPERTYSINGLEVALUE('Parent',$,IFCTEXT('LM3-BOG-SA611'),$);
#39=IFCPROPERTYSINGLEVALUE('Route',$,IFCTEXT('BID'),$);
#40=IFCPROPERTYSINGLEVALUE('Maturity',$,IFCTEXT('buildable-after-supplier-freeze'),$);
#41=IFCPROPERTYSINGLEVALUE('QuantityPerTrainset',$,IFCINTEGER(6),$);
#42=IFCPROPERTYSINGLEVALUE('Unit',$,IFCTEXT('wheelset'),$);
#43=IFCPROPERTYSINGLEVALUE('GeometryStatus',$,IFCTEXT('design-reference-not-released'),$);
#44=IFCPROPERTYSINGLEVALUE('GeometryLevel',$,IFCTEXT('coordination-envelope'),$);
#45=IFCPROPERTYSET('2sbsiQsmjJhATvU8Cf_vsU',$,'OSR_ProductDefinition',$,(#37,#38,#39,#40,#41,#42,#43,#44));
#46=IFCRELDEFINESBYPROPERTIES('1UhQlQiT1PV8mS7N9JKFqC',$,$,$,(#36),#45);
#47=IFCCARTESIANPOINTLIST3D(((0.085000000000000006,-1.0249999999999999,0.),(0.08083980388508806,-1.0249999999999999,0.026266444521870529),(0.068766444521870543,-1.0249999999999999,0.049961746444860219),(0.049961746444860219,-1.0249999999999999,0.068766444521870543),(0.026266444521870536,-1.0249999999999999,0.08083980388508806),(5.2047488963762512E-18,-1.0249999999999999,0.085000000000000006),(-0.026266444521870526,-1.0249999999999999,0.08083980388508806),(-0.049961746444860212,-1.0249999999999999,0.068766444521870543),(-0.068766444521870529,-1.0249999999999999,0.049961746444860226),(-0.08083980388508806,-1.0249999999999999,0.02626644452187054),(-0.085000000000000006,-1.0249999999999999,1.0409497792752502E-17),(-0.080839803885088074,-1.0249999999999999,-0.026266444521870488),(-0.068766444521870543,-1.0249999999999999,-0.049961746444860212),(-0.049961746444860226,-1.0249999999999999,-0.068766444521870529),(-0.026266444521870543,-1.0249999999999999,-0.08083980388508806),(-1.5614246689128753E-17,-1.0249999999999999,-0.085000000000000006),(0.026266444521870515,-1.0249999999999999,-0.08083980388508806),(0.049961746444860199,-1.0249999999999999,-0.068766444521870543),(0.068766444521870529,-1.0249999999999999,-0.04996174644486024),(0.08083980388508806,-1.0249999999999999,-0.02626644452187055),(0.085000000000000006,1.0249999999999999,0.),(0.08083980388508806,1.0249999999999999,0.026266444521870529),(0.068766444521870543,1.0249999999999999,0.049961746444860219),(0.049961746444860219,1.0249999999999999,0.068766444521870543),(0.026266444521870536,1.0249999999999999,0.08083980388508806),(5.2047488963762512E-18,1.0249999999999999,0.085000000000000006),(-0.026266444521870526,1.0249999999999999,0.08083980388508806),(-0.049961746444860212,1.0249999999999999,0.068766444521870543),(-0.068766444521870529,1.0249999999999999,0.049961746444860226),(-0.08083980388508806,1.0249999999999999,0.02626644452187054),(-0.085000000000000006,1.0249999999999999,1.0409497792752502E-17),(-0.080839803885088074,1.0249999999999999,-0.026266444521870488),(-0.068766444521870543,1.0249999999999999,-0.049961746444860212),(-0.049961746444860226,1.0249999999999999,-0.068766444521870529),(-0.026266444521870543,1.0249999999999999,-0.08083980388508806),(-1.5614246689128753E-17,1.0249999999999999,-0.085000000000000006),(0.026266444521870515,1.0249999999999999,-0.08083980388508806),(0.049961746444860199,1.0249999999999999,-0.068766444521870543),(0.068766444521870529,1.0249999999999999,-0.04996174644486024),(0.08083980388508806,1.0249999999999999,-0.02626644452187055),(0.46000000000000002,-1.1000000000000001,0.),(0.43748599749577066,-1.1000000000000001,0.14214781741247581),(0.37214781741247582,-1.1000000000000001,0.27038121605453763),(0.27038121605453763,-1.1000000000000001,0.37214781741247582),(0.14214781741247584,-1.1000000000000001,0.43748599749577066),(2.8166876380389123E-17,-1.1000000000000001,0.46000000000000002),(-0.14214781741247579,-1.1000000000000001,0.43748599749577072),(-0.27038121605453758,-1.1000000000000001,0.37214781741247582),(-0.37214781741247577,-1.1000000000000001,0.27038121605453769),(-0.43748599749577066,-1.1000000000000001,0.14214781741247587),(-0.46000000000000002,-1.1000000000000001,5.6333752760778246E-17),(-0.43748599749577077,-1.1000000000000001,-0.14214781741247559),(-0.37214781741247588,-1.1000000000000001,-0.27038121605453758),(-0.27038121605453769,-1.1000000000000001,-0.37214781741247577),(-0.1421478174124759,-1.1000000000000001,-0.43748599749577066),(-8.4500629141167369E-17,-1.1000000000000001,-0.46000000000000002),(0.14214781741247573,-1.1000000000000001,-0.43748599749577072),(0.27038121605453758,-1.1000000000000001,-0.37214781741247588),(0.37214781741247577,-1.1000000000000001,-0.27038121605453774),(0.43748599749577066,-1.1000000000000001,-0.14214781741247592),(0.46000000000000002,-0.94999999999999996,0.),(0.43748599749577066,-0.94999999999999996,0.14214781741247581),(0.37214781741247582,-0.94999999999999996,0.27038121605453763),(0.27038121605453763,-0.94999999999999996,0.37214781741247582),(0.14214781741247584,-0.94999999999999996,0.43748599749577066),(2.8166876380389123E-17,-0.94999999999999996,0.46000000000000002),(-0.14214781741247579,-0.94999999999999996,0.43748599749577072),(-0.27038121605453758,-0.94999999999999996,0.37214781741247582),(-0.37214781741247577,-0.94999999999999996,0.27038121605453769),(-0.43748599749577066,-0.94999999999999996,0.14214781741247587),(-0.46000000000000002,-0.94999999999999996,5.6333752760778246E-17),(-0.43748599749577077,-0.94999999999999996,-0.14214781741247559),(-0.37214781741247588,-0.94999999999999996,-0.27038121605453758),(-0.27038121605453769,-0.94999999999999996,-0.37214781741247577),(-0.1421478174124759,-0.94999999999999996,-0.43748599749577066),(-8.4500629141167369E-17,-0.94999999999999996,-0.46000000000000002),(0.14214781741247573,-0.94999999999999996,-0.43748599749577072),(0.27038121605453758,-0.94999999999999996,-0.37214781741247588),(0.37214781741247577,-0.94999999999999996,-0.27038121605453774),(0.43748599749577066,-0.94999999999999996,-0.14214781741247592),(0.31280000000000002,-0.72150000000000003,0.),(0.29749047829712405,-0.72150000000000003,0.096660515840483546),(0.25306051584048356,-0.72150000000000003,0.18385922691708562),(0.18385922691708562,-0.72150000000000003,0.25306051584048356),(0.096660515840483574,-0.72150000000000003,0.29749047829712405),(1.9153475938664606E-17,-0.72150000000000003,0.31280000000000002),(-0.096660515840483532,-0.72150000000000003,0.29749047829712411),(-0.18385922691708559,-0.72150000000000003,0.25306051584048356),(-0.25306051584048356,-0.72150000000000003,0.18385922691708564),(-0.29749047829712405,-0.72150000000000003,0.096660515840483588),(-0.31280000000000002,-0.72150000000000003,3.8306951877329211E-17),(-0.29749047829712411,-0.72150000000000003,-0.096660515840483394),(-0.25306051584048361,-0.72150000000000003,-0.18385922691708559),(-0.18385922691708564,-0.72150000000000003,-0.25306051584048356),(-0.096660515840483602,-0.72150000000000003,-0.29749047829712405),(-5.7460427815993813E-17,-0.72150000000000003,-0.31280000000000002),(0.096660515840483505,-0.72150000000000003,-0.29749047829712411),(0.18385922691708553,-0.72150000000000003,-0.25306051584048361),(0.25306051584048356,-0.72150000000000003,-0.18385922691708567),(0.29749047829712405,-0.72150000000000003,-0.096660515840483616),(0.31280000000000002,-0.6865,0.),(0.29749047829712405,-0.6865,0.096660515840483546),(0.25306051584048356,-0.6865,0.18385922691708562),(0.18385922691708562,-0.6865,0.25306051584048356),(0.096660515840483574,-0.6865,0.29749047829712405),(1.9153475938664606E-17,-0.6865,0.31280000000000002),(-0.096660515840483532,-0.6865,0.29749047829712411),(-0.18385922691708559,-0.6865,0.25306051584048356),(-0.25306051584048356,-0.6865,0.18385922691708564),(-0.29749047829712405,-0.6865,0.096660515840483588),(-0.31280000000000002,-0.6865,3.8306951877329211E-17),(-0.29749047829712411,-0.6865,-0.096660515840483394),(-0.25306051584048361,-0.6865,-0.18385922691708559),(-0.18385922691708564,-0.6865,-0.25306051584048356),(-0.096660515840483602,-0.6865,-0.29749047829712405),(-5.7460427815993813E-17,-0.6865,-0.31280000000000002),(0.096660515840483505,-0.6865,-0.29749047829712411),(0.18385922691708553,-0.6865,-0.25306051584048361),(0.25306051584048356,-0.6865,-0.18385922691708567),(0.29749047829712405,-0.6865,-0.096660515840483616),(0.46000000000000002,0.94999999999999996,0.),(0.43748599749577066,0.94999999999999996,0.14214781741247581),(0.37214781741247582,0.94999999999999996,0.27038121605453763),(0.27038121605453763,0.94999999999999996,0.37214781741247582),(0.14214781741247584,0.94999999999999996,0.43748599749577066),(2.8166876380389123E-17,0.94999999999999996,0.46000000000000002),(-0.14214781741247579,0.94999999999999996,0.43748599749577072),(-0.27038121605453758,0.94999999999999996,0.37214781741247582),(-0.37214781741247577,0.94999999999999996,0.27038121605453769),(-0.43748599749577066,0.94999999999999996,0.14214781741247587),(-0.46000000000000002,0.94999999999999996,5.6333752760778246E-17),(-0.43748599749577077,0.94999999999999996,-0.14214781741247559),(-0.37214781741247588,0.94999999999999996,-0.27038121605453758),(-0.27038121605453769,0.94999999999999996,-0.37214781741247577),(-0.1421478174124759,0.94999999999999996,-0.43748599749577066),(-8.4500629141167369E-17,0.94999999999999996,-0.46000000000000002),(0.14214781741247573,0.94999999999999996,-0.43748599749577072),(0.27038121605453758,0.94999999999999996,-0.37214781741247588),(0.37214781741247577,0.94999999999999996,-0.27038121605453774),(0.43748599749577066,0.94999999999999996,-0.14214781741247592),(0.46000000000000002,1.1000000000000001,0.),(0.43748599749577066,1.1000000000000001,0.14214781741247581),(0.37214781741247582,1.1000000000000001,0.27038121605453763),(0.27038121605453763,1.1000000000000001,0.37214781741247582),(0.14214781741247584,1.1000000000000001,0.43748599749577066),(2.8166876380389123E-17,1.1000000000000001,0.46000000000000002),(-0.14214781741247579,1.1000000000000001,0.43748599749577072),(-0.27038121605453758,1.1000000000000001,0.37214781741247582),(-0.37214781741247577,1.1000000000000001,0.27038121605453769),(-0.43748599749577066,1.1000000000000001,0.14214781741247587),(-0.46000000000000002,1.1000000000000001,5.6333752760778246E-17),(-0.43748599749577077,1.1000000000000001,-0.14214781741247559),(-0.37214781741247588,1.1000000000000001,-0.27038121605453758),(-0.27038121605453769,1.1000000000000001,-0.37214781741247577),(-0.1421478174124759,1.1000000000000001,-0.43748599749577066),(-8.4500629141167369E-17,1.1000000000000001,-0.46000000000000002),(0.14214781741247573,1.1000000000000001,-0.43748599749577072),(0.27038121605453758,1.1000000000000001,-0.37214781741247588),(0.37214781741247577,1.1000000000000001,-0.27038121605453774),(0.43748599749577066,1.1000000000000001,-0.14214781741247592),(0.31280000000000002,0.6865,0.),(0.29749047829712405,0.6865,0.096660515840483546),(0.25306051584048356,0.6865,0.18385922691708562),(0.18385922691708562,0.6865,0.25306051584048356),(0.096660515840483574,0.6865,0.29749047829712405),(1.9153475938664606E-17,0.6865,0.31280000000000002),(-0.096660515840483532,0.6865,0.29749047829712411),(-0.18385922691708559,0.6865,0.25306051584048356),(-0.25306051584048356,0.6865,0.18385922691708564),(-0.29749047829712405,0.6865,0.096660515840483588),(-0.31280000000000002,0.6865,3.8306951877329211E-17),(-0.29749047829712411,0.6865,-0.096660515840483394),(-0.25306051584048361,0.6865,-0.18385922691708559),(-0.18385922691708564,0.6865,-0.25306051584048356),(-0.096660515840483602,0.6865,-0.29749047829712405),(-5.7460427815993813E-17,0.6865,-0.31280000000000002),(0.096660515840483505,0.6865,-0.29749047829712411),(0.18385922691708553,0.6865,-0.25306051584048361),(0.25306051584048356,0.6865,-0.18385922691708567),(0.29749047829712405,0.6865,-0.096660515840483616),(0.31280000000000002,0.72150000000000003,0.),(0.29749047829712405,0.72150000000000003,0.096660515840483546),(0.25306051584048356,0.72150000000000003,0.18385922691708562),(0.18385922691708562,0.72150000000000003,0.25306051584048356),(0.096660515840483574,0.72150000000000003,0.29749047829712405),(1.9153475938664606E-17,0.72150000000000003,0.31280000000000002),(-0.096660515840483532,0.72150000000000003,0.29749047829712411),(-0.18385922691708559,0.72150000000000003,0.25306051584048356),(-0.25306051584048356,0.72150000000000003,0.18385922691708564),(-0.29749047829712405,0.72150000000000003,0.096660515840483588),(-0.31280000000000002,0.72150000000000003,3.8306951877329211E-17),(-0.29749047829712411,0.72150000000000003,-0.096660515840483394),(-0.25306051584048361,0.72150000000000003,-0.18385922691708559),(-0.18385922691708564,0.72150000000000003,-0.25306051584048356),(-0.096660515840483602,0.72150000000000003,-0.29749047829712405),(-5.7460427815993813E-17,0.72150000000000003,-0.31280000000000002),(0.096660515840483505,0.72150000000000003,-0.29749047829712411),(0.18385922691708553,0.72150000000000003,-0.25306051584048361),(0.25306051584048356,0.72150000000000003,-0.18385922691708567),(0.29749047829712405,0.72150000000000003,-0.096660515840483616)),$);
#48=IFCINDEXEDPOLYGONALFACE((20,19,18,17,16,15,14,13,12,11,10,9,8,7,6,5,4,3,2,1));
#49=IFCINDEXEDPOLYGONALFACE((21,22,23,24,25,26,27,28,29,30,31,32,33,34,35,36,37,38,39,40));
#50=IFCINDEXEDPOLYGONALFACE((1,2,22,21));
#51=IFCINDEXEDPOLYGONALFACE((2,3,23,22));
#52=IFCINDEXEDPOLYGONALFACE((3,4,24,23));
#53=IFCINDEXEDPOLYGONALFACE((4,5,25,24));
#54=IFCINDEXEDPOLYGONALFACE((5,6,26,25));
#55=IFCINDEXEDPOLYGONALFACE((6,7,27,26));
#56=IFCINDEXEDPOLYGONALFACE((7,8,28,27));
#57=IFCINDEXEDPOLYGONALFACE((8,9,29,28));
#58=IFCINDEXEDPOLYGONALFACE((9,10,30,29));
#59=IFCINDEXEDPOLYGONALFACE((10,11,31,30));
#60=IFCINDEXEDPOLYGONALFACE((11,12,32,31));
#61=IFCINDEXEDPOLYGONALFACE((12,13,33,32));
#62=IFCINDEXEDPOLYGONALFACE((13,14,34,33));
#63=IFCINDEXEDPOLYGONALFACE((14,15,35,34));
#64=IFCINDEXEDPOLYGONALFACE((15,16,36,35));
#65=IFCINDEXEDPOLYGONALFACE((16,17,37,36));
#66=IFCINDEXEDPOLYGONALFACE((17,18,38,37));
#67=IFCINDEXEDPOLYGONALFACE((18,19,39,38));
#68=IFCINDEXEDPOLYGONALFACE((19,20,40,39));
#69=IFCINDEXEDPOLYGONALFACE((20,1,21,40));
#70=IFCINDEXEDPOLYGONALFACE((60,59,58,57,56,55,54,53,52,51,50,49,48,47,46,45,44,43,42,41));
#71=IFCINDEXEDPOLYGONALFACE((61,62,63,64,65,66,67,68,69,70,71,72,73,74,75,76,77,78,79,80));
#72=IFCINDEXEDPOLYGONALFACE((41,42,62,61));
#73=IFCINDEXEDPOLYGONALFACE((42,43,63,62));
#74=IFCINDEXEDPOLYGONALFACE((43,44,64,63));
#75=IFCINDEXEDPOLYGONALFACE((44,45,65,64));
#76=IFCINDEXEDPOLYGONALFACE((45,46,66,65));
#77=IFCINDEXEDPOLYGONALFACE((46,47,67,66));
#78=IFCINDEXEDPOLYGONALFACE((47,48,68,67));
#79=IFCINDEXEDPOLYGONALFACE((48,49,69,68));
#80=IFCINDEXEDPOLYGONALFACE((49,50,70,69));
#81=IFCINDEXEDPOLYGONALFACE((50,51,71,70));
#82=IFCINDEXEDPOLYGONALFACE((51,52,72,71));
#83=IFCINDEXEDPOLYGONALFACE((52,53,73,72));
#84=IFCINDEXEDPOLYGONALFACE((53,54,74,73));
#85=IFCINDEXEDPOLYGONALFACE((54,55,75,74));
#86=IFCINDEXEDPOLYGONALFACE((55,56,76,75));
#87=IFCINDEXEDPOLYGONALFACE((56,57,77,76));
#88=IFCINDEXEDPOLYGONALFACE((57,58,78,77));
#89=IFCINDEXEDPOLYGONALFACE((58,59,79,78));
#90=IFCINDEXEDPOLYGONALFACE((59,60,80,79));
#91=IFCINDEXEDPOLYGONALFACE((60,41,61,80));
#92=IFCINDEXEDPOLYGONALFACE((100,99,98,97,96,95,94,93,92,91,90,89,88,87,86,85,84,83,82,81));
#93=IFCINDEXEDPOLYGONALFACE((101,102,103,104,105,106,107,108,109,110,111,112,113,114,115,116,117,118,119,120));
#94=IFCINDEXEDPOLYGONALFACE((81,82,102,101));
#95=IFCINDEXEDPOLYGONALFACE((82,83,103,102));
#96=IFCINDEXEDPOLYGONALFACE((83,84,104,103));
#97=IFCINDEXEDPOLYGONALFACE((84,85,105,104));
#98=IFCINDEXEDPOLYGONALFACE((85,86,106,105));
#99=IFCINDEXEDPOLYGONALFACE((86,87,107,106));
#100=IFCINDEXEDPOLYGONALFACE((87,88,108,107));
#101=IFCINDEXEDPOLYGONALFACE((88,89,109,108));
#102=IFCINDEXEDPOLYGONALFACE((89,90,110,109));
#103=IFCINDEXEDPOLYGONALFACE((90,91,111,110));
#104=IFCINDEXEDPOLYGONALFACE((91,92,112,111));
#105=IFCINDEXEDPOLYGONALFACE((92,93,113,112));
#106=IFCINDEXEDPOLYGONALFACE((93,94,114,113));
#107=IFCINDEXEDPOLYGONALFACE((94,95,115,114));
#108=IFCINDEXEDPOLYGONALFACE((95,96,116,115));
#109=IFCINDEXEDPOLYGONALFACE((96,97,117,116));
#110=IFCINDEXEDPOLYGONALFACE((97,98,118,117));
#111=IFCINDEXEDPOLYGONALFACE((98,99,119,118));
#112=IFCINDEXEDPOLYGONALFACE((99,100,120,119));
#113=IFCINDEXEDPOLYGONALFACE((100,81,101,120));
#114=IFCINDEXEDPOLYGONALFACE((140,139,138,137,136,135,134,133,132,131,130,129,128,127,126,125,124,123,122,121));
#115=IFCINDEXEDPOLYGONALFACE((141,142,143,144,145,146,147,148,149,150,151,152,153,154,155,156,157,158,159,160));
#116=IFCINDEXEDPOLYGONALFACE((121,122,142,141));
#117=IFCINDEXEDPOLYGONALFACE((122,123,143,142));
#118=IFCINDEXEDPOLYGONALFACE((123,124,144,143));
#119=IFCINDEXEDPOLYGONALFACE((124,125,145,144));
#120=IFCINDEXEDPOLYGONALFACE((125,126,146,145));
#121=IFCINDEXEDPOLYGONALFACE((126,127,147,146));
#122=IFCINDEXEDPOLYGONALFACE((127,128,148,147));
#123=IFCINDEXEDPOLYGONALFACE((128,129,149,148));
#124=IFCINDEXEDPOLYGONALFACE((129,130,150,149));
#125=IFCINDEXEDPOLYGONALFACE((130,131,151,150));
#126=IFCINDEXEDPOLYGONALFACE((131,132,152,151));
#127=IFCINDEXEDPOLYGONALFACE((132,133,153,152));
#128=IFCINDEXEDPOLYGONALFACE((133,134,154,153));
#129=IFCINDEXEDPOLYGONALFACE((134,135,155,154));
#130=IFCINDEXEDPOLYGONALFACE((135,136,156,155));
#131=IFCINDEXEDPOLYGONALFACE((136,137,157,156));
#132=IFCINDEXEDPOLYGONALFACE((137,138,158,157));
#133=IFCINDEXEDPOLYGONALFACE((138,139,159,158));
#134=IFCINDEXEDPOLYGONALFACE((139,140,160,159));
#135=IFCINDEXEDPOLYGONALFACE((140,121,141,160));
#136=IFCINDEXEDPOLYGONALFACE((180,179,178,177,176,175,174,173,172,171,170,169,168,167,166,165,164,163,162,161));
#137=IFCINDEXEDPOLYGONALFACE((181,182,183,184,185,186,187,188,189,190,191,192,193,194,195,196,197,198,199,200));
#138=IFCINDEXEDPOLYGONALFACE((161,162,182,181));
#139=IFCINDEXEDPOLYGONALFACE((162,163,183,182));
#140=IFCINDEXEDPOLYGONALFACE((163,164,184,183));
#141=IFCINDEXEDPOLYGONALFACE((164,165,185,184));
#142=IFCINDEXEDPOLYGONALFACE((165,166,186,185));
#143=IFCINDEXEDPOLYGONALFACE((166,167,187,186));
#144=IFCINDEXEDPOLYGONALFACE((167,168,188,187));
#145=IFCINDEXEDPOLYGONALFACE((168,169,189,188));
#146=IFCINDEXEDPOLYGONALFACE((169,170,190,189));
#147=IFCINDEXEDPOLYGONALFACE((170,171,191,190));
#148=IFCINDEXEDPOLYGONALFACE((171,172,192,191));
#149=IFCINDEXEDPOLYGONALFACE((172,173,193,192));
#150=IFCINDEXEDPOLYGONALFACE((173,174,194,193));
#151=IFCINDEXEDPOLYGONALFACE((174,175,195,194));
#152=IFCINDEXEDPOLYGONALFACE((175,176,196,195));
#153=IFCINDEXEDPOLYGONALFACE((176,177,197,196));
#154=IFCINDEXEDPOLYGONALFACE((177,178,198,197));
#155=IFCINDEXEDPOLYGONALFACE((178,179,199,198));
#156=IFCINDEXEDPOLYGONALFACE((179,180,200,199));
#157=IFCINDEXEDPOLYGONALFACE((180,161,181,200));
#158=IFCPOLYGONALFACESET(#47,$,(#48,#49,#50,#51,#52,#53,#54,#55,#56,#57,#58,#59,#60,#61,#62,#63,#64,#65,#66,#67,#68,#69,#70,#71,#72,#73,#74,#75,#76,#77,#78,#79,#80,#81,#82,#83,#84,#85,#86,#87,#88,#89,#90,#91,#92,#93,#94,#95,#96,#97,#98,#99,#100,#101,#102,#103,#104,#105,#106,#107,#108,#109,#110,#111,#112,#113,#114,#115,#116,#117,#118,#119,#120,#121,#122,#123,#124,#125,#126,#127,#128,#129,#130,#131,#132,#133,#134,#135,#136,#137,#138,#139,#140,#141,#142,#143,#144,#145,#146,#147,#148,#149,#150,#151,#152,#153,#154,#155,#156,#157),$);
#159=IFCSHAPEREPRESENTATION(#13,'Body','Tessellation',(#158));
#160=IFCPRODUCTDEFINITIONSHAPE($,$,(#159));
#161=IFCBUILDINGELEMENTPROXY('1_MPm6JijMFfewtrye1am5',$,'powered-wheelset axlebox, sealed bearing unit, speed and temperature sensor set','Ready-to-mount railway axlebox bearing units keep bearing setting, seals and sensor interfaces under one supplier responsibility.',$,#521,#219,'LM3-BOG-P042',$);
#162=IFCPROPERTYSINGLEVALUE('OSRId',$,IFCTEXT('LM3-BOG-P042'),$);
#163=IFCPROPERTYSINGLEVALUE('Parent',$,IFCTEXT('LM3-BOG-SA611'),$);
#164=IFCPROPERTYSINGLEVALUE('Route',$,IFCTEXT('BID'),$);
#165=IFCPROPERTYSINGLEVALUE('Maturity',$,IFCTEXT('buildable-after-supplier-freeze'),$);
#166=IFCPROPERTYSINGLEVALUE('QuantityPerTrainset',$,IFCINTEGER(6),$);
#167=IFCPROPERTYSINGLEVALUE('Unit',$,IFCTEXT('wheelset set'),$);
#168=IFCPROPERTYSINGLEVALUE('GeometryStatus',$,IFCTEXT('design-reference-not-released'),$);
#169=IFCPROPERTYSINGLEVALUE('GeometryLevel',$,IFCTEXT('coordination-envelope'),$);
#170=IFCPROPERTYSET('3kg3yvQ$XKBRIjQha0_VaZ',$,'OSR_ProductDefinition',$,(#162,#163,#164,#165,#166,#167,#168,#169));
#171=IFCRELDEFINESBYPROPERTIES('3CWbozSljQMgJqaqzJsWTD',$,$,$,(#161),#170);
#172=IFCCARTESIANPOINTLIST3D(((0.17360000000000003,-0.17360000000000003,0.),(0.16510341122883868,-0.17360000000000003,0.05364535022349088),(0.14044535022349092,-0.17360000000000003,0.10203951979797335),(0.10203951979797335,-0.17360000000000003,0.14044535022349092),(0.053645350223490887,-0.17360000000000003,0.16510341122883868),(1.0629934216599028E-17,-0.17360000000000003,0.17360000000000003),(-0.053645350223490866,-0.17360000000000003,0.1651034112288387),(-0.10203951979797334,-0.17360000000000003,0.14044535022349092),(-0.14044535022349089,-0.17360000000000003,0.10203951979797338),(-0.16510341122883868,-0.17360000000000003,0.053645350223490894),(-0.17360000000000003,-0.17360000000000003,2.1259868433198056E-17),(-0.16510341122883873,-0.17360000000000003,-0.05364535022349079),(-0.14044535022349092,-0.17360000000000003,-0.10203951979797334),(-0.10203951979797338,-0.17360000000000003,-0.14044535022349089),(-0.053645350223490908,-0.17360000000000003,-0.16510341122883868),(-3.1889802649797078E-17,-0.17360000000000003,-0.17360000000000003),(0.053645350223490852,-0.17360000000000003,-0.1651034112288387),(0.10203951979797332,-0.17360000000000003,-0.14044535022349092),(0.14044535022349089,-0.17360000000000003,-0.10203951979797339),(0.16510341122883868,-0.17360000000000003,-0.053645350223490915),(0.17360000000000003,0.17360000000000003,0.),(0.16510341122883868,0.17360000000000003,0.05364535022349088),(0.14044535022349092,0.17360000000000003,0.10203951979797335),(0.10203951979797335,0.17360000000000003,0.14044535022349092),(0.053645350223490887,0.17360000000000003,0.16510341122883868),(1.0629934216599028E-17,0.17360000000000003,0.17360000000000003),(-0.053645350223490866,0.17360000000000003,0.1651034112288387),(-0.10203951979797334,0.17360000000000003,0.14044535022349092),(-0.14044535022349089,0.17360000000000003,0.10203951979797338),(-0.16510341122883868,0.17360000000000003,0.053645350223490894),(-0.17360000000000003,0.17360000000000003,2.1259868433198056E-17),(-0.16510341122883873,0.17360000000000003,-0.05364535022349079),(-0.14044535022349092,0.17360000000000003,-0.10203951979797334),(-0.10203951979797338,0.17360000000000003,-0.14044535022349089),(-0.053645350223490908,0.17360000000000003,-0.16510341122883868),(-3.1889802649797078E-17,0.17360000000000003,-0.17360000000000003),(0.053645350223490852,0.17360000000000003,-0.1651034112288387),(0.10203951979797332,0.17360000000000003,-0.14044535022349092),(0.14044535022349089,0.17360000000000003,-0.10203951979797339),(0.16510341122883868,0.17360000000000003,-0.053645350223490915),(0.074400000000000008,-0.31,-0.23559999999999998),(0.070758604812359432,-0.31,-0.21260913561850389),(0.060190864381496095,-0.31,-0.19186877722943996),(0.043731222770560005,-0.31,-0.17540913561850388),(0.022990864381496091,-0.31,-0.16484139518764054),(4.5556860928281542E-18,-0.31,-0.16119999999999995),(-0.022990864381496084,-0.31,-0.16484139518764054),(-0.043731222770559998,-0.31,-0.17540913561850388),(-0.060190864381496088,-0.31,-0.19186877722943996),(-0.070758604812359432,-0.31,-0.21260913561850386),(-0.074400000000000008,-0.31,-0.23559999999999998),(-0.070758604812359446,-0.31,-0.25859086438149603),(-0.060190864381496102,-0.31,-0.27933122277055999),(-0.043731222770560012,-0.31,-0.29579086438149604),(-0.022990864381496102,-0.31,-0.30635860481235944),(-1.3667058278484462E-17,-0.31,-0.31),(0.022990864381496078,-0.31,-0.30635860481235944),(0.043731222770559991,-0.31,-0.2957908643814961),(0.060190864381496088,-0.31,-0.27933122277055999),(0.070758604812359432,-0.31,-0.25859086438149609),(0.074400000000000008,0.31,-0.23559999999999998),(0.070758604812359432,0.31,-0.21260913561850389),(0.060190864381496095,0.31,-0.19186877722943996),(0.043731222770560005,0.31,-0.17540913561850388),(0.022990864381496091,0.31,-0.16484139518764054),(4.5556860928281542E-18,0.31,-0.16119999999999995),(-0.022990864381496084,0.31,-0.16484139518764054),(-0.043731222770559998,0.31,-0.17540913561850388),(-0.060190864381496088,0.31,-0.19186877722943996),(-0.070758604812359432,0.31,-0.21260913561850386),(-0.074400000000000008,0.31,-0.23559999999999998),(-0.070758604812359446,0.31,-0.25859086438149603),(-0.060190864381496102,0.31,-0.27933122277055999),(-0.043731222770560012,0.31,-0.29579086438149604),(-0.022990864381496102,0.31,-0.30635860481235944),(-1.3667058278484462E-17,0.31,-0.31),(0.022990864381496078,0.31,-0.30635860481235944),(0.043731222770559991,0.31,-0.2957908643814961),(0.060190864381496088,0.31,-0.27933122277055999),(0.070758604812359432,0.31,-0.25859086438149609)),$);
#173=IFCINDEXEDPOLYGONALFACE((20,19,18,17,16,15,14,13,12,11,10,9,8,7,6,5,4,3,2,1));
#174=IFCINDEXEDPOLYGONALFACE((21,22,23,24,25,26,27,28,29,30,31,32,33,34,35,36,37,38,39,40));
#175=IFCINDEXEDPOLYGONALFACE((1,2,22,21));
#176=IFCINDEXEDPOLYGONALFACE((2,3,23,22));
#177=IFCINDEXEDPOLYGONALFACE((3,4,24,23));
#178=IFCINDEXEDPOLYGONALFACE((4,5,25,24));
#179=IFCINDEXEDPOLYGONALFACE((5,6,26,25));
#180=IFCINDEXEDPOLYGONALFACE((6,7,27,26));
#181=IFCINDEXEDPOLYGONALFACE((7,8,28,27));
#182=IFCINDEXEDPOLYGONALFACE((8,9,29,28));
#183=IFCINDEXEDPOLYGONALFACE((9,10,30,29));
#184=IFCINDEXEDPOLYGONALFACE((10,11,31,30));
#185=IFCINDEXEDPOLYGONALFACE((11,12,32,31));
#186=IFCINDEXEDPOLYGONALFACE((12,13,33,32));
#187=IFCINDEXEDPOLYGONALFACE((13,14,34,33));
#188=IFCINDEXEDPOLYGONALFACE((14,15,35,34));
#189=IFCINDEXEDPOLYGONALFACE((15,16,36,35));
#190=IFCINDEXEDPOLYGONALFACE((16,17,37,36));
#191=IFCINDEXEDPOLYGONALFACE((17,18,38,37));
#192=IFCINDEXEDPOLYGONALFACE((18,19,39,38));
#193=IFCINDEXEDPOLYGONALFACE((19,20,40,39));
#194=IFCINDEXEDPOLYGONALFACE((20,1,21,40));
#195=IFCINDEXEDPOLYGONALFACE((60,59,58,57,56,55,54,53,52,51,50,49,48,47,46,45,44,43,42,41));
#196=IFCINDEXEDPOLYGONALFACE((61,62,63,64,65,66,67,68,69,70,71,72,73,74,75,76,77,78,79,80));
#197=IFCINDEXEDPOLYGONALFACE((41,42,62,61));
#198=IFCINDEXEDPOLYGONALFACE((42,43,63,62));
#199=IFCINDEXEDPOLYGONALFACE((43,44,64,63));
#200=IFCINDEXEDPOLYGONALFACE((44,45,65,64));
#201=IFCINDEXEDPOLYGONALFACE((45,46,66,65));
#202=IFCINDEXEDPOLYGONALFACE((46,47,67,66));
#203=IFCINDEXEDPOLYGONALFACE((47,48,68,67));
#204=IFCINDEXEDPOLYGONALFACE((48,49,69,68));
#205=IFCINDEXEDPOLYGONALFACE((49,50,70,69));
#206=IFCINDEXEDPOLYGONALFACE((50,51,71,70));
#207=IFCINDEXEDPOLYGONALFACE((51,52,72,71));
#208=IFCINDEXEDPOLYGONALFACE((52,53,73,72));
#209=IFCINDEXEDPOLYGONALFACE((53,54,74,73));
#210=IFCINDEXEDPOLYGONALFACE((54,55,75,74));
#211=IFCINDEXEDPOLYGONALFACE((55,56,76,75));
#212=IFCINDEXEDPOLYGONALFACE((56,57,77,76));
#213=IFCINDEXEDPOLYGONALFACE((57,58,78,77));
#214=IFCINDEXEDPOLYGONALFACE((58,59,79,78));
#215=IFCINDEXEDPOLYGONALFACE((59,60,80,79));
#216=IFCINDEXEDPOLYGONALFACE((60,41,61,80));
#217=IFCPOLYGONALFACESET(#172,$,(#173,#174,#175,#176,#177,#178,#179,#180,#181,#182,#183,#184,#185,#186,#187,#188,#189,#190,#191,#192,#193,#194,#195,#196,#197,#198,#199,#200,#201,#202,#203,#204,#205,#206,#207,#208,#209,#210,#211,#212,#213,#214,#215,#216),$);
#218=IFCSHAPEREPRESENTATION(#13,'Body','Tessellation',(#217));
#219=IFCPRODUCTDEFINITIONSHAPE($,$,(#218));
#220=IFCBUILDINGELEMENTPROXY('2BTfubK0HKCgSHJPN7QMNH',$,'powered-bogie primary suspension spring, guide and bump-stop set','Matched, batch-traceable primary springs and elastomer guides are selected from the released axle-load and dynamic model.',$,#524,#432,'LM3-BOG-P044',$);
#221=IFCPROPERTYSINGLEVALUE('OSRId',$,IFCTEXT('LM3-BOG-P044'),$);
#222=IFCPROPERTYSINGLEVALUE('Parent',$,IFCTEXT('LM3-BOG-SA611'),$);
#223=IFCPROPERTYSINGLEVALUE('Route',$,IFCTEXT('BID'),$);
#224=IFCPROPERTYSINGLEVALUE('Maturity',$,IFCTEXT('buildable-after-supplier-freeze'),$);
#225=IFCPROPERTYSINGLEVALUE('QuantityPerTrainset',$,IFCINTEGER(3),$);
#226=IFCPROPERTYSINGLEVALUE('Unit',$,IFCTEXT('bogie set'),$);
#227=IFCPROPERTYSINGLEVALUE('GeometryStatus',$,IFCTEXT('design-reference-not-released'),$);
#228=IFCPROPERTYSINGLEVALUE('GeometryLevel',$,IFCTEXT('coordination-envelope'),$);
#229=IFCPROPERTYSET('1jkIaiZAHN2vLE1$_M26Tc',$,'OSR_ProductDefinition',$,(#221,#222,#223,#224,#225,#226,#227,#228));
#230=IFCRELDEFINESBYPROPERTIES('3u3bTkzsPTUPN0OxaUmTDv',$,$,$,(#220),#229);
#231=IFCCARTESIANPOINTLIST3D(((-0.3600000000000001,-0.75600000000000001,-0.26000000000000001),(-0.37057179248024696,-0.68925232921501134,-0.26000000000000001),(-0.40125232921501142,-0.62903838550482583,-0.26000000000000001),(-0.44903838550482589,-0.58125232921501135,-0.26000000000000001),(-0.5092523292150114,-0.5505717924802469,-0.26000000000000001),(-0.57600000000000007,-0.54000000000000004,-0.26000000000000001),(-0.64274767078498862,-0.5505717924802469,-0.26000000000000001),(-0.70296161449517425,-0.58125232921501135,-0.26000000000000001),(-0.75074767078498872,-0.62903838550482583,-0.26000000000000001),(-0.78142820751975317,-0.68925232921501134,-0.26000000000000001),(-0.79200000000000004,-0.75600000000000001,-0.26000000000000001),(-0.78142820751975328,-0.82274767078498856,-0.26000000000000001),(-0.75074767078498872,-0.88296161449517419,-0.26000000000000001),(-0.70296161449517425,-0.93074767078498866,-0.26000000000000001),(-0.64274767078498873,-0.96142820751975311,-0.26000000000000001),(-0.57600000000000007,-0.97199999999999998,-0.26000000000000001),(-0.50925232921501151,-0.96142820751975311,-0.26000000000000001),(-0.44903838550482594,-0.93074767078498866,-0.26000000000000001),(-0.40125232921501147,-0.88296161449517419,-0.26000000000000001),(-0.37057179248024696,-0.82274767078498867,-0.26000000000000001),(-0.3600000000000001,-0.75600000000000001,0.26000000000000001),(-0.37057179248024696,-0.68925232921501134,0.26000000000000001),(-0.40125232921501142,-0.62903838550482583,0.26000000000000001),(-0.44903838550482589,-0.58125232921501135,0.26000000000000001),(-0.5092523292150114,-0.5505717924802469,0.26000000000000001),(-0.57600000000000007,-0.54000000000000004,0.26000000000000001),(-0.64274767078498862,-0.5505717924802469,0.26000000000000001),(-0.70296161449517425,-0.58125232921501135,0.26000000000000001),(-0.75074767078498872,-0.62903838550482583,0.26000000000000001),(-0.78142820751975317,-0.68925232921501134,0.26000000000000001),(-0.79200000000000004,-0.75600000000000001,0.26000000000000001),(-0.78142820751975328,-0.82274767078498856,0.26000000000000001),(-0.75074767078498872,-0.88296161449517419,0.26000000000000001),(-0.70296161449517425,-0.93074767078498866,0.26000000000000001),(-0.64274767078498873,-0.96142820751975311,0.26000000000000001),(-0.57600000000000007,-0.97199999999999998,0.26000000000000001),(-0.50925232921501151,-0.96142820751975311,0.26000000000000001),(-0.44903838550482594,-0.93074767078498866,0.26000000000000001),(-0.40125232921501147,-0.88296161449517419,0.26000000000000001),(-0.37057179248024696,-0.82274767078498867,0.26000000000000001),(-0.3600000000000001,0.75600000000000001,-0.26000000000000001),(-0.37057179248024696,0.82274767078498867,-0.26000000000000001),(-0.40125232921501142,0.88296161449517419,-0.26000000000000001),(-0.44903838550482589,0.93074767078498866,-0.26000000000000001),(-0.5092523292150114,0.96142820751975311,-0.26000000000000001),(-0.57600000000000007,0.97199999999999998,-0.26000000000000001),(-0.64274767078498862,0.96142820751975311,-0.26000000000000001),(-0.70296161449517425,0.93074767078498866,-0.26000000000000001),(-0.75074767078498872,0.88296161449517419,-0.26000000000000001),(-0.78142820751975317,0.82274767078498867,-0.26000000000000001),(-0.79200000000000004,0.75600000000000001,-0.26000000000000001),(-0.78142820751975328,0.68925232921501145,-0.26000000000000001),(-0.75074767078498872,0.62903838550482583,-0.26000000000000001),(-0.70296161449517425,0.58125232921501135,-0.26000000000000001),(-0.64274767078498873,0.5505717924802469,-0.26000000000000001),(-0.57600000000000007,0.54000000000000004,-0.26000000000000001),(-0.50925232921501151,0.5505717924802469,-0.26000000000000001),(-0.44903838550482594,0.58125232921501135,-0.26000000000000001),(-0.40125232921501147,0.62903838550482583,-0.26000000000000001),(-0.37057179248024696,0.68925232921501134,-0.26000000000000001),(-0.3600000000000001,0.75600000000000001,0.26000000000000001),(-0.37057179248024696,0.82274767078498867,0.26000000000000001),(-0.40125232921501142,0.88296161449517419,0.26000000000000001),(-0.44903838550482589,0.93074767078498866,0.26000000000000001),(-0.5092523292150114,0.96142820751975311,0.26000000000000001),(-0.57600000000000007,0.97199999999999998,0.26000000000000001),(-0.64274767078498862,0.96142820751975311,0.26000000000000001),(-0.70296161449517425,0.93074767078498866,0.26000000000000001),(-0.75074767078498872,0.88296161449517419,0.26000000000000001),(-0.78142820751975317,0.82274767078498867,0.26000000000000001),(-0.79200000000000004,0.75600000000000001,0.26000000000000001),(-0.78142820751975328,0.68925232921501145,0.26000000000000001),(-0.75074767078498872,0.62903838550482583,0.26000000000000001),(-0.70296161449517425,0.58125232921501135,0.26000000000000001),(-0.64274767078498873,0.5505717924802469,0.26000000000000001),(-0.57600000000000007,0.54000000000000004,0.26000000000000001),(-0.50925232921501151,0.5505717924802469,0.26000000000000001),(-0.44903838550482594,0.58125232921501135,0.26000000000000001),(-0.40125232921501147,0.62903838550482583,0.26000000000000001),(-0.37057179248024696,0.68925232921501134,0.26000000000000001),(0.79200000000000004,-0.75600000000000001,-0.26000000000000001),(0.78142820751975317,-0.68925232921501134,-0.26000000000000001),(0.75074767078498872,-0.62903838550482583,-0.26000000000000001),(0.70296161449517425,-0.58125232921501135,-0.26000000000000001),(0.64274767078498873,-0.5505717924802469,-0.26000000000000001),(0.57600000000000007,-0.54000000000000004,-0.26000000000000001),(0.50925232921501151,-0.5505717924802469,-0.26000000000000001),(0.44903838550482589,-0.58125232921501135,-0.26000000000000001),(0.40125232921501147,-0.62903838550482583,-0.26000000000000001),(0.37057179248024696,-0.68925232921501134,-0.26000000000000001),(0.3600000000000001,-0.75600000000000001,-0.26000000000000001),(0.37057179248024685,-0.82274767078498856,-0.26000000000000001),(0.40125232921501142,-0.88296161449517419,-0.26000000000000001),(0.44903838550482589,-0.93074767078498866,-0.26000000000000001),(0.5092523292150114,-0.96142820751975311,-0.26000000000000001),(0.57600000000000007,-0.97199999999999998,-0.26000000000000001),(0.64274767078498862,-0.96142820751975311,-0.26000000000000001),(0.70296161449517425,-0.93074767078498866,-0.26000000000000001),(0.75074767078498872,-0.88296161449517419,-0.26000000000000001),(0.78142820751975317,-0.82274767078498867,-0.26000000000000001),(0.79200000000000004,-0.75600000000000001,0.26000000000000001),(0.78142820751975317,-0.68925232921501134,0.26000000000000001),(0.75074767078498872,-0.62903838550482583,0.26000000000000001),(0.70296161449517425,-0.58125232921501135,0.26000000000000001),(0.64274767078498873,-0.5505717924802469,0.26000000000000001),(0.57600000000000007,-0.54000000000000004,0.26000000000000001),(0.50925232921501151,-0.5505717924802469,0.26000000000000001),(0.44903838550482589,-0.58125232921501135,0.26000000000000001),(0.40125232921501147,-0.62903838550482583,0.26000000000000001),(0.37057179248024696,-0.68925232921501134,0.26000000000000001),(0.3600000000000001,-0.75600000000000001,0.26000000000000001),(0.37057179248024685,-0.82274767078498856,0.26000000000000001),(0.40125232921501142,-0.88296161449517419,0.26000000000000001),(0.44903838550482589,-0.93074767078498866,0.26000000000000001),(0.5092523292150114,-0.96142820751975311,0.26000000000000001),(0.57600000000000007,-0.97199999999999998,0.26000000000000001),(0.64274767078498862,-0.96142820751975311,0.26000000000000001),(0.70296161449517425,-0.93074767078498866,0.26000000000000001),(0.75074767078498872,-0.88296161449517419,0.26000000000000001),(0.78142820751975317,-0.82274767078498867,0.26000000000000001),(0.79200000000000004,0.75600000000000001,-0.26000000000000001),(0.78142820751975317,0.82274767078498867,-0.26000000000000001),(0.75074767078498872,0.88296161449517419,-0.26000000000000001),(0.70296161449517425,0.93074767078498866,-0.26000000000000001),(0.64274767078498873,0.96142820751975311,-0.26000000000000001),(0.57600000000000007,0.97199999999999998,-0.26000000000000001),(0.50925232921501151,0.96142820751975311,-0.26000000000000001),(0.44903838550482589,0.93074767078498866,-0.26000000000000001),(0.40125232921501147,0.88296161449517419,-0.26000000000000001),(0.37057179248024696,0.82274767078498867,-0.26000000000000001),(0.3600000000000001,0.75600000000000001,-0.26000000000000001),(0.37057179248024685,0.68925232921501145,-0.26000000000000001),(0.40125232921501142,0.62903838550482583,-0.26000000000000001),(0.44903838550482589,0.58125232921501135,-0.26000000000000001),(0.5092523292150114,0.5505717924802469,-0.26000000000000001),(0.57600000000000007,0.54000000000000004,-0.26000000000000001),(0.64274767078498862,0.5505717924802469,-0.26000000000000001),(0.70296161449517425,0.58125232921501135,-0.26000000000000001),(0.75074767078498872,0.62903838550482583,-0.26000000000000001),(0.78142820751975317,0.68925232921501134,-0.26000000000000001),(0.79200000000000004,0.75600000000000001,0.26000000000000001),(0.78142820751975317,0.82274767078498867,0.26000000000000001),(0.75074767078498872,0.88296161449517419,0.26000000000000001),(0.70296161449517425,0.93074767078498866,0.26000000000000001),(0.64274767078498873,0.96142820751975311,0.26000000000000001),(0.57600000000000007,0.97199999999999998,0.26000000000000001),(0.50925232921501151,0.96142820751975311,0.26000000000000001),(0.44903838550482589,0.93074767078498866,0.26000000000000001),(0.40125232921501147,0.88296161449517419,0.26000000000000001),(0.37057179248024696,0.82274767078498867,0.26000000000000001),(0.3600000000000001,0.75600000000000001,0.26000000000000001),(0.37057179248024685,0.68925232921501145,0.26000000000000001),(0.40125232921501142,0.62903838550482583,0.26000000000000001),(0.44903838550482589,0.58125232921501135,0.26000000000000001),(0.5092523292150114,0.5505717924802469,0.26000000000000001),(0.57600000000000007,0.54000000000000004,0.26000000000000001),(0.64274767078498862,0.5505717924802469,0.26000000000000001),(0.70296161449517425,0.58125232921501135,0.26000000000000001),(0.75074767078498872,0.62903838550482583,0.26000000000000001),(0.78142820751975317,0.68925232921501134,0.26000000000000001),(0.36749999999999999,0.,-0.046799999999999994),(0.34951326973846891,0.11356374543279317,-0.046799999999999994),(0.29731374543279321,0.21601108021748389,-0.046799999999999994),(0.21601108021748389,0.29731374543279321,-0.046799999999999994),(0.11356374543279318,0.34951326973846891,-0.046799999999999994),(2.2502884934332615E-17,0.36749999999999999,-0.046799999999999994),(-0.11356374543279314,0.34951326973846897,-0.046799999999999994),(-0.21601108021748383,0.29731374543279321,-0.046799999999999994),(-0.29731374543279315,0.21601108021748391,-0.046799999999999994),(-0.34951326973846891,0.11356374543279321,-0.046799999999999994),(-0.36749999999999999,4.5005769868665229E-17,-0.046799999999999994),(-0.34951326973846902,-0.11356374543279298,-0.046799999999999994),(-0.29731374543279321,-0.21601108021748383,-0.046799999999999994),(-0.21601108021748391,-0.29731374543279315,-0.046799999999999994),(-0.11356374543279323,-0.34951326973846891,-0.046799999999999994),(-6.7508654802997835E-17,-0.36749999999999999,-0.046799999999999994),(0.1135637454327931,-0.34951326973846897,-0.046799999999999994),(0.2160110802174838,-0.29731374543279321,-0.046799999999999994),(0.29731374543279315,-0.21601108021748394,-0.046799999999999994),(0.34951326973846891,-0.11356374543279325,-0.046799999999999994),(0.36749999999999999,0.,0.046799999999999994),(0.34951326973846891,0.11356374543279317,0.046799999999999994),(0.29731374543279321,0.21601108021748389,0.046799999999999994),(0.21601108021748389,0.29731374543279321,0.046799999999999994),(0.11356374543279318,0.34951326973846891,0.046799999999999994),(2.2502884934332615E-17,0.36749999999999999,0.046799999999999994),(-0.11356374543279314,0.34951326973846897,0.046799999999999994),(-0.21601108021748383,0.29731374543279321,0.046799999999999994),(-0.29731374543279315,0.21601108021748391,0.046799999999999994),(-0.34951326973846891,0.11356374543279321,0.046799999999999994),(-0.36749999999999999,4.5005769868665229E-17,0.046799999999999994),(-0.34951326973846902,-0.11356374543279298,0.046799999999999994),(-0.29731374543279321,-0.21601108021748383,0.046799999999999994),(-0.21601108021748391,-0.29731374543279315,0.046799999999999994),(-0.11356374543279323,-0.34951326973846891,0.046799999999999994),(-6.7508654802997835E-17,-0.36749999999999999,0.046799999999999994),(0.1135637454327931,-0.34951326973846897,0.046799999999999994),(0.2160110802174838,-0.29731374543279321,0.046799999999999994),(0.29731374543279315,-0.21601108021748394,0.046799999999999994),(0.34951326973846891,-0.11356374543279325,0.046799999999999994),(-0.63,0.,-0.2132),(-0.6344049135334362,0.027811529493745265,-0.2132),(-0.64718847050625472,0.05290067270632258,-0.2132),(-0.66709932729367738,0.072811529493745267,-0.2132),(-0.69218847050625465,0.085595086466563816,-0.2132),(-0.71999999999999997,0.089999999999999997,-0.2132),(-0.74781152949374519,0.08559508646656383,-0.2132),(-0.77290067270632257,0.072811529493745267,-0.2132),(-0.79281152949374523,0.052900672706322593,-0.2132),(-0.80559508646656375,0.027811529493745275,-0.2132),(-0.80999999999999994,1.1021821192326179E-17,-0.2132),(-0.80559508646656375,-0.02781152949374522,-0.2132),(-0.79281152949374523,-0.052900672706322573,-0.2132),(-0.77290067270632257,-0.072811529493745253,-0.2132),(-0.7478115294937453,-0.085595086466563816,-0.2132),(-0.71999999999999997,-0.089999999999999997,-0.2132),(-0.69218847050625476,-0.08559508646656383,-0.2132),(-0.66709932729367738,-0.072811529493745281,-0.2132),(-0.64718847050625472,-0.0529006727063226,-0.2132),(-0.6344049135334362,-0.027811529493745286,-0.2132),(-0.63,0.,0.2132),(-0.6344049135334362,0.027811529493745265,0.2132),(-0.64718847050625472,0.05290067270632258,0.2132),(-0.66709932729367738,0.072811529493745267,0.2132),(-0.69218847050625465,0.085595086466563816,0.2132),(-0.71999999999999997,0.089999999999999997,0.2132),(-0.74781152949374519,0.08559508646656383,0.2132),(-0.77290067270632257,0.072811529493745267,0.2132),(-0.79281152949374523,0.052900672706322593,0.2132),(-0.80559508646656375,0.027811529493745275,0.2132),(-0.80999999999999994,1.1021821192326179E-17,0.2132),(-0.80559508646656375,-0.02781152949374522,0.2132),(-0.79281152949374523,-0.052900672706322573,0.2132),(-0.77290067270632257,-0.072811529493745253,0.2132),(-0.7478115294937453,-0.085595086466563816,0.2132),(-0.71999999999999997,-0.089999999999999997,0.2132),(-0.69218847050625476,-0.08559508646656383,0.2132),(-0.66709932729367738,-0.072811529493745281,0.2132),(-0.64718847050625472,-0.0529006727063226,0.2132),(-0.6344049135334362,-0.027811529493745286,0.2132),(0.083999999999999964,-0.75600000000000001,-0.11700000000000001),(0.079888747368792867,-0.73004257247250448,-0.11700000000000001),(0.067957427527495562,-0.70662603880743224,-0.11700000000000001),(0.04937396119256772,-0.68804257247250444,-0.11700000000000001),(0.025957427527495573,-0.67611125263120719,-0.11700000000000001),(5.1435165564188813E-18,-0.67200000000000004,-0.11700000000000001),(-0.025957427527495566,-0.67611125263120719,-0.11700000000000001),(-0.049373961192567713,-0.68804257247250444,-0.11700000000000001),(-0.067957427527495548,-0.70662603880743224,-0.11700000000000001),(-0.079888747368792867,-0.73004257247250437,-0.11700000000000001),(-0.083999999999999964,-0.75600000000000001,-0.11700000000000001),(-0.079888747368792881,-0.78195742752749553,-0.11700000000000001),(-0.067957427527495562,-0.80537396119256777,-0.11700000000000001),(-0.049373961192567734,-0.82395742752749557,-0.11700000000000001),(-0.025957427527495584,-0.83588874736879282,-0.11700000000000001),(-1.5430549669256644E-17,-0.83999999999999997,-0.11700000000000001),(0.025957427527495556,-0.83588874736879282,-0.11700000000000001),(0.049373961192567706,-0.82395742752749557,-0.11700000000000001),(0.067957427527495548,-0.80537396119256777,-0.11700000000000001),(0.079888747368792867,-0.78195742752749564,-0.11700000000000001),(0.083999999999999964,-0.75600000000000001,-0.070199999999999985),(0.079888747368792867,-0.73004257247250448,-0.070199999999999985),(0.067957427527495562,-0.70662603880743224,-0.070199999999999985),(0.04937396119256772,-0.68804257247250444,-0.070199999999999985),(0.025957427527495573,-0.67611125263120719,-0.070199999999999985),(5.1435165564188813E-18,-0.67200000000000004,-0.070199999999999985),(-0.025957427527495566,-0.67611125263120719,-0.070199999999999985),(-0.049373961192567713,-0.68804257247250444,-0.070199999999999985),(-0.067957427527495548,-0.70662603880743224,-0.070199999999999985),(-0.079888747368792867,-0.73004257247250437,-0.070199999999999985),(-0.083999999999999964,-0.75600000000000001,-0.070199999999999985),(-0.079888747368792881,-0.78195742752749553,-0.070199999999999985),(-0.067957427527495562,-0.80537396119256777,-0.070199999999999985),(-0.049373961192567734,-0.82395742752749557,-0.070199999999999985),(-0.025957427527495584,-0.83588874736879282,-0.070199999999999985),(-1.5430549669256644E-17,-0.83999999999999997,-0.070199999999999985),(0.025957427527495556,-0.83588874736879282,-0.070199999999999985),(0.049373961192567706,-0.82395742752749557,-0.070199999999999985),(0.067957427527495548,-0.80537396119256777,-0.070199999999999985),(0.079888747368792867,-0.78195742752749564,-0.070199999999999985),(0.80999999999999994,0.,-0.2132),(0.80559508646656375,0.027811529493745265,-0.2132),(0.79281152949374523,0.05290067270632258,-0.2132),(0.77290067270632257,0.072811529493745267,-0.2132),(0.7478115294937453,0.085595086466563816,-0.2132),(0.71999999999999997,0.089999999999999997,-0.2132),(0.69218847050625476,0.08559508646656383,-0.2132),(0.66709932729367738,0.072811529493745267,-0.2132),(0.64718847050625472,0.052900672706322593,-0.2132),(0.6344049135334362,0.027811529493745275,-0.2132),(0.63,1.1021821192326179E-17,-0.2132),(0.6344049135334362,-0.02781152949374522,-0.2132),(0.64718847050625472,-0.052900672706322573,-0.2132),(0.66709932729367738,-0.072811529493745253,-0.2132),(0.69218847050625465,-0.085595086466563816,-0.2132),(0.71999999999999997,-0.089999999999999997,-0.2132),(0.74781152949374519,-0.08559508646656383,-0.2132),(0.77290067270632257,-0.072811529493745281,-0.2132),(0.79281152949374523,-0.0529006727063226,-0.2132),(0.80559508646656375,-0.027811529493745286,-0.2132),(0.80999999999999994,0.,0.2132),(0.80559508646656375,0.027811529493745265,0.2132),(0.79281152949374523,0.05290067270632258,0.2132),(0.77290067270632257,0.072811529493745267,0.2132),(0.7478115294937453,0.085595086466563816,0.2132),(0.71999999999999997,0.089999999999999997,0.2132),(0.69218847050625476,0.08559508646656383,0.2132),(0.66709932729367738,0.072811529493745267,0.2132),(0.64718847050625472,0.052900672706322593,0.2132),(0.6344049135334362,0.027811529493745275,0.2132),(0.63,1.1021821192326179E-17,0.2132),(0.6344049135334362,-0.02781152949374522,0.2132),(0.64718847050625472,-0.052900672706322573,0.2132),(0.66709932729367738,-0.072811529493745253,0.2132),(0.69218847050625465,-0.085595086466563816,0.2132),(0.71999999999999997,-0.089999999999999997,0.2132),(0.74781152949374519,-0.08559508646656383,0.2132),(0.77290067270632257,-0.072811529493745281,0.2132),(0.79281152949374523,-0.0529006727063226,0.2132),(0.80559508646656375,-0.027811529493745286,0.2132),(0.083999999999999964,0.75600000000000001,-0.11700000000000001),(0.079888747368792867,0.78195742752749553,-0.11700000000000001),(0.067957427527495562,0.80537396119256777,-0.11700000000000001),(0.04937396119256772,0.82395742752749557,-0.11700000000000001),(0.025957427527495573,0.83588874736879282,-0.11700000000000001),(5.1435165564188813E-18,0.83999999999999997,-0.11700000000000001),(-0.025957427527495566,0.83588874736879282,-0.11700000000000001),(-0.049373961192567713,0.82395742752749557,-0.11700000000000001),(-0.067957427527495548,0.80537396119256777,-0.11700000000000001),(-0.079888747368792867,0.78195742752749564,-0.11700000000000001),(-0.083999999999999964,0.75600000000000001,-0.11700000000000001),(-0.079888747368792881,0.73004257247250448,-0.11700000000000001),(-0.067957427527495562,0.70662603880743224,-0.11700000000000001),(-0.049373961192567734,0.68804257247250444,-0.11700000000000001),(-0.025957427527495584,0.67611125263120719,-0.11700000000000001),(-1.5430549669256644E-17,0.67200000000000004,-0.11700000000000001),(0.025957427527495556,0.67611125263120719,-0.11700000000000001),(0.049373961192567706,0.68804257247250444,-0.11700000000000001),(0.067957427527495548,0.70662603880743224,-0.11700000000000001),(0.079888747368792867,0.73004257247250437,-0.11700000000000001),(0.083999999999999964,0.75600000000000001,-0.070199999999999985),(0.079888747368792867,0.78195742752749553,-0.070199999999999985),(0.067957427527495562,0.80537396119256777,-0.070199999999999985),(0.04937396119256772,0.82395742752749557,-0.070199999999999985),(0.025957427527495573,0.83588874736879282,-0.070199999999999985),(5.1435165564188813E-18,0.83999999999999997,-0.070199999999999985),(-0.025957427527495566,0.83588874736879282,-0.070199999999999985),(-0.049373961192567713,0.82395742752749557,-0.070199999999999985),(-0.067957427527495548,0.80537396119256777,-0.070199999999999985),(-0.079888747368792867,0.78195742752749564,-0.070199999999999985),(-0.083999999999999964,0.75600000000000001,-0.070199999999999985),(-0.079888747368792881,0.73004257247250448,-0.070199999999999985),(-0.067957427527495562,0.70662603880743224,-0.070199999999999985),(-0.049373961192567734,0.68804257247250444,-0.070199999999999985),(-0.025957427527495584,0.67611125263120719,-0.070199999999999985),(-1.5430549669256644E-17,0.67200000000000004,-0.070199999999999985),(0.025957427527495556,0.67611125263120719,-0.070199999999999985),(0.049373961192567706,0.68804257247250444,-0.070199999999999985),(0.067957427527495548,0.70662603880743224,-0.070199999999999985),(0.079888747368792867,0.73004257247250437,-0.070199999999999985)),$);
#232=IFCINDEXEDPOLYGONALFACE((20,19,18,17,16,15,14,13,12,11,10,9,8,7,6,5,4,3,2,1));
#233=IFCINDEXEDPOLYGONALFACE((21,22,23,24,25,26,27,28,29,30,31,32,33,34,35,36,37,38,39,40));
#234=IFCINDEXEDPOLYGONALFACE((1,2,22,21));
#235=IFCINDEXEDPOLYGONALFACE((2,3,23,22));
#236=IFCINDEXEDPOLYGONALFACE((3,4,24,23));
#237=IFCINDEXEDPOLYGONALFACE((4,5,25,24));
#238=IFCINDEXEDPOLYGONALFACE((5,6,26,25));
#239=IFCINDEXEDPOLYGONALFACE((6,7,27,26));
#240=IFCINDEXEDPOLYGONALFACE((7,8,28,27));
#241=IFCINDEXEDPOLYGONALFACE((8,9,29,28));
#242=IFCINDEXEDPOLYGONALFACE((9,10,30,29));
#243=IFCINDEXEDPOLYGONALFACE((10,11,31,30));
#244=IFCINDEXEDPOLYGONALFACE((11,12,32,31));
#245=IFCINDEXEDPOLYGONALFACE((12,13,33,32));
#246=IFCINDEXEDPOLYGONALFACE((13,14,34,33));
#247=IFCINDEXEDPOLYGONALFACE((14,15,35,34));
#248=IFCINDEXEDPOLYGONALFACE((15,16,36,35));
#249=IFCINDEXEDPOLYGONALFACE((16,17,37,36));
#250=IFCINDEXEDPOLYGONALFACE((17,18,38,37));
#251=IFCINDEXEDPOLYGONALFACE((18,19,39,38));
#252=IFCINDEXEDPOLYGONALFACE((19,20,40,39));
#253=IFCINDEXEDPOLYGONALFACE((20,1,21,40));
#254=IFCINDEXEDPOLYGONALFACE((60,59,58,57,56,55,54,53,52,51,50,49,48,47,46,45,44,43,42,41));
#255=IFCINDEXEDPOLYGONALFACE((61,62,63,64,65,66,67,68,69,70,71,72,73,74,75,76,77,78,79,80));
#256=IFCINDEXEDPOLYGONALFACE((41,42,62,61));
#257=IFCINDEXEDPOLYGONALFACE((42,43,63,62));
#258=IFCINDEXEDPOLYGONALFACE((43,44,64,63));
#259=IFCINDEXEDPOLYGONALFACE((44,45,65,64));
#260=IFCINDEXEDPOLYGONALFACE((45,46,66,65));
#261=IFCINDEXEDPOLYGONALFACE((46,47,67,66));
#262=IFCINDEXEDPOLYGONALFACE((47,48,68,67));
#263=IFCINDEXEDPOLYGONALFACE((48,49,69,68));
#264=IFCINDEXEDPOLYGONALFACE((49,50,70,69));
#265=IFCINDEXEDPOLYGONALFACE((50,51,71,70));
#266=IFCINDEXEDPOLYGONALFACE((51,52,72,71));
#267=IFCINDEXEDPOLYGONALFACE((52,53,73,72));
#268=IFCINDEXEDPOLYGONALFACE((53,54,74,73));
#269=IFCINDEXEDPOLYGONALFACE((54,55,75,74));
#270=IFCINDEXEDPOLYGONALFACE((55,56,76,75));
#271=IFCINDEXEDPOLYGONALFACE((56,57,77,76));
#272=IFCINDEXEDPOLYGONALFACE((57,58,78,77));
#273=IFCINDEXEDPOLYGONALFACE((58,59,79,78));
#274=IFCINDEXEDPOLYGONALFACE((59,60,80,79));
#275=IFCINDEXEDPOLYGONALFACE((60,41,61,80));
#276=IFCINDEXEDPOLYGONALFACE((100,99,98,97,96,95,94,93,92,91,90,89,88,87,86,85,84,83,82,81));
#277=IFCINDEXEDPOLYGONALFACE((101,102,103,104,105,106,107,108,109,110,111,112,113,114,115,116,117,118,119,120));
#278=IFCINDEXEDPOLYGONALFACE((81,82,102,101));
#279=IFCINDEXEDPOLYGONALFACE((82,83,103,102));
#280=IFCINDEXEDPOLYGONALFACE((83,84,104,103));
#281=IFCINDEXEDPOLYGONALFACE((84,85,105,104));
#282=IFCINDEXEDPOLYGONALFACE((85,86,106,105));
#283=IFCINDEXEDPOLYGONALFACE((86,87,107,106));
#284=IFCINDEXEDPOLYGONALFACE((87,88,108,107));
#285=IFCINDEXEDPOLYGONALFACE((88,89,109,108));
#286=IFCINDEXEDPOLYGONALFACE((89,90,110,109));
#287=IFCINDEXEDPOLYGONALFACE((90,91,111,110));
#288=IFCINDEXEDPOLYGONALFACE((91,92,112,111));
#289=IFCINDEXEDPOLYGONALFACE((92,93,113,112));
#290=IFCINDEXEDPOLYGONALFACE((93,94,114,113));
#291=IFCINDEXEDPOLYGONALFACE((94,95,115,114));
#292=IFCINDEXEDPOLYGONALFACE((95,96,116,115));
#293=IFCINDEXEDPOLYGONALFACE((96,97,117,116));
#294=IFCINDEXEDPOLYGONALFACE((97,98,118,117));
#295=IFCINDEXEDPOLYGONALFACE((98,99,119,118));
#296=IFCINDEXEDPOLYGONALFACE((99,100,120,119));
#297=IFCINDEXEDPOLYGONALFACE((100,81,101,120));
#298=IFCINDEXEDPOLYGONALFACE((140,139,138,137,136,135,134,133,132,131,130,129,128,127,126,125,124,123,122,121));
#299=IFCINDEXEDPOLYGONALFACE((141,142,143,144,145,146,147,148,149,150,151,152,153,154,155,156,157,158,159,160));
#300=IFCINDEXEDPOLYGONALFACE((121,122,142,141));
#301=IFCINDEXEDPOLYGONALFACE((122,123,143,142));
#302=IFCINDEXEDPOLYGONALFACE((123,124,144,143));
#303=IFCINDEXEDPOLYGONALFACE((124,125,145,144));
#304=IFCINDEXEDPOLYGONALFACE((125,126,146,145));
#305=IFCINDEXEDPOLYGONALFACE((126,127,147,146));
#306=IFCINDEXEDPOLYGONALFACE((127,128,148,147));
#307=IFCINDEXEDPOLYGONALFACE((128,129,149,148));
#308=IFCINDEXEDPOLYGONALFACE((129,130,150,149));
#309=IFCINDEXEDPOLYGONALFACE((130,131,151,150));
#310=IFCINDEXEDPOLYGONALFACE((131,132,152,151));
#311=IFCINDEXEDPOLYGONALFACE((132,133,153,152));
#312=IFCINDEXEDPOLYGONALFACE((133,134,154,153));
#313=IFCINDEXEDPOLYGONALFACE((134,135,155,154));
#314=IFCINDEXEDPOLYGONALFACE((135,136,156,155));
#315=IFCINDEXEDPOLYGONALFACE((136,137,157,156));
#316=IFCINDEXEDPOLYGONALFACE((137,138,158,157));
#317=IFCINDEXEDPOLYGONALFACE((138,139,159,158));
#318=IFCINDEXEDPOLYGONALFACE((139,140,160,159));
#319=IFCINDEXEDPOLYGONALFACE((140,121,141,160));
#320=IFCINDEXEDPOLYGONALFACE((180,179,178,177,176,175,174,173,172,171,170,169,168,167,166,165,164,163,162,161));
#321=IFCINDEXEDPOLYGONALFACE((181,182,183,184,185,186,187,188,189,190,191,192,193,194,195,196,197,198,199,200));
#322=IFCINDEXEDPOLYGONALFACE((161,162,182,181));
#323=IFCINDEXEDPOLYGONALFACE((162,163,183,182));
#324=IFCINDEXEDPOLYGONALFACE((163,164,184,183));
#325=IFCINDEXEDPOLYGONALFACE((164,165,185,184));
#326=IFCINDEXEDPOLYGONALFACE((165,166,186,185));
#327=IFCINDEXEDPOLYGONALFACE((166,167,187,186));
#328=IFCINDEXEDPOLYGONALFACE((167,168,188,187));
#329=IFCINDEXEDPOLYGONALFACE((168,169,189,188));
#330=IFCINDEXEDPOLYGONALFACE((169,170,190,189));
#331=IFCINDEXEDPOLYGONALFACE((170,171,191,190));
#332=IFCINDEXEDPOLYGONALFACE((171,172,192,191));
#333=IFCINDEXEDPOLYGONALFACE((172,173,193,192));
#334=IFCINDEXEDPOLYGONALFACE((173,174,194,193));
#335=IFCINDEXEDPOLYGONALFACE((174,175,195,194));
#336=IFCINDEXEDPOLYGONALFACE((175,176,196,195));
#337=IFCINDEXEDPOLYGONALFACE((176,177,197,196));
#338=IFCINDEXEDPOLYGONALFACE((177,178,198,197));
#339=IFCINDEXEDPOLYGONALFACE((178,179,199,198));
#340=IFCINDEXEDPOLYGONALFACE((179,180,200,199));
#341=IFCINDEXEDPOLYGONALFACE((180,161,181,200));
#342=IFCINDEXEDPOLYGONALFACE((220,219,218,217,216,215,214,213,212,211,210,209,208,207,206,205,204,203,202,201));
#343=IFCINDEXEDPOLYGONALFACE((221,222,223,224,225,226,227,228,229,230,231,232,233,234,235,236,237,238,239,240));
#344=IFCINDEXEDPOLYGONALFACE((201,202,222,221));
#345=IFCINDEXEDPOLYGONALFACE((202,203,223,222));
#346=IFCINDEXEDPOLYGONALFACE((203,204,224,223));
#347=IFCINDEXEDPOLYGONALFACE((204,205,225,224));
#348=IFCINDEXEDPOLYGONALFACE((205,206,226,225));
#349=IFCINDEXEDPOLYGONALFACE((206,207,227,226));
#350=IFCINDEXEDPOLYGONALFACE((207,208,228,227));
#351=IFCINDEXEDPOLYGONALFACE((208,209,229,228));
#352=IFCINDEXEDPOLYGONALFACE((209,210,230,229));
#353=IFCINDEXEDPOLYGONALFACE((210,211,231,230));
#354=IFCINDEXEDPOLYGONALFACE((211,212,232,231));
#355=IFCINDEXEDPOLYGONALFACE((212,213,233,232));
#356=IFCINDEXEDPOLYGONALFACE((213,214,234,233));
#357=IFCINDEXEDPOLYGONALFACE((214,215,235,234));
#358=IFCINDEXEDPOLYGONALFACE((215,216,236,235));
#359=IFCINDEXEDPOLYGONALFACE((216,217,237,236));
#360=IFCINDEXEDPOLYGONALFACE((217,218,238,237));
#361=IFCINDEXEDPOLYGONALFACE((218,219,239,238));
#362=IFCINDEXEDPOLYGONALFACE((219,220,240,239));
#363=IFCINDEXEDPOLYGONALFACE((220,201,221,240));
#364=IFCINDEXEDPOLYGONALFACE((260,259,258,257,256,255,254,253,252,251,250,249,248,247,246,245,244,243,242,241));
#365=IFCINDEXEDPOLYGONALFACE((261,262,263,264,265,266,267,268,269,270,271,272,273,274,275,276,277,278,279,280));
#366=IFCINDEXEDPOLYGONALFACE((241,242,262,261));
#367=IFCINDEXEDPOLYGONALFACE((242,243,263,262));
#368=IFCINDEXEDPOLYGONALFACE((243,244,264,263));
#369=IFCINDEXEDPOLYGONALFACE((244,245,265,264));
#370=IFCINDEXEDPOLYGONALFACE((245,246,266,265));
#371=IFCINDEXEDPOLYGONALFACE((246,247,267,266));
#372=IFCINDEXEDPOLYGONALFACE((247,248,268,267));
#373=IFCINDEXEDPOLYGONALFACE((248,249,269,268));
#374=IFCINDEXEDPOLYGONALFACE((249,250,270,269));
#375=IFCINDEXEDPOLYGONALFACE((250,251,271,270));
#376=IFCINDEXEDPOLYGONALFACE((251,252,272,271));
#377=IFCINDEXEDPOLYGONALFACE((252,253,273,272));
#378=IFCINDEXEDPOLYGONALFACE((253,254,274,273));
#379=IFCINDEXEDPOLYGONALFACE((254,255,275,274));
#380=IFCINDEXEDPOLYGONALFACE((255,256,276,275));
#381=IFCINDEXEDPOLYGONALFACE((256,257,277,276));
#382=IFCINDEXEDPOLYGONALFACE((257,258,278,277));
#383=IFCINDEXEDPOLYGONALFACE((258,259,279,278));
#384=IFCINDEXEDPOLYGONALFACE((259,260,280,279));
#385=IFCINDEXEDPOLYGONALFACE((260,241,261,280));
#386=IFCINDEXEDPOLYGONALFACE((300,299,298,297,296,295,294,293,292,291,290,289,288,287,286,285,284,283,282,281));
#387=IFCINDEXEDPOLYGONALFACE((301,302,303,304,305,306,307,308,309,310,311,312,313,314,315,316,317,318,319,320));
#388=IFCINDEXEDPOLYGONALFACE((281,282,302,301));
#389=IFCINDEXEDPOLYGONALFACE((282,283,303,302));
#390=IFCINDEXEDPOLYGONALFACE((283,284,304,303));
#391=IFCINDEXEDPOLYGONALFACE((284,285,305,304));
#392=IFCINDEXEDPOLYGONALFACE((285,286,306,305));
#393=IFCINDEXEDPOLYGONALFACE((286,287,307,306));
#394=IFCINDEXEDPOLYGONALFACE((287,288,308,307));
#395=IFCINDEXEDPOLYGONALFACE((288,289,309,308));
#396=IFCINDEXEDPOLYGONALFACE((289,290,310,309));
#397=IFCINDEXEDPOLYGONALFACE((290,291,311,310));
#398=IFCINDEXEDPOLYGONALFACE((291,292,312,311));
#399=IFCINDEXEDPOLYGONALFACE((292,293,313,312));
#400=IFCINDEXEDPOLYGONALFACE((293,294,314,313));
#401=IFCINDEXEDPOLYGONALFACE((294,295,315,314));
#402=IFCINDEXEDPOLYGONALFACE((295,296,316,315));
#403=IFCINDEXEDPOLYGONALFACE((296,297,317,316));
#404=IFCINDEXEDPOLYGONALFACE((297,298,318,317));
#405=IFCINDEXEDPOLYGONALFACE((298,299,319,318));
#406=IFCINDEXEDPOLYGONALFACE((299,300,320,319));
#407=IFCINDEXEDPOLYGONALFACE((300,281,301,320));
#408=IFCINDEXEDPOLYGONALFACE((340,339,338,337,336,335,334,333,332,331,330,329,328,327,326,325,324,323,322,321));
#409=IFCINDEXEDPOLYGONALFACE((341,342,343,344,345,346,347,348,349,350,351,352,353,354,355,356,357,358,359,360));
#410=IFCINDEXEDPOLYGONALFACE((321,322,342,341));
#411=IFCINDEXEDPOLYGONALFACE((322,323,343,342));
#412=IFCINDEXEDPOLYGONALFACE((323,324,344,343));
#413=IFCINDEXEDPOLYGONALFACE((324,325,345,344));
#414=IFCINDEXEDPOLYGONALFACE((325,326,346,345));
#415=IFCINDEXEDPOLYGONALFACE((326,327,347,346));
#416=IFCINDEXEDPOLYGONALFACE((327,328,348,347));
#417=IFCINDEXEDPOLYGONALFACE((328,329,349,348));
#418=IFCINDEXEDPOLYGONALFACE((329,330,350,349));
#419=IFCINDEXEDPOLYGONALFACE((330,331,351,350));
#420=IFCINDEXEDPOLYGONALFACE((331,332,352,351));
#421=IFCINDEXEDPOLYGONALFACE((332,333,353,352));
#422=IFCINDEXEDPOLYGONALFACE((333,334,354,353));
#423=IFCINDEXEDPOLYGONALFACE((334,335,355,354));
#424=IFCINDEXEDPOLYGONALFACE((335,336,356,355));
#425=IFCINDEXEDPOLYGONALFACE((336,337,357,356));
#426=IFCINDEXEDPOLYGONALFACE((337,338,358,357));
#427=IFCINDEXEDPOLYGONALFACE((338,339,359,358));
#428=IFCINDEXEDPOLYGONALFACE((339,340,360,359));
#429=IFCINDEXEDPOLYGONALFACE((340,321,341,360));
#430=IFCPOLYGONALFACESET(#231,$,(#232,#233,#234,#235,#236,#237,#238,#239,#240,#241,#242,#243,#244,#245,#246,#247,#248,#249,#250,#251,#252,#253,#254,#255,#256,#257,#258,#259,#260,#261,#262,#263,#264,#265,#266,#267,#268,#269,#270,#271,#272,#273,#274,#275,#276,#277,#278,#279,#280,#281,#282,#283,#284,#285,#286,#287,#288,#289,#290,#291,#292,#293,#294,#295,#296,#297,#298,#299,#300,#301,#302,#303,#304,#305,#306,#307,#308,#309,#310,#311,#312,#313,#314,#315,#316,#317,#318,#319,#320,#321,#322,#323,#324,#325,#326,#327,#328,#329,#330,#331,#332,#333,#334,#335,#336,#337,#338,#339,#340,#341,#342,#343,#344,#345,#346,#347,#348,#349,#350,#351,#352,#353,#354,#355,#356,#357,#358,#359,#360,#361,#362,#363,#364,#365,#366,#367,#368,#369,#370,#371,#372,#373,#374,#375,#376,#377,#378,#379,#380,#381,#382,#383,#384,#385,#386,#387,#388,#389,#390,#391,#392,#393,#394,#395,#396,#397,#398,#399,#400,#401,#402,#403,#404,#405,#406,#407,#408,#409,#410,#411,#412,#413,#414,#415,#416,#417,#418,#419,#420,#421,#422,#423,#424,#425,#426,#427,#428,#429),$);
#431=IFCSHAPEREPRESENTATION(#13,'Body','Tessellation',(#430));
#432=IFCPRODUCTDEFINITIONSHAPE($,$,(#431));
#433=IFCDISCRETEACCESSORY('1f9JKoq5LQ48nW8yQj0NwT',$,'powered-bogie brake calipers, parking actuators, pads and wheel-slide hardware','A rail brake supplier matches caliper, actuator, disc and pad friction pair to the released stopping, thermal and parking-brake cases.',$,#527,#513,'LM3-BOG-P048',$);
#434=IFCPROPERTYSINGLEVALUE('OSRId',$,IFCTEXT('LM3-BOG-P048'),$);
#435=IFCPROPERTYSINGLEVALUE('Parent',$,IFCTEXT('LM3-BOG-SA611'),$);
#436=IFCPROPERTYSINGLEVALUE('Route',$,IFCTEXT('BID'),$);
#437=IFCPROPERTYSINGLEVALUE('Maturity',$,IFCTEXT('buildable-after-supplier-freeze'),$);
#438=IFCPROPERTYSINGLEVALUE('QuantityPerTrainset',$,IFCINTEGER(3),$);
#439=IFCPROPERTYSINGLEVALUE('Unit',$,IFCTEXT('bogie set'),$);
#440=IFCPROPERTYSINGLEVALUE('GeometryStatus',$,IFCTEXT('design-reference-not-released'),$);
#441=IFCPROPERTYSINGLEVALUE('GeometryLevel',$,IFCTEXT('coordination-envelope'),$);
#442=IFCPROPERTYSET('0I9e3TMePSV8BDtJM3MjJ$',$,'OSR_ProductDefinition',$,(#434,#435,#436,#437,#438,#439,#440,#441));
#443=IFCRELDEFINESBYPROPERTIES('04EZ9K_JDR5wQJHQIHZs5I',$,$,$,(#433),#442);
#444=IFCCARTESIANPOINTLIST3D(((0.10920000000000001,-0.46200000000000002,0.),(0.10385537157943077,-0.46200000000000002,0.03374465578574426),(0.088344655785744269,-0.46200000000000002,0.064186149550338065),(0.064186149550338065,-0.46200000000000002,0.088344655785744269),(0.033744655785744267,-0.46200000000000002,0.10385537157943077),(6.6865715233445485E-18,-0.46200000000000002,0.10920000000000001),(-0.033744655785744253,-0.46200000000000002,0.10385537157943078),(-0.064186149550338051,-0.46200000000000002,0.088344655785744269),(-0.088344655785744255,-0.46200000000000002,0.064186149550338079),(-0.10385537157943077,-0.46200000000000002,0.033744655785744267),(-0.10920000000000001,-0.46200000000000002,1.3373143046689097E-17),(-0.1038553715794308,-0.46200000000000002,-0.033744655785744204),(-0.088344655785744283,-0.46200000000000002,-0.064186149550338051),(-0.064186149550338079,-0.46200000000000002,-0.088344655785744255),(-0.033744655785744274,-0.46200000000000002,-0.10385537157943077),(-2.0059714570033645E-17,-0.46200000000000002,-0.10920000000000001),(0.033744655785744239,-0.46200000000000002,-0.10385537157943078),(0.064186149550338051,-0.46200000000000002,-0.088344655785744283),(0.088344655785744255,-0.46200000000000002,-0.064186149550338092),(0.10385537157943077,-0.46200000000000002,-0.033744655785744281),(0.10920000000000001,0.46200000000000002,0.),(0.10385537157943077,0.46200000000000002,0.03374465578574426),(0.088344655785744269,0.46200000000000002,0.064186149550338065),(0.064186149550338065,0.46200000000000002,0.088344655785744269),(0.033744655785744267,0.46200000000000002,0.10385537157943077),(6.6865715233445485E-18,0.46200000000000002,0.10920000000000001),(-0.033744655785744253,0.46200000000000002,0.10385537157943078),(-0.064186149550338051,0.46200000000000002,0.088344655785744269),(-0.088344655785744255,0.46200000000000002,0.064186149550338079),(-0.10385537157943077,0.46200000000000002,0.033744655785744267),(-0.10920000000000001,0.46200000000000002,1.3373143046689097E-17),(-0.1038553715794308,0.46200000000000002,-0.033744655785744204),(-0.088344655785744283,0.46200000000000002,-0.064186149550338051),(-0.064186149550338079,0.46200000000000002,-0.088344655785744255),(-0.033744655785744274,0.46200000000000002,-0.10385537157943077),(-2.0059714570033645E-17,0.46200000000000002,-0.10920000000000001),(0.033744655785744239,0.46200000000000002,-0.10385537157943078),(0.064186149550338051,0.46200000000000002,-0.088344655785744283),(0.088344655785744255,0.46200000000000002,-0.064186149550338092),(0.10385537157943077,0.46200000000000002,-0.033744655785744281),(0.083199999999999996,-1.1000000000000001,0.),(0.079127902155756769,-1.1000000000000001,0.025710213931995622),(0.067310213931995627,-1.1000000000000001,0.048903732990733764),(0.048903732990733764,-1.1000000000000001,0.067310213931995627),(0.025710213931995626,-1.1000000000000001,0.079127902155756769),(5.094530684452989E-18,-1.1000000000000001,0.083199999999999996),(-0.025710213931995619,-1.1000000000000001,0.079127902155756782),(-0.04890373299073375,-1.1000000000000001,0.067310213931995627),(-0.067310213931995613,-1.1000000000000001,0.048903732990733771),(-0.079127902155756769,-1.1000000000000001,0.025710213931995633),(-0.083199999999999996,-1.1000000000000001,1.0189061368905978E-17),(-0.079127902155756782,-1.1000000000000001,-0.025710213931995581),(-0.067310213931995627,-1.1000000000000001,-0.04890373299073375),(-0.048903732990733771,-1.1000000000000001,-0.067310213931995613),(-0.025710213931995636,-1.1000000000000001,-0.079127902155756769),(-1.5283592053358966E-17,-1.1000000000000001,-0.083199999999999996),(0.025710213931995608,-1.1000000000000001,-0.079127902155756782),(0.048903732990733743,-1.1000000000000001,-0.067310213931995627),(0.067310213931995613,-1.1000000000000001,-0.048903732990733778),(0.079127902155756769,-1.1000000000000001,-0.02571021393199564),(0.083199999999999996,1.1000000000000001,0.),(0.079127902155756769,1.1000000000000001,0.025710213931995622),(0.067310213931995627,1.1000000000000001,0.048903732990733764),(0.048903732990733764,1.1000000000000001,0.067310213931995627),(0.025710213931995626,1.1000000000000001,0.079127902155756769),(5.094530684452989E-18,1.1000000000000001,0.083199999999999996),(-0.025710213931995619,1.1000000000000001,0.079127902155756782),(-0.04890373299073375,1.1000000000000001,0.067310213931995627),(-0.067310213931995613,1.1000000000000001,0.048903732990733771),(-0.079127902155756769,1.1000000000000001,0.025710213931995633),(-0.083199999999999996,1.1000000000000001,1.0189061368905978E-17),(-0.079127902155756782,1.1000000000000001,-0.025710213931995581),(-0.067310213931995627,1.1000000000000001,-0.04890373299073375),(-0.048903732990733771,1.1000000000000001,-0.067310213931995613),(-0.025710213931995636,1.1000000000000001,-0.079127902155756769),(-1.5283592053358966E-17,1.1000000000000001,-0.083199999999999996),(0.025710213931995608,1.1000000000000001,-0.079127902155756782),(0.048903732990733743,1.1000000000000001,-0.067310213931995627),(0.067310213931995613,1.1000000000000001,-0.048903732990733778),(0.079127902155756769,1.1000000000000001,-0.02571021393199564),(0.189,-0.24199999999999999,0.),(0.17974968157978402,-0.24199999999999999,0.058404211936865055),(0.15290421193686507,-0.24199999999999999,0.11109141268327742),(0.11109141268327742,-0.24199999999999999,0.15290421193686507),(0.058404211936865069,-0.24199999999999999,0.17974968157978402),(1.1572912251942488E-17,-0.24199999999999999,0.189),(-0.058404211936865048,-0.24199999999999999,0.17974968157978405),(-0.11109141268327741,-0.24199999999999999,0.15290421193686507),(-0.15290421193686504,-0.24199999999999999,0.11109141268327745),(-0.17974968157978402,-0.24199999999999999,0.058404211936865076),(-0.189,-0.24199999999999999,2.3145824503884977E-17),(-0.17974968157978405,-0.24199999999999999,-0.058404211936864965),(-0.1529042119368651,-0.24199999999999999,-0.11109141268327741),(-0.11109141268327745,-0.24199999999999999,-0.15290421193686504),(-0.05840421193686509,-0.24199999999999999,-0.17974968157978402),(-3.4718736755827461E-17,-0.24199999999999999,-0.189),(0.058404211936865028,-0.24199999999999999,-0.17974968157978405),(0.11109141268327738,-0.24199999999999999,-0.1529042119368651),(0.15290421193686504,-0.24199999999999999,-0.11109141268327746),(0.17974968157978402,-0.24199999999999999,-0.058404211936865097),(0.189,0.24199999999999999,0.),(0.17974968157978402,0.24199999999999999,0.058404211936865055),(0.15290421193686507,0.24199999999999999,0.11109141268327742),(0.11109141268327742,0.24199999999999999,0.15290421193686507),(0.058404211936865069,0.24199999999999999,0.17974968157978402),(1.1572912251942488E-17,0.24199999999999999,0.189),(-0.058404211936865048,0.24199999999999999,0.17974968157978405),(-0.11109141268327741,0.24199999999999999,0.15290421193686507),(-0.15290421193686504,0.24199999999999999,0.11109141268327745),(-0.17974968157978402,0.24199999999999999,0.058404211936865076),(-0.189,0.24199999999999999,2.3145824503884977E-17),(-0.17974968157978405,0.24199999999999999,-0.058404211936864965),(-0.1529042119368651,0.24199999999999999,-0.11109141268327741),(-0.11109141268327745,0.24199999999999999,-0.15290421193686504),(-0.05840421193686509,0.24199999999999999,-0.17974968157978402),(-3.4718736755827461E-17,0.24199999999999999,-0.189),(0.058404211936865028,0.24199999999999999,-0.17974968157978405),(0.11109141268327738,0.24199999999999999,-0.1529042119368651),(0.15290421193686504,0.24199999999999999,-0.11109141268327746),(0.17974968157978402,0.24199999999999999,-0.058404211936865097)),$);
#445=IFCINDEXEDPOLYGONALFACE((20,19,18,17,16,15,14,13,12,11,10,9,8,7,6,5,4,3,2,1));
#446=IFCINDEXEDPOLYGONALFACE((21,22,23,24,25,26,27,28,29,30,31,32,33,34,35,36,37,38,39,40));
#447=IFCINDEXEDPOLYGONALFACE((1,2,22,21));
#448=IFCINDEXEDPOLYGONALFACE((2,3,23,22));
#449=IFCINDEXEDPOLYGONALFACE((3,4,24,23));
#450=IFCINDEXEDPOLYGONALFACE((4,5,25,24));
#451=IFCINDEXEDPOLYGONALFACE((5,6,26,25));
#452=IFCINDEXEDPOLYGONALFACE((6,7,27,26));
#453=IFCINDEXEDPOLYGONALFACE((7,8,28,27));
#454=IFCINDEXEDPOLYGONALFACE((8,9,29,28));
#455=IFCINDEXEDPOLYGONALFACE((9,10,30,29));
#456=IFCINDEXEDPOLYGONALFACE((10,11,31,30));
#457=IFCINDEXEDPOLYGONALFACE((11,12,32,31));
#458=IFCINDEXEDPOLYGONALFACE((12,13,33,32));
#459=IFCINDEXEDPOLYGONALFACE((13,14,34,33));
#460=IFCINDEXEDPOLYGONALFACE((14,15,35,34));
#461=IFCINDEXEDPOLYGONALFACE((15,16,36,35));
#462=IFCINDEXEDPOLYGONALFACE((16,17,37,36));
#463=IFCINDEXEDPOLYGONALFACE((17,18,38,37));
#464=IFCINDEXEDPOLYGONALFACE((18,19,39,38));
#465=IFCINDEXEDPOLYGONALFACE((19,20,40,39));
#466=IFCINDEXEDPOLYGONALFACE((20,1,21,40));
#467=IFCINDEXEDPOLYGONALFACE((60,59,58,57,56,55,54,53,52,51,50,49,48,47,46,45,44,43,42,41));
#468=IFCINDEXEDPOLYGONALFACE((61,62,63,64,65,66,67,68,69,70,71,72,73,74,75,76,77,78,79,80));
#469=IFCINDEXEDPOLYGONALFACE((41,42,62,61));
#470=IFCINDEXEDPOLYGONALFACE((42,43,63,62));
#471=IFCINDEXEDPOLYGONALFACE((43,44,64,63));
#472=IFCINDEXEDPOLYGONALFACE((44,45,65,64));
#473=IFCINDEXEDPOLYGONALFACE((45,46,66,65));
#474=IFCINDEXEDPOLYGONALFACE((46,47,67,66));
#475=IFCINDEXEDPOLYGONALFACE((47,48,68,67));
#476=IFCINDEXEDPOLYGONALFACE((48,49,69,68));
#477=IFCINDEXEDPOLYGONALFACE((49,50,70,69));
#478=IFCINDEXEDPOLYGONALFACE((50,51,71,70));
#479=IFCINDEXEDPOLYGONALFACE((51,52,72,71));
#480=IFCINDEXEDPOLYGONALFACE((52,53,73,72));
#481=IFCINDEXEDPOLYGONALFACE((53,54,74,73));
#482=IFCINDEXEDPOLYGONALFACE((54,55,75,74));
#483=IFCINDEXEDPOLYGONALFACE((55,56,76,75));
#484=IFCINDEXEDPOLYGONALFACE((56,57,77,76));
#485=IFCINDEXEDPOLYGONALFACE((57,58,78,77));
#486=IFCINDEXEDPOLYGONALFACE((58,59,79,78));
#487=IFCINDEXEDPOLYGONALFACE((59,60,80,79));
#488=IFCINDEXEDPOLYGONALFACE((60,41,61,80));
#489=IFCINDEXEDPOLYGONALFACE((100,99,98,97,96,95,94,93,92,91,90,89,88,87,86,85,84,83,82,81));
#490=IFCINDEXEDPOLYGONALFACE((101,102,103,104,105,106,107,108,109,110,111,112,113,114,115,116,117,118,119,120));
#491=IFCINDEXEDPOLYGONALFACE((81,82,102,101));
#492=IFCINDEXEDPOLYGONALFACE((82,83,103,102));
#493=IFCINDEXEDPOLYGONALFACE((83,84,104,103));
#494=IFCINDEXEDPOLYGONALFACE((84,85,105,104));
#495=IFCINDEXEDPOLYGONALFACE((85,86,106,105));
#496=IFCINDEXEDPOLYGONALFACE((86,87,107,106));
#497=IFCINDEXEDPOLYGONALFACE((87,88,108,107));
#498=IFCINDEXEDPOLYGONALFACE((88,89,109,108));
#499=IFCINDEXEDPOLYGONALFACE((89,90,110,109));
#500=IFCINDEXEDPOLYGONALFACE((90,91,111,110));
#501=IFCINDEXEDPOLYGONALFACE((91,92,112,111));
#502=IFCINDEXEDPOLYGONALFACE((92,93,113,112));
#503=IFCINDEXEDPOLYGONALFACE((93,94,114,113));
#504=IFCINDEXEDPOLYGONALFACE((94,95,115,114));
#505=IFCINDEXEDPOLYGONALFACE((95,96,116,115));
#506=IFCINDEXEDPOLYGONALFACE((96,97,117,116));
#507=IFCINDEXEDPOLYGONALFACE((97,98,118,117));
#508=IFCINDEXEDPOLYGONALFACE((98,99,119,118));
#509=IFCINDEXEDPOLYGONALFACE((99,100,120,119));
#510=IFCINDEXEDPOLYGONALFACE((100,81,101,120));
#511=IFCPOLYGONALFACESET(#444,$,(#445,#446,#447,#448,#449,#450,#451,#452,#453,#454,#455,#456,#457,#458,#459,#460,#461,#462,#463,#464,#465,#466,#467,#468,#469,#470,#471,#472,#473,#474,#475,#476,#477,#478,#479,#480,#481,#482,#483,#484,#485,#486,#487,#488,#489,#490,#491,#492,#493,#494,#495,#496,#497,#498,#499,#500,#501,#502,#503,#504,#505,#506,#507,#508,#509,#510),$);
#512=IFCSHAPEREPRESENTATION(#13,'Body','Tessellation',(#511));
#513=IFCPRODUCTDEFINITIONSHAPE($,$,(#512));
#514=IFCRELAGGREGATES('36xsb6p2fI6QM9$ATY5eRz',$,$,$,#28,(#36,#161,#220,#433));
#515=IFCRELCONTAINEDINSPATIALSTRUCTURE('2z_T0ziGXNe8SWjw3msO13',$,$,$,(#28),#3);
#516=IFCCARTESIANPOINT((0.,0.,0.));
#517=IFCAXIS2PLACEMENT3D(#516,$,$);
#518=IFCLOCALPLACEMENT($,#517);
#519=IFCCARTESIANPOINT((2.8999999999999999,0.,0.));
#520=IFCAXIS2PLACEMENT3D(#519,$,$);
#521=IFCLOCALPLACEMENT($,#520);
#522=IFCCARTESIANPOINT((5.7999999999999998,0.,0.));
#523=IFCAXIS2PLACEMENT3D(#522,$,$);
#524=IFCLOCALPLACEMENT($,#523);
#525=IFCCARTESIANPOINT((8.6999999999999993,0.,0.));
#526=IFCAXIS2PLACEMENT3D(#525,$,$);
#527=IFCLOCALPLACEMENT($,#526);
ENDSEC;
END-ISO-10303-21;
