ISO-10303-21;
HEADER;
FILE_DESCRIPTION(('ViewDefinition [CoordinationView]'),'2;1');
FILE_NAME('LM3-CWL-SA710.ifc','2026-08-30T00:00:00+00:00',('OpenSourceRail'),('OpenSourceRail'),'IfcOpenShell 0.8.5','OpenSourceRail deterministic LM3 product-library exporter','design-reference / not for construction');
FILE_SCHEMA(('IFC4X3_ADD2'));
ENDSEC;
DATA;
#1=IFCPROJECT('1XrN7r3BHLdu_rgQASmZxK',$,'LM3-CWL-SA710 \X2\2014\X0\ front/back fiberglass cowl cast kit','Design-reference geometry and assembly hierarchy only; supplier freeze, released drawings/tolerances, calculations, qualified processes and first-article tests remain mandatory.',$,$,$,(#12),#7);
#2=IFCSITE('0j$UiVKh1Vsf12cErotrr_',$,'LM3 product library',$,$,#18,$,$,.ELEMENT.,$,$,$,$,$);
#3=IFCBUILDING('3JmBLmD6rUgBVix7zEunPn',$,'LM3 assembly inspection fixture',$,$,#21,$,$,.ELEMENT.,$,$,$);
#4=IFCSIUNIT(*,.LENGTHUNIT.,$,.METRE.);
#5=IFCSIUNIT(*,.AREAUNIT.,$,.SQUARE_METRE.);
#6=IFCSIUNIT(*,.VOLUMEUNIT.,$,.CUBIC_METRE.);
#7=IFCUNITASSIGNMENT((#6,#4,#5));
#8=IFCCARTESIANPOINT((0.,0.,0.));
#9=IFCDIRECTION((0.,0.,1.));
#10=IFCDIRECTION((1.,0.,0.));
#11=IFCAXIS2PLACEMENT3D(#8,#9,#10);
#12=IFCGEOMETRICREPRESENTATIONCONTEXT($,'Model',3,1.0000000000000001E-05,#11,$);
#13=IFCGEOMETRICREPRESENTATIONSUBCONTEXT('Body','Model',*,*,*,*,#12,$,.MODEL_VIEW.,$);
#14=IFCRELAGGREGATES('3jtOTTQLfLiQ3SMb3RW8XE',$,$,$,#1,(#2));
#15=IFCRELAGGREGATES('1YYiv8QlTJNP4Uidjfcmqi',$,$,$,#2,(#3));
#16=IFCCARTESIANPOINT((0.,0.,0.));
#17=IFCAXIS2PLACEMENT3D(#16,$,$);
#18=IFCLOCALPLACEMENT($,#17);
#19=IFCCARTESIANPOINT((0.,0.,0.));
#20=IFCAXIS2PLACEMENT3D(#19,$,$);
#21=IFCLOCALPLACEMENT($,#20);
#22=IFCPROPERTYSINGLEVALUE('Status',$,IFCTEXT('design-reference-not-released'),$);
#23=IFCPROPERTYSINGLEVALUE('ReleaseBoundary',$,IFCTEXT('Design-reference geometry and assembly hierarchy only; supplier freeze, released drawings/tolerances, calculations, qualified processes and first-article tests remain mandatory.'),$);
#24=IFCPROPERTYSINGLEVALUE('Manifest',$,IFCTEXT('design/component-catalogue/catalog/buildable-trainset/buildable-trainset-manifest.json'),$);
#25=IFCPROPERTYSINGLEVALUE('ManifestSha256',$,IFCTEXT('1179a30e147f3569fc4ccc8ce621621cec7985f620d2c788f8da93eec9ed7c05'),$);
#26=IFCPROPERTYSET('14ic3Qc0DTmvJWOz_OCUJ_',$,'OSR_ProductLibrary',$,(#22,#23,#24,#25));
#27=IFCRELDEFINESBYPROPERTIES('1VP0G5Dt1MvfZVVy5i0mbc',$,$,$,(#1),#26);
#28=IFCELEMENTASSEMBLY('3NAyugVRfMKuUuEmWrZM$y',$,'front/back fiberglass cowl cast kit','laminate coupon release | insert pull-out | trim/drill survey | A/B-end dry-build water test',$,$,$,'LM3-CWL-SA710',$,$);
#29=IFCPROPERTYSINGLEVALUE('OSRId',$,IFCTEXT('LM3-CWL-SA710'),$);
#30=IFCPROPERTYSINGLEVALUE('Layer',$,IFCTEXT('subassembly'),$);
#31=IFCPROPERTYSINGLEVALUE('BuildCell',$,IFCTEXT('composite moulding and trim cell'),$);
#32=IFCPROPERTYSINGLEVALUE('QuantityPerTrainset',$,IFCINTEGER(2),$);
#33=IFCPROPERTYSINGLEVALUE('GeometryStatus',$,IFCTEXT('complete-hierarchy-inspection-layout'),$);
#34=IFCPROPERTYSET('2EymiHSjPHohhgcz1QWafb',$,'OSR_AssemblyDefinition',$,(#29,#30,#31,#32,#33));
#35=IFCRELDEFINESBYPROPERTIES('2fpgl3kPDGmfByzv$tFDwT',$,$,$,(#28),#34);
#36=IFCPLATE('3NZU8Jr8fRLQSudW9lYRWF',$,'end-cowl fiberglass laminate, insert, adhesive, and coupon material kit','Fire-retardant E-glass/vinyl-ester or basalt composite consumables, inserts, coupons, and adhesive/sealant for one reversible end cowl kit.',$,#502,#68,'LM3-CWL-P010',$);
#37=IFCPROPERTYSINGLEVALUE('OSRId',$,IFCTEXT('LM3-CWL-P010'),$);
#38=IFCPROPERTYSINGLEVALUE('Parent',$,IFCTEXT('LM3-CWL-SA710'),$);
#39=IFCPROPERTYSINGLEVALUE('Route',$,IFCTEXT('SOURCE'),$);
#40=IFCPROPERTYSINGLEVALUE('Maturity',$,IFCTEXT('buildable-after-supplier-freeze'),$);
#41=IFCPROPERTYSINGLEVALUE('QuantityPerTrainset',$,IFCINTEGER(2),$);
#42=IFCPROPERTYSINGLEVALUE('Unit',$,IFCTEXT('kit'),$);
#43=IFCPROPERTYSINGLEVALUE('GeometryStatus',$,IFCTEXT('design-reference-not-released'),$);
#44=IFCPROPERTYSINGLEVALUE('GeometryLevel',$,IFCTEXT('coordination-envelope'),$);
#45=IFCPROPERTYSET('3Izz5yPobLCPsZuY8gTuFP',$,'OSR_ProductDefinition',$,(#37,#38,#39,#40,#41,#42,#43,#44));
#46=IFCRELDEFINESBYPROPERTIES('3g15yIZKXHpe0uoUVM$s4i',$,$,$,(#36),#45);
#47=IFCCARTESIANPOINTLIST3D(((-1.45,-1.3999999999999999,-1.464),(-1.45,-1.3999999999999999,-0.36599999999999999),(-1.45,1.3999999999999999,-1.464),(-1.45,1.3999999999999999,-0.36599999999999999),(1.45,-1.3999999999999999,-1.464),(1.45,-1.3999999999999999,-0.36599999999999999),(1.45,1.3999999999999999,-1.464),(1.45,1.3999999999999999,-0.36599999999999999),(-1.131,-1.288,-0.51849999999999996),(-1.131,-1.288,0.51849999999999996),(-1.131,1.288,-0.51849999999999996),(-1.131,1.288,0.51849999999999996),(1.131,-1.288,-0.51849999999999996),(1.131,-1.288,0.51849999999999996),(1.131,1.288,-0.51849999999999996),(1.131,1.288,0.51849999999999996),(-0.754,-1.0920000000000001,0.54900000000000004),(-0.754,-1.0920000000000001,1.3420000000000001),(-0.754,1.0920000000000001,0.54900000000000004),(-0.754,1.0920000000000001,1.3420000000000001),(0.754,-1.0920000000000001,0.54900000000000004),(0.754,-1.0920000000000001,1.3420000000000001),(0.754,1.0920000000000001,0.54900000000000004),(0.754,1.0920000000000001,1.3420000000000001)),$);
#48=IFCINDEXEDPOLYGONALFACE((1,2,4,3));
#49=IFCINDEXEDPOLYGONALFACE((5,7,8,6));
#50=IFCINDEXEDPOLYGONALFACE((1,5,6,2));
#51=IFCINDEXEDPOLYGONALFACE((3,4,8,7));
#52=IFCINDEXEDPOLYGONALFACE((1,3,7,5));
#53=IFCINDEXEDPOLYGONALFACE((2,6,8,4));
#54=IFCINDEXEDPOLYGONALFACE((9,10,12,11));
#55=IFCINDEXEDPOLYGONALFACE((13,15,16,14));
#56=IFCINDEXEDPOLYGONALFACE((9,13,14,10));
#57=IFCINDEXEDPOLYGONALFACE((11,12,16,15));
#58=IFCINDEXEDPOLYGONALFACE((9,11,15,13));
#59=IFCINDEXEDPOLYGONALFACE((10,14,16,12));
#60=IFCINDEXEDPOLYGONALFACE((17,18,20,19));
#61=IFCINDEXEDPOLYGONALFACE((21,23,24,22));
#62=IFCINDEXEDPOLYGONALFACE((17,21,22,18));
#63=IFCINDEXEDPOLYGONALFACE((19,20,24,23));
#64=IFCINDEXEDPOLYGONALFACE((17,19,23,21));
#65=IFCINDEXEDPOLYGONALFACE((18,22,24,20));
#66=IFCPOLYGONALFACESET(#47,$,(#48,#49,#50,#51,#52,#53,#54,#55,#56,#57,#58,#59,#60,#61,#62,#63,#64,#65),$);
#67=IFCSHAPEREPRESENTATION(#13,'Body','Tessellation',(#66));
#68=IFCPRODUCTDEFINITIONSHAPE($,$,(#67));
#69=IFCPLATE('0beFr6tqfUYvD4Lmmj$$$c',$,'CWL-FRP-01 upper brow and roof-cap fiberglass cast','Locally moulded upper brow/roof-cap cast with washer-cover lands and roof transition flange.',$,#505,#101,'LM3-CWL-P011',$);
#70=IFCPROPERTYSINGLEVALUE('OSRId',$,IFCTEXT('LM3-CWL-P011'),$);
#71=IFCPROPERTYSINGLEVALUE('Parent',$,IFCTEXT('LM3-CWL-SA710'),$);
#72=IFCPROPERTYSINGLEVALUE('Route',$,IFCTEXT('MAKE'),$);
#73=IFCPROPERTYSINGLEVALUE('Maturity',$,IFCTEXT('buildable-after-supplier-freeze'),$);
#74=IFCPROPERTYSINGLEVALUE('QuantityPerTrainset',$,IFCINTEGER(2),$);
#75=IFCPROPERTYSINGLEVALUE('Unit',$,IFCTEXT('ea'),$);
#76=IFCPROPERTYSINGLEVALUE('GeometryStatus',$,IFCTEXT('design-reference-not-released'),$);
#77=IFCPROPERTYSINGLEVALUE('GeometryLevel',$,IFCTEXT('design-reference-detail'),$);
#78=IFCPROPERTYSET('1SQ7VsDZvJluA9s5GyV9O3',$,'OSR_ProductDefinition',$,(#70,#71,#72,#73,#74,#75,#76,#77));
#79=IFCRELDEFINESBYPROPERTIES('0GocdycEvIYv$0vHqZl1Ix',$,$,$,(#69),#78);
#80=IFCCARTESIANPOINTLIST3D(((-0.625,-1.375,-0.34560000000000002),(-0.625,-1.375,-0.086400000000000005),(-0.625,1.375,-0.34560000000000002),(-0.625,1.375,-0.086400000000000005),(0.625,-1.375,-0.34560000000000002),(0.625,-1.375,-0.086400000000000005),(0.625,1.375,-0.34560000000000002),(0.625,1.375,-0.086400000000000005),(-0.48749999999999999,-1.2649999999999999,-0.12240000000000001),(-0.48749999999999999,-1.2649999999999999,0.12240000000000001),(-0.48749999999999999,1.2649999999999999,-0.12240000000000001),(-0.48749999999999999,1.2649999999999999,0.12240000000000001),(0.48749999999999999,-1.2649999999999999,-0.12240000000000001),(0.48749999999999999,-1.2649999999999999,0.12240000000000001),(0.48749999999999999,1.2649999999999999,-0.12240000000000001),(0.48749999999999999,1.2649999999999999,0.12240000000000001),(-0.32500000000000001,-1.0725,0.12959999999999997),(-0.32500000000000001,-1.0725,0.31680000000000003),(-0.32500000000000001,1.0725,0.12959999999999997),(-0.32500000000000001,1.0725,0.31680000000000003),(0.32500000000000001,-1.0725,0.12959999999999997),(0.32500000000000001,-1.0725,0.31680000000000003),(0.32500000000000001,1.0725,0.12959999999999997),(0.32500000000000001,1.0725,0.31680000000000003)),$);
#81=IFCINDEXEDPOLYGONALFACE((1,2,4,3));
#82=IFCINDEXEDPOLYGONALFACE((5,7,8,6));
#83=IFCINDEXEDPOLYGONALFACE((1,5,6,2));
#84=IFCINDEXEDPOLYGONALFACE((3,4,8,7));
#85=IFCINDEXEDPOLYGONALFACE((1,3,7,5));
#86=IFCINDEXEDPOLYGONALFACE((2,6,8,4));
#87=IFCINDEXEDPOLYGONALFACE((9,10,12,11));
#88=IFCINDEXEDPOLYGONALFACE((13,15,16,14));
#89=IFCINDEXEDPOLYGONALFACE((9,13,14,10));
#90=IFCINDEXEDPOLYGONALFACE((11,12,16,15));
#91=IFCINDEXEDPOLYGONALFACE((9,11,15,13));
#92=IFCINDEXEDPOLYGONALFACE((10,14,16,12));
#93=IFCINDEXEDPOLYGONALFACE((17,18,20,19));
#94=IFCINDEXEDPOLYGONALFACE((21,23,24,22));
#95=IFCINDEXEDPOLYGONALFACE((17,21,22,18));
#96=IFCINDEXEDPOLYGONALFACE((19,20,24,23));
#97=IFCINDEXEDPOLYGONALFACE((17,19,23,21));
#98=IFCINDEXEDPOLYGONALFACE((18,22,24,20));
#99=IFCPOLYGONALFACESET(#80,$,(#81,#82,#83,#84,#85,#86,#87,#88,#89,#90,#91,#92,#93,#94,#95,#96,#97,#98),$);
#100=IFCSHAPEREPRESENTATION(#13,'Body','Tessellation',(#99));
#101=IFCPRODUCTDEFINITIONSHAPE($,$,(#100));
#102=IFCPLATE('0jRZEphSbSBAE$ucIeB9GP',$,'CWL-FRP-02 left cheek fiberglass cast','Locally moulded left cheek/side-return cast carrying the green livery return and split-line closure.',$,#508,#134,'LM3-CWL-P012',$);
#103=IFCPROPERTYSINGLEVALUE('OSRId',$,IFCTEXT('LM3-CWL-P012'),$);
#104=IFCPROPERTYSINGLEVALUE('Parent',$,IFCTEXT('LM3-CWL-SA710'),$);
#105=IFCPROPERTYSINGLEVALUE('Route',$,IFCTEXT('MAKE'),$);
#106=IFCPROPERTYSINGLEVALUE('Maturity',$,IFCTEXT('buildable-after-supplier-freeze'),$);
#107=IFCPROPERTYSINGLEVALUE('QuantityPerTrainset',$,IFCINTEGER(2),$);
#108=IFCPROPERTYSINGLEVALUE('Unit',$,IFCTEXT('ea'),$);
#109=IFCPROPERTYSINGLEVALUE('GeometryStatus',$,IFCTEXT('design-reference-not-released'),$);
#110=IFCPROPERTYSINGLEVALUE('GeometryLevel',$,IFCTEXT('design-reference-detail'),$);
#111=IFCPROPERTYSET('0fes1bGITVjh3uzfuViNnJ',$,'OSR_ProductDefinition',$,(#103,#104,#105,#106,#107,#108,#109,#110));
#112=IFCRELDEFINESBYPROPERTIES('3By5n4iOPQU8rjK3jcJZob',$,$,$,(#102),#111);
#113=IFCCARTESIANPOINTLIST3D(((-0.57499999999999996,-0.34999999999999998,-1.1040000000000001),(-0.57499999999999996,-0.34999999999999998,-0.27600000000000002),(-0.57499999999999996,0.34999999999999998,-1.1040000000000001),(-0.57499999999999996,0.34999999999999998,-0.27600000000000002),(0.57499999999999996,-0.34999999999999998,-1.1040000000000001),(0.57499999999999996,-0.34999999999999998,-0.27600000000000002),(0.57499999999999996,0.34999999999999998,-1.1040000000000001),(0.57499999999999996,0.34999999999999998,-0.27600000000000002),(-0.44850000000000001,-0.32200000000000001,-0.39100000000000001),(-0.44850000000000001,-0.32200000000000001,0.39100000000000001),(-0.44850000000000001,0.32200000000000001,-0.39100000000000001),(-0.44850000000000001,0.32200000000000001,0.39100000000000001),(0.44850000000000001,-0.32200000000000001,-0.39100000000000001),(0.44850000000000001,-0.32200000000000001,0.39100000000000001),(0.44850000000000001,0.32200000000000001,-0.39100000000000001),(0.44850000000000001,0.32200000000000001,0.39100000000000001),(-0.29899999999999999,-0.27300000000000002,0.41399999999999998),(-0.29899999999999999,-0.27300000000000002,1.012),(-0.29899999999999999,0.27300000000000002,0.41399999999999998),(-0.29899999999999999,0.27300000000000002,1.012),(0.29899999999999999,-0.27300000000000002,0.41399999999999998),(0.29899999999999999,-0.27300000000000002,1.012),(0.29899999999999999,0.27300000000000002,0.41399999999999998),(0.29899999999999999,0.27300000000000002,1.012)),$);
#114=IFCINDEXEDPOLYGONALFACE((1,2,4,3));
#115=IFCINDEXEDPOLYGONALFACE((5,7,8,6));
#116=IFCINDEXEDPOLYGONALFACE((1,5,6,2));
#117=IFCINDEXEDPOLYGONALFACE((3,4,8,7));
#118=IFCINDEXEDPOLYGONALFACE((1,3,7,5));
#119=IFCINDEXEDPOLYGONALFACE((2,6,8,4));
#120=IFCINDEXEDPOLYGONALFACE((9,10,12,11));
#121=IFCINDEXEDPOLYGONALFACE((13,15,16,14));
#122=IFCINDEXEDPOLYGONALFACE((9,13,14,10));
#123=IFCINDEXEDPOLYGONALFACE((11,12,16,15));
#124=IFCINDEXEDPOLYGONALFACE((9,11,15,13));
#125=IFCINDEXEDPOLYGONALFACE((10,14,16,12));
#126=IFCINDEXEDPOLYGONALFACE((17,18,20,19));
#127=IFCINDEXEDPOLYGONALFACE((21,23,24,22));
#128=IFCINDEXEDPOLYGONALFACE((17,21,22,18));
#129=IFCINDEXEDPOLYGONALFACE((19,20,24,23));
#130=IFCINDEXEDPOLYGONALFACE((17,19,23,21));
#131=IFCINDEXEDPOLYGONALFACE((18,22,24,20));
#132=IFCPOLYGONALFACESET(#113,$,(#114,#115,#116,#117,#118,#119,#120,#121,#122,#123,#124,#125,#126,#127,#128,#129,#130,#131),$);
#133=IFCSHAPEREPRESENTATION(#13,'Body','Tessellation',(#132));
#134=IFCPRODUCTDEFINITIONSHAPE($,$,(#133));
#135=IFCPLATE('1sCko$4XHL6fhT1j_c_usW',$,'CWL-FRP-03 right cheek fiberglass cast','Locally moulded right cheek/side-return cast using the mirrored cheek datum and common hole pattern.',$,#511,#167,'LM3-CWL-P013',$);
#136=IFCPROPERTYSINGLEVALUE('OSRId',$,IFCTEXT('LM3-CWL-P013'),$);
#137=IFCPROPERTYSINGLEVALUE('Parent',$,IFCTEXT('LM3-CWL-SA710'),$);
#138=IFCPROPERTYSINGLEVALUE('Route',$,IFCTEXT('MAKE'),$);
#139=IFCPROPERTYSINGLEVALUE('Maturity',$,IFCTEXT('buildable-after-supplier-freeze'),$);
#140=IFCPROPERTYSINGLEVALUE('QuantityPerTrainset',$,IFCINTEGER(2),$);
#141=IFCPROPERTYSINGLEVALUE('Unit',$,IFCTEXT('ea'),$);
#142=IFCPROPERTYSINGLEVALUE('GeometryStatus',$,IFCTEXT('design-reference-not-released'),$);
#143=IFCPROPERTYSINGLEVALUE('GeometryLevel',$,IFCTEXT('design-reference-detail'),$);
#144=IFCPROPERTYSET('27lS45h4HGjuVgJk2uVkqf',$,'OSR_ProductDefinition',$,(#136,#137,#138,#139,#140,#141,#142,#143));
#145=IFCRELDEFINESBYPROPERTIES('1N1mOw6QXIrfgAdHPd9Ykl',$,$,$,(#135),#144);
#146=IFCCARTESIANPOINTLIST3D(((-0.57499999999999996,-0.34999999999999998,-1.1040000000000001),(-0.57499999999999996,-0.34999999999999998,-0.27600000000000002),(-0.57499999999999996,0.34999999999999998,-1.1040000000000001),(-0.57499999999999996,0.34999999999999998,-0.27600000000000002),(0.57499999999999996,-0.34999999999999998,-1.1040000000000001),(0.57499999999999996,-0.34999999999999998,-0.27600000000000002),(0.57499999999999996,0.34999999999999998,-1.1040000000000001),(0.57499999999999996,0.34999999999999998,-0.27600000000000002),(-0.44850000000000001,-0.32200000000000001,-0.39100000000000001),(-0.44850000000000001,-0.32200000000000001,0.39100000000000001),(-0.44850000000000001,0.32200000000000001,-0.39100000000000001),(-0.44850000000000001,0.32200000000000001,0.39100000000000001),(0.44850000000000001,-0.32200000000000001,-0.39100000000000001),(0.44850000000000001,-0.32200000000000001,0.39100000000000001),(0.44850000000000001,0.32200000000000001,-0.39100000000000001),(0.44850000000000001,0.32200000000000001,0.39100000000000001),(-0.29899999999999999,-0.27300000000000002,0.41399999999999998),(-0.29899999999999999,-0.27300000000000002,1.012),(-0.29899999999999999,0.27300000000000002,0.41399999999999998),(-0.29899999999999999,0.27300000000000002,1.012),(0.29899999999999999,-0.27300000000000002,0.41399999999999998),(0.29899999999999999,-0.27300000000000002,1.012),(0.29899999999999999,0.27300000000000002,0.41399999999999998),(0.29899999999999999,0.27300000000000002,1.012)),$);
#147=IFCINDEXEDPOLYGONALFACE((1,2,4,3));
#148=IFCINDEXEDPOLYGONALFACE((5,7,8,6));
#149=IFCINDEXEDPOLYGONALFACE((1,5,6,2));
#150=IFCINDEXEDPOLYGONALFACE((3,4,8,7));
#151=IFCINDEXEDPOLYGONALFACE((1,3,7,5));
#152=IFCINDEXEDPOLYGONALFACE((2,6,8,4));
#153=IFCINDEXEDPOLYGONALFACE((9,10,12,11));
#154=IFCINDEXEDPOLYGONALFACE((13,15,16,14));
#155=IFCINDEXEDPOLYGONALFACE((9,13,14,10));
#156=IFCINDEXEDPOLYGONALFACE((11,12,16,15));
#157=IFCINDEXEDPOLYGONALFACE((9,11,15,13));
#158=IFCINDEXEDPOLYGONALFACE((10,14,16,12));
#159=IFCINDEXEDPOLYGONALFACE((17,18,20,19));
#160=IFCINDEXEDPOLYGONALFACE((21,23,24,22));
#161=IFCINDEXEDPOLYGONALFACE((17,21,22,18));
#162=IFCINDEXEDPOLYGONALFACE((19,20,24,23));
#163=IFCINDEXEDPOLYGONALFACE((17,19,23,21));
#164=IFCINDEXEDPOLYGONALFACE((18,22,24,20));
#165=IFCPOLYGONALFACESET(#146,$,(#147,#148,#149,#150,#151,#152,#153,#154,#155,#156,#157,#158,#159,#160,#161,#162,#163,#164),$);
#166=IFCSHAPEREPRESENTATION(#13,'Body','Tessellation',(#165));
#167=IFCPRODUCTDEFINITIONSHAPE($,$,(#166));
#168=IFCPLATE('2OGpMkMo5Nw9k21s5eQcem',$,'CWL-FRP-04 lower apron and anti-climber cover fiberglass cast','Locally moulded lower apron cast with lamp recess support and removable coupler/recovery access envelope.',$,#514,#200,'LM3-CWL-P014',$);
#169=IFCPROPERTYSINGLEVALUE('OSRId',$,IFCTEXT('LM3-CWL-P014'),$);
#170=IFCPROPERTYSINGLEVALUE('Parent',$,IFCTEXT('LM3-CWL-SA710'),$);
#171=IFCPROPERTYSINGLEVALUE('Route',$,IFCTEXT('MAKE'),$);
#172=IFCPROPERTYSINGLEVALUE('Maturity',$,IFCTEXT('buildable-after-supplier-freeze'),$);
#173=IFCPROPERTYSINGLEVALUE('QuantityPerTrainset',$,IFCINTEGER(2),$);
#174=IFCPROPERTYSINGLEVALUE('Unit',$,IFCTEXT('ea'),$);
#175=IFCPROPERTYSINGLEVALUE('GeometryStatus',$,IFCTEXT('design-reference-not-released'),$);
#176=IFCPROPERTYSINGLEVALUE('GeometryLevel',$,IFCTEXT('design-reference-detail'),$);
#177=IFCPROPERTYSET('1qMr3npzPRhxmQTSK9aVog',$,'OSR_ProductDefinition',$,(#169,#170,#171,#172,#173,#174,#175,#176));
#178=IFCRELDEFINESBYPROPERTIES('2BkcIljIzSfR0Giqv2TgPE',$,$,$,(#168),#177);
#179=IFCCARTESIANPOINTLIST3D(((-0.5,-1.325,-0.36479999999999996),(-0.5,-1.325,-0.091200000000000017),(-0.5,1.325,-0.36479999999999996),(-0.5,1.325,-0.091200000000000017),(0.5,-1.325,-0.36479999999999996),(0.5,-1.325,-0.091200000000000017),(0.5,1.325,-0.36479999999999996),(0.5,1.325,-0.091200000000000017),(-0.39000000000000001,-1.2190000000000001,-0.12920000000000001),(-0.39000000000000001,-1.2190000000000001,0.12920000000000001),(-0.39000000000000001,1.2190000000000001,-0.12920000000000001),(-0.39000000000000001,1.2190000000000001,0.12920000000000001),(0.39000000000000001,-1.2190000000000001,-0.12920000000000001),(0.39000000000000001,-1.2190000000000001,0.12920000000000001),(0.39000000000000001,1.2190000000000001,-0.12920000000000001),(0.39000000000000001,1.2190000000000001,0.12920000000000001),(-0.26000000000000001,-1.0335000000000001,0.1368),(-0.26000000000000001,-1.0335000000000001,0.33439999999999998),(-0.26000000000000001,1.0335000000000001,0.1368),(-0.26000000000000001,1.0335000000000001,0.33439999999999998),(0.26000000000000001,-1.0335000000000001,0.1368),(0.26000000000000001,-1.0335000000000001,0.33439999999999998),(0.26000000000000001,1.0335000000000001,0.1368),(0.26000000000000001,1.0335000000000001,0.33439999999999998)),$);
#180=IFCINDEXEDPOLYGONALFACE((1,2,4,3));
#181=IFCINDEXEDPOLYGONALFACE((5,7,8,6));
#182=IFCINDEXEDPOLYGONALFACE((1,5,6,2));
#183=IFCINDEXEDPOLYGONALFACE((3,4,8,7));
#184=IFCINDEXEDPOLYGONALFACE((1,3,7,5));
#185=IFCINDEXEDPOLYGONALFACE((2,6,8,4));
#186=IFCINDEXEDPOLYGONALFACE((9,10,12,11));
#187=IFCINDEXEDPOLYGONALFACE((13,15,16,14));
#188=IFCINDEXEDPOLYGONALFACE((9,13,14,10));
#189=IFCINDEXEDPOLYGONALFACE((11,12,16,15));
#190=IFCINDEXEDPOLYGONALFACE((9,11,15,13));
#191=IFCINDEXEDPOLYGONALFACE((10,14,16,12));
#192=IFCINDEXEDPOLYGONALFACE((17,18,20,19));
#193=IFCINDEXEDPOLYGONALFACE((21,23,24,22));
#194=IFCINDEXEDPOLYGONALFACE((17,21,22,18));
#195=IFCINDEXEDPOLYGONALFACE((19,20,24,23));
#196=IFCINDEXEDPOLYGONALFACE((17,19,23,21));
#197=IFCINDEXEDPOLYGONALFACE((18,22,24,20));
#198=IFCPOLYGONALFACESET(#179,$,(#180,#181,#182,#183,#184,#185,#186,#187,#188,#189,#190,#191,#192,#193,#194,#195,#196,#197),$);
#199=IFCSHAPEREPRESENTATION(#13,'Body','Tessellation',(#198));
#200=IFCPRODUCTDEFINITIONSHAPE($,$,(#199));
#201=IFCPLATE('2nnuaBZEPNdxnNpOOSeaJv',$,'CWL-FRP-05 lamp, washer, and service-hatch fiberglass cast set','Small removable hatch casts with potted inserts, continuous gasket land, and retained-fastener access.',$,#517,#233,'LM3-CWL-P015',$);
#202=IFCPROPERTYSINGLEVALUE('OSRId',$,IFCTEXT('LM3-CWL-P015'),$);
#203=IFCPROPERTYSINGLEVALUE('Parent',$,IFCTEXT('LM3-CWL-SA710'),$);
#204=IFCPROPERTYSINGLEVALUE('Route',$,IFCTEXT('MAKE'),$);
#205=IFCPROPERTYSINGLEVALUE('Maturity',$,IFCTEXT('buildable-after-supplier-freeze'),$);
#206=IFCPROPERTYSINGLEVALUE('QuantityPerTrainset',$,IFCINTEGER(4),$);
#207=IFCPROPERTYSINGLEVALUE('Unit',$,IFCTEXT('hatch'),$);
#208=IFCPROPERTYSINGLEVALUE('GeometryStatus',$,IFCTEXT('design-reference-not-released'),$);
#209=IFCPROPERTYSINGLEVALUE('GeometryLevel',$,IFCTEXT('design-reference-detail'),$);
#210=IFCPROPERTYSET('01JZzQBEvGh9admULaf_$3',$,'OSR_ProductDefinition',$,(#202,#203,#204,#205,#206,#207,#208,#209));
#211=IFCRELDEFINESBYPROPERTIES('3dCrEjh99KoxE2kdr66pl0',$,$,$,(#201),#210);
#212=IFCCARTESIANPOINTLIST3D(((-0.32500000000000001,-0.26000000000000001,-0.2016),(-0.32500000000000001,-0.26000000000000001,-0.050400000000000007),(-0.32500000000000001,0.26000000000000001,-0.2016),(-0.32500000000000001,0.26000000000000001,-0.050400000000000007),(0.32500000000000001,-0.26000000000000001,-0.2016),(0.32500000000000001,-0.26000000000000001,-0.050400000000000007),(0.32500000000000001,0.26000000000000001,-0.2016),(0.32500000000000001,0.26000000000000001,-0.050400000000000007),(-0.2535,-0.23920000000000002,-0.071400000000000005),(-0.2535,-0.23920000000000002,0.071400000000000005),(-0.2535,0.23920000000000002,-0.071400000000000005),(-0.2535,0.23920000000000002,0.071400000000000005),(0.2535,-0.23920000000000002,-0.071400000000000005),(0.2535,-0.23920000000000002,0.071400000000000005),(0.2535,0.23920000000000002,-0.071400000000000005),(0.2535,0.23920000000000002,0.071400000000000005),(-0.16900000000000001,-0.20280000000000001,0.075600000000000001),(-0.16900000000000001,-0.20280000000000001,0.18479999999999999),(-0.16900000000000001,0.20280000000000001,0.075600000000000001),(-0.16900000000000001,0.20280000000000001,0.18479999999999999),(0.16900000000000001,-0.20280000000000001,0.075600000000000001),(0.16900000000000001,-0.20280000000000001,0.18479999999999999),(0.16900000000000001,0.20280000000000001,0.075600000000000001),(0.16900000000000001,0.20280000000000001,0.18479999999999999)),$);
#213=IFCINDEXEDPOLYGONALFACE((1,2,4,3));
#214=IFCINDEXEDPOLYGONALFACE((5,7,8,6));
#215=IFCINDEXEDPOLYGONALFACE((1,5,6,2));
#216=IFCINDEXEDPOLYGONALFACE((3,4,8,7));
#217=IFCINDEXEDPOLYGONALFACE((1,3,7,5));
#218=IFCINDEXEDPOLYGONALFACE((2,6,8,4));
#219=IFCINDEXEDPOLYGONALFACE((9,10,12,11));
#220=IFCINDEXEDPOLYGONALFACE((13,15,16,14));
#221=IFCINDEXEDPOLYGONALFACE((9,13,14,10));
#222=IFCINDEXEDPOLYGONALFACE((11,12,16,15));
#223=IFCINDEXEDPOLYGONALFACE((9,11,15,13));
#224=IFCINDEXEDPOLYGONALFACE((10,14,16,12));
#225=IFCINDEXEDPOLYGONALFACE((17,18,20,19));
#226=IFCINDEXEDPOLYGONALFACE((21,23,24,22));
#227=IFCINDEXEDPOLYGONALFACE((17,21,22,18));
#228=IFCINDEXEDPOLYGONALFACE((19,20,24,23));
#229=IFCINDEXEDPOLYGONALFACE((17,19,23,21));
#230=IFCINDEXEDPOLYGONALFACE((18,22,24,20));
#231=IFCPOLYGONALFACESET(#212,$,(#213,#214,#215,#216,#217,#218,#219,#220,#221,#222,#223,#224,#225,#226,#227,#228,#229,#230),$);
#232=IFCSHAPEREPRESENTATION(#13,'Body','Tessellation',(#231));
#233=IFCPRODUCTDEFINITIONSHAPE($,$,(#232));
#234=IFCMEMBER('3dv9LoJ2jP6vMZRKt$Na5n',$,'CWL-FRP-06 backing-ring flange fiberglass cast set','Solid-laminate backing-ring flange sections that carry seals, glass-carrier lands, and split-line closures without carrying crash loads.',$,#520,#272,'LM3-CWL-P016',$);
#235=IFCPROPERTYSINGLEVALUE('OSRId',$,IFCTEXT('LM3-CWL-P016'),$);
#236=IFCPROPERTYSINGLEVALUE('Parent',$,IFCTEXT('LM3-CWL-SA710'),$);
#237=IFCPROPERTYSINGLEVALUE('Route',$,IFCTEXT('MAKE'),$);
#238=IFCPROPERTYSINGLEVALUE('Maturity',$,IFCTEXT('buildable-after-supplier-freeze'),$);
#239=IFCPROPERTYSINGLEVALUE('QuantityPerTrainset',$,IFCINTEGER(8),$);
#240=IFCPROPERTYSINGLEVALUE('Unit',$,IFCTEXT('flange section'),$);
#241=IFCPROPERTYSINGLEVALUE('GeometryStatus',$,IFCTEXT('design-reference-not-released'),$);
#242=IFCPROPERTYSINGLEVALUE('GeometryLevel',$,IFCTEXT('interface-detailed'),$);
#243=IFCPROPERTYSET('3V8ItnGKHT4vfBoI2bmkAk',$,'OSR_ProductDefinition',$,(#235,#236,#237,#238,#239,#240,#241,#242));
#244=IFCRELDEFINESBYPROPERTIES('26wMDoiVvL994eY$XJA2pz',$,$,$,(#234),#243);
#245=IFCCARTESIANPOINTLIST3D(((-0.35999999999999999,-0.059999999999999998,-0.35999999999999999),(-0.35999999999999999,-0.059999999999999998,0.35999999999999999),(-0.35999999999999999,0.059999999999999998,-0.35999999999999999),(-0.35999999999999999,0.059999999999999998,0.35999999999999999),(-0.28799999999999998,-0.059999999999999998,-0.35999999999999999),(-0.28799999999999998,-0.059999999999999998,0.35999999999999999),(-0.28799999999999998,0.059999999999999998,-0.35999999999999999),(-0.28799999999999998,0.059999999999999998,0.35999999999999999),(0.28799999999999998,-0.059999999999999998,-0.35999999999999999),(0.28799999999999998,-0.059999999999999998,0.35999999999999999),(0.28799999999999998,0.059999999999999998,-0.35999999999999999),(0.28799999999999998,0.059999999999999998,0.35999999999999999),(0.35999999999999999,-0.059999999999999998,-0.35999999999999999),(0.35999999999999999,-0.059999999999999998,0.35999999999999999),(0.35999999999999999,0.059999999999999998,-0.35999999999999999),(0.35999999999999999,0.059999999999999998,0.35999999999999999),(-0.28799999999999998,-0.059999999999999998,0.28799999999999998),(-0.28799999999999998,-0.059999999999999998,0.35999999999999999),(-0.28799999999999998,0.059999999999999998,0.28799999999999998),(-0.28799999999999998,0.059999999999999998,0.35999999999999999),(0.28799999999999998,-0.059999999999999998,0.28799999999999998),(0.28799999999999998,-0.059999999999999998,0.35999999999999999),(0.28799999999999998,0.059999999999999998,0.28799999999999998),(0.28799999999999998,0.059999999999999998,0.35999999999999999),(-0.28799999999999998,-0.059999999999999998,-0.35999999999999999),(-0.28799999999999998,-0.059999999999999998,-0.28799999999999998),(-0.28799999999999998,0.059999999999999998,-0.35999999999999999),(-0.28799999999999998,0.059999999999999998,-0.28799999999999998),(0.28799999999999998,-0.059999999999999998,-0.35999999999999999),(0.28799999999999998,-0.059999999999999998,-0.28799999999999998),(0.28799999999999998,0.059999999999999998,-0.35999999999999999),(0.28799999999999998,0.059999999999999998,-0.28799999999999998)),$);
#246=IFCINDEXEDPOLYGONALFACE((1,2,4,3));
#247=IFCINDEXEDPOLYGONALFACE((5,7,8,6));
#248=IFCINDEXEDPOLYGONALFACE((1,5,6,2));
#249=IFCINDEXEDPOLYGONALFACE((3,4,8,7));
#250=IFCINDEXEDPOLYGONALFACE((1,3,7,5));
#251=IFCINDEXEDPOLYGONALFACE((2,6,8,4));
#252=IFCINDEXEDPOLYGONALFACE((9,10,12,11));
#253=IFCINDEXEDPOLYGONALFACE((13,15,16,14));
#254=IFCINDEXEDPOLYGONALFACE((9,13,14,10));
#255=IFCINDEXEDPOLYGONALFACE((11,12,16,15));
#256=IFCINDEXEDPOLYGONALFACE((9,11,15,13));
#257=IFCINDEXEDPOLYGONALFACE((10,14,16,12));
#258=IFCINDEXEDPOLYGONALFACE((17,18,20,19));
#259=IFCINDEXEDPOLYGONALFACE((21,23,24,22));
#260=IFCINDEXEDPOLYGONALFACE((17,21,22,18));
#261=IFCINDEXEDPOLYGONALFACE((19,20,24,23));
#262=IFCINDEXEDPOLYGONALFACE((17,19,23,21));
#263=IFCINDEXEDPOLYGONALFACE((18,22,24,20));
#264=IFCINDEXEDPOLYGONALFACE((25,26,28,27));
#265=IFCINDEXEDPOLYGONALFACE((29,31,32,30));
#266=IFCINDEXEDPOLYGONALFACE((25,29,30,26));
#267=IFCINDEXEDPOLYGONALFACE((27,28,32,31));
#268=IFCINDEXEDPOLYGONALFACE((25,27,31,29));
#269=IFCINDEXEDPOLYGONALFACE((26,30,32,28));
#270=IFCPOLYGONALFACESET(#245,$,(#246,#247,#248,#249,#250,#251,#252,#253,#254,#255,#256,#257,#258,#259,#260,#261,#262,#263,#264,#265,#266,#267,#268,#269),$);
#271=IFCSHAPEREPRESENTATION(#13,'Body','Tessellation',(#270));
#272=IFCPRODUCTDEFINITIONSHAPE($,$,(#271));
#273=IFCBUILDINGELEMENTPROXY('1yzyQFOmPHNuE1B4LSiND$',$,'panoramic front-glass carrier ring, setting-block pockets, and secondary-retention frame','A machined/formed carrier transfers the heated laminated glass and its replaceable seal into the steel-backed end ring without making the cowl skin structural.',$,#523,#365,'LM3-FAS-P010',$);
#274=IFCPROPERTYSINGLEVALUE('OSRId',$,IFCTEXT('LM3-FAS-P010'),$);
#275=IFCPROPERTYSINGLEVALUE('Parent',$,IFCTEXT('LM3-CWL-SA710'),$);
#276=IFCPROPERTYSINGLEVALUE('Route',$,IFCTEXT('MAKE'),$);
#277=IFCPROPERTYSINGLEVALUE('Maturity',$,IFCTEXT('buildable-after-supplier-freeze'),$);
#278=IFCPROPERTYSINGLEVALUE('QuantityPerTrainset',$,IFCINTEGER(2),$);
#279=IFCPROPERTYSINGLEVALUE('Unit',$,IFCTEXT('end set'),$);
#280=IFCPROPERTYSINGLEVALUE('GeometryStatus',$,IFCTEXT('design-reference-not-released'),$);
#281=IFCPROPERTYSINGLEVALUE('GeometryLevel',$,IFCTEXT('interface-detailed'),$);
#282=IFCPROPERTYSET('2hyW_A$V9LMPQ5XygubptW',$,'OSR_ProductDefinition',$,(#274,#275,#276,#277,#278,#279,#280,#281));
#283=IFCRELDEFINESBYPROPERTIES('3yVnJ4kHnKlAMosgg9KBF2',$,$,$,(#273),#282);
#284=IFCCARTESIANPOINTLIST3D(((-1.1499999999999999,-0.13,-0.89000000000000001),(-1.1499999999999999,-0.13,0.89000000000000001),(-1.1499999999999999,0.13,-0.89000000000000001),(-1.1499999999999999,0.13,0.89000000000000001),(-1.01,-0.13,-0.89000000000000001),(-1.01,-0.13,0.89000000000000001),(-1.01,0.13,-0.89000000000000001),(-1.01,0.13,0.89000000000000001),(1.01,-0.13,-0.89000000000000001),(1.01,-0.13,0.89000000000000001),(1.01,0.13,-0.89000000000000001),(1.01,0.13,0.89000000000000001),(1.1499999999999999,-0.13,-0.89000000000000001),(1.1499999999999999,-0.13,0.89000000000000001),(1.1499999999999999,0.13,-0.89000000000000001),(1.1499999999999999,0.13,0.89000000000000001),(-1.01,-0.13,0.75),(-1.01,-0.13,0.89000000000000001),(-1.01,0.13,0.75),(-1.01,0.13,0.89000000000000001),(1.01,-0.13,0.75),(1.01,-0.13,0.89000000000000001),(1.01,0.13,0.75),(1.01,0.13,0.89000000000000001),(-1.01,-0.13,-0.89000000000000001),(-1.01,-0.13,-0.75),(-1.01,0.13,-0.89000000000000001),(-1.01,0.13,-0.75),(1.01,-0.13,-0.89000000000000001),(1.01,-0.13,-0.75),(1.01,0.13,-0.89000000000000001),(1.01,0.13,-0.75),(-1.012,-0.054600000000000003,-0.76539999999999997),(-1.012,-0.054600000000000003,0.76539999999999997),(-1.012,0.054600000000000003,-0.76539999999999997),(-1.012,0.054600000000000003,0.76539999999999997),(-0.872,-0.054600000000000003,-0.76539999999999997),(-0.872,-0.054600000000000003,0.76539999999999997),(-0.872,0.054600000000000003,-0.76539999999999997),(-0.872,0.054600000000000003,0.76539999999999997),(0.872,-0.054600000000000003,-0.76539999999999997),(0.872,-0.054600000000000003,0.76539999999999997),(0.872,0.054600000000000003,-0.76539999999999997),(0.872,0.054600000000000003,0.76539999999999997),(1.012,-0.054600000000000003,-0.76539999999999997),(1.012,-0.054600000000000003,0.76539999999999997),(1.012,0.054600000000000003,-0.76539999999999997),(1.012,0.054600000000000003,0.76539999999999997),(-0.872,-0.054600000000000003,0.62539999999999996),(-0.872,-0.054600000000000003,0.76539999999999997),(-0.872,0.054600000000000003,0.62539999999999996),(-0.872,0.054600000000000003,0.76539999999999997),(0.872,-0.054600000000000003,0.62539999999999996),(0.872,-0.054600000000000003,0.76539999999999997),(0.872,0.054600000000000003,0.62539999999999996),(0.872,0.054600000000000003,0.76539999999999997),(-0.872,-0.054600000000000003,-0.76539999999999997),(-0.872,-0.054600000000000003,-0.62539999999999996),(-0.872,0.054600000000000003,-0.76539999999999997),(-0.872,0.054600000000000003,-0.62539999999999996),(0.872,-0.054600000000000003,-0.76539999999999997),(0.872,-0.054600000000000003,-0.62539999999999996),(0.872,0.054600000000000003,-0.76539999999999997),(0.872,0.054600000000000003,-0.62539999999999996),(-0.80300000000000005,-0.080599999999999991,-0.78260000000000007),(-0.80300000000000005,-0.080599999999999991,-0.71260000000000001),(-0.80300000000000005,0.080599999999999991,-0.78260000000000007),(-0.80300000000000005,0.080599999999999991,-0.71260000000000001),(-0.623,-0.080599999999999991,-0.78260000000000007),(-0.623,-0.080599999999999991,-0.71260000000000001),(-0.623,0.080599999999999991,-0.78260000000000007),(-0.623,0.080599999999999991,-0.71260000000000001),(-0.81799999999999995,-0.093599999999999989,0.70760000000000001),(-0.81799999999999995,-0.093599999999999989,0.78760000000000008),(-0.81799999999999995,0.093599999999999989,0.70760000000000001),(-0.81799999999999995,0.093599999999999989,0.78760000000000008),(-0.60799999999999998,-0.093599999999999989,0.70760000000000001),(-0.60799999999999998,-0.093599999999999989,0.78760000000000008),(-0.60799999999999998,0.093599999999999989,0.70760000000000001),(-0.60799999999999998,0.093599999999999989,0.78760000000000008),(0.623,-0.080599999999999991,-0.78260000000000007),(0.623,-0.080599999999999991,-0.71260000000000001),(0.623,0.080599999999999991,-0.78260000000000007),(0.623,0.080599999999999991,-0.71260000000000001),(0.80300000000000005,-0.080599999999999991,-0.78260000000000007),(0.80300000000000005,-0.080599999999999991,-0.71260000000000001),(0.80300000000000005,0.080599999999999991,-0.78260000000000007),(0.80300000000000005,0.080599999999999991,-0.71260000000000001),(0.60799999999999998,-0.093599999999999989,0.70760000000000001),(0.60799999999999998,-0.093599999999999989,0.78760000000000008),(0.60799999999999998,0.093599999999999989,0.70760000000000001),(0.60799999999999998,0.093599999999999989,0.78760000000000008),(0.81799999999999995,-0.093599999999999989,0.70760000000000001),(0.81799999999999995,-0.093599999999999989,0.78760000000000008),(0.81799999999999995,0.093599999999999989,0.70760000000000001),(0.81799999999999995,0.093599999999999989,0.78760000000000008),(-0.874,-0.071499999999999994,-0.82850000000000001),(-0.874,-0.071499999999999994,-0.77349999999999997),(-0.874,0.071499999999999994,-0.82850000000000001),(-0.874,0.071499999999999994,-0.77349999999999997),(0.874,-0.071499999999999994,-0.82850000000000001),(0.874,-0.071499999999999994,-0.77349999999999997),(0.874,0.071499999999999994,-0.82850000000000001),(0.874,0.071499999999999994,-0.77349999999999997)),$);
#285=IFCINDEXEDPOLYGONALFACE((1,2,4,3));
#286=IFCINDEXEDPOLYGONALFACE((5,7,8,6));
#287=IFCINDEXEDPOLYGONALFACE((1,5,6,2));
#288=IFCINDEXEDPOLYGONALFACE((3,4,8,7));
#289=IFCINDEXEDPOLYGONALFACE((1,3,7,5));
#290=IFCINDEXEDPOLYGONALFACE((2,6,8,4));
#291=IFCINDEXEDPOLYGONALFACE((9,10,12,11));
#292=IFCINDEXEDPOLYGONALFACE((13,15,16,14));
#293=IFCINDEXEDPOLYGONALFACE((9,13,14,10));
#294=IFCINDEXEDPOLYGONALFACE((11,12,16,15));
#295=IFCINDEXEDPOLYGONALFACE((9,11,15,13));
#296=IFCINDEXEDPOLYGONALFACE((10,14,16,12));
#297=IFCINDEXEDPOLYGONALFACE((17,18,20,19));
#298=IFCINDEXEDPOLYGONALFACE((21,23,24,22));
#299=IFCINDEXEDPOLYGONALFACE((17,21,22,18));
#300=IFCINDEXEDPOLYGONALFACE((19,20,24,23));
#301=IFCINDEXEDPOLYGONALFACE((17,19,23,21));
#302=IFCINDEXEDPOLYGONALFACE((18,22,24,20));
#303=IFCINDEXEDPOLYGONALFACE((25,26,28,27));
#304=IFCINDEXEDPOLYGONALFACE((29,31,32,30));
#305=IFCINDEXEDPOLYGONALFACE((25,29,30,26));
#306=IFCINDEXEDPOLYGONALFACE((27,28,32,31));
#307=IFCINDEXEDPOLYGONALFACE((25,27,31,29));
#308=IFCINDEXEDPOLYGONALFACE((26,30,32,28));
#309=IFCINDEXEDPOLYGONALFACE((33,34,36,35));
#310=IFCINDEXEDPOLYGONALFACE((37,39,40,38));
#311=IFCINDEXEDPOLYGONALFACE((33,37,38,34));
#312=IFCINDEXEDPOLYGONALFACE((35,36,40,39));
#313=IFCINDEXEDPOLYGONALFACE((33,35,39,37));
#314=IFCINDEXEDPOLYGONALFACE((34,38,40,36));
#315=IFCINDEXEDPOLYGONALFACE((41,42,44,43));
#316=IFCINDEXEDPOLYGONALFACE((45,47,48,46));
#317=IFCINDEXEDPOLYGONALFACE((41,45,46,42));
#318=IFCINDEXEDPOLYGONALFACE((43,44,48,47));
#319=IFCINDEXEDPOLYGONALFACE((41,43,47,45));
#320=IFCINDEXEDPOLYGONALFACE((42,46,48,44));
#321=IFCINDEXEDPOLYGONALFACE((49,50,52,51));
#322=IFCINDEXEDPOLYGONALFACE((53,55,56,54));
#323=IFCINDEXEDPOLYGONALFACE((49,53,54,50));
#324=IFCINDEXEDPOLYGONALFACE((51,52,56,55));
#325=IFCINDEXEDPOLYGONALFACE((49,51,55,53));
#326=IFCINDEXEDPOLYGONALFACE((50,54,56,52));
#327=IFCINDEXEDPOLYGONALFACE((57,58,60,59));
#328=IFCINDEXEDPOLYGONALFACE((61,63,64,62));
#329=IFCINDEXEDPOLYGONALFACE((57,61,62,58));
#330=IFCINDEXEDPOLYGONALFACE((59,60,64,63));
#331=IFCINDEXEDPOLYGONALFACE((57,59,63,61));
#332=IFCINDEXEDPOLYGONALFACE((58,62,64,60));
#333=IFCINDEXEDPOLYGONALFACE((65,66,68,67));
#334=IFCINDEXEDPOLYGONALFACE((69,71,72,70));
#335=IFCINDEXEDPOLYGONALFACE((65,69,70,66));
#336=IFCINDEXEDPOLYGONALFACE((67,68,72,71));
#337=IFCINDEXEDPOLYGONALFACE((65,67,71,69));
#338=IFCINDEXEDPOLYGONALFACE((66,70,72,68));
#339=IFCINDEXEDPOLYGONALFACE((73,74,76,75));
#340=IFCINDEXEDPOLYGONALFACE((77,79,80,78));
#341=IFCINDEXEDPOLYGONALFACE((73,77,78,74));
#342=IFCINDEXEDPOLYGONALFACE((75,76,80,79));
#343=IFCINDEXEDPOLYGONALFACE((73,75,79,77));
#344=IFCINDEXEDPOLYGONALFACE((74,78,80,76));
#345=IFCINDEXEDPOLYGONALFACE((81,82,84,83));
#346=IFCINDEXEDPOLYGONALFACE((85,87,88,86));
#347=IFCINDEXEDPOLYGONALFACE((81,85,86,82));
#348=IFCINDEXEDPOLYGONALFACE((83,84,88,87));
#349=IFCINDEXEDPOLYGONALFACE((81,83,87,85));
#350=IFCINDEXEDPOLYGONALFACE((82,86,88,84));
#351=IFCINDEXEDPOLYGONALFACE((89,90,92,91));
#352=IFCINDEXEDPOLYGONALFACE((93,95,96,94));
#353=IFCINDEXEDPOLYGONALFACE((89,93,94,90));
#354=IFCINDEXEDPOLYGONALFACE((91,92,96,95));
#355=IFCINDEXEDPOLYGONALFACE((89,91,95,93));
#356=IFCINDEXEDPOLYGONALFACE((90,94,96,92));
#357=IFCINDEXEDPOLYGONALFACE((97,98,100,99));
#358=IFCINDEXEDPOLYGONALFACE((101,103,104,102));
#359=IFCINDEXEDPOLYGONALFACE((97,101,102,98));
#360=IFCINDEXEDPOLYGONALFACE((99,100,104,103));
#361=IFCINDEXEDPOLYGONALFACE((97,99,103,101));
#362=IFCINDEXEDPOLYGONALFACE((98,102,104,100));
#363=IFCPOLYGONALFACESET(#284,$,(#285,#286,#287,#288,#289,#290,#291,#292,#293,#294,#295,#296,#297,#298,#299,#300,#301,#302,#303,#304,#305,#306,#307,#308,#309,#310,#311,#312,#313,#314,#315,#316,#317,#318,#319,#320,#321,#322,#323,#324,#325,#326,#327,#328,#329,#330,#331,#332,#333,#334,#335,#336,#337,#338,#339,#340,#341,#342,#343,#344,#345,#346,#347,#348,#349,#350,#351,#352,#353,#354,#355,#356,#357,#358,#359,#360,#361,#362),$);
#364=IFCSHAPEREPRESENTATION(#13,'Body','Tessellation',(#363));
#365=IFCPRODUCTDEFINITIONSHAPE($,$,(#364));
#366=IFCBUILDINGELEMENTPROXY('3cGmWCXCzJrvjY_SuOfd4B',$,'reversible front-lamp cassette tray, aiming adjusters, and retained service bracket','One symmetrical removable bracket accepts the selected head/tail/marker lamp modules at either leading end and preserves aim after hatch removal.',$,#526,#428,'LM3-FAS-P020',$);
#367=IFCPROPERTYSINGLEVALUE('OSRId',$,IFCTEXT('LM3-FAS-P020'),$);
#368=IFCPROPERTYSINGLEVALUE('Parent',$,IFCTEXT('LM3-CWL-SA710'),$);
#369=IFCPROPERTYSINGLEVALUE('Route',$,IFCTEXT('MAKE'),$);
#370=IFCPROPERTYSINGLEVALUE('Maturity',$,IFCTEXT('buildable-after-supplier-freeze'),$);
#371=IFCPROPERTYSINGLEVALUE('QuantityPerTrainset',$,IFCINTEGER(2),$);
#372=IFCPROPERTYSINGLEVALUE('Unit',$,IFCTEXT('end set'),$);
#373=IFCPROPERTYSINGLEVALUE('GeometryStatus',$,IFCTEXT('design-reference-not-released'),$);
#374=IFCPROPERTYSINGLEVALUE('GeometryLevel',$,IFCTEXT('interface-detailed'),$);
#375=IFCPROPERTYSET('3g_YAJYLXJjQt2NtlzzDk6',$,'OSR_ProductDefinition',$,(#367,#368,#369,#370,#371,#372,#373,#374));
#376=IFCRELDEFINESBYPROPERTIES('3sUVsbXAXRMRA30isLu7HJ',$,$,$,(#366),#375);
#377=IFCCARTESIANPOINTLIST3D(((-0.92500000000000004,-0.25919999999999999,-0.1794),(-0.92500000000000004,-0.25919999999999999,-0.089400000000000007),(-0.92500000000000004,0.25919999999999999,-0.1794),(-0.92500000000000004,0.25919999999999999,-0.089400000000000007),(0.92500000000000004,-0.25919999999999999,-0.1794),(0.92500000000000004,-0.25919999999999999,-0.089400000000000007),(0.92500000000000004,0.25919999999999999,-0.1794),(0.92500000000000004,0.25919999999999999,-0.089400000000000007),(-0.81399999999999995,-0.044999999999999998,-0.20999999999999999),(-0.81399999999999995,-0.044999999999999998,0.20999999999999999),(-0.81399999999999995,0.044999999999999998,-0.20999999999999999),(-0.81399999999999995,0.044999999999999998,0.20999999999999999),(0.81399999999999995,-0.044999999999999998,-0.20999999999999999),(0.81399999999999995,-0.044999999999999998,0.20999999999999999),(0.81399999999999995,0.044999999999999998,-0.20999999999999999),(0.81399999999999995,0.044999999999999998,0.20999999999999999),(-0.80474999999999997,-0.28079999999999999,-0.13019999999999998),(-0.80474999999999997,-0.28079999999999999,0.13019999999999998),(-0.80474999999999997,0.28079999999999999,-0.13019999999999998),(-0.80474999999999997,0.28079999999999999,0.13019999999999998),(-0.23125000000000001,-0.28079999999999999,-0.13019999999999998),(-0.23125000000000001,-0.28079999999999999,0.13019999999999998),(-0.23125000000000001,0.28079999999999999,-0.13019999999999998),(-0.23125000000000001,0.28079999999999999,0.13019999999999998),(-0.752,-0.29519999999999996,-0.10440000000000002),(-0.752,-0.29519999999999996,-0.080399999999999985),(-0.752,0.29519999999999996,-0.10440000000000002),(-0.752,0.29519999999999996,-0.080399999999999985),(-0.72799999999999998,-0.29519999999999996,-0.10440000000000002),(-0.72799999999999998,-0.29519999999999996,-0.080399999999999985),(-0.72799999999999998,0.29519999999999996,-0.10440000000000002),(-0.72799999999999998,0.29519999999999996,-0.080399999999999985),(-0.752,-0.29519999999999996,0.080399999999999985),(-0.752,-0.29519999999999996,0.10440000000000002),(-0.752,0.29519999999999996,0.080399999999999985),(-0.752,0.29519999999999996,0.10440000000000002),(-0.72799999999999998,-0.29519999999999996,0.080399999999999985),(-0.72799999999999998,-0.29519999999999996,0.10440000000000002),(-0.72799999999999998,0.29519999999999996,0.080399999999999985),(-0.72799999999999998,0.29519999999999996,0.10440000000000002),(0.23125000000000001,-0.28079999999999999,-0.13019999999999998),(0.23125000000000001,-0.28079999999999999,0.13019999999999998),(0.23125000000000001,0.28079999999999999,-0.13019999999999998),(0.23125000000000001,0.28079999999999999,0.13019999999999998),(0.80474999999999997,-0.28079999999999999,-0.13019999999999998),(0.80474999999999997,-0.28079999999999999,0.13019999999999998),(0.80474999999999997,0.28079999999999999,-0.13019999999999998),(0.80474999999999997,0.28079999999999999,0.13019999999999998),(0.72799999999999998,-0.29519999999999996,-0.10440000000000002),(0.72799999999999998,-0.29519999999999996,-0.080399999999999985),(0.72799999999999998,0.29519999999999996,-0.10440000000000002),(0.72799999999999998,0.29519999999999996,-0.080399999999999985),(0.752,-0.29519999999999996,-0.10440000000000002),(0.752,-0.29519999999999996,-0.080399999999999985),(0.752,0.29519999999999996,-0.10440000000000002),(0.752,0.29519999999999996,-0.080399999999999985),(0.72799999999999998,-0.29519999999999996,0.080399999999999985),(0.72799999999999998,-0.29519999999999996,0.10440000000000002),(0.72799999999999998,0.29519999999999996,0.080399999999999985),(0.72799999999999998,0.29519999999999996,0.10440000000000002),(0.752,-0.29519999999999996,0.080399999999999985),(0.752,-0.29519999999999996,0.10440000000000002),(0.752,0.29519999999999996,0.080399999999999985),(0.752,0.29519999999999996,0.10440000000000002)),$);
#378=IFCINDEXEDPOLYGONALFACE((1,2,4,3));
#379=IFCINDEXEDPOLYGONALFACE((5,7,8,6));
#380=IFCINDEXEDPOLYGONALFACE((1,5,6,2));
#381=IFCINDEXEDPOLYGONALFACE((3,4,8,7));
#382=IFCINDEXEDPOLYGONALFACE((1,3,7,5));
#383=IFCINDEXEDPOLYGONALFACE((2,6,8,4));
#384=IFCINDEXEDPOLYGONALFACE((9,10,12,11));
#385=IFCINDEXEDPOLYGONALFACE((13,15,16,14));
#386=IFCINDEXEDPOLYGONALFACE((9,13,14,10));
#387=IFCINDEXEDPOLYGONALFACE((11,12,16,15));
#388=IFCINDEXEDPOLYGONALFACE((9,11,15,13));
#389=IFCINDEXEDPOLYGONALFACE((10,14,16,12));
#390=IFCINDEXEDPOLYGONALFACE((17,18,20,19));
#391=IFCINDEXEDPOLYGONALFACE((21,23,24,22));
#392=IFCINDEXEDPOLYGONALFACE((17,21,22,18));
#393=IFCINDEXEDPOLYGONALFACE((19,20,24,23));
#394=IFCINDEXEDPOLYGONALFACE((17,19,23,21));
#395=IFCINDEXEDPOLYGONALFACE((18,22,24,20));
#396=IFCINDEXEDPOLYGONALFACE((25,26,28,27));
#397=IFCINDEXEDPOLYGONALFACE((29,31,32,30));
#398=IFCINDEXEDPOLYGONALFACE((25,29,30,26));
#399=IFCINDEXEDPOLYGONALFACE((27,28,32,31));
#400=IFCINDEXEDPOLYGONALFACE((25,27,31,29));
#401=IFCINDEXEDPOLYGONALFACE((26,30,32,28));
#402=IFCINDEXEDPOLYGONALFACE((33,34,36,35));
#403=IFCINDEXEDPOLYGONALFACE((37,39,40,38));
#404=IFCINDEXEDPOLYGONALFACE((33,37,38,34));
#405=IFCINDEXEDPOLYGONALFACE((35,36,40,39));
#406=IFCINDEXEDPOLYGONALFACE((33,35,39,37));
#407=IFCINDEXEDPOLYGONALFACE((34,38,40,36));
#408=IFCINDEXEDPOLYGONALFACE((41,42,44,43));
#409=IFCINDEXEDPOLYGONALFACE((45,47,48,46));
#410=IFCINDEXEDPOLYGONALFACE((41,45,46,42));
#411=IFCINDEXEDPOLYGONALFACE((43,44,48,47));
#412=IFCINDEXEDPOLYGONALFACE((41,43,47,45));
#413=IFCINDEXEDPOLYGONALFACE((42,46,48,44));
#414=IFCINDEXEDPOLYGONALFACE((49,50,52,51));
#415=IFCINDEXEDPOLYGONALFACE((53,55,56,54));
#416=IFCINDEXEDPOLYGONALFACE((49,53,54,50));
#417=IFCINDEXEDPOLYGONALFACE((51,52,56,55));
#418=IFCINDEXEDPOLYGONALFACE((49,51,55,53));
#419=IFCINDEXEDPOLYGONALFACE((50,54,56,52));
#420=IFCINDEXEDPOLYGONALFACE((57,58,60,59));
#421=IFCINDEXEDPOLYGONALFACE((61,63,64,62));
#422=IFCINDEXEDPOLYGONALFACE((57,61,62,58));
#423=IFCINDEXEDPOLYGONALFACE((59,60,64,63));
#424=IFCINDEXEDPOLYGONALFACE((57,59,63,61));
#425=IFCINDEXEDPOLYGONALFACE((58,62,64,60));
#426=IFCPOLYGONALFACESET(#377,$,(#378,#379,#380,#381,#382,#383,#384,#385,#386,#387,#388,#389,#390,#391,#392,#393,#394,#395,#396,#397,#398,#399,#400,#401,#402,#403,#404,#405,#406,#407,#408,#409,#410,#411,#412,#413,#414,#415,#416,#417,#418,#419,#420,#421,#422,#423,#424,#425),$);
#427=IFCSHAPEREPRESENTATION(#13,'Body','Tessellation',(#426));
#428=IFCPRODUCTDEFINITIONSHAPE($,$,(#427));
#429=IFCBUILDINGELEMENTPROXY('0ZLbpXouPOjQkY_HRHhktX',$,'front glazing/lamp EPDM seal, drain rail, washer sleeve, and edge-closeout kit','Kitted replaceable elastomers and drains isolate glass, lamp, washer, and cowl split lines while leaving earth straps and service connectors visible.',$,#529,#497,'LM3-FAS-P030',$);
#430=IFCPROPERTYSINGLEVALUE('OSRId',$,IFCTEXT('LM3-FAS-P030'),$);
#431=IFCPROPERTYSINGLEVALUE('Parent',$,IFCTEXT('LM3-CWL-SA710'),$);
#432=IFCPROPERTYSINGLEVALUE('Route',$,IFCTEXT('SOURCE'),$);
#433=IFCPROPERTYSINGLEVALUE('Maturity',$,IFCTEXT('buildable-after-supplier-freeze'),$);
#434=IFCPROPERTYSINGLEVALUE('QuantityPerTrainset',$,IFCINTEGER(2),$);
#435=IFCPROPERTYSINGLEVALUE('Unit',$,IFCTEXT('end kit'),$);
#436=IFCPROPERTYSINGLEVALUE('GeometryStatus',$,IFCTEXT('design-reference-not-released'),$);
#437=IFCPROPERTYSINGLEVALUE('GeometryLevel',$,IFCTEXT('coordination-envelope'),$);
#438=IFCPROPERTYSET('3D8zXaWxzJdOhJ1GLw3p21',$,'OSR_ProductDefinition',$,(#430,#431,#432,#433,#434,#435,#436,#437));
#439=IFCRELDEFINESBYPROPERTIES('33DdoyUbbVcw_0rUynMH8g',$,$,$,(#429),#438);
#440=IFCCARTESIANPOINTLIST3D(((-1.25,-0.058800000000000005,-0.97499999999999998),(-1.25,-0.058800000000000005,0.97499999999999998),(-1.25,0.058800000000000005,-0.97499999999999998),(-1.25,0.058800000000000005,0.97499999999999998),(-1.1100000000000001,-0.058800000000000005,-0.97499999999999998),(-1.1100000000000001,-0.058800000000000005,0.97499999999999998),(-1.1100000000000001,0.058800000000000005,-0.97499999999999998),(-1.1100000000000001,0.058800000000000005,0.97499999999999998),(1.1100000000000001,-0.058800000000000005,-0.97499999999999998),(1.1100000000000001,-0.058800000000000005,0.97499999999999998),(1.1100000000000001,0.058800000000000005,-0.97499999999999998),(1.1100000000000001,0.058800000000000005,0.97499999999999998),(1.25,-0.058800000000000005,-0.97499999999999998),(1.25,-0.058800000000000005,0.97499999999999998),(1.25,0.058800000000000005,-0.97499999999999998),(1.25,0.058800000000000005,0.97499999999999998),(-1.1100000000000001,-0.058800000000000005,0.83499999999999996),(-1.1100000000000001,-0.058800000000000005,0.97499999999999998),(-1.1100000000000001,0.058800000000000005,0.83499999999999996),(-1.1100000000000001,0.058800000000000005,0.97499999999999998),(1.1100000000000001,-0.058800000000000005,0.83499999999999996),(1.1100000000000001,-0.058800000000000005,0.97499999999999998),(1.1100000000000001,0.058800000000000005,0.83499999999999996),(1.1100000000000001,0.058800000000000005,0.97499999999999998),(-1.1100000000000001,-0.058800000000000005,-0.97499999999999998),(-1.1100000000000001,-0.058800000000000005,-0.83499999999999996),(-1.1100000000000001,0.058800000000000005,-0.97499999999999998),(-1.1100000000000001,0.058800000000000005,-0.83499999999999996),(1.1100000000000001,-0.058800000000000005,-0.97499999999999998),(1.1100000000000001,-0.058800000000000005,-0.83499999999999996),(1.1100000000000001,0.058800000000000005,-0.97499999999999998),(1.1100000000000001,0.058800000000000005,-0.83499999999999996),(-1.0249999999999999,-0.088200000000000001,-0.92949999999999999),(-1.0249999999999999,-0.088200000000000001,-0.86450000000000005),(-1.0249999999999999,0.088200000000000001,-0.92949999999999999),(-1.0249999999999999,0.088200000000000001,-0.86450000000000005),(1.0249999999999999,-0.088200000000000001,-0.92949999999999999),(1.0249999999999999,-0.088200000000000001,-0.86450000000000005),(1.0249999999999999,0.088200000000000001,-0.92949999999999999),(1.0249999999999999,0.088200000000000001,-0.86450000000000005),(-1.075,-0.11550000000000002,-0.78000000000000003),(-1.075,-0.11550000000000002,-0.42899999999999999),(-1.075,0.11550000000000002,-0.78000000000000003),(-1.075,0.11550000000000002,-0.42899999999999999),(-0.47499999999999998,-0.11550000000000002,-0.78000000000000003),(-0.47499999999999998,-0.11550000000000002,-0.42899999999999999),(-0.47499999999999998,0.11550000000000002,-0.78000000000000003),(-0.47499999999999998,0.11550000000000002,-0.42899999999999999),(-0.89900000000000002,-0.14699999999999999,0.69750000000000001),(-0.89900000000000002,-0.14699999999999999,0.74550000000000005),(-0.89900000000000002,0.14699999999999999,0.69750000000000001),(-0.89900000000000002,0.14699999999999999,0.74550000000000005),(-0.85099999999999998,-0.14699999999999999,0.69750000000000001),(-0.85099999999999998,-0.14699999999999999,0.74550000000000005),(-0.85099999999999998,0.14699999999999999,0.69750000000000001),(-0.85099999999999998,0.14699999999999999,0.74550000000000005),(0.47499999999999998,-0.11550000000000002,-0.78000000000000003),(0.47499999999999998,-0.11550000000000002,-0.42899999999999999),(0.47499999999999998,0.11550000000000002,-0.78000000000000003),(0.47499999999999998,0.11550000000000002,-0.42899999999999999),(1.075,-0.11550000000000002,-0.78000000000000003),(1.075,-0.11550000000000002,-0.42899999999999999),(1.075,0.11550000000000002,-0.78000000000000003),(1.075,0.11550000000000002,-0.42899999999999999),(0.85099999999999998,-0.14699999999999999,0.69750000000000001),(0.85099999999999998,-0.14699999999999999,0.74550000000000005),(0.85099999999999998,0.14699999999999999,0.69750000000000001),(0.85099999999999998,0.14699999999999999,0.74550000000000005),(0.89900000000000002,-0.14699999999999999,0.69750000000000001),(0.89900000000000002,-0.14699999999999999,0.74550000000000005),(0.89900000000000002,0.14699999999999999,0.69750000000000001),(0.89900000000000002,0.14699999999999999,0.74550000000000005)),$);
#441=IFCINDEXEDPOLYGONALFACE((1,2,4,3));
#442=IFCINDEXEDPOLYGONALFACE((5,7,8,6));
#443=IFCINDEXEDPOLYGONALFACE((1,5,6,2));
#444=IFCINDEXEDPOLYGONALFACE((3,4,8,7));
#445=IFCINDEXEDPOLYGONALFACE((1,3,7,5));
#446=IFCINDEXEDPOLYGONALFACE((2,6,8,4));
#447=IFCINDEXEDPOLYGONALFACE((9,10,12,11));
#448=IFCINDEXEDPOLYGONALFACE((13,15,16,14));
#449=IFCINDEXEDPOLYGONALFACE((9,13,14,10));
#450=IFCINDEXEDPOLYGONALFACE((11,12,16,15));
#451=IFCINDEXEDPOLYGONALFACE((9,11,15,13));
#452=IFCINDEXEDPOLYGONALFACE((10,14,16,12));
#453=IFCINDEXEDPOLYGONALFACE((17,18,20,19));
#454=IFCINDEXEDPOLYGONALFACE((21,23,24,22));
#455=IFCINDEXEDPOLYGONALFACE((17,21,22,18));
#456=IFCINDEXEDPOLYGONALFACE((19,20,24,23));
#457=IFCINDEXEDPOLYGONALFACE((17,19,23,21));
#458=IFCINDEXEDPOLYGONALFACE((18,22,24,20));
#459=IFCINDEXEDPOLYGONALFACE((25,26,28,27));
#460=IFCINDEXEDPOLYGONALFACE((29,31,32,30));
#461=IFCINDEXEDPOLYGONALFACE((25,29,30,26));
#462=IFCINDEXEDPOLYGONALFACE((27,28,32,31));
#463=IFCINDEXEDPOLYGONALFACE((25,27,31,29));
#464=IFCINDEXEDPOLYGONALFACE((26,30,32,28));
#465=IFCINDEXEDPOLYGONALFACE((33,34,36,35));
#466=IFCINDEXEDPOLYGONALFACE((37,39,40,38));
#467=IFCINDEXEDPOLYGONALFACE((33,37,38,34));
#468=IFCINDEXEDPOLYGONALFACE((35,36,40,39));
#469=IFCINDEXEDPOLYGONALFACE((33,35,39,37));
#470=IFCINDEXEDPOLYGONALFACE((34,38,40,36));
#471=IFCINDEXEDPOLYGONALFACE((41,42,44,43));
#472=IFCINDEXEDPOLYGONALFACE((45,47,48,46));
#473=IFCINDEXEDPOLYGONALFACE((41,45,46,42));
#474=IFCINDEXEDPOLYGONALFACE((43,44,48,47));
#475=IFCINDEXEDPOLYGONALFACE((41,43,47,45));
#476=IFCINDEXEDPOLYGONALFACE((42,46,48,44));
#477=IFCINDEXEDPOLYGONALFACE((49,50,52,51));
#478=IFCINDEXEDPOLYGONALFACE((53,55,56,54));
#479=IFCINDEXEDPOLYGONALFACE((49,53,54,50));
#480=IFCINDEXEDPOLYGONALFACE((51,52,56,55));
#481=IFCINDEXEDPOLYGONALFACE((49,51,55,53));
#482=IFCINDEXEDPOLYGONALFACE((50,54,56,52));
#483=IFCINDEXEDPOLYGONALFACE((57,58,60,59));
#484=IFCINDEXEDPOLYGONALFACE((61,63,64,62));
#485=IFCINDEXEDPOLYGONALFACE((57,61,62,58));
#486=IFCINDEXEDPOLYGONALFACE((59,60,64,63));
#487=IFCINDEXEDPOLYGONALFACE((57,59,63,61));
#488=IFCINDEXEDPOLYGONALFACE((58,62,64,60));
#489=IFCINDEXEDPOLYGONALFACE((65,66,68,67));
#490=IFCINDEXEDPOLYGONALFACE((69,71,72,70));
#491=IFCINDEXEDPOLYGONALFACE((65,69,70,66));
#492=IFCINDEXEDPOLYGONALFACE((67,68,72,71));
#493=IFCINDEXEDPOLYGONALFACE((65,67,71,69));
#494=IFCINDEXEDPOLYGONALFACE((66,70,72,68));
#495=IFCPOLYGONALFACESET(#440,$,(#441,#442,#443,#444,#445,#446,#447,#448,#449,#450,#451,#452,#453,#454,#455,#456,#457,#458,#459,#460,#461,#462,#463,#464,#465,#466,#467,#468,#469,#470,#471,#472,#473,#474,#475,#476,#477,#478,#479,#480,#481,#482,#483,#484,#485,#486,#487,#488,#489,#490,#491,#492,#493,#494),$);
#496=IFCSHAPEREPRESENTATION(#13,'Body','Tessellation',(#495));
#497=IFCPRODUCTDEFINITIONSHAPE($,$,(#496));
#498=IFCRELAGGREGATES('3aOSFE1MHTcOoo$Fg2rf9F',$,$,$,#28,(#36,#69,#102,#135,#168,#201,#234,#273,#366,#429));
#499=IFCRELCONTAINEDINSPATIALSTRUCTURE('154czpUETMveJPVb7iPm_v',$,$,$,(#28),#3);
#500=IFCCARTESIANPOINT((0.,0.,0.));
#501=IFCAXIS2PLACEMENT3D(#500,$,$);
#502=IFCLOCALPLACEMENT($,#501);
#503=IFCCARTESIANPOINT((3.7000000000000002,0.,0.));
#504=IFCAXIS2PLACEMENT3D(#503,$,$);
#505=IFCLOCALPLACEMENT($,#504);
#506=IFCCARTESIANPOINT((7.4000000000000004,0.,0.));
#507=IFCAXIS2PLACEMENT3D(#506,$,$);
#508=IFCLOCALPLACEMENT($,#507);
#509=IFCCARTESIANPOINT((11.1,0.,0.));
#510=IFCAXIS2PLACEMENT3D(#509,$,$);
#511=IFCLOCALPLACEMENT($,#510);
#512=IFCCARTESIANPOINT((0.,3.6000000000000001,0.));
#513=IFCAXIS2PLACEMENT3D(#512,$,$);
#514=IFCLOCALPLACEMENT($,#513);
#515=IFCCARTESIANPOINT((3.7000000000000002,3.6000000000000001,0.));
#516=IFCAXIS2PLACEMENT3D(#515,$,$);
#517=IFCLOCALPLACEMENT($,#516);
#518=IFCCARTESIANPOINT((7.4000000000000004,3.6000000000000001,0.));
#519=IFCAXIS2PLACEMENT3D(#518,$,$);
#520=IFCLOCALPLACEMENT($,#519);
#521=IFCCARTESIANPOINT((11.1,3.6000000000000001,0.));
#522=IFCAXIS2PLACEMENT3D(#521,$,$);
#523=IFCLOCALPLACEMENT($,#522);
#524=IFCCARTESIANPOINT((0.,7.2000000000000002,0.));
#525=IFCAXIS2PLACEMENT3D(#524,$,$);
#526=IFCLOCALPLACEMENT($,#525);
#527=IFCCARTESIANPOINT((3.7000000000000002,7.2000000000000002,0.));
#528=IFCAXIS2PLACEMENT3D(#527,$,$);
#529=IFCLOCALPLACEMENT($,#528);
ENDSEC;
END-ISO-10303-21;
