ISO-10303-21;
HEADER;
FILE_DESCRIPTION(('ViewDefinition [CoordinationView]'),'2;1');
FILE_NAME('LM3-SYS-SA900.ifc','2026-08-30T00:00:00+00:00',('OpenSourceRail'),('OpenSourceRail'),'IfcOpenShell 0.8.5','OpenSourceRail deterministic LM3 product-library exporter','design-reference / not for construction');
FILE_SCHEMA(('IFC4X3_ADD2'));
ENDSEC;
DATA;
#1=IFCPROJECT('1AXWOlM15UK9XH0Bvx_Smy',$,'LM3-SYS-SA900 \X2\2014\X0\ train control, communication, and safety electronics assembly','Design-reference geometry and assembly hierarchy only; supplier freeze, released drawings/tolerances, calculations, qualified processes and first-article tests remain mandatory.',$,$,$,(#12),#7);
#2=IFCSITE('1A68hk_bTN$emVrgUpYNFm',$,'LM3 product library',$,$,#18,$,$,.ELEMENT.,$,$,$,$,$);
#3=IFCBUILDING('0JSZ6ZLBHUpfhWZDBFl3g4',$,'LM3 assembly inspection fixture',$,$,#21,$,$,.ELEMENT.,$,$,$);
#4=IFCSIUNIT(*,.LENGTHUNIT.,$,.METRE.);
#5=IFCSIUNIT(*,.AREAUNIT.,$,.SQUARE_METRE.);
#6=IFCSIUNIT(*,.VOLUMEUNIT.,$,.CUBIC_METRE.);
#7=IFCUNITASSIGNMENT((#6,#4,#5));
#8=IFCCARTESIANPOINT((0.,0.,0.));
#9=IFCDIRECTION((0.,0.,1.));
#10=IFCDIRECTION((1.,0.,0.));
#11=IFCAXIS2PLACEMENT3D(#8,#9,#10);
#12=IFCGEOMETRICREPRESENTATIONCONTEXT($,'Model',3,1.0000000000000001E-05,#11,$);
#13=IFCGEOMETRICREPRESENTATIONSUBCONTEXT('Body','Model',*,*,*,*,#12,$,.MODEL_VIEW.,$);
#14=IFCRELAGGREGATES('1gWOjwFkTUyQaRaDW4p8tU',$,$,$,#1,(#2));
#15=IFCRELAGGREGATES('2VElMrzy1LJ9CEXbZezHgG',$,$,$,#2,(#3));
#16=IFCCARTESIANPOINT((0.,0.,0.));
#17=IFCAXIS2PLACEMENT3D(#16,$,$);
#18=IFCLOCALPLACEMENT($,#17);
#19=IFCCARTESIANPOINT((0.,0.,0.));
#20=IFCAXIS2PLACEMENT3D(#19,$,$);
#21=IFCLOCALPLACEMENT($,#20);
#22=IFCPROPERTYSINGLEVALUE('Status',$,IFCTEXT('design-reference-not-released'),$);
#23=IFCPROPERTYSINGLEVALUE('ReleaseBoundary',$,IFCTEXT('Design-reference geometry and assembly hierarchy only; supplier freeze, released drawings/tolerances, calculations, qualified processes and first-article tests remain mandatory.'),$);
#24=IFCPROPERTYSINGLEVALUE('Manifest',$,IFCTEXT('design/component-catalogue/catalog/buildable-trainset/buildable-trainset-manifest.json'),$);
#25=IFCPROPERTYSINGLEVALUE('ManifestSha256',$,IFCTEXT('1179a30e147f3569fc4ccc8ce621621cec7985f620d2c788f8da93eec9ed7c05'),$);
#26=IFCPROPERTYSET('0YQufPHqzSxx1KDugy29fK',$,'OSR_ProductLibrary',$,(#22,#23,#24,#25));
#27=IFCRELDEFINESBYPROPERTIES('1Z_Vqfn8DL2uI7FLeI1oCm',$,$,$,(#1),#26);
#28=IFCELEMENTASSEMBLY('3JgBUjPWLPhRdlIZBRbV9e',$,'train control, communication, and safety electronics assembly','network enumeration | firmware record | self-test | event-recorder write/read test',$,$,$,'LM3-SYS-SA900',$,$);
#29=IFCPROPERTYSINGLEVALUE('OSRId',$,IFCTEXT('LM3-SYS-SA900'),$);
#30=IFCPROPERTYSINGLEVALUE('Layer',$,IFCTEXT('assembly'),$);
#31=IFCPROPERTYSINGLEVALUE('BuildCell',$,IFCTEXT('final assembly and commissioning cell'),$);
#32=IFCPROPERTYSINGLEVALUE('QuantityPerTrainset',$,IFCINTEGER(1),$);
#33=IFCPROPERTYSINGLEVALUE('GeometryStatus',$,IFCTEXT('complete-hierarchy-inspection-layout'),$);
#34=IFCPROPERTYSET('1TgUkbmhTNaQmeW3EPuWkX',$,'OSR_AssemblyDefinition',$,(#29,#30,#31,#32,#33));
#35=IFCRELDEFINESBYPROPERTIES('3ZfAR6w1jORvTDSBO1Mnay',$,$,$,(#28),#34);
#36=IFCBUILDINGELEMENTPROXY('09gIKClSPG1xVpKFflDBi7',$,'T-ECU/S and T-ECU/A compute and safety-control cabinet kit','The controlled train-compute and safety-output cabinets are integrated after power, cooling, and network interfaces are frozen.',$,#217,#68,'LM3-CTRL-P010',$);
#37=IFCPROPERTYSINGLEVALUE('OSRId',$,IFCTEXT('LM3-CTRL-P010'),$);
#38=IFCPROPERTYSINGLEVALUE('Parent',$,IFCTEXT('LM3-SYS-SA900'),$);
#39=IFCPROPERTYSINGLEVALUE('Route',$,IFCTEXT('BID'),$);
#40=IFCPROPERTYSINGLEVALUE('Maturity',$,IFCTEXT('buildable-after-supplier-freeze'),$);
#41=IFCPROPERTYSINGLEVALUE('QuantityPerTrainset',$,IFCINTEGER(1),$);
#42=IFCPROPERTYSINGLEVALUE('Unit',$,IFCTEXT('trainset kit'),$);
#43=IFCPROPERTYSINGLEVALUE('GeometryStatus',$,IFCTEXT('design-reference-not-released'),$);
#44=IFCPROPERTYSINGLEVALUE('GeometryLevel',$,IFCTEXT('coordination-envelope'),$);
#45=IFCPROPERTYSET('0OOC26lW9TG8S9JUPxfW0S',$,'OSR_ProductDefinition',$,(#37,#38,#39,#40,#41,#42,#43,#44));
#46=IFCRELDEFINESBYPROPERTIES('3T5zlG_mTO6Ad0KHndgoS_',$,$,$,(#36),#45);
#47=IFCCARTESIANPOINTLIST3D(((-0.59999999999999998,-0.27500000000000002,-0.55349999999999999),(-0.59999999999999998,-0.27500000000000002,0.55349999999999999),(-0.59999999999999998,0.27500000000000002,-0.55349999999999999),(-0.59999999999999998,0.27500000000000002,0.55349999999999999),(0.59999999999999998,-0.27500000000000002,-0.55349999999999999),(0.59999999999999998,-0.27500000000000002,0.55349999999999999),(0.59999999999999998,0.27500000000000002,-0.55349999999999999),(0.59999999999999998,0.27500000000000002,0.55349999999999999),(-0.49199999999999994,-0.27500000000000002,-0.64800000000000002),(-0.49199999999999994,-0.27500000000000002,-0.48599999999999999),(-0.49199999999999994,-0.20899999999999999,-0.64800000000000002),(-0.49199999999999994,-0.20899999999999999,-0.48599999999999999),(0.49199999999999994,-0.27500000000000002,-0.64800000000000002),(0.49199999999999994,-0.27500000000000002,-0.48599999999999999),(0.49199999999999994,-0.20899999999999999,-0.64800000000000002),(0.49199999999999994,-0.20899999999999999,-0.48599999999999999),(0.216,0.18149999999999999,-0.108),(0.216,0.18149999999999999,0.108),(0.216,0.25850000000000001,-0.108),(0.216,0.25850000000000001,0.108),(0.504,0.18149999999999999,-0.108),(0.504,0.18149999999999999,0.108),(0.504,0.25850000000000001,-0.108),(0.504,0.25850000000000001,0.108)),$);
#48=IFCINDEXEDPOLYGONALFACE((1,2,4,3));
#49=IFCINDEXEDPOLYGONALFACE((5,7,8,6));
#50=IFCINDEXEDPOLYGONALFACE((1,5,6,2));
#51=IFCINDEXEDPOLYGONALFACE((3,4,8,7));
#52=IFCINDEXEDPOLYGONALFACE((1,3,7,5));
#53=IFCINDEXEDPOLYGONALFACE((2,6,8,4));
#54=IFCINDEXEDPOLYGONALFACE((9,10,12,11));
#55=IFCINDEXEDPOLYGONALFACE((13,15,16,14));
#56=IFCINDEXEDPOLYGONALFACE((9,13,14,10));
#57=IFCINDEXEDPOLYGONALFACE((11,12,16,15));
#58=IFCINDEXEDPOLYGONALFACE((9,11,15,13));
#59=IFCINDEXEDPOLYGONALFACE((10,14,16,12));
#60=IFCINDEXEDPOLYGONALFACE((17,18,20,19));
#61=IFCINDEXEDPOLYGONALFACE((21,23,24,22));
#62=IFCINDEXEDPOLYGONALFACE((17,21,22,18));
#63=IFCINDEXEDPOLYGONALFACE((19,20,24,23));
#64=IFCINDEXEDPOLYGONALFACE((17,19,23,21));
#65=IFCINDEXEDPOLYGONALFACE((18,22,24,20));
#66=IFCPOLYGONALFACESET(#47,$,(#48,#49,#50,#51,#52,#53,#54,#55,#56,#57,#58,#59,#60,#61,#62,#63,#64,#65),$);
#67=IFCSHAPEREPRESENTATION(#13,'Body','Tessellation',(#66));
#68=IFCPRODUCTDEFINITIONSHAPE($,$,(#67));
#69=IFCSENSOR('3bjgw8FCHM9OL$YwnuVjCM',$,'navigation, balise, 5G, LoRa, GNSS, IMU, and roof-antenna kit','Commodity navigation and communications devices are installed as individually traceable modules on the train network.',$,#220,#101,'LM3-CTRL-P020',$);
#70=IFCPROPERTYSINGLEVALUE('OSRId',$,IFCTEXT('LM3-CTRL-P020'),$);
#71=IFCPROPERTYSINGLEVALUE('Parent',$,IFCTEXT('LM3-SYS-SA900'),$);
#72=IFCPROPERTYSINGLEVALUE('Route',$,IFCTEXT('SOURCE'),$);
#73=IFCPROPERTYSINGLEVALUE('Maturity',$,IFCTEXT('buildable-after-supplier-freeze'),$);
#74=IFCPROPERTYSINGLEVALUE('QuantityPerTrainset',$,IFCINTEGER(1),$);
#75=IFCPROPERTYSINGLEVALUE('Unit',$,IFCTEXT('trainset kit'),$);
#76=IFCPROPERTYSINGLEVALUE('GeometryStatus',$,IFCTEXT('design-reference-not-released'),$);
#77=IFCPROPERTYSINGLEVALUE('GeometryLevel',$,IFCTEXT('coordination-envelope'),$);
#78=IFCPROPERTYSET('12OVUoCwXPQOvfzhxqmuBc',$,'OSR_ProductDefinition',$,(#70,#71,#72,#73,#74,#75,#76,#77));
#79=IFCRELDEFINESBYPROPERTIES('0HaJc12nPTHQ6oDxaBKbJS',$,$,$,(#69),#78);
#80=IFCCARTESIANPOINTLIST3D(((-0.75,-0.55000000000000004,-0.17219999999999999),(-0.75,-0.55000000000000004,0.17219999999999999),(-0.75,0.55000000000000004,-0.17219999999999999),(-0.75,0.55000000000000004,0.17219999999999999),(0.75,-0.55000000000000004,-0.17219999999999999),(0.75,-0.55000000000000004,0.17219999999999999),(0.75,0.55000000000000004,-0.17219999999999999),(0.75,0.55000000000000004,0.17219999999999999),(-0.61499999999999999,-0.55000000000000004,-0.2016),(-0.61499999999999999,-0.55000000000000004,-0.15120000000000003),(-0.61499999999999999,-0.41799999999999998,-0.2016),(-0.61499999999999999,-0.41799999999999998,-0.15120000000000003),(0.61499999999999999,-0.55000000000000004,-0.2016),(0.61499999999999999,-0.55000000000000004,-0.15120000000000003),(0.61499999999999999,-0.41799999999999998,-0.2016),(0.61499999999999999,-0.41799999999999998,-0.15120000000000003),(0.27000000000000002,0.36299999999999999,-0.033600000000000005),(0.27000000000000002,0.36299999999999999,0.033600000000000005),(0.27000000000000002,0.51700000000000002,-0.033600000000000005),(0.27000000000000002,0.51700000000000002,0.033600000000000005),(0.63,0.36299999999999999,-0.033600000000000005),(0.63,0.36299999999999999,0.033600000000000005),(0.63,0.51700000000000002,-0.033600000000000005),(0.63,0.51700000000000002,0.033600000000000005)),$);
#81=IFCINDEXEDPOLYGONALFACE((1,2,4,3));
#82=IFCINDEXEDPOLYGONALFACE((5,7,8,6));
#83=IFCINDEXEDPOLYGONALFACE((1,5,6,2));
#84=IFCINDEXEDPOLYGONALFACE((3,4,8,7));
#85=IFCINDEXEDPOLYGONALFACE((1,3,7,5));
#86=IFCINDEXEDPOLYGONALFACE((2,6,8,4));
#87=IFCINDEXEDPOLYGONALFACE((9,10,12,11));
#88=IFCINDEXEDPOLYGONALFACE((13,15,16,14));
#89=IFCINDEXEDPOLYGONALFACE((9,13,14,10));
#90=IFCINDEXEDPOLYGONALFACE((11,12,16,15));
#91=IFCINDEXEDPOLYGONALFACE((9,11,15,13));
#92=IFCINDEXEDPOLYGONALFACE((10,14,16,12));
#93=IFCINDEXEDPOLYGONALFACE((17,18,20,19));
#94=IFCINDEXEDPOLYGONALFACE((21,23,24,22));
#95=IFCINDEXEDPOLYGONALFACE((17,21,22,18));
#96=IFCINDEXEDPOLYGONALFACE((19,20,24,23));
#97=IFCINDEXEDPOLYGONALFACE((17,19,23,21));
#98=IFCINDEXEDPOLYGONALFACE((18,22,24,20));
#99=IFCPOLYGONALFACESET(#80,$,(#81,#82,#83,#84,#85,#86,#87,#88,#89,#90,#91,#92,#93,#94,#95,#96,#97,#98),$);
#100=IFCSHAPEREPRESENTATION(#13,'Body','Tessellation',(#99));
#101=IFCPRODUCTDEFINITIONSHAPE($,$,(#100));
#102=IFCELECTRICDISTRIBUTIONBOARD('0jGHBTz69MoOgWON913Iz5',$,'maintenance HMI, depot pendant, emergency controls, and safety-relay kit','Human-service and hardwired emergency interfaces remain segregated from normal unattended operation.',$,#223,#134,'LM3-CTRL-P030',$);
#103=IFCPROPERTYSINGLEVALUE('OSRId',$,IFCTEXT('LM3-CTRL-P030'),$);
#104=IFCPROPERTYSINGLEVALUE('Parent',$,IFCTEXT('LM3-SYS-SA900'),$);
#105=IFCPROPERTYSINGLEVALUE('Route',$,IFCTEXT('BID'),$);
#106=IFCPROPERTYSINGLEVALUE('Maturity',$,IFCTEXT('buildable-after-supplier-freeze'),$);
#107=IFCPROPERTYSINGLEVALUE('QuantityPerTrainset',$,IFCINTEGER(1),$);
#108=IFCPROPERTYSINGLEVALUE('Unit',$,IFCTEXT('trainset kit'),$);
#109=IFCPROPERTYSINGLEVALUE('GeometryStatus',$,IFCTEXT('design-reference-not-released'),$);
#110=IFCPROPERTYSINGLEVALUE('GeometryLevel',$,IFCTEXT('coordination-envelope'),$);
#111=IFCPROPERTYSET('1OZAAZ1JrQnP$fPwKEdC$a',$,'OSR_ProductDefinition',$,(#103,#104,#105,#106,#107,#108,#109,#110));
#112=IFCRELDEFINESBYPROPERTIES('0iZDXN_vDOIOavgAKLuPV1',$,$,$,(#102),#111);
#113=IFCCARTESIANPOINTLIST3D(((-0.55000000000000004,-0.27500000000000002,-0.26650000000000001),(-0.55000000000000004,-0.27500000000000002,0.26650000000000001),(-0.55000000000000004,0.27500000000000002,-0.26650000000000001),(-0.55000000000000004,0.27500000000000002,0.26650000000000001),(0.55000000000000004,-0.27500000000000002,-0.26650000000000001),(0.55000000000000004,-0.27500000000000002,0.26650000000000001),(0.55000000000000004,0.27500000000000002,-0.26650000000000001),(0.55000000000000004,0.27500000000000002,0.26650000000000001),(-0.45100000000000001,-0.27500000000000002,-0.312),(-0.45100000000000001,-0.27500000000000002,-0.23400000000000001),(-0.45100000000000001,-0.20899999999999999,-0.312),(-0.45100000000000001,-0.20899999999999999,-0.23400000000000001),(0.45100000000000001,-0.27500000000000002,-0.312),(0.45100000000000001,-0.27500000000000002,-0.23400000000000001),(0.45100000000000001,-0.20899999999999999,-0.312),(0.45100000000000001,-0.20899999999999999,-0.23400000000000001),(0.19800000000000001,0.18149999999999999,-0.051999999999999998),(0.19800000000000001,0.18149999999999999,0.051999999999999998),(0.19800000000000001,0.25850000000000001,-0.051999999999999998),(0.19800000000000001,0.25850000000000001,0.051999999999999998),(0.46200000000000002,0.18149999999999999,-0.051999999999999998),(0.46200000000000002,0.18149999999999999,0.051999999999999998),(0.46200000000000002,0.25850000000000001,-0.051999999999999998),(0.46200000000000002,0.25850000000000001,0.051999999999999998)),$);
#114=IFCINDEXEDPOLYGONALFACE((1,2,4,3));
#115=IFCINDEXEDPOLYGONALFACE((5,7,8,6));
#116=IFCINDEXEDPOLYGONALFACE((1,5,6,2));
#117=IFCINDEXEDPOLYGONALFACE((3,4,8,7));
#118=IFCINDEXEDPOLYGONALFACE((1,3,7,5));
#119=IFCINDEXEDPOLYGONALFACE((2,6,8,4));
#120=IFCINDEXEDPOLYGONALFACE((9,10,12,11));
#121=IFCINDEXEDPOLYGONALFACE((13,15,16,14));
#122=IFCINDEXEDPOLYGONALFACE((9,13,14,10));
#123=IFCINDEXEDPOLYGONALFACE((11,12,16,15));
#124=IFCINDEXEDPOLYGONALFACE((9,11,15,13));
#125=IFCINDEXEDPOLYGONALFACE((10,14,16,12));
#126=IFCINDEXEDPOLYGONALFACE((17,18,20,19));
#127=IFCINDEXEDPOLYGONALFACE((21,23,24,22));
#128=IFCINDEXEDPOLYGONALFACE((17,21,22,18));
#129=IFCINDEXEDPOLYGONALFACE((19,20,24,23));
#130=IFCINDEXEDPOLYGONALFACE((17,19,23,21));
#131=IFCINDEXEDPOLYGONALFACE((18,22,24,20));
#132=IFCPOLYGONALFACESET(#113,$,(#114,#115,#116,#117,#118,#119,#120,#121,#122,#123,#124,#125,#126,#127,#128,#129,#130,#131),$);
#133=IFCSHAPEREPRESENTATION(#13,'Body','Tessellation',(#132));
#134=IFCPRODUCTDEFINITIONSHAPE($,$,(#133));
#135=IFCCABLESEGMENT('11JFvprwLJMARX1gvQPdxE',$,'pre-terminated LV trainline harness, DIN cabinet, and terminal-distribution kit','Locally built harness/cabinet kits implement the released connector, segregation, label, and clamp schedules.',$,#226,#179,'LM3-CTRL-P040',$);
#136=IFCPROPERTYSINGLEVALUE('OSRId',$,IFCTEXT('LM3-CTRL-P040'),$);
#137=IFCPROPERTYSINGLEVALUE('Parent',$,IFCTEXT('LM3-SYS-SA900'),$);
#138=IFCPROPERTYSINGLEVALUE('Route',$,IFCTEXT('MAKE'),$);
#139=IFCPROPERTYSINGLEVALUE('Maturity',$,IFCTEXT('release-candidate'),$);
#140=IFCPROPERTYSINGLEVALUE('QuantityPerTrainset',$,IFCINTEGER(3),$);
#141=IFCPROPERTYSINGLEVALUE('Unit',$,IFCTEXT('car kit'),$);
#142=IFCPROPERTYSINGLEVALUE('GeometryStatus',$,IFCTEXT('design-reference-not-released'),$);
#143=IFCPROPERTYSINGLEVALUE('GeometryLevel',$,IFCTEXT('interface-detailed'),$);
#144=IFCPROPERTYSET('0dTBT5CkrRqBBdd62CIPJU',$,'OSR_ProductDefinition',$,(#136,#137,#138,#139,#140,#141,#142,#143));
#145=IFCRELDEFINESBYPROPERTIES('2Mkj55aejPqRfWUQsKbNBr',$,$,$,(#135),#144);
#146=IFCCARTESIANPOINTLIST3D(((-4.,-0.73999999999999999,-0.028799999999999996),(-4.,-0.73999999999999999,0.028799999999999996),(-4.,-0.54000000000000004,-0.028799999999999996),(-4.,-0.54000000000000004,0.028799999999999996),(4.,-0.73999999999999999,-0.028799999999999996),(4.,-0.73999999999999999,0.028799999999999996),(4.,-0.54000000000000004,-0.028799999999999996),(4.,-0.54000000000000004,0.028799999999999996),(-4.,0.54000000000000004,-0.028799999999999996),(-4.,0.54000000000000004,0.028799999999999996),(-4.,0.73999999999999999,-0.028799999999999996),(-4.,0.73999999999999999,0.028799999999999996),(4.,0.54000000000000004,-0.028799999999999996),(4.,0.54000000000000004,0.028799999999999996),(4.,0.73999999999999999,-0.028799999999999996),(4.,0.73999999999999999,0.028799999999999996),(-2.8999999999999999,-0.80000000000000004,-0.035999999999999997),(-2.8999999999999999,-0.80000000000000004,0.035999999999999997),(-2.8999999999999999,0.80000000000000004,-0.035999999999999997),(-2.8999999999999999,0.80000000000000004,0.035999999999999997),(-2.7000000000000002,-0.80000000000000004,-0.035999999999999997),(-2.7000000000000002,-0.80000000000000004,0.035999999999999997),(-2.7000000000000002,0.80000000000000004,-0.035999999999999997),(-2.7000000000000002,0.80000000000000004,0.035999999999999997),(-0.10000000000000001,-0.80000000000000004,-0.035999999999999997),(-0.10000000000000001,-0.80000000000000004,0.035999999999999997),(-0.10000000000000001,0.80000000000000004,-0.035999999999999997),(-0.10000000000000001,0.80000000000000004,0.035999999999999997),(0.10000000000000001,-0.80000000000000004,-0.035999999999999997),(0.10000000000000001,-0.80000000000000004,0.035999999999999997),(0.10000000000000001,0.80000000000000004,-0.035999999999999997),(0.10000000000000001,0.80000000000000004,0.035999999999999997),(2.7000000000000002,-0.80000000000000004,-0.035999999999999997),(2.7000000000000002,-0.80000000000000004,0.035999999999999997),(2.7000000000000002,0.80000000000000004,-0.035999999999999997),(2.7000000000000002,0.80000000000000004,0.035999999999999997),(2.8999999999999999,-0.80000000000000004,-0.035999999999999997),(2.8999999999999999,-0.80000000000000004,0.035999999999999997),(2.8999999999999999,0.80000000000000004,-0.035999999999999997),(2.8999999999999999,0.80000000000000004,0.035999999999999997)),$);
#147=IFCINDEXEDPOLYGONALFACE((1,2,4,3));
#148=IFCINDEXEDPOLYGONALFACE((5,7,8,6));
#149=IFCINDEXEDPOLYGONALFACE((1,5,6,2));
#150=IFCINDEXEDPOLYGONALFACE((3,4,8,7));
#151=IFCINDEXEDPOLYGONALFACE((1,3,7,5));
#152=IFCINDEXEDPOLYGONALFACE((2,6,8,4));
#153=IFCINDEXEDPOLYGONALFACE((9,10,12,11));
#154=IFCINDEXEDPOLYGONALFACE((13,15,16,14));
#155=IFCINDEXEDPOLYGONALFACE((9,13,14,10));
#156=IFCINDEXEDPOLYGONALFACE((11,12,16,15));
#157=IFCINDEXEDPOLYGONALFACE((9,11,15,13));
#158=IFCINDEXEDPOLYGONALFACE((10,14,16,12));
#159=IFCINDEXEDPOLYGONALFACE((17,18,20,19));
#160=IFCINDEXEDPOLYGONALFACE((21,23,24,22));
#161=IFCINDEXEDPOLYGONALFACE((17,21,22,18));
#162=IFCINDEXEDPOLYGONALFACE((19,20,24,23));
#163=IFCINDEXEDPOLYGONALFACE((17,19,23,21));
#164=IFCINDEXEDPOLYGONALFACE((18,22,24,20));
#165=IFCINDEXEDPOLYGONALFACE((25,26,28,27));
#166=IFCINDEXEDPOLYGONALFACE((29,31,32,30));
#167=IFCINDEXEDPOLYGONALFACE((25,29,30,26));
#168=IFCINDEXEDPOLYGONALFACE((27,28,32,31));
#169=IFCINDEXEDPOLYGONALFACE((25,27,31,29));
#170=IFCINDEXEDPOLYGONALFACE((26,30,32,28));
#171=IFCINDEXEDPOLYGONALFACE((33,34,36,35));
#172=IFCINDEXEDPOLYGONALFACE((37,39,40,38));
#173=IFCINDEXEDPOLYGONALFACE((33,37,38,34));
#174=IFCINDEXEDPOLYGONALFACE((35,36,40,39));
#175=IFCINDEXEDPOLYGONALFACE((33,35,39,37));
#176=IFCINDEXEDPOLYGONALFACE((34,38,40,36));
#177=IFCPOLYGONALFACESET(#146,$,(#147,#148,#149,#150,#151,#152,#153,#154,#155,#156,#157,#158,#159,#160,#161,#162,#163,#164,#165,#166,#167,#168,#169,#170,#171,#172,#173,#174,#175,#176),$);
#178=IFCSHAPEREPRESENTATION(#13,'Body','Tessellation',(#177));
#179=IFCPRODUCTDEFINITIONSHAPE($,$,(#178));
#180=IFCCOMMUNICATIONSAPPLIANCE('1wPFuscGLI0PDS6$Vr$WkS',$,'operational and crashworthy event-recorder storage kit','Operational NVMe storage and the crashworthy memory module are separately serialized but released as one recorder kit.',$,#229,#212,'LM3-CTRL-P050',$);
#181=IFCPROPERTYSINGLEVALUE('OSRId',$,IFCTEXT('LM3-CTRL-P050'),$);
#182=IFCPROPERTYSINGLEVALUE('Parent',$,IFCTEXT('LM3-SYS-SA900'),$);
#183=IFCPROPERTYSINGLEVALUE('Route',$,IFCTEXT('SOURCE'),$);
#184=IFCPROPERTYSINGLEVALUE('Maturity',$,IFCTEXT('buildable-after-supplier-freeze'),$);
#185=IFCPROPERTYSINGLEVALUE('QuantityPerTrainset',$,IFCINTEGER(1),$);
#186=IFCPROPERTYSINGLEVALUE('Unit',$,IFCTEXT('trainset kit'),$);
#187=IFCPROPERTYSINGLEVALUE('GeometryStatus',$,IFCTEXT('design-reference-not-released'),$);
#188=IFCPROPERTYSINGLEVALUE('GeometryLevel',$,IFCTEXT('coordination-envelope'),$);
#189=IFCPROPERTYSET('0YLAHFCVDSSfQjTZaGjASB',$,'OSR_ProductDefinition',$,(#181,#182,#183,#184,#185,#186,#187,#188));
#190=IFCRELDEFINESBYPROPERTIES('1di8CoX9zSVPdrVuptOnOI',$,$,$,(#180),#189);
#191=IFCCARTESIANPOINTLIST3D(((-0.26000000000000001,-0.20999999999999999,-0.1148),(-0.26000000000000001,-0.20999999999999999,0.1148),(-0.26000000000000001,0.20999999999999999,-0.1148),(-0.26000000000000001,0.20999999999999999,0.1148),(0.26000000000000001,-0.20999999999999999,-0.1148),(0.26000000000000001,-0.20999999999999999,0.1148),(0.26000000000000001,0.20999999999999999,-0.1148),(0.26000000000000001,0.20999999999999999,0.1148),(-0.2132,-0.20999999999999999,-0.13440000000000002),(-0.2132,-0.20999999999999999,-0.1008),(-0.2132,-0.15960000000000002,-0.13440000000000002),(-0.2132,-0.15960000000000002,-0.1008),(0.2132,-0.20999999999999999,-0.13440000000000002),(0.2132,-0.20999999999999999,-0.1008),(0.2132,-0.15960000000000002,-0.13440000000000002),(0.2132,-0.15960000000000002,-0.1008),(0.093599999999999989,0.1386,-0.022400000000000003),(0.093599999999999989,0.1386,0.022400000000000003),(0.093599999999999989,0.19739999999999999,-0.022400000000000003),(0.093599999999999989,0.19739999999999999,0.022400000000000003),(0.21840000000000001,0.1386,-0.022400000000000003),(0.21840000000000001,0.1386,0.022400000000000003),(0.21840000000000001,0.19739999999999999,-0.022400000000000003),(0.21840000000000001,0.19739999999999999,0.022400000000000003)),$);
#192=IFCINDEXEDPOLYGONALFACE((1,2,4,3));
#193=IFCINDEXEDPOLYGONALFACE((5,7,8,6));
#194=IFCINDEXEDPOLYGONALFACE((1,5,6,2));
#195=IFCINDEXEDPOLYGONALFACE((3,4,8,7));
#196=IFCINDEXEDPOLYGONALFACE((1,3,7,5));
#197=IFCINDEXEDPOLYGONALFACE((2,6,8,4));
#198=IFCINDEXEDPOLYGONALFACE((9,10,12,11));
#199=IFCINDEXEDPOLYGONALFACE((13,15,16,14));
#200=IFCINDEXEDPOLYGONALFACE((9,13,14,10));
#201=IFCINDEXEDPOLYGONALFACE((11,12,16,15));
#202=IFCINDEXEDPOLYGONALFACE((9,11,15,13));
#203=IFCINDEXEDPOLYGONALFACE((10,14,16,12));
#204=IFCINDEXEDPOLYGONALFACE((17,18,20,19));
#205=IFCINDEXEDPOLYGONALFACE((21,23,24,22));
#206=IFCINDEXEDPOLYGONALFACE((17,21,22,18));
#207=IFCINDEXEDPOLYGONALFACE((19,20,24,23));
#208=IFCINDEXEDPOLYGONALFACE((17,19,23,21));
#209=IFCINDEXEDPOLYGONALFACE((18,22,24,20));
#210=IFCPOLYGONALFACESET(#191,$,(#192,#193,#194,#195,#196,#197,#198,#199,#200,#201,#202,#203,#204,#205,#206,#207,#208,#209),$);
#211=IFCSHAPEREPRESENTATION(#13,'Body','Tessellation',(#210));
#212=IFCPRODUCTDEFINITIONSHAPE($,$,(#211));
#213=IFCRELAGGREGATES('135oYa_U9H8eX63lJUdFx8',$,$,$,#28,(#36,#69,#102,#135,#180));
#214=IFCRELCONTAINEDINSPATIALSTRUCTURE('07Yhgx6YfLrvdJzmRIbIIX',$,$,$,(#28),#3);
#215=IFCCARTESIANPOINT((0.,0.,0.));
#216=IFCAXIS2PLACEMENT3D(#215,$,$);
#217=IFCLOCALPLACEMENT($,#216);
#218=IFCCARTESIANPOINT((8.8000000000000007,0.,0.));
#219=IFCAXIS2PLACEMENT3D(#218,$,$);
#220=IFCLOCALPLACEMENT($,#219);
#221=IFCCARTESIANPOINT((17.600000000000001,0.,0.));
#222=IFCAXIS2PLACEMENT3D(#221,$,$);
#223=IFCLOCALPLACEMENT($,#222);
#224=IFCCARTESIANPOINT((26.399999999999999,0.,0.));
#225=IFCAXIS2PLACEMENT3D(#224,$,$);
#226=IFCLOCALPLACEMENT($,#225);
#227=IFCCARTESIANPOINT((0.,2.7999999999999998,0.));
#228=IFCAXIS2PLACEMENT3D(#227,$,$);
#229=IFCLOCALPLACEMENT($,#228);
ENDSEC;
END-ISO-10303-21;
