ISO-10303-21;
HEADER;
FILE_DESCRIPTION(('ViewDefinition [CoordinationView]'),'2;1');
FILE_NAME('LM3-ART-SA810.ifc','2026-08-30T00:00:00+00:00',('OpenSourceRail'),('OpenSourceRail'),'IfcOpenShell 0.8.5','OpenSourceRail deterministic LM3 product-library exporter','design-reference / not for construction');
FILE_SCHEMA(('IFC4X3_ADD2'));
ENDSEC;
DATA;
#1=IFCPROJECT('2PhXHCTTbUu9zWyLzK1uVR',$,'LM3-ART-SA810 \X2\2014\X0\ structural articulation joint and anti-lift load path','Design-reference geometry and assembly hierarchy only; supplier freeze, released drawings/tolerances, calculations, qualified processes and first-article tests remain mandatory.',$,$,$,(#12),#7);
#2=IFCSITE('2EUnEVljTVIOQ_5$Rp0EB_',$,'LM3 product library',$,$,#18,$,$,.ELEMENT.,$,$,$,$,$);
#3=IFCBUILDING('3TbkEaPnXLShjQyFgET_hW',$,'LM3 assembly inspection fixture',$,$,#21,$,$,.ELEMENT.,$,$,$);
#4=IFCSIUNIT(*,.LENGTHUNIT.,$,.METRE.);
#5=IFCSIUNIT(*,.AREAUNIT.,$,.SQUARE_METRE.);
#6=IFCSIUNIT(*,.VOLUMEUNIT.,$,.CUBIC_METRE.);
#7=IFCUNITASSIGNMENT((#6,#4,#5));
#8=IFCCARTESIANPOINT((0.,0.,0.));
#9=IFCDIRECTION((0.,0.,1.));
#10=IFCDIRECTION((1.,0.,0.));
#11=IFCAXIS2PLACEMENT3D(#8,#9,#10);
#12=IFCGEOMETRICREPRESENTATIONCONTEXT($,'Model',3,1.0000000000000001E-05,#11,$);
#13=IFCGEOMETRICREPRESENTATIONSUBCONTEXT('Body','Model',*,*,*,*,#12,$,.MODEL_VIEW.,$);
#14=IFCRELAGGREGATES('2i3VqATxzPN9K1Z_ijCpKb',$,$,$,#1,(#2));
#15=IFCRELAGGREGATES('27oG_3f6rSmv7zMI_EN3gO',$,$,$,#2,(#3));
#16=IFCCARTESIANPOINT((0.,0.,0.));
#17=IFCAXIS2PLACEMENT3D(#16,$,$);
#18=IFCLOCALPLACEMENT($,#17);
#19=IFCCARTESIANPOINT((0.,0.,0.));
#20=IFCAXIS2PLACEMENT3D(#19,$,$);
#21=IFCLOCALPLACEMENT($,#20);
#22=IFCPROPERTYSINGLEVALUE('Status',$,IFCTEXT('design-reference-not-released'),$);
#23=IFCPROPERTYSINGLEVALUE('ReleaseBoundary',$,IFCTEXT('Design-reference geometry and assembly hierarchy only; supplier freeze, released drawings/tolerances, calculations, qualified processes and first-article tests remain mandatory.'),$);
#24=IFCPROPERTYSINGLEVALUE('Manifest',$,IFCTEXT('design/component-catalogue/catalog/buildable-trainset/buildable-trainset-manifest.json'),$);
#25=IFCPROPERTYSINGLEVALUE('ManifestSha256',$,IFCTEXT('7654747909805305ce2018109b5b649c4817a8f8c44a3ec8f2e8a6f74d48243e'),$);
#26=IFCPROPERTYSET('0QsUEhX7fGqRqORKa0RLUG',$,'OSR_ProductLibrary',$,(#22,#23,#24,#25));
#27=IFCRELDEFINESBYPROPERTIES('03KCN3vE1Jf8DaS4GKjgZA',$,$,$,(#1),#26);
#28=IFCELEMENTASSEMBLY('1OzGomxCXJZxiD8G7hLw7R',$,'structural articulation joint and anti-lift load path','pin/bearing identity | shimmed datum survey | proof load | lubrication/seal release | motion sweep',$,$,$,'LM3-ART-SA810',$,$);
#29=IFCPROPERTYSINGLEVALUE('OSRId',$,IFCTEXT('LM3-ART-SA810'),$);
#30=IFCPROPERTYSINGLEVALUE('Layer',$,IFCTEXT('subassembly'),$);
#31=IFCPROPERTYSINGLEVALUE('BuildCell',$,IFCTEXT('articulation bench and proof-load cell'),$);
#32=IFCPROPERTYSINGLEVALUE('QuantityPerTrainset',$,IFCINTEGER(2),$);
#33=IFCPROPERTYSINGLEVALUE('GeometryStatus',$,IFCTEXT('complete-hierarchy-inspection-layout'),$);
#34=IFCPROPERTYSET('3V$i31S$jVihWz6tRQ0HzM',$,'OSR_AssemblyDefinition',$,(#29,#30,#31,#32,#33));
#35=IFCRELDEFINESBYPROPERTIES('1R99MFvqDOuxgc$XIJB4Vd',$,$,$,(#28),#34);
#36=IFCMEMBER('3aYWhmU2rJRRhg$_uUBicA',$,'articulation adapter frame, anti-lift keeper, and shim kit','Machined/welded adapter frames for lower pivot, upper links, bellows, and trainlines.',$,#155,#74,'LM3-ART-P010',$);
#37=IFCPROPERTYSINGLEVALUE('OSRId',$,IFCTEXT('LM3-ART-P010'),$);
#38=IFCPROPERTYSINGLEVALUE('Parent',$,IFCTEXT('LM3-ART-SA810'),$);
#39=IFCPROPERTYSINGLEVALUE('Route',$,IFCTEXT('MAKE'),$);
#40=IFCPROPERTYSINGLEVALUE('Maturity',$,IFCTEXT('release-candidate'),$);
#41=IFCPROPERTYSINGLEVALUE('QuantityPerTrainset',$,IFCINTEGER(2),$);
#42=IFCPROPERTYSINGLEVALUE('Unit',$,IFCTEXT('kit'),$);
#43=IFCPROPERTYSINGLEVALUE('GeometryStatus',$,IFCTEXT('design-reference-not-released'),$);
#44=IFCPROPERTYSINGLEVALUE('GeometryLevel',$,IFCTEXT('interface-detailed'),$);
#45=IFCPROPERTYSET('3$hdQudOHOGh9yfxkSBtH2',$,'OSR_ProductDefinition',$,(#37,#38,#39,#40,#41,#42,#43,#44));
#46=IFCRELDEFINESBYPROPERTIES('1iIvNOIy1KBP6l74uXb7n5',$,$,$,(#36),#45);
#47=IFCCARTESIANPOINTLIST3D(((-1.2,-0.14999999999999999,-1.2),(-1.2,-0.14999999999999999,1.2),(-1.2,0.14999999999999999,-1.2),(-1.2,0.14999999999999999,1.2),(-1.0600000000000001,-0.14999999999999999,-1.2),(-1.0600000000000001,-0.14999999999999999,1.2),(-1.0600000000000001,0.14999999999999999,-1.2),(-1.0600000000000001,0.14999999999999999,1.2),(1.0600000000000001,-0.14999999999999999,-1.2),(1.0600000000000001,-0.14999999999999999,1.2),(1.0600000000000001,0.14999999999999999,-1.2),(1.0600000000000001,0.14999999999999999,1.2),(1.2,-0.14999999999999999,-1.2),(1.2,-0.14999999999999999,1.2),(1.2,0.14999999999999999,-1.2),(1.2,0.14999999999999999,1.2),(-1.0600000000000001,-0.14999999999999999,1.0600000000000001),(-1.0600000000000001,-0.14999999999999999,1.2),(-1.0600000000000001,0.14999999999999999,1.0600000000000001),(-1.0600000000000001,0.14999999999999999,1.2),(1.0600000000000001,-0.14999999999999999,1.0600000000000001),(1.0600000000000001,-0.14999999999999999,1.2),(1.0600000000000001,0.14999999999999999,1.0600000000000001),(1.0600000000000001,0.14999999999999999,1.2),(-1.0600000000000001,-0.14999999999999999,-1.2),(-1.0600000000000001,-0.14999999999999999,-1.0600000000000001),(-1.0600000000000001,0.14999999999999999,-1.2),(-1.0600000000000001,0.14999999999999999,-1.0600000000000001),(1.0600000000000001,-0.14999999999999999,-1.2),(1.0600000000000001,-0.14999999999999999,-1.0600000000000001),(1.0600000000000001,0.14999999999999999,-1.2),(1.0600000000000001,0.14999999999999999,-1.0600000000000001)),$);
#48=IFCINDEXEDPOLYGONALFACE((1,2,4,3));
#49=IFCINDEXEDPOLYGONALFACE((5,7,8,6));
#50=IFCINDEXEDPOLYGONALFACE((1,5,6,2));
#51=IFCINDEXEDPOLYGONALFACE((3,4,8,7));
#52=IFCINDEXEDPOLYGONALFACE((1,3,7,5));
#53=IFCINDEXEDPOLYGONALFACE((2,6,8,4));
#54=IFCINDEXEDPOLYGONALFACE((9,10,12,11));
#55=IFCINDEXEDPOLYGONALFACE((13,15,16,14));
#56=IFCINDEXEDPOLYGONALFACE((9,13,14,10));
#57=IFCINDEXEDPOLYGONALFACE((11,12,16,15));
#58=IFCINDEXEDPOLYGONALFACE((9,11,15,13));
#59=IFCINDEXEDPOLYGONALFACE((10,14,16,12));
#60=IFCINDEXEDPOLYGONALFACE((17,18,20,19));
#61=IFCINDEXEDPOLYGONALFACE((21,23,24,22));
#62=IFCINDEXEDPOLYGONALFACE((17,21,22,18));
#63=IFCINDEXEDPOLYGONALFACE((19,20,24,23));
#64=IFCINDEXEDPOLYGONALFACE((17,19,23,21));
#65=IFCINDEXEDPOLYGONALFACE((18,22,24,20));
#66=IFCINDEXEDPOLYGONALFACE((25,26,28,27));
#67=IFCINDEXEDPOLYGONALFACE((29,31,32,30));
#68=IFCINDEXEDPOLYGONALFACE((25,29,30,26));
#69=IFCINDEXEDPOLYGONALFACE((27,28,32,31));
#70=IFCINDEXEDPOLYGONALFACE((25,27,31,29));
#71=IFCINDEXEDPOLYGONALFACE((26,30,32,28));
#72=IFCPOLYGONALFACESET(#47,$,(#48,#49,#50,#51,#52,#53,#54,#55,#56,#57,#58,#59,#60,#61,#62,#63,#64,#65,#66,#67,#68,#69,#70,#71),$);
#73=IFCSHAPEREPRESENTATION(#13,'Body','Tessellation',(#72));
#74=IFCPRODUCTDEFINITIONSHAPE($,$,(#73));
#75=IFCDISCRETEACCESSORY('0JAxjwmnHPbv0wYEhk5ngA',$,'articulation lower spherical pivot, bearing housing and pin set','Supplier-sized spherical bearing, housing, pin, bushes and retainers transmit the released draw, buff, vertical and anti-lift loads through the OSR adapter.',$,#158,#117,'LM3-ART-P020',$);
#76=IFCPROPERTYSINGLEVALUE('OSRId',$,IFCTEXT('LM3-ART-P020'),$);
#77=IFCPROPERTYSINGLEVALUE('Parent',$,IFCTEXT('LM3-ART-SA810'),$);
#78=IFCPROPERTYSINGLEVALUE('Route',$,IFCTEXT('BID'),$);
#79=IFCPROPERTYSINGLEVALUE('Maturity',$,IFCTEXT('buildable-after-supplier-freeze'),$);
#80=IFCPROPERTYSINGLEVALUE('QuantityPerTrainset',$,IFCINTEGER(2),$);
#81=IFCPROPERTYSINGLEVALUE('Unit',$,IFCTEXT('joint set'),$);
#82=IFCPROPERTYSINGLEVALUE('GeometryStatus',$,IFCTEXT('design-reference-not-released'),$);
#83=IFCPROPERTYSINGLEVALUE('GeometryLevel',$,IFCTEXT('coordination-envelope'),$);
#84=IFCPROPERTYSET('17ND9gm05ILBWC0FLPkHbq',$,'OSR_ProductDefinition',$,(#76,#77,#78,#79,#80,#81,#82,#83));
#85=IFCRELDEFINESBYPROPERTIES('0xTF1CSFjLOgZYBVi4IUVr',$,$,$,(#75),#84);
#86=IFCCARTESIANPOINTLIST3D(((0.21840000000000004,0.,-0.18719999999999998),(0.20771074315886157,0.067489311571488519,-0.18719999999999998),(0.17668931157148857,0.12837229910067616,-0.18719999999999998),(0.12837229910067616,0.17668931157148857,-0.18719999999999998),(0.067489311571488533,0.20771074315886157,-0.18719999999999998),(1.33731430466891E-17,0.21840000000000004,-0.18719999999999998),(-0.067489311571488506,0.20771074315886159,-0.18719999999999998),(-0.12837229910067613,0.17668931157148857,-0.18719999999999998),(-0.17668931157148854,0.12837229910067618,-0.18719999999999998),(-0.20771074315886157,0.067489311571488547,-0.18719999999999998),(-0.21840000000000004,2.67462860933782E-17,-0.18719999999999998),(-0.20771074315886162,-0.067489311571488408,-0.18719999999999998),(-0.17668931157148857,-0.12837229910067613,-0.18719999999999998),(-0.12837229910067618,-0.17668931157148854,-0.18719999999999998),(-0.067489311571488561,-0.20771074315886157,-0.18719999999999998),(-4.0119429140067297E-17,-0.21840000000000004,-0.18719999999999998),(0.067489311571488492,-0.20771074315886159,-0.18719999999999998),(0.1283722991006761,-0.17668931157148857,-0.18719999999999998),(0.17668931157148854,-0.12837229910067621,-0.18719999999999998),(0.20771074315886157,-0.067489311571488575,-0.18719999999999998),(0.21840000000000004,0.,0.18719999999999998),(0.20771074315886157,0.067489311571488519,0.18719999999999998),(0.17668931157148857,0.12837229910067616,0.18719999999999998),(0.12837229910067616,0.17668931157148857,0.18719999999999998),(0.067489311571488533,0.20771074315886157,0.18719999999999998),(1.33731430466891E-17,0.21840000000000004,0.18719999999999998),(-0.067489311571488506,0.20771074315886159,0.18719999999999998),(-0.12837229910067613,0.17668931157148857,0.18719999999999998),(-0.17668931157148854,0.12837229910067618,0.18719999999999998),(-0.20771074315886157,0.067489311571488547,0.18719999999999998),(-0.21840000000000004,2.67462860933782E-17,0.18719999999999998),(-0.20771074315886162,-0.067489311571488408,0.18719999999999998),(-0.17668931157148857,-0.12837229910067613,0.18719999999999998),(-0.12837229910067618,-0.17668931157148854,0.18719999999999998),(-0.067489311571488561,-0.20771074315886157,0.18719999999999998),(-4.0119429140067297E-17,-0.21840000000000004,0.18719999999999998),(0.067489311571488492,-0.20771074315886159,0.18719999999999998),(0.1283722991006761,-0.17668931157148857,0.18719999999999998),(0.17668931157148854,-0.12837229910067621,0.18719999999999998),(0.20771074315886157,-0.067489311571488575,0.18719999999999998),(-0.39000000000000001,-0.39000000000000001,-0.26000000000000001),(-0.39000000000000001,-0.39000000000000001,-0.13519999999999999),(-0.39000000000000001,0.39000000000000001,-0.26000000000000001),(-0.39000000000000001,0.39000000000000001,-0.13519999999999999),(0.39000000000000001,-0.39000000000000001,-0.26000000000000001),(0.39000000000000001,-0.39000000000000001,-0.13519999999999999),(0.39000000000000001,0.39000000000000001,-0.26000000000000001),(0.39000000000000001,0.39000000000000001,-0.13519999999999999)),$);
#87=IFCINDEXEDPOLYGONALFACE((20,19,18,17,16,15,14,13,12,11,10,9,8,7,6,5,4,3,2,1));
#88=IFCINDEXEDPOLYGONALFACE((21,22,23,24,25,26,27,28,29,30,31,32,33,34,35,36,37,38,39,40));
#89=IFCINDEXEDPOLYGONALFACE((1,2,22,21));
#90=IFCINDEXEDPOLYGONALFACE((2,3,23,22));
#91=IFCINDEXEDPOLYGONALFACE((3,4,24,23));
#92=IFCINDEXEDPOLYGONALFACE((4,5,25,24));
#93=IFCINDEXEDPOLYGONALFACE((5,6,26,25));
#94=IFCINDEXEDPOLYGONALFACE((6,7,27,26));
#95=IFCINDEXEDPOLYGONALFACE((7,8,28,27));
#96=IFCINDEXEDPOLYGONALFACE((8,9,29,28));
#97=IFCINDEXEDPOLYGONALFACE((9,10,30,29));
#98=IFCINDEXEDPOLYGONALFACE((10,11,31,30));
#99=IFCINDEXEDPOLYGONALFACE((11,12,32,31));
#100=IFCINDEXEDPOLYGONALFACE((12,13,33,32));
#101=IFCINDEXEDPOLYGONALFACE((13,14,34,33));
#102=IFCINDEXEDPOLYGONALFACE((14,15,35,34));
#103=IFCINDEXEDPOLYGONALFACE((15,16,36,35));
#104=IFCINDEXEDPOLYGONALFACE((16,17,37,36));
#105=IFCINDEXEDPOLYGONALFACE((17,18,38,37));
#106=IFCINDEXEDPOLYGONALFACE((18,19,39,38));
#107=IFCINDEXEDPOLYGONALFACE((19,20,40,39));
#108=IFCINDEXEDPOLYGONALFACE((20,1,21,40));
#109=IFCINDEXEDPOLYGONALFACE((41,42,44,43));
#110=IFCINDEXEDPOLYGONALFACE((45,47,48,46));
#111=IFCINDEXEDPOLYGONALFACE((41,45,46,42));
#112=IFCINDEXEDPOLYGONALFACE((43,44,48,47));
#113=IFCINDEXEDPOLYGONALFACE((41,43,47,45));
#114=IFCINDEXEDPOLYGONALFACE((42,46,48,44));
#115=IFCPOLYGONALFACESET(#86,$,(#87,#88,#89,#90,#91,#92,#93,#94,#95,#96,#97,#98,#99,#100,#101,#102,#103,#104,#105,#106,#107,#108,#109,#110,#111,#112,#113,#114),$);
#116=IFCSHAPEREPRESENTATION(#13,'Body','Tessellation',(#115));
#117=IFCPRODUCTDEFINITIONSHAPE($,$,(#116));
#118=IFCDISCRETEACCESSORY('2Q2s9Nw6zS88E9AW668IAg',$,'articulation upper lateral/yaw links, spherical joints and retained pins','Paired upper links stabilize roll/yaw while the lower pivot carries the primary articulation loads; all rod ends and pins remain positively retained.',$,#161,#150,'LM3-ART-P021',$);
#119=IFCPROPERTYSINGLEVALUE('OSRId',$,IFCTEXT('LM3-ART-P021'),$);
#120=IFCPROPERTYSINGLEVALUE('Parent',$,IFCTEXT('LM3-ART-SA810'),$);
#121=IFCPROPERTYSINGLEVALUE('Route',$,IFCTEXT('BID'),$);
#122=IFCPROPERTYSINGLEVALUE('Maturity',$,IFCTEXT('buildable-after-supplier-freeze'),$);
#123=IFCPROPERTYSINGLEVALUE('QuantityPerTrainset',$,IFCINTEGER(2),$);
#124=IFCPROPERTYSINGLEVALUE('Unit',$,IFCTEXT('joint set'),$);
#125=IFCPROPERTYSINGLEVALUE('GeometryStatus',$,IFCTEXT('design-reference-not-released'),$);
#126=IFCPROPERTYSINGLEVALUE('GeometryLevel',$,IFCTEXT('coordination-envelope'),$);
#127=IFCPROPERTYSET('1eMCKqfrfPZP9vGea32$U$',$,'OSR_ProductDefinition',$,(#119,#120,#121,#122,#123,#124,#125,#126));
#128=IFCRELDEFINESBYPROPERTIES('1UpwG4gafGu8KLPumSmXiQ',$,$,$,(#118),#127);
#129=IFCCARTESIANPOINTLIST3D(((-0.59999999999999998,-0.315,-0.088200000000000001),(-0.59999999999999998,-0.315,0.088200000000000001),(-0.59999999999999998,0.315,-0.088200000000000001),(-0.59999999999999998,0.315,0.088200000000000001),(0.59999999999999998,-0.315,-0.088200000000000001),(0.59999999999999998,-0.315,0.088200000000000001),(0.59999999999999998,0.315,-0.088200000000000001),(0.59999999999999998,0.315,0.088200000000000001),(-0.28799999999999998,-0.75,-0.06720000000000001),(-0.28799999999999998,-0.75,0.06720000000000001),(-0.28799999999999998,0.75,-0.06720000000000001),(-0.28799999999999998,0.75,0.06720000000000001),(0.28799999999999998,-0.75,-0.06720000000000001),(0.28799999999999998,-0.75,0.06720000000000001),(0.28799999999999998,0.75,-0.06720000000000001),(0.28799999999999998,0.75,0.06720000000000001),(-0.108,-0.16500000000000001,-0.20999999999999999),(-0.108,-0.16500000000000001,0.20999999999999999),(-0.108,0.16500000000000001,-0.20999999999999999),(-0.108,0.16500000000000001,0.20999999999999999),(0.108,-0.16500000000000001,-0.20999999999999999),(0.108,-0.16500000000000001,0.20999999999999999),(0.108,0.16500000000000001,-0.20999999999999999),(0.108,0.16500000000000001,0.20999999999999999)),$);
#130=IFCINDEXEDPOLYGONALFACE((1,2,4,3));
#131=IFCINDEXEDPOLYGONALFACE((5,7,8,6));
#132=IFCINDEXEDPOLYGONALFACE((1,5,6,2));
#133=IFCINDEXEDPOLYGONALFACE((3,4,8,7));
#134=IFCINDEXEDPOLYGONALFACE((1,3,7,5));
#135=IFCINDEXEDPOLYGONALFACE((2,6,8,4));
#136=IFCINDEXEDPOLYGONALFACE((9,10,12,11));
#137=IFCINDEXEDPOLYGONALFACE((13,15,16,14));
#138=IFCINDEXEDPOLYGONALFACE((9,13,14,10));
#139=IFCINDEXEDPOLYGONALFACE((11,12,16,15));
#140=IFCINDEXEDPOLYGONALFACE((9,11,15,13));
#141=IFCINDEXEDPOLYGONALFACE((10,14,16,12));
#142=IFCINDEXEDPOLYGONALFACE((17,18,20,19));
#143=IFCINDEXEDPOLYGONALFACE((21,23,24,22));
#144=IFCINDEXEDPOLYGONALFACE((17,21,22,18));
#145=IFCINDEXEDPOLYGONALFACE((19,20,24,23));
#146=IFCINDEXEDPOLYGONALFACE((17,19,23,21));
#147=IFCINDEXEDPOLYGONALFACE((18,22,24,20));
#148=IFCPOLYGONALFACESET(#129,$,(#130,#131,#132,#133,#134,#135,#136,#137,#138,#139,#140,#141,#142,#143,#144,#145,#146,#147),$);
#149=IFCSHAPEREPRESENTATION(#13,'Body','Tessellation',(#148));
#150=IFCPRODUCTDEFINITIONSHAPE($,$,(#149));
#151=IFCRELAGGREGATES('0r6N9n0JrRiOKx3vBGxnm$',$,$,$,#28,(#36,#75,#118));
#152=IFCRELCONTAINEDINSPATIALSTRUCTURE('3h3IvtnSXVQQCO4va1jN9p',$,$,$,(#28),#3);
#153=IFCCARTESIANPOINT((0.,0.,0.));
#154=IFCAXIS2PLACEMENT3D(#153,$,$);
#155=IFCLOCALPLACEMENT($,#154);
#156=IFCCARTESIANPOINT((3.2000000000000002,0.,0.));
#157=IFCAXIS2PLACEMENT3D(#156,$,$);
#158=IFCLOCALPLACEMENT($,#157);
#159=IFCCARTESIANPOINT((6.4000000000000004,0.,0.));
#160=IFCAXIS2PLACEMENT3D(#159,$,$);
#161=IFCLOCALPLACEMENT($,#160);
ENDSEC;
END-ISO-10303-21;
