ISO-10303-21;
HEADER;
FILE_DESCRIPTION(('ViewDefinition [CoordinationView]'),'2;1');
FILE_NAME('LM3-TRC-SA615.ifc','2026-08-30T00:00:00+00:00',('OpenSourceRail'),('OpenSourceRail'),'IfcOpenShell 0.8.5','OpenSourceRail deterministic LM3 product-library exporter','design-reference / not for construction');
FILE_SCHEMA(('IFC4X3_ADD2'));
ENDSEC;
DATA;
#1=IFCPROJECT('2Myohov0LVUhGgTsiowk9E',$,'LM3-TRC-SA615 \X2\2014\X0\ bogie-mounted motor, gearbox, flexible coupling and torque-reaction drive unit','Design-reference geometry and assembly hierarchy only; supplier freeze, released drawings/tolerances, calculations, qualified processes and first-article tests remain mandatory.',$,$,$,(#12),#7);
#2=IFCSITE('3Cjnj6MQ9PTPnLa9KhJoc4',$,'LM3 product library',$,$,#18,$,$,.ELEMENT.,$,$,$,$,$);
#3=IFCBUILDING('2HsB62iYTTfOYzi4FUJ6cT',$,'LM3 assembly inspection fixture',$,$,#21,$,$,.ELEMENT.,$,$,$);
#4=IFCSIUNIT(*,.LENGTHUNIT.,$,.METRE.);
#5=IFCSIUNIT(*,.AREAUNIT.,$,.SQUARE_METRE.);
#6=IFCSIUNIT(*,.VOLUMEUNIT.,$,.CUBIC_METRE.);
#7=IFCUNITASSIGNMENT((#6,#4,#5));
#8=IFCCARTESIANPOINT((0.,0.,0.));
#9=IFCDIRECTION((0.,0.,1.));
#10=IFCDIRECTION((1.,0.,0.));
#11=IFCAXIS2PLACEMENT3D(#8,#9,#10);
#12=IFCGEOMETRICREPRESENTATIONCONTEXT($,'Model',3,1.0000000000000001E-05,#11,$);
#13=IFCGEOMETRICREPRESENTATIONSUBCONTEXT('Body','Model',*,*,*,*,#12,$,.MODEL_VIEW.,$);
#14=IFCRELAGGREGATES('3hvKeEzOfHS8vOaghdXHuG',$,$,$,#1,(#2));
#15=IFCRELAGGREGATES('0lER8xAPvUhOVQGWZSK7G9',$,$,$,#2,(#3));
#16=IFCCARTESIANPOINT((0.,0.,0.));
#17=IFCAXIS2PLACEMENT3D(#16,$,$);
#18=IFCLOCALPLACEMENT($,#17);
#19=IFCCARTESIANPOINT((0.,0.,0.));
#20=IFCAXIS2PLACEMENT3D(#19,$,$);
#21=IFCLOCALPLACEMENT($,#20);
#22=IFCPROPERTYSINGLEVALUE('Status',$,IFCTEXT('design-reference-not-released'),$);
#23=IFCPROPERTYSINGLEVALUE('ReleaseBoundary',$,IFCTEXT('Design-reference geometry and assembly hierarchy only; supplier freeze, released drawings/tolerances, calculations, qualified processes and first-article tests remain mandatory.'),$);
#24=IFCPROPERTYSINGLEVALUE('Manifest',$,IFCTEXT('design/component-catalogue/catalog/buildable-trainset/buildable-trainset-manifest.json'),$);
#25=IFCPROPERTYSINGLEVALUE('ManifestSha256',$,IFCTEXT('7654747909805305ce2018109b5b649c4817a8f8c44a3ec8f2e8a6f74d48243e'),$);
#26=IFCPROPERTYSET('2MOgqQIvjNuQ2XLZ4ufMOb',$,'OSR_ProductLibrary',$,(#22,#23,#24,#25));
#27=IFCRELDEFINESBYPROPERTIES('03BV6lAWPN_uvFhEtIoCPh',$,$,$,(#1),#26);
#28=IFCELEMENTASSEMBLY('0Al$FzreLKbP$BdDf8XK1o',$,'bogie-mounted motor, gearbox, flexible coupling and torque-reaction drive unit','motor/gearbox serial match | coupling alignment | torque-link proof | insulation/rotation test | removal-envelope trial',$,$,$,'LM3-TRC-SA615',$,$);
#29=IFCPROPERTYSINGLEVALUE('OSRId',$,IFCTEXT('LM3-TRC-SA615'),$);
#30=IFCPROPERTYSINGLEVALUE('Layer',$,IFCTEXT('subassembly'),$);
#31=IFCPROPERTYSINGLEVALUE('BuildCell',$,IFCTEXT('traction drive clean assembly cell'),$);
#32=IFCPROPERTYSINGLEVALUE('QuantityPerTrainset',$,IFCINTEGER(3),$);
#33=IFCPROPERTYSINGLEVALUE('GeometryStatus',$,IFCTEXT('complete-hierarchy-inspection-layout'),$);
#34=IFCPROPERTYSET('0c2m$Dr7vSK9zCKtBvR6h5',$,'OSR_AssemblyDefinition',$,(#29,#30,#31,#32,#33));
#35=IFCRELDEFINESBYPROPERTIES('0Go8r2PsnOPx$4ZC$Lr7W6',$,$,$,(#28),#34);
#36=IFCELECTRICMOTOR('1Rm7gdEp1S5uNHifin7yD$',$,'motor-350kw-hm47-class axle traction motor','Optimizer-selected 250 kW motor class; CAD baseline carries the promoted envelope.',$,#184,#115,'LM3-TRC-P010',$);
#37=IFCPROPERTYSINGLEVALUE('OSRId',$,IFCTEXT('LM3-TRC-P010'),$);
#38=IFCPROPERTYSINGLEVALUE('Parent',$,IFCTEXT('LM3-TRC-SA615'),$);
#39=IFCPROPERTYSINGLEVALUE('Route',$,IFCTEXT('BID'),$);
#40=IFCPROPERTYSINGLEVALUE('Maturity',$,IFCTEXT('buildable-after-supplier-freeze'),$);
#41=IFCPROPERTYSINGLEVALUE('QuantityPerTrainset',$,IFCINTEGER(6),$);
#42=IFCPROPERTYSINGLEVALUE('Unit',$,IFCTEXT('ea'),$);
#43=IFCPROPERTYSINGLEVALUE('GeometryStatus',$,IFCTEXT('design-reference-not-released'),$);
#44=IFCPROPERTYSET('255n9W9uDQpeCyTSDicBIR',$,'OSR_ProductDefinition',$,(#37,#38,#39,#40,#41,#42,#43));
#45=IFCRELDEFINESBYPROPERTIES('2mKWrfzj9S8uU7BWJPy3mn',$,$,$,(#36),#44);
#46=IFCCARTESIANPOINTLIST3D(((0.3024,-0.25919999999999999,0.),(0.28759949052765443,-0.25919999999999999,0.0934467390989841),(0.2446467390989841,-0.25919999999999999,0.17774626029324389),(0.17774626029324389,-0.25919999999999999,0.2446467390989841),(0.093446739098984113,-0.25919999999999999,0.28759949052765443),(1.8516659603107981E-17,-0.25919999999999999,0.3024),(-0.093446739098984072,-0.25919999999999999,0.28759949052765449),(-0.17774626029324384,-0.25919999999999999,0.2446467390989841),(-0.24464673909898407,-0.25919999999999999,0.17774626029324392),(-0.28759949052765443,-0.25919999999999999,0.093446739098984127),(-0.3024,-0.25919999999999999,3.7033319206215963E-17),(-0.28759949052765449,-0.25919999999999999,-0.093446739098983947),(-0.24464673909898416,-0.25919999999999999,-0.17774626029324384),(-0.17774626029324392,-0.25919999999999999,-0.24464673909898407),(-0.093446739098984141,-0.25919999999999999,-0.28759949052765443),(-5.5549978809323944E-17,-0.25919999999999999,-0.3024),(0.093446739098984044,-0.25919999999999999,-0.28759949052765449),(0.17774626029324381,-0.25919999999999999,-0.24464673909898416),(0.24464673909898407,-0.25919999999999999,-0.17774626029324395),(0.28759949052765443,-0.25919999999999999,-0.093446739098984155),(0.3024,0.25919999999999999,0.),(0.28759949052765443,0.25919999999999999,0.0934467390989841),(0.2446467390989841,0.25919999999999999,0.17774626029324389),(0.17774626029324389,0.25919999999999999,0.2446467390989841),(0.093446739098984113,0.25919999999999999,0.28759949052765443),(1.8516659603107981E-17,0.25919999999999999,0.3024),(-0.093446739098984072,0.25919999999999999,0.28759949052765449),(-0.17774626029324384,0.25919999999999999,0.2446467390989841),(-0.24464673909898407,0.25919999999999999,0.17774626029324392),(-0.28759949052765443,0.25919999999999999,0.093446739098984127),(-0.3024,0.25919999999999999,3.7033319206215963E-17),(-0.28759949052765449,0.25919999999999999,-0.093446739098983947),(-0.24464673909898416,0.25919999999999999,-0.17774626029324384),(-0.17774626029324392,0.25919999999999999,-0.24464673909898407),(-0.093446739098984141,0.25919999999999999,-0.28759949052765443),(-5.5549978809323944E-17,0.25919999999999999,-0.3024),(0.093446739098984044,0.25919999999999999,-0.28759949052765449),(0.17774626029324381,0.25919999999999999,-0.24464673909898416),(0.24464673909898407,0.25919999999999999,-0.17774626029324395),(0.28759949052765443,0.25919999999999999,-0.093446739098984155),(0.086399999999999991,-0.35999999999999999,0.),(0.082171283007901261,-0.35999999999999999,0.026699068313995451),(0.069899068313995449,-0.35999999999999999,0.050784645798069676),(0.050784645798069676,-0.35999999999999999,0.069899068313995449),(0.026699068313995458,-0.35999999999999999,0.082171283007901261),(5.2904741723165652E-18,-0.35999999999999999,0.086399999999999991),(-0.026699068313995447,-0.35999999999999999,0.082171283007901261),(-0.050784645798069662,-0.35999999999999999,0.069899068313995449),(-0.069899068313995449,-0.35999999999999999,0.050784645798069683),(-0.082171283007901261,-0.35999999999999999,0.026699068313995461),(-0.086399999999999991,-0.35999999999999999,1.058094834463313E-17),(-0.082171283007901275,-0.35999999999999999,-0.026699068313995409),(-0.069899068313995463,-0.35999999999999999,-0.050784645798069662),(-0.050784645798069683,-0.35999999999999999,-0.069899068313995449),(-0.026699068313995468,-0.35999999999999999,-0.082171283007901261),(-1.5871422516949696E-17,-0.35999999999999999,-0.086399999999999991),(0.026699068313995437,-0.35999999999999999,-0.082171283007901261),(0.050784645798069655,-0.35999999999999999,-0.069899068313995463),(0.069899068313995449,-0.35999999999999999,-0.05078464579806969),(0.082171283007901261,-0.35999999999999999,-0.026699068313995471),(0.086399999999999991,0.35999999999999999,0.),(0.082171283007901261,0.35999999999999999,0.026699068313995451),(0.069899068313995449,0.35999999999999999,0.050784645798069676),(0.050784645798069676,0.35999999999999999,0.069899068313995449),(0.026699068313995458,0.35999999999999999,0.082171283007901261),(5.2904741723165652E-18,0.35999999999999999,0.086399999999999991),(-0.026699068313995447,0.35999999999999999,0.082171283007901261),(-0.050784645798069662,0.35999999999999999,0.069899068313995449),(-0.069899068313995449,0.35999999999999999,0.050784645798069683),(-0.082171283007901261,0.35999999999999999,0.026699068313995461),(-0.086399999999999991,0.35999999999999999,1.058094834463313E-17),(-0.082171283007901275,0.35999999999999999,-0.026699068313995409),(-0.069899068313995463,0.35999999999999999,-0.050784645798069662),(-0.050784645798069683,0.35999999999999999,-0.069899068313995449),(-0.026699068313995468,0.35999999999999999,-0.082171283007901261),(-1.5871422516949696E-17,0.35999999999999999,-0.086399999999999991),(0.026699068313995437,0.35999999999999999,-0.082171283007901261),(0.050784645798069655,0.35999999999999999,-0.069899068313995463),(0.069899068313995449,0.35999999999999999,-0.05078464579806969),(0.082171283007901261,0.35999999999999999,-0.026699068313995471),(0.089999999999999983,-0.1152,0.24480000000000002),(0.085595086466563802,-0.1152,0.27261152949374529),(0.072811529493745253,-0.1152,0.29770067270632261),(0.052900672706322573,-0.1152,0.31761152949374527),(0.027811529493745265,-0.1152,0.33039508646656379),(5.510910596163088E-18,-0.1152,0.33479999999999999),(-0.027811529493745255,-0.1152,0.33039508646656385),(-0.052900672706322566,-0.1152,0.31761152949374527),(-0.072811529493745253,-0.1152,0.29770067270632261),(-0.085595086466563802,-0.1152,0.27261152949374529),(-0.089999999999999983,-0.1152,0.24480000000000002),(-0.085595086466563816,-0.1152,0.2169884705062548),(-0.072811529493745267,-0.1152,0.19189932729367745),(-0.05290067270632258,-0.1152,0.17198847050625476),(-0.027811529493745275,-0.1152,0.15920491353343622),(-1.6532731788489263E-17,-0.1152,0.15480000000000005),(0.027811529493745244,-0.1152,0.15920491353343619),(0.052900672706322552,-0.1152,0.17198847050625476),(0.072811529493745253,-0.1152,0.19189932729367742),(0.085595086466563802,-0.1152,0.21698847050625475),(0.089999999999999983,0.1152,0.24480000000000002),(0.085595086466563802,0.1152,0.27261152949374529),(0.072811529493745253,0.1152,0.29770067270632261),(0.052900672706322573,0.1152,0.31761152949374527),(0.027811529493745265,0.1152,0.33039508646656379),(5.510910596163088E-18,0.1152,0.33479999999999999),(-0.027811529493745255,0.1152,0.33039508646656385),(-0.052900672706322566,0.1152,0.31761152949374527),(-0.072811529493745253,0.1152,0.29770067270632261),(-0.085595086466563802,0.1152,0.27261152949374529),(-0.089999999999999983,0.1152,0.24480000000000002),(-0.085595086466563816,0.1152,0.2169884705062548),(-0.072811529493745267,0.1152,0.19189932729367745),(-0.05290067270632258,0.1152,0.17198847050625476),(-0.027811529493745275,0.1152,0.15920491353343622),(-1.6532731788489263E-17,0.1152,0.15480000000000005),(0.027811529493745244,0.1152,0.15920491353343619),(0.052900672706322552,0.1152,0.17198847050625476),(0.072811529493745253,0.1152,0.19189932729367742),(0.085595086466563802,0.1152,0.21698847050625475)),$);
#47=IFCINDEXEDPOLYGONALFACE((20,19,18,17,16,15,14,13,12,11,10,9,8,7,6,5,4,3,2,1));
#48=IFCINDEXEDPOLYGONALFACE((21,22,23,24,25,26,27,28,29,30,31,32,33,34,35,36,37,38,39,40));
#49=IFCINDEXEDPOLYGONALFACE((1,2,22,21));
#50=IFCINDEXEDPOLYGONALFACE((2,3,23,22));
#51=IFCINDEXEDPOLYGONALFACE((3,4,24,23));
#52=IFCINDEXEDPOLYGONALFACE((4,5,25,24));
#53=IFCINDEXEDPOLYGONALFACE((5,6,26,25));
#54=IFCINDEXEDPOLYGONALFACE((6,7,27,26));
#55=IFCINDEXEDPOLYGONALFACE((7,8,28,27));
#56=IFCINDEXEDPOLYGONALFACE((8,9,29,28));
#57=IFCINDEXEDPOLYGONALFACE((9,10,30,29));
#58=IFCINDEXEDPOLYGONALFACE((10,11,31,30));
#59=IFCINDEXEDPOLYGONALFACE((11,12,32,31));
#60=IFCINDEXEDPOLYGONALFACE((12,13,33,32));
#61=IFCINDEXEDPOLYGONALFACE((13,14,34,33));
#62=IFCINDEXEDPOLYGONALFACE((14,15,35,34));
#63=IFCINDEXEDPOLYGONALFACE((15,16,36,35));
#64=IFCINDEXEDPOLYGONALFACE((16,17,37,36));
#65=IFCINDEXEDPOLYGONALFACE((17,18,38,37));
#66=IFCINDEXEDPOLYGONALFACE((18,19,39,38));
#67=IFCINDEXEDPOLYGONALFACE((19,20,40,39));
#68=IFCINDEXEDPOLYGONALFACE((20,1,21,40));
#69=IFCINDEXEDPOLYGONALFACE((60,59,58,57,56,55,54,53,52,51,50,49,48,47,46,45,44,43,42,41));
#70=IFCINDEXEDPOLYGONALFACE((61,62,63,64,65,66,67,68,69,70,71,72,73,74,75,76,77,78,79,80));
#71=IFCINDEXEDPOLYGONALFACE((41,42,62,61));
#72=IFCINDEXEDPOLYGONALFACE((42,43,63,62));
#73=IFCINDEXEDPOLYGONALFACE((43,44,64,63));
#74=IFCINDEXEDPOLYGONALFACE((44,45,65,64));
#75=IFCINDEXEDPOLYGONALFACE((45,46,66,65));
#76=IFCINDEXEDPOLYGONALFACE((46,47,67,66));
#77=IFCINDEXEDPOLYGONALFACE((47,48,68,67));
#78=IFCINDEXEDPOLYGONALFACE((48,49,69,68));
#79=IFCINDEXEDPOLYGONALFACE((49,50,70,69));
#80=IFCINDEXEDPOLYGONALFACE((50,51,71,70));
#81=IFCINDEXEDPOLYGONALFACE((51,52,72,71));
#82=IFCINDEXEDPOLYGONALFACE((52,53,73,72));
#83=IFCINDEXEDPOLYGONALFACE((53,54,74,73));
#84=IFCINDEXEDPOLYGONALFACE((54,55,75,74));
#85=IFCINDEXEDPOLYGONALFACE((55,56,76,75));
#86=IFCINDEXEDPOLYGONALFACE((56,57,77,76));
#87=IFCINDEXEDPOLYGONALFACE((57,58,78,77));
#88=IFCINDEXEDPOLYGONALFACE((58,59,79,78));
#89=IFCINDEXEDPOLYGONALFACE((59,60,80,79));
#90=IFCINDEXEDPOLYGONALFACE((60,41,61,80));
#91=IFCINDEXEDPOLYGONALFACE((100,99,98,97,96,95,94,93,92,91,90,89,88,87,86,85,84,83,82,81));
#92=IFCINDEXEDPOLYGONALFACE((101,102,103,104,105,106,107,108,109,110,111,112,113,114,115,116,117,118,119,120));
#93=IFCINDEXEDPOLYGONALFACE((81,82,102,101));
#94=IFCINDEXEDPOLYGONALFACE((82,83,103,102));
#95=IFCINDEXEDPOLYGONALFACE((83,84,104,103));
#96=IFCINDEXEDPOLYGONALFACE((84,85,105,104));
#97=IFCINDEXEDPOLYGONALFACE((85,86,106,105));
#98=IFCINDEXEDPOLYGONALFACE((86,87,107,106));
#99=IFCINDEXEDPOLYGONALFACE((87,88,108,107));
#100=IFCINDEXEDPOLYGONALFACE((88,89,109,108));
#101=IFCINDEXEDPOLYGONALFACE((89,90,110,109));
#102=IFCINDEXEDPOLYGONALFACE((90,91,111,110));
#103=IFCINDEXEDPOLYGONALFACE((91,92,112,111));
#104=IFCINDEXEDPOLYGONALFACE((92,93,113,112));
#105=IFCINDEXEDPOLYGONALFACE((93,94,114,113));
#106=IFCINDEXEDPOLYGONALFACE((94,95,115,114));
#107=IFCINDEXEDPOLYGONALFACE((95,96,116,115));
#108=IFCINDEXEDPOLYGONALFACE((96,97,117,116));
#109=IFCINDEXEDPOLYGONALFACE((97,98,118,117));
#110=IFCINDEXEDPOLYGONALFACE((98,99,119,118));
#111=IFCINDEXEDPOLYGONALFACE((99,100,120,119));
#112=IFCINDEXEDPOLYGONALFACE((100,81,101,120));
#113=IFCPOLYGONALFACESET(#46,$,(#47,#48,#49,#50,#51,#52,#53,#54,#55,#56,#57,#58,#59,#60,#61,#62,#63,#64,#65,#66,#67,#68,#69,#70,#71,#72,#73,#74,#75,#76,#77,#78,#79,#80,#81,#82,#83,#84,#85,#86,#87,#88,#89,#90,#91,#92,#93,#94,#95,#96,#97,#98,#99,#100,#101,#102,#103,#104,#105,#106,#107,#108,#109,#110,#111,#112),$);
#114=IFCSHAPEREPRESENTATION(#13,'Body','Tessellation',(#113));
#115=IFCPRODUCTDEFINITIONSHAPE($,$,(#114));
#116=IFCBUILDINGELEMENTPROXY('03uy5crMLGQeteVT0eXxoS',$,'single-stage reduction gearbox and flexible coupling','Gearbox mounted on powered bogie axle with supplier coupling.',$,#187,#147,'LM3-TRC-P020',$);
#117=IFCPROPERTYSINGLEVALUE('OSRId',$,IFCTEXT('LM3-TRC-P020'),$);
#118=IFCPROPERTYSINGLEVALUE('Parent',$,IFCTEXT('LM3-TRC-SA615'),$);
#119=IFCPROPERTYSINGLEVALUE('Route',$,IFCTEXT('BID'),$);
#120=IFCPROPERTYSINGLEVALUE('Maturity',$,IFCTEXT('buildable-after-supplier-freeze'),$);
#121=IFCPROPERTYSINGLEVALUE('QuantityPerTrainset',$,IFCINTEGER(6),$);
#122=IFCPROPERTYSINGLEVALUE('Unit',$,IFCTEXT('ea'),$);
#123=IFCPROPERTYSINGLEVALUE('GeometryStatus',$,IFCTEXT('design-reference-not-released'),$);
#124=IFCPROPERTYSET('0wfddO1ibJROzRunTR16W9',$,'OSR_ProductDefinition',$,(#117,#118,#119,#120,#121,#122,#123));
#125=IFCRELDEFINESBYPROPERTIES('3CtF8vGpvLxQzxIzZrvoE3',$,$,$,(#116),#124);
#126=IFCCARTESIANPOINTLIST3D(((-0.38,-0.31,-0.25419999999999998),(-0.38,-0.31,0.25419999999999998),(-0.38,0.31,-0.25419999999999998),(-0.38,0.31,0.25419999999999998),(0.38,-0.31,-0.25419999999999998),(0.38,-0.31,0.25419999999999998),(0.38,0.31,-0.25419999999999998),(0.38,0.31,0.25419999999999998),(-0.31159999999999999,-0.31,-0.29759999999999998),(-0.31159999999999999,-0.31,-0.22319999999999998),(-0.31159999999999999,-0.23560000000000003,-0.29759999999999998),(-0.31159999999999999,-0.23560000000000003,-0.22319999999999998),(0.31159999999999999,-0.31,-0.29759999999999998),(0.31159999999999999,-0.31,-0.22319999999999998),(0.31159999999999999,-0.23560000000000003,-0.29759999999999998),(0.31159999999999999,-0.23560000000000003,-0.22319999999999998),(0.1368,0.2046,-0.049599999999999998),(0.1368,0.2046,0.049599999999999998),(0.1368,0.29139999999999999,-0.049599999999999998),(0.1368,0.29139999999999999,0.049599999999999998),(0.31919999999999998,0.2046,-0.049599999999999998),(0.31919999999999998,0.2046,0.049599999999999998),(0.31919999999999998,0.29139999999999999,-0.049599999999999998),(0.31919999999999998,0.29139999999999999,0.049599999999999998)),$);
#127=IFCINDEXEDPOLYGONALFACE((1,2,4,3));
#128=IFCINDEXEDPOLYGONALFACE((5,7,8,6));
#129=IFCINDEXEDPOLYGONALFACE((1,5,6,2));
#130=IFCINDEXEDPOLYGONALFACE((3,4,8,7));
#131=IFCINDEXEDPOLYGONALFACE((1,3,7,5));
#132=IFCINDEXEDPOLYGONALFACE((2,6,8,4));
#133=IFCINDEXEDPOLYGONALFACE((9,10,12,11));
#134=IFCINDEXEDPOLYGONALFACE((13,15,16,14));
#135=IFCINDEXEDPOLYGONALFACE((9,13,14,10));
#136=IFCINDEXEDPOLYGONALFACE((11,12,16,15));
#137=IFCINDEXEDPOLYGONALFACE((9,11,15,13));
#138=IFCINDEXEDPOLYGONALFACE((10,14,16,12));
#139=IFCINDEXEDPOLYGONALFACE((17,18,20,19));
#140=IFCINDEXEDPOLYGONALFACE((21,23,24,22));
#141=IFCINDEXEDPOLYGONALFACE((17,21,22,18));
#142=IFCINDEXEDPOLYGONALFACE((19,20,24,23));
#143=IFCINDEXEDPOLYGONALFACE((17,19,23,21));
#144=IFCINDEXEDPOLYGONALFACE((18,22,24,20));
#145=IFCPOLYGONALFACESET(#126,$,(#127,#128,#129,#130,#131,#132,#133,#134,#135,#136,#137,#138,#139,#140,#141,#142,#143,#144),$);
#146=IFCSHAPEREPRESENTATION(#13,'Body','Tessellation',(#145));
#147=IFCPRODUCTDEFINITIONSHAPE($,$,(#146));
#148=IFCBUILDINGELEMENTPROXY('2aQQVbafLLOulKh$jYRF3I',$,'powered-bogie motor torque link, anti-rotation stop, and safety lanyard bracket kit','Local fabricated brackets close the motor reaction path into the powered bogie frame.',$,#190,#179,'LM3-BOG-P050',$);
#149=IFCPROPERTYSINGLEVALUE('OSRId',$,IFCTEXT('LM3-BOG-P050'),$);
#150=IFCPROPERTYSINGLEVALUE('Parent',$,IFCTEXT('LM3-TRC-SA615'),$);
#151=IFCPROPERTYSINGLEVALUE('Route',$,IFCTEXT('MAKE'),$);
#152=IFCPROPERTYSINGLEVALUE('Maturity',$,IFCTEXT('release-candidate'),$);
#153=IFCPROPERTYSINGLEVALUE('QuantityPerTrainset',$,IFCINTEGER(3),$);
#154=IFCPROPERTYSINGLEVALUE('Unit',$,IFCTEXT('bogie kit'),$);
#155=IFCPROPERTYSINGLEVALUE('GeometryStatus',$,IFCTEXT('design-reference-not-released'),$);
#156=IFCPROPERTYSET('2_BBeiWY9Tzx4zjRqtXe_m',$,'OSR_ProductDefinition',$,(#149,#150,#151,#152,#153,#154,#155));
#157=IFCRELDEFINESBYPROPERTIES('1Aonen20bQ$uqXzwZ$ZNvW',$,$,$,(#148),#156);
#158=IFCCARTESIANPOINTLIST3D(((-0.69999999999999996,-0.088200000000000001,-0.063),(-0.69999999999999996,-0.088200000000000001,0.063),(-0.69999999999999996,0.088200000000000001,-0.063),(-0.69999999999999996,0.088200000000000001,0.063),(0.69999999999999996,-0.088200000000000001,-0.063),(0.69999999999999996,-0.088200000000000001,0.063),(0.69999999999999996,0.088200000000000001,-0.063),(0.69999999999999996,0.088200000000000001,0.063),(-0.33600000000000002,-0.20999999999999999,-0.048000000000000001),(-0.33600000000000002,-0.20999999999999999,0.048000000000000001),(-0.33600000000000002,0.20999999999999999,-0.048000000000000001),(-0.33600000000000002,0.20999999999999999,0.048000000000000001),(0.33600000000000002,-0.20999999999999999,-0.048000000000000001),(0.33600000000000002,-0.20999999999999999,0.048000000000000001),(0.33600000000000002,0.20999999999999999,-0.048000000000000001),(0.33600000000000002,0.20999999999999999,0.048000000000000001),(-0.126,-0.046200000000000005,-0.14999999999999999),(-0.126,-0.046200000000000005,0.14999999999999999),(-0.126,0.046200000000000005,-0.14999999999999999),(-0.126,0.046200000000000005,0.14999999999999999),(0.126,-0.046200000000000005,-0.14999999999999999),(0.126,-0.046200000000000005,0.14999999999999999),(0.126,0.046200000000000005,-0.14999999999999999),(0.126,0.046200000000000005,0.14999999999999999)),$);
#159=IFCINDEXEDPOLYGONALFACE((1,2,4,3));
#160=IFCINDEXEDPOLYGONALFACE((5,7,8,6));
#161=IFCINDEXEDPOLYGONALFACE((1,5,6,2));
#162=IFCINDEXEDPOLYGONALFACE((3,4,8,7));
#163=IFCINDEXEDPOLYGONALFACE((1,3,7,5));
#164=IFCINDEXEDPOLYGONALFACE((2,6,8,4));
#165=IFCINDEXEDPOLYGONALFACE((9,10,12,11));
#166=IFCINDEXEDPOLYGONALFACE((13,15,16,14));
#167=IFCINDEXEDPOLYGONALFACE((9,13,14,10));
#168=IFCINDEXEDPOLYGONALFACE((11,12,16,15));
#169=IFCINDEXEDPOLYGONALFACE((9,11,15,13));
#170=IFCINDEXEDPOLYGONALFACE((10,14,16,12));
#171=IFCINDEXEDPOLYGONALFACE((17,18,20,19));
#172=IFCINDEXEDPOLYGONALFACE((21,23,24,22));
#173=IFCINDEXEDPOLYGONALFACE((17,21,22,18));
#174=IFCINDEXEDPOLYGONALFACE((19,20,24,23));
#175=IFCINDEXEDPOLYGONALFACE((17,19,23,21));
#176=IFCINDEXEDPOLYGONALFACE((18,22,24,20));
#177=IFCPOLYGONALFACESET(#158,$,(#159,#160,#161,#162,#163,#164,#165,#166,#167,#168,#169,#170,#171,#172,#173,#174,#175,#176),$);
#178=IFCSHAPEREPRESENTATION(#13,'Body','Tessellation',(#177));
#179=IFCPRODUCTDEFINITIONSHAPE($,$,(#178));
#180=IFCRELAGGREGATES('3E7DkVfqvI6gXb_08FcMCS',$,$,$,#28,(#148,#36,#116));
#181=IFCRELCONTAINEDINSPATIALSTRUCTURE('14sjUW5FrJ79GOiZV1J9JI',$,$,$,(#28),#3);
#182=IFCCARTESIANPOINT((0.,0.,0.));
#183=IFCAXIS2PLACEMENT3D(#182,$,$);
#184=IFCLOCALPLACEMENT($,#183);
#185=IFCCARTESIANPOINT((2.2000000000000002,0.,0.));
#186=IFCAXIS2PLACEMENT3D(#185,$,$);
#187=IFCLOCALPLACEMENT($,#186);
#188=IFCCARTESIANPOINT((4.4000000000000004,0.,0.));
#189=IFCAXIS2PLACEMENT3D(#188,$,$);
#190=IFCLOCALPLACEMENT($,#189);
ENDSEC;
END-ISO-10303-21;
