ISO-10303-21;
HEADER;
FILE_DESCRIPTION(('ViewDefinition [CoordinationView]'),'2;1');
FILE_NAME('LM3-LGT-SA350.ifc','2026-08-30T00:00:00+00:00',('OpenSourceRail'),('OpenSourceRail'),'IfcOpenShell 0.8.5','OpenSourceRail deterministic LM3 product-library exporter','design-reference / not for construction');
FILE_SCHEMA(('IFC4X3_ADD2'));
ENDSEC;
DATA;
#1=IFCPROJECT('30Da7scPPSWPCYfNACfyDa',$,'LM3-LGT-SA350 \X2\2014\X0\ modular main, emergency, and doorway lighting installation','Design-reference geometry and assembly hierarchy only; supplier freeze, released drawings/tolerances, calculations, qualified processes and first-article tests remain mandatory.',$,$,$,(#12),#7);
#2=IFCSITE('00EV4AEjLLFeUNQRU4NGXm',$,'LM3 product library',$,$,#18,$,$,.ELEMENT.,$,$,$,$,$);
#3=IFCBUILDING('2Gf$eq9hfHMBWMsxu3lzDN',$,'LM3 assembly inspection fixture',$,$,#21,$,$,.ELEMENT.,$,$,$);
#4=IFCSIUNIT(*,.LENGTHUNIT.,$,.METRE.);
#5=IFCSIUNIT(*,.AREAUNIT.,$,.SQUARE_METRE.);
#6=IFCSIUNIT(*,.VOLUMEUNIT.,$,.CUBIC_METRE.);
#7=IFCUNITASSIGNMENT((#6,#4,#5));
#8=IFCCARTESIANPOINT((0.,0.,0.));
#9=IFCDIRECTION((0.,0.,1.));
#10=IFCDIRECTION((1.,0.,0.));
#11=IFCAXIS2PLACEMENT3D(#8,#9,#10);
#12=IFCGEOMETRICREPRESENTATIONCONTEXT($,'Model',3,1.0000000000000001E-05,#11,$);
#13=IFCGEOMETRICREPRESENTATIONSUBCONTEXT('Body','Model',*,*,*,*,#12,$,.MODEL_VIEW.,$);
#14=IFCRELAGGREGATES('1asTtLrx5OZhxmjrsYfEcC',$,$,$,#1,(#2));
#15=IFCRELAGGREGATES('2g0_knSl9OYvpeHcXwLf0P',$,$,$,#2,(#3));
#16=IFCCARTESIANPOINT((0.,0.,0.));
#17=IFCAXIS2PLACEMENT3D(#16,$,$);
#18=IFCLOCALPLACEMENT($,#17);
#19=IFCCARTESIANPOINT((0.,0.,0.));
#20=IFCAXIS2PLACEMENT3D(#19,$,$);
#21=IFCLOCALPLACEMENT($,#20);
#22=IFCPROPERTYSINGLEVALUE('Status',$,IFCTEXT('design-reference-not-released'),$);
#23=IFCPROPERTYSINGLEVALUE('ReleaseBoundary',$,IFCTEXT('Design-reference geometry and assembly hierarchy only; supplier freeze, released drawings/tolerances, calculations, qualified processes and first-article tests remain mandatory.'),$);
#24=IFCPROPERTYSINGLEVALUE('Manifest',$,IFCTEXT('design/component-catalogue/catalog/buildable-trainset/buildable-trainset-manifest.json'),$);
#25=IFCPROPERTYSINGLEVALUE('ManifestSha256',$,IFCTEXT('7654747909805305ce2018109b5b649c4817a8f8c44a3ec8f2e8a6f74d48243e'),$);
#26=IFCPROPERTYSET('0d3AWTiMTIMuhrlp6vcddD',$,'OSR_ProductLibrary',$,(#22,#23,#24,#25));
#27=IFCRELDEFINESBYPROPERTIES('19KZg0M4nPUwTpAEfY5r5b',$,$,$,(#1),#26);
#28=IFCELEMENTASSEMBLY('3DCiIWWtbLFRP98mEQpGjv',$,'modular main, emergency, and doorway lighting installation','connector key audit | lighting lux map | emergency-feed isolation and duration test | module replacement demonstration',$,$,$,'LM3-LGT-SA350',$,$);
#29=IFCPROPERTYSINGLEVALUE('OSRId',$,IFCTEXT('LM3-LGT-SA350'),$);
#30=IFCPROPERTYSINGLEVALUE('Layer',$,IFCTEXT('subassembly'),$);
#31=IFCPROPERTYSINGLEVALUE('BuildCell',$,IFCTEXT('interior pre-fit and commissioning cell'),$);
#32=IFCPROPERTYSINGLEVALUE('QuantityPerTrainset',$,IFCINTEGER(3),$);
#33=IFCPROPERTYSINGLEVALUE('GeometryStatus',$,IFCTEXT('complete-hierarchy-inspection-layout'),$);
#34=IFCPROPERTYSET('1qWn7EC99Q5e1KxJjY2q0H',$,'OSR_AssemblyDefinition',$,(#29,#30,#31,#32,#33));
#35=IFCRELDEFINESBYPROPERTIES('26yUIwYEnObQSUnJ$$k0od',$,$,$,(#28),#34);
#36=IFCLIGHTFIXTURE('3JQKLua81HKhft9kYCna$M',$,'1.2 m plug-in main LED lighting cassette and captive mounting kit','Twenty-two identical replaceable cassettes per car eliminate field-cut strip, loose terminations, and long fragile light runs.',$,#92,#55,'LM3-LGT-P010',$);
#37=IFCPROPERTYSINGLEVALUE('OSRId',$,IFCTEXT('LM3-LGT-P010'),$);
#38=IFCPROPERTYSINGLEVALUE('Parent',$,IFCTEXT('LM3-LGT-SA350'),$);
#39=IFCPROPERTYSINGLEVALUE('Route',$,IFCTEXT('SOURCE'),$);
#40=IFCPROPERTYSINGLEVALUE('Maturity',$,IFCTEXT('buildable-after-supplier-freeze'),$);
#41=IFCPROPERTYSINGLEVALUE('QuantityPerTrainset',$,IFCINTEGER(66),$);
#42=IFCPROPERTYSINGLEVALUE('Unit',$,IFCTEXT('module'),$);
#43=IFCPROPERTYSINGLEVALUE('GeometryStatus',$,IFCTEXT('design-reference-not-released'),$);
#44=IFCPROPERTYSET('2Zi9_6EFvSCQWEZOIg2usD',$,'OSR_ProductDefinition',$,(#37,#38,#39,#40,#41,#42,#43));
#45=IFCRELDEFINESBYPROPERTIES('3lbWVkFqPILg6zzvirFPO$',$,$,$,(#36),#44);
#46=IFCCARTESIANPOINTLIST3D(((-0.59999999999999998,-0.047500000000000001,-0.022499999999999999),(-0.59999999999999998,-0.047500000000000001,0.022499999999999999),(-0.59999999999999998,0.047500000000000001,-0.022499999999999999),(-0.59999999999999998,0.047500000000000001,0.022499999999999999),(0.59999999999999998,-0.047500000000000001,-0.022499999999999999),(0.59999999999999998,-0.047500000000000001,0.022499999999999999),(0.59999999999999998,0.047500000000000001,-0.022499999999999999),(0.59999999999999998,0.047500000000000001,0.022499999999999999)),$);
#47=IFCINDEXEDPOLYGONALFACE((1,2,4,3));
#48=IFCINDEXEDPOLYGONALFACE((5,7,8,6));
#49=IFCINDEXEDPOLYGONALFACE((1,5,6,2));
#50=IFCINDEXEDPOLYGONALFACE((3,4,8,7));
#51=IFCINDEXEDPOLYGONALFACE((1,3,7,5));
#52=IFCINDEXEDPOLYGONALFACE((2,6,8,4));
#53=IFCPOLYGONALFACESET(#46,$,(#47,#48,#49,#50,#51,#52),$);
#54=IFCSHAPEREPRESENTATION(#13,'Body','Tessellation',(#53));
#55=IFCPRODUCTDEFINITIONSHAPE($,$,(#54));
#56=IFCLIGHTFIXTURE('036JNB21LO3Brv_i$e74kr',$,'emergency and doorway lighting modules with independent keyed feeder kit','Independent-feed emergency and doorway modules share service-rail mechanics but cannot be cross-connected to the main-light feed.',$,#95,#87,'LM3-LGT-P020',$);
#57=IFCPROPERTYSINGLEVALUE('OSRId',$,IFCTEXT('LM3-LGT-P020'),$);
#58=IFCPROPERTYSINGLEVALUE('Parent',$,IFCTEXT('LM3-LGT-SA350'),$);
#59=IFCPROPERTYSINGLEVALUE('Route',$,IFCTEXT('BID'),$);
#60=IFCPROPERTYSINGLEVALUE('Maturity',$,IFCTEXT('buildable-after-supplier-freeze'),$);
#61=IFCPROPERTYSINGLEVALUE('QuantityPerTrainset',$,IFCINTEGER(3),$);
#62=IFCPROPERTYSINGLEVALUE('Unit',$,IFCTEXT('car kit'),$);
#63=IFCPROPERTYSINGLEVALUE('GeometryStatus',$,IFCTEXT('design-reference-not-released'),$);
#64=IFCPROPERTYSET('0UIERBk11GZQoiM0UuaJFf',$,'OSR_ProductDefinition',$,(#57,#58,#59,#60,#61,#62,#63));
#65=IFCRELDEFINESBYPROPERTIES('3oH705Fd5JmeupGYDDy6EF',$,$,$,(#56),#64);
#66=IFCCARTESIANPOINTLIST3D(((-0.45000000000000001,-0.17999999999999999,-0.049199999999999994),(-0.45000000000000001,-0.17999999999999999,0.049199999999999994),(-0.45000000000000001,0.17999999999999999,-0.049199999999999994),(-0.45000000000000001,0.17999999999999999,0.049199999999999994),(0.45000000000000001,-0.17999999999999999,-0.049199999999999994),(0.45000000000000001,-0.17999999999999999,0.049199999999999994),(0.45000000000000001,0.17999999999999999,-0.049199999999999994),(0.45000000000000001,0.17999999999999999,0.049199999999999994),(-0.36899999999999999,-0.17999999999999999,-0.057599999999999991),(-0.36899999999999999,-0.17999999999999999,-0.043200000000000002),(-0.36899999999999999,-0.1368,-0.057599999999999991),(-0.36899999999999999,-0.1368,-0.043200000000000002),(0.36899999999999999,-0.17999999999999999,-0.057599999999999991),(0.36899999999999999,-0.17999999999999999,-0.043200000000000002),(0.36899999999999999,-0.1368,-0.057599999999999991),(0.36899999999999999,-0.1368,-0.043200000000000002),(0.16200000000000001,0.1188,-0.0095999999999999992),(0.16200000000000001,0.1188,0.0095999999999999992),(0.16200000000000001,0.16919999999999999,-0.0095999999999999992),(0.16200000000000001,0.16919999999999999,0.0095999999999999992),(0.378,0.1188,-0.0095999999999999992),(0.378,0.1188,0.0095999999999999992),(0.378,0.16919999999999999,-0.0095999999999999992),(0.378,0.16919999999999999,0.0095999999999999992)),$);
#67=IFCINDEXEDPOLYGONALFACE((1,2,4,3));
#68=IFCINDEXEDPOLYGONALFACE((5,7,8,6));
#69=IFCINDEXEDPOLYGONALFACE((1,5,6,2));
#70=IFCINDEXEDPOLYGONALFACE((3,4,8,7));
#71=IFCINDEXEDPOLYGONALFACE((1,3,7,5));
#72=IFCINDEXEDPOLYGONALFACE((2,6,8,4));
#73=IFCINDEXEDPOLYGONALFACE((9,10,12,11));
#74=IFCINDEXEDPOLYGONALFACE((13,15,16,14));
#75=IFCINDEXEDPOLYGONALFACE((9,13,14,10));
#76=IFCINDEXEDPOLYGONALFACE((11,12,16,15));
#77=IFCINDEXEDPOLYGONALFACE((9,11,15,13));
#78=IFCINDEXEDPOLYGONALFACE((10,14,16,12));
#79=IFCINDEXEDPOLYGONALFACE((17,18,20,19));
#80=IFCINDEXEDPOLYGONALFACE((21,23,24,22));
#81=IFCINDEXEDPOLYGONALFACE((17,21,22,18));
#82=IFCINDEXEDPOLYGONALFACE((19,20,24,23));
#83=IFCINDEXEDPOLYGONALFACE((17,19,23,21));
#84=IFCINDEXEDPOLYGONALFACE((18,22,24,20));
#85=IFCPOLYGONALFACESET(#66,$,(#67,#68,#69,#70,#71,#72,#73,#74,#75,#76,#77,#78,#79,#80,#81,#82,#83,#84),$);
#86=IFCSHAPEREPRESENTATION(#13,'Body','Tessellation',(#85));
#87=IFCPRODUCTDEFINITIONSHAPE($,$,(#86));
#88=IFCRELAGGREGATES('1y$ws5Sc5P$gqy0N5qr2av',$,$,$,#28,(#36,#56));
#89=IFCRELCONTAINEDINSPATIALSTRUCTURE('3DIb_2L89OC8NULUoibxHF',$,$,$,(#28),#3);
#90=IFCCARTESIANPOINT((0.,0.,0.));
#91=IFCAXIS2PLACEMENT3D(#90,$,$);
#92=IFCLOCALPLACEMENT($,#91);
#93=IFCCARTESIANPOINT((2.,0.,0.));
#94=IFCAXIS2PLACEMENT3D(#93,$,$);
#95=IFCLOCALPLACEMENT($,#94);
ENDSEC;
END-ISO-10303-21;
