ISO-10303-21;
HEADER;
FILE_DESCRIPTION(('ViewDefinition [CoordinationView]'),'2;1');
FILE_NAME('LM3-ROOF-SA410.ifc','2026-08-30T00:00:00+00:00',('OpenSourceRail'),('OpenSourceRail'),'IfcOpenShell 0.8.5','OpenSourceRail deterministic LM3 product-library exporter','design-reference / not for construction');
FILE_SCHEMA(('IFC4X3_ADD2'));
ENDSEC;
DATA;
#1=IFCPROJECT('0hM9D0Qw1ROfWaAvhpwC_Q',$,'LM3-ROOF-SA410 \X2\2014\X0\ roof HVAC, PV, antenna, and service-equipment assembly','Design-reference geometry and assembly hierarchy only; supplier freeze, released drawings/tolerances, calculations, qualified processes and first-article tests remain mandatory.',$,$,$,(#12),#7);
#2=IFCSITE('1Ss8eKOxvVpgjKRo4gLQyI',$,'LM3 product library',$,$,#18,$,$,.ELEMENT.,$,$,$,$,$);
#3=IFCBUILDING('3mo9QcFS9Jd8geWW0zfkiT',$,'LM3 assembly inspection fixture',$,$,#21,$,$,.ELEMENT.,$,$,$);
#4=IFCSIUNIT(*,.LENGTHUNIT.,$,.METRE.);
#5=IFCSIUNIT(*,.AREAUNIT.,$,.SQUARE_METRE.);
#6=IFCSIUNIT(*,.VOLUMEUNIT.,$,.CUBIC_METRE.);
#7=IFCUNITASSIGNMENT((#6,#4,#5));
#8=IFCCARTESIANPOINT((0.,0.,0.));
#9=IFCDIRECTION((0.,0.,1.));
#10=IFCDIRECTION((1.,0.,0.));
#11=IFCAXIS2PLACEMENT3D(#8,#9,#10);
#12=IFCGEOMETRICREPRESENTATIONCONTEXT($,'Model',3,1.0000000000000001E-05,#11,$);
#13=IFCGEOMETRICREPRESENTATIONSUBCONTEXT('Body','Model',*,*,*,*,#12,$,.MODEL_VIEW.,$);
#14=IFCRELAGGREGATES('1zWpP6WaHK8B23LKrvPEFH',$,$,$,#1,(#2));
#15=IFCRELAGGREGATES('3Egc43DBfOFxoc$ojliyaq',$,$,$,#2,(#3));
#16=IFCCARTESIANPOINT((0.,0.,0.));
#17=IFCAXIS2PLACEMENT3D(#16,$,$);
#18=IFCLOCALPLACEMENT($,#17);
#19=IFCCARTESIANPOINT((0.,0.,0.));
#20=IFCAXIS2PLACEMENT3D(#19,$,$);
#21=IFCLOCALPLACEMENT($,#20);
#22=IFCPROPERTYSINGLEVALUE('Status',$,IFCTEXT('design-reference-not-released'),$);
#23=IFCPROPERTYSINGLEVALUE('ReleaseBoundary',$,IFCTEXT('Design-reference geometry and assembly hierarchy only; supplier freeze, released drawings/tolerances, calculations, qualified processes and first-article tests remain mandatory.'),$);
#24=IFCPROPERTYSINGLEVALUE('Manifest',$,IFCTEXT('design/component-catalogue/catalog/buildable-trainset/buildable-trainset-manifest.json'),$);
#25=IFCPROPERTYSINGLEVALUE('ManifestSha256',$,IFCTEXT('7654747909805305ce2018109b5b649c4817a8f8c44a3ec8f2e8a6f74d48243e'),$);
#26=IFCPROPERTYSET('0WVqoNeNfSYunG_NBJCyZJ',$,'OSR_ProductLibrary',$,(#22,#23,#24,#25));
#27=IFCRELDEFINESBYPROPERTIES('2kOvWo1LfUiRqlgqS4SR8s',$,$,$,(#1),#26);
#28=IFCELEMENTASSEMBLY('050RvvCEjI8wiwv73zZLba',$,'roof HVAC, PV, antenna, and service-equipment assembly','roof leak test | HVAC drain test | PV isolation/bonding check',$,$,$,'LM3-ROOF-SA410',$,$);
#29=IFCPROPERTYSINGLEVALUE('OSRId',$,IFCTEXT('LM3-ROOF-SA410'),$);
#30=IFCPROPERTYSINGLEVALUE('Layer',$,IFCTEXT('subassembly'),$);
#31=IFCPROPERTYSINGLEVALUE('BuildCell',$,IFCTEXT('final assembly and commissioning cell'),$);
#32=IFCPROPERTYSINGLEVALUE('QuantityPerTrainset',$,IFCINTEGER(3),$);
#33=IFCPROPERTYSINGLEVALUE('GeometryStatus',$,IFCTEXT('complete-hierarchy-inspection-layout'),$);
#34=IFCPROPERTYSET('0voKQsHqjSJhqDagtnqYBF',$,'OSR_AssemblyDefinition',$,(#29,#30,#31,#32,#33));
#35=IFCRELDEFINESBYPROPERTIES('1R51j5$KLN5Aw0wM7mNtNV',$,$,$,(#28),#34);
#36=IFCBUILDINGELEMENTPROXY('37jtJLlAPSeAGqAamsS1yS',$,'roof bow, HVAC rail, PV rail, and cable-tray bracket kit','Roof datum kit for HVAC, PV, antennas, service walkways, and ducts.',$,#282,#79,'LM3-BDY-P080',$);
#37=IFCPROPERTYSINGLEVALUE('OSRId',$,IFCTEXT('LM3-BDY-P080'),$);
#38=IFCPROPERTYSINGLEVALUE('Parent',$,IFCTEXT('LM3-ROOF-SA410'),$);
#39=IFCPROPERTYSINGLEVALUE('Route',$,IFCTEXT('MAKE'),$);
#40=IFCPROPERTYSINGLEVALUE('Maturity',$,IFCTEXT('release-candidate'),$);
#41=IFCPROPERTYSINGLEVALUE('QuantityPerTrainset',$,IFCINTEGER(3),$);
#42=IFCPROPERTYSINGLEVALUE('Unit',$,IFCTEXT('kit'),$);
#43=IFCPROPERTYSINGLEVALUE('GeometryStatus',$,IFCTEXT('design-reference-not-released'),$);
#44=IFCPROPERTYSET('3AFOeoHr1GkQVy4pQwxIyV',$,'OSR_ProductDefinition',$,(#37,#38,#39,#40,#41,#42,#43));
#45=IFCRELDEFINESBYPROPERTIES('3ruSRB74XH8wSNhzTzUKeq',$,$,$,(#36),#44);
#46=IFCCARTESIANPOINTLIST3D(((-7.7999999999999998,-0.92500000000000004,-0.043199999999999995),(-7.7999999999999998,-0.92500000000000004,0.043199999999999995),(-7.7999999999999998,-0.67500000000000004,-0.043199999999999995),(-7.7999999999999998,-0.67500000000000004,0.043199999999999995),(7.7999999999999998,-0.92500000000000004,-0.043199999999999995),(7.7999999999999998,-0.92500000000000004,0.043199999999999995),(7.7999999999999998,-0.67500000000000004,-0.043199999999999995),(7.7999999999999998,-0.67500000000000004,0.043199999999999995),(-7.7999999999999998,0.67500000000000004,-0.043199999999999995),(-7.7999999999999998,0.67500000000000004,0.043199999999999995),(-7.7999999999999998,0.92500000000000004,-0.043199999999999995),(-7.7999999999999998,0.92500000000000004,0.043199999999999995),(7.7999999999999998,0.67500000000000004,-0.043199999999999995),(7.7999999999999998,0.67500000000000004,0.043199999999999995),(7.7999999999999998,0.92500000000000004,-0.043199999999999995),(7.7999999999999998,0.92500000000000004,0.043199999999999995),(-5.6550000000000002,-1.,-0.053999999999999999),(-5.6550000000000002,-1.,0.053999999999999999),(-5.6550000000000002,1.,-0.053999999999999999),(-5.6550000000000002,1.,0.053999999999999999),(-5.2649999999999997,-1.,-0.053999999999999999),(-5.2649999999999997,-1.,0.053999999999999999),(-5.2649999999999997,1.,-0.053999999999999999),(-5.2649999999999997,1.,0.053999999999999999),(-0.19500000000000001,-1.,-0.053999999999999999),(-0.19500000000000001,-1.,0.053999999999999999),(-0.19500000000000001,1.,-0.053999999999999999),(-0.19500000000000001,1.,0.053999999999999999),(0.19500000000000001,-1.,-0.053999999999999999),(0.19500000000000001,-1.,0.053999999999999999),(0.19500000000000001,1.,-0.053999999999999999),(0.19500000000000001,1.,0.053999999999999999),(5.2649999999999997,-1.,-0.053999999999999999),(5.2649999999999997,-1.,0.053999999999999999),(5.2649999999999997,1.,-0.053999999999999999),(5.2649999999999997,1.,0.053999999999999999),(5.6550000000000002,-1.,-0.053999999999999999),(5.6550000000000002,-1.,0.053999999999999999),(5.6550000000000002,1.,-0.053999999999999999),(5.6550000000000002,1.,0.053999999999999999)),$);
#47=IFCINDEXEDPOLYGONALFACE((1,2,4,3));
#48=IFCINDEXEDPOLYGONALFACE((5,7,8,6));
#49=IFCINDEXEDPOLYGONALFACE((1,5,6,2));
#50=IFCINDEXEDPOLYGONALFACE((3,4,8,7));
#51=IFCINDEXEDPOLYGONALFACE((1,3,7,5));
#52=IFCINDEXEDPOLYGONALFACE((2,6,8,4));
#53=IFCINDEXEDPOLYGONALFACE((9,10,12,11));
#54=IFCINDEXEDPOLYGONALFACE((13,15,16,14));
#55=IFCINDEXEDPOLYGONALFACE((9,13,14,10));
#56=IFCINDEXEDPOLYGONALFACE((11,12,16,15));
#57=IFCINDEXEDPOLYGONALFACE((9,11,15,13));
#58=IFCINDEXEDPOLYGONALFACE((10,14,16,12));
#59=IFCINDEXEDPOLYGONALFACE((17,18,20,19));
#60=IFCINDEXEDPOLYGONALFACE((21,23,24,22));
#61=IFCINDEXEDPOLYGONALFACE((17,21,22,18));
#62=IFCINDEXEDPOLYGONALFACE((19,20,24,23));
#63=IFCINDEXEDPOLYGONALFACE((17,19,23,21));
#64=IFCINDEXEDPOLYGONALFACE((18,22,24,20));
#65=IFCINDEXEDPOLYGONALFACE((25,26,28,27));
#66=IFCINDEXEDPOLYGONALFACE((29,31,32,30));
#67=IFCINDEXEDPOLYGONALFACE((25,29,30,26));
#68=IFCINDEXEDPOLYGONALFACE((27,28,32,31));
#69=IFCINDEXEDPOLYGONALFACE((25,27,31,29));
#70=IFCINDEXEDPOLYGONALFACE((26,30,32,28));
#71=IFCINDEXEDPOLYGONALFACE((33,34,36,35));
#72=IFCINDEXEDPOLYGONALFACE((37,39,40,38));
#73=IFCINDEXEDPOLYGONALFACE((33,37,38,34));
#74=IFCINDEXEDPOLYGONALFACE((35,36,40,39));
#75=IFCINDEXEDPOLYGONALFACE((33,35,39,37));
#76=IFCINDEXEDPOLYGONALFACE((34,38,40,36));
#77=IFCPOLYGONALFACESET(#46,$,(#47,#48,#49,#50,#51,#52,#53,#54,#55,#56,#57,#58,#59,#60,#61,#62,#63,#64,#65,#66,#67,#68,#69,#70,#71,#72,#73,#74,#75,#76),$);
#78=IFCSHAPEREPRESENTATION(#13,'Body','Tessellation',(#77));
#79=IFCPRODUCTDEFINITIONSHAPE($,$,(#78));
#80=IFCBUILDINGELEMENTPROXY('3FNn5d0F1PEQRAGsUMbh0W',$,'HVAC curb, drop-duct collar, condensate tray, and drain fitting kit','Bolted/gasketed roof opening and drain tray that decouples final HVAC supplier choice from primary roof steel.',$,#285,#111,'LM3-ROOF-P010',$);
#81=IFCPROPERTYSINGLEVALUE('OSRId',$,IFCTEXT('LM3-ROOF-P010'),$);
#82=IFCPROPERTYSINGLEVALUE('Parent',$,IFCTEXT('LM3-ROOF-SA410'),$);
#83=IFCPROPERTYSINGLEVALUE('Route',$,IFCTEXT('MAKE'),$);
#84=IFCPROPERTYSINGLEVALUE('Maturity',$,IFCTEXT('release-candidate'),$);
#85=IFCPROPERTYSINGLEVALUE('QuantityPerTrainset',$,IFCINTEGER(3),$);
#86=IFCPROPERTYSINGLEVALUE('Unit',$,IFCTEXT('kit'),$);
#87=IFCPROPERTYSINGLEVALUE('GeometryStatus',$,IFCTEXT('design-reference-not-released'),$);
#88=IFCPROPERTYSET('1k7gnQtxfVbPFID0hBsxiX',$,'OSR_ProductDefinition',$,(#81,#82,#83,#84,#85,#86,#87));
#89=IFCRELDEFINESBYPROPERTIES('0tshaUBkTGNA9tCiFHMXwq',$,$,$,(#80),#88);
#90=IFCCARTESIANPOINTLIST3D(((-1.3999999999999999,-0.378,-0.088200000000000001),(-1.3999999999999999,-0.378,0.088200000000000001),(-1.3999999999999999,0.378,-0.088200000000000001),(-1.3999999999999999,0.378,0.088200000000000001),(1.3999999999999999,-0.378,-0.088200000000000001),(1.3999999999999999,-0.378,0.088200000000000001),(1.3999999999999999,0.378,-0.088200000000000001),(1.3999999999999999,0.378,0.088200000000000001),(-0.67200000000000004,-0.90000000000000002,-0.06720000000000001),(-0.67200000000000004,-0.90000000000000002,0.06720000000000001),(-0.67200000000000004,0.90000000000000002,-0.06720000000000001),(-0.67200000000000004,0.90000000000000002,0.06720000000000001),(0.67200000000000004,-0.90000000000000002,-0.06720000000000001),(0.67200000000000004,-0.90000000000000002,0.06720000000000001),(0.67200000000000004,0.90000000000000002,-0.06720000000000001),(0.67200000000000004,0.90000000000000002,0.06720000000000001),(-0.252,-0.19800000000000001,-0.20999999999999999),(-0.252,-0.19800000000000001,0.20999999999999999),(-0.252,0.19800000000000001,-0.20999999999999999),(-0.252,0.19800000000000001,0.20999999999999999),(0.252,-0.19800000000000001,-0.20999999999999999),(0.252,-0.19800000000000001,0.20999999999999999),(0.252,0.19800000000000001,-0.20999999999999999),(0.252,0.19800000000000001,0.20999999999999999)),$);
#91=IFCINDEXEDPOLYGONALFACE((1,2,4,3));
#92=IFCINDEXEDPOLYGONALFACE((5,7,8,6));
#93=IFCINDEXEDPOLYGONALFACE((1,5,6,2));
#94=IFCINDEXEDPOLYGONALFACE((3,4,8,7));
#95=IFCINDEXEDPOLYGONALFACE((1,3,7,5));
#96=IFCINDEXEDPOLYGONALFACE((2,6,8,4));
#97=IFCINDEXEDPOLYGONALFACE((9,10,12,11));
#98=IFCINDEXEDPOLYGONALFACE((13,15,16,14));
#99=IFCINDEXEDPOLYGONALFACE((9,13,14,10));
#100=IFCINDEXEDPOLYGONALFACE((11,12,16,15));
#101=IFCINDEXEDPOLYGONALFACE((9,11,15,13));
#102=IFCINDEXEDPOLYGONALFACE((10,14,16,12));
#103=IFCINDEXEDPOLYGONALFACE((17,18,20,19));
#104=IFCINDEXEDPOLYGONALFACE((21,23,24,22));
#105=IFCINDEXEDPOLYGONALFACE((17,21,22,18));
#106=IFCINDEXEDPOLYGONALFACE((19,20,24,23));
#107=IFCINDEXEDPOLYGONALFACE((17,19,23,21));
#108=IFCINDEXEDPOLYGONALFACE((18,22,24,20));
#109=IFCPOLYGONALFACESET(#90,$,(#91,#92,#93,#94,#95,#96,#97,#98,#99,#100,#101,#102,#103,#104,#105,#106,#107,#108),$);
#110=IFCSHAPEREPRESENTATION(#13,'Body','Tessellation',(#109));
#111=IFCPRODUCTDEFINITIONSHAPE($,$,(#110));
#112=IFCBUILDINGELEMENTPROXY('3tyNFoB4rG0ftya_2$fB3X',$,'PV bonded-pad lands, raised rail kit, bonding jumpers, and roof isolation labels','Mixed flexible/rigid PV mounting datum with accessible clamps and electrical bonding points.',$,#288,#155,'LM3-ROOF-P020',$);
#113=IFCPROPERTYSINGLEVALUE('OSRId',$,IFCTEXT('LM3-ROOF-P020'),$);
#114=IFCPROPERTYSINGLEVALUE('Parent',$,IFCTEXT('LM3-ROOF-SA410'),$);
#115=IFCPROPERTYSINGLEVALUE('Route',$,IFCTEXT('MAKE'),$);
#116=IFCPROPERTYSINGLEVALUE('Maturity',$,IFCTEXT('release-candidate'),$);
#117=IFCPROPERTYSINGLEVALUE('QuantityPerTrainset',$,IFCINTEGER(3),$);
#118=IFCPROPERTYSINGLEVALUE('Unit',$,IFCTEXT('car kit'),$);
#119=IFCPROPERTYSINGLEVALUE('GeometryStatus',$,IFCTEXT('design-reference-not-released'),$);
#120=IFCPROPERTYSET('2$5gFfVArPruCPolgjhppr',$,'OSR_ProductDefinition',$,(#113,#114,#115,#116,#117,#118,#119));
#121=IFCRELDEFINESBYPROPERTIES('3I9__JHhLIkf9V3YC6D2Z5',$,$,$,(#112),#120);
#122=IFCCARTESIANPOINTLIST3D(((-7.,-0.85099999999999998,-0.016800000000000002),(-7.,-0.85099999999999998,0.016800000000000002),(-7.,-0.621,-0.016800000000000002),(-7.,-0.621,0.016800000000000002),(7.,-0.85099999999999998,-0.016800000000000002),(7.,-0.85099999999999998,0.016800000000000002),(7.,-0.621,-0.016800000000000002),(7.,-0.621,0.016800000000000002),(-7.,0.621,-0.016800000000000002),(-7.,0.621,0.016800000000000002),(-7.,0.85099999999999998,-0.016800000000000002),(-7.,0.85099999999999998,0.016800000000000002),(7.,0.621,-0.016800000000000002),(7.,0.621,0.016800000000000002),(7.,0.85099999999999998,-0.016800000000000002),(7.,0.85099999999999998,0.016800000000000002),(-5.0750000000000002,-0.92000000000000004,-0.021000000000000001),(-5.0750000000000002,-0.92000000000000004,0.021000000000000001),(-5.0750000000000002,0.92000000000000004,-0.021000000000000001),(-5.0750000000000002,0.92000000000000004,0.021000000000000001),(-4.7249999999999996,-0.92000000000000004,-0.021000000000000001),(-4.7249999999999996,-0.92000000000000004,0.021000000000000001),(-4.7249999999999996,0.92000000000000004,-0.021000000000000001),(-4.7249999999999996,0.92000000000000004,0.021000000000000001),(-0.17499999999999999,-0.92000000000000004,-0.021000000000000001),(-0.17499999999999999,-0.92000000000000004,0.021000000000000001),(-0.17499999999999999,0.92000000000000004,-0.021000000000000001),(-0.17499999999999999,0.92000000000000004,0.021000000000000001),(0.17499999999999999,-0.92000000000000004,-0.021000000000000001),(0.17499999999999999,-0.92000000000000004,0.021000000000000001),(0.17499999999999999,0.92000000000000004,-0.021000000000000001),(0.17499999999999999,0.92000000000000004,0.021000000000000001),(4.7249999999999996,-0.92000000000000004,-0.021000000000000001),(4.7249999999999996,-0.92000000000000004,0.021000000000000001),(4.7249999999999996,0.92000000000000004,-0.021000000000000001),(4.7249999999999996,0.92000000000000004,0.021000000000000001),(5.0750000000000002,-0.92000000000000004,-0.021000000000000001),(5.0750000000000002,-0.92000000000000004,0.021000000000000001),(5.0750000000000002,0.92000000000000004,-0.021000000000000001),(5.0750000000000002,0.92000000000000004,0.021000000000000001)),$);
#123=IFCINDEXEDPOLYGONALFACE((1,2,4,3));
#124=IFCINDEXEDPOLYGONALFACE((5,7,8,6));
#125=IFCINDEXEDPOLYGONALFACE((1,5,6,2));
#126=IFCINDEXEDPOLYGONALFACE((3,4,8,7));
#127=IFCINDEXEDPOLYGONALFACE((1,3,7,5));
#128=IFCINDEXEDPOLYGONALFACE((2,6,8,4));
#129=IFCINDEXEDPOLYGONALFACE((9,10,12,11));
#130=IFCINDEXEDPOLYGONALFACE((13,15,16,14));
#131=IFCINDEXEDPOLYGONALFACE((9,13,14,10));
#132=IFCINDEXEDPOLYGONALFACE((11,12,16,15));
#133=IFCINDEXEDPOLYGONALFACE((9,11,15,13));
#134=IFCINDEXEDPOLYGONALFACE((10,14,16,12));
#135=IFCINDEXEDPOLYGONALFACE((17,18,20,19));
#136=IFCINDEXEDPOLYGONALFACE((21,23,24,22));
#137=IFCINDEXEDPOLYGONALFACE((17,21,22,18));
#138=IFCINDEXEDPOLYGONALFACE((19,20,24,23));
#139=IFCINDEXEDPOLYGONALFACE((17,19,23,21));
#140=IFCINDEXEDPOLYGONALFACE((18,22,24,20));
#141=IFCINDEXEDPOLYGONALFACE((25,26,28,27));
#142=IFCINDEXEDPOLYGONALFACE((29,31,32,30));
#143=IFCINDEXEDPOLYGONALFACE((25,29,30,26));
#144=IFCINDEXEDPOLYGONALFACE((27,28,32,31));
#145=IFCINDEXEDPOLYGONALFACE((25,27,31,29));
#146=IFCINDEXEDPOLYGONALFACE((26,30,32,28));
#147=IFCINDEXEDPOLYGONALFACE((33,34,36,35));
#148=IFCINDEXEDPOLYGONALFACE((37,39,40,38));
#149=IFCINDEXEDPOLYGONALFACE((33,37,38,34));
#150=IFCINDEXEDPOLYGONALFACE((35,36,40,39));
#151=IFCINDEXEDPOLYGONALFACE((33,35,39,37));
#152=IFCINDEXEDPOLYGONALFACE((34,38,40,36));
#153=IFCPOLYGONALFACESET(#122,$,(#123,#124,#125,#126,#127,#128,#129,#130,#131,#132,#133,#134,#135,#136,#137,#138,#139,#140,#141,#142,#143,#144,#145,#146,#147,#148,#149,#150,#151,#152),$);
#154=IFCSHAPEREPRESENTATION(#13,'Body','Tessellation',(#153));
#155=IFCPRODUCTDEFINITIONSHAPE($,$,(#154));
#156=IFCUNITARYEQUIPMENT('3u5Uw6TM5STw5xz0O1uAfE',$,'hvac-24kw-direct-hv-dc roof HVAC','Optimizer-selected hot-climate HVAC must fit the roof curb and aux-power budget.',$,#291,#187,'LM3-EXT-P040',$);
#157=IFCPROPERTYSINGLEVALUE('OSRId',$,IFCTEXT('LM3-EXT-P040'),$);
#158=IFCPROPERTYSINGLEVALUE('Parent',$,IFCTEXT('LM3-ROOF-SA410'),$);
#159=IFCPROPERTYSINGLEVALUE('Route',$,IFCTEXT('BID'),$);
#160=IFCPROPERTYSINGLEVALUE('Maturity',$,IFCTEXT('buildable-after-supplier-freeze'),$);
#161=IFCPROPERTYSINGLEVALUE('QuantityPerTrainset',$,IFCINTEGER(3),$);
#162=IFCPROPERTYSINGLEVALUE('Unit',$,IFCTEXT('ea'),$);
#163=IFCPROPERTYSINGLEVALUE('GeometryStatus',$,IFCTEXT('design-reference-not-released'),$);
#164=IFCPROPERTYSET('0qtWvv6DXSAR5VCbV$O0C$',$,'OSR_ProductDefinition',$,(#157,#158,#159,#160,#161,#162,#163));
#165=IFCRELDEFINESBYPROPERTIES('2iRBMS5bXGyglRTwJssrF0',$,$,$,(#156),#164);
#166=IFCCARTESIANPOINTLIST3D(((-1.3,-0.94999999999999996,-0.25419999999999998),(-1.3,-0.94999999999999996,0.25419999999999998),(-1.3,0.94999999999999996,-0.25419999999999998),(-1.3,0.94999999999999996,0.25419999999999998),(1.3,-0.94999999999999996,-0.25419999999999998),(1.3,-0.94999999999999996,0.25419999999999998),(1.3,0.94999999999999996,-0.25419999999999998),(1.3,0.94999999999999996,0.25419999999999998),(-1.0660000000000001,-0.94999999999999996,-0.29759999999999998),(-1.0660000000000001,-0.94999999999999996,-0.22319999999999998),(-1.0660000000000001,-0.72199999999999998,-0.29759999999999998),(-1.0660000000000001,-0.72199999999999998,-0.22319999999999998),(1.0660000000000001,-0.94999999999999996,-0.29759999999999998),(1.0660000000000001,-0.94999999999999996,-0.22319999999999998),(1.0660000000000001,-0.72199999999999998,-0.29759999999999998),(1.0660000000000001,-0.72199999999999998,-0.22319999999999998),(0.46800000000000003,0.627,-0.049599999999999998),(0.46800000000000003,0.627,0.049599999999999998),(0.46800000000000003,0.89300000000000002,-0.049599999999999998),(0.46800000000000003,0.89300000000000002,0.049599999999999998),(1.0920000000000001,0.627,-0.049599999999999998),(1.0920000000000001,0.627,0.049599999999999998),(1.0920000000000001,0.89300000000000002,-0.049599999999999998),(1.0920000000000001,0.89300000000000002,0.049599999999999998)),$);
#167=IFCINDEXEDPOLYGONALFACE((1,2,4,3));
#168=IFCINDEXEDPOLYGONALFACE((5,7,8,6));
#169=IFCINDEXEDPOLYGONALFACE((1,5,6,2));
#170=IFCINDEXEDPOLYGONALFACE((3,4,8,7));
#171=IFCINDEXEDPOLYGONALFACE((1,3,7,5));
#172=IFCINDEXEDPOLYGONALFACE((2,6,8,4));
#173=IFCINDEXEDPOLYGONALFACE((9,10,12,11));
#174=IFCINDEXEDPOLYGONALFACE((13,15,16,14));
#175=IFCINDEXEDPOLYGONALFACE((9,13,14,10));
#176=IFCINDEXEDPOLYGONALFACE((11,12,16,15));
#177=IFCINDEXEDPOLYGONALFACE((9,11,15,13));
#178=IFCINDEXEDPOLYGONALFACE((10,14,16,12));
#179=IFCINDEXEDPOLYGONALFACE((17,18,20,19));
#180=IFCINDEXEDPOLYGONALFACE((21,23,24,22));
#181=IFCINDEXEDPOLYGONALFACE((17,21,22,18));
#182=IFCINDEXEDPOLYGONALFACE((19,20,24,23));
#183=IFCINDEXEDPOLYGONALFACE((17,19,23,21));
#184=IFCINDEXEDPOLYGONALFACE((18,22,24,20));
#185=IFCPOLYGONALFACESET(#166,$,(#167,#168,#169,#170,#171,#172,#173,#174,#175,#176,#177,#178,#179,#180,#181,#182,#183,#184),$);
#186=IFCSHAPEREPRESENTATION(#13,'Body','Tessellation',(#185));
#187=IFCPRODUCTDEFINITIONSHAPE($,$,(#186));
#188=IFCBUILDINGELEMENTPROXY('2hlGHPp9LM$9HsfGF4uw5R',$,'roof PV module and edge-clamp kit','Flexible/rigid PV modules plus isolators and roof harness.',$,#294,#213,'LM3-EXT-P050',$);
#189=IFCPROPERTYSINGLEVALUE('OSRId',$,IFCTEXT('LM3-EXT-P050'),$);
#190=IFCPROPERTYSINGLEVALUE('Parent',$,IFCTEXT('LM3-ROOF-SA410'),$);
#191=IFCPROPERTYSINGLEVALUE('Route',$,IFCTEXT('SOURCE'),$);
#192=IFCPROPERTYSINGLEVALUE('Maturity',$,IFCTEXT('release-candidate'),$);
#193=IFCPROPERTYSINGLEVALUE('QuantityPerTrainset',$,IFCINTEGER(36),$);
#194=IFCPROPERTYSINGLEVALUE('Unit',$,IFCTEXT('module'),$);
#195=IFCPROPERTYSINGLEVALUE('GeometryStatus',$,IFCTEXT('design-reference-not-released'),$);
#196=IFCPROPERTYSET('0n9x4eOiHSUexjeWLhuANr',$,'OSR_ProductDefinition',$,(#189,#190,#191,#192,#193,#194,#195));
#197=IFCRELDEFINESBYPROPERTIES('2anZ3TWabG0gzvr2BaeXxB',$,$,$,(#188),#196);
#198=IFCCARTESIANPOINTLIST3D(((-0.84999999999999998,-0.52500000000000002,-0.022499999999999999),(-0.84999999999999998,-0.52500000000000002,0.022499999999999999),(-0.84999999999999998,0.52500000000000002,-0.022499999999999999),(-0.84999999999999998,0.52500000000000002,0.022499999999999999),(0.84999999999999998,-0.52500000000000002,-0.022499999999999999),(0.84999999999999998,-0.52500000000000002,0.022499999999999999),(0.84999999999999998,0.52500000000000002,-0.022499999999999999),(0.84999999999999998,0.52500000000000002,0.022499999999999999),(-0.84999999999999998,-0.0315,-0.020250000000000001),(-0.84999999999999998,-0.0315,0.020250000000000001),(-0.84999999999999998,0.0315,-0.020250000000000001),(-0.84999999999999998,0.0315,0.020250000000000001),(0.84999999999999998,-0.0315,-0.020250000000000001),(0.84999999999999998,-0.0315,0.020250000000000001),(0.84999999999999998,0.0315,-0.020250000000000001),(0.84999999999999998,0.0315,0.020250000000000001)),$);
#199=IFCINDEXEDPOLYGONALFACE((1,2,4,3));
#200=IFCINDEXEDPOLYGONALFACE((5,7,8,6));
#201=IFCINDEXEDPOLYGONALFACE((1,5,6,2));
#202=IFCINDEXEDPOLYGONALFACE((3,4,8,7));
#203=IFCINDEXEDPOLYGONALFACE((1,3,7,5));
#204=IFCINDEXEDPOLYGONALFACE((2,6,8,4));
#205=IFCINDEXEDPOLYGONALFACE((9,10,12,11));
#206=IFCINDEXEDPOLYGONALFACE((13,15,16,14));
#207=IFCINDEXEDPOLYGONALFACE((9,13,14,10));
#208=IFCINDEXEDPOLYGONALFACE((11,12,16,15));
#209=IFCINDEXEDPOLYGONALFACE((9,11,15,13));
#210=IFCINDEXEDPOLYGONALFACE((10,14,16,12));
#211=IFCPOLYGONALFACESET(#198,$,(#199,#200,#201,#202,#203,#204,#205,#206,#207,#208,#209,#210),$);
#212=IFCSHAPEREPRESENTATION(#13,'Body','Tessellation',(#211));
#213=IFCPRODUCTDEFINITIONSHAPE($,$,(#212));
#214=IFCBUILDINGELEMENTPROXY('2qCBInl_TOchpcAeGQ8nFA',$,'roof antennas, service walkway pads, lifting covers, and maintenance labels','Service and radio-accessory roof package integrated around HVAC and PV keep-outs.',$,#297,#245,'LM3-EXT-P070',$);
#215=IFCPROPERTYSINGLEVALUE('OSRId',$,IFCTEXT('LM3-EXT-P070'),$);
#216=IFCPROPERTYSINGLEVALUE('Parent',$,IFCTEXT('LM3-ROOF-SA410'),$);
#217=IFCPROPERTYSINGLEVALUE('Route',$,IFCTEXT('SOURCE'),$);
#218=IFCPROPERTYSINGLEVALUE('Maturity',$,IFCTEXT('buildable-after-supplier-freeze'),$);
#219=IFCPROPERTYSINGLEVALUE('QuantityPerTrainset',$,IFCINTEGER(3),$);
#220=IFCPROPERTYSINGLEVALUE('Unit',$,IFCTEXT('car kit'),$);
#221=IFCPROPERTYSINGLEVALUE('GeometryStatus',$,IFCTEXT('design-reference-not-released'),$);
#222=IFCPROPERTYSET('3c3wcDdInKxx6M3suYTdaD',$,'OSR_ProductDefinition',$,(#215,#216,#217,#218,#219,#220,#221));
#223=IFCRELDEFINESBYPROPERTIES('3A9ZwPIhHTjP39H6LBUWzF',$,$,$,(#214),#222);
#224=IFCCARTESIANPOINTLIST3D(((-1.2,-0.315,-0.054600000000000003),(-1.2,-0.315,0.054600000000000003),(-1.2,0.315,-0.054600000000000003),(-1.2,0.315,0.054600000000000003),(1.2,-0.315,-0.054600000000000003),(1.2,-0.315,0.054600000000000003),(1.2,0.315,-0.054600000000000003),(1.2,0.315,0.054600000000000003),(-0.57599999999999996,-0.75,-0.041599999999999998),(-0.57599999999999996,-0.75,0.041599999999999998),(-0.57599999999999996,0.75,-0.041599999999999998),(-0.57599999999999996,0.75,0.041599999999999998),(0.57599999999999996,-0.75,-0.041599999999999998),(0.57599999999999996,-0.75,0.041599999999999998),(0.57599999999999996,0.75,-0.041599999999999998),(0.57599999999999996,0.75,0.041599999999999998),(-0.216,-0.16500000000000001,-0.13),(-0.216,-0.16500000000000001,0.13),(-0.216,0.16500000000000001,-0.13),(-0.216,0.16500000000000001,0.13),(0.216,-0.16500000000000001,-0.13),(0.216,-0.16500000000000001,0.13),(0.216,0.16500000000000001,-0.13),(0.216,0.16500000000000001,0.13)),$);
#225=IFCINDEXEDPOLYGONALFACE((1,2,4,3));
#226=IFCINDEXEDPOLYGONALFACE((5,7,8,6));
#227=IFCINDEXEDPOLYGONALFACE((1,5,6,2));
#228=IFCINDEXEDPOLYGONALFACE((3,4,8,7));
#229=IFCINDEXEDPOLYGONALFACE((1,3,7,5));
#230=IFCINDEXEDPOLYGONALFACE((2,6,8,4));
#231=IFCINDEXEDPOLYGONALFACE((9,10,12,11));
#232=IFCINDEXEDPOLYGONALFACE((13,15,16,14));
#233=IFCINDEXEDPOLYGONALFACE((9,13,14,10));
#234=IFCINDEXEDPOLYGONALFACE((11,12,16,15));
#235=IFCINDEXEDPOLYGONALFACE((9,11,15,13));
#236=IFCINDEXEDPOLYGONALFACE((10,14,16,12));
#237=IFCINDEXEDPOLYGONALFACE((17,18,20,19));
#238=IFCINDEXEDPOLYGONALFACE((21,23,24,22));
#239=IFCINDEXEDPOLYGONALFACE((17,21,22,18));
#240=IFCINDEXEDPOLYGONALFACE((19,20,24,23));
#241=IFCINDEXEDPOLYGONALFACE((17,19,23,21));
#242=IFCINDEXEDPOLYGONALFACE((18,22,24,20));
#243=IFCPOLYGONALFACESET(#224,$,(#225,#226,#227,#228,#229,#230,#231,#232,#233,#234,#235,#236,#237,#238,#239,#240,#241,#242),$);
#244=IFCSHAPEREPRESENTATION(#13,'Body','Tessellation',(#243));
#245=IFCPRODUCTDEFINITIONSHAPE($,$,(#244));
#246=IFCBUILDINGELEMENTPROXY('2iJcU4CNvJlRqc$WX57QDm',$,'roof-mounted regen dump resistor and thermal shield kit','Per-car roof resistor path for regen overvoltage and commissioning load tests.',$,#300,#277,'LM3-TRC-P050',$);
#247=IFCPROPERTYSINGLEVALUE('OSRId',$,IFCTEXT('LM3-TRC-P050'),$);
#248=IFCPROPERTYSINGLEVALUE('Parent',$,IFCTEXT('LM3-ROOF-SA410'),$);
#249=IFCPROPERTYSINGLEVALUE('Route',$,IFCTEXT('SOURCE'),$);
#250=IFCPROPERTYSINGLEVALUE('Maturity',$,IFCTEXT('buildable-after-supplier-freeze'),$);
#251=IFCPROPERTYSINGLEVALUE('QuantityPerTrainset',$,IFCINTEGER(3),$);
#252=IFCPROPERTYSINGLEVALUE('Unit',$,IFCTEXT('ea'),$);
#253=IFCPROPERTYSINGLEVALUE('GeometryStatus',$,IFCTEXT('design-reference-not-released'),$);
#254=IFCPROPERTYSET('1xNuacSDvMaumjjYG6HVZ2',$,'OSR_ProductDefinition',$,(#247,#248,#249,#250,#251,#252,#253));
#255=IFCRELDEFINESBYPROPERTIES('04kfheL31Kgf2jV2oHxyIS',$,$,$,(#246),#254);
#256=IFCCARTESIANPOINTLIST3D(((-0.94999999999999996,-0.375,-0.17219999999999999),(-0.94999999999999996,-0.375,0.17219999999999999),(-0.94999999999999996,0.375,-0.17219999999999999),(-0.94999999999999996,0.375,0.17219999999999999),(0.94999999999999996,-0.375,-0.17219999999999999),(0.94999999999999996,-0.375,0.17219999999999999),(0.94999999999999996,0.375,-0.17219999999999999),(0.94999999999999996,0.375,0.17219999999999999),(-0.77900000000000003,-0.375,-0.2016),(-0.77900000000000003,-0.375,-0.15120000000000003),(-0.77900000000000003,-0.28499999999999998,-0.2016),(-0.77900000000000003,-0.28499999999999998,-0.15120000000000003),(0.77900000000000003,-0.375,-0.2016),(0.77900000000000003,-0.375,-0.15120000000000003),(0.77900000000000003,-0.28499999999999998,-0.2016),(0.77900000000000003,-0.28499999999999998,-0.15120000000000003),(0.34200000000000003,0.2475,-0.033600000000000005),(0.34200000000000003,0.2475,0.033600000000000005),(0.34200000000000003,0.35249999999999998,-0.033600000000000005),(0.34200000000000003,0.35249999999999998,0.033600000000000005),(0.79800000000000004,0.2475,-0.033600000000000005),(0.79800000000000004,0.2475,0.033600000000000005),(0.79800000000000004,0.35249999999999998,-0.033600000000000005),(0.79800000000000004,0.35249999999999998,0.033600000000000005)),$);
#257=IFCINDEXEDPOLYGONALFACE((1,2,4,3));
#258=IFCINDEXEDPOLYGONALFACE((5,7,8,6));
#259=IFCINDEXEDPOLYGONALFACE((1,5,6,2));
#260=IFCINDEXEDPOLYGONALFACE((3,4,8,7));
#261=IFCINDEXEDPOLYGONALFACE((1,3,7,5));
#262=IFCINDEXEDPOLYGONALFACE((2,6,8,4));
#263=IFCINDEXEDPOLYGONALFACE((9,10,12,11));
#264=IFCINDEXEDPOLYGONALFACE((13,15,16,14));
#265=IFCINDEXEDPOLYGONALFACE((9,13,14,10));
#266=IFCINDEXEDPOLYGONALFACE((11,12,16,15));
#267=IFCINDEXEDPOLYGONALFACE((9,11,15,13));
#268=IFCINDEXEDPOLYGONALFACE((10,14,16,12));
#269=IFCINDEXEDPOLYGONALFACE((17,18,20,19));
#270=IFCINDEXEDPOLYGONALFACE((21,23,24,22));
#271=IFCINDEXEDPOLYGONALFACE((17,21,22,18));
#272=IFCINDEXEDPOLYGONALFACE((19,20,24,23));
#273=IFCINDEXEDPOLYGONALFACE((17,19,23,21));
#274=IFCINDEXEDPOLYGONALFACE((18,22,24,20));
#275=IFCPOLYGONALFACESET(#256,$,(#257,#258,#259,#260,#261,#262,#263,#264,#265,#266,#267,#268,#269,#270,#271,#272,#273,#274),$);
#276=IFCSHAPEREPRESENTATION(#13,'Body','Tessellation',(#275));
#277=IFCPRODUCTDEFINITIONSHAPE($,$,(#276));
#278=IFCRELAGGREGATES('28eSXdWEzMjg$bHm92r5D3',$,$,$,#28,(#36,#156,#188,#214,#80,#112,#246));
#279=IFCRELCONTAINEDINSPATIALSTRUCTURE('3TVMFCRAnMPft$x2lTFs7Z',$,$,$,(#28),#3);
#280=IFCCARTESIANPOINT((0.,0.,0.));
#281=IFCAXIS2PLACEMENT3D(#280,$,$);
#282=IFCLOCALPLACEMENT($,#281);
#283=IFCCARTESIANPOINT((16.399999999999999,0.,0.));
#284=IFCAXIS2PLACEMENT3D(#283,$,$);
#285=IFCLOCALPLACEMENT($,#284);
#286=IFCCARTESIANPOINT((32.799999999999997,0.,0.));
#287=IFCAXIS2PLACEMENT3D(#286,$,$);
#288=IFCLOCALPLACEMENT($,#287);
#289=IFCCARTESIANPOINT((49.200000000000003,0.,0.));
#290=IFCAXIS2PLACEMENT3D(#289,$,$);
#291=IFCLOCALPLACEMENT($,#290);
#292=IFCCARTESIANPOINT((0.,3.2999999999999998,0.));
#293=IFCAXIS2PLACEMENT3D(#292,$,$);
#294=IFCLOCALPLACEMENT($,#293);
#295=IFCCARTESIANPOINT((16.399999999999999,3.2999999999999998,0.));
#296=IFCAXIS2PLACEMENT3D(#295,$,$);
#297=IFCLOCALPLACEMENT($,#296);
#298=IFCCARTESIANPOINT((32.799999999999997,3.2999999999999998,0.));
#299=IFCAXIS2PLACEMENT3D(#298,$,$);
#300=IFCLOCALPLACEMENT($,#299);
ENDSEC;
END-ISO-10303-21;
