ISO-10303-21;
HEADER;
FILE_DESCRIPTION(('ViewDefinition [CoordinationView]'),'2;1');
FILE_NAME('LM3-END-SA700.ifc','2026-08-30T00:00:00+00:00',('OpenSourceRail'),('OpenSourceRail'),'IfcOpenShell 0.8.5','OpenSourceRail deterministic LM3 product-library exporter','design-reference / not for construction');
FILE_SCHEMA(('IFC4X3_ADD2'));
ENDSEC;
DATA;
#1=IFCPROJECT('1Bol0nTpDO_O1okVCp0aHM',$,'LM3-END-SA700 \X2\2014\X0\ train-end cowl, coupler, crash, and sensor assembly','Design-reference geometry and assembly hierarchy only; supplier freeze, released drawings/tolerances, calculations, qualified processes and first-article tests remain mandatory.',$,$,$,(#12),#7);
#2=IFCSITE('1okZ1ZAfLMgwu5jbHQUVjT',$,'LM3 product library',$,$,#18,$,$,.ELEMENT.,$,$,$,$,$);
#3=IFCBUILDING('1nrOYiQk5H_fGsBmuAqe0a',$,'LM3 assembly inspection fixture',$,$,#21,$,$,.ELEMENT.,$,$,$);
#4=IFCSIUNIT(*,.LENGTHUNIT.,$,.METRE.);
#5=IFCSIUNIT(*,.AREAUNIT.,$,.SQUARE_METRE.);
#6=IFCSIUNIT(*,.VOLUMEUNIT.,$,.CUBIC_METRE.);
#7=IFCUNITASSIGNMENT((#6,#4,#5));
#8=IFCCARTESIANPOINT((0.,0.,0.));
#9=IFCDIRECTION((0.,0.,1.));
#10=IFCDIRECTION((1.,0.,0.));
#11=IFCAXIS2PLACEMENT3D(#8,#9,#10);
#12=IFCGEOMETRICREPRESENTATIONCONTEXT($,'Model',3,1.0000000000000001E-05,#11,$);
#13=IFCGEOMETRICREPRESENTATIONSUBCONTEXT('Body','Model',*,*,*,*,#12,$,.MODEL_VIEW.,$);
#14=IFCRELAGGREGATES('1U_0vRypTGYuajOYh7T$xC',$,$,$,#1,(#2));
#15=IFCRELAGGREGATES('157KlhfCbJUxKsVNrRRlSG',$,$,$,#2,(#3));
#16=IFCCARTESIANPOINT((0.,0.,0.));
#17=IFCAXIS2PLACEMENT3D(#16,$,$);
#18=IFCLOCALPLACEMENT($,#17);
#19=IFCCARTESIANPOINT((0.,0.,0.));
#20=IFCAXIS2PLACEMENT3D(#19,$,$);
#21=IFCLOCALPLACEMENT($,#20);
#22=IFCPROPERTYSINGLEVALUE('Status',$,IFCTEXT('design-reference-not-released'),$);
#23=IFCPROPERTYSINGLEVALUE('ReleaseBoundary',$,IFCTEXT('Design-reference geometry and assembly hierarchy only; supplier freeze, released drawings/tolerances, calculations, qualified processes and first-article tests remain mandatory.'),$);
#24=IFCPROPERTYSINGLEVALUE('Manifest',$,IFCTEXT('design/component-catalogue/catalog/buildable-trainset/buildable-trainset-manifest.json'),$);
#25=IFCPROPERTYSINGLEVALUE('ManifestSha256',$,IFCTEXT('7654747909805305ce2018109b5b649c4817a8f8c44a3ec8f2e8a6f74d48243e'),$);
#26=IFCPROPERTYSET('0ymZinKPrLyfJLSSk5TDRw',$,'OSR_ProductLibrary',$,(#22,#23,#24,#25));
#27=IFCRELDEFINESBYPROPERTIES('2apzGyu9LRURPer6Ad2d5Z',$,$,$,(#1),#26);
#28=IFCELEMENTASSEMBLY('07heQkhh5KovPMUvZH5M30',$,'train-end cowl, coupler, crash, and sensor assembly','A/B end interchange | coupler datum survey | sensor calibration | recovery interface check',$,$,$,'LM3-END-SA700',$,$);
#29=IFCPROPERTYSINGLEVALUE('OSRId',$,IFCTEXT('LM3-END-SA700'),$);
#30=IFCPROPERTYSINGLEVALUE('Layer',$,IFCTEXT('assembly'),$);
#31=IFCPROPERTYSINGLEVALUE('BuildCell',$,IFCTEXT('composite / final assembly and commissioning cells'),$);
#32=IFCPROPERTYSINGLEVALUE('QuantityPerTrainset',$,IFCINTEGER(2),$);
#33=IFCPROPERTYSINGLEVALUE('GeometryStatus',$,IFCTEXT('complete-hierarchy-inspection-layout'),$);
#34=IFCPROPERTYSET('2X22kHu6rPaQC03KsalGVe',$,'OSR_AssemblyDefinition',$,(#29,#30,#31,#32,#33));
#35=IFCRELDEFINESBYPROPERTIES('0d2QVlqKnIMRBHoE5XTWdy',$,$,$,(#28),#34);
#36=IFCELEMENTASSEMBLY('2CRimFXS9J8gvb9ALYjqeu',$,'front/back fiberglass cowl cast kit','laminate coupon release | insert pull-out | trim/drill survey | A/B-end dry-build water test',$,$,$,'LM3-CWL-SA710',$,$);
#37=IFCPROPERTYSINGLEVALUE('OSRId',$,IFCTEXT('LM3-CWL-SA710'),$);
#38=IFCPROPERTYSINGLEVALUE('Layer',$,IFCTEXT('subassembly'),$);
#39=IFCPROPERTYSINGLEVALUE('BuildCell',$,IFCTEXT('composite moulding and trim cell'),$);
#40=IFCPROPERTYSINGLEVALUE('QuantityPerTrainset',$,IFCINTEGER(2),$);
#41=IFCPROPERTYSINGLEVALUE('GeometryStatus',$,IFCTEXT('complete-hierarchy-inspection-layout'),$);
#42=IFCPROPERTYSET('2ggzzl2DzSuPLD12OD4sgN',$,'OSR_AssemblyDefinition',$,(#37,#38,#39,#40,#41));
#43=IFCRELDEFINESBYPROPERTIES('0HEyzPHrrSD8y95zemxm8h',$,$,$,(#36),#42);
#44=IFCBUILDINGELEMENTPROXY('3WBPRnB$nLFBZ4P5clPP02',$,'coupler pocket, shear plate, and crash-can insert kit','Welded/machined pocket accepting certified coupler and crash absorber.',$,#565,#75,'LM3-BDY-P040',$);
#45=IFCPROPERTYSINGLEVALUE('OSRId',$,IFCTEXT('LM3-BDY-P040'),$);
#46=IFCPROPERTYSINGLEVALUE('Parent',$,IFCTEXT('LM3-END-SA700'),$);
#47=IFCPROPERTYSINGLEVALUE('Route',$,IFCTEXT('MAKE'),$);
#48=IFCPROPERTYSINGLEVALUE('Maturity',$,IFCTEXT('release-candidate'),$);
#49=IFCPROPERTYSINGLEVALUE('QuantityPerTrainset',$,IFCINTEGER(2),$);
#50=IFCPROPERTYSINGLEVALUE('Unit',$,IFCTEXT('set'),$);
#51=IFCPROPERTYSINGLEVALUE('GeometryStatus',$,IFCTEXT('design-reference-not-released'),$);
#52=IFCPROPERTYSET('327uRf1PXTNPdP3XqlQZ_1',$,'OSR_ProductDefinition',$,(#45,#46,#47,#48,#49,#50,#51));
#53=IFCRELDEFINESBYPROPERTIES('2LVzwrUszMuw1T5OxzoSEb',$,$,$,(#44),#52);
#54=IFCCARTESIANPOINTLIST3D(((-0.625,-0.55000000000000004,-0.25419999999999998),(-0.625,-0.55000000000000004,0.25419999999999998),(-0.625,0.55000000000000004,-0.25419999999999998),(-0.625,0.55000000000000004,0.25419999999999998),(0.625,-0.55000000000000004,-0.25419999999999998),(0.625,-0.55000000000000004,0.25419999999999998),(0.625,0.55000000000000004,-0.25419999999999998),(0.625,0.55000000000000004,0.25419999999999998),(-0.51249999999999996,-0.55000000000000004,-0.29759999999999998),(-0.51249999999999996,-0.55000000000000004,-0.22319999999999998),(-0.51249999999999996,-0.41799999999999998,-0.29759999999999998),(-0.51249999999999996,-0.41799999999999998,-0.22319999999999998),(0.51249999999999996,-0.55000000000000004,-0.29759999999999998),(0.51249999999999996,-0.55000000000000004,-0.22319999999999998),(0.51249999999999996,-0.41799999999999998,-0.29759999999999998),(0.51249999999999996,-0.41799999999999998,-0.22319999999999998),(0.22500000000000001,0.36299999999999999,-0.049599999999999998),(0.22500000000000001,0.36299999999999999,0.049599999999999998),(0.22500000000000001,0.51700000000000002,-0.049599999999999998),(0.22500000000000001,0.51700000000000002,0.049599999999999998),(0.52500000000000002,0.36299999999999999,-0.049599999999999998),(0.52500000000000002,0.36299999999999999,0.049599999999999998),(0.52500000000000002,0.51700000000000002,-0.049599999999999998),(0.52500000000000002,0.51700000000000002,0.049599999999999998)),$);
#55=IFCINDEXEDPOLYGONALFACE((1,2,4,3));
#56=IFCINDEXEDPOLYGONALFACE((5,7,8,6));
#57=IFCINDEXEDPOLYGONALFACE((1,5,6,2));
#58=IFCINDEXEDPOLYGONALFACE((3,4,8,7));
#59=IFCINDEXEDPOLYGONALFACE((1,3,7,5));
#60=IFCINDEXEDPOLYGONALFACE((2,6,8,4));
#61=IFCINDEXEDPOLYGONALFACE((9,10,12,11));
#62=IFCINDEXEDPOLYGONALFACE((13,15,16,14));
#63=IFCINDEXEDPOLYGONALFACE((9,13,14,10));
#64=IFCINDEXEDPOLYGONALFACE((11,12,16,15));
#65=IFCINDEXEDPOLYGONALFACE((9,11,15,13));
#66=IFCINDEXEDPOLYGONALFACE((10,14,16,12));
#67=IFCINDEXEDPOLYGONALFACE((17,18,20,19));
#68=IFCINDEXEDPOLYGONALFACE((21,23,24,22));
#69=IFCINDEXEDPOLYGONALFACE((17,21,22,18));
#70=IFCINDEXEDPOLYGONALFACE((19,20,24,23));
#71=IFCINDEXEDPOLYGONALFACE((17,19,23,21));
#72=IFCINDEXEDPOLYGONALFACE((18,22,24,20));
#73=IFCPOLYGONALFACESET(#54,$,(#55,#56,#57,#58,#59,#60,#61,#62,#63,#64,#65,#66,#67,#68,#69,#70,#71,#72),$);
#74=IFCSHAPEREPRESENTATION(#13,'Body','Tessellation',(#73));
#75=IFCPRODUCTDEFINITIONSHAPE($,$,(#74));
#76=IFCBUILDINGELEMENTPROXY('3WoWS8KQbKRvxkQzbm8VhH',$,'end ring frame and anti-climber beam set','Steel datum for identical fiberglass end cowl and panoramic glass.',$,#568,#113,'LM3-BDY-P090',$);
#77=IFCPROPERTYSINGLEVALUE('OSRId',$,IFCTEXT('LM3-BDY-P090'),$);
#78=IFCPROPERTYSINGLEVALUE('Parent',$,IFCTEXT('LM3-END-SA700'),$);
#79=IFCPROPERTYSINGLEVALUE('Route',$,IFCTEXT('MAKE'),$);
#80=IFCPROPERTYSINGLEVALUE('Maturity',$,IFCTEXT('release-candidate'),$);
#81=IFCPROPERTYSINGLEVALUE('QuantityPerTrainset',$,IFCINTEGER(2),$);
#82=IFCPROPERTYSINGLEVALUE('Unit',$,IFCTEXT('set'),$);
#83=IFCPROPERTYSINGLEVALUE('GeometryStatus',$,IFCTEXT('design-reference-not-released'),$);
#84=IFCPROPERTYSET('0Jt8UDON1LBvgk4VI2027j',$,'OSR_ProductDefinition',$,(#77,#78,#79,#80,#81,#82,#83));
#85=IFCRELDEFINESBYPROPERTIES('2xerbbU29I6Rf8jqgkU3ET',$,$,$,(#76),#84);
#86=IFCCARTESIANPOINTLIST3D(((-1.3500000000000001,-0.13,-1.45),(-1.3500000000000001,-0.13,1.45),(-1.3500000000000001,0.13,-1.45),(-1.3500000000000001,0.13,1.45),(-1.21,-0.13,-1.45),(-1.21,-0.13,1.45),(-1.21,0.13,-1.45),(-1.21,0.13,1.45),(1.21,-0.13,-1.45),(1.21,-0.13,1.45),(1.21,0.13,-1.45),(1.21,0.13,1.45),(1.3500000000000001,-0.13,-1.45),(1.3500000000000001,-0.13,1.45),(1.3500000000000001,0.13,-1.45),(1.3500000000000001,0.13,1.45),(-1.21,-0.13,1.3100000000000001),(-1.21,-0.13,1.45),(-1.21,0.13,1.3100000000000001),(-1.21,0.13,1.45),(1.21,-0.13,1.3100000000000001),(1.21,-0.13,1.45),(1.21,0.13,1.3100000000000001),(1.21,0.13,1.45),(-1.21,-0.13,-1.45),(-1.21,-0.13,-1.3100000000000001),(-1.21,0.13,-1.45),(-1.21,0.13,-1.3100000000000001),(1.21,-0.13,-1.45),(1.21,-0.13,-1.3100000000000001),(1.21,0.13,-1.45),(1.21,0.13,-1.3100000000000001)),$);
#87=IFCINDEXEDPOLYGONALFACE((1,2,4,3));
#88=IFCINDEXEDPOLYGONALFACE((5,7,8,6));
#89=IFCINDEXEDPOLYGONALFACE((1,5,6,2));
#90=IFCINDEXEDPOLYGONALFACE((3,4,8,7));
#91=IFCINDEXEDPOLYGONALFACE((1,3,7,5));
#92=IFCINDEXEDPOLYGONALFACE((2,6,8,4));
#93=IFCINDEXEDPOLYGONALFACE((9,10,12,11));
#94=IFCINDEXEDPOLYGONALFACE((13,15,16,14));
#95=IFCINDEXEDPOLYGONALFACE((9,13,14,10));
#96=IFCINDEXEDPOLYGONALFACE((11,12,16,15));
#97=IFCINDEXEDPOLYGONALFACE((9,11,15,13));
#98=IFCINDEXEDPOLYGONALFACE((10,14,16,12));
#99=IFCINDEXEDPOLYGONALFACE((17,18,20,19));
#100=IFCINDEXEDPOLYGONALFACE((21,23,24,22));
#101=IFCINDEXEDPOLYGONALFACE((17,21,22,18));
#102=IFCINDEXEDPOLYGONALFACE((19,20,24,23));
#103=IFCINDEXEDPOLYGONALFACE((17,19,23,21));
#104=IFCINDEXEDPOLYGONALFACE((18,22,24,20));
#105=IFCINDEXEDPOLYGONALFACE((25,26,28,27));
#106=IFCINDEXEDPOLYGONALFACE((29,31,32,30));
#107=IFCINDEXEDPOLYGONALFACE((25,29,30,26));
#108=IFCINDEXEDPOLYGONALFACE((27,28,32,31));
#109=IFCINDEXEDPOLYGONALFACE((25,27,31,29));
#110=IFCINDEXEDPOLYGONALFACE((26,30,32,28));
#111=IFCPOLYGONALFACESET(#86,$,(#87,#88,#89,#90,#91,#92,#93,#94,#95,#96,#97,#98,#99,#100,#101,#102,#103,#104,#105,#106,#107,#108,#109,#110),$);
#112=IFCSHAPEREPRESENTATION(#13,'Body','Tessellation',(#111));
#113=IFCPRODUCTDEFINITIONSHAPE($,$,(#112));
#114=IFCBUILDINGELEMENTPROXY('3NiRek7JjIg8LdxRu7tHAq',$,'end-cowl fiberglass laminate, insert, adhesive, and coupon material kit','Fire-retardant E-glass/vinyl-ester or basalt composite consumables, inserts, coupons, and adhesive/sealant for one reversible end cowl kit.',$,#571,#145,'LM3-CWL-P010',$);
#115=IFCPROPERTYSINGLEVALUE('OSRId',$,IFCTEXT('LM3-CWL-P010'),$);
#116=IFCPROPERTYSINGLEVALUE('Parent',$,IFCTEXT('LM3-CWL-SA710'),$);
#117=IFCPROPERTYSINGLEVALUE('Route',$,IFCTEXT('SOURCE'),$);
#118=IFCPROPERTYSINGLEVALUE('Maturity',$,IFCTEXT('buildable-after-supplier-freeze'),$);
#119=IFCPROPERTYSINGLEVALUE('QuantityPerTrainset',$,IFCINTEGER(2),$);
#120=IFCPROPERTYSINGLEVALUE('Unit',$,IFCTEXT('kit'),$);
#121=IFCPROPERTYSINGLEVALUE('GeometryStatus',$,IFCTEXT('design-reference-not-released'),$);
#122=IFCPROPERTYSET('3qHoJ6p41VNxXyLx0SEsqu',$,'OSR_ProductDefinition',$,(#115,#116,#117,#118,#119,#120,#121));
#123=IFCRELDEFINESBYPROPERTIES('1BKAiZqmLQCAQpnEKAXv17',$,$,$,(#114),#122);
#124=IFCCARTESIANPOINTLIST3D(((-1.45,-1.3999999999999999,-1.464),(-1.45,-1.3999999999999999,-0.36599999999999999),(-1.45,1.3999999999999999,-1.464),(-1.45,1.3999999999999999,-0.36599999999999999),(1.45,-1.3999999999999999,-1.464),(1.45,-1.3999999999999999,-0.36599999999999999),(1.45,1.3999999999999999,-1.464),(1.45,1.3999999999999999,-0.36599999999999999),(-1.131,-1.288,-0.51849999999999996),(-1.131,-1.288,0.51849999999999996),(-1.131,1.288,-0.51849999999999996),(-1.131,1.288,0.51849999999999996),(1.131,-1.288,-0.51849999999999996),(1.131,-1.288,0.51849999999999996),(1.131,1.288,-0.51849999999999996),(1.131,1.288,0.51849999999999996),(-0.754,-1.0920000000000001,0.54900000000000004),(-0.754,-1.0920000000000001,1.3420000000000001),(-0.754,1.0920000000000001,0.54900000000000004),(-0.754,1.0920000000000001,1.3420000000000001),(0.754,-1.0920000000000001,0.54900000000000004),(0.754,-1.0920000000000001,1.3420000000000001),(0.754,1.0920000000000001,0.54900000000000004),(0.754,1.0920000000000001,1.3420000000000001)),$);
#125=IFCINDEXEDPOLYGONALFACE((1,2,4,3));
#126=IFCINDEXEDPOLYGONALFACE((5,7,8,6));
#127=IFCINDEXEDPOLYGONALFACE((1,5,6,2));
#128=IFCINDEXEDPOLYGONALFACE((3,4,8,7));
#129=IFCINDEXEDPOLYGONALFACE((1,3,7,5));
#130=IFCINDEXEDPOLYGONALFACE((2,6,8,4));
#131=IFCINDEXEDPOLYGONALFACE((9,10,12,11));
#132=IFCINDEXEDPOLYGONALFACE((13,15,16,14));
#133=IFCINDEXEDPOLYGONALFACE((9,13,14,10));
#134=IFCINDEXEDPOLYGONALFACE((11,12,16,15));
#135=IFCINDEXEDPOLYGONALFACE((9,11,15,13));
#136=IFCINDEXEDPOLYGONALFACE((10,14,16,12));
#137=IFCINDEXEDPOLYGONALFACE((17,18,20,19));
#138=IFCINDEXEDPOLYGONALFACE((21,23,24,22));
#139=IFCINDEXEDPOLYGONALFACE((17,21,22,18));
#140=IFCINDEXEDPOLYGONALFACE((19,20,24,23));
#141=IFCINDEXEDPOLYGONALFACE((17,19,23,21));
#142=IFCINDEXEDPOLYGONALFACE((18,22,24,20));
#143=IFCPOLYGONALFACESET(#124,$,(#125,#126,#127,#128,#129,#130,#131,#132,#133,#134,#135,#136,#137,#138,#139,#140,#141,#142),$);
#144=IFCSHAPEREPRESENTATION(#13,'Body','Tessellation',(#143));
#145=IFCPRODUCTDEFINITIONSHAPE($,$,(#144));
#146=IFCBUILDINGELEMENTPROXY('1g5TpyaHXSG9VZvTqscnOp',$,'CWL-FRP-01 upper brow and roof-cap fiberglass cast','Locally moulded upper brow/roof-cap cast with washer-cover lands and roof transition flange.',$,#574,#177,'LM3-CWL-P011',$);
#147=IFCPROPERTYSINGLEVALUE('OSRId',$,IFCTEXT('LM3-CWL-P011'),$);
#148=IFCPROPERTYSINGLEVALUE('Parent',$,IFCTEXT('LM3-CWL-SA710'),$);
#149=IFCPROPERTYSINGLEVALUE('Route',$,IFCTEXT('MAKE'),$);
#150=IFCPROPERTYSINGLEVALUE('Maturity',$,IFCTEXT('buildable-after-supplier-freeze'),$);
#151=IFCPROPERTYSINGLEVALUE('QuantityPerTrainset',$,IFCINTEGER(2),$);
#152=IFCPROPERTYSINGLEVALUE('Unit',$,IFCTEXT('ea'),$);
#153=IFCPROPERTYSINGLEVALUE('GeometryStatus',$,IFCTEXT('design-reference-not-released'),$);
#154=IFCPROPERTYSET('2T6POTyJ9UzPJbD$PoXXOX',$,'OSR_ProductDefinition',$,(#147,#148,#149,#150,#151,#152,#153));
#155=IFCRELDEFINESBYPROPERTIES('3dsRVCrSnHuOsni2ewbodm',$,$,$,(#146),#154);
#156=IFCCARTESIANPOINTLIST3D(((-0.625,-1.375,-0.34560000000000002),(-0.625,-1.375,-0.086400000000000005),(-0.625,1.375,-0.34560000000000002),(-0.625,1.375,-0.086400000000000005),(0.625,-1.375,-0.34560000000000002),(0.625,-1.375,-0.086400000000000005),(0.625,1.375,-0.34560000000000002),(0.625,1.375,-0.086400000000000005),(-0.48749999999999999,-1.2649999999999999,-0.12240000000000001),(-0.48749999999999999,-1.2649999999999999,0.12240000000000001),(-0.48749999999999999,1.2649999999999999,-0.12240000000000001),(-0.48749999999999999,1.2649999999999999,0.12240000000000001),(0.48749999999999999,-1.2649999999999999,-0.12240000000000001),(0.48749999999999999,-1.2649999999999999,0.12240000000000001),(0.48749999999999999,1.2649999999999999,-0.12240000000000001),(0.48749999999999999,1.2649999999999999,0.12240000000000001),(-0.32500000000000001,-1.0725,0.12959999999999997),(-0.32500000000000001,-1.0725,0.31680000000000003),(-0.32500000000000001,1.0725,0.12959999999999997),(-0.32500000000000001,1.0725,0.31680000000000003),(0.32500000000000001,-1.0725,0.12959999999999997),(0.32500000000000001,-1.0725,0.31680000000000003),(0.32500000000000001,1.0725,0.12959999999999997),(0.32500000000000001,1.0725,0.31680000000000003)),$);
#157=IFCINDEXEDPOLYGONALFACE((1,2,4,3));
#158=IFCINDEXEDPOLYGONALFACE((5,7,8,6));
#159=IFCINDEXEDPOLYGONALFACE((1,5,6,2));
#160=IFCINDEXEDPOLYGONALFACE((3,4,8,7));
#161=IFCINDEXEDPOLYGONALFACE((1,3,7,5));
#162=IFCINDEXEDPOLYGONALFACE((2,6,8,4));
#163=IFCINDEXEDPOLYGONALFACE((9,10,12,11));
#164=IFCINDEXEDPOLYGONALFACE((13,15,16,14));
#165=IFCINDEXEDPOLYGONALFACE((9,13,14,10));
#166=IFCINDEXEDPOLYGONALFACE((11,12,16,15));
#167=IFCINDEXEDPOLYGONALFACE((9,11,15,13));
#168=IFCINDEXEDPOLYGONALFACE((10,14,16,12));
#169=IFCINDEXEDPOLYGONALFACE((17,18,20,19));
#170=IFCINDEXEDPOLYGONALFACE((21,23,24,22));
#171=IFCINDEXEDPOLYGONALFACE((17,21,22,18));
#172=IFCINDEXEDPOLYGONALFACE((19,20,24,23));
#173=IFCINDEXEDPOLYGONALFACE((17,19,23,21));
#174=IFCINDEXEDPOLYGONALFACE((18,22,24,20));
#175=IFCPOLYGONALFACESET(#156,$,(#157,#158,#159,#160,#161,#162,#163,#164,#165,#166,#167,#168,#169,#170,#171,#172,#173,#174),$);
#176=IFCSHAPEREPRESENTATION(#13,'Body','Tessellation',(#175));
#177=IFCPRODUCTDEFINITIONSHAPE($,$,(#176));
#178=IFCBUILDINGELEMENTPROXY('0cHEUFpt9RO8QYw1z0fEhv',$,'CWL-FRP-02 left cheek fiberglass cast','Locally moulded left cheek/side-return cast carrying the green livery return and split-line closure.',$,#577,#209,'LM3-CWL-P012',$);
#179=IFCPROPERTYSINGLEVALUE('OSRId',$,IFCTEXT('LM3-CWL-P012'),$);
#180=IFCPROPERTYSINGLEVALUE('Parent',$,IFCTEXT('LM3-CWL-SA710'),$);
#181=IFCPROPERTYSINGLEVALUE('Route',$,IFCTEXT('MAKE'),$);
#182=IFCPROPERTYSINGLEVALUE('Maturity',$,IFCTEXT('buildable-after-supplier-freeze'),$);
#183=IFCPROPERTYSINGLEVALUE('QuantityPerTrainset',$,IFCINTEGER(2),$);
#184=IFCPROPERTYSINGLEVALUE('Unit',$,IFCTEXT('ea'),$);
#185=IFCPROPERTYSINGLEVALUE('GeometryStatus',$,IFCTEXT('design-reference-not-released'),$);
#186=IFCPROPERTYSET('2zdteWZprTSRDGhDZSXIro',$,'OSR_ProductDefinition',$,(#179,#180,#181,#182,#183,#184,#185));
#187=IFCRELDEFINESBYPROPERTIES('1Sa6XXt71U4AOcyADOtwLe',$,$,$,(#178),#186);
#188=IFCCARTESIANPOINTLIST3D(((-0.57499999999999996,-0.34999999999999998,-1.1040000000000001),(-0.57499999999999996,-0.34999999999999998,-0.27600000000000002),(-0.57499999999999996,0.34999999999999998,-1.1040000000000001),(-0.57499999999999996,0.34999999999999998,-0.27600000000000002),(0.57499999999999996,-0.34999999999999998,-1.1040000000000001),(0.57499999999999996,-0.34999999999999998,-0.27600000000000002),(0.57499999999999996,0.34999999999999998,-1.1040000000000001),(0.57499999999999996,0.34999999999999998,-0.27600000000000002),(-0.44850000000000001,-0.32200000000000001,-0.39100000000000001),(-0.44850000000000001,-0.32200000000000001,0.39100000000000001),(-0.44850000000000001,0.32200000000000001,-0.39100000000000001),(-0.44850000000000001,0.32200000000000001,0.39100000000000001),(0.44850000000000001,-0.32200000000000001,-0.39100000000000001),(0.44850000000000001,-0.32200000000000001,0.39100000000000001),(0.44850000000000001,0.32200000000000001,-0.39100000000000001),(0.44850000000000001,0.32200000000000001,0.39100000000000001),(-0.29899999999999999,-0.27300000000000002,0.41399999999999998),(-0.29899999999999999,-0.27300000000000002,1.012),(-0.29899999999999999,0.27300000000000002,0.41399999999999998),(-0.29899999999999999,0.27300000000000002,1.012),(0.29899999999999999,-0.27300000000000002,0.41399999999999998),(0.29899999999999999,-0.27300000000000002,1.012),(0.29899999999999999,0.27300000000000002,0.41399999999999998),(0.29899999999999999,0.27300000000000002,1.012)),$);
#189=IFCINDEXEDPOLYGONALFACE((1,2,4,3));
#190=IFCINDEXEDPOLYGONALFACE((5,7,8,6));
#191=IFCINDEXEDPOLYGONALFACE((1,5,6,2));
#192=IFCINDEXEDPOLYGONALFACE((3,4,8,7));
#193=IFCINDEXEDPOLYGONALFACE((1,3,7,5));
#194=IFCINDEXEDPOLYGONALFACE((2,6,8,4));
#195=IFCINDEXEDPOLYGONALFACE((9,10,12,11));
#196=IFCINDEXEDPOLYGONALFACE((13,15,16,14));
#197=IFCINDEXEDPOLYGONALFACE((9,13,14,10));
#198=IFCINDEXEDPOLYGONALFACE((11,12,16,15));
#199=IFCINDEXEDPOLYGONALFACE((9,11,15,13));
#200=IFCINDEXEDPOLYGONALFACE((10,14,16,12));
#201=IFCINDEXEDPOLYGONALFACE((17,18,20,19));
#202=IFCINDEXEDPOLYGONALFACE((21,23,24,22));
#203=IFCINDEXEDPOLYGONALFACE((17,21,22,18));
#204=IFCINDEXEDPOLYGONALFACE((19,20,24,23));
#205=IFCINDEXEDPOLYGONALFACE((17,19,23,21));
#206=IFCINDEXEDPOLYGONALFACE((18,22,24,20));
#207=IFCPOLYGONALFACESET(#188,$,(#189,#190,#191,#192,#193,#194,#195,#196,#197,#198,#199,#200,#201,#202,#203,#204,#205,#206),$);
#208=IFCSHAPEREPRESENTATION(#13,'Body','Tessellation',(#207));
#209=IFCPRODUCTDEFINITIONSHAPE($,$,(#208));
#210=IFCBUILDINGELEMENTPROXY('0L1C4mZ8XND8buuaXP9_Xs',$,'CWL-FRP-03 right cheek fiberglass cast','Locally moulded right cheek/side-return cast using the mirrored cheek datum and common hole pattern.',$,#580,#241,'LM3-CWL-P013',$);
#211=IFCPROPERTYSINGLEVALUE('OSRId',$,IFCTEXT('LM3-CWL-P013'),$);
#212=IFCPROPERTYSINGLEVALUE('Parent',$,IFCTEXT('LM3-CWL-SA710'),$);
#213=IFCPROPERTYSINGLEVALUE('Route',$,IFCTEXT('MAKE'),$);
#214=IFCPROPERTYSINGLEVALUE('Maturity',$,IFCTEXT('buildable-after-supplier-freeze'),$);
#215=IFCPROPERTYSINGLEVALUE('QuantityPerTrainset',$,IFCINTEGER(2),$);
#216=IFCPROPERTYSINGLEVALUE('Unit',$,IFCTEXT('ea'),$);
#217=IFCPROPERTYSINGLEVALUE('GeometryStatus',$,IFCTEXT('design-reference-not-released'),$);
#218=IFCPROPERTYSET('3ZfWwfrrDPdxoa14XkXDtD',$,'OSR_ProductDefinition',$,(#211,#212,#213,#214,#215,#216,#217));
#219=IFCRELDEFINESBYPROPERTIES('24awVNzrfQ6BjKx2iUv7Vn',$,$,$,(#210),#218);
#220=IFCCARTESIANPOINTLIST3D(((-0.57499999999999996,-0.34999999999999998,-1.1040000000000001),(-0.57499999999999996,-0.34999999999999998,-0.27600000000000002),(-0.57499999999999996,0.34999999999999998,-1.1040000000000001),(-0.57499999999999996,0.34999999999999998,-0.27600000000000002),(0.57499999999999996,-0.34999999999999998,-1.1040000000000001),(0.57499999999999996,-0.34999999999999998,-0.27600000000000002),(0.57499999999999996,0.34999999999999998,-1.1040000000000001),(0.57499999999999996,0.34999999999999998,-0.27600000000000002),(-0.44850000000000001,-0.32200000000000001,-0.39100000000000001),(-0.44850000000000001,-0.32200000000000001,0.39100000000000001),(-0.44850000000000001,0.32200000000000001,-0.39100000000000001),(-0.44850000000000001,0.32200000000000001,0.39100000000000001),(0.44850000000000001,-0.32200000000000001,-0.39100000000000001),(0.44850000000000001,-0.32200000000000001,0.39100000000000001),(0.44850000000000001,0.32200000000000001,-0.39100000000000001),(0.44850000000000001,0.32200000000000001,0.39100000000000001),(-0.29899999999999999,-0.27300000000000002,0.41399999999999998),(-0.29899999999999999,-0.27300000000000002,1.012),(-0.29899999999999999,0.27300000000000002,0.41399999999999998),(-0.29899999999999999,0.27300000000000002,1.012),(0.29899999999999999,-0.27300000000000002,0.41399999999999998),(0.29899999999999999,-0.27300000000000002,1.012),(0.29899999999999999,0.27300000000000002,0.41399999999999998),(0.29899999999999999,0.27300000000000002,1.012)),$);
#221=IFCINDEXEDPOLYGONALFACE((1,2,4,3));
#222=IFCINDEXEDPOLYGONALFACE((5,7,8,6));
#223=IFCINDEXEDPOLYGONALFACE((1,5,6,2));
#224=IFCINDEXEDPOLYGONALFACE((3,4,8,7));
#225=IFCINDEXEDPOLYGONALFACE((1,3,7,5));
#226=IFCINDEXEDPOLYGONALFACE((2,6,8,4));
#227=IFCINDEXEDPOLYGONALFACE((9,10,12,11));
#228=IFCINDEXEDPOLYGONALFACE((13,15,16,14));
#229=IFCINDEXEDPOLYGONALFACE((9,13,14,10));
#230=IFCINDEXEDPOLYGONALFACE((11,12,16,15));
#231=IFCINDEXEDPOLYGONALFACE((9,11,15,13));
#232=IFCINDEXEDPOLYGONALFACE((10,14,16,12));
#233=IFCINDEXEDPOLYGONALFACE((17,18,20,19));
#234=IFCINDEXEDPOLYGONALFACE((21,23,24,22));
#235=IFCINDEXEDPOLYGONALFACE((17,21,22,18));
#236=IFCINDEXEDPOLYGONALFACE((19,20,24,23));
#237=IFCINDEXEDPOLYGONALFACE((17,19,23,21));
#238=IFCINDEXEDPOLYGONALFACE((18,22,24,20));
#239=IFCPOLYGONALFACESET(#220,$,(#221,#222,#223,#224,#225,#226,#227,#228,#229,#230,#231,#232,#233,#234,#235,#236,#237,#238),$);
#240=IFCSHAPEREPRESENTATION(#13,'Body','Tessellation',(#239));
#241=IFCPRODUCTDEFINITIONSHAPE($,$,(#240));
#242=IFCBUILDINGELEMENTPROXY('0vC_oz4TnPd8ESzT2LgWW6',$,'CWL-FRP-04 lower apron and anti-climber cover fiberglass cast','Locally moulded lower apron cast with lamp recess support and removable coupler/recovery access envelope.',$,#583,#273,'LM3-CWL-P014',$);
#243=IFCPROPERTYSINGLEVALUE('OSRId',$,IFCTEXT('LM3-CWL-P014'),$);
#244=IFCPROPERTYSINGLEVALUE('Parent',$,IFCTEXT('LM3-CWL-SA710'),$);
#245=IFCPROPERTYSINGLEVALUE('Route',$,IFCTEXT('MAKE'),$);
#246=IFCPROPERTYSINGLEVALUE('Maturity',$,IFCTEXT('buildable-after-supplier-freeze'),$);
#247=IFCPROPERTYSINGLEVALUE('QuantityPerTrainset',$,IFCINTEGER(2),$);
#248=IFCPROPERTYSINGLEVALUE('Unit',$,IFCTEXT('ea'),$);
#249=IFCPROPERTYSINGLEVALUE('GeometryStatus',$,IFCTEXT('design-reference-not-released'),$);
#250=IFCPROPERTYSET('01SBMYhPLIbeD$2rieJVbG',$,'OSR_ProductDefinition',$,(#243,#244,#245,#246,#247,#248,#249));
#251=IFCRELDEFINESBYPROPERTIES('10gMSZzSTO2xKnzI5VdEkU',$,$,$,(#242),#250);
#252=IFCCARTESIANPOINTLIST3D(((-0.5,-1.325,-0.36479999999999996),(-0.5,-1.325,-0.091200000000000017),(-0.5,1.325,-0.36479999999999996),(-0.5,1.325,-0.091200000000000017),(0.5,-1.325,-0.36479999999999996),(0.5,-1.325,-0.091200000000000017),(0.5,1.325,-0.36479999999999996),(0.5,1.325,-0.091200000000000017),(-0.39000000000000001,-1.2190000000000001,-0.12920000000000001),(-0.39000000000000001,-1.2190000000000001,0.12920000000000001),(-0.39000000000000001,1.2190000000000001,-0.12920000000000001),(-0.39000000000000001,1.2190000000000001,0.12920000000000001),(0.39000000000000001,-1.2190000000000001,-0.12920000000000001),(0.39000000000000001,-1.2190000000000001,0.12920000000000001),(0.39000000000000001,1.2190000000000001,-0.12920000000000001),(0.39000000000000001,1.2190000000000001,0.12920000000000001),(-0.26000000000000001,-1.0335000000000001,0.1368),(-0.26000000000000001,-1.0335000000000001,0.33439999999999998),(-0.26000000000000001,1.0335000000000001,0.1368),(-0.26000000000000001,1.0335000000000001,0.33439999999999998),(0.26000000000000001,-1.0335000000000001,0.1368),(0.26000000000000001,-1.0335000000000001,0.33439999999999998),(0.26000000000000001,1.0335000000000001,0.1368),(0.26000000000000001,1.0335000000000001,0.33439999999999998)),$);
#253=IFCINDEXEDPOLYGONALFACE((1,2,4,3));
#254=IFCINDEXEDPOLYGONALFACE((5,7,8,6));
#255=IFCINDEXEDPOLYGONALFACE((1,5,6,2));
#256=IFCINDEXEDPOLYGONALFACE((3,4,8,7));
#257=IFCINDEXEDPOLYGONALFACE((1,3,7,5));
#258=IFCINDEXEDPOLYGONALFACE((2,6,8,4));
#259=IFCINDEXEDPOLYGONALFACE((9,10,12,11));
#260=IFCINDEXEDPOLYGONALFACE((13,15,16,14));
#261=IFCINDEXEDPOLYGONALFACE((9,13,14,10));
#262=IFCINDEXEDPOLYGONALFACE((11,12,16,15));
#263=IFCINDEXEDPOLYGONALFACE((9,11,15,13));
#264=IFCINDEXEDPOLYGONALFACE((10,14,16,12));
#265=IFCINDEXEDPOLYGONALFACE((17,18,20,19));
#266=IFCINDEXEDPOLYGONALFACE((21,23,24,22));
#267=IFCINDEXEDPOLYGONALFACE((17,21,22,18));
#268=IFCINDEXEDPOLYGONALFACE((19,20,24,23));
#269=IFCINDEXEDPOLYGONALFACE((17,19,23,21));
#270=IFCINDEXEDPOLYGONALFACE((18,22,24,20));
#271=IFCPOLYGONALFACESET(#252,$,(#253,#254,#255,#256,#257,#258,#259,#260,#261,#262,#263,#264,#265,#266,#267,#268,#269,#270),$);
#272=IFCSHAPEREPRESENTATION(#13,'Body','Tessellation',(#271));
#273=IFCPRODUCTDEFINITIONSHAPE($,$,(#272));
#274=IFCBUILDINGELEMENTPROXY('34nPmJ96nKERLryQDDtZjJ',$,'CWL-FRP-05 lamp, washer, and service-hatch fiberglass cast set','Small removable hatch casts with potted inserts, continuous gasket land, and retained-fastener access.',$,#586,#305,'LM3-CWL-P015',$);
#275=IFCPROPERTYSINGLEVALUE('OSRId',$,IFCTEXT('LM3-CWL-P015'),$);
#276=IFCPROPERTYSINGLEVALUE('Parent',$,IFCTEXT('LM3-CWL-SA710'),$);
#277=IFCPROPERTYSINGLEVALUE('Route',$,IFCTEXT('MAKE'),$);
#278=IFCPROPERTYSINGLEVALUE('Maturity',$,IFCTEXT('buildable-after-supplier-freeze'),$);
#279=IFCPROPERTYSINGLEVALUE('QuantityPerTrainset',$,IFCINTEGER(4),$);
#280=IFCPROPERTYSINGLEVALUE('Unit',$,IFCTEXT('hatch'),$);
#281=IFCPROPERTYSINGLEVALUE('GeometryStatus',$,IFCTEXT('design-reference-not-released'),$);
#282=IFCPROPERTYSET('0z1GJ3FhvKiRufqtuK_zdv',$,'OSR_ProductDefinition',$,(#275,#276,#277,#278,#279,#280,#281));
#283=IFCRELDEFINESBYPROPERTIES('1kKD0ckB9VbA2c2um1MSRh',$,$,$,(#274),#282);
#284=IFCCARTESIANPOINTLIST3D(((-0.32500000000000001,-0.26000000000000001,-0.2016),(-0.32500000000000001,-0.26000000000000001,-0.050400000000000007),(-0.32500000000000001,0.26000000000000001,-0.2016),(-0.32500000000000001,0.26000000000000001,-0.050400000000000007),(0.32500000000000001,-0.26000000000000001,-0.2016),(0.32500000000000001,-0.26000000000000001,-0.050400000000000007),(0.32500000000000001,0.26000000000000001,-0.2016),(0.32500000000000001,0.26000000000000001,-0.050400000000000007),(-0.2535,-0.23920000000000002,-0.071400000000000005),(-0.2535,-0.23920000000000002,0.071400000000000005),(-0.2535,0.23920000000000002,-0.071400000000000005),(-0.2535,0.23920000000000002,0.071400000000000005),(0.2535,-0.23920000000000002,-0.071400000000000005),(0.2535,-0.23920000000000002,0.071400000000000005),(0.2535,0.23920000000000002,-0.071400000000000005),(0.2535,0.23920000000000002,0.071400000000000005),(-0.16900000000000001,-0.20280000000000001,0.075600000000000001),(-0.16900000000000001,-0.20280000000000001,0.18479999999999999),(-0.16900000000000001,0.20280000000000001,0.075600000000000001),(-0.16900000000000001,0.20280000000000001,0.18479999999999999),(0.16900000000000001,-0.20280000000000001,0.075600000000000001),(0.16900000000000001,-0.20280000000000001,0.18479999999999999),(0.16900000000000001,0.20280000000000001,0.075600000000000001),(0.16900000000000001,0.20280000000000001,0.18479999999999999)),$);
#285=IFCINDEXEDPOLYGONALFACE((1,2,4,3));
#286=IFCINDEXEDPOLYGONALFACE((5,7,8,6));
#287=IFCINDEXEDPOLYGONALFACE((1,5,6,2));
#288=IFCINDEXEDPOLYGONALFACE((3,4,8,7));
#289=IFCINDEXEDPOLYGONALFACE((1,3,7,5));
#290=IFCINDEXEDPOLYGONALFACE((2,6,8,4));
#291=IFCINDEXEDPOLYGONALFACE((9,10,12,11));
#292=IFCINDEXEDPOLYGONALFACE((13,15,16,14));
#293=IFCINDEXEDPOLYGONALFACE((9,13,14,10));
#294=IFCINDEXEDPOLYGONALFACE((11,12,16,15));
#295=IFCINDEXEDPOLYGONALFACE((9,11,15,13));
#296=IFCINDEXEDPOLYGONALFACE((10,14,16,12));
#297=IFCINDEXEDPOLYGONALFACE((17,18,20,19));
#298=IFCINDEXEDPOLYGONALFACE((21,23,24,22));
#299=IFCINDEXEDPOLYGONALFACE((17,21,22,18));
#300=IFCINDEXEDPOLYGONALFACE((19,20,24,23));
#301=IFCINDEXEDPOLYGONALFACE((17,19,23,21));
#302=IFCINDEXEDPOLYGONALFACE((18,22,24,20));
#303=IFCPOLYGONALFACESET(#284,$,(#285,#286,#287,#288,#289,#290,#291,#292,#293,#294,#295,#296,#297,#298,#299,#300,#301,#302),$);
#304=IFCSHAPEREPRESENTATION(#13,'Body','Tessellation',(#303));
#305=IFCPRODUCTDEFINITIONSHAPE($,$,(#304));
#306=IFCBUILDINGELEMENTPROXY('078sQwbbLMHvQ5Z5JpGtJM',$,'CWL-FRP-06 backing-ring flange fiberglass cast set','Solid-laminate backing-ring flange sections that carry seals, glass-carrier lands, and split-line closures without carrying crash loads.',$,#589,#343,'LM3-CWL-P016',$);
#307=IFCPROPERTYSINGLEVALUE('OSRId',$,IFCTEXT('LM3-CWL-P016'),$);
#308=IFCPROPERTYSINGLEVALUE('Parent',$,IFCTEXT('LM3-CWL-SA710'),$);
#309=IFCPROPERTYSINGLEVALUE('Route',$,IFCTEXT('MAKE'),$);
#310=IFCPROPERTYSINGLEVALUE('Maturity',$,IFCTEXT('buildable-after-supplier-freeze'),$);
#311=IFCPROPERTYSINGLEVALUE('QuantityPerTrainset',$,IFCINTEGER(8),$);
#312=IFCPROPERTYSINGLEVALUE('Unit',$,IFCTEXT('flange section'),$);
#313=IFCPROPERTYSINGLEVALUE('GeometryStatus',$,IFCTEXT('design-reference-not-released'),$);
#314=IFCPROPERTYSET('3KKKAFvzHNGQmmodqsH2rv',$,'OSR_ProductDefinition',$,(#307,#308,#309,#310,#311,#312,#313));
#315=IFCRELDEFINESBYPROPERTIES('2pwl_B9FPVI8Df$0ODH7sm',$,$,$,(#306),#314);
#316=IFCCARTESIANPOINTLIST3D(((-0.35999999999999999,-0.059999999999999998,-0.35999999999999999),(-0.35999999999999999,-0.059999999999999998,0.35999999999999999),(-0.35999999999999999,0.059999999999999998,-0.35999999999999999),(-0.35999999999999999,0.059999999999999998,0.35999999999999999),(-0.28799999999999998,-0.059999999999999998,-0.35999999999999999),(-0.28799999999999998,-0.059999999999999998,0.35999999999999999),(-0.28799999999999998,0.059999999999999998,-0.35999999999999999),(-0.28799999999999998,0.059999999999999998,0.35999999999999999),(0.28799999999999998,-0.059999999999999998,-0.35999999999999999),(0.28799999999999998,-0.059999999999999998,0.35999999999999999),(0.28799999999999998,0.059999999999999998,-0.35999999999999999),(0.28799999999999998,0.059999999999999998,0.35999999999999999),(0.35999999999999999,-0.059999999999999998,-0.35999999999999999),(0.35999999999999999,-0.059999999999999998,0.35999999999999999),(0.35999999999999999,0.059999999999999998,-0.35999999999999999),(0.35999999999999999,0.059999999999999998,0.35999999999999999),(-0.28799999999999998,-0.059999999999999998,0.28799999999999998),(-0.28799999999999998,-0.059999999999999998,0.35999999999999999),(-0.28799999999999998,0.059999999999999998,0.28799999999999998),(-0.28799999999999998,0.059999999999999998,0.35999999999999999),(0.28799999999999998,-0.059999999999999998,0.28799999999999998),(0.28799999999999998,-0.059999999999999998,0.35999999999999999),(0.28799999999999998,0.059999999999999998,0.28799999999999998),(0.28799999999999998,0.059999999999999998,0.35999999999999999),(-0.28799999999999998,-0.059999999999999998,-0.35999999999999999),(-0.28799999999999998,-0.059999999999999998,-0.28799999999999998),(-0.28799999999999998,0.059999999999999998,-0.35999999999999999),(-0.28799999999999998,0.059999999999999998,-0.28799999999999998),(0.28799999999999998,-0.059999999999999998,-0.35999999999999999),(0.28799999999999998,-0.059999999999999998,-0.28799999999999998),(0.28799999999999998,0.059999999999999998,-0.35999999999999999),(0.28799999999999998,0.059999999999999998,-0.28799999999999998)),$);
#317=IFCINDEXEDPOLYGONALFACE((1,2,4,3));
#318=IFCINDEXEDPOLYGONALFACE((5,7,8,6));
#319=IFCINDEXEDPOLYGONALFACE((1,5,6,2));
#320=IFCINDEXEDPOLYGONALFACE((3,4,8,7));
#321=IFCINDEXEDPOLYGONALFACE((1,3,7,5));
#322=IFCINDEXEDPOLYGONALFACE((2,6,8,4));
#323=IFCINDEXEDPOLYGONALFACE((9,10,12,11));
#324=IFCINDEXEDPOLYGONALFACE((13,15,16,14));
#325=IFCINDEXEDPOLYGONALFACE((9,13,14,10));
#326=IFCINDEXEDPOLYGONALFACE((11,12,16,15));
#327=IFCINDEXEDPOLYGONALFACE((9,11,15,13));
#328=IFCINDEXEDPOLYGONALFACE((10,14,16,12));
#329=IFCINDEXEDPOLYGONALFACE((17,18,20,19));
#330=IFCINDEXEDPOLYGONALFACE((21,23,24,22));
#331=IFCINDEXEDPOLYGONALFACE((17,21,22,18));
#332=IFCINDEXEDPOLYGONALFACE((19,20,24,23));
#333=IFCINDEXEDPOLYGONALFACE((17,19,23,21));
#334=IFCINDEXEDPOLYGONALFACE((18,22,24,20));
#335=IFCINDEXEDPOLYGONALFACE((25,26,28,27));
#336=IFCINDEXEDPOLYGONALFACE((29,31,32,30));
#337=IFCINDEXEDPOLYGONALFACE((25,29,30,26));
#338=IFCINDEXEDPOLYGONALFACE((27,28,32,31));
#339=IFCINDEXEDPOLYGONALFACE((25,27,31,29));
#340=IFCINDEXEDPOLYGONALFACE((26,30,32,28));
#341=IFCPOLYGONALFACESET(#316,$,(#317,#318,#319,#320,#321,#322,#323,#324,#325,#326,#327,#328,#329,#330,#331,#332,#333,#334,#335,#336,#337,#338,#339,#340),$);
#342=IFCSHAPEREPRESENTATION(#13,'Body','Tessellation',(#341));
#343=IFCPRODUCTDEFINITIONSHAPE($,$,(#342));
#344=IFCWINDOW('3b9CQKnIbVVgV$ZdxHcZ1r',$,'single panoramic heated end-glass assembly','RF-transparent heated/de-iced panoramic glass for cabless end.',$,#592,#387,'LM3-EXT-P030',$,$,$,$,$);
#345=IFCPROPERTYSINGLEVALUE('OSRId',$,IFCTEXT('LM3-EXT-P030'),$);
#346=IFCPROPERTYSINGLEVALUE('Parent',$,IFCTEXT('LM3-END-SA700'),$);
#347=IFCPROPERTYSINGLEVALUE('Route',$,IFCTEXT('BID'),$);
#348=IFCPROPERTYSINGLEVALUE('Maturity',$,IFCTEXT('buildable-after-supplier-freeze'),$);
#349=IFCPROPERTYSINGLEVALUE('QuantityPerTrainset',$,IFCINTEGER(2),$);
#350=IFCPROPERTYSINGLEVALUE('Unit',$,IFCTEXT('ea'),$);
#351=IFCPROPERTYSINGLEVALUE('GeometryStatus',$,IFCTEXT('design-reference-not-released'),$);
#352=IFCPROPERTYSET('3Iqu771RvMfQ9hsYyDCuHX',$,'OSR_ProductDefinition',$,(#345,#346,#347,#348,#349,#350,#351));
#353=IFCRELDEFINESBYPROPERTIES('32dQ4lm9nHx97WZ55JXcef',$,$,$,(#344),#352);
#354=IFCCARTESIANPOINTLIST3D(((-1.1499999999999999,-0.055,-0.72499999999999998),(-1.1499999999999999,-0.055,0.72499999999999998),(-1.1499999999999999,0.055,-0.72499999999999998),(-1.1499999999999999,0.055,0.72499999999999998),(-1.01,-0.055,-0.72499999999999998),(-1.01,-0.055,0.72499999999999998),(-1.01,0.055,-0.72499999999999998),(-1.01,0.055,0.72499999999999998),(1.01,-0.055,-0.72499999999999998),(1.01,-0.055,0.72499999999999998),(1.01,0.055,-0.72499999999999998),(1.01,0.055,0.72499999999999998),(1.1499999999999999,-0.055,-0.72499999999999998),(1.1499999999999999,-0.055,0.72499999999999998),(1.1499999999999999,0.055,-0.72499999999999998),(1.1499999999999999,0.055,0.72499999999999998),(-1.01,-0.055,0.58499999999999996),(-1.01,-0.055,0.72499999999999998),(-1.01,0.055,0.58499999999999996),(-1.01,0.055,0.72499999999999998),(1.01,-0.055,0.58499999999999996),(1.01,-0.055,0.72499999999999998),(1.01,0.055,0.58499999999999996),(1.01,0.055,0.72499999999999998),(-1.01,-0.055,-0.72499999999999998),(-1.01,-0.055,-0.58499999999999996),(-1.01,0.055,-0.72499999999999998),(-1.01,0.055,-0.58499999999999996),(1.01,-0.055,-0.72499999999999998),(1.01,-0.055,-0.58499999999999996),(1.01,0.055,-0.72499999999999998),(1.01,0.055,-0.58499999999999996),(-0.94299999999999995,-0.024750000000000001,-0.59450000000000003),(-0.94299999999999995,-0.024750000000000001,0.59450000000000003),(-0.94299999999999995,0.024750000000000001,-0.59450000000000003),(-0.94299999999999995,0.024750000000000001,0.59450000000000003),(0.94299999999999995,-0.024750000000000001,-0.59450000000000003),(0.94299999999999995,-0.024750000000000001,0.59450000000000003),(0.94299999999999995,0.024750000000000001,-0.59450000000000003),(0.94299999999999995,0.024750000000000001,0.59450000000000003)),$);
#355=IFCINDEXEDPOLYGONALFACE((1,2,4,3));
#356=IFCINDEXEDPOLYGONALFACE((5,7,8,6));
#357=IFCINDEXEDPOLYGONALFACE((1,5,6,2));
#358=IFCINDEXEDPOLYGONALFACE((3,4,8,7));
#359=IFCINDEXEDPOLYGONALFACE((1,3,7,5));
#360=IFCINDEXEDPOLYGONALFACE((2,6,8,4));
#361=IFCINDEXEDPOLYGONALFACE((9,10,12,11));
#362=IFCINDEXEDPOLYGONALFACE((13,15,16,14));
#363=IFCINDEXEDPOLYGONALFACE((9,13,14,10));
#364=IFCINDEXEDPOLYGONALFACE((11,12,16,15));
#365=IFCINDEXEDPOLYGONALFACE((9,11,15,13));
#366=IFCINDEXEDPOLYGONALFACE((10,14,16,12));
#367=IFCINDEXEDPOLYGONALFACE((17,18,20,19));
#368=IFCINDEXEDPOLYGONALFACE((21,23,24,22));
#369=IFCINDEXEDPOLYGONALFACE((17,21,22,18));
#370=IFCINDEXEDPOLYGONALFACE((19,20,24,23));
#371=IFCINDEXEDPOLYGONALFACE((17,19,23,21));
#372=IFCINDEXEDPOLYGONALFACE((18,22,24,20));
#373=IFCINDEXEDPOLYGONALFACE((25,26,28,27));
#374=IFCINDEXEDPOLYGONALFACE((29,31,32,30));
#375=IFCINDEXEDPOLYGONALFACE((25,29,30,26));
#376=IFCINDEXEDPOLYGONALFACE((27,28,32,31));
#377=IFCINDEXEDPOLYGONALFACE((25,27,31,29));
#378=IFCINDEXEDPOLYGONALFACE((26,30,32,28));
#379=IFCINDEXEDPOLYGONALFACE((33,34,36,35));
#380=IFCINDEXEDPOLYGONALFACE((37,39,40,38));
#381=IFCINDEXEDPOLYGONALFACE((33,37,38,34));
#382=IFCINDEXEDPOLYGONALFACE((35,36,40,39));
#383=IFCINDEXEDPOLYGONALFACE((33,35,39,37));
#384=IFCINDEXEDPOLYGONALFACE((34,38,40,36));
#385=IFCPOLYGONALFACESET(#354,$,(#355,#356,#357,#358,#359,#360,#361,#362,#363,#364,#365,#366,#367,#368,#369,#370,#371,#372,#373,#374,#375,#376,#377,#378,#379,#380,#381,#382,#383,#384),$);
#386=IFCSHAPEREPRESENTATION(#13,'Body','Tessellation',(#385));
#387=IFCPRODUCTDEFINITIONSHAPE($,$,(#386));
#388=IFCBUILDINGELEMENTPROXY('2KlqpuAdvNbgeNnt2TXEwl',$,'automatic end coupler and crash-energy absorber','Certified coupler/crash absorber bolted into OSR pocket.',$,#595,#419,'LM3-END-P010',$);
#389=IFCPROPERTYSINGLEVALUE('OSRId',$,IFCTEXT('LM3-END-P010'),$);
#390=IFCPROPERTYSINGLEVALUE('Parent',$,IFCTEXT('LM3-END-SA700'),$);
#391=IFCPROPERTYSINGLEVALUE('Route',$,IFCTEXT('BID'),$);
#392=IFCPROPERTYSINGLEVALUE('Maturity',$,IFCTEXT('buildable-after-supplier-freeze'),$);
#393=IFCPROPERTYSINGLEVALUE('QuantityPerTrainset',$,IFCINTEGER(2),$);
#394=IFCPROPERTYSINGLEVALUE('Unit',$,IFCTEXT('ea'),$);
#395=IFCPROPERTYSINGLEVALUE('GeometryStatus',$,IFCTEXT('design-reference-not-released'),$);
#396=IFCPROPERTYSET('3Nw$V1yNrM$RV1OwnSLZMy',$,'OSR_ProductDefinition',$,(#389,#390,#391,#392,#393,#394,#395));
#397=IFCRELDEFINESBYPROPERTIES('02VeqEK_LTBwm3bz0KVs39',$,$,$,(#388),#396);
#398=IFCCARTESIANPOINTLIST3D(((-0.629,-0.114,-0.092999999999999999),(-0.629,-0.114,0.092999999999999999),(-0.629,0.114,-0.092999999999999999),(-0.629,0.114,0.092999999999999999),(0.629,-0.114,-0.092999999999999999),(0.629,-0.114,0.092999999999999999),(0.629,0.114,-0.092999999999999999),(0.629,0.114,0.092999999999999999),(0.43475000000000003,-0.38,-0.31),(0.43475000000000003,-0.38,0.31),(0.43475000000000003,0.38,-0.31),(0.43475000000000003,0.38,0.31),(0.89724999999999999,-0.38,-0.31),(0.89724999999999999,-0.38,0.31),(0.89724999999999999,0.38,-0.31),(0.89724999999999999,0.38,0.31),(-0.90649999999999997,-0.27359999999999995,-0.22319999999999998),(-0.90649999999999997,-0.27359999999999995,0.22319999999999998),(-0.90649999999999997,0.27359999999999995,-0.22319999999999998),(-0.90649999999999997,0.27359999999999995,0.22319999999999998),(-0.4995,-0.27359999999999995,-0.22319999999999998),(-0.4995,-0.27359999999999995,0.22319999999999998),(-0.4995,0.27359999999999995,-0.22319999999999998),(-0.4995,0.27359999999999995,0.22319999999999998)),$);
#399=IFCINDEXEDPOLYGONALFACE((1,2,4,3));
#400=IFCINDEXEDPOLYGONALFACE((5,7,8,6));
#401=IFCINDEXEDPOLYGONALFACE((1,5,6,2));
#402=IFCINDEXEDPOLYGONALFACE((3,4,8,7));
#403=IFCINDEXEDPOLYGONALFACE((1,3,7,5));
#404=IFCINDEXEDPOLYGONALFACE((2,6,8,4));
#405=IFCINDEXEDPOLYGONALFACE((9,10,12,11));
#406=IFCINDEXEDPOLYGONALFACE((13,15,16,14));
#407=IFCINDEXEDPOLYGONALFACE((9,13,14,10));
#408=IFCINDEXEDPOLYGONALFACE((11,12,16,15));
#409=IFCINDEXEDPOLYGONALFACE((9,11,15,13));
#410=IFCINDEXEDPOLYGONALFACE((10,14,16,12));
#411=IFCINDEXEDPOLYGONALFACE((17,18,20,19));
#412=IFCINDEXEDPOLYGONALFACE((21,23,24,22));
#413=IFCINDEXEDPOLYGONALFACE((17,21,22,18));
#414=IFCINDEXEDPOLYGONALFACE((19,20,24,23));
#415=IFCINDEXEDPOLYGONALFACE((17,19,23,21));
#416=IFCINDEXEDPOLYGONALFACE((18,22,24,20));
#417=IFCPOLYGONALFACESET(#398,$,(#399,#400,#401,#402,#403,#404,#405,#406,#407,#408,#409,#410,#411,#412,#413,#414,#415,#416),$);
#418=IFCSHAPEREPRESENTATION(#13,'Body','Tessellation',(#417));
#419=IFCPRODUCTDEFINITIONSHAPE($,$,(#418));
#420=IFCBUILDINGELEMENTPROXY('0uYwTGxSHSSBExVZKgBtWL',$,'T-OBS nose sensor pack, heated window services, and washer kit','Per-end obstacle-detection module aligned to the cowl optical/radar datum.',$,#598,#451,'LM3-END-P020',$);
#421=IFCPROPERTYSINGLEVALUE('OSRId',$,IFCTEXT('LM3-END-P020'),$);
#422=IFCPROPERTYSINGLEVALUE('Parent',$,IFCTEXT('LM3-END-SA700'),$);
#423=IFCPROPERTYSINGLEVALUE('Route',$,IFCTEXT('BID'),$);
#424=IFCPROPERTYSINGLEVALUE('Maturity',$,IFCTEXT('buildable-after-supplier-freeze'),$);
#425=IFCPROPERTYSINGLEVALUE('QuantityPerTrainset',$,IFCINTEGER(2),$);
#426=IFCPROPERTYSINGLEVALUE('Unit',$,IFCTEXT('ea'),$);
#427=IFCPROPERTYSINGLEVALUE('GeometryStatus',$,IFCTEXT('design-reference-not-released'),$);
#428=IFCPROPERTYSET('1RB931hL1JZO8wBoECN$g8',$,'OSR_ProductDefinition',$,(#421,#422,#423,#424,#425,#426,#427));
#429=IFCRELDEFINESBYPROPERTIES('0HLrSZ$D1JnwvRN1PzRdD1',$,$,$,(#420),#428);
#430=IFCCARTESIANPOINTLIST3D(((-0.52500000000000002,-0.92500000000000004,-0.2132),(-0.52500000000000002,-0.92500000000000004,0.2132),(-0.52500000000000002,0.92500000000000004,-0.2132),(-0.52500000000000002,0.92500000000000004,0.2132),(0.52500000000000002,-0.92500000000000004,-0.2132),(0.52500000000000002,-0.92500000000000004,0.2132),(0.52500000000000002,0.92500000000000004,-0.2132),(0.52500000000000002,0.92500000000000004,0.2132),(-0.43049999999999999,-0.92500000000000004,-0.24959999999999999),(-0.43049999999999999,-0.92500000000000004,-0.18720000000000001),(-0.43049999999999999,-0.70299999999999996,-0.24959999999999999),(-0.43049999999999999,-0.70299999999999996,-0.18720000000000001),(0.43049999999999999,-0.92500000000000004,-0.24959999999999999),(0.43049999999999999,-0.92500000000000004,-0.18720000000000001),(0.43049999999999999,-0.70299999999999996,-0.24959999999999999),(0.43049999999999999,-0.70299999999999996,-0.18720000000000001),(0.189,0.61050000000000004,-0.041599999999999998),(0.189,0.61050000000000004,0.041599999999999998),(0.189,0.86950000000000005,-0.041599999999999998),(0.189,0.86950000000000005,0.041599999999999998),(0.441,0.61050000000000004,-0.041599999999999998),(0.441,0.61050000000000004,0.041599999999999998),(0.441,0.86950000000000005,-0.041599999999999998),(0.441,0.86950000000000005,0.041599999999999998)),$);
#431=IFCINDEXEDPOLYGONALFACE((1,2,4,3));
#432=IFCINDEXEDPOLYGONALFACE((5,7,8,6));
#433=IFCINDEXEDPOLYGONALFACE((1,5,6,2));
#434=IFCINDEXEDPOLYGONALFACE((3,4,8,7));
#435=IFCINDEXEDPOLYGONALFACE((1,3,7,5));
#436=IFCINDEXEDPOLYGONALFACE((2,6,8,4));
#437=IFCINDEXEDPOLYGONALFACE((9,10,12,11));
#438=IFCINDEXEDPOLYGONALFACE((13,15,16,14));
#439=IFCINDEXEDPOLYGONALFACE((9,13,14,10));
#440=IFCINDEXEDPOLYGONALFACE((11,12,16,15));
#441=IFCINDEXEDPOLYGONALFACE((9,11,15,13));
#442=IFCINDEXEDPOLYGONALFACE((10,14,16,12));
#443=IFCINDEXEDPOLYGONALFACE((17,18,20,19));
#444=IFCINDEXEDPOLYGONALFACE((21,23,24,22));
#445=IFCINDEXEDPOLYGONALFACE((17,21,22,18));
#446=IFCINDEXEDPOLYGONALFACE((19,20,24,23));
#447=IFCINDEXEDPOLYGONALFACE((17,19,23,21));
#448=IFCINDEXEDPOLYGONALFACE((18,22,24,20));
#449=IFCPOLYGONALFACESET(#430,$,(#431,#432,#433,#434,#435,#436,#437,#438,#439,#440,#441,#442,#443,#444,#445,#446,#447,#448),$);
#450=IFCSHAPEREPRESENTATION(#13,'Body','Tessellation',(#449));
#451=IFCPRODUCTDEFINITIONSHAPE($,$,(#450));
#452=IFCBUILDINGELEMENTPROXY('1xFOiH_rLUg9wMZbhfhZUS',$,'cowl service hatch, sensor backing bracket, washer-tube, and heater-cable clip kit','Local brackets and service access hardware for the nose sensor and heated glass services.',$,#601,#483,'LM3-END-P030',$);
#453=IFCPROPERTYSINGLEVALUE('OSRId',$,IFCTEXT('LM3-END-P030'),$);
#454=IFCPROPERTYSINGLEVALUE('Parent',$,IFCTEXT('LM3-END-SA700'),$);
#455=IFCPROPERTYSINGLEVALUE('Route',$,IFCTEXT('MAKE'),$);
#456=IFCPROPERTYSINGLEVALUE('Maturity',$,IFCTEXT('release-candidate'),$);
#457=IFCPROPERTYSINGLEVALUE('QuantityPerTrainset',$,IFCINTEGER(2),$);
#458=IFCPROPERTYSINGLEVALUE('Unit',$,IFCTEXT('end kit'),$);
#459=IFCPROPERTYSINGLEVALUE('GeometryStatus',$,IFCTEXT('design-reference-not-released'),$);
#460=IFCPROPERTYSET('07CajTnP9OHxxKxU$_ivW5',$,'OSR_ProductDefinition',$,(#453,#454,#455,#456,#457,#458,#459));
#461=IFCRELDEFINESBYPROPERTIES('2Flso77nvKMuSkAHbsG0OB',$,$,$,(#452),#460);
#462=IFCCARTESIANPOINTLIST3D(((-0.45000000000000001,-0.34999999999999998,-0.2016),(-0.45000000000000001,-0.34999999999999998,-0.050400000000000007),(-0.45000000000000001,0.34999999999999998,-0.2016),(-0.45000000000000001,0.34999999999999998,-0.050400000000000007),(0.45000000000000001,-0.34999999999999998,-0.2016),(0.45000000000000001,-0.34999999999999998,-0.050400000000000007),(0.45000000000000001,0.34999999999999998,-0.2016),(0.45000000000000001,0.34999999999999998,-0.050400000000000007),(-0.35099999999999998,-0.32200000000000001,-0.071400000000000005),(-0.35099999999999998,-0.32200000000000001,0.071400000000000005),(-0.35099999999999998,0.32200000000000001,-0.071400000000000005),(-0.35099999999999998,0.32200000000000001,0.071400000000000005),(0.35099999999999998,-0.32200000000000001,-0.071400000000000005),(0.35099999999999998,-0.32200000000000001,0.071400000000000005),(0.35099999999999998,0.32200000000000001,-0.071400000000000005),(0.35099999999999998,0.32200000000000001,0.071400000000000005),(-0.23400000000000001,-0.27300000000000002,0.075600000000000001),(-0.23400000000000001,-0.27300000000000002,0.18479999999999999),(-0.23400000000000001,0.27300000000000002,0.075600000000000001),(-0.23400000000000001,0.27300000000000002,0.18479999999999999),(0.23400000000000001,-0.27300000000000002,0.075600000000000001),(0.23400000000000001,-0.27300000000000002,0.18479999999999999),(0.23400000000000001,0.27300000000000002,0.075600000000000001),(0.23400000000000001,0.27300000000000002,0.18479999999999999)),$);
#463=IFCINDEXEDPOLYGONALFACE((1,2,4,3));
#464=IFCINDEXEDPOLYGONALFACE((5,7,8,6));
#465=IFCINDEXEDPOLYGONALFACE((1,5,6,2));
#466=IFCINDEXEDPOLYGONALFACE((3,4,8,7));
#467=IFCINDEXEDPOLYGONALFACE((1,3,7,5));
#468=IFCINDEXEDPOLYGONALFACE((2,6,8,4));
#469=IFCINDEXEDPOLYGONALFACE((9,10,12,11));
#470=IFCINDEXEDPOLYGONALFACE((13,15,16,14));
#471=IFCINDEXEDPOLYGONALFACE((9,13,14,10));
#472=IFCINDEXEDPOLYGONALFACE((11,12,16,15));
#473=IFCINDEXEDPOLYGONALFACE((9,11,15,13));
#474=IFCINDEXEDPOLYGONALFACE((10,14,16,12));
#475=IFCINDEXEDPOLYGONALFACE((17,18,20,19));
#476=IFCINDEXEDPOLYGONALFACE((21,23,24,22));
#477=IFCINDEXEDPOLYGONALFACE((17,21,22,18));
#478=IFCINDEXEDPOLYGONALFACE((19,20,24,23));
#479=IFCINDEXEDPOLYGONALFACE((17,19,23,21));
#480=IFCINDEXEDPOLYGONALFACE((18,22,24,20));
#481=IFCPOLYGONALFACESET(#462,$,(#463,#464,#465,#466,#467,#468,#469,#470,#471,#472,#473,#474,#475,#476,#477,#478,#479,#480),$);
#482=IFCSHAPEREPRESENTATION(#13,'Body','Tessellation',(#481));
#483=IFCPRODUCTDEFINITIONSHAPE($,$,(#482));
#484=IFCBUILDINGELEMENTPROXY('1zcnnjM3fNrPHRPL3Xrg8z',$,'e-coupler LV jumper, recovery trainline, and end harness breakaway kit','Electrical trainline and rescue interface paired with the automatic mechanical coupler.',$,#604,#527,'LM3-END-P040',$);
#485=IFCPROPERTYSINGLEVALUE('OSRId',$,IFCTEXT('LM3-END-P040'),$);
#486=IFCPROPERTYSINGLEVALUE('Parent',$,IFCTEXT('LM3-END-SA700'),$);
#487=IFCPROPERTYSINGLEVALUE('Route',$,IFCTEXT('BID'),$);
#488=IFCPROPERTYSINGLEVALUE('Maturity',$,IFCTEXT('buildable-after-supplier-freeze'),$);
#489=IFCPROPERTYSINGLEVALUE('QuantityPerTrainset',$,IFCINTEGER(2),$);
#490=IFCPROPERTYSINGLEVALUE('Unit',$,IFCTEXT('end kit'),$);
#491=IFCPROPERTYSINGLEVALUE('GeometryStatus',$,IFCTEXT('design-reference-not-released'),$);
#492=IFCPROPERTYSET('2ejGAkNkPIgBOS3Rd3q8kA',$,'OSR_ProductDefinition',$,(#485,#486,#487,#488,#489,#490,#491));
#493=IFCRELDEFINESBYPROPERTIES('37YOk_G5zSbRuq5mhy1R6t',$,$,$,(#484),#492);
#494=IFCCARTESIANPOINTLIST3D(((-0.84999999999999998,-0.33300000000000002,-0.031199999999999999),(-0.84999999999999998,-0.33300000000000002,0.031199999999999999),(-0.84999999999999998,-0.24299999999999999,-0.031199999999999999),(-0.84999999999999998,-0.24299999999999999,0.031199999999999999),(0.84999999999999998,-0.33300000000000002,-0.031199999999999999),(0.84999999999999998,-0.33300000000000002,0.031199999999999999),(0.84999999999999998,-0.24299999999999999,-0.031199999999999999),(0.84999999999999998,-0.24299999999999999,0.031199999999999999),(-0.84999999999999998,0.24299999999999999,-0.031199999999999999),(-0.84999999999999998,0.24299999999999999,0.031199999999999999),(-0.84999999999999998,0.33300000000000002,-0.031199999999999999),(-0.84999999999999998,0.33300000000000002,0.031199999999999999),(0.84999999999999998,0.24299999999999999,-0.031199999999999999),(0.84999999999999998,0.24299999999999999,0.031199999999999999),(0.84999999999999998,0.33300000000000002,-0.031199999999999999),(0.84999999999999998,0.33300000000000002,0.031199999999999999),(-0.61624999999999996,-0.35999999999999999,-0.039),(-0.61624999999999996,-0.35999999999999999,0.039),(-0.61624999999999996,0.35999999999999999,-0.039),(-0.61624999999999996,0.35999999999999999,0.039),(-0.57374999999999998,-0.35999999999999999,-0.039),(-0.57374999999999998,-0.35999999999999999,0.039),(-0.57374999999999998,0.35999999999999999,-0.039),(-0.57374999999999998,0.35999999999999999,0.039),(-0.021250000000000002,-0.35999999999999999,-0.039),(-0.021250000000000002,-0.35999999999999999,0.039),(-0.021250000000000002,0.35999999999999999,-0.039),(-0.021250000000000002,0.35999999999999999,0.039),(0.021250000000000002,-0.35999999999999999,-0.039),(0.021250000000000002,-0.35999999999999999,0.039),(0.021250000000000002,0.35999999999999999,-0.039),(0.021250000000000002,0.35999999999999999,0.039),(0.57374999999999998,-0.35999999999999999,-0.039),(0.57374999999999998,-0.35999999999999999,0.039),(0.57374999999999998,0.35999999999999999,-0.039),(0.57374999999999998,0.35999999999999999,0.039),(0.61624999999999996,-0.35999999999999999,-0.039),(0.61624999999999996,-0.35999999999999999,0.039),(0.61624999999999996,0.35999999999999999,-0.039),(0.61624999999999996,0.35999999999999999,0.039)),$);
#495=IFCINDEXEDPOLYGONALFACE((1,2,4,3));
#496=IFCINDEXEDPOLYGONALFACE((5,7,8,6));
#497=IFCINDEXEDPOLYGONALFACE((1,5,6,2));
#498=IFCINDEXEDPOLYGONALFACE((3,4,8,7));
#499=IFCINDEXEDPOLYGONALFACE((1,3,7,5));
#500=IFCINDEXEDPOLYGONALFACE((2,6,8,4));
#501=IFCINDEXEDPOLYGONALFACE((9,10,12,11));
#502=IFCINDEXEDPOLYGONALFACE((13,15,16,14));
#503=IFCINDEXEDPOLYGONALFACE((9,13,14,10));
#504=IFCINDEXEDPOLYGONALFACE((11,12,16,15));
#505=IFCINDEXEDPOLYGONALFACE((9,11,15,13));
#506=IFCINDEXEDPOLYGONALFACE((10,14,16,12));
#507=IFCINDEXEDPOLYGONALFACE((17,18,20,19));
#508=IFCINDEXEDPOLYGONALFACE((21,23,24,22));
#509=IFCINDEXEDPOLYGONALFACE((17,21,22,18));
#510=IFCINDEXEDPOLYGONALFACE((19,20,24,23));
#511=IFCINDEXEDPOLYGONALFACE((17,19,23,21));
#512=IFCINDEXEDPOLYGONALFACE((18,22,24,20));
#513=IFCINDEXEDPOLYGONALFACE((25,26,28,27));
#514=IFCINDEXEDPOLYGONALFACE((29,31,32,30));
#515=IFCINDEXEDPOLYGONALFACE((25,29,30,26));
#516=IFCINDEXEDPOLYGONALFACE((27,28,32,31));
#517=IFCINDEXEDPOLYGONALFACE((25,27,31,29));
#518=IFCINDEXEDPOLYGONALFACE((26,30,32,28));
#519=IFCINDEXEDPOLYGONALFACE((33,34,36,35));
#520=IFCINDEXEDPOLYGONALFACE((37,39,40,38));
#521=IFCINDEXEDPOLYGONALFACE((33,37,38,34));
#522=IFCINDEXEDPOLYGONALFACE((35,36,40,39));
#523=IFCINDEXEDPOLYGONALFACE((33,35,39,37));
#524=IFCINDEXEDPOLYGONALFACE((34,38,40,36));
#525=IFCPOLYGONALFACESET(#494,$,(#495,#496,#497,#498,#499,#500,#501,#502,#503,#504,#505,#506,#507,#508,#509,#510,#511,#512,#513,#514,#515,#516,#517,#518,#519,#520,#521,#522,#523,#524),$);
#526=IFCSHAPEREPRESENTATION(#13,'Body','Tessellation',(#525));
#527=IFCPRODUCTDEFINITIONSHAPE($,$,(#526));
#528=IFCBUILDINGELEMENTPROXY('1gKEixFmbGHQyrzhStx0RR',$,'sealed headlight, tail/marker light, threshold-warning, and end-lamp harness kit','One reversible lamp and warning-light package fits either cabless end cowl.',$,#607,#559,'LM3-END-P050',$);
#529=IFCPROPERTYSINGLEVALUE('OSRId',$,IFCTEXT('LM3-END-P050'),$);
#530=IFCPROPERTYSINGLEVALUE('Parent',$,IFCTEXT('LM3-END-SA700'),$);
#531=IFCPROPERTYSINGLEVALUE('Route',$,IFCTEXT('SOURCE'),$);
#532=IFCPROPERTYSINGLEVALUE('Maturity',$,IFCTEXT('buildable-after-supplier-freeze'),$);
#533=IFCPROPERTYSINGLEVALUE('QuantityPerTrainset',$,IFCINTEGER(2),$);
#534=IFCPROPERTYSINGLEVALUE('Unit',$,IFCTEXT('end kit'),$);
#535=IFCPROPERTYSINGLEVALUE('GeometryStatus',$,IFCTEXT('design-reference-not-released'),$);
#536=IFCPROPERTYSET('1BrVErxGrUGRmUG3IwymNA',$,'OSR_ProductDefinition',$,(#529,#530,#531,#532,#533,#534,#535));
#537=IFCRELDEFINESBYPROPERTIES('0tVSjzr_nJW8zYcxlge814',$,$,$,(#528),#536);
#538=IFCCARTESIANPOINTLIST3D(((-0.80000000000000004,-0.45000000000000001,-0.1148),(-0.80000000000000004,-0.45000000000000001,0.1148),(-0.80000000000000004,0.45000000000000001,-0.1148),(-0.80000000000000004,0.45000000000000001,0.1148),(0.80000000000000004,-0.45000000000000001,-0.1148),(0.80000000000000004,-0.45000000000000001,0.1148),(0.80000000000000004,0.45000000000000001,-0.1148),(0.80000000000000004,0.45000000000000001,0.1148),(-0.65600000000000003,-0.45000000000000001,-0.13440000000000002),(-0.65600000000000003,-0.45000000000000001,-0.1008),(-0.65600000000000003,-0.34200000000000003,-0.13440000000000002),(-0.65600000000000003,-0.34200000000000003,-0.1008),(0.65600000000000003,-0.45000000000000001,-0.13440000000000002),(0.65600000000000003,-0.45000000000000001,-0.1008),(0.65600000000000003,-0.34200000000000003,-0.13440000000000002),(0.65600000000000003,-0.34200000000000003,-0.1008),(0.28799999999999998,0.29699999999999999,-0.022400000000000003),(0.28799999999999998,0.29699999999999999,0.022400000000000003),(0.28799999999999998,0.42299999999999999,-0.022400000000000003),(0.28799999999999998,0.42299999999999999,0.022400000000000003),(0.67200000000000004,0.29699999999999999,-0.022400000000000003),(0.67200000000000004,0.29699999999999999,0.022400000000000003),(0.67200000000000004,0.42299999999999999,-0.022400000000000003),(0.67200000000000004,0.42299999999999999,0.022400000000000003)),$);
#539=IFCINDEXEDPOLYGONALFACE((1,2,4,3));
#540=IFCINDEXEDPOLYGONALFACE((5,7,8,6));
#541=IFCINDEXEDPOLYGONALFACE((1,5,6,2));
#542=IFCINDEXEDPOLYGONALFACE((3,4,8,7));
#543=IFCINDEXEDPOLYGONALFACE((1,3,7,5));
#544=IFCINDEXEDPOLYGONALFACE((2,6,8,4));
#545=IFCINDEXEDPOLYGONALFACE((9,10,12,11));
#546=IFCINDEXEDPOLYGONALFACE((13,15,16,14));
#547=IFCINDEXEDPOLYGONALFACE((9,13,14,10));
#548=IFCINDEXEDPOLYGONALFACE((11,12,16,15));
#549=IFCINDEXEDPOLYGONALFACE((9,11,15,13));
#550=IFCINDEXEDPOLYGONALFACE((10,14,16,12));
#551=IFCINDEXEDPOLYGONALFACE((17,18,20,19));
#552=IFCINDEXEDPOLYGONALFACE((21,23,24,22));
#553=IFCINDEXEDPOLYGONALFACE((17,21,22,18));
#554=IFCINDEXEDPOLYGONALFACE((19,20,24,23));
#555=IFCINDEXEDPOLYGONALFACE((17,19,23,21));
#556=IFCINDEXEDPOLYGONALFACE((18,22,24,20));
#557=IFCPOLYGONALFACESET(#538,$,(#539,#540,#541,#542,#543,#544,#545,#546,#547,#548,#549,#550,#551,#552,#553,#554,#555,#556),$);
#558=IFCSHAPEREPRESENTATION(#13,'Body','Tessellation',(#557));
#559=IFCPRODUCTDEFINITIONSHAPE($,$,(#558));
#560=IFCRELAGGREGATES('3vRroKEQzMTP692X0xlUqw',$,$,$,#28,(#44,#76,#36,#388,#420,#452,#484,#528,#344));
#561=IFCRELAGGREGATES('3MboDZFw1Kw8thAjdeOd7o',$,$,$,#36,(#114,#146,#178,#210,#242,#274,#306));
#562=IFCRELCONTAINEDINSPATIALSTRUCTURE('2PZ9MIDhvIjwp9oUXz_6D6',$,$,$,(#28),#3);
#563=IFCCARTESIANPOINT((0.,0.,0.));
#564=IFCAXIS2PLACEMENT3D(#563,$,$);
#565=IFCLOCALPLACEMENT($,#564);
#566=IFCCARTESIANPOINT((3.7000000000000002,0.,0.));
#567=IFCAXIS2PLACEMENT3D(#566,$,$);
#568=IFCLOCALPLACEMENT($,#567);
#569=IFCCARTESIANPOINT((7.4000000000000004,0.,0.));
#570=IFCAXIS2PLACEMENT3D(#569,$,$);
#571=IFCLOCALPLACEMENT($,#570);
#572=IFCCARTESIANPOINT((11.1,0.,0.));
#573=IFCAXIS2PLACEMENT3D(#572,$,$);
#574=IFCLOCALPLACEMENT($,#573);
#575=IFCCARTESIANPOINT((0.,3.6000000000000001,0.));
#576=IFCAXIS2PLACEMENT3D(#575,$,$);
#577=IFCLOCALPLACEMENT($,#576);
#578=IFCCARTESIANPOINT((3.7000000000000002,3.6000000000000001,0.));
#579=IFCAXIS2PLACEMENT3D(#578,$,$);
#580=IFCLOCALPLACEMENT($,#579);
#581=IFCCARTESIANPOINT((7.4000000000000004,3.6000000000000001,0.));
#582=IFCAXIS2PLACEMENT3D(#581,$,$);
#583=IFCLOCALPLACEMENT($,#582);
#584=IFCCARTESIANPOINT((11.1,3.6000000000000001,0.));
#585=IFCAXIS2PLACEMENT3D(#584,$,$);
#586=IFCLOCALPLACEMENT($,#585);
#587=IFCCARTESIANPOINT((0.,7.2000000000000002,0.));
#588=IFCAXIS2PLACEMENT3D(#587,$,$);
#589=IFCLOCALPLACEMENT($,#588);
#590=IFCCARTESIANPOINT((3.7000000000000002,7.2000000000000002,0.));
#591=IFCAXIS2PLACEMENT3D(#590,$,$);
#592=IFCLOCALPLACEMENT($,#591);
#593=IFCCARTESIANPOINT((7.4000000000000004,7.2000000000000002,0.));
#594=IFCAXIS2PLACEMENT3D(#593,$,$);
#595=IFCLOCALPLACEMENT($,#594);
#596=IFCCARTESIANPOINT((11.1,7.2000000000000002,0.));
#597=IFCAXIS2PLACEMENT3D(#596,$,$);
#598=IFCLOCALPLACEMENT($,#597);
#599=IFCCARTESIANPOINT((0.,10.800000000000001,0.));
#600=IFCAXIS2PLACEMENT3D(#599,$,$);
#601=IFCLOCALPLACEMENT($,#600);
#602=IFCCARTESIANPOINT((3.7000000000000002,10.800000000000001,0.));
#603=IFCAXIS2PLACEMENT3D(#602,$,$);
#604=IFCLOCALPLACEMENT($,#603);
#605=IFCCARTESIANPOINT((7.4000000000000004,10.800000000000001,0.));
#606=IFCAXIS2PLACEMENT3D(#605,$,$);
#607=IFCLOCALPLACEMENT($,#606);
ENDSEC;
END-ISO-10303-21;
