ISO-10303-21;
HEADER;
FILE_DESCRIPTION(('ViewDefinition [CoordinationView]'),'2;1');
FILE_NAME('LM3-ART-SA820.ifc','2026-08-30T00:00:00+00:00',('OpenSourceRail'),('OpenSourceRail'),'IfcOpenShell 0.8.5','OpenSourceRail deterministic LM3 product-library exporter','design-reference / not for construction');
FILE_SCHEMA(('IFC4X3_ADD2'));
ENDSEC;
DATA;
#1=IFCPROJECT('0nk1K$o$zQnO9pLO9v8XAC',$,'LM3-ART-SA820 \X2\2014\X0\ passenger gangway bellows, bridge and turntable subassembly','Design-reference geometry and assembly hierarchy only; supplier freeze, released drawings/tolerances, calculations, qualified processes and first-article tests remain mandatory.',$,$,$,(#12),#7);
#2=IFCSITE('3P6$MMnQbKCwy8mjFatN0Z',$,'LM3 product library',$,$,#18,$,$,.ELEMENT.,$,$,$,$,$);
#3=IFCBUILDING('2XftJq$ovVtAjqxJl0WuDR',$,'LM3 assembly inspection fixture',$,$,#21,$,$,.ELEMENT.,$,$,$);
#4=IFCSIUNIT(*,.LENGTHUNIT.,$,.METRE.);
#5=IFCSIUNIT(*,.AREAUNIT.,$,.SQUARE_METRE.);
#6=IFCSIUNIT(*,.VOLUMEUNIT.,$,.CUBIC_METRE.);
#7=IFCUNITASSIGNMENT((#6,#4,#5));
#8=IFCCARTESIANPOINT((0.,0.,0.));
#9=IFCDIRECTION((0.,0.,1.));
#10=IFCDIRECTION((1.,0.,0.));
#11=IFCAXIS2PLACEMENT3D(#8,#9,#10);
#12=IFCGEOMETRICREPRESENTATIONCONTEXT($,'Model',3,1.0000000000000001E-05,#11,$);
#13=IFCGEOMETRICREPRESENTATIONSUBCONTEXT('Body','Model',*,*,*,*,#12,$,.MODEL_VIEW.,$);
#14=IFCRELAGGREGATES('3kRhGBGj1O$Qh62uGaRFKI',$,$,$,#1,(#2));
#15=IFCRELAGGREGATES('3YUv28YoPTFOeC1AwmJ6DO',$,$,$,#2,(#3));
#16=IFCCARTESIANPOINT((0.,0.,0.));
#17=IFCAXIS2PLACEMENT3D(#16,$,$);
#18=IFCLOCALPLACEMENT($,#17);
#19=IFCCARTESIANPOINT((0.,0.,0.));
#20=IFCAXIS2PLACEMENT3D(#19,$,$);
#21=IFCLOCALPLACEMENT($,#20);
#22=IFCPROPERTYSINGLEVALUE('Status',$,IFCTEXT('design-reference-not-released'),$);
#23=IFCPROPERTYSINGLEVALUE('ReleaseBoundary',$,IFCTEXT('Design-reference geometry and assembly hierarchy only; supplier freeze, released drawings/tolerances, calculations, qualified processes and first-article tests remain mandatory.'),$);
#24=IFCPROPERTYSINGLEVALUE('Manifest',$,IFCTEXT('design/component-catalogue/catalog/buildable-trainset/buildable-trainset-manifest.json'),$);
#25=IFCPROPERTYSINGLEVALUE('ManifestSha256',$,IFCTEXT('7654747909805305ce2018109b5b649c4817a8f8c44a3ec8f2e8a6f74d48243e'),$);
#26=IFCPROPERTYSET('2$kcN4c1bJhR8wclQyW9Qy',$,'OSR_ProductLibrary',$,(#22,#23,#24,#25));
#27=IFCRELDEFINESBYPROPERTIES('1vZvHQU1DQn9UoLCGd8sRx',$,$,$,(#1),#26);
#28=IFCELEMENTASSEMBLY('2an7pvUWzNCggy8qCO4Bzk',$,'passenger gangway bellows, bridge and turntable subassembly','fire-material pack | bridge load test | gap/pinch gauge | water test | full-motion sweep',$,$,$,'LM3-ART-SA820',$,$);
#29=IFCPROPERTYSINGLEVALUE('OSRId',$,IFCTEXT('LM3-ART-SA820'),$);
#30=IFCPROPERTYSINGLEVALUE('Layer',$,IFCTEXT('subassembly'),$);
#31=IFCPROPERTYSINGLEVALUE('BuildCell',$,IFCTEXT('gangway clean assembly cell'),$);
#32=IFCPROPERTYSINGLEVALUE('QuantityPerTrainset',$,IFCINTEGER(2),$);
#33=IFCPROPERTYSINGLEVALUE('GeometryStatus',$,IFCTEXT('complete-hierarchy-inspection-layout'),$);
#34=IFCPROPERTYSET('0kaV0HhFXGFQQYPiAC6lFC',$,'OSR_AssemblyDefinition',$,(#29,#30,#31,#32,#33));
#35=IFCRELDEFINESBYPROPERTIES('1CbkzzvIbL2xgNPbVVudjk',$,$,$,(#28),#34);
#36=IFCBUILDINGELEMENTPROXY('1Jir0ihE5HFRosR8UTKku2',$,'inter-car double-wall corrugated bellows and clamp-frame set','A supplier-tailored metro gangway bellows seals the passenger connection without becoming part of the structural draw/buff load path.',$,#254,#217,'LM3-ART-P022',$);
#37=IFCPROPERTYSINGLEVALUE('OSRId',$,IFCTEXT('LM3-ART-P022'),$);
#38=IFCPROPERTYSINGLEVALUE('Parent',$,IFCTEXT('LM3-ART-SA820'),$);
#39=IFCPROPERTYSINGLEVALUE('Route',$,IFCTEXT('BID'),$);
#40=IFCPROPERTYSINGLEVALUE('Maturity',$,IFCTEXT('buildable-after-supplier-freeze'),$);
#41=IFCPROPERTYSINGLEVALUE('QuantityPerTrainset',$,IFCINTEGER(2),$);
#42=IFCPROPERTYSINGLEVALUE('Unit',$,IFCTEXT('gangway set'),$);
#43=IFCPROPERTYSINGLEVALUE('GeometryStatus',$,IFCTEXT('design-reference-not-released'),$);
#44=IFCPROPERTYSET('0BAAFLDLHTjRWRNLcWpnuh',$,'OSR_ProductDefinition',$,(#37,#38,#39,#40,#41,#42,#43));
#45=IFCRELDEFINESBYPROPERTIES('2eBGLp0wrMo9Ea_emjNVcW',$,$,$,(#36),#44);
#46=IFCCARTESIANPOINTLIST3D(((-0.50198412698412709,-1.05,-1.1499999999999999),(-0.50198412698412709,-1.05,1.1499999999999999),(-0.50198412698412709,-0.91000000000000003,-1.1499999999999999),(-0.50198412698412709,-0.91000000000000003,1.1499999999999999),(-0.44087301587301597,-1.05,-1.1499999999999999),(-0.44087301587301597,-1.05,1.1499999999999999),(-0.44087301587301597,-0.91000000000000003,-1.1499999999999999),(-0.44087301587301597,-0.91000000000000003,1.1499999999999999),(-0.50198412698412698,0.91000000000000003,-1.1499999999999999),(-0.50198412698412698,0.91000000000000003,1.1499999999999999),(-0.50198412698412698,1.05,-1.1499999999999999),(-0.50198412698412698,1.05,1.1499999999999999),(-0.44087301587301586,0.91000000000000003,-1.1499999999999999),(-0.44087301587301586,0.91000000000000003,1.1499999999999999),(-0.44087301587301586,1.05,-1.1499999999999999),(-0.44087301587301586,1.05,1.1499999999999999),(-0.50198412698412709,-0.91000000000000003,1.01),(-0.50198412698412709,-0.91000000000000003,1.1499999999999999),(-0.50198412698412709,0.91000000000000003,1.01),(-0.50198412698412709,0.91000000000000003,1.1499999999999999),(-0.44087301587301586,-0.91000000000000003,1.01),(-0.44087301587301586,-0.91000000000000003,1.1499999999999999),(-0.44087301587301586,0.91000000000000003,1.01),(-0.44087301587301586,0.91000000000000003,1.1499999999999999),(-0.50198412698412709,-0.91000000000000003,-1.1499999999999999),(-0.50198412698412709,-0.91000000000000003,-1.01),(-0.50198412698412709,0.91000000000000003,-1.1499999999999999),(-0.50198412698412709,0.91000000000000003,-1.01),(-0.44087301587301586,-0.91000000000000003,-1.1499999999999999),(-0.44087301587301586,-0.91000000000000003,-1.01),(-0.44087301587301586,0.91000000000000003,-1.1499999999999999),(-0.44087301587301586,0.91000000000000003,-1.01),(-0.34484126984126989,-1.05,-1.1499999999999999),(-0.34484126984126989,-1.05,1.1499999999999999),(-0.34484126984126989,-0.91000000000000003,-1.1499999999999999),(-0.34484126984126989,-0.91000000000000003,1.1499999999999999),(-0.28373015873015878,-1.05,-1.1499999999999999),(-0.28373015873015878,-1.05,1.1499999999999999),(-0.28373015873015878,-0.91000000000000003,-1.1499999999999999),(-0.28373015873015878,-0.91000000000000003,1.1499999999999999),(-0.34484126984126978,0.91000000000000003,-1.1499999999999999),(-0.34484126984126978,0.91000000000000003,1.1499999999999999),(-0.34484126984126978,1.05,-1.1499999999999999),(-0.34484126984126978,1.05,1.1499999999999999),(-0.28373015873015867,0.91000000000000003,-1.1499999999999999),(-0.28373015873015867,0.91000000000000003,1.1499999999999999),(-0.28373015873015867,1.05,-1.1499999999999999),(-0.28373015873015867,1.05,1.1499999999999999),(-0.34484126984126989,-0.91000000000000003,1.01),(-0.34484126984126989,-0.91000000000000003,1.1499999999999999),(-0.34484126984126989,0.91000000000000003,1.01),(-0.34484126984126989,0.91000000000000003,1.1499999999999999),(-0.28373015873015867,-0.91000000000000003,1.01),(-0.28373015873015867,-0.91000000000000003,1.1499999999999999),(-0.28373015873015867,0.91000000000000003,1.01),(-0.28373015873015867,0.91000000000000003,1.1499999999999999),(-0.34484126984126989,-0.91000000000000003,-1.1499999999999999),(-0.34484126984126989,-0.91000000000000003,-1.01),(-0.34484126984126989,0.91000000000000003,-1.1499999999999999),(-0.34484126984126989,0.91000000000000003,-1.01),(-0.28373015873015867,-0.91000000000000003,-1.1499999999999999),(-0.28373015873015867,-0.91000000000000003,-1.01),(-0.28373015873015867,0.91000000000000003,-1.1499999999999999),(-0.28373015873015867,0.91000000000000003,-1.01),(-0.18769841269841281,-1.05,-1.1499999999999999),(-0.18769841269841281,-1.05,1.1499999999999999),(-0.18769841269841281,-0.91000000000000003,-1.1499999999999999),(-0.18769841269841281,-0.91000000000000003,1.1499999999999999),(-0.12658730158730166,-1.05,-1.1499999999999999),(-0.12658730158730166,-1.05,1.1499999999999999),(-0.12658730158730166,-0.91000000000000003,-1.1499999999999999),(-0.12658730158730166,-0.91000000000000003,1.1499999999999999),(-0.18769841269841264,0.91000000000000003,-1.1499999999999999),(-0.18769841269841264,0.91000000000000003,1.1499999999999999),(-0.18769841269841264,1.05,-1.1499999999999999),(-0.18769841269841264,1.05,1.1499999999999999),(-0.12658730158730153,0.91000000000000003,-1.1499999999999999),(-0.12658730158730153,0.91000000000000003,1.1499999999999999),(-0.12658730158730153,1.05,-1.1499999999999999),(-0.12658730158730153,1.05,1.1499999999999999),(-0.18769841269841275,-0.91000000000000003,1.01),(-0.18769841269841275,-0.91000000000000003,1.1499999999999999),(-0.18769841269841275,0.91000000000000003,1.01),(-0.18769841269841275,0.91000000000000003,1.1499999999999999),(-0.12658730158730155,-0.91000000000000003,1.01),(-0.12658730158730155,-0.91000000000000003,1.1499999999999999),(-0.12658730158730155,0.91000000000000003,1.01),(-0.12658730158730155,0.91000000000000003,1.1499999999999999),(-0.18769841269841275,-0.91000000000000003,-1.1499999999999999),(-0.18769841269841275,-0.91000000000000003,-1.01),(-0.18769841269841275,0.91000000000000003,-1.1499999999999999),(-0.18769841269841275,0.91000000000000003,-1.01),(-0.12658730158730155,-0.91000000000000003,-1.1499999999999999),(-0.12658730158730155,-0.91000000000000003,-1.01),(-0.12658730158730155,0.91000000000000003,-1.1499999999999999),(-0.12658730158730155,0.91000000000000003,-1.01),(-0.03055555555555562,-1.05,-1.1499999999999999),(-0.03055555555555562,-1.05,1.1499999999999999),(-0.03055555555555562,-0.91000000000000003,-1.1499999999999999),(-0.03055555555555562,-0.91000000000000003,1.1499999999999999),(0.030555555555555499,-1.05,-1.1499999999999999),(0.030555555555555499,-1.05,1.1499999999999999),(0.030555555555555499,-0.91000000000000003,-1.1499999999999999),(0.030555555555555499,-0.91000000000000003,1.1499999999999999),(-0.030555555555555499,0.91000000000000003,-1.1499999999999999),(-0.030555555555555499,0.91000000000000003,1.1499999999999999),(-0.030555555555555499,1.05,-1.1499999999999999),(-0.030555555555555499,1.05,1.1499999999999999),(0.03055555555555562,0.91000000000000003,-1.1499999999999999),(0.03055555555555562,0.91000000000000003,1.1499999999999999),(0.03055555555555562,1.05,-1.1499999999999999),(0.03055555555555562,1.05,1.1499999999999999),(-0.030555555555555614,-0.91000000000000003,1.01),(-0.030555555555555614,-0.91000000000000003,1.1499999999999999),(-0.030555555555555614,0.91000000000000003,1.01),(-0.030555555555555614,0.91000000000000003,1.1499999999999999),(0.030555555555555614,-0.91000000000000003,1.01),(0.030555555555555614,-0.91000000000000003,1.1499999999999999),(0.030555555555555614,0.91000000000000003,1.01),(0.030555555555555614,0.91000000000000003,1.1499999999999999),(-0.030555555555555614,-0.91000000000000003,-1.1499999999999999),(-0.030555555555555614,-0.91000000000000003,-1.01),(-0.030555555555555614,0.91000000000000003,-1.1499999999999999),(-0.030555555555555614,0.91000000000000003,-1.01),(0.030555555555555614,-0.91000000000000003,-1.1499999999999999),(0.030555555555555614,-0.91000000000000003,-1.01),(0.030555555555555614,0.91000000000000003,-1.1499999999999999),(0.030555555555555614,0.91000000000000003,-1.01),(0.12658730158730147,-1.05,-1.1499999999999999),(0.12658730158730147,-1.05,1.1499999999999999),(0.12658730158730147,-0.91000000000000003,-1.1499999999999999),(0.12658730158730147,-0.91000000000000003,1.1499999999999999),(0.18769841269841259,-1.05,-1.1499999999999999),(0.18769841269841259,-1.05,1.1499999999999999),(0.18769841269841259,-0.91000000000000003,-1.1499999999999999),(0.18769841269841259,-0.91000000000000003,1.1499999999999999),(0.12658730158730161,0.91000000000000003,-1.1499999999999999),(0.12658730158730161,0.91000000000000003,1.1499999999999999),(0.12658730158730161,1.05,-1.1499999999999999),(0.12658730158730161,1.05,1.1499999999999999),(0.18769841269841273,0.91000000000000003,-1.1499999999999999),(0.18769841269841273,0.91000000000000003,1.1499999999999999),(0.18769841269841273,1.05,-1.1499999999999999),(0.18769841269841273,1.05,1.1499999999999999),(0.1265873015873015,-0.91000000000000003,1.01),(0.1265873015873015,-0.91000000000000003,1.1499999999999999),(0.1265873015873015,0.91000000000000003,1.01),(0.1265873015873015,0.91000000000000003,1.1499999999999999),(0.1876984126984127,-0.91000000000000003,1.01),(0.1876984126984127,-0.91000000000000003,1.1499999999999999),(0.1876984126984127,0.91000000000000003,1.01),(0.1876984126984127,0.91000000000000003,1.1499999999999999),(0.1265873015873015,-0.91000000000000003,-1.1499999999999999),(0.1265873015873015,-0.91000000000000003,-1.01),(0.1265873015873015,0.91000000000000003,-1.1499999999999999),(0.1265873015873015,0.91000000000000003,-1.01),(0.1876984126984127,-0.91000000000000003,-1.1499999999999999),(0.1876984126984127,-0.91000000000000003,-1.01),(0.1876984126984127,0.91000000000000003,-1.1499999999999999),(0.1876984126984127,0.91000000000000003,-1.01),(0.28373015873015872,-1.05,-1.1499999999999999),(0.28373015873015872,-1.05,1.1499999999999999),(0.28373015873015872,-0.91000000000000003,-1.1499999999999999),(0.28373015873015872,-0.91000000000000003,1.1499999999999999),(0.34484126984126984,-1.05,-1.1499999999999999),(0.34484126984126984,-1.05,1.1499999999999999),(0.34484126984126984,-0.91000000000000003,-1.1499999999999999),(0.34484126984126984,-0.91000000000000003,1.1499999999999999),(0.28373015873015883,0.91000000000000003,-1.1499999999999999),(0.28373015873015883,0.91000000000000003,1.1499999999999999),(0.28373015873015883,1.05,-1.1499999999999999),(0.28373015873015883,1.05,1.1499999999999999),(0.34484126984126995,0.91000000000000003,-1.1499999999999999),(0.34484126984126995,0.91000000000000003,1.1499999999999999),(0.34484126984126995,1.05,-1.1499999999999999),(0.34484126984126995,1.05,1.1499999999999999),(0.28373015873015872,-0.91000000000000003,1.01),(0.28373015873015872,-0.91000000000000003,1.1499999999999999),(0.28373015873015872,0.91000000000000003,1.01),(0.28373015873015872,0.91000000000000003,1.1499999999999999),(0.34484126984126995,-0.91000000000000003,1.01),(0.34484126984126995,-0.91000000000000003,1.1499999999999999),(0.34484126984126995,0.91000000000000003,1.01),(0.34484126984126995,0.91000000000000003,1.1499999999999999),(0.28373015873015872,-0.91000000000000003,-1.1499999999999999),(0.28373015873015872,-0.91000000000000003,-1.01),(0.28373015873015872,0.91000000000000003,-1.1499999999999999),(0.28373015873015872,0.91000000000000003,-1.01),(0.34484126984126995,-0.91000000000000003,-1.1499999999999999),(0.34484126984126995,-0.91000000000000003,-1.01),(0.34484126984126995,0.91000000000000003,-1.1499999999999999),(0.34484126984126995,0.91000000000000003,-1.01),(0.44087301587301586,-1.05,-1.1499999999999999),(0.44087301587301586,-1.05,1.1499999999999999),(0.44087301587301586,-0.91000000000000003,-1.1499999999999999),(0.44087301587301586,-0.91000000000000003,1.1499999999999999),(0.50198412698412698,-1.05,-1.1499999999999999),(0.50198412698412698,-1.05,1.1499999999999999),(0.50198412698412698,-0.91000000000000003,-1.1499999999999999),(0.50198412698412698,-0.91000000000000003,1.1499999999999999),(0.44087301587301597,0.91000000000000003,-1.1499999999999999),(0.44087301587301597,0.91000000000000003,1.1499999999999999),(0.44087301587301597,1.05,-1.1499999999999999),(0.44087301587301597,1.05,1.1499999999999999),(0.50198412698412709,0.91000000000000003,-1.1499999999999999),(0.50198412698412709,0.91000000000000003,1.1499999999999999),(0.50198412698412709,1.05,-1.1499999999999999),(0.50198412698412709,1.05,1.1499999999999999),(0.44087301587301586,-0.91000000000000003,1.01),(0.44087301587301586,-0.91000000000000003,1.1499999999999999),(0.44087301587301586,0.91000000000000003,1.01),(0.44087301587301586,0.91000000000000003,1.1499999999999999),(0.50198412698412709,-0.91000000000000003,1.01),(0.50198412698412709,-0.91000000000000003,1.1499999999999999),(0.50198412698412709,0.91000000000000003,1.01),(0.50198412698412709,0.91000000000000003,1.1499999999999999),(0.44087301587301586,-0.91000000000000003,-1.1499999999999999),(0.44087301587301586,-0.91000000000000003,-1.01),(0.44087301587301586,0.91000000000000003,-1.1499999999999999),(0.44087301587301586,0.91000000000000003,-1.01),(0.50198412698412709,-0.91000000000000003,-1.1499999999999999),(0.50198412698412709,-0.91000000000000003,-1.01),(0.50198412698412709,0.91000000000000003,-1.1499999999999999),(0.50198412698412709,0.91000000000000003,-1.01)),$);
#47=IFCINDEXEDPOLYGONALFACE((1,2,4,3));
#48=IFCINDEXEDPOLYGONALFACE((5,7,8,6));
#49=IFCINDEXEDPOLYGONALFACE((1,5,6,2));
#50=IFCINDEXEDPOLYGONALFACE((3,4,8,7));
#51=IFCINDEXEDPOLYGONALFACE((1,3,7,5));
#52=IFCINDEXEDPOLYGONALFACE((2,6,8,4));
#53=IFCINDEXEDPOLYGONALFACE((9,10,12,11));
#54=IFCINDEXEDPOLYGONALFACE((13,15,16,14));
#55=IFCINDEXEDPOLYGONALFACE((9,13,14,10));
#56=IFCINDEXEDPOLYGONALFACE((11,12,16,15));
#57=IFCINDEXEDPOLYGONALFACE((9,11,15,13));
#58=IFCINDEXEDPOLYGONALFACE((10,14,16,12));
#59=IFCINDEXEDPOLYGONALFACE((17,18,20,19));
#60=IFCINDEXEDPOLYGONALFACE((21,23,24,22));
#61=IFCINDEXEDPOLYGONALFACE((17,21,22,18));
#62=IFCINDEXEDPOLYGONALFACE((19,20,24,23));
#63=IFCINDEXEDPOLYGONALFACE((17,19,23,21));
#64=IFCINDEXEDPOLYGONALFACE((18,22,24,20));
#65=IFCINDEXEDPOLYGONALFACE((25,26,28,27));
#66=IFCINDEXEDPOLYGONALFACE((29,31,32,30));
#67=IFCINDEXEDPOLYGONALFACE((25,29,30,26));
#68=IFCINDEXEDPOLYGONALFACE((27,28,32,31));
#69=IFCINDEXEDPOLYGONALFACE((25,27,31,29));
#70=IFCINDEXEDPOLYGONALFACE((26,30,32,28));
#71=IFCINDEXEDPOLYGONALFACE((33,34,36,35));
#72=IFCINDEXEDPOLYGONALFACE((37,39,40,38));
#73=IFCINDEXEDPOLYGONALFACE((33,37,38,34));
#74=IFCINDEXEDPOLYGONALFACE((35,36,40,39));
#75=IFCINDEXEDPOLYGONALFACE((33,35,39,37));
#76=IFCINDEXEDPOLYGONALFACE((34,38,40,36));
#77=IFCINDEXEDPOLYGONALFACE((41,42,44,43));
#78=IFCINDEXEDPOLYGONALFACE((45,47,48,46));
#79=IFCINDEXEDPOLYGONALFACE((41,45,46,42));
#80=IFCINDEXEDPOLYGONALFACE((43,44,48,47));
#81=IFCINDEXEDPOLYGONALFACE((41,43,47,45));
#82=IFCINDEXEDPOLYGONALFACE((42,46,48,44));
#83=IFCINDEXEDPOLYGONALFACE((49,50,52,51));
#84=IFCINDEXEDPOLYGONALFACE((53,55,56,54));
#85=IFCINDEXEDPOLYGONALFACE((49,53,54,50));
#86=IFCINDEXEDPOLYGONALFACE((51,52,56,55));
#87=IFCINDEXEDPOLYGONALFACE((49,51,55,53));
#88=IFCINDEXEDPOLYGONALFACE((50,54,56,52));
#89=IFCINDEXEDPOLYGONALFACE((57,58,60,59));
#90=IFCINDEXEDPOLYGONALFACE((61,63,64,62));
#91=IFCINDEXEDPOLYGONALFACE((57,61,62,58));
#92=IFCINDEXEDPOLYGONALFACE((59,60,64,63));
#93=IFCINDEXEDPOLYGONALFACE((57,59,63,61));
#94=IFCINDEXEDPOLYGONALFACE((58,62,64,60));
#95=IFCINDEXEDPOLYGONALFACE((65,66,68,67));
#96=IFCINDEXEDPOLYGONALFACE((69,71,72,70));
#97=IFCINDEXEDPOLYGONALFACE((65,69,70,66));
#98=IFCINDEXEDPOLYGONALFACE((67,68,72,71));
#99=IFCINDEXEDPOLYGONALFACE((65,67,71,69));
#100=IFCINDEXEDPOLYGONALFACE((66,70,72,68));
#101=IFCINDEXEDPOLYGONALFACE((73,74,76,75));
#102=IFCINDEXEDPOLYGONALFACE((77,79,80,78));
#103=IFCINDEXEDPOLYGONALFACE((73,77,78,74));
#104=IFCINDEXEDPOLYGONALFACE((75,76,80,79));
#105=IFCINDEXEDPOLYGONALFACE((73,75,79,77));
#106=IFCINDEXEDPOLYGONALFACE((74,78,80,76));
#107=IFCINDEXEDPOLYGONALFACE((81,82,84,83));
#108=IFCINDEXEDPOLYGONALFACE((85,87,88,86));
#109=IFCINDEXEDPOLYGONALFACE((81,85,86,82));
#110=IFCINDEXEDPOLYGONALFACE((83,84,88,87));
#111=IFCINDEXEDPOLYGONALFACE((81,83,87,85));
#112=IFCINDEXEDPOLYGONALFACE((82,86,88,84));
#113=IFCINDEXEDPOLYGONALFACE((89,90,92,91));
#114=IFCINDEXEDPOLYGONALFACE((93,95,96,94));
#115=IFCINDEXEDPOLYGONALFACE((89,93,94,90));
#116=IFCINDEXEDPOLYGONALFACE((91,92,96,95));
#117=IFCINDEXEDPOLYGONALFACE((89,91,95,93));
#118=IFCINDEXEDPOLYGONALFACE((90,94,96,92));
#119=IFCINDEXEDPOLYGONALFACE((97,98,100,99));
#120=IFCINDEXEDPOLYGONALFACE((101,103,104,102));
#121=IFCINDEXEDPOLYGONALFACE((97,101,102,98));
#122=IFCINDEXEDPOLYGONALFACE((99,100,104,103));
#123=IFCINDEXEDPOLYGONALFACE((97,99,103,101));
#124=IFCINDEXEDPOLYGONALFACE((98,102,104,100));
#125=IFCINDEXEDPOLYGONALFACE((105,106,108,107));
#126=IFCINDEXEDPOLYGONALFACE((109,111,112,110));
#127=IFCINDEXEDPOLYGONALFACE((105,109,110,106));
#128=IFCINDEXEDPOLYGONALFACE((107,108,112,111));
#129=IFCINDEXEDPOLYGONALFACE((105,107,111,109));
#130=IFCINDEXEDPOLYGONALFACE((106,110,112,108));
#131=IFCINDEXEDPOLYGONALFACE((113,114,116,115));
#132=IFCINDEXEDPOLYGONALFACE((117,119,120,118));
#133=IFCINDEXEDPOLYGONALFACE((113,117,118,114));
#134=IFCINDEXEDPOLYGONALFACE((115,116,120,119));
#135=IFCINDEXEDPOLYGONALFACE((113,115,119,117));
#136=IFCINDEXEDPOLYGONALFACE((114,118,120,116));
#137=IFCINDEXEDPOLYGONALFACE((121,122,124,123));
#138=IFCINDEXEDPOLYGONALFACE((125,127,128,126));
#139=IFCINDEXEDPOLYGONALFACE((121,125,126,122));
#140=IFCINDEXEDPOLYGONALFACE((123,124,128,127));
#141=IFCINDEXEDPOLYGONALFACE((121,123,127,125));
#142=IFCINDEXEDPOLYGONALFACE((122,126,128,124));
#143=IFCINDEXEDPOLYGONALFACE((129,130,132,131));
#144=IFCINDEXEDPOLYGONALFACE((133,135,136,134));
#145=IFCINDEXEDPOLYGONALFACE((129,133,134,130));
#146=IFCINDEXEDPOLYGONALFACE((131,132,136,135));
#147=IFCINDEXEDPOLYGONALFACE((129,131,135,133));
#148=IFCINDEXEDPOLYGONALFACE((130,134,136,132));
#149=IFCINDEXEDPOLYGONALFACE((137,138,140,139));
#150=IFCINDEXEDPOLYGONALFACE((141,143,144,142));
#151=IFCINDEXEDPOLYGONALFACE((137,141,142,138));
#152=IFCINDEXEDPOLYGONALFACE((139,140,144,143));
#153=IFCINDEXEDPOLYGONALFACE((137,139,143,141));
#154=IFCINDEXEDPOLYGONALFACE((138,142,144,140));
#155=IFCINDEXEDPOLYGONALFACE((145,146,148,147));
#156=IFCINDEXEDPOLYGONALFACE((149,151,152,150));
#157=IFCINDEXEDPOLYGONALFACE((145,149,150,146));
#158=IFCINDEXEDPOLYGONALFACE((147,148,152,151));
#159=IFCINDEXEDPOLYGONALFACE((145,147,151,149));
#160=IFCINDEXEDPOLYGONALFACE((146,150,152,148));
#161=IFCINDEXEDPOLYGONALFACE((153,154,156,155));
#162=IFCINDEXEDPOLYGONALFACE((157,159,160,158));
#163=IFCINDEXEDPOLYGONALFACE((153,157,158,154));
#164=IFCINDEXEDPOLYGONALFACE((155,156,160,159));
#165=IFCINDEXEDPOLYGONALFACE((153,155,159,157));
#166=IFCINDEXEDPOLYGONALFACE((154,158,160,156));
#167=IFCINDEXEDPOLYGONALFACE((161,162,164,163));
#168=IFCINDEXEDPOLYGONALFACE((165,167,168,166));
#169=IFCINDEXEDPOLYGONALFACE((161,165,166,162));
#170=IFCINDEXEDPOLYGONALFACE((163,164,168,167));
#171=IFCINDEXEDPOLYGONALFACE((161,163,167,165));
#172=IFCINDEXEDPOLYGONALFACE((162,166,168,164));
#173=IFCINDEXEDPOLYGONALFACE((169,170,172,171));
#174=IFCINDEXEDPOLYGONALFACE((173,175,176,174));
#175=IFCINDEXEDPOLYGONALFACE((169,173,174,170));
#176=IFCINDEXEDPOLYGONALFACE((171,172,176,175));
#177=IFCINDEXEDPOLYGONALFACE((169,171,175,173));
#178=IFCINDEXEDPOLYGONALFACE((170,174,176,172));
#179=IFCINDEXEDPOLYGONALFACE((177,178,180,179));
#180=IFCINDEXEDPOLYGONALFACE((181,183,184,182));
#181=IFCINDEXEDPOLYGONALFACE((177,181,182,178));
#182=IFCINDEXEDPOLYGONALFACE((179,180,184,183));
#183=IFCINDEXEDPOLYGONALFACE((177,179,183,181));
#184=IFCINDEXEDPOLYGONALFACE((178,182,184,180));
#185=IFCINDEXEDPOLYGONALFACE((185,186,188,187));
#186=IFCINDEXEDPOLYGONALFACE((189,191,192,190));
#187=IFCINDEXEDPOLYGONALFACE((185,189,190,186));
#188=IFCINDEXEDPOLYGONALFACE((187,188,192,191));
#189=IFCINDEXEDPOLYGONALFACE((185,187,191,189));
#190=IFCINDEXEDPOLYGONALFACE((186,190,192,188));
#191=IFCINDEXEDPOLYGONALFACE((193,194,196,195));
#192=IFCINDEXEDPOLYGONALFACE((197,199,200,198));
#193=IFCINDEXEDPOLYGONALFACE((193,197,198,194));
#194=IFCINDEXEDPOLYGONALFACE((195,196,200,199));
#195=IFCINDEXEDPOLYGONALFACE((193,195,199,197));
#196=IFCINDEXEDPOLYGONALFACE((194,198,200,196));
#197=IFCINDEXEDPOLYGONALFACE((201,202,204,203));
#198=IFCINDEXEDPOLYGONALFACE((205,207,208,206));
#199=IFCINDEXEDPOLYGONALFACE((201,205,206,202));
#200=IFCINDEXEDPOLYGONALFACE((203,204,208,207));
#201=IFCINDEXEDPOLYGONALFACE((201,203,207,205));
#202=IFCINDEXEDPOLYGONALFACE((202,206,208,204));
#203=IFCINDEXEDPOLYGONALFACE((209,210,212,211));
#204=IFCINDEXEDPOLYGONALFACE((213,215,216,214));
#205=IFCINDEXEDPOLYGONALFACE((209,213,214,210));
#206=IFCINDEXEDPOLYGONALFACE((211,212,216,215));
#207=IFCINDEXEDPOLYGONALFACE((209,211,215,213));
#208=IFCINDEXEDPOLYGONALFACE((210,214,216,212));
#209=IFCINDEXEDPOLYGONALFACE((217,218,220,219));
#210=IFCINDEXEDPOLYGONALFACE((221,223,224,222));
#211=IFCINDEXEDPOLYGONALFACE((217,221,222,218));
#212=IFCINDEXEDPOLYGONALFACE((219,220,224,223));
#213=IFCINDEXEDPOLYGONALFACE((217,219,223,221));
#214=IFCINDEXEDPOLYGONALFACE((218,222,224,220));
#215=IFCPOLYGONALFACESET(#46,$,(#47,#48,#49,#50,#51,#52,#53,#54,#55,#56,#57,#58,#59,#60,#61,#62,#63,#64,#65,#66,#67,#68,#69,#70,#71,#72,#73,#74,#75,#76,#77,#78,#79,#80,#81,#82,#83,#84,#85,#86,#87,#88,#89,#90,#91,#92,#93,#94,#95,#96,#97,#98,#99,#100,#101,#102,#103,#104,#105,#106,#107,#108,#109,#110,#111,#112,#113,#114,#115,#116,#117,#118,#119,#120,#121,#122,#123,#124,#125,#126,#127,#128,#129,#130,#131,#132,#133,#134,#135,#136,#137,#138,#139,#140,#141,#142,#143,#144,#145,#146,#147,#148,#149,#150,#151,#152,#153,#154,#155,#156,#157,#158,#159,#160,#161,#162,#163,#164,#165,#166,#167,#168,#169,#170,#171,#172,#173,#174,#175,#176,#177,#178,#179,#180,#181,#182,#183,#184,#185,#186,#187,#188,#189,#190,#191,#192,#193,#194,#195,#196,#197,#198,#199,#200,#201,#202,#203,#204,#205,#206,#207,#208,#209,#210,#211,#212,#213,#214),$);
#216=IFCSHAPEREPRESENTATION(#13,'Body','Tessellation',(#215));
#217=IFCPRODUCTDEFINITIONSHAPE($,$,(#216));
#218=IFCBUILDINGELEMENTPROXY('3tH1CL4E5VIQF0ZhM1VINf',$,'inter-car passenger bridge, turntable and flexible interior-panel set','The bridge and turntable provide a flush, anti-slip passenger path across the full released articulation envelope with guarded pinch zones.',$,#257,#249,'LM3-ART-P023',$);
#219=IFCPROPERTYSINGLEVALUE('OSRId',$,IFCTEXT('LM3-ART-P023'),$);
#220=IFCPROPERTYSINGLEVALUE('Parent',$,IFCTEXT('LM3-ART-SA820'),$);
#221=IFCPROPERTYSINGLEVALUE('Route',$,IFCTEXT('BID'),$);
#222=IFCPROPERTYSINGLEVALUE('Maturity',$,IFCTEXT('buildable-after-supplier-freeze'),$);
#223=IFCPROPERTYSINGLEVALUE('QuantityPerTrainset',$,IFCINTEGER(2),$);
#224=IFCPROPERTYSINGLEVALUE('Unit',$,IFCTEXT('gangway set'),$);
#225=IFCPROPERTYSINGLEVALUE('GeometryStatus',$,IFCTEXT('design-reference-not-released'),$);
#226=IFCPROPERTYSET('2dT2r1cCvLsPRtm9eFDLBr',$,'OSR_ProductDefinition',$,(#219,#220,#221,#222,#223,#224,#225));
#227=IFCRELDEFINESBYPROPERTIES('0hM9ZYt$XQmebJwqmSDlbn',$,$,$,(#218),#226);
#228=IFCCARTESIANPOINTLIST3D(((-0.625,-0.38850000000000001,-0.054600000000000003),(-0.625,-0.38850000000000001,0.054600000000000003),(-0.625,0.38850000000000001,-0.054600000000000003),(-0.625,0.38850000000000001,0.054600000000000003),(0.625,-0.38850000000000001,-0.054600000000000003),(0.625,-0.38850000000000001,0.054600000000000003),(0.625,0.38850000000000001,-0.054600000000000003),(0.625,0.38850000000000001,0.054600000000000003),(-0.29999999999999999,-0.92500000000000004,-0.041599999999999998),(-0.29999999999999999,-0.92500000000000004,0.041599999999999998),(-0.29999999999999999,0.92500000000000004,-0.041599999999999998),(-0.29999999999999999,0.92500000000000004,0.041599999999999998),(0.29999999999999999,-0.92500000000000004,-0.041599999999999998),(0.29999999999999999,-0.92500000000000004,0.041599999999999998),(0.29999999999999999,0.92500000000000004,-0.041599999999999998),(0.29999999999999999,0.92500000000000004,0.041599999999999998),(-0.1125,-0.20349999999999999,-0.13),(-0.1125,-0.20349999999999999,0.13),(-0.1125,0.20349999999999999,-0.13),(-0.1125,0.20349999999999999,0.13),(0.1125,-0.20349999999999999,-0.13),(0.1125,-0.20349999999999999,0.13),(0.1125,0.20349999999999999,-0.13),(0.1125,0.20349999999999999,0.13)),$);
#229=IFCINDEXEDPOLYGONALFACE((1,2,4,3));
#230=IFCINDEXEDPOLYGONALFACE((5,7,8,6));
#231=IFCINDEXEDPOLYGONALFACE((1,5,6,2));
#232=IFCINDEXEDPOLYGONALFACE((3,4,8,7));
#233=IFCINDEXEDPOLYGONALFACE((1,3,7,5));
#234=IFCINDEXEDPOLYGONALFACE((2,6,8,4));
#235=IFCINDEXEDPOLYGONALFACE((9,10,12,11));
#236=IFCINDEXEDPOLYGONALFACE((13,15,16,14));
#237=IFCINDEXEDPOLYGONALFACE((9,13,14,10));
#238=IFCINDEXEDPOLYGONALFACE((11,12,16,15));
#239=IFCINDEXEDPOLYGONALFACE((9,11,15,13));
#240=IFCINDEXEDPOLYGONALFACE((10,14,16,12));
#241=IFCINDEXEDPOLYGONALFACE((17,18,20,19));
#242=IFCINDEXEDPOLYGONALFACE((21,23,24,22));
#243=IFCINDEXEDPOLYGONALFACE((17,21,22,18));
#244=IFCINDEXEDPOLYGONALFACE((19,20,24,23));
#245=IFCINDEXEDPOLYGONALFACE((17,19,23,21));
#246=IFCINDEXEDPOLYGONALFACE((18,22,24,20));
#247=IFCPOLYGONALFACESET(#228,$,(#229,#230,#231,#232,#233,#234,#235,#236,#237,#238,#239,#240,#241,#242,#243,#244,#245,#246),$);
#248=IFCSHAPEREPRESENTATION(#13,'Body','Tessellation',(#247));
#249=IFCPRODUCTDEFINITIONSHAPE($,$,(#248));
#250=IFCRELAGGREGATES('1kX4thwojIKuQTDG44Pl8o',$,$,$,#28,(#36,#218));
#251=IFCRELCONTAINEDINSPATIALSTRUCTURE('0onDEeo4nHAfHnq6qbiaEb',$,$,$,(#28),#3);
#252=IFCCARTESIANPOINT((0.,0.,0.));
#253=IFCAXIS2PLACEMENT3D(#252,$,$);
#254=IFCLOCALPLACEMENT($,#253);
#255=IFCCARTESIANPOINT((2.0499999999999998,0.,0.));
#256=IFCAXIS2PLACEMENT3D(#255,$,$);
#257=IFCLOCALPLACEMENT($,#256);
ENDSEC;
END-ISO-10303-21;
