ISO-10303-21;
HEADER;
FILE_DESCRIPTION(('ViewDefinition [CoordinationView]'),'2;1');
FILE_NAME('LM3-BDY-SA120.ifc','2026-08-30T00:00:00+00:00',('OpenSourceRail'),('OpenSourceRail'),'IfcOpenShell 0.8.5','OpenSourceRail deterministic LM3 product-library exporter','design-reference / not for construction');
FILE_SCHEMA(('IFC4X3_ADD2'));
ENDSEC;
DATA;
#1=IFCPROJECT('2OxSn4PDzUzv7Mu8czrTZb',$,'LM3-BDY-SA120 \X2\2014\X0\ carbody spaceframe and floor assembly','Design-reference geometry and assembly hierarchy only; supplier freeze, released drawings/tolerances, calculations, qualified processes and first-article tests remain mandatory.',$,$,$,(#12),#7);
#2=IFCSITE('1$Bbc_xkXNd9V87rSjwTuj',$,'LM3 product library',$,$,#18,$,$,.ELEMENT.,$,$,$,$,$);
#3=IFCBUILDING('09VgV$9U1QaQSZSCQ4BCKG',$,'LM3 assembly inspection fixture',$,$,#21,$,$,.ELEMENT.,$,$,$);
#4=IFCSIUNIT(*,.LENGTHUNIT.,$,.METRE.);
#5=IFCSIUNIT(*,.AREAUNIT.,$,.SQUARE_METRE.);
#6=IFCSIUNIT(*,.VOLUMEUNIT.,$,.CUBIC_METRE.);
#7=IFCUNITASSIGNMENT((#6,#4,#5));
#8=IFCCARTESIANPOINT((0.,0.,0.));
#9=IFCDIRECTION((0.,0.,1.));
#10=IFCDIRECTION((1.,0.,0.));
#11=IFCAXIS2PLACEMENT3D(#8,#9,#10);
#12=IFCGEOMETRICREPRESENTATIONCONTEXT($,'Model',3,1.0000000000000001E-05,#11,$);
#13=IFCGEOMETRICREPRESENTATIONSUBCONTEXT('Body','Model',*,*,*,*,#12,$,.MODEL_VIEW.,$);
#14=IFCRELAGGREGATES('2rBKdbfyzJ0gZPxL3BX2SJ',$,$,$,#1,(#2));
#15=IFCRELAGGREGATES('3307B4uVLIpf7yw2L4UhY1',$,$,$,#2,(#3));
#16=IFCCARTESIANPOINT((0.,0.,0.));
#17=IFCAXIS2PLACEMENT3D(#16,$,$);
#18=IFCLOCALPLACEMENT($,#17);
#19=IFCCARTESIANPOINT((0.,0.,0.));
#20=IFCAXIS2PLACEMENT3D(#19,$,$);
#21=IFCLOCALPLACEMENT($,#20);
#22=IFCPROPERTYSINGLEVALUE('Status',$,IFCTEXT('design-reference-not-released'),$);
#23=IFCPROPERTYSINGLEVALUE('ReleaseBoundary',$,IFCTEXT('Design-reference geometry and assembly hierarchy only; supplier freeze, released drawings/tolerances, calculations, qualified processes and first-article tests remain mandatory.'),$);
#24=IFCPROPERTYSINGLEVALUE('Manifest',$,IFCTEXT('design/component-catalogue/catalog/buildable-trainset/buildable-trainset-manifest.json'),$);
#25=IFCPROPERTYSINGLEVALUE('ManifestSha256',$,IFCTEXT('7654747909805305ce2018109b5b649c4817a8f8c44a3ec8f2e8a6f74d48243e'),$);
#26=IFCPROPERTYSET('3VKYcA6w9GygNOG7At7tZK',$,'OSR_ProductLibrary',$,(#22,#23,#24,#25));
#27=IFCRELDEFINESBYPROPERTIES('2MvSc9a2jKowKzLVYyfThd',$,$,$,(#1),#26);
#28=IFCELEMENTASSEMBLY('37ATOUhr1Kz9bv5MnD20lU',$,'carbody spaceframe and floor assembly','door/window aperture survey | roof rail survey | carbody dimensional report',$,$,$,'LM3-BDY-SA120',$,$);
#29=IFCPROPERTYSINGLEVALUE('OSRId',$,IFCTEXT('LM3-BDY-SA120'),$);
#30=IFCPROPERTYSINGLEVALUE('Layer',$,IFCTEXT('subassembly'),$);
#31=IFCPROPERTYSINGLEVALUE('BuildCell',$,IFCTEXT('weld and fixture cell'),$);
#32=IFCPROPERTYSINGLEVALUE('QuantityPerTrainset',$,IFCINTEGER(3),$);
#33=IFCPROPERTYSINGLEVALUE('GeometryStatus',$,IFCTEXT('complete-hierarchy-inspection-layout'),$);
#34=IFCPROPERTYSET('3M2rzybE5HUfkWEfs2OK5C',$,'OSR_AssemblyDefinition',$,(#29,#30,#31,#32,#33));
#35=IFCRELDEFINESBYPROPERTIES('3Sh4WYM9HOrvVn58be2raj',$,$,$,(#28),#34);
#36=IFCELEMENTASSEMBLY('0Zvn_szTHGPhyExotTAsrA',$,'underframe datum weldment','material release | fixture tack survey | weld/NDT release | post-weld datum survey',$,$,$,'LM3-BDY-SA110',$,$);
#37=IFCPROPERTYSINGLEVALUE('OSRId',$,IFCTEXT('LM3-BDY-SA110'),$);
#38=IFCPROPERTYSINGLEVALUE('Layer',$,IFCTEXT('subassembly'),$);
#39=IFCPROPERTYSINGLEVALUE('BuildCell',$,IFCTEXT('weld and fixture cell'),$);
#40=IFCPROPERTYSINGLEVALUE('QuantityPerTrainset',$,IFCINTEGER(3),$);
#41=IFCPROPERTYSINGLEVALUE('GeometryStatus',$,IFCTEXT('complete-hierarchy-inspection-layout'),$);
#42=IFCPROPERTYSET('3$4nK1XC9Qf9_xm7HuforH',$,'OSR_AssemblyDefinition',$,(#37,#38,#39,#40,#41));
#43=IFCRELDEFINESBYPROPERTIES('3b6wNAjGrUzvrbNSkOI5EN',$,$,$,(#36),#42);
#44=IFCMEMBER('2lwXlOTK5UYvOMkEN7IgOW',$,'laser-cut side sill beam, LH/RH','S355 RHS/folded section cut, formed, drilled, and fixture-welded locally.',$,#333,#64,'LM3-BDY-P010',$);
#45=IFCPROPERTYSINGLEVALUE('OSRId',$,IFCTEXT('LM3-BDY-P010'),$);
#46=IFCPROPERTYSINGLEVALUE('Parent',$,IFCTEXT('LM3-BDY-SA110'),$);
#47=IFCPROPERTYSINGLEVALUE('Route',$,IFCTEXT('MAKE'),$);
#48=IFCPROPERTYSINGLEVALUE('Maturity',$,IFCTEXT('release-candidate'),$);
#49=IFCPROPERTYSINGLEVALUE('QuantityPerTrainset',$,IFCINTEGER(6),$);
#50=IFCPROPERTYSINGLEVALUE('Unit',$,IFCTEXT('ea'),$);
#51=IFCPROPERTYSINGLEVALUE('GeometryStatus',$,IFCTEXT('design-reference-not-released'),$);
#52=IFCPROPERTYSINGLEVALUE('GeometryLevel',$,IFCTEXT('interface-detailed'),$);
#53=IFCPROPERTYSET('0o93EoDPvTEAP4EBVZeyzp',$,'OSR_ProductDefinition',$,(#45,#46,#47,#48,#49,#50,#51,#52));
#54=IFCRELDEFINESBYPROPERTIES('27mKzhcs5QqwfdmUgn0W0v',$,$,$,(#44),#53);
#55=IFCCARTESIANPOINTLIST3D(((-8.,-0.089999999999999997,-0.13),(-8.,-0.089999999999999997,0.13),(-8.,0.089999999999999997,-0.13),(-8.,0.089999999999999997,0.13),(8.,-0.089999999999999997,-0.13),(8.,-0.089999999999999997,0.13),(8.,0.089999999999999997,-0.13),(8.,0.089999999999999997,0.13)),$);
#56=IFCINDEXEDPOLYGONALFACE((1,2,4,3));
#57=IFCINDEXEDPOLYGONALFACE((5,7,8,6));
#58=IFCINDEXEDPOLYGONALFACE((1,5,6,2));
#59=IFCINDEXEDPOLYGONALFACE((3,4,8,7));
#60=IFCINDEXEDPOLYGONALFACE((1,3,7,5));
#61=IFCINDEXEDPOLYGONALFACE((2,6,8,4));
#62=IFCPOLYGONALFACESET(#55,$,(#56,#57,#58,#59,#60,#61),$);
#63=IFCSHAPEREPRESENTATION(#13,'Body','Tessellation',(#62));
#64=IFCPRODUCTDEFINITIONSHAPE($,$,(#63));
#65=IFCMEMBER('3VY6sqad9VsRCzGGdmSWCH',$,'underframe centre spine and cross-bearer kit','Cut plate/RHS kit for one car; QR-marked before welding.',$,#336,#127,'LM3-BDY-P020',$);
#66=IFCPROPERTYSINGLEVALUE('OSRId',$,IFCTEXT('LM3-BDY-P020'),$);
#67=IFCPROPERTYSINGLEVALUE('Parent',$,IFCTEXT('LM3-BDY-SA110'),$);
#68=IFCPROPERTYSINGLEVALUE('Route',$,IFCTEXT('MAKE'),$);
#69=IFCPROPERTYSINGLEVALUE('Maturity',$,IFCTEXT('release-candidate'),$);
#70=IFCPROPERTYSINGLEVALUE('QuantityPerTrainset',$,IFCINTEGER(3),$);
#71=IFCPROPERTYSINGLEVALUE('Unit',$,IFCTEXT('kit'),$);
#72=IFCPROPERTYSINGLEVALUE('GeometryStatus',$,IFCTEXT('design-reference-not-released'),$);
#73=IFCPROPERTYSINGLEVALUE('GeometryLevel',$,IFCTEXT('interface-detailed'),$);
#74=IFCPROPERTYSET('0mx5TNpqnSCR$sjZpqt274',$,'OSR_ProductDefinition',$,(#66,#67,#68,#69,#70,#71,#72,#73));
#75=IFCRELDEFINESBYPROPERTIES('2zQUQ2nE1LO86nF_JkOBD1',$,$,$,(#65),#74);
#76=IFCCARTESIANPOINTLIST3D(((-7.9000000000000004,-0.11,-0.19),(-7.9000000000000004,-0.11,0.19),(-7.9000000000000004,0.11,-0.19),(-7.9000000000000004,0.11,0.19),(7.9000000000000004,-0.11,-0.19),(7.9000000000000004,-0.11,0.19),(7.9000000000000004,0.11,-0.19),(7.9000000000000004,0.11,0.19),(-7.3579999999999997,-1.325,-0.13679999999999998),(-7.3579999999999997,-1.325,0.13679999999999998),(-7.3579999999999997,1.325,-0.13679999999999998),(-7.3579999999999997,1.325,0.13679999999999998),(-7.1779999999999999,-1.325,-0.13679999999999998),(-7.1779999999999999,-1.325,0.13679999999999998),(-7.1779999999999999,1.325,-0.13679999999999998),(-7.1779999999999999,1.325,0.13679999999999998),(-4.9880000000000004,-1.325,-0.13679999999999998),(-4.9880000000000004,-1.325,0.13679999999999998),(-4.9880000000000004,1.325,-0.13679999999999998),(-4.9880000000000004,1.325,0.13679999999999998),(-4.8079999999999998,-1.325,-0.13679999999999998),(-4.8079999999999998,-1.325,0.13679999999999998),(-4.8079999999999998,1.325,-0.13679999999999998),(-4.8079999999999998,1.325,0.13679999999999998),(-2.6179999999999999,-1.325,-0.13679999999999998),(-2.6179999999999999,-1.325,0.13679999999999998),(-2.6179999999999999,1.325,-0.13679999999999998),(-2.6179999999999999,1.325,0.13679999999999998),(-2.4380000000000002,-1.325,-0.13679999999999998),(-2.4380000000000002,-1.325,0.13679999999999998),(-2.4380000000000002,1.325,-0.13679999999999998),(-2.4380000000000002,1.325,0.13679999999999998),(-0.089999999999999997,-1.325,-0.13679999999999998),(-0.089999999999999997,-1.325,0.13679999999999998),(-0.089999999999999997,1.325,-0.13679999999999998),(-0.089999999999999997,1.325,0.13679999999999998),(0.089999999999999997,-1.325,-0.13679999999999998),(0.089999999999999997,-1.325,0.13679999999999998),(0.089999999999999997,1.325,-0.13679999999999998),(0.089999999999999997,1.325,0.13679999999999998),(2.4380000000000002,-1.325,-0.13679999999999998),(2.4380000000000002,-1.325,0.13679999999999998),(2.4380000000000002,1.325,-0.13679999999999998),(2.4380000000000002,1.325,0.13679999999999998),(2.6179999999999999,-1.325,-0.13679999999999998),(2.6179999999999999,-1.325,0.13679999999999998),(2.6179999999999999,1.325,-0.13679999999999998),(2.6179999999999999,1.325,0.13679999999999998),(4.8079999999999998,-1.325,-0.13679999999999998),(4.8079999999999998,-1.325,0.13679999999999998),(4.8079999999999998,1.325,-0.13679999999999998),(4.8079999999999998,1.325,0.13679999999999998),(4.9880000000000004,-1.325,-0.13679999999999998),(4.9880000000000004,-1.325,0.13679999999999998),(4.9880000000000004,1.325,-0.13679999999999998),(4.9880000000000004,1.325,0.13679999999999998),(7.1779999999999999,-1.325,-0.13679999999999998),(7.1779999999999999,-1.325,0.13679999999999998),(7.1779999999999999,1.325,-0.13679999999999998),(7.1779999999999999,1.325,0.13679999999999998),(7.3579999999999997,-1.325,-0.13679999999999998),(7.3579999999999997,-1.325,0.13679999999999998),(7.3579999999999997,1.325,-0.13679999999999998),(7.3579999999999997,1.325,0.13679999999999998)),$);
#77=IFCINDEXEDPOLYGONALFACE((1,2,4,3));
#78=IFCINDEXEDPOLYGONALFACE((5,7,8,6));
#79=IFCINDEXEDPOLYGONALFACE((1,5,6,2));
#80=IFCINDEXEDPOLYGONALFACE((3,4,8,7));
#81=IFCINDEXEDPOLYGONALFACE((1,3,7,5));
#82=IFCINDEXEDPOLYGONALFACE((2,6,8,4));
#83=IFCINDEXEDPOLYGONALFACE((9,10,12,11));
#84=IFCINDEXEDPOLYGONALFACE((13,15,16,14));
#85=IFCINDEXEDPOLYGONALFACE((9,13,14,10));
#86=IFCINDEXEDPOLYGONALFACE((11,12,16,15));
#87=IFCINDEXEDPOLYGONALFACE((9,11,15,13));
#88=IFCINDEXEDPOLYGONALFACE((10,14,16,12));
#89=IFCINDEXEDPOLYGONALFACE((17,18,20,19));
#90=IFCINDEXEDPOLYGONALFACE((21,23,24,22));
#91=IFCINDEXEDPOLYGONALFACE((17,21,22,18));
#92=IFCINDEXEDPOLYGONALFACE((19,20,24,23));
#93=IFCINDEXEDPOLYGONALFACE((17,19,23,21));
#94=IFCINDEXEDPOLYGONALFACE((18,22,24,20));
#95=IFCINDEXEDPOLYGONALFACE((25,26,28,27));
#96=IFCINDEXEDPOLYGONALFACE((29,31,32,30));
#97=IFCINDEXEDPOLYGONALFACE((25,29,30,26));
#98=IFCINDEXEDPOLYGONALFACE((27,28,32,31));
#99=IFCINDEXEDPOLYGONALFACE((25,27,31,29));
#100=IFCINDEXEDPOLYGONALFACE((26,30,32,28));
#101=IFCINDEXEDPOLYGONALFACE((33,34,36,35));
#102=IFCINDEXEDPOLYGONALFACE((37,39,40,38));
#103=IFCINDEXEDPOLYGONALFACE((33,37,38,34));
#104=IFCINDEXEDPOLYGONALFACE((35,36,40,39));
#105=IFCINDEXEDPOLYGONALFACE((33,35,39,37));
#106=IFCINDEXEDPOLYGONALFACE((34,38,40,36));
#107=IFCINDEXEDPOLYGONALFACE((41,42,44,43));
#108=IFCINDEXEDPOLYGONALFACE((45,47,48,46));
#109=IFCINDEXEDPOLYGONALFACE((41,45,46,42));
#110=IFCINDEXEDPOLYGONALFACE((43,44,48,47));
#111=IFCINDEXEDPOLYGONALFACE((41,43,47,45));
#112=IFCINDEXEDPOLYGONALFACE((42,46,48,44));
#113=IFCINDEXEDPOLYGONALFACE((49,50,52,51));
#114=IFCINDEXEDPOLYGONALFACE((53,55,56,54));
#115=IFCINDEXEDPOLYGONALFACE((49,53,54,50));
#116=IFCINDEXEDPOLYGONALFACE((51,52,56,55));
#117=IFCINDEXEDPOLYGONALFACE((49,51,55,53));
#118=IFCINDEXEDPOLYGONALFACE((50,54,56,52));
#119=IFCINDEXEDPOLYGONALFACE((57,58,60,59));
#120=IFCINDEXEDPOLYGONALFACE((61,63,64,62));
#121=IFCINDEXEDPOLYGONALFACE((57,61,62,58));
#122=IFCINDEXEDPOLYGONALFACE((59,60,64,63));
#123=IFCINDEXEDPOLYGONALFACE((57,59,63,61));
#124=IFCINDEXEDPOLYGONALFACE((58,62,64,60));
#125=IFCPOLYGONALFACESET(#76,$,(#77,#78,#79,#80,#81,#82,#83,#84,#85,#86,#87,#88,#89,#90,#91,#92,#93,#94,#95,#96,#97,#98,#99,#100,#101,#102,#103,#104,#105,#106,#107,#108,#109,#110,#111,#112,#113,#114,#115,#116,#117,#118,#119,#120,#121,#122,#123,#124),$);
#126=IFCSHAPEREPRESENTATION(#13,'Body','Tessellation',(#125));
#127=IFCPRODUCTDEFINITIONSHAPE($,$,(#126));
#128=IFCMEMBER('0$ciw7kZnU3hKEVUw8uRjJ',$,'bolster box, air-spring pad, and centre-pivot insert set','Folded and welded bolster boxes, machined after weld where required.',$,#339,#186,'LM3-BDY-P030',$);
#129=IFCPROPERTYSINGLEVALUE('OSRId',$,IFCTEXT('LM3-BDY-P030'),$);
#130=IFCPROPERTYSINGLEVALUE('Parent',$,IFCTEXT('LM3-BDY-SA110'),$);
#131=IFCPROPERTYSINGLEVALUE('Route',$,IFCTEXT('MAKE'),$);
#132=IFCPROPERTYSINGLEVALUE('Maturity',$,IFCTEXT('release-candidate'),$);
#133=IFCPROPERTYSINGLEVALUE('QuantityPerTrainset',$,IFCINTEGER(6),$);
#134=IFCPROPERTYSINGLEVALUE('Unit',$,IFCTEXT('set'),$);
#135=IFCPROPERTYSINGLEVALUE('GeometryStatus',$,IFCTEXT('design-reference-not-released'),$);
#136=IFCPROPERTYSINGLEVALUE('GeometryLevel',$,IFCTEXT('interface-detailed'),$);
#137=IFCPROPERTYSET('1iR0HnPwXQ19Q0IYRTU06n',$,'OSR_ProductDefinition',$,(#129,#130,#131,#132,#133,#134,#135,#136));
#138=IFCRELDEFINESBYPROPERTIES('1OJOo$TdvHwAWigrlZrAvA',$,$,$,(#128),#137);
#139=IFCCARTESIANPOINTLIST3D(((0.84999999999999998,0.,-0.13019999999999998),(0.80839803885088046,0.2626644452187053,-0.13019999999999998),(0.68766444521870529,0.49961746444860217,-0.13019999999999998),(0.49961746444860217,0.68766444521870529,-0.13019999999999998),(0.2626644452187053,0.80839803885088046,-0.13019999999999998),(5.2047488963762507E-17,0.84999999999999998,-0.13019999999999998),(-0.26266444521870524,0.80839803885088057,-0.13019999999999998),(-0.49961746444860206,0.68766444521870529,-0.13019999999999998),(-0.68766444521870518,0.49961746444860222,-0.13019999999999998),(-0.80839803885088046,0.26266444521870536,-0.13019999999999998),(-0.84999999999999998,1.0409497792752501E-16,-0.13019999999999998),(-0.80839803885088068,-0.26266444521870486,-0.13019999999999998),(-0.6876644452187054,-0.49961746444860206,-0.13019999999999998),(-0.49961746444860222,-0.68766444521870518,-0.13019999999999998),(-0.26266444521870541,-0.80839803885088046,-0.13019999999999998),(-1.5614246689128752E-16,-0.84999999999999998,-0.13019999999999998),(0.26266444521870513,-0.80839803885088057,-0.13019999999999998),(0.49961746444860194,-0.6876644452187054,-0.13019999999999998),(0.68766444521870518,-0.49961746444860233,-0.13019999999999998),(0.80839803885088046,-0.26266444521870547,-0.13019999999999998),(0.84999999999999998,0.,0.13019999999999998),(0.80839803885088046,0.2626644452187053,0.13019999999999998),(0.68766444521870529,0.49961746444860217,0.13019999999999998),(0.49961746444860217,0.68766444521870529,0.13019999999999998),(0.2626644452187053,0.80839803885088046,0.13019999999999998),(5.2047488963762507E-17,0.84999999999999998,0.13019999999999998),(-0.26266444521870524,0.80839803885088057,0.13019999999999998),(-0.49961746444860206,0.68766444521870529,0.13019999999999998),(-0.68766444521870518,0.49961746444860222,0.13019999999999998),(-0.80839803885088046,0.26266444521870536,0.13019999999999998),(-0.84999999999999998,1.0409497792752501E-16,0.13019999999999998),(-0.80839803885088068,-0.26266444521870486,0.13019999999999998),(-0.6876644452187054,-0.49961746444860206,0.13019999999999998),(-0.49961746444860222,-0.68766444521870518,0.13019999999999998),(-0.26266444521870541,-0.80839803885088046,0.13019999999999998),(-1.5614246689128752E-16,-0.84999999999999998,0.13019999999999998),(0.26266444521870513,-0.80839803885088057,0.13019999999999998),(0.49961746444860194,-0.6876644452187054,0.13019999999999998),(0.68766444521870518,-0.49961746444860233,0.13019999999999998),(0.80839803885088046,-0.26266444521870547,0.13019999999999998),(0.20399999999999999,0.,-0.20999999999999999),(0.19401552932421132,0.063039466852489262,-0.20999999999999999),(0.16503946685248927,0.11990819146766452,-0.20999999999999999),(0.11990819146766452,0.16503946685248927,-0.20999999999999999),(0.063039466852489276,0.19401552932421132,-0.20999999999999999),(1.2491397351303001E-17,0.20399999999999999,-0.20999999999999999),(-0.063039466852489248,0.19401552932421134,-0.20999999999999999),(-0.11990819146766449,0.16503946685248927,-0.20999999999999999),(-0.16503946685248924,0.11990819146766453,-0.20999999999999999),(-0.19401552932421132,0.06303946685248929,-0.20999999999999999),(-0.20399999999999999,2.4982794702606002E-17,-0.20999999999999999),(-0.19401552932421134,-0.063039466852489165,-0.20999999999999999),(-0.1650394668524893,-0.11990819146766449,-0.20999999999999999),(-0.11990819146766453,-0.16503946685248924,-0.20999999999999999),(-0.063039466852489304,-0.19401552932421132,-0.20999999999999999),(-3.7474192053909005E-17,-0.20399999999999999,-0.20999999999999999),(0.063039466852489234,-0.19401552932421134,-0.20999999999999999),(0.11990819146766447,-0.1650394668524893,-0.20999999999999999),(0.16503946685248924,-0.11990819146766456,-0.20999999999999999),(0.19401552932421132,-0.063039466852489304,-0.20999999999999999),(0.20399999999999999,0.,0.20999999999999999),(0.19401552932421132,0.063039466852489262,0.20999999999999999),(0.16503946685248927,0.11990819146766452,0.20999999999999999),(0.11990819146766452,0.16503946685248927,0.20999999999999999),(0.063039466852489276,0.19401552932421132,0.20999999999999999),(1.2491397351303001E-17,0.20399999999999999,0.20999999999999999),(-0.063039466852489248,0.19401552932421134,0.20999999999999999),(-0.11990819146766449,0.16503946685248927,0.20999999999999999),(-0.16503946685248924,0.11990819146766453,0.20999999999999999),(-0.19401552932421132,0.06303946685248929,0.20999999999999999),(-0.20399999999999999,2.4982794702606002E-17,0.20999999999999999),(-0.19401552932421134,-0.063039466852489165,0.20999999999999999),(-0.1650394668524893,-0.11990819146766449,0.20999999999999999),(-0.11990819146766453,-0.16503946685248924,0.20999999999999999),(-0.063039466852489304,-0.19401552932421132,0.20999999999999999),(-3.7474192053909005E-17,-0.20399999999999999,0.20999999999999999),(0.063039466852489234,-0.19401552932421134,0.20999999999999999),(0.11990819146766447,-0.1650394668524893,0.20999999999999999),(0.16503946685248924,-0.11990819146766456,0.20999999999999999),(0.19401552932421132,-0.063039466852489304,0.20999999999999999)),$);
#140=IFCINDEXEDPOLYGONALFACE((20,19,18,17,16,15,14,13,12,11,10,9,8,7,6,5,4,3,2,1));
#141=IFCINDEXEDPOLYGONALFACE((21,22,23,24,25,26,27,28,29,30,31,32,33,34,35,36,37,38,39,40));
#142=IFCINDEXEDPOLYGONALFACE((1,2,22,21));
#143=IFCINDEXEDPOLYGONALFACE((2,3,23,22));
#144=IFCINDEXEDPOLYGONALFACE((3,4,24,23));
#145=IFCINDEXEDPOLYGONALFACE((4,5,25,24));
#146=IFCINDEXEDPOLYGONALFACE((5,6,26,25));
#147=IFCINDEXEDPOLYGONALFACE((6,7,27,26));
#148=IFCINDEXEDPOLYGONALFACE((7,8,28,27));
#149=IFCINDEXEDPOLYGONALFACE((8,9,29,28));
#150=IFCINDEXEDPOLYGONALFACE((9,10,30,29));
#151=IFCINDEXEDPOLYGONALFACE((10,11,31,30));
#152=IFCINDEXEDPOLYGONALFACE((11,12,32,31));
#153=IFCINDEXEDPOLYGONALFACE((12,13,33,32));
#154=IFCINDEXEDPOLYGONALFACE((13,14,34,33));
#155=IFCINDEXEDPOLYGONALFACE((14,15,35,34));
#156=IFCINDEXEDPOLYGONALFACE((15,16,36,35));
#157=IFCINDEXEDPOLYGONALFACE((16,17,37,36));
#158=IFCINDEXEDPOLYGONALFACE((17,18,38,37));
#159=IFCINDEXEDPOLYGONALFACE((18,19,39,38));
#160=IFCINDEXEDPOLYGONALFACE((19,20,40,39));
#161=IFCINDEXEDPOLYGONALFACE((20,1,21,40));
#162=IFCINDEXEDPOLYGONALFACE((60,59,58,57,56,55,54,53,52,51,50,49,48,47,46,45,44,43,42,41));
#163=IFCINDEXEDPOLYGONALFACE((61,62,63,64,65,66,67,68,69,70,71,72,73,74,75,76,77,78,79,80));
#164=IFCINDEXEDPOLYGONALFACE((41,42,62,61));
#165=IFCINDEXEDPOLYGONALFACE((42,43,63,62));
#166=IFCINDEXEDPOLYGONALFACE((43,44,64,63));
#167=IFCINDEXEDPOLYGONALFACE((44,45,65,64));
#168=IFCINDEXEDPOLYGONALFACE((45,46,66,65));
#169=IFCINDEXEDPOLYGONALFACE((46,47,67,66));
#170=IFCINDEXEDPOLYGONALFACE((47,48,68,67));
#171=IFCINDEXEDPOLYGONALFACE((48,49,69,68));
#172=IFCINDEXEDPOLYGONALFACE((49,50,70,69));
#173=IFCINDEXEDPOLYGONALFACE((50,51,71,70));
#174=IFCINDEXEDPOLYGONALFACE((51,52,72,71));
#175=IFCINDEXEDPOLYGONALFACE((52,53,73,72));
#176=IFCINDEXEDPOLYGONALFACE((53,54,74,73));
#177=IFCINDEXEDPOLYGONALFACE((54,55,75,74));
#178=IFCINDEXEDPOLYGONALFACE((55,56,76,75));
#179=IFCINDEXEDPOLYGONALFACE((56,57,77,76));
#180=IFCINDEXEDPOLYGONALFACE((57,58,78,77));
#181=IFCINDEXEDPOLYGONALFACE((58,59,79,78));
#182=IFCINDEXEDPOLYGONALFACE((59,60,80,79));
#183=IFCINDEXEDPOLYGONALFACE((60,41,61,80));
#184=IFCPOLYGONALFACESET(#139,$,(#140,#141,#142,#143,#144,#145,#146,#147,#148,#149,#150,#151,#152,#153,#154,#155,#156,#157,#158,#159,#160,#161,#162,#163,#164,#165,#166,#167,#168,#169,#170,#171,#172,#173,#174,#175,#176,#177,#178,#179,#180,#181,#182,#183),$);
#185=IFCSHAPEREPRESENTATION(#13,'Body','Tessellation',(#184));
#186=IFCPRODUCTDEFINITIONSHAPE($,$,(#185));
#187=IFCDISCRETEACCESSORY('2yfM3HZ_HJMO435P$pZk1y',$,'jacking pad, lifting eye, towing lug, and recovery-label kit','Locally fabricated and proof-marked recovery fittings tied into released underframe load paths.',$,#342,#219,'LM3-BDY-P120',$);
#188=IFCPROPERTYSINGLEVALUE('OSRId',$,IFCTEXT('LM3-BDY-P120'),$);
#189=IFCPROPERTYSINGLEVALUE('Parent',$,IFCTEXT('LM3-BDY-SA110'),$);
#190=IFCPROPERTYSINGLEVALUE('Route',$,IFCTEXT('MAKE'),$);
#191=IFCPROPERTYSINGLEVALUE('Maturity',$,IFCTEXT('release-candidate'),$);
#192=IFCPROPERTYSINGLEVALUE('QuantityPerTrainset',$,IFCINTEGER(3),$);
#193=IFCPROPERTYSINGLEVALUE('Unit',$,IFCTEXT('car kit'),$);
#194=IFCPROPERTYSINGLEVALUE('GeometryStatus',$,IFCTEXT('design-reference-not-released'),$);
#195=IFCPROPERTYSINGLEVALUE('GeometryLevel',$,IFCTEXT('design-reference-detail'),$);
#196=IFCPROPERTYSET('1rmPitzlbP3vviyBkU3gbu',$,'OSR_ProductDefinition',$,(#188,#189,#190,#191,#192,#193,#194,#195));
#197=IFCRELDEFINESBYPROPERTIES('0kvlOzilvIgOQsKjq7YjrO',$,$,$,(#187),#196);
#198=IFCCARTESIANPOINTLIST3D(((-0.80000000000000004,-0.189,-0.058799999999999998),(-0.80000000000000004,-0.189,0.058799999999999998),(-0.80000000000000004,0.189,-0.058799999999999998),(-0.80000000000000004,0.189,0.058799999999999998),(0.80000000000000004,-0.189,-0.058799999999999998),(0.80000000000000004,-0.189,0.058799999999999998),(0.80000000000000004,0.189,-0.058799999999999998),(0.80000000000000004,0.189,0.058799999999999998),(-0.38400000000000001,-0.45000000000000001,-0.044800000000000006),(-0.38400000000000001,-0.45000000000000001,0.044800000000000006),(-0.38400000000000001,0.45000000000000001,-0.044800000000000006),(-0.38400000000000001,0.45000000000000001,0.044800000000000006),(0.38400000000000001,-0.45000000000000001,-0.044800000000000006),(0.38400000000000001,-0.45000000000000001,0.044800000000000006),(0.38400000000000001,0.45000000000000001,-0.044800000000000006),(0.38400000000000001,0.45000000000000001,0.044800000000000006),(-0.14399999999999999,-0.099000000000000005,-0.14000000000000001),(-0.14399999999999999,-0.099000000000000005,0.14000000000000001),(-0.14399999999999999,0.099000000000000005,-0.14000000000000001),(-0.14399999999999999,0.099000000000000005,0.14000000000000001),(0.14399999999999999,-0.099000000000000005,-0.14000000000000001),(0.14399999999999999,-0.099000000000000005,0.14000000000000001),(0.14399999999999999,0.099000000000000005,-0.14000000000000001),(0.14399999999999999,0.099000000000000005,0.14000000000000001)),$);
#199=IFCINDEXEDPOLYGONALFACE((1,2,4,3));
#200=IFCINDEXEDPOLYGONALFACE((5,7,8,6));
#201=IFCINDEXEDPOLYGONALFACE((1,5,6,2));
#202=IFCINDEXEDPOLYGONALFACE((3,4,8,7));
#203=IFCINDEXEDPOLYGONALFACE((1,3,7,5));
#204=IFCINDEXEDPOLYGONALFACE((2,6,8,4));
#205=IFCINDEXEDPOLYGONALFACE((9,10,12,11));
#206=IFCINDEXEDPOLYGONALFACE((13,15,16,14));
#207=IFCINDEXEDPOLYGONALFACE((9,13,14,10));
#208=IFCINDEXEDPOLYGONALFACE((11,12,16,15));
#209=IFCINDEXEDPOLYGONALFACE((9,11,15,13));
#210=IFCINDEXEDPOLYGONALFACE((10,14,16,12));
#211=IFCINDEXEDPOLYGONALFACE((17,18,20,19));
#212=IFCINDEXEDPOLYGONALFACE((21,23,24,22));
#213=IFCINDEXEDPOLYGONALFACE((17,21,22,18));
#214=IFCINDEXEDPOLYGONALFACE((19,20,24,23));
#215=IFCINDEXEDPOLYGONALFACE((17,19,23,21));
#216=IFCINDEXEDPOLYGONALFACE((18,22,24,20));
#217=IFCPOLYGONALFACESET(#198,$,(#199,#200,#201,#202,#203,#204,#205,#206,#207,#208,#209,#210,#211,#212,#213,#214,#215,#216),$);
#218=IFCSHAPEREPRESENTATION(#13,'Body','Tessellation',(#217));
#219=IFCPRODUCTDEFINITIONSHAPE($,$,(#218));
#220=IFCSLAB('3kQBZHQ1LLMwZAcjZGFMYq',$,'low-floor centre pan and raised bogie-end deck set','Stepped floor structure preserving low centre zone and high bogie-end decks.',$,#345,#252,'LM3-BDY-P060',$);
#221=IFCPROPERTYSINGLEVALUE('OSRId',$,IFCTEXT('LM3-BDY-P060'),$);
#222=IFCPROPERTYSINGLEVALUE('Parent',$,IFCTEXT('LM3-BDY-SA120'),$);
#223=IFCPROPERTYSINGLEVALUE('Route',$,IFCTEXT('MAKE'),$);
#224=IFCPROPERTYSINGLEVALUE('Maturity',$,IFCTEXT('release-candidate'),$);
#225=IFCPROPERTYSINGLEVALUE('QuantityPerTrainset',$,IFCINTEGER(3),$);
#226=IFCPROPERTYSINGLEVALUE('Unit',$,IFCTEXT('set'),$);
#227=IFCPROPERTYSINGLEVALUE('GeometryStatus',$,IFCTEXT('design-reference-not-released'),$);
#228=IFCPROPERTYSINGLEVALUE('GeometryLevel',$,IFCTEXT('interface-detailed'),$);
#229=IFCPROPERTYSET('0XmmkPMDDK$xedN8m4mB6a',$,'OSR_ProductDefinition',$,(#221,#222,#223,#224,#225,#226,#227,#228));
#230=IFCRELDEFINESBYPROPERTIES('3UHiRDepTMLOLMB5drQu5O',$,$,$,(#220),#229);
#231=IFCCARTESIANPOINTLIST3D(((-4.8360000000000003,-1.325,-0.082799999999999999),(-4.8360000000000003,-1.325,0.082799999999999999),(-4.8360000000000003,1.325,-0.082799999999999999),(-4.8360000000000003,1.325,0.082799999999999999),(4.8360000000000003,-1.325,-0.082799999999999999),(4.8360000000000003,-1.325,0.082799999999999999),(4.8360000000000003,1.325,-0.082799999999999999),(4.8360000000000003,1.325,0.082799999999999999),(-7.6440000000000001,-1.325,-0.11960000000000001),(-7.6440000000000001,-1.325,0.34039999999999998),(-7.6440000000000001,1.325,-0.11960000000000001),(-7.6440000000000001,1.325,0.34039999999999998),(-4.8360000000000003,-1.325,-0.11960000000000001),(-4.8360000000000003,-1.325,0.34039999999999998),(-4.8360000000000003,1.325,-0.11960000000000001),(-4.8360000000000003,1.325,0.34039999999999998),(4.8360000000000003,-1.325,-0.11960000000000001),(4.8360000000000003,-1.325,0.34039999999999998),(4.8360000000000003,1.325,-0.11960000000000001),(4.8360000000000003,1.325,0.34039999999999998),(7.6440000000000001,-1.325,-0.11960000000000001),(7.6440000000000001,-1.325,0.34039999999999998),(7.6440000000000001,1.325,-0.11960000000000001),(7.6440000000000001,1.325,0.34039999999999998)),$);
#232=IFCINDEXEDPOLYGONALFACE((1,2,4,3));
#233=IFCINDEXEDPOLYGONALFACE((5,7,8,6));
#234=IFCINDEXEDPOLYGONALFACE((1,5,6,2));
#235=IFCINDEXEDPOLYGONALFACE((3,4,8,7));
#236=IFCINDEXEDPOLYGONALFACE((1,3,7,5));
#237=IFCINDEXEDPOLYGONALFACE((2,6,8,4));
#238=IFCINDEXEDPOLYGONALFACE((9,10,12,11));
#239=IFCINDEXEDPOLYGONALFACE((13,15,16,14));
#240=IFCINDEXEDPOLYGONALFACE((9,13,14,10));
#241=IFCINDEXEDPOLYGONALFACE((11,12,16,15));
#242=IFCINDEXEDPOLYGONALFACE((9,11,15,13));
#243=IFCINDEXEDPOLYGONALFACE((10,14,16,12));
#244=IFCINDEXEDPOLYGONALFACE((17,18,20,19));
#245=IFCINDEXEDPOLYGONALFACE((21,23,24,22));
#246=IFCINDEXEDPOLYGONALFACE((17,21,22,18));
#247=IFCINDEXEDPOLYGONALFACE((19,20,24,23));
#248=IFCINDEXEDPOLYGONALFACE((17,19,23,21));
#249=IFCINDEXEDPOLYGONALFACE((18,22,24,20));
#250=IFCPOLYGONALFACESET(#231,$,(#232,#233,#234,#235,#236,#237,#238,#239,#240,#241,#242,#243,#244,#245,#246,#247,#248,#249),$);
#251=IFCSHAPEREPRESENTATION(#13,'Body','Tessellation',(#250));
#252=IFCPRODUCTDEFINITIONSHAPE($,$,(#251));
#253=IFCMEMBER('1LPKePk25HAwMOkZtPuHGG',$,'side-wall post, door portal, waist rail, and cant rail kit','Side frame welded in fixture before body close-up.',$,#348,#327,'LM3-BDY-P070',$);
#254=IFCPROPERTYSINGLEVALUE('OSRId',$,IFCTEXT('LM3-BDY-P070'),$);
#255=IFCPROPERTYSINGLEVALUE('Parent',$,IFCTEXT('LM3-BDY-SA120'),$);
#256=IFCPROPERTYSINGLEVALUE('Route',$,IFCTEXT('MAKE'),$);
#257=IFCPROPERTYSINGLEVALUE('Maturity',$,IFCTEXT('release-candidate'),$);
#258=IFCPROPERTYSINGLEVALUE('QuantityPerTrainset',$,IFCINTEGER(6),$);
#259=IFCPROPERTYSINGLEVALUE('Unit',$,IFCTEXT('side'),$);
#260=IFCPROPERTYSINGLEVALUE('GeometryStatus',$,IFCTEXT('design-reference-not-released'),$);
#261=IFCPROPERTYSINGLEVALUE('GeometryLevel',$,IFCTEXT('interface-detailed'),$);
#262=IFCPROPERTYSET('1vnRXKhU9N6gSKN0DsJuKo',$,'OSR_ProductDefinition',$,(#254,#255,#256,#257,#258,#259,#260,#261));
#263=IFCRELDEFINESBYPROPERTIES('0tBZ0ym$bG8e6o$D8Fg536',$,$,$,(#253),#262);
#264=IFCCARTESIANPOINTLIST3D(((-7.9000000000000004,-0.089999999999999997,-0.059999999999999998),(-7.9000000000000004,-0.089999999999999997,0.059999999999999998),(-7.9000000000000004,0.089999999999999997,-0.059999999999999998),(-7.9000000000000004,0.089999999999999997,0.059999999999999998),(7.9000000000000004,-0.089999999999999997,-0.059999999999999998),(7.9000000000000004,-0.089999999999999997,0.059999999999999998),(7.9000000000000004,0.089999999999999997,-0.059999999999999998),(7.9000000000000004,0.089999999999999997,0.059999999999999998),(-7.9000000000000004,-0.089999999999999997,1.2509999999999999),(-7.9000000000000004,-0.089999999999999997,1.371),(-7.9000000000000004,0.089999999999999997,1.2509999999999999),(-7.9000000000000004,0.089999999999999997,1.371),(7.9000000000000004,-0.089999999999999997,1.2509999999999999),(7.9000000000000004,-0.089999999999999997,1.371),(7.9000000000000004,0.089999999999999997,1.2509999999999999),(7.9000000000000004,0.089999999999999997,1.371),(-7.9000000000000004,-0.089999999999999997,-1.371),(-7.9000000000000004,-0.089999999999999997,-1.2509999999999999),(-7.9000000000000004,0.089999999999999997,-1.371),(-7.9000000000000004,0.089999999999999997,-1.2509999999999999),(7.9000000000000004,-0.089999999999999997,-1.371),(7.9000000000000004,-0.089999999999999997,-1.2509999999999999),(7.9000000000000004,0.089999999999999997,-1.371),(7.9000000000000004,0.089999999999999997,-1.2509999999999999),(-7.1600000000000001,-0.089999999999999997,-1.425),(-7.1600000000000001,-0.089999999999999997,1.425),(-7.1600000000000001,0.089999999999999997,-1.425),(-7.1600000000000001,0.089999999999999997,1.425),(-7.0599999999999996,-0.089999999999999997,-1.425),(-7.0599999999999996,-0.089999999999999997,1.425),(-7.0599999999999996,0.089999999999999997,-1.425),(-7.0599999999999996,0.089999999999999997,1.425),(-4.79,-0.089999999999999997,-1.425),(-4.79,-0.089999999999999997,1.425),(-4.79,0.089999999999999997,-1.425),(-4.79,0.089999999999999997,1.425),(-4.6900000000000004,-0.089999999999999997,-1.425),(-4.6900000000000004,-0.089999999999999997,1.425),(-4.6900000000000004,0.089999999999999997,-1.425),(-4.6900000000000004,0.089999999999999997,1.425),(-2.4199999999999999,-0.089999999999999997,-1.425),(-2.4199999999999999,-0.089999999999999997,1.425),(-2.4199999999999999,0.089999999999999997,-1.425),(-2.4199999999999999,0.089999999999999997,1.425),(-2.3199999999999998,-0.089999999999999997,-1.425),(-2.3199999999999998,-0.089999999999999997,1.425),(-2.3199999999999998,0.089999999999999997,-1.425),(-2.3199999999999998,0.089999999999999997,1.425),(-0.050000000000000003,-0.089999999999999997,-1.425),(-0.050000000000000003,-0.089999999999999997,1.425),(-0.050000000000000003,0.089999999999999997,-1.425),(-0.050000000000000003,0.089999999999999997,1.425),(0.050000000000000003,-0.089999999999999997,-1.425),(0.050000000000000003,-0.089999999999999997,1.425),(0.050000000000000003,0.089999999999999997,-1.425),(0.050000000000000003,0.089999999999999997,1.425),(2.3199999999999998,-0.089999999999999997,-1.425),(2.3199999999999998,-0.089999999999999997,1.425),(2.3199999999999998,0.089999999999999997,-1.425),(2.3199999999999998,0.089999999999999997,1.425),(2.4199999999999999,-0.089999999999999997,-1.425),(2.4199999999999999,-0.089999999999999997,1.425),(2.4199999999999999,0.089999999999999997,-1.425),(2.4199999999999999,0.089999999999999997,1.425),(4.6900000000000004,-0.089999999999999997,-1.425),(4.6900000000000004,-0.089999999999999997,1.425),(4.6900000000000004,0.089999999999999997,-1.425),(4.6900000000000004,0.089999999999999997,1.425),(4.79,-0.089999999999999997,-1.425),(4.79,-0.089999999999999997,1.425),(4.79,0.089999999999999997,-1.425),(4.79,0.089999999999999997,1.425),(7.0599999999999996,-0.089999999999999997,-1.425),(7.0599999999999996,-0.089999999999999997,1.425),(7.0599999999999996,0.089999999999999997,-1.425),(7.0599999999999996,0.089999999999999997,1.425),(7.1600000000000001,-0.089999999999999997,-1.425),(7.1600000000000001,-0.089999999999999997,1.425),(7.1600000000000001,0.089999999999999997,-1.425),(7.1600000000000001,0.089999999999999997,1.425)),$);
#265=IFCINDEXEDPOLYGONALFACE((1,2,4,3));
#266=IFCINDEXEDPOLYGONALFACE((5,7,8,6));
#267=IFCINDEXEDPOLYGONALFACE((1,5,6,2));
#268=IFCINDEXEDPOLYGONALFACE((3,4,8,7));
#269=IFCINDEXEDPOLYGONALFACE((1,3,7,5));
#270=IFCINDEXEDPOLYGONALFACE((2,6,8,4));
#271=IFCINDEXEDPOLYGONALFACE((9,10,12,11));
#272=IFCINDEXEDPOLYGONALFACE((13,15,16,14));
#273=IFCINDEXEDPOLYGONALFACE((9,13,14,10));
#274=IFCINDEXEDPOLYGONALFACE((11,12,16,15));
#275=IFCINDEXEDPOLYGONALFACE((9,11,15,13));
#276=IFCINDEXEDPOLYGONALFACE((10,14,16,12));
#277=IFCINDEXEDPOLYGONALFACE((17,18,20,19));
#278=IFCINDEXEDPOLYGONALFACE((21,23,24,22));
#279=IFCINDEXEDPOLYGONALFACE((17,21,22,18));
#280=IFCINDEXEDPOLYGONALFACE((19,20,24,23));
#281=IFCINDEXEDPOLYGONALFACE((17,19,23,21));
#282=IFCINDEXEDPOLYGONALFACE((18,22,24,20));
#283=IFCINDEXEDPOLYGONALFACE((25,26,28,27));
#284=IFCINDEXEDPOLYGONALFACE((29,31,32,30));
#285=IFCINDEXEDPOLYGONALFACE((25,29,30,26));
#286=IFCINDEXEDPOLYGONALFACE((27,28,32,31));
#287=IFCINDEXEDPOLYGONALFACE((25,27,31,29));
#288=IFCINDEXEDPOLYGONALFACE((26,30,32,28));
#289=IFCINDEXEDPOLYGONALFACE((33,34,36,35));
#290=IFCINDEXEDPOLYGONALFACE((37,39,40,38));
#291=IFCINDEXEDPOLYGONALFACE((33,37,38,34));
#292=IFCINDEXEDPOLYGONALFACE((35,36,40,39));
#293=IFCINDEXEDPOLYGONALFACE((33,35,39,37));
#294=IFCINDEXEDPOLYGONALFACE((34,38,40,36));
#295=IFCINDEXEDPOLYGONALFACE((41,42,44,43));
#296=IFCINDEXEDPOLYGONALFACE((45,47,48,46));
#297=IFCINDEXEDPOLYGONALFACE((41,45,46,42));
#298=IFCINDEXEDPOLYGONALFACE((43,44,48,47));
#299=IFCINDEXEDPOLYGONALFACE((41,43,47,45));
#300=IFCINDEXEDPOLYGONALFACE((42,46,48,44));
#301=IFCINDEXEDPOLYGONALFACE((49,50,52,51));
#302=IFCINDEXEDPOLYGONALFACE((53,55,56,54));
#303=IFCINDEXEDPOLYGONALFACE((49,53,54,50));
#304=IFCINDEXEDPOLYGONALFACE((51,52,56,55));
#305=IFCINDEXEDPOLYGONALFACE((49,51,55,53));
#306=IFCINDEXEDPOLYGONALFACE((50,54,56,52));
#307=IFCINDEXEDPOLYGONALFACE((57,58,60,59));
#308=IFCINDEXEDPOLYGONALFACE((61,63,64,62));
#309=IFCINDEXEDPOLYGONALFACE((57,61,62,58));
#310=IFCINDEXEDPOLYGONALFACE((59,60,64,63));
#311=IFCINDEXEDPOLYGONALFACE((57,59,63,61));
#312=IFCINDEXEDPOLYGONALFACE((58,62,64,60));
#313=IFCINDEXEDPOLYGONALFACE((65,66,68,67));
#314=IFCINDEXEDPOLYGONALFACE((69,71,72,70));
#315=IFCINDEXEDPOLYGONALFACE((65,69,70,66));
#316=IFCINDEXEDPOLYGONALFACE((67,68,72,71));
#317=IFCINDEXEDPOLYGONALFACE((65,67,71,69));
#318=IFCINDEXEDPOLYGONALFACE((66,70,72,68));
#319=IFCINDEXEDPOLYGONALFACE((73,74,76,75));
#320=IFCINDEXEDPOLYGONALFACE((77,79,80,78));
#321=IFCINDEXEDPOLYGONALFACE((73,77,78,74));
#322=IFCINDEXEDPOLYGONALFACE((75,76,80,79));
#323=IFCINDEXEDPOLYGONALFACE((73,75,79,77));
#324=IFCINDEXEDPOLYGONALFACE((74,78,80,76));
#325=IFCPOLYGONALFACESET(#264,$,(#265,#266,#267,#268,#269,#270,#271,#272,#273,#274,#275,#276,#277,#278,#279,#280,#281,#282,#283,#284,#285,#286,#287,#288,#289,#290,#291,#292,#293,#294,#295,#296,#297,#298,#299,#300,#301,#302,#303,#304,#305,#306,#307,#308,#309,#310,#311,#312,#313,#314,#315,#316,#317,#318,#319,#320,#321,#322,#323,#324),$);
#326=IFCSHAPEREPRESENTATION(#13,'Body','Tessellation',(#325));
#327=IFCPRODUCTDEFINITIONSHAPE($,$,(#326));
#328=IFCRELAGGREGATES('0je2sAgs1JnAk2An3iAfwF',$,$,$,#28,(#220,#253,#36));
#329=IFCRELAGGREGATES('0nxfiXxHnOK9lmFTJnoKcA',$,$,$,#36,(#44,#65,#128,#187));
#330=IFCRELCONTAINEDINSPATIALSTRUCTURE('2rhIyOU35Phx$HEOjqCZwZ',$,$,$,(#28),#3);
#331=IFCCARTESIANPOINT((0.,0.,0.));
#332=IFCAXIS2PLACEMENT3D(#331,$,$);
#333=IFCLOCALPLACEMENT($,#332);
#334=IFCCARTESIANPOINT((16.800000000000001,0.,0.));
#335=IFCAXIS2PLACEMENT3D(#334,$,$);
#336=IFCLOCALPLACEMENT($,#335);
#337=IFCCARTESIANPOINT((33.600000000000001,0.,0.));
#338=IFCAXIS2PLACEMENT3D(#337,$,$);
#339=IFCLOCALPLACEMENT($,#338);
#340=IFCCARTESIANPOINT((50.399999999999999,0.,0.));
#341=IFCAXIS2PLACEMENT3D(#340,$,$);
#342=IFCLOCALPLACEMENT($,#341);
#343=IFCCARTESIANPOINT((0.,3.4500000000000002,0.));
#344=IFCAXIS2PLACEMENT3D(#343,$,$);
#345=IFCLOCALPLACEMENT($,#344);
#346=IFCCARTESIANPOINT((16.800000000000001,3.4500000000000002,0.));
#347=IFCAXIS2PLACEMENT3D(#346,$,$);
#348=IFCLOCALPLACEMENT($,#347);
ENDSEC;
END-ISO-10303-21;
