ISO-10303-21;
HEADER;
FILE_DESCRIPTION(('ViewDefinition [CoordinationView]'),'2;1');
FILE_NAME('LM3-FIX-SA340.ifc','2026-08-30T00:00:00+00:00',('OpenSourceRail'),('OpenSourceRail'),'IfcOpenShell 0.8.5','OpenSourceRail deterministic LM3 product-library exporter','design-reference / not for construction');
FILE_SCHEMA(('IFC4X3_ADD2'));
ENDSEC;
DATA;
#1=IFCPROJECT('3S3oADkkLH08SF1nqMe3mO',$,'LM3-FIX-SA340 \X2\2014\X0\ common service-rail, captive-fastener, and fixture-adapter installation','Design-reference geometry and assembly hierarchy only; supplier freeze, released drawings/tolerances, calculations, qualified processes and first-article tests remain mandatory.',$,$,$,(#12),#7);
#2=IFCSITE('11tn0dCvvVWhiQ5mPGz9JF',$,'LM3 product library',$,$,#18,$,$,.ELEMENT.,$,$,$,$,$);
#3=IFCBUILDING('1n6ITKGzbR3QiAte$HxT4k',$,'LM3 assembly inspection fixture',$,$,#21,$,$,.ELEMENT.,$,$,$);
#4=IFCSIUNIT(*,.LENGTHUNIT.,$,.METRE.);
#5=IFCSIUNIT(*,.AREAUNIT.,$,.SQUARE_METRE.);
#6=IFCSIUNIT(*,.VOLUMEUNIT.,$,.CUBIC_METRE.);
#7=IFCUNITASSIGNMENT((#6,#4,#5));
#8=IFCCARTESIANPOINT((0.,0.,0.));
#9=IFCDIRECTION((0.,0.,1.));
#10=IFCDIRECTION((1.,0.,0.));
#11=IFCAXIS2PLACEMENT3D(#8,#9,#10);
#12=IFCGEOMETRICREPRESENTATIONCONTEXT($,'Model',3,1.0000000000000001E-05,#11,$);
#13=IFCGEOMETRICREPRESENTATIONSUBCONTEXT('Body','Model',*,*,*,*,#12,$,.MODEL_VIEW.,$);
#14=IFCRELAGGREGATES('06U4HipgXTEQKCgW9YL7ui',$,$,$,#1,(#2));
#15=IFCRELAGGREGATES('0PD0ZHHVnGIvr6LOXaCKdy',$,$,$,#2,(#3));
#16=IFCCARTESIANPOINT((0.,0.,0.));
#17=IFCAXIS2PLACEMENT3D(#16,$,$);
#18=IFCLOCALPLACEMENT($,#17);
#19=IFCCARTESIANPOINT((0.,0.,0.));
#20=IFCAXIS2PLACEMENT3D(#19,$,$);
#21=IFCLOCALPLACEMENT($,#20);
#22=IFCPROPERTYSINGLEVALUE('Status',$,IFCTEXT('design-reference-not-released'),$);
#23=IFCPROPERTYSINGLEVALUE('ReleaseBoundary',$,IFCTEXT('Design-reference geometry and assembly hierarchy only; supplier freeze, released drawings/tolerances, calculations, qualified processes and first-article tests remain mandatory.'),$);
#24=IFCPROPERTYSINGLEVALUE('Manifest',$,IFCTEXT('design/component-catalogue/catalog/buildable-trainset/buildable-trainset-manifest.json'),$);
#25=IFCPROPERTYSINGLEVALUE('ManifestSha256',$,IFCTEXT('7654747909805305ce2018109b5b649c4817a8f8c44a3ec8f2e8a6f74d48243e'),$);
#26=IFCPROPERTYSET('2i8hSs0U5UtBp6TgJClMRQ',$,'OSR_ProductLibrary',$,(#22,#23,#24,#25));
#27=IFCRELDEFINESBYPROPERTIES('1FWbLeBDLPPBLyynBpry7B',$,$,$,(#1),#26);
#28=IFCELEMENTASSEMBLY('0h019QegPU3fKhHgws7t7h',$,'common service-rail, captive-fastener, and fixture-adapter installation','rail datum survey | fastener-family audit | fixture load-evidence check | service/removal demonstration',$,$,$,'LM3-FIX-SA340',$,$);
#29=IFCPROPERTYSINGLEVALUE('OSRId',$,IFCTEXT('LM3-FIX-SA340'),$);
#30=IFCPROPERTYSINGLEVALUE('Layer',$,IFCTEXT('subassembly'),$);
#31=IFCPROPERTYSINGLEVALUE('BuildCell',$,IFCTEXT('interior pre-fit and final assembly cell'),$);
#32=IFCPROPERTYSINGLEVALUE('QuantityPerTrainset',$,IFCINTEGER(3),$);
#33=IFCPROPERTYSINGLEVALUE('GeometryStatus',$,IFCTEXT('complete-hierarchy-inspection-layout'),$);
#34=IFCPROPERTYSET('0TyE5ZlLzRtgHOF2gkBOpS',$,'OSR_AssemblyDefinition',$,(#29,#30,#31,#32,#33));
#35=IFCRELDEFINESBYPROPERTIES('1pVGTfWfvPjQgwTMucJk05',$,$,$,(#28),#34);
#36=IFCBUILDINGELEMENTPROXY('3wX3wMgW1VRPDbiW99mbTc',$,'OSR-RAIL-42 common ceiling, waist, and seat-zone service rail kit','One cut/drill gauge produces all common extruded aluminium equipment rails; local adapters, not rail variants, accommodate equipment.',$,#124,#55,'LM3-FIX-P010',$);
#37=IFCPROPERTYSINGLEVALUE('OSRId',$,IFCTEXT('LM3-FIX-P010'),$);
#38=IFCPROPERTYSINGLEVALUE('Parent',$,IFCTEXT('LM3-FIX-SA340'),$);
#39=IFCPROPERTYSINGLEVALUE('Route',$,IFCTEXT('MAKE'),$);
#40=IFCPROPERTYSINGLEVALUE('Maturity',$,IFCTEXT('release-candidate'),$);
#41=IFCPROPERTYSINGLEVALUE('QuantityPerTrainset',$,IFCINTEGER(3),$);
#42=IFCPROPERTYSINGLEVALUE('Unit',$,IFCTEXT('car kit'),$);
#43=IFCPROPERTYSINGLEVALUE('GeometryStatus',$,IFCTEXT('design-reference-not-released'),$);
#44=IFCPROPERTYSET('0iuluVkW1IdQPxLRQ_GaoW',$,'OSR_ProductDefinition',$,(#37,#38,#39,#40,#41,#42,#43));
#45=IFCRELDEFINESBYPROPERTIES('2pAmP8JDvVcfF8H9Z3RS$W',$,$,$,(#36),#44);
#46=IFCCARTESIANPOINTLIST3D(((-7.5,-0.021000000000000001,-0.0089999999999999993),(-7.5,-0.021000000000000001,0.0089999999999999993),(-7.5,0.021000000000000001,-0.0089999999999999993),(-7.5,0.021000000000000001,0.0089999999999999993),(7.5,-0.021000000000000001,-0.0089999999999999993),(7.5,-0.021000000000000001,0.0089999999999999993),(7.5,0.021000000000000001,-0.0089999999999999993),(7.5,0.021000000000000001,0.0089999999999999993)),$);
#47=IFCINDEXEDPOLYGONALFACE((1,2,4,3));
#48=IFCINDEXEDPOLYGONALFACE((5,7,8,6));
#49=IFCINDEXEDPOLYGONALFACE((1,5,6,2));
#50=IFCINDEXEDPOLYGONALFACE((3,4,8,7));
#51=IFCINDEXEDPOLYGONALFACE((1,3,7,5));
#52=IFCINDEXEDPOLYGONALFACE((2,6,8,4));
#53=IFCPOLYGONALFACESET(#46,$,(#47,#48,#49,#50,#51,#52),$);
#54=IFCSHAPEREPRESENTATION(#13,'Body','Tessellation',(#53));
#55=IFCPRODUCTDEFINITIONSHAPE($,$,(#54));
#56=IFCMECHANICALFASTENER('2SHv2irZ1SvOLtl7JS2r$u',$,'four-family captive fastener, floating nut, isolator, and access-fastener kit','M6 captive, M8 calculated-fixture, quarter-turn access, and M10 sealed exterior families replace ad-hoc fastener selection.',$,#127,#87,'LM3-FIX-P020',$,$,$);
#57=IFCPROPERTYSINGLEVALUE('OSRId',$,IFCTEXT('LM3-FIX-P020'),$);
#58=IFCPROPERTYSINGLEVALUE('Parent',$,IFCTEXT('LM3-FIX-SA340'),$);
#59=IFCPROPERTYSINGLEVALUE('Route',$,IFCTEXT('SOURCE'),$);
#60=IFCPROPERTYSINGLEVALUE('Maturity',$,IFCTEXT('buildable-after-supplier-freeze'),$);
#61=IFCPROPERTYSINGLEVALUE('QuantityPerTrainset',$,IFCINTEGER(3),$);
#62=IFCPROPERTYSINGLEVALUE('Unit',$,IFCTEXT('car kit'),$);
#63=IFCPROPERTYSINGLEVALUE('GeometryStatus',$,IFCTEXT('design-reference-not-released'),$);
#64=IFCPROPERTYSET('14ya6E2c5GZR26A3fxKJ4Z',$,'OSR_ProductDefinition',$,(#57,#58,#59,#60,#61,#62,#63));
#65=IFCRELDEFINESBYPROPERTIES('2PybmJ3yfQdfFoFwwiKwst',$,$,$,(#56),#64);
#66=IFCCARTESIANPOINTLIST3D(((-0.26000000000000001,-0.075600000000000001,-0.033600000000000005),(-0.26000000000000001,-0.075600000000000001,0.033600000000000005),(-0.26000000000000001,0.075600000000000001,-0.033600000000000005),(-0.26000000000000001,0.075600000000000001,0.033600000000000005),(0.26000000000000001,-0.075600000000000001,-0.033600000000000005),(0.26000000000000001,-0.075600000000000001,0.033600000000000005),(0.26000000000000001,0.075600000000000001,-0.033600000000000005),(0.26000000000000001,0.075600000000000001,0.033600000000000005),(-0.12479999999999999,-0.17999999999999999,-0.025600000000000001),(-0.12479999999999999,-0.17999999999999999,0.025600000000000001),(-0.12479999999999999,0.17999999999999999,-0.025600000000000001),(-0.12479999999999999,0.17999999999999999,0.025600000000000001),(0.12479999999999999,-0.17999999999999999,-0.025600000000000001),(0.12479999999999999,-0.17999999999999999,0.025600000000000001),(0.12479999999999999,0.17999999999999999,-0.025600000000000001),(0.12479999999999999,0.17999999999999999,0.025600000000000001),(-0.046799999999999994,-0.039600000000000003,-0.080000000000000002),(-0.046799999999999994,-0.039600000000000003,0.080000000000000002),(-0.046799999999999994,0.039600000000000003,-0.080000000000000002),(-0.046799999999999994,0.039600000000000003,0.080000000000000002),(0.046799999999999994,-0.039600000000000003,-0.080000000000000002),(0.046799999999999994,-0.039600000000000003,0.080000000000000002),(0.046799999999999994,0.039600000000000003,-0.080000000000000002),(0.046799999999999994,0.039600000000000003,0.080000000000000002)),$);
#67=IFCINDEXEDPOLYGONALFACE((1,2,4,3));
#68=IFCINDEXEDPOLYGONALFACE((5,7,8,6));
#69=IFCINDEXEDPOLYGONALFACE((1,5,6,2));
#70=IFCINDEXEDPOLYGONALFACE((3,4,8,7));
#71=IFCINDEXEDPOLYGONALFACE((1,3,7,5));
#72=IFCINDEXEDPOLYGONALFACE((2,6,8,4));
#73=IFCINDEXEDPOLYGONALFACE((9,10,12,11));
#74=IFCINDEXEDPOLYGONALFACE((13,15,16,14));
#75=IFCINDEXEDPOLYGONALFACE((9,13,14,10));
#76=IFCINDEXEDPOLYGONALFACE((11,12,16,15));
#77=IFCINDEXEDPOLYGONALFACE((9,11,15,13));
#78=IFCINDEXEDPOLYGONALFACE((10,14,16,12));
#79=IFCINDEXEDPOLYGONALFACE((17,18,20,19));
#80=IFCINDEXEDPOLYGONALFACE((21,23,24,22));
#81=IFCINDEXEDPOLYGONALFACE((17,21,22,18));
#82=IFCINDEXEDPOLYGONALFACE((19,20,24,23));
#83=IFCINDEXEDPOLYGONALFACE((17,19,23,21));
#84=IFCINDEXEDPOLYGONALFACE((18,22,24,20));
#85=IFCPOLYGONALFACESET(#66,$,(#67,#68,#69,#70,#71,#72,#73,#74,#75,#76,#77,#78,#79,#80,#81,#82,#83,#84),$);
#86=IFCSHAPEREPRESENTATION(#13,'Body','Tessellation',(#85));
#87=IFCPRODUCTDEFINITIONSHAPE($,$,(#86));
#88=IFCFURNITURE('0KVlz$wILRfOeo3aWun7Mv',$,'standard passenger-fixture saddle and equipment adapter kit','A small adapter family attaches seats, handrails, PIS, CCTV and cable supports to the common rail without unique body brackets.',$,#130,#119,'LM3-FIX-P030',$);
#89=IFCPROPERTYSINGLEVALUE('OSRId',$,IFCTEXT('LM3-FIX-P030'),$);
#90=IFCPROPERTYSINGLEVALUE('Parent',$,IFCTEXT('LM3-FIX-SA340'),$);
#91=IFCPROPERTYSINGLEVALUE('Route',$,IFCTEXT('MAKE'),$);
#92=IFCPROPERTYSINGLEVALUE('Maturity',$,IFCTEXT('concept'),$);
#93=IFCPROPERTYSINGLEVALUE('QuantityPerTrainset',$,IFCINTEGER(3),$);
#94=IFCPROPERTYSINGLEVALUE('Unit',$,IFCTEXT('car kit'),$);
#95=IFCPROPERTYSINGLEVALUE('GeometryStatus',$,IFCTEXT('design-reference-not-released'),$);
#96=IFCPROPERTYSET('2WWxjF8h5IDRSQ9meJ2L85',$,'OSR_ProductDefinition',$,(#89,#90,#91,#92,#93,#94,#95));
#97=IFCRELDEFINESBYPROPERTIES('3dMgvU7n5RDvLna5SLrBCE',$,$,$,(#88),#96);
#98=IFCCARTESIANPOINTLIST3D(((-0.26000000000000001,-0.088200000000000001,-0.0378),(-0.26000000000000001,-0.088200000000000001,0.0378),(-0.26000000000000001,0.088200000000000001,-0.0378),(-0.26000000000000001,0.088200000000000001,0.0378),(0.26000000000000001,-0.088200000000000001,-0.0378),(0.26000000000000001,-0.088200000000000001,0.0378),(0.26000000000000001,0.088200000000000001,-0.0378),(0.26000000000000001,0.088200000000000001,0.0378),(-0.12479999999999999,-0.20999999999999999,-0.028799999999999999),(-0.12479999999999999,-0.20999999999999999,0.028799999999999999),(-0.12479999999999999,0.20999999999999999,-0.028799999999999999),(-0.12479999999999999,0.20999999999999999,0.028799999999999999),(0.12479999999999999,-0.20999999999999999,-0.028799999999999999),(0.12479999999999999,-0.20999999999999999,0.028799999999999999),(0.12479999999999999,0.20999999999999999,-0.028799999999999999),(0.12479999999999999,0.20999999999999999,0.028799999999999999),(-0.046799999999999994,-0.046200000000000005,-0.089999999999999997),(-0.046799999999999994,-0.046200000000000005,0.089999999999999997),(-0.046799999999999994,0.046200000000000005,-0.089999999999999997),(-0.046799999999999994,0.046200000000000005,0.089999999999999997),(0.046799999999999994,-0.046200000000000005,-0.089999999999999997),(0.046799999999999994,-0.046200000000000005,0.089999999999999997),(0.046799999999999994,0.046200000000000005,-0.089999999999999997),(0.046799999999999994,0.046200000000000005,0.089999999999999997)),$);
#99=IFCINDEXEDPOLYGONALFACE((1,2,4,3));
#100=IFCINDEXEDPOLYGONALFACE((5,7,8,6));
#101=IFCINDEXEDPOLYGONALFACE((1,5,6,2));
#102=IFCINDEXEDPOLYGONALFACE((3,4,8,7));
#103=IFCINDEXEDPOLYGONALFACE((1,3,7,5));
#104=IFCINDEXEDPOLYGONALFACE((2,6,8,4));
#105=IFCINDEXEDPOLYGONALFACE((9,10,12,11));
#106=IFCINDEXEDPOLYGONALFACE((13,15,16,14));
#107=IFCINDEXEDPOLYGONALFACE((9,13,14,10));
#108=IFCINDEXEDPOLYGONALFACE((11,12,16,15));
#109=IFCINDEXEDPOLYGONALFACE((9,11,15,13));
#110=IFCINDEXEDPOLYGONALFACE((10,14,16,12));
#111=IFCINDEXEDPOLYGONALFACE((17,18,20,19));
#112=IFCINDEXEDPOLYGONALFACE((21,23,24,22));
#113=IFCINDEXEDPOLYGONALFACE((17,21,22,18));
#114=IFCINDEXEDPOLYGONALFACE((19,20,24,23));
#115=IFCINDEXEDPOLYGONALFACE((17,19,23,21));
#116=IFCINDEXEDPOLYGONALFACE((18,22,24,20));
#117=IFCPOLYGONALFACESET(#98,$,(#99,#100,#101,#102,#103,#104,#105,#106,#107,#108,#109,#110,#111,#112,#113,#114,#115,#116),$);
#118=IFCSHAPEREPRESENTATION(#13,'Body','Tessellation',(#117));
#119=IFCPRODUCTDEFINITIONSHAPE($,$,(#118));
#120=IFCRELAGGREGATES('1YLUVE5bHJxOSwOaxzqvxs',$,$,$,#28,(#36,#56,#88));
#121=IFCRELCONTAINEDINSPATIALSTRUCTURE('2YyQeCXfnTg8TXTlI6CzWD',$,$,$,(#28),#3);
#122=IFCCARTESIANPOINT((0.,0.,0.));
#123=IFCAXIS2PLACEMENT3D(#122,$,$);
#124=IFCLOCALPLACEMENT($,#123);
#125=IFCCARTESIANPOINT((15.800000000000001,0.,0.));
#126=IFCAXIS2PLACEMENT3D(#125,$,$);
#127=IFCLOCALPLACEMENT($,#126);
#128=IFCCARTESIANPOINT((31.600000000000001,0.,0.));
#129=IFCAXIS2PLACEMENT3D(#128,$,$);
#130=IFCLOCALPLACEMENT($,#129);
ENDSEC;
END-ISO-10303-21;
