ISO-10303-21;
HEADER;
FILE_DESCRIPTION(('ViewDefinition [CoordinationView]'),'2;1');
FILE_NAME('LM3-INT-SA330.ifc','2026-08-30T00:00:00+00:00',('OpenSourceRail'),('OpenSourceRail'),'IfcOpenShell 0.8.5','OpenSourceRail deterministic LM3 product-library exporter','design-reference / not for construction');
FILE_SCHEMA(('IFC4X3_ADD2'));
ENDSEC;
DATA;
#1=IFCPROJECT('23fugkXAfQZgWfBOsCnH8I',$,'LM3-INT-SA330 \X2\2014\X0\ interior and passenger systems fit-out','Design-reference geometry and assembly hierarchy only; supplier freeze, released drawings/tolerances, calculations, qualified processes and first-article tests remain mandatory.',$,$,$,(#12),#7);
#2=IFCSITE('0zASfh$KrN89TjDDp$ETOi',$,'LM3 product library',$,$,#18,$,$,.ELEMENT.,$,$,$,$,$);
#3=IFCBUILDING('3FKknupATHk9dUkFTiktGJ',$,'LM3 assembly inspection fixture',$,$,#21,$,$,.ELEMENT.,$,$,$);
#4=IFCSIUNIT(*,.LENGTHUNIT.,$,.METRE.);
#5=IFCSIUNIT(*,.AREAUNIT.,$,.SQUARE_METRE.);
#6=IFCSIUNIT(*,.VOLUMEUNIT.,$,.CUBIC_METRE.);
#7=IFCUNITASSIGNMENT((#6,#4,#5));
#8=IFCCARTESIANPOINT((0.,0.,0.));
#9=IFCDIRECTION((0.,0.,1.));
#10=IFCDIRECTION((1.,0.,0.));
#11=IFCAXIS2PLACEMENT3D(#8,#9,#10);
#12=IFCGEOMETRICREPRESENTATIONCONTEXT($,'Model',3,1.0000000000000001E-05,#11,$);
#13=IFCGEOMETRICREPRESENTATIONSUBCONTEXT('Body','Model',*,*,*,*,#12,$,.MODEL_VIEW.,$);
#14=IFCRELAGGREGATES('1PxSBkh81NLBdhxyvRX5CF',$,$,$,#1,(#2));
#15=IFCRELAGGREGATES('2CT5_eyojRyuJmhBLWa5_2',$,$,$,#2,(#3));
#16=IFCCARTESIANPOINT((0.,0.,0.));
#17=IFCAXIS2PLACEMENT3D(#16,$,$);
#18=IFCLOCALPLACEMENT($,#17);
#19=IFCCARTESIANPOINT((0.,0.,0.));
#20=IFCAXIS2PLACEMENT3D(#19,$,$);
#21=IFCLOCALPLACEMENT($,#20);
#22=IFCPROPERTYSINGLEVALUE('Status',$,IFCTEXT('design-reference-not-released'),$);
#23=IFCPROPERTYSINGLEVALUE('ReleaseBoundary',$,IFCTEXT('Design-reference geometry and assembly hierarchy only; supplier freeze, released drawings/tolerances, calculations, qualified processes and first-article tests remain mandatory.'),$);
#24=IFCPROPERTYSINGLEVALUE('Manifest',$,IFCTEXT('design/component-catalogue/catalog/buildable-trainset/buildable-trainset-manifest.json'),$);
#25=IFCPROPERTYSINGLEVALUE('ManifestSha256',$,IFCTEXT('4c2ec91449f361762556e35852f8b914e3bcec03c1b9f940d8c756e5db7cf7a5'),$);
#26=IFCPROPERTYSET('33xZvaxCLVFxAeFF09h5At',$,'OSR_ProductLibrary',$,(#22,#23,#24,#25));
#27=IFCRELDEFINESBYPROPERTIES('0aTQNYIUzSz8DeFe2ohXHt',$,$,$,(#1),#26);
#28=IFCELEMENTASSEMBLY('2OSUz3NwHMaQDt6lVCbBse',$,'interior and passenger systems fit-out','egress check | fire-material pack | liner/trim fit survey | lighting/PIS/CCTV static test',$,$,$,'LM3-INT-SA330',$,$);
#29=IFCPROPERTYSINGLEVALUE('OSRId',$,IFCTEXT('LM3-INT-SA330'),$);
#30=IFCPROPERTYSINGLEVALUE('Layer',$,IFCTEXT('subassembly'),$);
#31=IFCPROPERTYSINGLEVALUE('BuildCell',$,IFCTEXT('final assembly and commissioning cell'),$);
#32=IFCPROPERTYSINGLEVALUE('QuantityPerTrainset',$,IFCINTEGER(3),$);
#33=IFCPROPERTYSINGLEVALUE('GeometryStatus',$,IFCTEXT('complete-hierarchy-inspection-layout'),$);
#34=IFCPROPERTYSET('2dtIipFgbHquBOPG4Vb_Cx',$,'OSR_AssemblyDefinition',$,(#29,#30,#31,#32,#33));
#35=IFCRELDEFINESBYPROPERTIES('1QX1Ck6BXJJPFJQScZjHEd',$,$,$,(#28),#34);
#36=IFCSLAB('2qetnaLc5V6wooOAUGG7HV',$,'stepped floor-board and removable service-hatch system','Locally CNC-cut floor-board panels and removable hatches mount to surveyed support rails without trapping wet services.',$,#388,#56,'LM3-EXT-P060',$);
#37=IFCPROPERTYSINGLEVALUE('OSRId',$,IFCTEXT('LM3-EXT-P060'),$);
#38=IFCPROPERTYSINGLEVALUE('Parent',$,IFCTEXT('LM3-INT-SA330'),$);
#39=IFCPROPERTYSINGLEVALUE('Route',$,IFCTEXT('SOURCE'),$);
#40=IFCPROPERTYSINGLEVALUE('Maturity',$,IFCTEXT('buildable-after-supplier-freeze'),$);
#41=IFCPROPERTYSINGLEVALUE('QuantityPerTrainset',$,IFCINTEGER(135),$);
#42=IFCPROPERTYSINGLEVALUE('Unit',$,IFCTEXT('m2'),$);
#43=IFCPROPERTYSINGLEVALUE('GeometryStatus',$,IFCTEXT('design-reference-not-released'),$);
#44=IFCPROPERTYSINGLEVALUE('GeometryLevel',$,IFCTEXT('coordination-envelope'),$);
#45=IFCPROPERTYSET('2ynjoq7$1QivzysqSdogFW',$,'OSR_ProductDefinition',$,(#37,#38,#39,#40,#41,#42,#43,#44));
#46=IFCRELDEFINESBYPROPERTIES('3ygXGnYgPRawoiFqKI9v$R',$,$,$,(#36),#45);
#47=IFCCARTESIANPOINTLIST3D(((-0.5,-0.65000000000000002,-0.017500000000000002),(-0.5,-0.65000000000000002,0.017500000000000002),(-0.5,0.65000000000000002,-0.017500000000000002),(-0.5,0.65000000000000002,0.017500000000000002),(0.5,-0.65000000000000002,-0.017500000000000002),(0.5,-0.65000000000000002,0.017500000000000002),(0.5,0.65000000000000002,-0.017500000000000002),(0.5,0.65000000000000002,0.017500000000000002)),$);
#48=IFCINDEXEDPOLYGONALFACE((1,2,4,3));
#49=IFCINDEXEDPOLYGONALFACE((5,7,8,6));
#50=IFCINDEXEDPOLYGONALFACE((1,5,6,2));
#51=IFCINDEXEDPOLYGONALFACE((3,4,8,7));
#52=IFCINDEXEDPOLYGONALFACE((1,3,7,5));
#53=IFCINDEXEDPOLYGONALFACE((2,6,8,4));
#54=IFCPOLYGONALFACESET(#47,$,(#48,#49,#50,#51,#52,#53),$);
#55=IFCSHAPEREPRESENTATION(#13,'Body','Tessellation',(#54));
#56=IFCPRODUCTDEFINITIONSHAPE($,$,(#55));
#57=IFCCOVERING('1uNCZTw71Uvf5JWDG3JzbU',$,'welded resilient floor covering, cove, nosing, and adhesive system','One supplier-qualified rail flooring system covers the board joints, coved edges, steps, hatches, thresholds and repair patches.',$,#391,#77,'LM3-EXT-P061',$);
#58=IFCPROPERTYSINGLEVALUE('OSRId',$,IFCTEXT('LM3-EXT-P061'),$);
#59=IFCPROPERTYSINGLEVALUE('Parent',$,IFCTEXT('LM3-INT-SA330'),$);
#60=IFCPROPERTYSINGLEVALUE('Route',$,IFCTEXT('SOURCE'),$);
#61=IFCPROPERTYSINGLEVALUE('Maturity',$,IFCTEXT('buildable-after-supplier-freeze'),$);
#62=IFCPROPERTYSINGLEVALUE('QuantityPerTrainset',$,IFCINTEGER(135),$);
#63=IFCPROPERTYSINGLEVALUE('Unit',$,IFCTEXT('m2'),$);
#64=IFCPROPERTYSINGLEVALUE('GeometryStatus',$,IFCTEXT('design-reference-not-released'),$);
#65=IFCPROPERTYSINGLEVALUE('GeometryLevel',$,IFCTEXT('coordination-envelope'),$);
#66=IFCPROPERTYSET('0YltVs0U5RIxRjOz6PNio5',$,'OSR_ProductDefinition',$,(#58,#59,#60,#61,#62,#63,#64,#65));
#67=IFCRELDEFINESBYPROPERTIES('1nJvxNE1DQFu6Z9zfHL3p8',$,$,$,(#57),#66);
#68=IFCCARTESIANPOINTLIST3D(((-0.5,-0.65000000000000002,-0.0030000000000000001),(-0.5,-0.65000000000000002,0.0030000000000000001),(-0.5,0.65000000000000002,-0.0030000000000000001),(-0.5,0.65000000000000002,0.0030000000000000001),(0.5,-0.65000000000000002,-0.0030000000000000001),(0.5,-0.65000000000000002,0.0030000000000000001),(0.5,0.65000000000000002,-0.0030000000000000001),(0.5,0.65000000000000002,0.0030000000000000001)),$);
#69=IFCINDEXEDPOLYGONALFACE((1,2,4,3));
#70=IFCINDEXEDPOLYGONALFACE((5,7,8,6));
#71=IFCINDEXEDPOLYGONALFACE((1,5,6,2));
#72=IFCINDEXEDPOLYGONALFACE((3,4,8,7));
#73=IFCINDEXEDPOLYGONALFACE((1,3,7,5));
#74=IFCINDEXEDPOLYGONALFACE((2,6,8,4));
#75=IFCPOLYGONALFACESET(#68,$,(#69,#70,#71,#72,#73,#74),$);
#76=IFCSHAPEREPRESENTATION(#13,'Body','Tessellation',(#75));
#77=IFCPRODUCTDEFINITIONSHAPE($,$,(#76));
#78=IFCFURNITURE('0eTQdjDZHGahGygQZY8m67',$,'longitudinal passenger and priority-seat modules','Repeatable seat modules use the common service rail and calculated saddle adapters instead of unique brackets through floor panels.',$,#394,#110,'LM3-EXT-P062',$);
#79=IFCPROPERTYSINGLEVALUE('OSRId',$,IFCTEXT('LM3-EXT-P062'),$);
#80=IFCPROPERTYSINGLEVALUE('Parent',$,IFCTEXT('LM3-INT-SA330'),$);
#81=IFCPROPERTYSINGLEVALUE('Route',$,IFCTEXT('SOURCE'),$);
#82=IFCPROPERTYSINGLEVALUE('Maturity',$,IFCTEXT('buildable-after-supplier-freeze'),$);
#83=IFCPROPERTYSINGLEVALUE('QuantityPerTrainset',$,IFCINTEGER(60),$);
#84=IFCPROPERTYSINGLEVALUE('Unit',$,IFCTEXT('seat'),$);
#85=IFCPROPERTYSINGLEVALUE('GeometryStatus',$,IFCTEXT('design-reference-not-released'),$);
#86=IFCPROPERTYSINGLEVALUE('GeometryLevel',$,IFCTEXT('coordination-envelope'),$);
#87=IFCPROPERTYSET('3o34$b8j5JOgl3FPJH6hwv',$,'OSR_ProductDefinition',$,(#79,#80,#81,#82,#83,#84,#85,#86));
#88=IFCRELDEFINESBYPROPERTIES('3I4SMFtK1T2ga3qzjipXNW',$,$,$,(#78),#87);
#89=IFCCARTESIANPOINTLIST3D(((-0.77500000000000002,-0.31,-0.2646),(-0.77500000000000002,-0.31,-0.088200000000000001),(-0.77500000000000002,0.31,-0.2646),(-0.77500000000000002,0.31,-0.088200000000000001),(0.77500000000000002,-0.31,-0.2646),(0.77500000000000002,-0.31,-0.088200000000000001),(0.77500000000000002,0.31,-0.2646),(0.77500000000000002,0.31,-0.088200000000000001),(-0.77500000000000002,0.152,-0.12740000000000001),(-0.77500000000000002,0.152,0.48020000000000007),(-0.77500000000000002,0.26960000000000001,-0.12740000000000001),(-0.77500000000000002,0.26960000000000001,0.48020000000000007),(0.77500000000000002,0.152,-0.12740000000000001),(0.77500000000000002,0.152,0.48020000000000007),(0.77500000000000002,0.26960000000000001,-0.12740000000000001),(0.77500000000000002,0.26960000000000001,0.48020000000000007),(-0.66649999999999998,-0.22319999999999998,-0.47039999999999998),(-0.66649999999999998,-0.22319999999999998,-0.37239999999999995),(-0.66649999999999998,0.22319999999999998,-0.47039999999999998),(-0.66649999999999998,0.22319999999999998,-0.37239999999999995),(0.66649999999999998,-0.22319999999999998,-0.47039999999999998),(0.66649999999999998,-0.22319999999999998,-0.37239999999999995),(0.66649999999999998,0.22319999999999998,-0.47039999999999998),(0.66649999999999998,0.22319999999999998,-0.37239999999999995)),$);
#90=IFCINDEXEDPOLYGONALFACE((1,2,4,3));
#91=IFCINDEXEDPOLYGONALFACE((5,7,8,6));
#92=IFCINDEXEDPOLYGONALFACE((1,5,6,2));
#93=IFCINDEXEDPOLYGONALFACE((3,4,8,7));
#94=IFCINDEXEDPOLYGONALFACE((1,3,7,5));
#95=IFCINDEXEDPOLYGONALFACE((2,6,8,4));
#96=IFCINDEXEDPOLYGONALFACE((9,10,12,11));
#97=IFCINDEXEDPOLYGONALFACE((13,15,16,14));
#98=IFCINDEXEDPOLYGONALFACE((9,13,14,10));
#99=IFCINDEXEDPOLYGONALFACE((11,12,16,15));
#100=IFCINDEXEDPOLYGONALFACE((9,11,15,13));
#101=IFCINDEXEDPOLYGONALFACE((10,14,16,12));
#102=IFCINDEXEDPOLYGONALFACE((17,18,20,19));
#103=IFCINDEXEDPOLYGONALFACE((21,23,24,22));
#104=IFCINDEXEDPOLYGONALFACE((17,21,22,18));
#105=IFCINDEXEDPOLYGONALFACE((19,20,24,23));
#106=IFCINDEXEDPOLYGONALFACE((17,19,23,21));
#107=IFCINDEXEDPOLYGONALFACE((18,22,24,20));
#108=IFCPOLYGONALFACESET(#89,$,(#90,#91,#92,#93,#94,#95,#96,#97,#98,#99,#100,#101,#102,#103,#104,#105,#106,#107),$);
#109=IFCSHAPEREPRESENTATION(#13,'Body','Tessellation',(#108));
#110=IFCPRODUCTDEFINITIONSHAPE($,$,(#109));
#111=IFCFURNITURE('31WVjTSzbVd8bvw5SkVooQ',$,'stainless grab-pole, handrail, joint, and insulated adapter kit','Cut-to-length modular tubes terminate in replaceable common-rail saddles; primary passenger loads bypass liners and trim.',$,#397,#155,'LM3-EXT-P063',$);
#112=IFCPROPERTYSINGLEVALUE('OSRId',$,IFCTEXT('LM3-EXT-P063'),$);
#113=IFCPROPERTYSINGLEVALUE('Parent',$,IFCTEXT('LM3-INT-SA330'),$);
#114=IFCPROPERTYSINGLEVALUE('Route',$,IFCTEXT('SOURCE'),$);
#115=IFCPROPERTYSINGLEVALUE('Maturity',$,IFCTEXT('buildable-after-supplier-freeze'),$);
#116=IFCPROPERTYSINGLEVALUE('QuantityPerTrainset',$,IFCINTEGER(3),$);
#117=IFCPROPERTYSINGLEVALUE('Unit',$,IFCTEXT('car kit'),$);
#118=IFCPROPERTYSINGLEVALUE('GeometryStatus',$,IFCTEXT('design-reference-not-released'),$);
#119=IFCPROPERTYSINGLEVALUE('GeometryLevel',$,IFCTEXT('coordination-envelope'),$);
#120=IFCPROPERTYSET('1$OHpKpx9PJA5mrAunpTTv',$,'OSR_ProductDefinition',$,(#112,#113,#114,#115,#116,#117,#118,#119));
#121=IFCRELDEFINESBYPROPERTIES('2FxF0QDrnH3gUymBbePkhg',$,$,$,(#111),#120);
#122=IFCCARTESIANPOINTLIST3D(((-1.1499999999999999,-0.85099999999999998,-0.246),(-1.1499999999999999,-0.85099999999999998,0.246),(-1.1499999999999999,-0.621,-0.246),(-1.1499999999999999,-0.621,0.246),(1.1499999999999999,-0.85099999999999998,-0.246),(1.1499999999999999,-0.85099999999999998,0.246),(1.1499999999999999,-0.621,-0.246),(1.1499999999999999,-0.621,0.246),(-1.1499999999999999,0.621,-0.246),(-1.1499999999999999,0.621,0.246),(-1.1499999999999999,0.85099999999999998,-0.246),(-1.1499999999999999,0.85099999999999998,0.246),(1.1499999999999999,0.621,-0.246),(1.1499999999999999,0.621,0.246),(1.1499999999999999,0.85099999999999998,-0.246),(1.1499999999999999,0.85099999999999998,0.246),(-0.83374999999999999,-0.92000000000000004,-0.3075),(-0.83374999999999999,-0.92000000000000004,0.3075),(-0.83374999999999999,0.92000000000000004,-0.3075),(-0.83374999999999999,0.92000000000000004,0.3075),(-0.77625,-0.92000000000000004,-0.3075),(-0.77625,-0.92000000000000004,0.3075),(-0.77625,0.92000000000000004,-0.3075),(-0.77625,0.92000000000000004,0.3075),(-0.028750000000000001,-0.92000000000000004,-0.3075),(-0.028750000000000001,-0.92000000000000004,0.3075),(-0.028750000000000001,0.92000000000000004,-0.3075),(-0.028750000000000001,0.92000000000000004,0.3075),(0.028750000000000001,-0.92000000000000004,-0.3075),(0.028750000000000001,-0.92000000000000004,0.3075),(0.028750000000000001,0.92000000000000004,-0.3075),(0.028750000000000001,0.92000000000000004,0.3075),(0.77625,-0.92000000000000004,-0.3075),(0.77625,-0.92000000000000004,0.3075),(0.77625,0.92000000000000004,-0.3075),(0.77625,0.92000000000000004,0.3075),(0.83374999999999999,-0.92000000000000004,-0.3075),(0.83374999999999999,-0.92000000000000004,0.3075),(0.83374999999999999,0.92000000000000004,-0.3075),(0.83374999999999999,0.92000000000000004,0.3075)),$);
#123=IFCINDEXEDPOLYGONALFACE((1,2,4,3));
#124=IFCINDEXEDPOLYGONALFACE((5,7,8,6));
#125=IFCINDEXEDPOLYGONALFACE((1,5,6,2));
#126=IFCINDEXEDPOLYGONALFACE((3,4,8,7));
#127=IFCINDEXEDPOLYGONALFACE((1,3,7,5));
#128=IFCINDEXEDPOLYGONALFACE((2,6,8,4));
#129=IFCINDEXEDPOLYGONALFACE((9,10,12,11));
#130=IFCINDEXEDPOLYGONALFACE((13,15,16,14));
#131=IFCINDEXEDPOLYGONALFACE((9,13,14,10));
#132=IFCINDEXEDPOLYGONALFACE((11,12,16,15));
#133=IFCINDEXEDPOLYGONALFACE((9,11,15,13));
#134=IFCINDEXEDPOLYGONALFACE((10,14,16,12));
#135=IFCINDEXEDPOLYGONALFACE((17,18,20,19));
#136=IFCINDEXEDPOLYGONALFACE((21,23,24,22));
#137=IFCINDEXEDPOLYGONALFACE((17,21,22,18));
#138=IFCINDEXEDPOLYGONALFACE((19,20,24,23));
#139=IFCINDEXEDPOLYGONALFACE((17,19,23,21));
#140=IFCINDEXEDPOLYGONALFACE((18,22,24,20));
#141=IFCINDEXEDPOLYGONALFACE((25,26,28,27));
#142=IFCINDEXEDPOLYGONALFACE((29,31,32,30));
#143=IFCINDEXEDPOLYGONALFACE((25,29,30,26));
#144=IFCINDEXEDPOLYGONALFACE((27,28,32,31));
#145=IFCINDEXEDPOLYGONALFACE((25,27,31,29));
#146=IFCINDEXEDPOLYGONALFACE((26,30,32,28));
#147=IFCINDEXEDPOLYGONALFACE((33,34,36,35));
#148=IFCINDEXEDPOLYGONALFACE((37,39,40,38));
#149=IFCINDEXEDPOLYGONALFACE((33,37,38,34));
#150=IFCINDEXEDPOLYGONALFACE((35,36,40,39));
#151=IFCINDEXEDPOLYGONALFACE((33,35,39,37));
#152=IFCINDEXEDPOLYGONALFACE((34,38,40,36));
#153=IFCPOLYGONALFACESET(#122,$,(#123,#124,#125,#126,#127,#128,#129,#130,#131,#132,#133,#134,#135,#136,#137,#138,#139,#140,#141,#142,#143,#144,#145,#146,#147,#148,#149,#150,#151,#152),$);
#154=IFCSHAPEREPRESENTATION(#13,'Body','Tessellation',(#153));
#155=IFCPRODUCTDEFINITIONSHAPE($,$,(#154));
#156=IFCCOMMUNICATIONSAPPLIANCE('1QLj5LXUbLv97D0o4AnRy4',$,'passenger-information display, speaker, amplifier, and mounting kit','Plug-in PIS modules attach to standard equipment adapters with keyed LV/data connectors and service loops.',$,#400,#188,'LM3-EXT-P064',$);
#157=IFCPROPERTYSINGLEVALUE('OSRId',$,IFCTEXT('LM3-EXT-P064'),$);
#158=IFCPROPERTYSINGLEVALUE('Parent',$,IFCTEXT('LM3-INT-SA330'),$);
#159=IFCPROPERTYSINGLEVALUE('Route',$,IFCTEXT('SOURCE'),$);
#160=IFCPROPERTYSINGLEVALUE('Maturity',$,IFCTEXT('buildable-after-supplier-freeze'),$);
#161=IFCPROPERTYSINGLEVALUE('QuantityPerTrainset',$,IFCINTEGER(3),$);
#162=IFCPROPERTYSINGLEVALUE('Unit',$,IFCTEXT('car kit'),$);
#163=IFCPROPERTYSINGLEVALUE('GeometryStatus',$,IFCTEXT('design-reference-not-released'),$);
#164=IFCPROPERTYSINGLEVALUE('GeometryLevel',$,IFCTEXT('coordination-envelope'),$);
#165=IFCPROPERTYSET('2iYcD4eTrG9xzphoiEzj2N',$,'OSR_ProductDefinition',$,(#157,#158,#159,#160,#161,#162,#163,#164));
#166=IFCRELDEFINESBYPROPERTIES('1ZBjFI_U9ICQIw7bhz28hI',$,$,$,(#156),#165);
#167=IFCCARTESIANPOINTLIST3D(((-0.55000000000000004,-0.11,-0.17219999999999999),(-0.55000000000000004,-0.11,0.17219999999999999),(-0.55000000000000004,0.11,-0.17219999999999999),(-0.55000000000000004,0.11,0.17219999999999999),(0.55000000000000004,-0.11,-0.17219999999999999),(0.55000000000000004,-0.11,0.17219999999999999),(0.55000000000000004,0.11,-0.17219999999999999),(0.55000000000000004,0.11,0.17219999999999999),(-0.45100000000000001,-0.11,-0.2016),(-0.45100000000000001,-0.11,-0.15120000000000003),(-0.45100000000000001,-0.083599999999999994,-0.2016),(-0.45100000000000001,-0.083599999999999994,-0.15120000000000003),(0.45100000000000001,-0.11,-0.2016),(0.45100000000000001,-0.11,-0.15120000000000003),(0.45100000000000001,-0.083599999999999994,-0.2016),(0.45100000000000001,-0.083599999999999994,-0.15120000000000003),(0.19800000000000001,0.072599999999999998,-0.033600000000000005),(0.19800000000000001,0.072599999999999998,0.033600000000000005),(0.19800000000000001,0.10340000000000001,-0.033600000000000005),(0.19800000000000001,0.10340000000000001,0.033600000000000005),(0.46200000000000002,0.072599999999999998,-0.033600000000000005),(0.46200000000000002,0.072599999999999998,0.033600000000000005),(0.46200000000000002,0.10340000000000001,-0.033600000000000005),(0.46200000000000002,0.10340000000000001,0.033600000000000005)),$);
#168=IFCINDEXEDPOLYGONALFACE((1,2,4,3));
#169=IFCINDEXEDPOLYGONALFACE((5,7,8,6));
#170=IFCINDEXEDPOLYGONALFACE((1,5,6,2));
#171=IFCINDEXEDPOLYGONALFACE((3,4,8,7));
#172=IFCINDEXEDPOLYGONALFACE((1,3,7,5));
#173=IFCINDEXEDPOLYGONALFACE((2,6,8,4));
#174=IFCINDEXEDPOLYGONALFACE((9,10,12,11));
#175=IFCINDEXEDPOLYGONALFACE((13,15,16,14));
#176=IFCINDEXEDPOLYGONALFACE((9,13,14,10));
#177=IFCINDEXEDPOLYGONALFACE((11,12,16,15));
#178=IFCINDEXEDPOLYGONALFACE((9,11,15,13));
#179=IFCINDEXEDPOLYGONALFACE((10,14,16,12));
#180=IFCINDEXEDPOLYGONALFACE((17,18,20,19));
#181=IFCINDEXEDPOLYGONALFACE((21,23,24,22));
#182=IFCINDEXEDPOLYGONALFACE((17,21,22,18));
#183=IFCINDEXEDPOLYGONALFACE((19,20,24,23));
#184=IFCINDEXEDPOLYGONALFACE((17,19,23,21));
#185=IFCINDEXEDPOLYGONALFACE((18,22,24,20));
#186=IFCPOLYGONALFACESET(#167,$,(#168,#169,#170,#171,#172,#173,#174,#175,#176,#177,#178,#179,#180,#181,#182,#183,#184,#185),$);
#187=IFCSHAPEREPRESENTATION(#13,'Body','Tessellation',(#186));
#188=IFCPRODUCTDEFINITIONSHAPE($,$,(#187));
#189=IFCCOMMUNICATIONSAPPLIANCE('32zoA2sUfLT8icGDwasYgH',$,'CCTV camera, passenger intercom, PoE/data, and mounting kit','Replaceable cameras and intercoms use keyed connectors and common adapters while preserving coverage, privacy and accessible call locations.',$,#403,#221,'LM3-EXT-P065',$);
#190=IFCPROPERTYSINGLEVALUE('OSRId',$,IFCTEXT('LM3-EXT-P065'),$);
#191=IFCPROPERTYSINGLEVALUE('Parent',$,IFCTEXT('LM3-INT-SA330'),$);
#192=IFCPROPERTYSINGLEVALUE('Route',$,IFCTEXT('SOURCE'),$);
#193=IFCPROPERTYSINGLEVALUE('Maturity',$,IFCTEXT('buildable-after-supplier-freeze'),$);
#194=IFCPROPERTYSINGLEVALUE('QuantityPerTrainset',$,IFCINTEGER(3),$);
#195=IFCPROPERTYSINGLEVALUE('Unit',$,IFCTEXT('car kit'),$);
#196=IFCPROPERTYSINGLEVALUE('GeometryStatus',$,IFCTEXT('design-reference-not-released'),$);
#197=IFCPROPERTYSINGLEVALUE('GeometryLevel',$,IFCTEXT('coordination-envelope'),$);
#198=IFCPROPERTYSET('25FjS77nfSMhUfhjnVsy_y',$,'OSR_ProductDefinition',$,(#190,#191,#192,#193,#194,#195,#196,#197));
#199=IFCRELDEFINESBYPROPERTIES('1BIZTBJ7XQJPFtZfXl$Ahi',$,$,$,(#189),#198);
#200=IFCCARTESIANPOINTLIST3D(((-0.32500000000000001,-0.20999999999999999,-0.1066),(-0.32500000000000001,-0.20999999999999999,0.1066),(-0.32500000000000001,0.20999999999999999,-0.1066),(-0.32500000000000001,0.20999999999999999,0.1066),(0.32500000000000001,-0.20999999999999999,-0.1066),(0.32500000000000001,-0.20999999999999999,0.1066),(0.32500000000000001,0.20999999999999999,-0.1066),(0.32500000000000001,0.20999999999999999,0.1066),(-0.26650000000000001,-0.20999999999999999,-0.12479999999999999),(-0.26650000000000001,-0.20999999999999999,-0.093600000000000003),(-0.26650000000000001,-0.15960000000000002,-0.12479999999999999),(-0.26650000000000001,-0.15960000000000002,-0.093600000000000003),(0.26650000000000001,-0.20999999999999999,-0.12479999999999999),(0.26650000000000001,-0.20999999999999999,-0.093600000000000003),(0.26650000000000001,-0.15960000000000002,-0.12479999999999999),(0.26650000000000001,-0.15960000000000002,-0.093600000000000003),(0.11700000000000001,0.1386,-0.020799999999999999),(0.11700000000000001,0.1386,0.020799999999999999),(0.11700000000000001,0.19739999999999999,-0.020799999999999999),(0.11700000000000001,0.19739999999999999,0.020799999999999999),(0.27300000000000002,0.1386,-0.020799999999999999),(0.27300000000000002,0.1386,0.020799999999999999),(0.27300000000000002,0.19739999999999999,-0.020799999999999999),(0.27300000000000002,0.19739999999999999,0.020799999999999999)),$);
#201=IFCINDEXEDPOLYGONALFACE((1,2,4,3));
#202=IFCINDEXEDPOLYGONALFACE((5,7,8,6));
#203=IFCINDEXEDPOLYGONALFACE((1,5,6,2));
#204=IFCINDEXEDPOLYGONALFACE((3,4,8,7));
#205=IFCINDEXEDPOLYGONALFACE((1,3,7,5));
#206=IFCINDEXEDPOLYGONALFACE((2,6,8,4));
#207=IFCINDEXEDPOLYGONALFACE((9,10,12,11));
#208=IFCINDEXEDPOLYGONALFACE((13,15,16,14));
#209=IFCINDEXEDPOLYGONALFACE((9,13,14,10));
#210=IFCINDEXEDPOLYGONALFACE((11,12,16,15));
#211=IFCINDEXEDPOLYGONALFACE((9,11,15,13));
#212=IFCINDEXEDPOLYGONALFACE((10,14,16,12));
#213=IFCINDEXEDPOLYGONALFACE((17,18,20,19));
#214=IFCINDEXEDPOLYGONALFACE((21,23,24,22));
#215=IFCINDEXEDPOLYGONALFACE((17,21,22,18));
#216=IFCINDEXEDPOLYGONALFACE((19,20,24,23));
#217=IFCINDEXEDPOLYGONALFACE((17,19,23,21));
#218=IFCINDEXEDPOLYGONALFACE((18,22,24,20));
#219=IFCPOLYGONALFACESET(#200,$,(#201,#202,#203,#204,#205,#206,#207,#208,#209,#210,#211,#212,#213,#214,#215,#216,#217,#218),$);
#220=IFCSHAPEREPRESENTATION(#13,'Body','Tessellation',(#219));
#221=IFCPRODUCTDEFINITIONSHAPE($,$,(#220));
#222=IFCBUILDINGELEMENTPROXY('0ky1mrMxzOtvNsLdrLFaBg',$,'PRM, safety-signage, emergency-lighting, extinguisher, and first-aid kit','A controlled location schedule separates fixed PRM/call-button/signage/emergency-light equipment from operator-replenished extinguishers, first aid and seals.',$,#406,#254,'LM3-EXT-P066',$);
#223=IFCPROPERTYSINGLEVALUE('OSRId',$,IFCTEXT('LM3-EXT-P066'),$);
#224=IFCPROPERTYSINGLEVALUE('Parent',$,IFCTEXT('LM3-INT-SA330'),$);
#225=IFCPROPERTYSINGLEVALUE('Route',$,IFCTEXT('SOURCE'),$);
#226=IFCPROPERTYSINGLEVALUE('Maturity',$,IFCTEXT('buildable-after-supplier-freeze'),$);
#227=IFCPROPERTYSINGLEVALUE('QuantityPerTrainset',$,IFCINTEGER(3),$);
#228=IFCPROPERTYSINGLEVALUE('Unit',$,IFCTEXT('car kit'),$);
#229=IFCPROPERTYSINGLEVALUE('GeometryStatus',$,IFCTEXT('design-reference-not-released'),$);
#230=IFCPROPERTYSINGLEVALUE('GeometryLevel',$,IFCTEXT('coordination-envelope'),$);
#231=IFCPROPERTYSET('06$D1A7XDKTf4NBAoQgHRU',$,'OSR_ProductDefinition',$,(#223,#224,#225,#226,#227,#228,#229,#230));
#232=IFCRELDEFINESBYPROPERTIES('3IwuKJ4lzOQ8EJ2XIXidGp',$,$,$,(#222),#231);
#233=IFCCARTESIANPOINTLIST3D(((-0.59999999999999998,-0.32500000000000001,-0.24599999999999997),(-0.59999999999999998,-0.32500000000000001,0.24599999999999997),(-0.59999999999999998,0.32500000000000001,-0.24599999999999997),(-0.59999999999999998,0.32500000000000001,0.24599999999999997),(0.59999999999999998,-0.32500000000000001,-0.24599999999999997),(0.59999999999999998,-0.32500000000000001,0.24599999999999997),(0.59999999999999998,0.32500000000000001,-0.24599999999999997),(0.59999999999999998,0.32500000000000001,0.24599999999999997),(-0.49199999999999994,-0.32500000000000001,-0.28799999999999998),(-0.49199999999999994,-0.32500000000000001,-0.216),(-0.49199999999999994,-0.247,-0.28799999999999998),(-0.49199999999999994,-0.247,-0.216),(0.49199999999999994,-0.32500000000000001,-0.28799999999999998),(0.49199999999999994,-0.32500000000000001,-0.216),(0.49199999999999994,-0.247,-0.28799999999999998),(0.49199999999999994,-0.247,-0.216),(0.216,0.2145,-0.048000000000000001),(0.216,0.2145,0.048000000000000001),(0.216,0.30549999999999999,-0.048000000000000001),(0.216,0.30549999999999999,0.048000000000000001),(0.504,0.2145,-0.048000000000000001),(0.504,0.2145,0.048000000000000001),(0.504,0.30549999999999999,-0.048000000000000001),(0.504,0.30549999999999999,0.048000000000000001)),$);
#234=IFCINDEXEDPOLYGONALFACE((1,2,4,3));
#235=IFCINDEXEDPOLYGONALFACE((5,7,8,6));
#236=IFCINDEXEDPOLYGONALFACE((1,5,6,2));
#237=IFCINDEXEDPOLYGONALFACE((3,4,8,7));
#238=IFCINDEXEDPOLYGONALFACE((1,3,7,5));
#239=IFCINDEXEDPOLYGONALFACE((2,6,8,4));
#240=IFCINDEXEDPOLYGONALFACE((9,10,12,11));
#241=IFCINDEXEDPOLYGONALFACE((13,15,16,14));
#242=IFCINDEXEDPOLYGONALFACE((9,13,14,10));
#243=IFCINDEXEDPOLYGONALFACE((11,12,16,15));
#244=IFCINDEXEDPOLYGONALFACE((9,11,15,13));
#245=IFCINDEXEDPOLYGONALFACE((10,14,16,12));
#246=IFCINDEXEDPOLYGONALFACE((17,18,20,19));
#247=IFCINDEXEDPOLYGONALFACE((21,23,24,22));
#248=IFCINDEXEDPOLYGONALFACE((17,21,22,18));
#249=IFCINDEXEDPOLYGONALFACE((19,20,24,23));
#250=IFCINDEXEDPOLYGONALFACE((17,19,23,21));
#251=IFCINDEXEDPOLYGONALFACE((18,22,24,20));
#252=IFCPOLYGONALFACESET(#233,$,(#234,#235,#236,#237,#238,#239,#240,#241,#242,#243,#244,#245,#246,#247,#248,#249,#250,#251),$);
#253=IFCSHAPEREPRESENTATION(#13,'Body','Tessellation',(#252));
#254=IFCPRODUCTDEFINITIONSHAPE($,$,(#253));
#255=IFCDUCTSEGMENT('3txVOjmd9HhhFG8Exp19GL',$,'HVAC diffusers, side return ducts, saloon grilles, and access panels','Interior air distribution kit between roof HVAC drops and the passenger saloon.',$,#409,#299,'LM3-INT-P010',$);
#256=IFCPROPERTYSINGLEVALUE('OSRId',$,IFCTEXT('LM3-INT-P010'),$);
#257=IFCPROPERTYSINGLEVALUE('Parent',$,IFCTEXT('LM3-INT-SA330'),$);
#258=IFCPROPERTYSINGLEVALUE('Route',$,IFCTEXT('SOURCE'),$);
#259=IFCPROPERTYSINGLEVALUE('Maturity',$,IFCTEXT('buildable-after-supplier-freeze'),$);
#260=IFCPROPERTYSINGLEVALUE('QuantityPerTrainset',$,IFCINTEGER(3),$);
#261=IFCPROPERTYSINGLEVALUE('Unit',$,IFCTEXT('car kit'),$);
#262=IFCPROPERTYSINGLEVALUE('GeometryStatus',$,IFCTEXT('design-reference-not-released'),$);
#263=IFCPROPERTYSINGLEVALUE('GeometryLevel',$,IFCTEXT('coordination-envelope'),$);
#264=IFCPROPERTYSET('22EpMgRevMt9FYz20dRQF3',$,'OSR_ProductDefinition',$,(#256,#257,#258,#259,#260,#261,#262,#263));
#265=IFCRELDEFINESBYPROPERTIES('3fyThI7hnH0APNj6FPhOZg',$,$,$,(#255),#264);
#266=IFCCARTESIANPOINTLIST3D(((-3.,-0.88800000000000001,-0.038399999999999997),(-3.,-0.88800000000000001,0.038399999999999997),(-3.,-0.64800000000000002,-0.038399999999999997),(-3.,-0.64800000000000002,0.038399999999999997),(3.,-0.88800000000000001,-0.038399999999999997),(3.,-0.88800000000000001,0.038399999999999997),(3.,-0.64800000000000002,-0.038399999999999997),(3.,-0.64800000000000002,0.038399999999999997),(-3.,0.64800000000000002,-0.038399999999999997),(-3.,0.64800000000000002,0.038399999999999997),(-3.,0.88800000000000001,-0.038399999999999997),(-3.,0.88800000000000001,0.038399999999999997),(3.,0.64800000000000002,-0.038399999999999997),(3.,0.64800000000000002,0.038399999999999997),(3.,0.88800000000000001,-0.038399999999999997),(3.,0.88800000000000001,0.038399999999999997),(-2.1749999999999998,-0.95999999999999996,-0.048000000000000001),(-2.1749999999999998,-0.95999999999999996,0.048000000000000001),(-2.1749999999999998,0.95999999999999996,-0.048000000000000001),(-2.1749999999999998,0.95999999999999996,0.048000000000000001),(-2.0249999999999999,-0.95999999999999996,-0.048000000000000001),(-2.0249999999999999,-0.95999999999999996,0.048000000000000001),(-2.0249999999999999,0.95999999999999996,-0.048000000000000001),(-2.0249999999999999,0.95999999999999996,0.048000000000000001),(-0.074999999999999997,-0.95999999999999996,-0.048000000000000001),(-0.074999999999999997,-0.95999999999999996,0.048000000000000001),(-0.074999999999999997,0.95999999999999996,-0.048000000000000001),(-0.074999999999999997,0.95999999999999996,0.048000000000000001),(0.074999999999999997,-0.95999999999999996,-0.048000000000000001),(0.074999999999999997,-0.95999999999999996,0.048000000000000001),(0.074999999999999997,0.95999999999999996,-0.048000000000000001),(0.074999999999999997,0.95999999999999996,0.048000000000000001),(2.0249999999999999,-0.95999999999999996,-0.048000000000000001),(2.0249999999999999,-0.95999999999999996,0.048000000000000001),(2.0249999999999999,0.95999999999999996,-0.048000000000000001),(2.0249999999999999,0.95999999999999996,0.048000000000000001),(2.1749999999999998,-0.95999999999999996,-0.048000000000000001),(2.1749999999999998,-0.95999999999999996,0.048000000000000001),(2.1749999999999998,0.95999999999999996,-0.048000000000000001),(2.1749999999999998,0.95999999999999996,0.048000000000000001)),$);
#267=IFCINDEXEDPOLYGONALFACE((1,2,4,3));
#268=IFCINDEXEDPOLYGONALFACE((5,7,8,6));
#269=IFCINDEXEDPOLYGONALFACE((1,5,6,2));
#270=IFCINDEXEDPOLYGONALFACE((3,4,8,7));
#271=IFCINDEXEDPOLYGONALFACE((1,3,7,5));
#272=IFCINDEXEDPOLYGONALFACE((2,6,8,4));
#273=IFCINDEXEDPOLYGONALFACE((9,10,12,11));
#274=IFCINDEXEDPOLYGONALFACE((13,15,16,14));
#275=IFCINDEXEDPOLYGONALFACE((9,13,14,10));
#276=IFCINDEXEDPOLYGONALFACE((11,12,16,15));
#277=IFCINDEXEDPOLYGONALFACE((9,11,15,13));
#278=IFCINDEXEDPOLYGONALFACE((10,14,16,12));
#279=IFCINDEXEDPOLYGONALFACE((17,18,20,19));
#280=IFCINDEXEDPOLYGONALFACE((21,23,24,22));
#281=IFCINDEXEDPOLYGONALFACE((17,21,22,18));
#282=IFCINDEXEDPOLYGONALFACE((19,20,24,23));
#283=IFCINDEXEDPOLYGONALFACE((17,19,23,21));
#284=IFCINDEXEDPOLYGONALFACE((18,22,24,20));
#285=IFCINDEXEDPOLYGONALFACE((25,26,28,27));
#286=IFCINDEXEDPOLYGONALFACE((29,31,32,30));
#287=IFCINDEXEDPOLYGONALFACE((25,29,30,26));
#288=IFCINDEXEDPOLYGONALFACE((27,28,32,31));
#289=IFCINDEXEDPOLYGONALFACE((25,27,31,29));
#290=IFCINDEXEDPOLYGONALFACE((26,30,32,28));
#291=IFCINDEXEDPOLYGONALFACE((33,34,36,35));
#292=IFCINDEXEDPOLYGONALFACE((37,39,40,38));
#293=IFCINDEXEDPOLYGONALFACE((33,37,38,34));
#294=IFCINDEXEDPOLYGONALFACE((35,36,40,39));
#295=IFCINDEXEDPOLYGONALFACE((33,35,39,37));
#296=IFCINDEXEDPOLYGONALFACE((34,38,40,36));
#297=IFCPOLYGONALFACESET(#266,$,(#267,#268,#269,#270,#271,#272,#273,#274,#275,#276,#277,#278,#279,#280,#281,#282,#283,#284,#285,#286,#287,#288,#289,#290,#291,#292,#293,#294,#295,#296),$);
#298=IFCSHAPEREPRESENTATION(#13,'Body','Tessellation',(#297));
#299=IFCPRODUCTDEFINITIONSHAPE($,$,(#298));
#300=IFCCOVERING('0zRjrMbprN3u16y$DI6OsE',$,'FRP/phenolic ceiling liner, light trough, and HVAC plenum cover set','Locally moulded or CNC-trimmed fire-rated cabin ceiling panels with light troughs, diffuser openings, and removable service covers.',$,#412,#320,'LM3-INT-P020',$);
#301=IFCPROPERTYSINGLEVALUE('OSRId',$,IFCTEXT('LM3-INT-P020'),$);
#302=IFCPROPERTYSINGLEVALUE('Parent',$,IFCTEXT('LM3-INT-SA330'),$);
#303=IFCPROPERTYSINGLEVALUE('Route',$,IFCTEXT('MAKE'),$);
#304=IFCPROPERTYSINGLEVALUE('Maturity',$,IFCTEXT('buildable-after-supplier-freeze'),$);
#305=IFCPROPERTYSINGLEVALUE('QuantityPerTrainset',$,IFCINTEGER(3),$);
#306=IFCPROPERTYSINGLEVALUE('Unit',$,IFCTEXT('car kit'),$);
#307=IFCPROPERTYSINGLEVALUE('GeometryStatus',$,IFCTEXT('design-reference-not-released'),$);
#308=IFCPROPERTYSINGLEVALUE('GeometryLevel',$,IFCTEXT('design-reference-detail'),$);
#309=IFCPROPERTYSET('0BsbsOsfHL7RIyLPRp5toe',$,'OSR_ProductDefinition',$,(#301,#302,#303,#304,#305,#306,#307,#308));
#310=IFCRELDEFINESBYPROPERTIES('2CxijbJ9HKJPqdwTfb8PkS',$,$,$,(#300),#309);
#311=IFCCARTESIANPOINTLIST3D(((-0.5,-1.325,-0.13),(-0.5,-1.325,0.13),(-0.5,1.325,-0.13),(-0.5,1.325,0.13),(0.5,-1.325,-0.13),(0.5,-1.325,0.13),(0.5,1.325,-0.13),(0.5,1.325,0.13)),$);
#312=IFCINDEXEDPOLYGONALFACE((1,2,4,3));
#313=IFCINDEXEDPOLYGONALFACE((5,7,8,6));
#314=IFCINDEXEDPOLYGONALFACE((1,5,6,2));
#315=IFCINDEXEDPOLYGONALFACE((3,4,8,7));
#316=IFCINDEXEDPOLYGONALFACE((1,3,7,5));
#317=IFCINDEXEDPOLYGONALFACE((2,6,8,4));
#318=IFCPOLYGONALFACESET(#311,$,(#312,#313,#314,#315,#316,#317),$);
#319=IFCSHAPEREPRESENTATION(#13,'Body','Tessellation',(#318));
#320=IFCPRODUCTDEFINITIONSHAPE($,$,(#319));
#321=IFCCOVERING('144CHwPGvLWvwHmLZXHHee',$,'FRP/phenolic sidewall liner, window reveal, and cable-cover panel set','Fire-rated cabin sidewall panels and window reveals that hide secondary structure while preserving window replacement and cable-tray access.',$,#415,#341,'LM3-INT-P030',$);
#322=IFCPROPERTYSINGLEVALUE('OSRId',$,IFCTEXT('LM3-INT-P030'),$);
#323=IFCPROPERTYSINGLEVALUE('Parent',$,IFCTEXT('LM3-INT-SA330'),$);
#324=IFCPROPERTYSINGLEVALUE('Route',$,IFCTEXT('MAKE'),$);
#325=IFCPROPERTYSINGLEVALUE('Maturity',$,IFCTEXT('buildable-after-supplier-freeze'),$);
#326=IFCPROPERTYSINGLEVALUE('QuantityPerTrainset',$,IFCINTEGER(6),$);
#327=IFCPROPERTYSINGLEVALUE('Unit',$,IFCTEXT('side kit'),$);
#328=IFCPROPERTYSINGLEVALUE('GeometryStatus',$,IFCTEXT('design-reference-not-released'),$);
#329=IFCPROPERTYSINGLEVALUE('GeometryLevel',$,IFCTEXT('design-reference-detail'),$);
#330=IFCPROPERTYSET('0Eww9wpXzVk8nbbgmC_lRJ',$,'OSR_ProductDefinition',$,(#322,#323,#324,#325,#326,#327,#328,#329));
#331=IFCRELDEFINESBYPROPERTIES('3GvCB$rIbJpwYaltU8qJQm',$,$,$,(#321),#330);
#332=IFCCARTESIANPOINTLIST3D(((-0.5,-0.070000000000000007,-1.1000000000000001),(-0.5,-0.070000000000000007,1.1000000000000001),(-0.5,0.070000000000000007,-1.1000000000000001),(-0.5,0.070000000000000007,1.1000000000000001),(0.5,-0.070000000000000007,-1.1000000000000001),(0.5,-0.070000000000000007,1.1000000000000001),(0.5,0.070000000000000007,-1.1000000000000001),(0.5,0.070000000000000007,1.1000000000000001)),$);
#333=IFCINDEXEDPOLYGONALFACE((1,2,4,3));
#334=IFCINDEXEDPOLYGONALFACE((5,7,8,6));
#335=IFCINDEXEDPOLYGONALFACE((1,5,6,2));
#336=IFCINDEXEDPOLYGONALFACE((3,4,8,7));
#337=IFCINDEXEDPOLYGONALFACE((1,3,7,5));
#338=IFCINDEXEDPOLYGONALFACE((2,6,8,4));
#339=IFCPOLYGONALFACESET(#332,$,(#333,#334,#335,#336,#337,#338),$);
#340=IFCSHAPEREPRESENTATION(#13,'Body','Tessellation',(#339));
#341=IFCPRODUCTDEFINITIONSHAPE($,$,(#340));
#342=IFCCOVERING('0xRgZZ2_5MkwDzghLMulKO',$,'FRP battery strake covers, seat-base fairings, and service-hatch shells','Sacrificial fire-rated saloon barriers over the side battery enclosures; battery service access and pressure relief remain exterior-only.',$,#418,#362,'LM3-INT-P040',$);
#343=IFCPROPERTYSINGLEVALUE('OSRId',$,IFCTEXT('LM3-INT-P040'),$);
#344=IFCPROPERTYSINGLEVALUE('Parent',$,IFCTEXT('LM3-INT-SA330'),$);
#345=IFCPROPERTYSINGLEVALUE('Route',$,IFCTEXT('MAKE'),$);
#346=IFCPROPERTYSINGLEVALUE('Maturity',$,IFCTEXT('buildable-after-supplier-freeze'),$);
#347=IFCPROPERTYSINGLEVALUE('QuantityPerTrainset',$,IFCINTEGER(3),$);
#348=IFCPROPERTYSINGLEVALUE('Unit',$,IFCTEXT('car kit'),$);
#349=IFCPROPERTYSINGLEVALUE('GeometryStatus',$,IFCTEXT('design-reference-not-released'),$);
#350=IFCPROPERTYSINGLEVALUE('GeometryLevel',$,IFCTEXT('design-reference-detail'),$);
#351=IFCPROPERTYSET('3uPmN7CwLKvhWop_RekcdA',$,'OSR_ProductDefinition',$,(#343,#344,#345,#346,#347,#348,#349,#350));
#352=IFCRELDEFINESBYPROPERTIES('2M2FUtBiDNGRuwzuLCL1ZC',$,$,$,(#342),#351);
#353=IFCCARTESIANPOINTLIST3D(((-2.3999999999999999,-0.35999999999999999,-0.39000000000000001),(-2.3999999999999999,-0.35999999999999999,0.39000000000000001),(-2.3999999999999999,0.35999999999999999,-0.39000000000000001),(-2.3999999999999999,0.35999999999999999,0.39000000000000001),(2.3999999999999999,-0.35999999999999999,-0.39000000000000001),(2.3999999999999999,-0.35999999999999999,0.39000000000000001),(2.3999999999999999,0.35999999999999999,-0.39000000000000001),(2.3999999999999999,0.35999999999999999,0.39000000000000001)),$);
#354=IFCINDEXEDPOLYGONALFACE((1,2,4,3));
#355=IFCINDEXEDPOLYGONALFACE((5,7,8,6));
#356=IFCINDEXEDPOLYGONALFACE((1,5,6,2));
#357=IFCINDEXEDPOLYGONALFACE((3,4,8,7));
#358=IFCINDEXEDPOLYGONALFACE((1,3,7,5));
#359=IFCINDEXEDPOLYGONALFACE((2,6,8,4));
#360=IFCPOLYGONALFACESET(#353,$,(#354,#355,#356,#357,#358,#359),$);
#361=IFCSHAPEREPRESENTATION(#13,'Body','Tessellation',(#360));
#362=IFCPRODUCTDEFINITIONSHAPE($,$,(#361));
#363=IFCCOVERING('2I4QEdKDXQG8sSyUaf_yhe',$,'FRP vestibule kick panels, PRM ramp/step covers, and door-pocket trims','Durable molded fiberglass/phenolic trim around door thresholds, PRM transitions, and high-floor step faces.',$,#421,#383,'LM3-INT-P050',$);
#364=IFCPROPERTYSINGLEVALUE('OSRId',$,IFCTEXT('LM3-INT-P050'),$);
#365=IFCPROPERTYSINGLEVALUE('Parent',$,IFCTEXT('LM3-INT-SA330'),$);
#366=IFCPROPERTYSINGLEVALUE('Route',$,IFCTEXT('MAKE'),$);
#367=IFCPROPERTYSINGLEVALUE('Maturity',$,IFCTEXT('buildable-after-supplier-freeze'),$);
#368=IFCPROPERTYSINGLEVALUE('QuantityPerTrainset',$,IFCINTEGER(12),$);
#369=IFCPROPERTYSINGLEVALUE('Unit',$,IFCTEXT('door-zone kit'),$);
#370=IFCPROPERTYSINGLEVALUE('GeometryStatus',$,IFCTEXT('design-reference-not-released'),$);
#371=IFCPROPERTYSINGLEVALUE('GeometryLevel',$,IFCTEXT('design-reference-detail'),$);
#372=IFCPROPERTYSET('2c821bCVzMUhIzpLvLbRiE',$,'OSR_ProductDefinition',$,(#364,#365,#366,#367,#368,#369,#370,#371));
#373=IFCRELDEFINESBYPROPERTIES('0qVwP2JOTUU9XmjTAWXyxS',$,$,$,(#363),#372);
#374=IFCCARTESIANPOINTLIST3D(((-0.55000000000000004,-0.20999999999999999,-0.52500000000000002),(-0.55000000000000004,-0.20999999999999999,0.52500000000000002),(-0.55000000000000004,0.20999999999999999,-0.52500000000000002),(-0.55000000000000004,0.20999999999999999,0.52500000000000002),(0.55000000000000004,-0.20999999999999999,-0.52500000000000002),(0.55000000000000004,-0.20999999999999999,0.52500000000000002),(0.55000000000000004,0.20999999999999999,-0.52500000000000002),(0.55000000000000004,0.20999999999999999,0.52500000000000002)),$);
#375=IFCINDEXEDPOLYGONALFACE((1,2,4,3));
#376=IFCINDEXEDPOLYGONALFACE((5,7,8,6));
#377=IFCINDEXEDPOLYGONALFACE((1,5,6,2));
#378=IFCINDEXEDPOLYGONALFACE((3,4,8,7));
#379=IFCINDEXEDPOLYGONALFACE((1,3,7,5));
#380=IFCINDEXEDPOLYGONALFACE((2,6,8,4));
#381=IFCPOLYGONALFACESET(#374,$,(#375,#376,#377,#378,#379,#380),$);
#382=IFCSHAPEREPRESENTATION(#13,'Body','Tessellation',(#381));
#383=IFCPRODUCTDEFINITIONSHAPE($,$,(#382));
#384=IFCRELAGGREGATES('3YdsbaMhrL_w$_7go3U_u2',$,$,$,#28,(#36,#57,#78,#111,#156,#189,#222,#255,#300,#321,#342,#363));
#385=IFCRELCONTAINEDINSPATIALSTRUCTURE('3Eg_epnMbGiRmWJ1tLtHOn',$,$,$,(#28),#3);
#386=IFCCARTESIANPOINT((0.,0.,0.));
#387=IFCAXIS2PLACEMENT3D(#386,$,$);
#388=IFCLOCALPLACEMENT($,#387);
#389=IFCCARTESIANPOINT((6.7999999999999998,0.,0.));
#390=IFCAXIS2PLACEMENT3D(#389,$,$);
#391=IFCLOCALPLACEMENT($,#390);
#392=IFCCARTESIANPOINT((13.6,0.,0.));
#393=IFCAXIS2PLACEMENT3D(#392,$,$);
#394=IFCLOCALPLACEMENT($,#393);
#395=IFCCARTESIANPOINT((20.399999999999999,0.,0.));
#396=IFCAXIS2PLACEMENT3D(#395,$,$);
#397=IFCLOCALPLACEMENT($,#396);
#398=IFCCARTESIANPOINT((0.,3.4500000000000002,0.));
#399=IFCAXIS2PLACEMENT3D(#398,$,$);
#400=IFCLOCALPLACEMENT($,#399);
#401=IFCCARTESIANPOINT((6.7999999999999998,3.4500000000000002,0.));
#402=IFCAXIS2PLACEMENT3D(#401,$,$);
#403=IFCLOCALPLACEMENT($,#402);
#404=IFCCARTESIANPOINT((13.6,3.4500000000000002,0.));
#405=IFCAXIS2PLACEMENT3D(#404,$,$);
#406=IFCLOCALPLACEMENT($,#405);
#407=IFCCARTESIANPOINT((20.399999999999999,3.4500000000000002,0.));
#408=IFCAXIS2PLACEMENT3D(#407,$,$);
#409=IFCLOCALPLACEMENT($,#408);
#410=IFCCARTESIANPOINT((0.,6.9000000000000004,0.));
#411=IFCAXIS2PLACEMENT3D(#410,$,$);
#412=IFCLOCALPLACEMENT($,#411);
#413=IFCCARTESIANPOINT((6.7999999999999998,6.9000000000000004,0.));
#414=IFCAXIS2PLACEMENT3D(#413,$,$);
#415=IFCLOCALPLACEMENT($,#414);
#416=IFCCARTESIANPOINT((13.6,6.9000000000000004,0.));
#417=IFCAXIS2PLACEMENT3D(#416,$,$);
#418=IFCLOCALPLACEMENT($,#417);
#419=IFCCARTESIANPOINT((20.399999999999999,6.9000000000000004,0.));
#420=IFCAXIS2PLACEMENT3D(#419,$,$);
#421=IFCLOCALPLACEMENT($,#420);
ENDSEC;
END-ISO-10303-21;
