ISO-10303-21;
HEADER;
FILE_DESCRIPTION(('ViewDefinition [CoordinationView]'),'2;1');
FILE_NAME('LM3-ART-SA830.ifc','2026-08-30T00:00:00+00:00',('OpenSourceRail'),('OpenSourceRail'),'IfcOpenShell 0.8.5','OpenSourceRail deterministic LM3 product-library exporter','design-reference / not for construction');
FILE_SCHEMA(('IFC4X3_ADD2'));
ENDSEC;
DATA;
#1=IFCPROJECT('010xujdv9I2PF8HOSdCRal',$,'LM3-ART-SA830 \X2\2014\X0\ articulation service-transfer and segregated trainline subassembly','Design-reference geometry and assembly hierarchy only; supplier freeze, released drawings/tolerances, calculations, qualified processes and first-article tests remain mandatory.',$,$,$,(#12),#7);
#2=IFCSITE('2l$lVUBbvQ6wcEqvj6$i$d',$,'LM3 product library',$,$,#18,$,$,.ELEMENT.,$,$,$,$,$);
#3=IFCBUILDING('0PLsRGinDL1vCvFF4hF3oP',$,'LM3 assembly inspection fixture',$,$,#21,$,$,.ELEMENT.,$,$,$);
#4=IFCSIUNIT(*,.LENGTHUNIT.,$,.METRE.);
#5=IFCSIUNIT(*,.AREAUNIT.,$,.SQUARE_METRE.);
#6=IFCSIUNIT(*,.VOLUMEUNIT.,$,.CUBIC_METRE.);
#7=IFCUNITASSIGNMENT((#6,#4,#5));
#8=IFCCARTESIANPOINT((0.,0.,0.));
#9=IFCDIRECTION((0.,0.,1.));
#10=IFCDIRECTION((1.,0.,0.));
#11=IFCAXIS2PLACEMENT3D(#8,#9,#10);
#12=IFCGEOMETRICREPRESENTATIONCONTEXT($,'Model',3,1.0000000000000001E-05,#11,$);
#13=IFCGEOMETRICREPRESENTATIONSUBCONTEXT('Body','Model',*,*,*,*,#12,$,.MODEL_VIEW.,$);
#14=IFCRELAGGREGATES('1OkemGl2bV_vs69fCSoRVr',$,$,$,#1,(#2));
#15=IFCRELAGGREGATES('1CP2BeesnRnPhQIc6UmpdA',$,$,$,#2,(#3));
#16=IFCCARTESIANPOINT((0.,0.,0.));
#17=IFCAXIS2PLACEMENT3D(#16,$,$);
#18=IFCLOCALPLACEMENT($,#17);
#19=IFCCARTESIANPOINT((0.,0.,0.));
#20=IFCAXIS2PLACEMENT3D(#19,$,$);
#21=IFCLOCALPLACEMENT($,#20);
#22=IFCPROPERTYSINGLEVALUE('Status',$,IFCTEXT('design-reference-not-released'),$);
#23=IFCPROPERTYSINGLEVALUE('ReleaseBoundary',$,IFCTEXT('Design-reference geometry and assembly hierarchy only; supplier freeze, released drawings/tolerances, calculations, qualified processes and first-article tests remain mandatory.'),$);
#24=IFCPROPERTYSINGLEVALUE('Manifest',$,IFCTEXT('design/component-catalogue/catalog/buildable-trainset/buildable-trainset-manifest.json'),$);
#25=IFCPROPERTYSINGLEVALUE('ManifestSha256',$,IFCTEXT('7654747909805305ce2018109b5b649c4817a8f8c44a3ec8f2e8a6f74d48243e'),$);
#26=IFCPROPERTYSET('1EN9lHjFvTHvFwq5TfGlEA',$,'OSR_ProductLibrary',$,(#22,#23,#24,#25));
#27=IFCRELDEFINESBYPROPERTIES('2axB6hOOHT$AtDNTF3e1zN',$,$,$,(#1),#26);
#28=IFCELEMENTASSEMBLY('0QPL10tIfGKRUE3a3qaV0$',$,'articulation service-transfer and segregated trainline subassembly','HV/LV segregation | continuity/pressure test | bend-radius sweep | drain test | replaceability trial',$,$,$,'LM3-ART-SA830',$,$);
#29=IFCPROPERTYSINGLEVALUE('OSRId',$,IFCTEXT('LM3-ART-SA830'),$);
#30=IFCPROPERTYSINGLEVALUE('Layer',$,IFCTEXT('subassembly'),$);
#31=IFCPROPERTYSINGLEVALUE('BuildCell',$,IFCTEXT('harness, hose and articulation bench'),$);
#32=IFCPROPERTYSINGLEVALUE('QuantityPerTrainset',$,IFCINTEGER(2),$);
#33=IFCPROPERTYSINGLEVALUE('GeometryStatus',$,IFCTEXT('complete-hierarchy-inspection-layout'),$);
#34=IFCPROPERTYSET('2O$GzRTqLKvO3V7Qe$n_RO',$,'OSR_AssemblyDefinition',$,(#29,#30,#31,#32,#33));
#35=IFCRELDEFINESBYPROPERTIES('3dXzMcdQrMKecCC4LGzBaB',$,$,$,(#28),#34);
#36=IFCBUILDINGELEMENTPROXY('1yhfdMVYTHfBSmbVB6KX47',$,'articulation trainline carrier, support arms, abrasion liners and drain path','A replaceable energy-chain/support system controls service-loop bend radius and separates HV, LV/data and coolant across the joint.',$,#128,#79,'LM3-ART-P024',$);
#37=IFCPROPERTYSINGLEVALUE('OSRId',$,IFCTEXT('LM3-ART-P024'),$);
#38=IFCPROPERTYSINGLEVALUE('Parent',$,IFCTEXT('LM3-ART-SA830'),$);
#39=IFCPROPERTYSINGLEVALUE('Route',$,IFCTEXT('SOURCE'),$);
#40=IFCPROPERTYSINGLEVALUE('Maturity',$,IFCTEXT('buildable-after-supplier-freeze'),$);
#41=IFCPROPERTYSINGLEVALUE('QuantityPerTrainset',$,IFCINTEGER(2),$);
#42=IFCPROPERTYSINGLEVALUE('Unit',$,IFCTEXT('carrier set'),$);
#43=IFCPROPERTYSINGLEVALUE('GeometryStatus',$,IFCTEXT('design-reference-not-released'),$);
#44=IFCPROPERTYSET('1a$pRFmd1Jrw_g2zONrx2a',$,'OSR_ProductDefinition',$,(#37,#38,#39,#40,#41,#42,#43));
#45=IFCRELDEFINESBYPROPERTIES('0fPVpnizPQ0Ra4SWI8Q8wz',$,$,$,(#36),#44);
#46=IFCCARTESIANPOINTLIST3D(((-0.65000000000000002,-0.59199999999999997,-0.038399999999999997),(-0.65000000000000002,-0.59199999999999997,0.038399999999999997),(-0.65000000000000002,-0.432,-0.038399999999999997),(-0.65000000000000002,-0.432,0.038399999999999997),(0.65000000000000002,-0.59199999999999997,-0.038399999999999997),(0.65000000000000002,-0.59199999999999997,0.038399999999999997),(0.65000000000000002,-0.432,-0.038399999999999997),(0.65000000000000002,-0.432,0.038399999999999997),(-0.65000000000000002,0.432,-0.038399999999999997),(-0.65000000000000002,0.432,0.038399999999999997),(-0.65000000000000002,0.59199999999999997,-0.038399999999999997),(-0.65000000000000002,0.59199999999999997,0.038399999999999997),(0.65000000000000002,0.432,-0.038399999999999997),(0.65000000000000002,0.432,0.038399999999999997),(0.65000000000000002,0.59199999999999997,-0.038399999999999997),(0.65000000000000002,0.59199999999999997,0.038399999999999997),(-0.47124999999999995,-0.64000000000000001,-0.048000000000000001),(-0.47124999999999995,-0.64000000000000001,0.048000000000000001),(-0.47124999999999995,0.64000000000000001,-0.048000000000000001),(-0.47124999999999995,0.64000000000000001,0.048000000000000001),(-0.43874999999999992,-0.64000000000000001,-0.048000000000000001),(-0.43874999999999992,-0.64000000000000001,0.048000000000000001),(-0.43874999999999992,0.64000000000000001,-0.048000000000000001),(-0.43874999999999992,0.64000000000000001,0.048000000000000001),(-0.016250000000000001,-0.64000000000000001,-0.048000000000000001),(-0.016250000000000001,-0.64000000000000001,0.048000000000000001),(-0.016250000000000001,0.64000000000000001,-0.048000000000000001),(-0.016250000000000001,0.64000000000000001,0.048000000000000001),(0.016250000000000001,-0.64000000000000001,-0.048000000000000001),(0.016250000000000001,-0.64000000000000001,0.048000000000000001),(0.016250000000000001,0.64000000000000001,-0.048000000000000001),(0.016250000000000001,0.64000000000000001,0.048000000000000001),(0.43874999999999992,-0.64000000000000001,-0.048000000000000001),(0.43874999999999992,-0.64000000000000001,0.048000000000000001),(0.43874999999999992,0.64000000000000001,-0.048000000000000001),(0.43874999999999992,0.64000000000000001,0.048000000000000001),(0.47124999999999995,-0.64000000000000001,-0.048000000000000001),(0.47124999999999995,-0.64000000000000001,0.048000000000000001),(0.47124999999999995,0.64000000000000001,-0.048000000000000001),(0.47124999999999995,0.64000000000000001,0.048000000000000001)),$);
#47=IFCINDEXEDPOLYGONALFACE((1,2,4,3));
#48=IFCINDEXEDPOLYGONALFACE((5,7,8,6));
#49=IFCINDEXEDPOLYGONALFACE((1,5,6,2));
#50=IFCINDEXEDPOLYGONALFACE((3,4,8,7));
#51=IFCINDEXEDPOLYGONALFACE((1,3,7,5));
#52=IFCINDEXEDPOLYGONALFACE((2,6,8,4));
#53=IFCINDEXEDPOLYGONALFACE((9,10,12,11));
#54=IFCINDEXEDPOLYGONALFACE((13,15,16,14));
#55=IFCINDEXEDPOLYGONALFACE((9,13,14,10));
#56=IFCINDEXEDPOLYGONALFACE((11,12,16,15));
#57=IFCINDEXEDPOLYGONALFACE((9,11,15,13));
#58=IFCINDEXEDPOLYGONALFACE((10,14,16,12));
#59=IFCINDEXEDPOLYGONALFACE((17,18,20,19));
#60=IFCINDEXEDPOLYGONALFACE((21,23,24,22));
#61=IFCINDEXEDPOLYGONALFACE((17,21,22,18));
#62=IFCINDEXEDPOLYGONALFACE((19,20,24,23));
#63=IFCINDEXEDPOLYGONALFACE((17,19,23,21));
#64=IFCINDEXEDPOLYGONALFACE((18,22,24,20));
#65=IFCINDEXEDPOLYGONALFACE((25,26,28,27));
#66=IFCINDEXEDPOLYGONALFACE((29,31,32,30));
#67=IFCINDEXEDPOLYGONALFACE((25,29,30,26));
#68=IFCINDEXEDPOLYGONALFACE((27,28,32,31));
#69=IFCINDEXEDPOLYGONALFACE((25,27,31,29));
#70=IFCINDEXEDPOLYGONALFACE((26,30,32,28));
#71=IFCINDEXEDPOLYGONALFACE((33,34,36,35));
#72=IFCINDEXEDPOLYGONALFACE((37,39,40,38));
#73=IFCINDEXEDPOLYGONALFACE((33,37,38,34));
#74=IFCINDEXEDPOLYGONALFACE((35,36,40,39));
#75=IFCINDEXEDPOLYGONALFACE((33,35,39,37));
#76=IFCINDEXEDPOLYGONALFACE((34,38,40,36));
#77=IFCPOLYGONALFACESET(#46,$,(#47,#48,#49,#50,#51,#52,#53,#54,#55,#56,#57,#58,#59,#60,#61,#62,#63,#64,#65,#66,#67,#68,#69,#70,#71,#72,#73,#74,#75,#76),$);
#78=IFCSHAPEREPRESENTATION(#13,'Body','Tessellation',(#77));
#79=IFCPRODUCTDEFINITIONSHAPE($,$,(#78));
#80=IFCBUILDINGELEMENTPROXY('1SxYY51QzQjer8pC4gbdeK',$,'inter-car HV/LV jumper, coolant hose loop, energy chain, and drain sleeve kit','Flexible services package that follows articulation yaw/pitch/roll without violating segregation or bend radius.',$,#131,#123,'LM3-ART-P030',$);
#81=IFCPROPERTYSINGLEVALUE('OSRId',$,IFCTEXT('LM3-ART-P030'),$);
#82=IFCPROPERTYSINGLEVALUE('Parent',$,IFCTEXT('LM3-ART-SA830'),$);
#83=IFCPROPERTYSINGLEVALUE('Route',$,IFCTEXT('BID'),$);
#84=IFCPROPERTYSINGLEVALUE('Maturity',$,IFCTEXT('buildable-after-supplier-freeze'),$);
#85=IFCPROPERTYSINGLEVALUE('QuantityPerTrainset',$,IFCINTEGER(2),$);
#86=IFCPROPERTYSINGLEVALUE('Unit',$,IFCTEXT('articulation kit'),$);
#87=IFCPROPERTYSINGLEVALUE('GeometryStatus',$,IFCTEXT('design-reference-not-released'),$);
#88=IFCPROPERTYSET('1FyQJp3tvNPxBXjbYCpr_j',$,'OSR_ProductDefinition',$,(#81,#82,#83,#84,#85,#86,#87));
#89=IFCRELDEFINESBYPROPERTIES('1wif6ZyWzS6QHM_Iqqtmks',$,$,$,(#80),#88);
#90=IFCCARTESIANPOINTLIST3D(((-0.69999999999999996,-0.59199999999999997,-0.043199999999999995),(-0.69999999999999996,-0.59199999999999997,0.043199999999999995),(-0.69999999999999996,-0.432,-0.043199999999999995),(-0.69999999999999996,-0.432,0.043199999999999995),(0.69999999999999996,-0.59199999999999997,-0.043199999999999995),(0.69999999999999996,-0.59199999999999997,0.043199999999999995),(0.69999999999999996,-0.432,-0.043199999999999995),(0.69999999999999996,-0.432,0.043199999999999995),(-0.69999999999999996,0.432,-0.043199999999999995),(-0.69999999999999996,0.432,0.043199999999999995),(-0.69999999999999996,0.59199999999999997,-0.043199999999999995),(-0.69999999999999996,0.59199999999999997,0.043199999999999995),(0.69999999999999996,0.432,-0.043199999999999995),(0.69999999999999996,0.432,0.043199999999999995),(0.69999999999999996,0.59199999999999997,-0.043199999999999995),(0.69999999999999996,0.59199999999999997,0.043199999999999995),(-0.50749999999999995,-0.64000000000000001,-0.053999999999999999),(-0.50749999999999995,-0.64000000000000001,0.053999999999999999),(-0.50749999999999995,0.64000000000000001,-0.053999999999999999),(-0.50749999999999995,0.64000000000000001,0.053999999999999999),(-0.47249999999999992,-0.64000000000000001,-0.053999999999999999),(-0.47249999999999992,-0.64000000000000001,0.053999999999999999),(-0.47249999999999992,0.64000000000000001,-0.053999999999999999),(-0.47249999999999992,0.64000000000000001,0.053999999999999999),(-0.017500000000000002,-0.64000000000000001,-0.053999999999999999),(-0.017500000000000002,-0.64000000000000001,0.053999999999999999),(-0.017500000000000002,0.64000000000000001,-0.053999999999999999),(-0.017500000000000002,0.64000000000000001,0.053999999999999999),(0.017500000000000002,-0.64000000000000001,-0.053999999999999999),(0.017500000000000002,-0.64000000000000001,0.053999999999999999),(0.017500000000000002,0.64000000000000001,-0.053999999999999999),(0.017500000000000002,0.64000000000000001,0.053999999999999999),(0.47249999999999992,-0.64000000000000001,-0.053999999999999999),(0.47249999999999992,-0.64000000000000001,0.053999999999999999),(0.47249999999999992,0.64000000000000001,-0.053999999999999999),(0.47249999999999992,0.64000000000000001,0.053999999999999999),(0.50749999999999995,-0.64000000000000001,-0.053999999999999999),(0.50749999999999995,-0.64000000000000001,0.053999999999999999),(0.50749999999999995,0.64000000000000001,-0.053999999999999999),(0.50749999999999995,0.64000000000000001,0.053999999999999999)),$);
#91=IFCINDEXEDPOLYGONALFACE((1,2,4,3));
#92=IFCINDEXEDPOLYGONALFACE((5,7,8,6));
#93=IFCINDEXEDPOLYGONALFACE((1,5,6,2));
#94=IFCINDEXEDPOLYGONALFACE((3,4,8,7));
#95=IFCINDEXEDPOLYGONALFACE((1,3,7,5));
#96=IFCINDEXEDPOLYGONALFACE((2,6,8,4));
#97=IFCINDEXEDPOLYGONALFACE((9,10,12,11));
#98=IFCINDEXEDPOLYGONALFACE((13,15,16,14));
#99=IFCINDEXEDPOLYGONALFACE((9,13,14,10));
#100=IFCINDEXEDPOLYGONALFACE((11,12,16,15));
#101=IFCINDEXEDPOLYGONALFACE((9,11,15,13));
#102=IFCINDEXEDPOLYGONALFACE((10,14,16,12));
#103=IFCINDEXEDPOLYGONALFACE((17,18,20,19));
#104=IFCINDEXEDPOLYGONALFACE((21,23,24,22));
#105=IFCINDEXEDPOLYGONALFACE((17,21,22,18));
#106=IFCINDEXEDPOLYGONALFACE((19,20,24,23));
#107=IFCINDEXEDPOLYGONALFACE((17,19,23,21));
#108=IFCINDEXEDPOLYGONALFACE((18,22,24,20));
#109=IFCINDEXEDPOLYGONALFACE((25,26,28,27));
#110=IFCINDEXEDPOLYGONALFACE((29,31,32,30));
#111=IFCINDEXEDPOLYGONALFACE((25,29,30,26));
#112=IFCINDEXEDPOLYGONALFACE((27,28,32,31));
#113=IFCINDEXEDPOLYGONALFACE((25,27,31,29));
#114=IFCINDEXEDPOLYGONALFACE((26,30,32,28));
#115=IFCINDEXEDPOLYGONALFACE((33,34,36,35));
#116=IFCINDEXEDPOLYGONALFACE((37,39,40,38));
#117=IFCINDEXEDPOLYGONALFACE((33,37,38,34));
#118=IFCINDEXEDPOLYGONALFACE((35,36,40,39));
#119=IFCINDEXEDPOLYGONALFACE((33,35,39,37));
#120=IFCINDEXEDPOLYGONALFACE((34,38,40,36));
#121=IFCPOLYGONALFACESET(#90,$,(#91,#92,#93,#94,#95,#96,#97,#98,#99,#100,#101,#102,#103,#104,#105,#106,#107,#108,#109,#110,#111,#112,#113,#114,#115,#116,#117,#118,#119,#120),$);
#122=IFCSHAPEREPRESENTATION(#13,'Body','Tessellation',(#121));
#123=IFCPRODUCTDEFINITIONSHAPE($,$,(#122));
#124=IFCRELAGGREGATES('2ho7QSZt9MXxYBf7pwzzW9',$,$,$,#28,(#36,#80));
#125=IFCRELCONTAINEDINSPATIALSTRUCTURE('2ruCvR9BXQUvatD48VcwZt',$,$,$,(#28),#3);
#126=IFCCARTESIANPOINT((0.,0.,0.));
#127=IFCAXIS2PLACEMENT3D(#126,$,$);
#128=IFCLOCALPLACEMENT($,#127);
#129=IFCCARTESIANPOINT((2.2000000000000002,0.,0.));
#130=IFCAXIS2PLACEMENT3D(#129,$,$);
#131=IFCLOCALPLACEMENT($,#130);
ENDSEC;
END-ISO-10303-21;
