ISO-10303-21;
HEADER;
FILE_DESCRIPTION(('ViewDefinition [CoordinationView]'),'2;1');
FILE_NAME('LM3-SHELL-A200.ifc','2026-08-30T00:00:00+00:00',('OpenSourceRail'),('OpenSourceRail'),'IfcOpenShell 0.8.5','OpenSourceRail deterministic LM3 product-library exporter','design-reference / not for construction');
FILE_SCHEMA(('IFC4X3_ADD2'));
ENDSEC;
DATA;
#1=IFCPROJECT('2J6xE$3j9Ksvs9YTEwTvoG',$,'LM3-SHELL-A200 \X2\2014\X0\ painted carbody frame with one-metre clip-on fiberglass exterior','Design-reference geometry and assembly hierarchy only; supplier freeze, released drawings/tolerances, calculations, qualified processes and first-article tests remain mandatory.',$,$,$,(#12),#7);
#2=IFCSITE('2qUqm6AS9V9Af0_ROPqpnc',$,'LM3 product library',$,$,#18,$,$,.ELEMENT.,$,$,$,$,$);
#3=IFCBUILDING('1o5k1POzPKqv$aX8lGvx7$',$,'LM3 assembly inspection fixture',$,$,#21,$,$,.ELEMENT.,$,$,$);
#4=IFCSIUNIT(*,.LENGTHUNIT.,$,.METRE.);
#5=IFCSIUNIT(*,.AREAUNIT.,$,.SQUARE_METRE.);
#6=IFCSIUNIT(*,.VOLUMEUNIT.,$,.CUBIC_METRE.);
#7=IFCUNITASSIGNMENT((#6,#4,#5));
#8=IFCCARTESIANPOINT((0.,0.,0.));
#9=IFCDIRECTION((0.,0.,1.));
#10=IFCDIRECTION((1.,0.,0.));
#11=IFCAXIS2PLACEMENT3D(#8,#9,#10);
#12=IFCGEOMETRICREPRESENTATIONCONTEXT($,'Model',3,1.0000000000000001E-05,#11,$);
#13=IFCGEOMETRICREPRESENTATIONSUBCONTEXT('Body','Model',*,*,*,*,#12,$,.MODEL_VIEW.,$);
#14=IFCRELAGGREGATES('1V7U7rYmvQigweOEZ3efRi',$,$,$,#1,(#2));
#15=IFCRELAGGREGATES('32_dv3S$LNDf0WIRpVmiAY',$,$,$,#2,(#3));
#16=IFCCARTESIANPOINT((0.,0.,0.));
#17=IFCAXIS2PLACEMENT3D(#16,$,$);
#18=IFCLOCALPLACEMENT($,#17);
#19=IFCCARTESIANPOINT((0.,0.,0.));
#20=IFCAXIS2PLACEMENT3D(#19,$,$);
#21=IFCLOCALPLACEMENT($,#20);
#22=IFCPROPERTYSINGLEVALUE('Status',$,IFCTEXT('design-reference-not-released'),$);
#23=IFCPROPERTYSINGLEVALUE('ReleaseBoundary',$,IFCTEXT('Design-reference geometry and assembly hierarchy only; supplier freeze, released drawings/tolerances, calculations, qualified processes and first-article tests remain mandatory.'),$);
#24=IFCPROPERTYSINGLEVALUE('Manifest',$,IFCTEXT('design/component-catalogue/catalog/buildable-trainset/buildable-trainset-manifest.json'),$);
#25=IFCPROPERTYSINGLEVALUE('ManifestSha256',$,IFCTEXT('4c2ec91449f361762556e35852f8b914e3bcec03c1b9f940d8c756e5db7cf7a5'),$);
#26=IFCPROPERTYSET('3DLiaLp$fR6BeWSb5hBKYe',$,'OSR_ProductLibrary',$,(#22,#23,#24,#25));
#27=IFCRELDEFINESBYPROPERTIES('0SezHsIr1QwgbzswHtUM3U',$,$,$,(#1),#26);
#28=IFCELEMENTASSEMBLY('2e5CpVmOXP3AzFKu3AAF_c',$,'painted carbody frame with one-metre clip-on fiberglass exterior','corrosion report | clip and anti-lift witness map | eight-hour trainset body route | water ingress pre-test',$,$,$,'LM3-SHELL-A200',$,$);
#29=IFCPROPERTYSINGLEVALUE('OSRId',$,IFCTEXT('LM3-SHELL-A200'),$);
#30=IFCPROPERTYSINGLEVALUE('Layer',$,IFCTEXT('assembly'),$);
#31=IFCPROPERTYSINGLEVALUE('BuildCell',$,IFCTEXT('paint / clip-on body / glazing cells'),$);
#32=IFCPROPERTYSINGLEVALUE('QuantityPerTrainset',$,IFCINTEGER(3),$);
#33=IFCPROPERTYSINGLEVALUE('GeometryStatus',$,IFCTEXT('complete-hierarchy-inspection-layout'),$);
#34=IFCPROPERTYSET('08bPuWEsjP$QdAgfYOR7$S',$,'OSR_AssemblyDefinition',$,(#29,#30,#31,#32,#33));
#35=IFCRELDEFINESBYPROPERTIES('1HsZKRFVvGwQ0NVMUaZWRg',$,$,$,(#28),#34);
#36=IFCELEMENTASSEMBLY('0yxKZQAqnSCuzV$gA0hKwm',$,'carbody spaceframe and floor assembly','door/window aperture survey | roof rail survey | carbody dimensional report',$,$,$,'LM3-BDY-SA120',$,$);
#37=IFCPROPERTYSINGLEVALUE('OSRId',$,IFCTEXT('LM3-BDY-SA120'),$);
#38=IFCPROPERTYSINGLEVALUE('Layer',$,IFCTEXT('subassembly'),$);
#39=IFCPROPERTYSINGLEVALUE('BuildCell',$,IFCTEXT('weld and fixture cell'),$);
#40=IFCPROPERTYSINGLEVALUE('QuantityPerTrainset',$,IFCINTEGER(3),$);
#41=IFCPROPERTYSINGLEVALUE('GeometryStatus',$,IFCTEXT('complete-hierarchy-inspection-layout'),$);
#42=IFCPROPERTYSET('1MOw682QTPThJVNOG14BQm',$,'OSR_AssemblyDefinition',$,(#37,#38,#39,#40,#41));
#43=IFCRELDEFINESBYPROPERTIES('0Kv2vZEdzSEOfGadOn$wWo',$,$,$,(#36),#42);
#44=IFCELEMENTASSEMBLY('3vcfuYstnO$eaLuitCGZKt',$,'underframe datum weldment','material release | fixture tack survey | weld/NDT release | post-weld datum survey',$,$,$,'LM3-BDY-SA110',$,$);
#45=IFCPROPERTYSINGLEVALUE('OSRId',$,IFCTEXT('LM3-BDY-SA110'),$);
#46=IFCPROPERTYSINGLEVALUE('Layer',$,IFCTEXT('subassembly'),$);
#47=IFCPROPERTYSINGLEVALUE('BuildCell',$,IFCTEXT('weld and fixture cell'),$);
#48=IFCPROPERTYSINGLEVALUE('QuantityPerTrainset',$,IFCINTEGER(3),$);
#49=IFCPROPERTYSINGLEVALUE('GeometryStatus',$,IFCTEXT('complete-hierarchy-inspection-layout'),$);
#50=IFCPROPERTYSET('1vDRA6GnnUqP_3Q5pY7y6q',$,'OSR_AssemblyDefinition',$,(#45,#46,#47,#48,#49));
#51=IFCRELDEFINESBYPROPERTIES('1lRhKEsXnSFhjWoCq58Ygy',$,$,$,(#44),#50);
#52=IFCELEMENTASSEMBLY('2E9pQDrEDN4vCBYKgyWPTg',$,'side glazing cassette installation','aperture gauge | bond/gasket procedure | water ingress test',$,$,$,'LM3-WIN-SA320',$,$);
#53=IFCPROPERTYSINGLEVALUE('OSRId',$,IFCTEXT('LM3-WIN-SA320'),$);
#54=IFCPROPERTYSINGLEVALUE('Layer',$,IFCTEXT('subassembly'),$);
#55=IFCPROPERTYSINGLEVALUE('BuildCell',$,IFCTEXT('composite / glazing cell'),$);
#56=IFCPROPERTYSINGLEVALUE('QuantityPerTrainset',$,IFCINTEGER(18),$);
#57=IFCPROPERTYSINGLEVALUE('GeometryStatus',$,IFCTEXT('complete-hierarchy-inspection-layout'),$);
#58=IFCPROPERTYSET('3newDsHabO5ws_tvBN30r9',$,'OSR_AssemblyDefinition',$,(#53,#54,#55,#56,#57));
#59=IFCRELDEFINESBYPROPERTIES('0ERsnfFxDLxRmHXNLlhFAH',$,$,$,(#52),#58);
#60=IFCMEMBER('1EhqRIQ29N$e1wkEXeMCB7',$,'laser-cut side sill beam, LH/RH','S355 RHS/folded section cut, formed, drilled, and fixture-welded locally.',$,#750,#80,'LM3-BDY-P010',$);
#61=IFCPROPERTYSINGLEVALUE('OSRId',$,IFCTEXT('LM3-BDY-P010'),$);
#62=IFCPROPERTYSINGLEVALUE('Parent',$,IFCTEXT('LM3-BDY-SA110'),$);
#63=IFCPROPERTYSINGLEVALUE('Route',$,IFCTEXT('MAKE'),$);
#64=IFCPROPERTYSINGLEVALUE('Maturity',$,IFCTEXT('release-candidate'),$);
#65=IFCPROPERTYSINGLEVALUE('QuantityPerTrainset',$,IFCINTEGER(6),$);
#66=IFCPROPERTYSINGLEVALUE('Unit',$,IFCTEXT('ea'),$);
#67=IFCPROPERTYSINGLEVALUE('GeometryStatus',$,IFCTEXT('design-reference-not-released'),$);
#68=IFCPROPERTYSINGLEVALUE('GeometryLevel',$,IFCTEXT('interface-detailed'),$);
#69=IFCPROPERTYSET('2W41j0YxXH5u5ZskI6lqkP',$,'OSR_ProductDefinition',$,(#61,#62,#63,#64,#65,#66,#67,#68));
#70=IFCRELDEFINESBYPROPERTIES('2SQehgkpXKkOsj5XIsxeI2',$,$,$,(#60),#69);
#71=IFCCARTESIANPOINTLIST3D(((-8.,-0.089999999999999997,-0.13),(-8.,-0.089999999999999997,0.13),(-8.,0.089999999999999997,-0.13),(-8.,0.089999999999999997,0.13),(8.,-0.089999999999999997,-0.13),(8.,-0.089999999999999997,0.13),(8.,0.089999999999999997,-0.13),(8.,0.089999999999999997,0.13)),$);
#72=IFCINDEXEDPOLYGONALFACE((1,2,4,3));
#73=IFCINDEXEDPOLYGONALFACE((5,7,8,6));
#74=IFCINDEXEDPOLYGONALFACE((1,5,6,2));
#75=IFCINDEXEDPOLYGONALFACE((3,4,8,7));
#76=IFCINDEXEDPOLYGONALFACE((1,3,7,5));
#77=IFCINDEXEDPOLYGONALFACE((2,6,8,4));
#78=IFCPOLYGONALFACESET(#71,$,(#72,#73,#74,#75,#76,#77),$);
#79=IFCSHAPEREPRESENTATION(#13,'Body','Tessellation',(#78));
#80=IFCPRODUCTDEFINITIONSHAPE($,$,(#79));
#81=IFCMEMBER('18ryjRZ9jIK9_wGUQLmUCA',$,'underframe centre spine and cross-bearer kit','Cut plate/RHS kit for one car; QR-marked before welding.',$,#753,#143,'LM3-BDY-P020',$);
#82=IFCPROPERTYSINGLEVALUE('OSRId',$,IFCTEXT('LM3-BDY-P020'),$);
#83=IFCPROPERTYSINGLEVALUE('Parent',$,IFCTEXT('LM3-BDY-SA110'),$);
#84=IFCPROPERTYSINGLEVALUE('Route',$,IFCTEXT('MAKE'),$);
#85=IFCPROPERTYSINGLEVALUE('Maturity',$,IFCTEXT('release-candidate'),$);
#86=IFCPROPERTYSINGLEVALUE('QuantityPerTrainset',$,IFCINTEGER(3),$);
#87=IFCPROPERTYSINGLEVALUE('Unit',$,IFCTEXT('kit'),$);
#88=IFCPROPERTYSINGLEVALUE('GeometryStatus',$,IFCTEXT('design-reference-not-released'),$);
#89=IFCPROPERTYSINGLEVALUE('GeometryLevel',$,IFCTEXT('interface-detailed'),$);
#90=IFCPROPERTYSET('2lJS1iObvLNwYZ66wIHP9E',$,'OSR_ProductDefinition',$,(#82,#83,#84,#85,#86,#87,#88,#89));
#91=IFCRELDEFINESBYPROPERTIES('20v9nAUZrLhulhwJTLH8w4',$,$,$,(#81),#90);
#92=IFCCARTESIANPOINTLIST3D(((-7.9000000000000004,-0.11,-0.19),(-7.9000000000000004,-0.11,0.19),(-7.9000000000000004,0.11,-0.19),(-7.9000000000000004,0.11,0.19),(7.9000000000000004,-0.11,-0.19),(7.9000000000000004,-0.11,0.19),(7.9000000000000004,0.11,-0.19),(7.9000000000000004,0.11,0.19),(-7.3579999999999997,-1.325,-0.13679999999999998),(-7.3579999999999997,-1.325,0.13679999999999998),(-7.3579999999999997,1.325,-0.13679999999999998),(-7.3579999999999997,1.325,0.13679999999999998),(-7.1779999999999999,-1.325,-0.13679999999999998),(-7.1779999999999999,-1.325,0.13679999999999998),(-7.1779999999999999,1.325,-0.13679999999999998),(-7.1779999999999999,1.325,0.13679999999999998),(-4.9880000000000004,-1.325,-0.13679999999999998),(-4.9880000000000004,-1.325,0.13679999999999998),(-4.9880000000000004,1.325,-0.13679999999999998),(-4.9880000000000004,1.325,0.13679999999999998),(-4.8079999999999998,-1.325,-0.13679999999999998),(-4.8079999999999998,-1.325,0.13679999999999998),(-4.8079999999999998,1.325,-0.13679999999999998),(-4.8079999999999998,1.325,0.13679999999999998),(-2.6179999999999999,-1.325,-0.13679999999999998),(-2.6179999999999999,-1.325,0.13679999999999998),(-2.6179999999999999,1.325,-0.13679999999999998),(-2.6179999999999999,1.325,0.13679999999999998),(-2.4380000000000002,-1.325,-0.13679999999999998),(-2.4380000000000002,-1.325,0.13679999999999998),(-2.4380000000000002,1.325,-0.13679999999999998),(-2.4380000000000002,1.325,0.13679999999999998),(-0.089999999999999997,-1.325,-0.13679999999999998),(-0.089999999999999997,-1.325,0.13679999999999998),(-0.089999999999999997,1.325,-0.13679999999999998),(-0.089999999999999997,1.325,0.13679999999999998),(0.089999999999999997,-1.325,-0.13679999999999998),(0.089999999999999997,-1.325,0.13679999999999998),(0.089999999999999997,1.325,-0.13679999999999998),(0.089999999999999997,1.325,0.13679999999999998),(2.4380000000000002,-1.325,-0.13679999999999998),(2.4380000000000002,-1.325,0.13679999999999998),(2.4380000000000002,1.325,-0.13679999999999998),(2.4380000000000002,1.325,0.13679999999999998),(2.6179999999999999,-1.325,-0.13679999999999998),(2.6179999999999999,-1.325,0.13679999999999998),(2.6179999999999999,1.325,-0.13679999999999998),(2.6179999999999999,1.325,0.13679999999999998),(4.8079999999999998,-1.325,-0.13679999999999998),(4.8079999999999998,-1.325,0.13679999999999998),(4.8079999999999998,1.325,-0.13679999999999998),(4.8079999999999998,1.325,0.13679999999999998),(4.9880000000000004,-1.325,-0.13679999999999998),(4.9880000000000004,-1.325,0.13679999999999998),(4.9880000000000004,1.325,-0.13679999999999998),(4.9880000000000004,1.325,0.13679999999999998),(7.1779999999999999,-1.325,-0.13679999999999998),(7.1779999999999999,-1.325,0.13679999999999998),(7.1779999999999999,1.325,-0.13679999999999998),(7.1779999999999999,1.325,0.13679999999999998),(7.3579999999999997,-1.325,-0.13679999999999998),(7.3579999999999997,-1.325,0.13679999999999998),(7.3579999999999997,1.325,-0.13679999999999998),(7.3579999999999997,1.325,0.13679999999999998)),$);
#93=IFCINDEXEDPOLYGONALFACE((1,2,4,3));
#94=IFCINDEXEDPOLYGONALFACE((5,7,8,6));
#95=IFCINDEXEDPOLYGONALFACE((1,5,6,2));
#96=IFCINDEXEDPOLYGONALFACE((3,4,8,7));
#97=IFCINDEXEDPOLYGONALFACE((1,3,7,5));
#98=IFCINDEXEDPOLYGONALFACE((2,6,8,4));
#99=IFCINDEXEDPOLYGONALFACE((9,10,12,11));
#100=IFCINDEXEDPOLYGONALFACE((13,15,16,14));
#101=IFCINDEXEDPOLYGONALFACE((9,13,14,10));
#102=IFCINDEXEDPOLYGONALFACE((11,12,16,15));
#103=IFCINDEXEDPOLYGONALFACE((9,11,15,13));
#104=IFCINDEXEDPOLYGONALFACE((10,14,16,12));
#105=IFCINDEXEDPOLYGONALFACE((17,18,20,19));
#106=IFCINDEXEDPOLYGONALFACE((21,23,24,22));
#107=IFCINDEXEDPOLYGONALFACE((17,21,22,18));
#108=IFCINDEXEDPOLYGONALFACE((19,20,24,23));
#109=IFCINDEXEDPOLYGONALFACE((17,19,23,21));
#110=IFCINDEXEDPOLYGONALFACE((18,22,24,20));
#111=IFCINDEXEDPOLYGONALFACE((25,26,28,27));
#112=IFCINDEXEDPOLYGONALFACE((29,31,32,30));
#113=IFCINDEXEDPOLYGONALFACE((25,29,30,26));
#114=IFCINDEXEDPOLYGONALFACE((27,28,32,31));
#115=IFCINDEXEDPOLYGONALFACE((25,27,31,29));
#116=IFCINDEXEDPOLYGONALFACE((26,30,32,28));
#117=IFCINDEXEDPOLYGONALFACE((33,34,36,35));
#118=IFCINDEXEDPOLYGONALFACE((37,39,40,38));
#119=IFCINDEXEDPOLYGONALFACE((33,37,38,34));
#120=IFCINDEXEDPOLYGONALFACE((35,36,40,39));
#121=IFCINDEXEDPOLYGONALFACE((33,35,39,37));
#122=IFCINDEXEDPOLYGONALFACE((34,38,40,36));
#123=IFCINDEXEDPOLYGONALFACE((41,42,44,43));
#124=IFCINDEXEDPOLYGONALFACE((45,47,48,46));
#125=IFCINDEXEDPOLYGONALFACE((41,45,46,42));
#126=IFCINDEXEDPOLYGONALFACE((43,44,48,47));
#127=IFCINDEXEDPOLYGONALFACE((41,43,47,45));
#128=IFCINDEXEDPOLYGONALFACE((42,46,48,44));
#129=IFCINDEXEDPOLYGONALFACE((49,50,52,51));
#130=IFCINDEXEDPOLYGONALFACE((53,55,56,54));
#131=IFCINDEXEDPOLYGONALFACE((49,53,54,50));
#132=IFCINDEXEDPOLYGONALFACE((51,52,56,55));
#133=IFCINDEXEDPOLYGONALFACE((49,51,55,53));
#134=IFCINDEXEDPOLYGONALFACE((50,54,56,52));
#135=IFCINDEXEDPOLYGONALFACE((57,58,60,59));
#136=IFCINDEXEDPOLYGONALFACE((61,63,64,62));
#137=IFCINDEXEDPOLYGONALFACE((57,61,62,58));
#138=IFCINDEXEDPOLYGONALFACE((59,60,64,63));
#139=IFCINDEXEDPOLYGONALFACE((57,59,63,61));
#140=IFCINDEXEDPOLYGONALFACE((58,62,64,60));
#141=IFCPOLYGONALFACESET(#92,$,(#93,#94,#95,#96,#97,#98,#99,#100,#101,#102,#103,#104,#105,#106,#107,#108,#109,#110,#111,#112,#113,#114,#115,#116,#117,#118,#119,#120,#121,#122,#123,#124,#125,#126,#127,#128,#129,#130,#131,#132,#133,#134,#135,#136,#137,#138,#139,#140),$);
#142=IFCSHAPEREPRESENTATION(#13,'Body','Tessellation',(#141));
#143=IFCPRODUCTDEFINITIONSHAPE($,$,(#142));
#144=IFCMEMBER('3s$6lf7hHPOvsvhtS3XBBz',$,'bolster box, air-spring pad, and centre-pivot insert set','Folded and welded bolster boxes, machined after weld where required.',$,#756,#202,'LM3-BDY-P030',$);
#145=IFCPROPERTYSINGLEVALUE('OSRId',$,IFCTEXT('LM3-BDY-P030'),$);
#146=IFCPROPERTYSINGLEVALUE('Parent',$,IFCTEXT('LM3-BDY-SA110'),$);
#147=IFCPROPERTYSINGLEVALUE('Route',$,IFCTEXT('MAKE'),$);
#148=IFCPROPERTYSINGLEVALUE('Maturity',$,IFCTEXT('release-candidate'),$);
#149=IFCPROPERTYSINGLEVALUE('QuantityPerTrainset',$,IFCINTEGER(6),$);
#150=IFCPROPERTYSINGLEVALUE('Unit',$,IFCTEXT('set'),$);
#151=IFCPROPERTYSINGLEVALUE('GeometryStatus',$,IFCTEXT('design-reference-not-released'),$);
#152=IFCPROPERTYSINGLEVALUE('GeometryLevel',$,IFCTEXT('interface-detailed'),$);
#153=IFCPROPERTYSET('0c7iNJr7DL1PPC9jh9TETT',$,'OSR_ProductDefinition',$,(#145,#146,#147,#148,#149,#150,#151,#152));
#154=IFCRELDEFINESBYPROPERTIES('3VlplZwezHahDRpIWri2HJ',$,$,$,(#144),#153);
#155=IFCCARTESIANPOINTLIST3D(((0.84999999999999998,0.,-0.13019999999999998),(0.80839803885088046,0.2626644452187053,-0.13019999999999998),(0.68766444521870529,0.49961746444860217,-0.13019999999999998),(0.49961746444860217,0.68766444521870529,-0.13019999999999998),(0.2626644452187053,0.80839803885088046,-0.13019999999999998),(5.2047488963762507E-17,0.84999999999999998,-0.13019999999999998),(-0.26266444521870524,0.80839803885088057,-0.13019999999999998),(-0.49961746444860206,0.68766444521870529,-0.13019999999999998),(-0.68766444521870518,0.49961746444860222,-0.13019999999999998),(-0.80839803885088046,0.26266444521870536,-0.13019999999999998),(-0.84999999999999998,1.0409497792752501E-16,-0.13019999999999998),(-0.80839803885088068,-0.26266444521870486,-0.13019999999999998),(-0.6876644452187054,-0.49961746444860206,-0.13019999999999998),(-0.49961746444860222,-0.68766444521870518,-0.13019999999999998),(-0.26266444521870541,-0.80839803885088046,-0.13019999999999998),(-1.5614246689128752E-16,-0.84999999999999998,-0.13019999999999998),(0.26266444521870513,-0.80839803885088057,-0.13019999999999998),(0.49961746444860194,-0.6876644452187054,-0.13019999999999998),(0.68766444521870518,-0.49961746444860233,-0.13019999999999998),(0.80839803885088046,-0.26266444521870547,-0.13019999999999998),(0.84999999999999998,0.,0.13019999999999998),(0.80839803885088046,0.2626644452187053,0.13019999999999998),(0.68766444521870529,0.49961746444860217,0.13019999999999998),(0.49961746444860217,0.68766444521870529,0.13019999999999998),(0.2626644452187053,0.80839803885088046,0.13019999999999998),(5.2047488963762507E-17,0.84999999999999998,0.13019999999999998),(-0.26266444521870524,0.80839803885088057,0.13019999999999998),(-0.49961746444860206,0.68766444521870529,0.13019999999999998),(-0.68766444521870518,0.49961746444860222,0.13019999999999998),(-0.80839803885088046,0.26266444521870536,0.13019999999999998),(-0.84999999999999998,1.0409497792752501E-16,0.13019999999999998),(-0.80839803885088068,-0.26266444521870486,0.13019999999999998),(-0.6876644452187054,-0.49961746444860206,0.13019999999999998),(-0.49961746444860222,-0.68766444521870518,0.13019999999999998),(-0.26266444521870541,-0.80839803885088046,0.13019999999999998),(-1.5614246689128752E-16,-0.84999999999999998,0.13019999999999998),(0.26266444521870513,-0.80839803885088057,0.13019999999999998),(0.49961746444860194,-0.6876644452187054,0.13019999999999998),(0.68766444521870518,-0.49961746444860233,0.13019999999999998),(0.80839803885088046,-0.26266444521870547,0.13019999999999998),(0.20399999999999999,0.,-0.20999999999999999),(0.19401552932421132,0.063039466852489262,-0.20999999999999999),(0.16503946685248927,0.11990819146766452,-0.20999999999999999),(0.11990819146766452,0.16503946685248927,-0.20999999999999999),(0.063039466852489276,0.19401552932421132,-0.20999999999999999),(1.2491397351303001E-17,0.20399999999999999,-0.20999999999999999),(-0.063039466852489248,0.19401552932421134,-0.20999999999999999),(-0.11990819146766449,0.16503946685248927,-0.20999999999999999),(-0.16503946685248924,0.11990819146766453,-0.20999999999999999),(-0.19401552932421132,0.06303946685248929,-0.20999999999999999),(-0.20399999999999999,2.4982794702606002E-17,-0.20999999999999999),(-0.19401552932421134,-0.063039466852489165,-0.20999999999999999),(-0.1650394668524893,-0.11990819146766449,-0.20999999999999999),(-0.11990819146766453,-0.16503946685248924,-0.20999999999999999),(-0.063039466852489304,-0.19401552932421132,-0.20999999999999999),(-3.7474192053909005E-17,-0.20399999999999999,-0.20999999999999999),(0.063039466852489234,-0.19401552932421134,-0.20999999999999999),(0.11990819146766447,-0.1650394668524893,-0.20999999999999999),(0.16503946685248924,-0.11990819146766456,-0.20999999999999999),(0.19401552932421132,-0.063039466852489304,-0.20999999999999999),(0.20399999999999999,0.,0.20999999999999999),(0.19401552932421132,0.063039466852489262,0.20999999999999999),(0.16503946685248927,0.11990819146766452,0.20999999999999999),(0.11990819146766452,0.16503946685248927,0.20999999999999999),(0.063039466852489276,0.19401552932421132,0.20999999999999999),(1.2491397351303001E-17,0.20399999999999999,0.20999999999999999),(-0.063039466852489248,0.19401552932421134,0.20999999999999999),(-0.11990819146766449,0.16503946685248927,0.20999999999999999),(-0.16503946685248924,0.11990819146766453,0.20999999999999999),(-0.19401552932421132,0.06303946685248929,0.20999999999999999),(-0.20399999999999999,2.4982794702606002E-17,0.20999999999999999),(-0.19401552932421134,-0.063039466852489165,0.20999999999999999),(-0.1650394668524893,-0.11990819146766449,0.20999999999999999),(-0.11990819146766453,-0.16503946685248924,0.20999999999999999),(-0.063039466852489304,-0.19401552932421132,0.20999999999999999),(-3.7474192053909005E-17,-0.20399999999999999,0.20999999999999999),(0.063039466852489234,-0.19401552932421134,0.20999999999999999),(0.11990819146766447,-0.1650394668524893,0.20999999999999999),(0.16503946685248924,-0.11990819146766456,0.20999999999999999),(0.19401552932421132,-0.063039466852489304,0.20999999999999999)),$);
#156=IFCINDEXEDPOLYGONALFACE((20,19,18,17,16,15,14,13,12,11,10,9,8,7,6,5,4,3,2,1));
#157=IFCINDEXEDPOLYGONALFACE((21,22,23,24,25,26,27,28,29,30,31,32,33,34,35,36,37,38,39,40));
#158=IFCINDEXEDPOLYGONALFACE((1,2,22,21));
#159=IFCINDEXEDPOLYGONALFACE((2,3,23,22));
#160=IFCINDEXEDPOLYGONALFACE((3,4,24,23));
#161=IFCINDEXEDPOLYGONALFACE((4,5,25,24));
#162=IFCINDEXEDPOLYGONALFACE((5,6,26,25));
#163=IFCINDEXEDPOLYGONALFACE((6,7,27,26));
#164=IFCINDEXEDPOLYGONALFACE((7,8,28,27));
#165=IFCINDEXEDPOLYGONALFACE((8,9,29,28));
#166=IFCINDEXEDPOLYGONALFACE((9,10,30,29));
#167=IFCINDEXEDPOLYGONALFACE((10,11,31,30));
#168=IFCINDEXEDPOLYGONALFACE((11,12,32,31));
#169=IFCINDEXEDPOLYGONALFACE((12,13,33,32));
#170=IFCINDEXEDPOLYGONALFACE((13,14,34,33));
#171=IFCINDEXEDPOLYGONALFACE((14,15,35,34));
#172=IFCINDEXEDPOLYGONALFACE((15,16,36,35));
#173=IFCINDEXEDPOLYGONALFACE((16,17,37,36));
#174=IFCINDEXEDPOLYGONALFACE((17,18,38,37));
#175=IFCINDEXEDPOLYGONALFACE((18,19,39,38));
#176=IFCINDEXEDPOLYGONALFACE((19,20,40,39));
#177=IFCINDEXEDPOLYGONALFACE((20,1,21,40));
#178=IFCINDEXEDPOLYGONALFACE((60,59,58,57,56,55,54,53,52,51,50,49,48,47,46,45,44,43,42,41));
#179=IFCINDEXEDPOLYGONALFACE((61,62,63,64,65,66,67,68,69,70,71,72,73,74,75,76,77,78,79,80));
#180=IFCINDEXEDPOLYGONALFACE((41,42,62,61));
#181=IFCINDEXEDPOLYGONALFACE((42,43,63,62));
#182=IFCINDEXEDPOLYGONALFACE((43,44,64,63));
#183=IFCINDEXEDPOLYGONALFACE((44,45,65,64));
#184=IFCINDEXEDPOLYGONALFACE((45,46,66,65));
#185=IFCINDEXEDPOLYGONALFACE((46,47,67,66));
#186=IFCINDEXEDPOLYGONALFACE((47,48,68,67));
#187=IFCINDEXEDPOLYGONALFACE((48,49,69,68));
#188=IFCINDEXEDPOLYGONALFACE((49,50,70,69));
#189=IFCINDEXEDPOLYGONALFACE((50,51,71,70));
#190=IFCINDEXEDPOLYGONALFACE((51,52,72,71));
#191=IFCINDEXEDPOLYGONALFACE((52,53,73,72));
#192=IFCINDEXEDPOLYGONALFACE((53,54,74,73));
#193=IFCINDEXEDPOLYGONALFACE((54,55,75,74));
#194=IFCINDEXEDPOLYGONALFACE((55,56,76,75));
#195=IFCINDEXEDPOLYGONALFACE((56,57,77,76));
#196=IFCINDEXEDPOLYGONALFACE((57,58,78,77));
#197=IFCINDEXEDPOLYGONALFACE((58,59,79,78));
#198=IFCINDEXEDPOLYGONALFACE((59,60,80,79));
#199=IFCINDEXEDPOLYGONALFACE((60,41,61,80));
#200=IFCPOLYGONALFACESET(#155,$,(#156,#157,#158,#159,#160,#161,#162,#163,#164,#165,#166,#167,#168,#169,#170,#171,#172,#173,#174,#175,#176,#177,#178,#179,#180,#181,#182,#183,#184,#185,#186,#187,#188,#189,#190,#191,#192,#193,#194,#195,#196,#197,#198,#199),$);
#201=IFCSHAPEREPRESENTATION(#13,'Body','Tessellation',(#200));
#202=IFCPRODUCTDEFINITIONSHAPE($,$,(#201));
#203=IFCDISCRETEACCESSORY('1Xac2PMszT2gd9BpYKRhLW',$,'jacking pad, lifting eye, towing lug, and recovery-label kit','Locally fabricated and proof-marked recovery fittings tied into released underframe load paths.',$,#759,#301,'LM3-BDY-P120',$);
#204=IFCPROPERTYSINGLEVALUE('OSRId',$,IFCTEXT('LM3-BDY-P120'),$);
#205=IFCPROPERTYSINGLEVALUE('Parent',$,IFCTEXT('LM3-BDY-SA110'),$);
#206=IFCPROPERTYSINGLEVALUE('Route',$,IFCTEXT('MAKE'),$);
#207=IFCPROPERTYSINGLEVALUE('Maturity',$,IFCTEXT('release-candidate'),$);
#208=IFCPROPERTYSINGLEVALUE('QuantityPerTrainset',$,IFCINTEGER(3),$);
#209=IFCPROPERTYSINGLEVALUE('Unit',$,IFCTEXT('car kit'),$);
#210=IFCPROPERTYSINGLEVALUE('GeometryStatus',$,IFCTEXT('design-reference-not-released'),$);
#211=IFCPROPERTYSINGLEVALUE('GeometryLevel',$,IFCTEXT('design-reference-detail'),$);
#212=IFCPROPERTYSET('0ehH3wq0vUvAx2q$MKSxJa',$,'OSR_ProductDefinition',$,(#204,#205,#206,#207,#208,#209,#210,#211));
#213=IFCRELDEFINESBYPROPERTIES('3Iv2KwKS1UfhstyET9QAy4',$,$,$,(#203),#212);
#214=IFCCARTESIANPOINTLIST3D(((-0.64500000000000002,-0.35599999999999998,-0.096599999999999991),(-0.64500000000000002,-0.35599999999999998,-0.026600000000000002),(-0.64500000000000002,-0.075999999999999998,-0.096599999999999991),(-0.64500000000000002,-0.075999999999999998,-0.026600000000000002),(-0.315,-0.35599999999999998,-0.096599999999999991),(-0.315,-0.35599999999999998,-0.026600000000000002),(-0.315,-0.075999999999999998,-0.096599999999999991),(-0.315,-0.075999999999999998,-0.026600000000000002),(-0.52200000000000002,-0.25800000000000001,-0.022599999999999999),(-0.52200000000000002,-0.25800000000000001,0.067400000000000002),(-0.52200000000000002,-0.17399999999999999,-0.022599999999999999),(-0.52200000000000002,-0.17399999999999999,0.067400000000000002),(-0.438,-0.25800000000000001,-0.022599999999999999),(-0.438,-0.25800000000000001,0.067400000000000002),(-0.438,-0.17399999999999999,-0.022599999999999999),(-0.438,-0.17399999999999999,0.067400000000000002),(-0.64500000000000002,0.075999999999999998,-0.096599999999999991),(-0.64500000000000002,0.075999999999999998,-0.026600000000000002),(-0.64500000000000002,0.35599999999999998,-0.096599999999999991),(-0.64500000000000002,0.35599999999999998,-0.026600000000000002),(-0.315,0.075999999999999998,-0.096599999999999991),(-0.315,0.075999999999999998,-0.026600000000000002),(-0.315,0.35599999999999998,-0.096599999999999991),(-0.315,0.35599999999999998,-0.026600000000000002),(-0.52200000000000002,0.17399999999999999,-0.022599999999999999),(-0.52200000000000002,0.17399999999999999,0.067400000000000002),(-0.52200000000000002,0.25800000000000001,-0.022599999999999999),(-0.52200000000000002,0.25800000000000001,0.067400000000000002),(-0.438,0.17399999999999999,-0.022599999999999999),(-0.438,0.17399999999999999,0.067400000000000002),(-0.438,0.25800000000000001,-0.022599999999999999),(-0.438,0.25800000000000001,0.067400000000000002),(0.315,-0.35599999999999998,-0.096599999999999991),(0.315,-0.35599999999999998,-0.026600000000000002),(0.315,-0.075999999999999998,-0.096599999999999991),(0.315,-0.075999999999999998,-0.026600000000000002),(0.64500000000000002,-0.35599999999999998,-0.096599999999999991),(0.64500000000000002,-0.35599999999999998,-0.026600000000000002),(0.64500000000000002,-0.075999999999999998,-0.096599999999999991),(0.64500000000000002,-0.075999999999999998,-0.026600000000000002),(0.438,-0.25800000000000001,-0.022599999999999999),(0.438,-0.25800000000000001,0.067400000000000002),(0.438,-0.17399999999999999,-0.022599999999999999),(0.438,-0.17399999999999999,0.067400000000000002),(0.52200000000000002,-0.25800000000000001,-0.022599999999999999),(0.52200000000000002,-0.25800000000000001,0.067400000000000002),(0.52200000000000002,-0.17399999999999999,-0.022599999999999999),(0.52200000000000002,-0.17399999999999999,0.067400000000000002),(0.315,0.075999999999999998,-0.096599999999999991),(0.315,0.075999999999999998,-0.026600000000000002),(0.315,0.35599999999999998,-0.096599999999999991),(0.315,0.35599999999999998,-0.026600000000000002),(0.64500000000000002,0.075999999999999998,-0.096599999999999991),(0.64500000000000002,0.075999999999999998,-0.026600000000000002),(0.64500000000000002,0.35599999999999998,-0.096599999999999991),(0.64500000000000002,0.35599999999999998,-0.026600000000000002),(0.438,0.17399999999999999,-0.022599999999999999),(0.438,0.17399999999999999,0.067400000000000002),(0.438,0.25800000000000001,-0.022599999999999999),(0.438,0.25800000000000001,0.067400000000000002),(0.52200000000000002,0.17399999999999999,-0.022599999999999999),(0.52200000000000002,0.17399999999999999,0.067400000000000002),(0.52200000000000002,0.25800000000000001,-0.022599999999999999),(0.52200000000000002,0.25800000000000001,0.067400000000000002),(-0.070000000000000007,-0.376,0.044700000000000004),(-0.070000000000000007,-0.376,0.089700000000000002),(-0.070000000000000007,-0.23599999999999999,0.044700000000000004),(-0.070000000000000007,-0.23599999999999999,0.089700000000000002),(0.070000000000000007,-0.376,0.044700000000000004),(0.070000000000000007,-0.376,0.089700000000000002),(0.070000000000000007,-0.23599999999999999,0.044700000000000004),(0.070000000000000007,-0.23599999999999999,0.089700000000000002),(-0.070000000000000007,0.23599999999999999,0.044700000000000004),(-0.070000000000000007,0.23599999999999999,0.089700000000000002),(-0.070000000000000007,0.376,0.044700000000000004),(-0.070000000000000007,0.376,0.089700000000000002),(0.070000000000000007,0.23599999999999999,0.044700000000000004),(0.070000000000000007,0.23599999999999999,0.089700000000000002),(0.070000000000000007,0.376,0.044700000000000004),(0.070000000000000007,0.376,0.089700000000000002),(-0.749,-0.059999999999999998,0.010999999999999999),(-0.749,-0.059999999999999998,0.10100000000000001),(-0.749,0.059999999999999998,0.010999999999999999),(-0.749,0.059999999999999998,0.10100000000000001),(-0.499,-0.059999999999999998,0.010999999999999999),(-0.499,-0.059999999999999998,0.10100000000000001),(-0.499,0.059999999999999998,0.010999999999999999),(-0.499,0.059999999999999998,0.10100000000000001),(0.499,-0.059999999999999998,0.010999999999999999),(0.499,-0.059999999999999998,0.10100000000000001),(0.499,0.059999999999999998,0.010999999999999999),(0.499,0.059999999999999998,0.10100000000000001),(0.749,-0.059999999999999998,0.010999999999999999),(0.749,-0.059999999999999998,0.10100000000000001),(0.749,0.059999999999999998,0.010999999999999999),(0.749,0.059999999999999998,0.10100000000000001),(-0.17499999999999999,-0.42699999999999999,-0.050000000000000003),(-0.17499999999999999,-0.42699999999999999,0.050000000000000003),(-0.17499999999999999,-0.41899999999999998,-0.050000000000000003),(-0.17499999999999999,-0.41899999999999998,0.050000000000000003),(0.17499999999999999,-0.42699999999999999,-0.050000000000000003),(0.17499999999999999,-0.42699999999999999,0.050000000000000003),(0.17499999999999999,-0.41899999999999998,-0.050000000000000003),(0.17499999999999999,-0.41899999999999998,0.050000000000000003),(-0.17499999999999999,0.41899999999999998,-0.050000000000000003),(-0.17499999999999999,0.41899999999999998,0.050000000000000003),(-0.17499999999999999,0.42699999999999999,-0.050000000000000003),(-0.17499999999999999,0.42699999999999999,0.050000000000000003),(0.17499999999999999,0.41899999999999998,-0.050000000000000003),(0.17499999999999999,0.41899999999999998,0.050000000000000003),(0.17499999999999999,0.42699999999999999,-0.050000000000000003),(0.17499999999999999,0.42699999999999999,0.050000000000000003)),$);
#215=IFCINDEXEDPOLYGONALFACE((1,2,4,3));
#216=IFCINDEXEDPOLYGONALFACE((5,7,8,6));
#217=IFCINDEXEDPOLYGONALFACE((1,5,6,2));
#218=IFCINDEXEDPOLYGONALFACE((3,4,8,7));
#219=IFCINDEXEDPOLYGONALFACE((1,3,7,5));
#220=IFCINDEXEDPOLYGONALFACE((2,6,8,4));
#221=IFCINDEXEDPOLYGONALFACE((9,10,12,11));
#222=IFCINDEXEDPOLYGONALFACE((13,15,16,14));
#223=IFCINDEXEDPOLYGONALFACE((9,13,14,10));
#224=IFCINDEXEDPOLYGONALFACE((11,12,16,15));
#225=IFCINDEXEDPOLYGONALFACE((9,11,15,13));
#226=IFCINDEXEDPOLYGONALFACE((10,14,16,12));
#227=IFCINDEXEDPOLYGONALFACE((17,18,20,19));
#228=IFCINDEXEDPOLYGONALFACE((21,23,24,22));
#229=IFCINDEXEDPOLYGONALFACE((17,21,22,18));
#230=IFCINDEXEDPOLYGONALFACE((19,20,24,23));
#231=IFCINDEXEDPOLYGONALFACE((17,19,23,21));
#232=IFCINDEXEDPOLYGONALFACE((18,22,24,20));
#233=IFCINDEXEDPOLYGONALFACE((25,26,28,27));
#234=IFCINDEXEDPOLYGONALFACE((29,31,32,30));
#235=IFCINDEXEDPOLYGONALFACE((25,29,30,26));
#236=IFCINDEXEDPOLYGONALFACE((27,28,32,31));
#237=IFCINDEXEDPOLYGONALFACE((25,27,31,29));
#238=IFCINDEXEDPOLYGONALFACE((26,30,32,28));
#239=IFCINDEXEDPOLYGONALFACE((33,34,36,35));
#240=IFCINDEXEDPOLYGONALFACE((37,39,40,38));
#241=IFCINDEXEDPOLYGONALFACE((33,37,38,34));
#242=IFCINDEXEDPOLYGONALFACE((35,36,40,39));
#243=IFCINDEXEDPOLYGONALFACE((33,35,39,37));
#244=IFCINDEXEDPOLYGONALFACE((34,38,40,36));
#245=IFCINDEXEDPOLYGONALFACE((41,42,44,43));
#246=IFCINDEXEDPOLYGONALFACE((45,47,48,46));
#247=IFCINDEXEDPOLYGONALFACE((41,45,46,42));
#248=IFCINDEXEDPOLYGONALFACE((43,44,48,47));
#249=IFCINDEXEDPOLYGONALFACE((41,43,47,45));
#250=IFCINDEXEDPOLYGONALFACE((42,46,48,44));
#251=IFCINDEXEDPOLYGONALFACE((49,50,52,51));
#252=IFCINDEXEDPOLYGONALFACE((53,55,56,54));
#253=IFCINDEXEDPOLYGONALFACE((49,53,54,50));
#254=IFCINDEXEDPOLYGONALFACE((51,52,56,55));
#255=IFCINDEXEDPOLYGONALFACE((49,51,55,53));
#256=IFCINDEXEDPOLYGONALFACE((50,54,56,52));
#257=IFCINDEXEDPOLYGONALFACE((57,58,60,59));
#258=IFCINDEXEDPOLYGONALFACE((61,63,64,62));
#259=IFCINDEXEDPOLYGONALFACE((57,61,62,58));
#260=IFCINDEXEDPOLYGONALFACE((59,60,64,63));
#261=IFCINDEXEDPOLYGONALFACE((57,59,63,61));
#262=IFCINDEXEDPOLYGONALFACE((58,62,64,60));
#263=IFCINDEXEDPOLYGONALFACE((65,66,68,67));
#264=IFCINDEXEDPOLYGONALFACE((69,71,72,70));
#265=IFCINDEXEDPOLYGONALFACE((65,69,70,66));
#266=IFCINDEXEDPOLYGONALFACE((67,68,72,71));
#267=IFCINDEXEDPOLYGONALFACE((65,67,71,69));
#268=IFCINDEXEDPOLYGONALFACE((66,70,72,68));
#269=IFCINDEXEDPOLYGONALFACE((73,74,76,75));
#270=IFCINDEXEDPOLYGONALFACE((77,79,80,78));
#271=IFCINDEXEDPOLYGONALFACE((73,77,78,74));
#272=IFCINDEXEDPOLYGONALFACE((75,76,80,79));
#273=IFCINDEXEDPOLYGONALFACE((73,75,79,77));
#274=IFCINDEXEDPOLYGONALFACE((74,78,80,76));
#275=IFCINDEXEDPOLYGONALFACE((81,82,84,83));
#276=IFCINDEXEDPOLYGONALFACE((85,87,88,86));
#277=IFCINDEXEDPOLYGONALFACE((81,85,86,82));
#278=IFCINDEXEDPOLYGONALFACE((83,84,88,87));
#279=IFCINDEXEDPOLYGONALFACE((81,83,87,85));
#280=IFCINDEXEDPOLYGONALFACE((82,86,88,84));
#281=IFCINDEXEDPOLYGONALFACE((89,90,92,91));
#282=IFCINDEXEDPOLYGONALFACE((93,95,96,94));
#283=IFCINDEXEDPOLYGONALFACE((89,93,94,90));
#284=IFCINDEXEDPOLYGONALFACE((91,92,96,95));
#285=IFCINDEXEDPOLYGONALFACE((89,91,95,93));
#286=IFCINDEXEDPOLYGONALFACE((90,94,96,92));
#287=IFCINDEXEDPOLYGONALFACE((97,98,100,99));
#288=IFCINDEXEDPOLYGONALFACE((101,103,104,102));
#289=IFCINDEXEDPOLYGONALFACE((97,101,102,98));
#290=IFCINDEXEDPOLYGONALFACE((99,100,104,103));
#291=IFCINDEXEDPOLYGONALFACE((97,99,103,101));
#292=IFCINDEXEDPOLYGONALFACE((98,102,104,100));
#293=IFCINDEXEDPOLYGONALFACE((105,106,108,107));
#294=IFCINDEXEDPOLYGONALFACE((109,111,112,110));
#295=IFCINDEXEDPOLYGONALFACE((105,109,110,106));
#296=IFCINDEXEDPOLYGONALFACE((107,108,112,111));
#297=IFCINDEXEDPOLYGONALFACE((105,107,111,109));
#298=IFCINDEXEDPOLYGONALFACE((106,110,112,108));
#299=IFCPOLYGONALFACESET(#214,$,(#215,#216,#217,#218,#219,#220,#221,#222,#223,#224,#225,#226,#227,#228,#229,#230,#231,#232,#233,#234,#235,#236,#237,#238,#239,#240,#241,#242,#243,#244,#245,#246,#247,#248,#249,#250,#251,#252,#253,#254,#255,#256,#257,#258,#259,#260,#261,#262,#263,#264,#265,#266,#267,#268,#269,#270,#271,#272,#273,#274,#275,#276,#277,#278,#279,#280,#281,#282,#283,#284,#285,#286,#287,#288,#289,#290,#291,#292,#293,#294,#295,#296,#297,#298),$);
#300=IFCSHAPEREPRESENTATION(#13,'Body','Tessellation',(#299));
#301=IFCPRODUCTDEFINITIONSHAPE($,$,(#300));
#302=IFCSLAB('3P0vQMlLfVHwqU335JggKH',$,'low-floor centre pan and raised bogie-end deck set','Stepped floor structure preserving low centre zone and high bogie-end decks.',$,#762,#334,'LM3-BDY-P060',$);
#303=IFCPROPERTYSINGLEVALUE('OSRId',$,IFCTEXT('LM3-BDY-P060'),$);
#304=IFCPROPERTYSINGLEVALUE('Parent',$,IFCTEXT('LM3-BDY-SA120'),$);
#305=IFCPROPERTYSINGLEVALUE('Route',$,IFCTEXT('MAKE'),$);
#306=IFCPROPERTYSINGLEVALUE('Maturity',$,IFCTEXT('release-candidate'),$);
#307=IFCPROPERTYSINGLEVALUE('QuantityPerTrainset',$,IFCINTEGER(3),$);
#308=IFCPROPERTYSINGLEVALUE('Unit',$,IFCTEXT('set'),$);
#309=IFCPROPERTYSINGLEVALUE('GeometryStatus',$,IFCTEXT('design-reference-not-released'),$);
#310=IFCPROPERTYSINGLEVALUE('GeometryLevel',$,IFCTEXT('interface-detailed'),$);
#311=IFCPROPERTYSET('1xVweD9Z1UDvUWrFegixAs',$,'OSR_ProductDefinition',$,(#303,#304,#305,#306,#307,#308,#309,#310));
#312=IFCRELDEFINESBYPROPERTIES('15VIMikkXRRPVHGD_qmDgN',$,$,$,(#302),#311);
#313=IFCCARTESIANPOINTLIST3D(((-4.8360000000000003,-1.325,-0.082799999999999999),(-4.8360000000000003,-1.325,0.082799999999999999),(-4.8360000000000003,1.325,-0.082799999999999999),(-4.8360000000000003,1.325,0.082799999999999999),(4.8360000000000003,-1.325,-0.082799999999999999),(4.8360000000000003,-1.325,0.082799999999999999),(4.8360000000000003,1.325,-0.082799999999999999),(4.8360000000000003,1.325,0.082799999999999999),(-7.6440000000000001,-1.325,-0.11960000000000001),(-7.6440000000000001,-1.325,0.34039999999999998),(-7.6440000000000001,1.325,-0.11960000000000001),(-7.6440000000000001,1.325,0.34039999999999998),(-4.8360000000000003,-1.325,-0.11960000000000001),(-4.8360000000000003,-1.325,0.34039999999999998),(-4.8360000000000003,1.325,-0.11960000000000001),(-4.8360000000000003,1.325,0.34039999999999998),(4.8360000000000003,-1.325,-0.11960000000000001),(4.8360000000000003,-1.325,0.34039999999999998),(4.8360000000000003,1.325,-0.11960000000000001),(4.8360000000000003,1.325,0.34039999999999998),(7.6440000000000001,-1.325,-0.11960000000000001),(7.6440000000000001,-1.325,0.34039999999999998),(7.6440000000000001,1.325,-0.11960000000000001),(7.6440000000000001,1.325,0.34039999999999998)),$);
#314=IFCINDEXEDPOLYGONALFACE((1,2,4,3));
#315=IFCINDEXEDPOLYGONALFACE((5,7,8,6));
#316=IFCINDEXEDPOLYGONALFACE((1,5,6,2));
#317=IFCINDEXEDPOLYGONALFACE((3,4,8,7));
#318=IFCINDEXEDPOLYGONALFACE((1,3,7,5));
#319=IFCINDEXEDPOLYGONALFACE((2,6,8,4));
#320=IFCINDEXEDPOLYGONALFACE((9,10,12,11));
#321=IFCINDEXEDPOLYGONALFACE((13,15,16,14));
#322=IFCINDEXEDPOLYGONALFACE((9,13,14,10));
#323=IFCINDEXEDPOLYGONALFACE((11,12,16,15));
#324=IFCINDEXEDPOLYGONALFACE((9,11,15,13));
#325=IFCINDEXEDPOLYGONALFACE((10,14,16,12));
#326=IFCINDEXEDPOLYGONALFACE((17,18,20,19));
#327=IFCINDEXEDPOLYGONALFACE((21,23,24,22));
#328=IFCINDEXEDPOLYGONALFACE((17,21,22,18));
#329=IFCINDEXEDPOLYGONALFACE((19,20,24,23));
#330=IFCINDEXEDPOLYGONALFACE((17,19,23,21));
#331=IFCINDEXEDPOLYGONALFACE((18,22,24,20));
#332=IFCPOLYGONALFACESET(#313,$,(#314,#315,#316,#317,#318,#319,#320,#321,#322,#323,#324,#325,#326,#327,#328,#329,#330,#331),$);
#333=IFCSHAPEREPRESENTATION(#13,'Body','Tessellation',(#332));
#334=IFCPRODUCTDEFINITIONSHAPE($,$,(#333));
#335=IFCMEMBER('26m65yMNfNhPrh3n8l3ja2',$,'side-wall post, door portal, waist rail, and cant rail kit','Side frame welded in fixture before body close-up.',$,#765,#409,'LM3-BDY-P070',$);
#336=IFCPROPERTYSINGLEVALUE('OSRId',$,IFCTEXT('LM3-BDY-P070'),$);
#337=IFCPROPERTYSINGLEVALUE('Parent',$,IFCTEXT('LM3-BDY-SA120'),$);
#338=IFCPROPERTYSINGLEVALUE('Route',$,IFCTEXT('MAKE'),$);
#339=IFCPROPERTYSINGLEVALUE('Maturity',$,IFCTEXT('release-candidate'),$);
#340=IFCPROPERTYSINGLEVALUE('QuantityPerTrainset',$,IFCINTEGER(6),$);
#341=IFCPROPERTYSINGLEVALUE('Unit',$,IFCTEXT('side'),$);
#342=IFCPROPERTYSINGLEVALUE('GeometryStatus',$,IFCTEXT('design-reference-not-released'),$);
#343=IFCPROPERTYSINGLEVALUE('GeometryLevel',$,IFCTEXT('interface-detailed'),$);
#344=IFCPROPERTYSET('1D4bIu781M4gZUSrBMELRP',$,'OSR_ProductDefinition',$,(#336,#337,#338,#339,#340,#341,#342,#343));
#345=IFCRELDEFINESBYPROPERTIES('1UiQvJN6zV3BDmAxrkBuXx',$,$,$,(#335),#344);
#346=IFCCARTESIANPOINTLIST3D(((-7.9000000000000004,-0.089999999999999997,-0.059999999999999998),(-7.9000000000000004,-0.089999999999999997,0.059999999999999998),(-7.9000000000000004,0.089999999999999997,-0.059999999999999998),(-7.9000000000000004,0.089999999999999997,0.059999999999999998),(7.9000000000000004,-0.089999999999999997,-0.059999999999999998),(7.9000000000000004,-0.089999999999999997,0.059999999999999998),(7.9000000000000004,0.089999999999999997,-0.059999999999999998),(7.9000000000000004,0.089999999999999997,0.059999999999999998),(-7.9000000000000004,-0.089999999999999997,1.2509999999999999),(-7.9000000000000004,-0.089999999999999997,1.371),(-7.9000000000000004,0.089999999999999997,1.2509999999999999),(-7.9000000000000004,0.089999999999999997,1.371),(7.9000000000000004,-0.089999999999999997,1.2509999999999999),(7.9000000000000004,-0.089999999999999997,1.371),(7.9000000000000004,0.089999999999999997,1.2509999999999999),(7.9000000000000004,0.089999999999999997,1.371),(-7.9000000000000004,-0.089999999999999997,-1.371),(-7.9000000000000004,-0.089999999999999997,-1.2509999999999999),(-7.9000000000000004,0.089999999999999997,-1.371),(-7.9000000000000004,0.089999999999999997,-1.2509999999999999),(7.9000000000000004,-0.089999999999999997,-1.371),(7.9000000000000004,-0.089999999999999997,-1.2509999999999999),(7.9000000000000004,0.089999999999999997,-1.371),(7.9000000000000004,0.089999999999999997,-1.2509999999999999),(-7.1600000000000001,-0.089999999999999997,-1.425),(-7.1600000000000001,-0.089999999999999997,1.425),(-7.1600000000000001,0.089999999999999997,-1.425),(-7.1600000000000001,0.089999999999999997,1.425),(-7.0599999999999996,-0.089999999999999997,-1.425),(-7.0599999999999996,-0.089999999999999997,1.425),(-7.0599999999999996,0.089999999999999997,-1.425),(-7.0599999999999996,0.089999999999999997,1.425),(-4.79,-0.089999999999999997,-1.425),(-4.79,-0.089999999999999997,1.425),(-4.79,0.089999999999999997,-1.425),(-4.79,0.089999999999999997,1.425),(-4.6900000000000004,-0.089999999999999997,-1.425),(-4.6900000000000004,-0.089999999999999997,1.425),(-4.6900000000000004,0.089999999999999997,-1.425),(-4.6900000000000004,0.089999999999999997,1.425),(-2.4199999999999999,-0.089999999999999997,-1.425),(-2.4199999999999999,-0.089999999999999997,1.425),(-2.4199999999999999,0.089999999999999997,-1.425),(-2.4199999999999999,0.089999999999999997,1.425),(-2.3199999999999998,-0.089999999999999997,-1.425),(-2.3199999999999998,-0.089999999999999997,1.425),(-2.3199999999999998,0.089999999999999997,-1.425),(-2.3199999999999998,0.089999999999999997,1.425),(-0.050000000000000003,-0.089999999999999997,-1.425),(-0.050000000000000003,-0.089999999999999997,1.425),(-0.050000000000000003,0.089999999999999997,-1.425),(-0.050000000000000003,0.089999999999999997,1.425),(0.050000000000000003,-0.089999999999999997,-1.425),(0.050000000000000003,-0.089999999999999997,1.425),(0.050000000000000003,0.089999999999999997,-1.425),(0.050000000000000003,0.089999999999999997,1.425),(2.3199999999999998,-0.089999999999999997,-1.425),(2.3199999999999998,-0.089999999999999997,1.425),(2.3199999999999998,0.089999999999999997,-1.425),(2.3199999999999998,0.089999999999999997,1.425),(2.4199999999999999,-0.089999999999999997,-1.425),(2.4199999999999999,-0.089999999999999997,1.425),(2.4199999999999999,0.089999999999999997,-1.425),(2.4199999999999999,0.089999999999999997,1.425),(4.6900000000000004,-0.089999999999999997,-1.425),(4.6900000000000004,-0.089999999999999997,1.425),(4.6900000000000004,0.089999999999999997,-1.425),(4.6900000000000004,0.089999999999999997,1.425),(4.79,-0.089999999999999997,-1.425),(4.79,-0.089999999999999997,1.425),(4.79,0.089999999999999997,-1.425),(4.79,0.089999999999999997,1.425),(7.0599999999999996,-0.089999999999999997,-1.425),(7.0599999999999996,-0.089999999999999997,1.425),(7.0599999999999996,0.089999999999999997,-1.425),(7.0599999999999996,0.089999999999999997,1.425),(7.1600000000000001,-0.089999999999999997,-1.425),(7.1600000000000001,-0.089999999999999997,1.425),(7.1600000000000001,0.089999999999999997,-1.425),(7.1600000000000001,0.089999999999999997,1.425)),$);
#347=IFCINDEXEDPOLYGONALFACE((1,2,4,3));
#348=IFCINDEXEDPOLYGONALFACE((5,7,8,6));
#349=IFCINDEXEDPOLYGONALFACE((1,5,6,2));
#350=IFCINDEXEDPOLYGONALFACE((3,4,8,7));
#351=IFCINDEXEDPOLYGONALFACE((1,3,7,5));
#352=IFCINDEXEDPOLYGONALFACE((2,6,8,4));
#353=IFCINDEXEDPOLYGONALFACE((9,10,12,11));
#354=IFCINDEXEDPOLYGONALFACE((13,15,16,14));
#355=IFCINDEXEDPOLYGONALFACE((9,13,14,10));
#356=IFCINDEXEDPOLYGONALFACE((11,12,16,15));
#357=IFCINDEXEDPOLYGONALFACE((9,11,15,13));
#358=IFCINDEXEDPOLYGONALFACE((10,14,16,12));
#359=IFCINDEXEDPOLYGONALFACE((17,18,20,19));
#360=IFCINDEXEDPOLYGONALFACE((21,23,24,22));
#361=IFCINDEXEDPOLYGONALFACE((17,21,22,18));
#362=IFCINDEXEDPOLYGONALFACE((19,20,24,23));
#363=IFCINDEXEDPOLYGONALFACE((17,19,23,21));
#364=IFCINDEXEDPOLYGONALFACE((18,22,24,20));
#365=IFCINDEXEDPOLYGONALFACE((25,26,28,27));
#366=IFCINDEXEDPOLYGONALFACE((29,31,32,30));
#367=IFCINDEXEDPOLYGONALFACE((25,29,30,26));
#368=IFCINDEXEDPOLYGONALFACE((27,28,32,31));
#369=IFCINDEXEDPOLYGONALFACE((25,27,31,29));
#370=IFCINDEXEDPOLYGONALFACE((26,30,32,28));
#371=IFCINDEXEDPOLYGONALFACE((33,34,36,35));
#372=IFCINDEXEDPOLYGONALFACE((37,39,40,38));
#373=IFCINDEXEDPOLYGONALFACE((33,37,38,34));
#374=IFCINDEXEDPOLYGONALFACE((35,36,40,39));
#375=IFCINDEXEDPOLYGONALFACE((33,35,39,37));
#376=IFCINDEXEDPOLYGONALFACE((34,38,40,36));
#377=IFCINDEXEDPOLYGONALFACE((41,42,44,43));
#378=IFCINDEXEDPOLYGONALFACE((45,47,48,46));
#379=IFCINDEXEDPOLYGONALFACE((41,45,46,42));
#380=IFCINDEXEDPOLYGONALFACE((43,44,48,47));
#381=IFCINDEXEDPOLYGONALFACE((41,43,47,45));
#382=IFCINDEXEDPOLYGONALFACE((42,46,48,44));
#383=IFCINDEXEDPOLYGONALFACE((49,50,52,51));
#384=IFCINDEXEDPOLYGONALFACE((53,55,56,54));
#385=IFCINDEXEDPOLYGONALFACE((49,53,54,50));
#386=IFCINDEXEDPOLYGONALFACE((51,52,56,55));
#387=IFCINDEXEDPOLYGONALFACE((49,51,55,53));
#388=IFCINDEXEDPOLYGONALFACE((50,54,56,52));
#389=IFCINDEXEDPOLYGONALFACE((57,58,60,59));
#390=IFCINDEXEDPOLYGONALFACE((61,63,64,62));
#391=IFCINDEXEDPOLYGONALFACE((57,61,62,58));
#392=IFCINDEXEDPOLYGONALFACE((59,60,64,63));
#393=IFCINDEXEDPOLYGONALFACE((57,59,63,61));
#394=IFCINDEXEDPOLYGONALFACE((58,62,64,60));
#395=IFCINDEXEDPOLYGONALFACE((65,66,68,67));
#396=IFCINDEXEDPOLYGONALFACE((69,71,72,70));
#397=IFCINDEXEDPOLYGONALFACE((65,69,70,66));
#398=IFCINDEXEDPOLYGONALFACE((67,68,72,71));
#399=IFCINDEXEDPOLYGONALFACE((65,67,71,69));
#400=IFCINDEXEDPOLYGONALFACE((66,70,72,68));
#401=IFCINDEXEDPOLYGONALFACE((73,74,76,75));
#402=IFCINDEXEDPOLYGONALFACE((77,79,80,78));
#403=IFCINDEXEDPOLYGONALFACE((73,77,78,74));
#404=IFCINDEXEDPOLYGONALFACE((75,76,80,79));
#405=IFCINDEXEDPOLYGONALFACE((73,75,79,77));
#406=IFCINDEXEDPOLYGONALFACE((74,78,80,76));
#407=IFCPOLYGONALFACESET(#346,$,(#347,#348,#349,#350,#351,#352,#353,#354,#355,#356,#357,#358,#359,#360,#361,#362,#363,#364,#365,#366,#367,#368,#369,#370,#371,#372,#373,#374,#375,#376,#377,#378,#379,#380,#381,#382,#383,#384,#385,#386,#387,#388,#389,#390,#391,#392,#393,#394,#395,#396,#397,#398,#399,#400,#401,#402,#403,#404,#405,#406),$);
#408=IFCSHAPEREPRESENTATION(#13,'Body','Tessellation',(#407));
#409=IFCPRODUCTDEFINITIONSHAPE($,$,(#408));
#410=IFCPLATE('1nMIoEW0bOR93wbhBn_kzi',$,'one-metre clip-on fiberglass side and roof body module','One common 1,000 mm longitudinal mould pitch; CNC-trimmed side/window/door and roof variants hang from the same released clip grid.',$,#768,#430,'LM3-BDY-P130',$);
#411=IFCPROPERTYSINGLEVALUE('OSRId',$,IFCTEXT('LM3-BDY-P130'),$);
#412=IFCPROPERTYSINGLEVALUE('Parent',$,IFCTEXT('LM3-SHELL-A200'),$);
#413=IFCPROPERTYSINGLEVALUE('Route',$,IFCTEXT('MAKE'),$);
#414=IFCPROPERTYSINGLEVALUE('Maturity',$,IFCTEXT('release-candidate'),$);
#415=IFCPROPERTYSINGLEVALUE('QuantityPerTrainset',$,IFCINTEGER(144),$);
#416=IFCPROPERTYSINGLEVALUE('Unit',$,IFCTEXT('module'),$);
#417=IFCPROPERTYSINGLEVALUE('GeometryStatus',$,IFCTEXT('design-reference-not-released'),$);
#418=IFCPROPERTYSINGLEVALUE('GeometryLevel',$,IFCTEXT('interface-detailed'),$);
#419=IFCPROPERTYSET('3S6Or6OBzOJQAV1Aatr7Eb',$,'OSR_ProductDefinition',$,(#411,#412,#413,#414,#415,#416,#417,#418));
#420=IFCRELDEFINESBYPROPERTIES('3z3BcPkz5GkeIbBr7X6RKn',$,$,$,(#410),#419);
#421=IFCCARTESIANPOINTLIST3D(((-0.5,-0.059999999999999998,-1.5249999999999999),(-0.5,-0.059999999999999998,1.5249999999999999),(-0.5,0.059999999999999998,-1.5249999999999999),(-0.5,0.059999999999999998,1.5249999999999999),(0.5,-0.059999999999999998,-1.5249999999999999),(0.5,-0.059999999999999998,1.5249999999999999),(0.5,0.059999999999999998,-1.5249999999999999),(0.5,0.059999999999999998,1.5249999999999999)),$);
#422=IFCINDEXEDPOLYGONALFACE((1,2,4,3));
#423=IFCINDEXEDPOLYGONALFACE((5,7,8,6));
#424=IFCINDEXEDPOLYGONALFACE((1,5,6,2));
#425=IFCINDEXEDPOLYGONALFACE((3,4,8,7));
#426=IFCINDEXEDPOLYGONALFACE((1,3,7,5));
#427=IFCINDEXEDPOLYGONALFACE((2,6,8,4));
#428=IFCPOLYGONALFACESET(#421,$,(#422,#423,#424,#425,#426,#427),$);
#429=IFCSHAPEREPRESENTATION(#13,'Body','Tessellation',(#428));
#430=IFCPRODUCTDEFINITIONSHAPE($,$,(#429));
#431=IFCCABLECARRIERSEGMENT('2Jhw4AD7XKchadTtk4ghf7',$,'keyed clip rail, captive retainer, anti-lift, and dry-seal car kit','Laser-cut/folded stainless clip hardware and replaceable EPDM seals install without a production adhesive cure cycle.',$,#771,#475,'LM3-BDY-P140',$);
#432=IFCPROPERTYSINGLEVALUE('OSRId',$,IFCTEXT('LM3-BDY-P140'),$);
#433=IFCPROPERTYSINGLEVALUE('Parent',$,IFCTEXT('LM3-SHELL-A200'),$);
#434=IFCPROPERTYSINGLEVALUE('Route',$,IFCTEXT('MAKE'),$);
#435=IFCPROPERTYSINGLEVALUE('Maturity',$,IFCTEXT('release-candidate'),$);
#436=IFCPROPERTYSINGLEVALUE('QuantityPerTrainset',$,IFCINTEGER(3),$);
#437=IFCPROPERTYSINGLEVALUE('Unit',$,IFCTEXT('car kit'),$);
#438=IFCPROPERTYSINGLEVALUE('GeometryStatus',$,IFCTEXT('design-reference-not-released'),$);
#439=IFCPROPERTYSINGLEVALUE('GeometryLevel',$,IFCTEXT('interface-detailed'),$);
#440=IFCPROPERTYSET('3uEf29PE5HOf2gtrvzpK7G',$,'OSR_ProductDefinition',$,(#432,#433,#434,#435,#436,#437,#438,#439));
#441=IFCRELDEFINESBYPROPERTIES('1_6MOJ3kfPaP9ZoBBKJQ9$',$,$,$,(#431),#440);
#442=IFCCARTESIANPOINTLIST3D(((-7.9000000000000004,-0.067599999999999993,-0.019199999999999998),(-7.9000000000000004,-0.067599999999999993,0.019199999999999998),(-7.9000000000000004,-0.047600000000000003,-0.019199999999999998),(-7.9000000000000004,-0.047600000000000003,0.019199999999999998),(7.9000000000000004,-0.067599999999999993,-0.019199999999999998),(7.9000000000000004,-0.067599999999999993,0.019199999999999998),(7.9000000000000004,-0.047600000000000003,-0.019199999999999998),(7.9000000000000004,-0.047600000000000003,0.019199999999999998),(-7.9000000000000004,0.047600000000000003,-0.019199999999999998),(-7.9000000000000004,0.047600000000000003,0.019199999999999998),(-7.9000000000000004,0.067599999999999993,-0.019199999999999998),(-7.9000000000000004,0.067599999999999993,0.019199999999999998),(7.9000000000000004,0.047600000000000003,-0.019199999999999998),(7.9000000000000004,0.047600000000000003,0.019199999999999998),(7.9000000000000004,0.067599999999999993,-0.019199999999999998),(7.9000000000000004,0.067599999999999993,0.019199999999999998),(-5.7275,-0.071999999999999995,-0.024),(-5.7275,-0.071999999999999995,0.024),(-5.7275,0.071999999999999995,-0.024),(-5.7275,0.071999999999999995,0.024),(-5.3324999999999996,-0.071999999999999995,-0.024),(-5.3324999999999996,-0.071999999999999995,0.024),(-5.3324999999999996,0.071999999999999995,-0.024),(-5.3324999999999996,0.071999999999999995,0.024),(-0.19750000000000001,-0.071999999999999995,-0.024),(-0.19750000000000001,-0.071999999999999995,0.024),(-0.19750000000000001,0.071999999999999995,-0.024),(-0.19750000000000001,0.071999999999999995,0.024),(0.19750000000000001,-0.071999999999999995,-0.024),(0.19750000000000001,-0.071999999999999995,0.024),(0.19750000000000001,0.071999999999999995,-0.024),(0.19750000000000001,0.071999999999999995,0.024),(5.3324999999999996,-0.071999999999999995,-0.024),(5.3324999999999996,-0.071999999999999995,0.024),(5.3324999999999996,0.071999999999999995,-0.024),(5.3324999999999996,0.071999999999999995,0.024),(5.7275,-0.071999999999999995,-0.024),(5.7275,-0.071999999999999995,0.024),(5.7275,0.071999999999999995,-0.024),(5.7275,0.071999999999999995,0.024)),$);
#443=IFCINDEXEDPOLYGONALFACE((1,2,4,3));
#444=IFCINDEXEDPOLYGONALFACE((5,7,8,6));
#445=IFCINDEXEDPOLYGONALFACE((1,5,6,2));
#446=IFCINDEXEDPOLYGONALFACE((3,4,8,7));
#447=IFCINDEXEDPOLYGONALFACE((1,3,7,5));
#448=IFCINDEXEDPOLYGONALFACE((2,6,8,4));
#449=IFCINDEXEDPOLYGONALFACE((9,10,12,11));
#450=IFCINDEXEDPOLYGONALFACE((13,15,16,14));
#451=IFCINDEXEDPOLYGONALFACE((9,13,14,10));
#452=IFCINDEXEDPOLYGONALFACE((11,12,16,15));
#453=IFCINDEXEDPOLYGONALFACE((9,11,15,13));
#454=IFCINDEXEDPOLYGONALFACE((10,14,16,12));
#455=IFCINDEXEDPOLYGONALFACE((17,18,20,19));
#456=IFCINDEXEDPOLYGONALFACE((21,23,24,22));
#457=IFCINDEXEDPOLYGONALFACE((17,21,22,18));
#458=IFCINDEXEDPOLYGONALFACE((19,20,24,23));
#459=IFCINDEXEDPOLYGONALFACE((17,19,23,21));
#460=IFCINDEXEDPOLYGONALFACE((18,22,24,20));
#461=IFCINDEXEDPOLYGONALFACE((25,26,28,27));
#462=IFCINDEXEDPOLYGONALFACE((29,31,32,30));
#463=IFCINDEXEDPOLYGONALFACE((25,29,30,26));
#464=IFCINDEXEDPOLYGONALFACE((27,28,32,31));
#465=IFCINDEXEDPOLYGONALFACE((25,27,31,29));
#466=IFCINDEXEDPOLYGONALFACE((26,30,32,28));
#467=IFCINDEXEDPOLYGONALFACE((33,34,36,35));
#468=IFCINDEXEDPOLYGONALFACE((37,39,40,38));
#469=IFCINDEXEDPOLYGONALFACE((33,37,38,34));
#470=IFCINDEXEDPOLYGONALFACE((35,36,40,39));
#471=IFCINDEXEDPOLYGONALFACE((33,35,39,37));
#472=IFCINDEXEDPOLYGONALFACE((34,38,40,36));
#473=IFCPOLYGONALFACESET(#442,$,(#443,#444,#445,#446,#447,#448,#449,#450,#451,#452,#453,#454,#455,#456,#457,#458,#459,#460,#461,#462,#463,#464,#465,#466,#467,#468,#469,#470,#471,#472),$);
#474=IFCSHAPEREPRESENTATION(#13,'Body','Tessellation',(#473));
#475=IFCPRODUCTDEFINITIONSHAPE($,$,(#474));
#476=IFCBUILDINGELEMENTPROXY('0YDN89_75La8PJUXt3yUNA',$,'window carrier ring, bonded-gasket land, and replacement jack-point inserts','Laser-cut carrier ring and local backing plates for bonded/gasketed glazing replacement.',$,#774,#514,'LM3-BDY-P110',$);
#477=IFCPROPERTYSINGLEVALUE('OSRId',$,IFCTEXT('LM3-BDY-P110'),$);
#478=IFCPROPERTYSINGLEVALUE('Parent',$,IFCTEXT('LM3-WIN-SA320'),$);
#479=IFCPROPERTYSINGLEVALUE('Route',$,IFCTEXT('MAKE'),$);
#480=IFCPROPERTYSINGLEVALUE('Maturity',$,IFCTEXT('release-candidate'),$);
#481=IFCPROPERTYSINGLEVALUE('QuantityPerTrainset',$,IFCINTEGER(18),$);
#482=IFCPROPERTYSINGLEVALUE('Unit',$,IFCTEXT('opening kit'),$);
#483=IFCPROPERTYSINGLEVALUE('GeometryStatus',$,IFCTEXT('design-reference-not-released'),$);
#484=IFCPROPERTYSINGLEVALUE('GeometryLevel',$,IFCTEXT('interface-detailed'),$);
#485=IFCPROPERTYSET('3t1bAushrQngu1YXEw$l69',$,'OSR_ProductDefinition',$,(#477,#478,#479,#480,#481,#482,#483,#484));
#486=IFCRELDEFINESBYPROPERTIES('17W9Y06nTMlQ6zQJfqbyRD',$,$,$,(#476),#485);
#487=IFCCARTESIANPOINTLIST3D(((-0.82499999999999996,-0.070000000000000007,-0.625),(-0.82499999999999996,-0.070000000000000007,0.625),(-0.82499999999999996,0.070000000000000007,-0.625),(-0.82499999999999996,0.070000000000000007,0.625),(-0.69999999999999996,-0.070000000000000007,-0.625),(-0.69999999999999996,-0.070000000000000007,0.625),(-0.69999999999999996,0.070000000000000007,-0.625),(-0.69999999999999996,0.070000000000000007,0.625),(0.69999999999999996,-0.070000000000000007,-0.625),(0.69999999999999996,-0.070000000000000007,0.625),(0.69999999999999996,0.070000000000000007,-0.625),(0.69999999999999996,0.070000000000000007,0.625),(0.82499999999999996,-0.070000000000000007,-0.625),(0.82499999999999996,-0.070000000000000007,0.625),(0.82499999999999996,0.070000000000000007,-0.625),(0.82499999999999996,0.070000000000000007,0.625),(-0.69999999999999996,-0.070000000000000007,0.5),(-0.69999999999999996,-0.070000000000000007,0.625),(-0.69999999999999996,0.070000000000000007,0.5),(-0.69999999999999996,0.070000000000000007,0.625),(0.69999999999999996,-0.070000000000000007,0.5),(0.69999999999999996,-0.070000000000000007,0.625),(0.69999999999999996,0.070000000000000007,0.5),(0.69999999999999996,0.070000000000000007,0.625),(-0.69999999999999996,-0.070000000000000007,-0.625),(-0.69999999999999996,-0.070000000000000007,-0.5),(-0.69999999999999996,0.070000000000000007,-0.625),(-0.69999999999999996,0.070000000000000007,-0.5),(0.69999999999999996,-0.070000000000000007,-0.625),(0.69999999999999996,-0.070000000000000007,-0.5),(0.69999999999999996,0.070000000000000007,-0.625),(0.69999999999999996,0.070000000000000007,-0.5)),$);
#488=IFCINDEXEDPOLYGONALFACE((1,2,4,3));
#489=IFCINDEXEDPOLYGONALFACE((5,7,8,6));
#490=IFCINDEXEDPOLYGONALFACE((1,5,6,2));
#491=IFCINDEXEDPOLYGONALFACE((3,4,8,7));
#492=IFCINDEXEDPOLYGONALFACE((1,3,7,5));
#493=IFCINDEXEDPOLYGONALFACE((2,6,8,4));
#494=IFCINDEXEDPOLYGONALFACE((9,10,12,11));
#495=IFCINDEXEDPOLYGONALFACE((13,15,16,14));
#496=IFCINDEXEDPOLYGONALFACE((9,13,14,10));
#497=IFCINDEXEDPOLYGONALFACE((11,12,16,15));
#498=IFCINDEXEDPOLYGONALFACE((9,11,15,13));
#499=IFCINDEXEDPOLYGONALFACE((10,14,16,12));
#500=IFCINDEXEDPOLYGONALFACE((17,18,20,19));
#501=IFCINDEXEDPOLYGONALFACE((21,23,24,22));
#502=IFCINDEXEDPOLYGONALFACE((17,21,22,18));
#503=IFCINDEXEDPOLYGONALFACE((19,20,24,23));
#504=IFCINDEXEDPOLYGONALFACE((17,19,23,21));
#505=IFCINDEXEDPOLYGONALFACE((18,22,24,20));
#506=IFCINDEXEDPOLYGONALFACE((25,26,28,27));
#507=IFCINDEXEDPOLYGONALFACE((29,31,32,30));
#508=IFCINDEXEDPOLYGONALFACE((25,29,30,26));
#509=IFCINDEXEDPOLYGONALFACE((27,28,32,31));
#510=IFCINDEXEDPOLYGONALFACE((25,27,31,29));
#511=IFCINDEXEDPOLYGONALFACE((26,30,32,28));
#512=IFCPOLYGONALFACESET(#487,$,(#488,#489,#490,#491,#492,#493,#494,#495,#496,#497,#498,#499,#500,#501,#502,#503,#504,#505,#506,#507,#508,#509,#510,#511),$);
#513=IFCSHAPEREPRESENTATION(#13,'Body','Tessellation',(#512));
#514=IFCPRODUCTDEFINITIONSHAPE($,$,(#513));
#515=IFCBUILDINGELEMENTPROXY('0Ttvc4VcnKCPVZ5IjBgZLC',$,'replaceable window pressure frame, dry seal, drain, and captive retention kit','Supplier bonds glass within its aluminium cassette; the OSR pressure frame and dry seal allow routine removal without cutting adhesive at the carbody.',$,#777,#631,'LM3-WIN-P010',$);
#516=IFCPROPERTYSINGLEVALUE('OSRId',$,IFCTEXT('LM3-WIN-P010'),$);
#517=IFCPROPERTYSINGLEVALUE('Parent',$,IFCTEXT('LM3-WIN-SA320'),$);
#518=IFCPROPERTYSINGLEVALUE('Route',$,IFCTEXT('MAKE'),$);
#519=IFCPROPERTYSINGLEVALUE('Maturity',$,IFCTEXT('concept'),$);
#520=IFCPROPERTYSINGLEVALUE('QuantityPerTrainset',$,IFCINTEGER(18),$);
#521=IFCPROPERTYSINGLEVALUE('Unit',$,IFCTEXT('opening kit'),$);
#522=IFCPROPERTYSINGLEVALUE('GeometryStatus',$,IFCTEXT('design-reference-not-released'),$);
#523=IFCPROPERTYSINGLEVALUE('GeometryLevel',$,IFCTEXT('interface-detailed'),$);
#524=IFCPROPERTYSET('03nklfew5QVPo$JNCRdujJ',$,'OSR_ProductDefinition',$,(#516,#517,#518,#519,#520,#521,#522,#523));
#525=IFCRELDEFINESBYPROPERTIES('1BqO3cAKrGdg_N2MmSfRxE',$,$,$,(#515),#524);
#526=IFCCARTESIANPOINTLIST3D(((-0.82499999999999996,-0.070000000000000007,-0.625),(-0.82499999999999996,-0.070000000000000007,0.625),(-0.82499999999999996,0.070000000000000007,-0.625),(-0.82499999999999996,0.070000000000000007,0.625),(-0.69999999999999996,-0.070000000000000007,-0.625),(-0.69999999999999996,-0.070000000000000007,0.625),(-0.69999999999999996,0.070000000000000007,-0.625),(-0.69999999999999996,0.070000000000000007,0.625),(0.69999999999999996,-0.070000000000000007,-0.625),(0.69999999999999996,-0.070000000000000007,0.625),(0.69999999999999996,0.070000000000000007,-0.625),(0.69999999999999996,0.070000000000000007,0.625),(0.82499999999999996,-0.070000000000000007,-0.625),(0.82499999999999996,-0.070000000000000007,0.625),(0.82499999999999996,0.070000000000000007,-0.625),(0.82499999999999996,0.070000000000000007,0.625),(-0.69999999999999996,-0.070000000000000007,0.5),(-0.69999999999999996,-0.070000000000000007,0.625),(-0.69999999999999996,0.070000000000000007,0.5),(-0.69999999999999996,0.070000000000000007,0.625),(0.69999999999999996,-0.070000000000000007,0.5),(0.69999999999999996,-0.070000000000000007,0.625),(0.69999999999999996,0.070000000000000007,0.5),(0.69999999999999996,0.070000000000000007,0.625),(-0.69999999999999996,-0.070000000000000007,-0.625),(-0.69999999999999996,-0.070000000000000007,-0.5),(-0.69999999999999996,0.070000000000000007,-0.625),(-0.69999999999999996,0.070000000000000007,-0.5),(0.69999999999999996,-0.070000000000000007,-0.625),(0.69999999999999996,-0.070000000000000007,-0.5),(0.69999999999999996,0.070000000000000007,-0.625),(0.69999999999999996,0.070000000000000007,-0.5),(-0.70950000000000002,-0.026600000000000002,-0.51249999999999996),(-0.70950000000000002,-0.026600000000000002,0.51249999999999996),(-0.70950000000000002,0.026600000000000002,-0.51249999999999996),(-0.70950000000000002,0.026600000000000002,0.51249999999999996),(-0.60699999999999998,-0.026600000000000002,-0.51249999999999996),(-0.60699999999999998,-0.026600000000000002,0.51249999999999996),(-0.60699999999999998,0.026600000000000002,-0.51249999999999996),(-0.60699999999999998,0.026600000000000002,0.51249999999999996),(0.60699999999999998,-0.026600000000000002,-0.51249999999999996),(0.60699999999999998,-0.026600000000000002,0.51249999999999996),(0.60699999999999998,0.026600000000000002,-0.51249999999999996),(0.60699999999999998,0.026600000000000002,0.51249999999999996),(0.70950000000000002,-0.026600000000000002,-0.51249999999999996),(0.70950000000000002,-0.026600000000000002,0.51249999999999996),(0.70950000000000002,0.026600000000000002,-0.51249999999999996),(0.70950000000000002,0.026600000000000002,0.51249999999999996),(-0.60699999999999998,-0.026600000000000002,0.40999999999999998),(-0.60699999999999998,-0.026600000000000002,0.51249999999999996),(-0.60699999999999998,0.026600000000000002,0.40999999999999998),(-0.60699999999999998,0.026600000000000002,0.51249999999999996),(0.60699999999999998,-0.026600000000000002,0.40999999999999998),(0.60699999999999998,-0.026600000000000002,0.51249999999999996),(0.60699999999999998,0.026600000000000002,0.40999999999999998),(0.60699999999999998,0.026600000000000002,0.51249999999999996),(-0.60699999999999998,-0.026600000000000002,-0.51249999999999996),(-0.60699999999999998,-0.026600000000000002,-0.40999999999999998),(-0.60699999999999998,0.026600000000000002,-0.51249999999999996),(-0.60699999999999998,0.026600000000000002,-0.40999999999999998),(0.60699999999999998,-0.026600000000000002,-0.51249999999999996),(0.60699999999999998,-0.026600000000000002,-0.40999999999999998),(0.60699999999999998,0.026600000000000002,-0.51249999999999996),(0.60699999999999998,0.026600000000000002,-0.40999999999999998),(-0.64349999999999996,-0.022400000000000003,-0.51000000000000001),(-0.64349999999999996,-0.022400000000000003,-0.46500000000000002),(-0.64349999999999996,0.022400000000000003,-0.51000000000000001),(-0.64349999999999996,0.022400000000000003,-0.46500000000000002),(0.64349999999999996,-0.022400000000000003,-0.51000000000000001),(0.64349999999999996,-0.022400000000000003,-0.46500000000000002),(0.64349999999999996,0.022400000000000003,-0.51000000000000001),(0.64349999999999996,0.022400000000000003,-0.46500000000000002),(-0.70950000000000002,-0.0385,-0.53749999999999998),(-0.70950000000000002,-0.0385,-0.31250000000000006),(-0.70950000000000002,0.0385,-0.53749999999999998),(-0.70950000000000002,0.0385,-0.31250000000000006),(-0.51149999999999995,-0.0385,-0.53749999999999998),(-0.51149999999999995,-0.0385,-0.31250000000000006),(-0.51149999999999995,0.0385,-0.53749999999999998),(-0.51149999999999995,0.0385,-0.31250000000000006),(0.51149999999999995,-0.0385,-0.53749999999999998),(0.51149999999999995,-0.0385,-0.31250000000000006),(0.51149999999999995,0.0385,-0.53749999999999998),(0.51149999999999995,0.0385,-0.31250000000000006),(0.70950000000000002,-0.0385,-0.53749999999999998),(0.70950000000000002,-0.0385,-0.31250000000000006),(0.70950000000000002,0.0385,-0.53749999999999998),(0.70950000000000002,0.0385,-0.31250000000000006),(-0.57099999999999995,-0.0504,-0.51000000000000001),(-0.57099999999999995,-0.0504,-0.48999999999999999),(-0.57099999999999995,0.0504,-0.51000000000000001),(-0.57099999999999995,0.0504,-0.48999999999999999),(-0.55100000000000005,-0.0504,-0.51000000000000001),(-0.55100000000000005,-0.0504,-0.48999999999999999),(-0.55100000000000005,0.0504,-0.51000000000000001),(-0.55100000000000005,0.0504,-0.48999999999999999),(-0.57099999999999995,-0.0504,0.48999999999999999),(-0.57099999999999995,-0.0504,0.51000000000000001),(-0.57099999999999995,0.0504,0.48999999999999999),(-0.57099999999999995,0.0504,0.51000000000000001),(-0.55100000000000005,-0.0504,0.48999999999999999),(-0.55100000000000005,-0.0504,0.51000000000000001),(-0.55100000000000005,0.0504,0.48999999999999999),(-0.55100000000000005,0.0504,0.51000000000000001),(-0.01,-0.0504,-0.51000000000000001),(-0.01,-0.0504,-0.48999999999999999),(-0.01,0.0504,-0.51000000000000001),(-0.01,0.0504,-0.48999999999999999),(0.01,-0.0504,-0.51000000000000001),(0.01,-0.0504,-0.48999999999999999),(0.01,0.0504,-0.51000000000000001),(0.01,0.0504,-0.48999999999999999),(-0.01,-0.0504,0.48999999999999999),(-0.01,-0.0504,0.51000000000000001),(-0.01,0.0504,0.48999999999999999),(-0.01,0.0504,0.51000000000000001),(0.01,-0.0504,0.48999999999999999),(0.01,-0.0504,0.51000000000000001),(0.01,0.0504,0.48999999999999999),(0.01,0.0504,0.51000000000000001),(0.55100000000000005,-0.0504,-0.51000000000000001),(0.55100000000000005,-0.0504,-0.48999999999999999),(0.55100000000000005,0.0504,-0.51000000000000001),(0.55100000000000005,0.0504,-0.48999999999999999),(0.57099999999999995,-0.0504,-0.51000000000000001),(0.57099999999999995,-0.0504,-0.48999999999999999),(0.57099999999999995,0.0504,-0.51000000000000001),(0.57099999999999995,0.0504,-0.48999999999999999),(0.55100000000000005,-0.0504,0.48999999999999999),(0.55100000000000005,-0.0504,0.51000000000000001),(0.55100000000000005,0.0504,0.48999999999999999),(0.55100000000000005,0.0504,0.51000000000000001),(0.57099999999999995,-0.0504,0.48999999999999999),(0.57099999999999995,-0.0504,0.51000000000000001),(0.57099999999999995,0.0504,0.48999999999999999),(0.57099999999999995,0.0504,0.51000000000000001)),$);
#527=IFCINDEXEDPOLYGONALFACE((1,2,4,3));
#528=IFCINDEXEDPOLYGONALFACE((5,7,8,6));
#529=IFCINDEXEDPOLYGONALFACE((1,5,6,2));
#530=IFCINDEXEDPOLYGONALFACE((3,4,8,7));
#531=IFCINDEXEDPOLYGONALFACE((1,3,7,5));
#532=IFCINDEXEDPOLYGONALFACE((2,6,8,4));
#533=IFCINDEXEDPOLYGONALFACE((9,10,12,11));
#534=IFCINDEXEDPOLYGONALFACE((13,15,16,14));
#535=IFCINDEXEDPOLYGONALFACE((9,13,14,10));
#536=IFCINDEXEDPOLYGONALFACE((11,12,16,15));
#537=IFCINDEXEDPOLYGONALFACE((9,11,15,13));
#538=IFCINDEXEDPOLYGONALFACE((10,14,16,12));
#539=IFCINDEXEDPOLYGONALFACE((17,18,20,19));
#540=IFCINDEXEDPOLYGONALFACE((21,23,24,22));
#541=IFCINDEXEDPOLYGONALFACE((17,21,22,18));
#542=IFCINDEXEDPOLYGONALFACE((19,20,24,23));
#543=IFCINDEXEDPOLYGONALFACE((17,19,23,21));
#544=IFCINDEXEDPOLYGONALFACE((18,22,24,20));
#545=IFCINDEXEDPOLYGONALFACE((25,26,28,27));
#546=IFCINDEXEDPOLYGONALFACE((29,31,32,30));
#547=IFCINDEXEDPOLYGONALFACE((25,29,30,26));
#548=IFCINDEXEDPOLYGONALFACE((27,28,32,31));
#549=IFCINDEXEDPOLYGONALFACE((25,27,31,29));
#550=IFCINDEXEDPOLYGONALFACE((26,30,32,28));
#551=IFCINDEXEDPOLYGONALFACE((33,34,36,35));
#552=IFCINDEXEDPOLYGONALFACE((37,39,40,38));
#553=IFCINDEXEDPOLYGONALFACE((33,37,38,34));
#554=IFCINDEXEDPOLYGONALFACE((35,36,40,39));
#555=IFCINDEXEDPOLYGONALFACE((33,35,39,37));
#556=IFCINDEXEDPOLYGONALFACE((34,38,40,36));
#557=IFCINDEXEDPOLYGONALFACE((41,42,44,43));
#558=IFCINDEXEDPOLYGONALFACE((45,47,48,46));
#559=IFCINDEXEDPOLYGONALFACE((41,45,46,42));
#560=IFCINDEXEDPOLYGONALFACE((43,44,48,47));
#561=IFCINDEXEDPOLYGONALFACE((41,43,47,45));
#562=IFCINDEXEDPOLYGONALFACE((42,46,48,44));
#563=IFCINDEXEDPOLYGONALFACE((49,50,52,51));
#564=IFCINDEXEDPOLYGONALFACE((53,55,56,54));
#565=IFCINDEXEDPOLYGONALFACE((49,53,54,50));
#566=IFCINDEXEDPOLYGONALFACE((51,52,56,55));
#567=IFCINDEXEDPOLYGONALFACE((49,51,55,53));
#568=IFCINDEXEDPOLYGONALFACE((50,54,56,52));
#569=IFCINDEXEDPOLYGONALFACE((57,58,60,59));
#570=IFCINDEXEDPOLYGONALFACE((61,63,64,62));
#571=IFCINDEXEDPOLYGONALFACE((57,61,62,58));
#572=IFCINDEXEDPOLYGONALFACE((59,60,64,63));
#573=IFCINDEXEDPOLYGONALFACE((57,59,63,61));
#574=IFCINDEXEDPOLYGONALFACE((58,62,64,60));
#575=IFCINDEXEDPOLYGONALFACE((65,66,68,67));
#576=IFCINDEXEDPOLYGONALFACE((69,71,72,70));
#577=IFCINDEXEDPOLYGONALFACE((65,69,70,66));
#578=IFCINDEXEDPOLYGONALFACE((67,68,72,71));
#579=IFCINDEXEDPOLYGONALFACE((65,67,71,69));
#580=IFCINDEXEDPOLYGONALFACE((66,70,72,68));
#581=IFCINDEXEDPOLYGONALFACE((73,74,76,75));
#582=IFCINDEXEDPOLYGONALFACE((77,79,80,78));
#583=IFCINDEXEDPOLYGONALFACE((73,77,78,74));
#584=IFCINDEXEDPOLYGONALFACE((75,76,80,79));
#585=IFCINDEXEDPOLYGONALFACE((73,75,79,77));
#586=IFCINDEXEDPOLYGONALFACE((74,78,80,76));
#587=IFCINDEXEDPOLYGONALFACE((81,82,84,83));
#588=IFCINDEXEDPOLYGONALFACE((85,87,88,86));
#589=IFCINDEXEDPOLYGONALFACE((81,85,86,82));
#590=IFCINDEXEDPOLYGONALFACE((83,84,88,87));
#591=IFCINDEXEDPOLYGONALFACE((81,83,87,85));
#592=IFCINDEXEDPOLYGONALFACE((82,86,88,84));
#593=IFCINDEXEDPOLYGONALFACE((89,90,92,91));
#594=IFCINDEXEDPOLYGONALFACE((93,95,96,94));
#595=IFCINDEXEDPOLYGONALFACE((89,93,94,90));
#596=IFCINDEXEDPOLYGONALFACE((91,92,96,95));
#597=IFCINDEXEDPOLYGONALFACE((89,91,95,93));
#598=IFCINDEXEDPOLYGONALFACE((90,94,96,92));
#599=IFCINDEXEDPOLYGONALFACE((97,98,100,99));
#600=IFCINDEXEDPOLYGONALFACE((101,103,104,102));
#601=IFCINDEXEDPOLYGONALFACE((97,101,102,98));
#602=IFCINDEXEDPOLYGONALFACE((99,100,104,103));
#603=IFCINDEXEDPOLYGONALFACE((97,99,103,101));
#604=IFCINDEXEDPOLYGONALFACE((98,102,104,100));
#605=IFCINDEXEDPOLYGONALFACE((105,106,108,107));
#606=IFCINDEXEDPOLYGONALFACE((109,111,112,110));
#607=IFCINDEXEDPOLYGONALFACE((105,109,110,106));
#608=IFCINDEXEDPOLYGONALFACE((107,108,112,111));
#609=IFCINDEXEDPOLYGONALFACE((105,107,111,109));
#610=IFCINDEXEDPOLYGONALFACE((106,110,112,108));
#611=IFCINDEXEDPOLYGONALFACE((113,114,116,115));
#612=IFCINDEXEDPOLYGONALFACE((117,119,120,118));
#613=IFCINDEXEDPOLYGONALFACE((113,117,118,114));
#614=IFCINDEXEDPOLYGONALFACE((115,116,120,119));
#615=IFCINDEXEDPOLYGONALFACE((113,115,119,117));
#616=IFCINDEXEDPOLYGONALFACE((114,118,120,116));
#617=IFCINDEXEDPOLYGONALFACE((121,122,124,123));
#618=IFCINDEXEDPOLYGONALFACE((125,127,128,126));
#619=IFCINDEXEDPOLYGONALFACE((121,125,126,122));
#620=IFCINDEXEDPOLYGONALFACE((123,124,128,127));
#621=IFCINDEXEDPOLYGONALFACE((121,123,127,125));
#622=IFCINDEXEDPOLYGONALFACE((122,126,128,124));
#623=IFCINDEXEDPOLYGONALFACE((129,130,132,131));
#624=IFCINDEXEDPOLYGONALFACE((133,135,136,134));
#625=IFCINDEXEDPOLYGONALFACE((129,133,134,130));
#626=IFCINDEXEDPOLYGONALFACE((131,132,136,135));
#627=IFCINDEXEDPOLYGONALFACE((129,131,135,133));
#628=IFCINDEXEDPOLYGONALFACE((130,134,136,132));
#629=IFCPOLYGONALFACESET(#526,$,(#527,#528,#529,#530,#531,#532,#533,#534,#535,#536,#537,#538,#539,#540,#541,#542,#543,#544,#545,#546,#547,#548,#549,#550,#551,#552,#553,#554,#555,#556,#557,#558,#559,#560,#561,#562,#563,#564,#565,#566,#567,#568,#569,#570,#571,#572,#573,#574,#575,#576,#577,#578,#579,#580,#581,#582,#583,#584,#585,#586,#587,#588,#589,#590,#591,#592,#593,#594,#595,#596,#597,#598,#599,#600,#601,#602,#603,#604,#605,#606,#607,#608,#609,#610,#611,#612,#613,#614,#615,#616,#617,#618,#619,#620,#621,#622,#623,#624,#625,#626,#627,#628),$);
#630=IFCSHAPEREPRESENTATION(#13,'Body','Tessellation',(#629));
#631=IFCPRODUCTDEFINITIONSHAPE($,$,(#630));
#632=IFCWINDOW('3AGjw7eXnVBuFvb2QcCSy6',$,'side laminated glazing cassette','Supplier-neutral bonded/gasketed cassette sized by OSR aperture.',$,#780,#676,'LM3-EXT-P020',$,$,$,$,$);
#633=IFCPROPERTYSINGLEVALUE('OSRId',$,IFCTEXT('LM3-EXT-P020'),$);
#634=IFCPROPERTYSINGLEVALUE('Parent',$,IFCTEXT('LM3-WIN-SA320'),$);
#635=IFCPROPERTYSINGLEVALUE('Route',$,IFCTEXT('SOURCE'),$);
#636=IFCPROPERTYSINGLEVALUE('Maturity',$,IFCTEXT('buildable-after-supplier-freeze'),$);
#637=IFCPROPERTYSINGLEVALUE('QuantityPerTrainset',$,IFCINTEGER(18),$);
#638=IFCPROPERTYSINGLEVALUE('Unit',$,IFCTEXT('ea'),$);
#639=IFCPROPERTYSINGLEVALUE('GeometryStatus',$,IFCTEXT('design-reference-not-released'),$);
#640=IFCPROPERTYSINGLEVALUE('GeometryLevel',$,IFCTEXT('coordination-envelope'),$);
#641=IFCPROPERTYSET('2bzYFlmpXTtQnCV4CGUOih',$,'OSR_ProductDefinition',$,(#633,#634,#635,#636,#637,#638,#639,#640));
#642=IFCRELDEFINESBYPROPERTIES('1Zo7ZxRbPO0ORcOLCr3ZtB',$,$,$,(#632),#641);
#643=IFCCARTESIANPOINTLIST3D(((-0.76000000000000001,-0.044999999999999998,-0.55000000000000004),(-0.76000000000000001,-0.044999999999999998,0.55000000000000004),(-0.76000000000000001,0.044999999999999998,-0.55000000000000004),(-0.76000000000000001,0.044999999999999998,0.55000000000000004),(-0.65000000000000002,-0.044999999999999998,-0.55000000000000004),(-0.65000000000000002,-0.044999999999999998,0.55000000000000004),(-0.65000000000000002,0.044999999999999998,-0.55000000000000004),(-0.65000000000000002,0.044999999999999998,0.55000000000000004),(0.65000000000000002,-0.044999999999999998,-0.55000000000000004),(0.65000000000000002,-0.044999999999999998,0.55000000000000004),(0.65000000000000002,0.044999999999999998,-0.55000000000000004),(0.65000000000000002,0.044999999999999998,0.55000000000000004),(0.76000000000000001,-0.044999999999999998,-0.55000000000000004),(0.76000000000000001,-0.044999999999999998,0.55000000000000004),(0.76000000000000001,0.044999999999999998,-0.55000000000000004),(0.76000000000000001,0.044999999999999998,0.55000000000000004),(-0.65000000000000002,-0.044999999999999998,0.44),(-0.65000000000000002,-0.044999999999999998,0.55000000000000004),(-0.65000000000000002,0.044999999999999998,0.44),(-0.65000000000000002,0.044999999999999998,0.55000000000000004),(0.65000000000000002,-0.044999999999999998,0.44),(0.65000000000000002,-0.044999999999999998,0.55000000000000004),(0.65000000000000002,0.044999999999999998,0.44),(0.65000000000000002,0.044999999999999998,0.55000000000000004),(-0.65000000000000002,-0.044999999999999998,-0.55000000000000004),(-0.65000000000000002,-0.044999999999999998,-0.44),(-0.65000000000000002,0.044999999999999998,-0.55000000000000004),(-0.65000000000000002,0.044999999999999998,-0.44),(0.65000000000000002,-0.044999999999999998,-0.55000000000000004),(0.65000000000000002,-0.044999999999999998,-0.44),(0.65000000000000002,0.044999999999999998,-0.55000000000000004),(0.65000000000000002,0.044999999999999998,-0.44),(-0.62319999999999998,-0.020250000000000001,-0.45100000000000001),(-0.62319999999999998,-0.020250000000000001,0.45100000000000001),(-0.62319999999999998,0.020250000000000001,-0.45100000000000001),(-0.62319999999999998,0.020250000000000001,0.45100000000000001),(0.62319999999999998,-0.020250000000000001,-0.45100000000000001),(0.62319999999999998,-0.020250000000000001,0.45100000000000001),(0.62319999999999998,0.020250000000000001,-0.45100000000000001),(0.62319999999999998,0.020250000000000001,0.45100000000000001)),$);
#644=IFCINDEXEDPOLYGONALFACE((1,2,4,3));
#645=IFCINDEXEDPOLYGONALFACE((5,7,8,6));
#646=IFCINDEXEDPOLYGONALFACE((1,5,6,2));
#647=IFCINDEXEDPOLYGONALFACE((3,4,8,7));
#648=IFCINDEXEDPOLYGONALFACE((1,3,7,5));
#649=IFCINDEXEDPOLYGONALFACE((2,6,8,4));
#650=IFCINDEXEDPOLYGONALFACE((9,10,12,11));
#651=IFCINDEXEDPOLYGONALFACE((13,15,16,14));
#652=IFCINDEXEDPOLYGONALFACE((9,13,14,10));
#653=IFCINDEXEDPOLYGONALFACE((11,12,16,15));
#654=IFCINDEXEDPOLYGONALFACE((9,11,15,13));
#655=IFCINDEXEDPOLYGONALFACE((10,14,16,12));
#656=IFCINDEXEDPOLYGONALFACE((17,18,20,19));
#657=IFCINDEXEDPOLYGONALFACE((21,23,24,22));
#658=IFCINDEXEDPOLYGONALFACE((17,21,22,18));
#659=IFCINDEXEDPOLYGONALFACE((19,20,24,23));
#660=IFCINDEXEDPOLYGONALFACE((17,19,23,21));
#661=IFCINDEXEDPOLYGONALFACE((18,22,24,20));
#662=IFCINDEXEDPOLYGONALFACE((25,26,28,27));
#663=IFCINDEXEDPOLYGONALFACE((29,31,32,30));
#664=IFCINDEXEDPOLYGONALFACE((25,29,30,26));
#665=IFCINDEXEDPOLYGONALFACE((27,28,32,31));
#666=IFCINDEXEDPOLYGONALFACE((25,27,31,29));
#667=IFCINDEXEDPOLYGONALFACE((26,30,32,28));
#668=IFCINDEXEDPOLYGONALFACE((33,34,36,35));
#669=IFCINDEXEDPOLYGONALFACE((37,39,40,38));
#670=IFCINDEXEDPOLYGONALFACE((33,37,38,34));
#671=IFCINDEXEDPOLYGONALFACE((35,36,40,39));
#672=IFCINDEXEDPOLYGONALFACE((33,35,39,37));
#673=IFCINDEXEDPOLYGONALFACE((34,38,40,36));
#674=IFCPOLYGONALFACESET(#643,$,(#644,#645,#646,#647,#648,#649,#650,#651,#652,#653,#654,#655,#656,#657,#658,#659,#660,#661,#662,#663,#664,#665,#666,#667,#668,#669,#670,#671,#672,#673),$);
#675=IFCSHAPEREPRESENTATION(#13,'Body','Tessellation',(#674));
#676=IFCPRODUCTDEFINITIONSHAPE($,$,(#675));
#677=IFCPLATE('2aTTqXNNfJkfO8m9NKJtnk',$,'fire-rated GFRP side-module laminate, core, gelcoat, and consumable kit','Supplier-qualified glass-fibre, resin, core, gelcoat/paint, release film, and coupons feed local 1 m side-module moulding; no full-side bonded panel is used.',$,#783,#697,'LM3-EXT-P080',$);
#678=IFCPROPERTYSINGLEVALUE('OSRId',$,IFCTEXT('LM3-EXT-P080'),$);
#679=IFCPROPERTYSINGLEVALUE('Parent',$,IFCTEXT('LM3-SHELL-A200'),$);
#680=IFCPROPERTYSINGLEVALUE('Route',$,IFCTEXT('BID'),$);
#681=IFCPROPERTYSINGLEVALUE('Maturity',$,IFCTEXT('buildable-after-supplier-freeze'),$);
#682=IFCPROPERTYSINGLEVALUE('QuantityPerTrainset',$,IFCINTEGER(6),$);
#683=IFCPROPERTYSINGLEVALUE('Unit',$,IFCTEXT('side kit'),$);
#684=IFCPROPERTYSINGLEVALUE('GeometryStatus',$,IFCTEXT('design-reference-not-released'),$);
#685=IFCPROPERTYSINGLEVALUE('GeometryLevel',$,IFCTEXT('coordination-envelope'),$);
#686=IFCPROPERTYSET('1D6ORUgqPGHvwRBRZYMvCA',$,'OSR_ProductDefinition',$,(#678,#679,#680,#681,#682,#683,#684,#685));
#687=IFCRELDEFINESBYPROPERTIES('3qj19MbizTLQ5XPywcB35P',$,$,$,(#677),#686);
#688=IFCCARTESIANPOINTLIST3D(((-0.5,-0.059999999999999998,-1.5249999999999999),(-0.5,-0.059999999999999998,1.5249999999999999),(-0.5,0.059999999999999998,-1.5249999999999999),(-0.5,0.059999999999999998,1.5249999999999999),(0.5,-0.059999999999999998,-1.5249999999999999),(0.5,-0.059999999999999998,1.5249999999999999),(0.5,0.059999999999999998,-1.5249999999999999),(0.5,0.059999999999999998,1.5249999999999999)),$);
#689=IFCINDEXEDPOLYGONALFACE((1,2,4,3));
#690=IFCINDEXEDPOLYGONALFACE((5,7,8,6));
#691=IFCINDEXEDPOLYGONALFACE((1,5,6,2));
#692=IFCINDEXEDPOLYGONALFACE((3,4,8,7));
#693=IFCINDEXEDPOLYGONALFACE((1,3,7,5));
#694=IFCINDEXEDPOLYGONALFACE((2,6,8,4));
#695=IFCPOLYGONALFACESET(#688,$,(#689,#690,#691,#692,#693,#694),$);
#696=IFCSHAPEREPRESENTATION(#13,'Body','Tessellation',(#695));
#697=IFCPRODUCTDEFINITIONSHAPE($,$,(#696));
#698=IFCMEMBER('0HteT1HuPIhe02sgPlxM$z',$,'fire-rated GFRP roof-module, dry-seal, and removable skirt material kit','Supplier-qualified roof-module laminate consumables, EPDM seal stock, trim materials, and removable skirt blanks feed the local mould/trim/clip process.',$,#786,#742,'LM3-EXT-P090',$);
#699=IFCPROPERTYSINGLEVALUE('OSRId',$,IFCTEXT('LM3-EXT-P090'),$);
#700=IFCPROPERTYSINGLEVALUE('Parent',$,IFCTEXT('LM3-SHELL-A200'),$);
#701=IFCPROPERTYSINGLEVALUE('Route',$,IFCTEXT('BID'),$);
#702=IFCPROPERTYSINGLEVALUE('Maturity',$,IFCTEXT('buildable-after-supplier-freeze'),$);
#703=IFCPROPERTYSINGLEVALUE('QuantityPerTrainset',$,IFCINTEGER(3),$);
#704=IFCPROPERTYSINGLEVALUE('Unit',$,IFCTEXT('car kit'),$);
#705=IFCPROPERTYSINGLEVALUE('GeometryStatus',$,IFCTEXT('design-reference-not-released'),$);
#706=IFCPROPERTYSINGLEVALUE('GeometryLevel',$,IFCTEXT('coordination-envelope'),$);
#707=IFCPROPERTYSET('3TCsAof3XMc9byq2vZM5x2',$,'OSR_ProductDefinition',$,(#699,#700,#701,#702,#703,#704,#705,#706));
#708=IFCRELDEFINESBYPROPERTIES('0iASWrEC1RlOMij$w7K7D3',$,$,$,(#698),#707);
#709=IFCCARTESIANPOINTLIST3D(((-0.5,-0.999,-0.021599999999999998),(-0.5,-0.999,0.021599999999999998),(-0.5,-0.72899999999999998,-0.021599999999999998),(-0.5,-0.72899999999999998,0.021599999999999998),(0.5,-0.999,-0.021599999999999998),(0.5,-0.999,0.021599999999999998),(0.5,-0.72899999999999998,-0.021599999999999998),(0.5,-0.72899999999999998,0.021599999999999998),(-0.5,0.72899999999999998,-0.021599999999999998),(-0.5,0.72899999999999998,0.021599999999999998),(-0.5,0.999,-0.021599999999999998),(-0.5,0.999,0.021599999999999998),(0.5,0.72899999999999998,-0.021599999999999998),(0.5,0.72899999999999998,0.021599999999999998),(0.5,0.999,-0.021599999999999998),(0.5,0.999,0.021599999999999998),(-0.36499999999999999,-1.0800000000000001,-0.027),(-0.36499999999999999,-1.0800000000000001,0.027),(-0.36499999999999999,1.0800000000000001,-0.027),(-0.36499999999999999,1.0800000000000001,0.027),(-0.33500000000000002,-1.0800000000000001,-0.027),(-0.33500000000000002,-1.0800000000000001,0.027),(-0.33500000000000002,1.0800000000000001,-0.027),(-0.33500000000000002,1.0800000000000001,0.027),(-0.014999999999999999,-1.0800000000000001,-0.027),(-0.014999999999999999,-1.0800000000000001,0.027),(-0.014999999999999999,1.0800000000000001,-0.027),(-0.014999999999999999,1.0800000000000001,0.027),(0.014999999999999999,-1.0800000000000001,-0.027),(0.014999999999999999,-1.0800000000000001,0.027),(0.014999999999999999,1.0800000000000001,-0.027),(0.014999999999999999,1.0800000000000001,0.027),(0.33500000000000002,-1.0800000000000001,-0.027),(0.33500000000000002,-1.0800000000000001,0.027),(0.33500000000000002,1.0800000000000001,-0.027),(0.33500000000000002,1.0800000000000001,0.027),(0.36499999999999999,-1.0800000000000001,-0.027),(0.36499999999999999,-1.0800000000000001,0.027),(0.36499999999999999,1.0800000000000001,-0.027),(0.36499999999999999,1.0800000000000001,0.027)),$);
#710=IFCINDEXEDPOLYGONALFACE((1,2,4,3));
#711=IFCINDEXEDPOLYGONALFACE((5,7,8,6));
#712=IFCINDEXEDPOLYGONALFACE((1,5,6,2));
#713=IFCINDEXEDPOLYGONALFACE((3,4,8,7));
#714=IFCINDEXEDPOLYGONALFACE((1,3,7,5));
#715=IFCINDEXEDPOLYGONALFACE((2,6,8,4));
#716=IFCINDEXEDPOLYGONALFACE((9,10,12,11));
#717=IFCINDEXEDPOLYGONALFACE((13,15,16,14));
#718=IFCINDEXEDPOLYGONALFACE((9,13,14,10));
#719=IFCINDEXEDPOLYGONALFACE((11,12,16,15));
#720=IFCINDEXEDPOLYGONALFACE((9,11,15,13));
#721=IFCINDEXEDPOLYGONALFACE((10,14,16,12));
#722=IFCINDEXEDPOLYGONALFACE((17,18,20,19));
#723=IFCINDEXEDPOLYGONALFACE((21,23,24,22));
#724=IFCINDEXEDPOLYGONALFACE((17,21,22,18));
#725=IFCINDEXEDPOLYGONALFACE((19,20,24,23));
#726=IFCINDEXEDPOLYGONALFACE((17,19,23,21));
#727=IFCINDEXEDPOLYGONALFACE((18,22,24,20));
#728=IFCINDEXEDPOLYGONALFACE((25,26,28,27));
#729=IFCINDEXEDPOLYGONALFACE((29,31,32,30));
#730=IFCINDEXEDPOLYGONALFACE((25,29,30,26));
#731=IFCINDEXEDPOLYGONALFACE((27,28,32,31));
#732=IFCINDEXEDPOLYGONALFACE((25,27,31,29));
#733=IFCINDEXEDPOLYGONALFACE((26,30,32,28));
#734=IFCINDEXEDPOLYGONALFACE((33,34,36,35));
#735=IFCINDEXEDPOLYGONALFACE((37,39,40,38));
#736=IFCINDEXEDPOLYGONALFACE((33,37,38,34));
#737=IFCINDEXEDPOLYGONALFACE((35,36,40,39));
#738=IFCINDEXEDPOLYGONALFACE((33,35,39,37));
#739=IFCINDEXEDPOLYGONALFACE((34,38,40,36));
#740=IFCPOLYGONALFACESET(#709,$,(#710,#711,#712,#713,#714,#715,#716,#717,#718,#719,#720,#721,#722,#723,#724,#725,#726,#727,#728,#729,#730,#731,#732,#733,#734,#735,#736,#737,#738,#739),$);
#741=IFCSHAPEREPRESENTATION(#13,'Body','Tessellation',(#740));
#742=IFCPRODUCTDEFINITIONSHAPE($,$,(#741));
#743=IFCRELAGGREGATES('2gxakc5OfKcuin0XCv9XJ6',$,$,$,#28,(#410,#431,#36,#677,#698,#52));
#744=IFCRELAGGREGATES('17VZpoRDTRLuNY61CQs1zY',$,$,$,#36,(#302,#335,#44));
#745=IFCRELAGGREGATES('2SIk$CttDUlhSiIzxQ99b$',$,$,$,#44,(#60,#81,#144,#203));
#746=IFCRELAGGREGATES('0RBI645ifSof7quQl24A3C',$,$,$,#52,(#476,#632,#515));
#747=IFCRELCONTAINEDINSPATIALSTRUCTURE('10I6hJZ09IIOQM0c8gmhA7',$,$,$,(#28),#3);
#748=IFCCARTESIANPOINT((0.,0.,0.));
#749=IFCAXIS2PLACEMENT3D(#748,$,$);
#750=IFCLOCALPLACEMENT($,#749);
#751=IFCCARTESIANPOINT((16.800000000000001,0.,0.));
#752=IFCAXIS2PLACEMENT3D(#751,$,$);
#753=IFCLOCALPLACEMENT($,#752);
#754=IFCCARTESIANPOINT((33.600000000000001,0.,0.));
#755=IFCAXIS2PLACEMENT3D(#754,$,$);
#756=IFCLOCALPLACEMENT($,#755);
#757=IFCCARTESIANPOINT((50.399999999999999,0.,0.));
#758=IFCAXIS2PLACEMENT3D(#757,$,$);
#759=IFCLOCALPLACEMENT($,#758);
#760=IFCCARTESIANPOINT((0.,3.5,0.));
#761=IFCAXIS2PLACEMENT3D(#760,$,$);
#762=IFCLOCALPLACEMENT($,#761);
#763=IFCCARTESIANPOINT((16.800000000000001,3.5,0.));
#764=IFCAXIS2PLACEMENT3D(#763,$,$);
#765=IFCLOCALPLACEMENT($,#764);
#766=IFCCARTESIANPOINT((33.600000000000001,3.5,0.));
#767=IFCAXIS2PLACEMENT3D(#766,$,$);
#768=IFCLOCALPLACEMENT($,#767);
#769=IFCCARTESIANPOINT((50.399999999999999,3.5,0.));
#770=IFCAXIS2PLACEMENT3D(#769,$,$);
#771=IFCLOCALPLACEMENT($,#770);
#772=IFCCARTESIANPOINT((0.,7.,0.));
#773=IFCAXIS2PLACEMENT3D(#772,$,$);
#774=IFCLOCALPLACEMENT($,#773);
#775=IFCCARTESIANPOINT((16.800000000000001,7.,0.));
#776=IFCAXIS2PLACEMENT3D(#775,$,$);
#777=IFCLOCALPLACEMENT($,#776);
#778=IFCCARTESIANPOINT((33.600000000000001,7.,0.));
#779=IFCAXIS2PLACEMENT3D(#778,$,$);
#780=IFCLOCALPLACEMENT($,#779);
#781=IFCCARTESIANPOINT((50.399999999999999,7.,0.));
#782=IFCAXIS2PLACEMENT3D(#781,$,$);
#783=IFCLOCALPLACEMENT($,#782);
#784=IFCCARTESIANPOINT((0.,10.5,0.));
#785=IFCAXIS2PLACEMENT3D(#784,$,$);
#786=IFCLOCALPLACEMENT($,#785);
ENDSEC;
END-ISO-10303-21;
