ISO-10303-21;
HEADER;
FILE_DESCRIPTION(('ViewDefinition [CoordinationView]'),'2;1');
FILE_NAME('LM3-WIN-SA320.ifc','2026-08-30T00:00:00+00:00',('OpenSourceRail'),('OpenSourceRail'),'IfcOpenShell 0.8.5','OpenSourceRail deterministic LM3 product-library exporter','design-reference / not for construction');
FILE_SCHEMA(('IFC4X3_ADD2'));
ENDSEC;
DATA;
#1=IFCPROJECT('29avZOFoPP9Qze_sH6Ndin',$,'LM3-WIN-SA320 \X2\2014\X0\ side glazing cassette installation','Design-reference geometry and assembly hierarchy only; supplier freeze, released drawings/tolerances, calculations, qualified processes and first-article tests remain mandatory.',$,$,$,(#12),#7);
#2=IFCSITE('3nBAVON_nUex5oBLdl1ktj',$,'LM3 product library',$,$,#18,$,$,.ELEMENT.,$,$,$,$,$);
#3=IFCBUILDING('325rgdiELTFA8rB$VANSXL',$,'LM3 assembly inspection fixture',$,$,#21,$,$,.ELEMENT.,$,$,$);
#4=IFCSIUNIT(*,.LENGTHUNIT.,$,.METRE.);
#5=IFCSIUNIT(*,.AREAUNIT.,$,.SQUARE_METRE.);
#6=IFCSIUNIT(*,.VOLUMEUNIT.,$,.CUBIC_METRE.);
#7=IFCUNITASSIGNMENT((#6,#4,#5));
#8=IFCCARTESIANPOINT((0.,0.,0.));
#9=IFCDIRECTION((0.,0.,1.));
#10=IFCDIRECTION((1.,0.,0.));
#11=IFCAXIS2PLACEMENT3D(#8,#9,#10);
#12=IFCGEOMETRICREPRESENTATIONCONTEXT($,'Model',3,1.0000000000000001E-05,#11,$);
#13=IFCGEOMETRICREPRESENTATIONSUBCONTEXT('Body','Model',*,*,*,*,#12,$,.MODEL_VIEW.,$);
#14=IFCRELAGGREGATES('39RKq6bZXP4gwf5cFe0f$D',$,$,$,#1,(#2));
#15=IFCRELAGGREGATES('1Bv1QVfAfT0PpNn$thHMOg',$,$,$,#2,(#3));
#16=IFCCARTESIANPOINT((0.,0.,0.));
#17=IFCAXIS2PLACEMENT3D(#16,$,$);
#18=IFCLOCALPLACEMENT($,#17);
#19=IFCCARTESIANPOINT((0.,0.,0.));
#20=IFCAXIS2PLACEMENT3D(#19,$,$);
#21=IFCLOCALPLACEMENT($,#20);
#22=IFCPROPERTYSINGLEVALUE('Status',$,IFCTEXT('design-reference-not-released'),$);
#23=IFCPROPERTYSINGLEVALUE('ReleaseBoundary',$,IFCTEXT('Design-reference geometry and assembly hierarchy only; supplier freeze, released drawings/tolerances, calculations, qualified processes and first-article tests remain mandatory.'),$);
#24=IFCPROPERTYSINGLEVALUE('Manifest',$,IFCTEXT('design/component-catalogue/catalog/buildable-trainset/buildable-trainset-manifest.json'),$);
#25=IFCPROPERTYSINGLEVALUE('ManifestSha256',$,IFCTEXT('1179a30e147f3569fc4ccc8ce621621cec7985f620d2c788f8da93eec9ed7c05'),$);
#26=IFCPROPERTYSET('1w1C6Cw0TONBLXdDICcXO2',$,'OSR_ProductLibrary',$,(#22,#23,#24,#25));
#27=IFCRELDEFINESBYPROPERTIES('08Af8wvJjQ$xZtcEBfCErn',$,$,$,(#1),#26);
#28=IFCELEMENTASSEMBLY('2hTwjPSMzJKR1wvYg8pgd8',$,'side glazing cassette installation','aperture gauge | bond/gasket procedure | water ingress test',$,$,$,'LM3-WIN-SA320',$,$);
#29=IFCPROPERTYSINGLEVALUE('OSRId',$,IFCTEXT('LM3-WIN-SA320'),$);
#30=IFCPROPERTYSINGLEVALUE('Layer',$,IFCTEXT('subassembly'),$);
#31=IFCPROPERTYSINGLEVALUE('BuildCell',$,IFCTEXT('composite / glazing cell'),$);
#32=IFCPROPERTYSINGLEVALUE('QuantityPerTrainset',$,IFCINTEGER(18),$);
#33=IFCPROPERTYSINGLEVALUE('GeometryStatus',$,IFCTEXT('complete-hierarchy-inspection-layout'),$);
#34=IFCPROPERTYSET('0cPuZjnE9P_gskX9i8K9Cp',$,'OSR_AssemblyDefinition',$,(#29,#30,#31,#32,#33));
#35=IFCRELDEFINESBYPROPERTIES('3FKTIdS_DTxuO$BULUNtin',$,$,$,(#28),#34);
#36=IFCBUILDINGELEMENTPROXY('1iFzRRDW9Jxu62BAcN1$Zn',$,'window carrier ring, bonded-gasket land, and replacement jack-point inserts','Laser-cut carrier ring and local backing plates for bonded/gasketed glazing replacement.',$,#241,#74,'LM3-BDY-P110',$);
#37=IFCPROPERTYSINGLEVALUE('OSRId',$,IFCTEXT('LM3-BDY-P110'),$);
#38=IFCPROPERTYSINGLEVALUE('Parent',$,IFCTEXT('LM3-WIN-SA320'),$);
#39=IFCPROPERTYSINGLEVALUE('Route',$,IFCTEXT('MAKE'),$);
#40=IFCPROPERTYSINGLEVALUE('Maturity',$,IFCTEXT('release-candidate'),$);
#41=IFCPROPERTYSINGLEVALUE('QuantityPerTrainset',$,IFCINTEGER(18),$);
#42=IFCPROPERTYSINGLEVALUE('Unit',$,IFCTEXT('opening kit'),$);
#43=IFCPROPERTYSINGLEVALUE('GeometryStatus',$,IFCTEXT('design-reference-not-released'),$);
#44=IFCPROPERTYSINGLEVALUE('GeometryLevel',$,IFCTEXT('interface-detailed'),$);
#45=IFCPROPERTYSET('2QE7QuoUzIwQoTpXzGAM4m',$,'OSR_ProductDefinition',$,(#37,#38,#39,#40,#41,#42,#43,#44));
#46=IFCRELDEFINESBYPROPERTIES('3rC_BvNqrN09AtvS8ugcQF',$,$,$,(#36),#45);
#47=IFCCARTESIANPOINTLIST3D(((-0.82499999999999996,-0.070000000000000007,-0.625),(-0.82499999999999996,-0.070000000000000007,0.625),(-0.82499999999999996,0.070000000000000007,-0.625),(-0.82499999999999996,0.070000000000000007,0.625),(-0.69999999999999996,-0.070000000000000007,-0.625),(-0.69999999999999996,-0.070000000000000007,0.625),(-0.69999999999999996,0.070000000000000007,-0.625),(-0.69999999999999996,0.070000000000000007,0.625),(0.69999999999999996,-0.070000000000000007,-0.625),(0.69999999999999996,-0.070000000000000007,0.625),(0.69999999999999996,0.070000000000000007,-0.625),(0.69999999999999996,0.070000000000000007,0.625),(0.82499999999999996,-0.070000000000000007,-0.625),(0.82499999999999996,-0.070000000000000007,0.625),(0.82499999999999996,0.070000000000000007,-0.625),(0.82499999999999996,0.070000000000000007,0.625),(-0.69999999999999996,-0.070000000000000007,0.5),(-0.69999999999999996,-0.070000000000000007,0.625),(-0.69999999999999996,0.070000000000000007,0.5),(-0.69999999999999996,0.070000000000000007,0.625),(0.69999999999999996,-0.070000000000000007,0.5),(0.69999999999999996,-0.070000000000000007,0.625),(0.69999999999999996,0.070000000000000007,0.5),(0.69999999999999996,0.070000000000000007,0.625),(-0.69999999999999996,-0.070000000000000007,-0.625),(-0.69999999999999996,-0.070000000000000007,-0.5),(-0.69999999999999996,0.070000000000000007,-0.625),(-0.69999999999999996,0.070000000000000007,-0.5),(0.69999999999999996,-0.070000000000000007,-0.625),(0.69999999999999996,-0.070000000000000007,-0.5),(0.69999999999999996,0.070000000000000007,-0.625),(0.69999999999999996,0.070000000000000007,-0.5)),$);
#48=IFCINDEXEDPOLYGONALFACE((1,2,4,3));
#49=IFCINDEXEDPOLYGONALFACE((5,7,8,6));
#50=IFCINDEXEDPOLYGONALFACE((1,5,6,2));
#51=IFCINDEXEDPOLYGONALFACE((3,4,8,7));
#52=IFCINDEXEDPOLYGONALFACE((1,3,7,5));
#53=IFCINDEXEDPOLYGONALFACE((2,6,8,4));
#54=IFCINDEXEDPOLYGONALFACE((9,10,12,11));
#55=IFCINDEXEDPOLYGONALFACE((13,15,16,14));
#56=IFCINDEXEDPOLYGONALFACE((9,13,14,10));
#57=IFCINDEXEDPOLYGONALFACE((11,12,16,15));
#58=IFCINDEXEDPOLYGONALFACE((9,11,15,13));
#59=IFCINDEXEDPOLYGONALFACE((10,14,16,12));
#60=IFCINDEXEDPOLYGONALFACE((17,18,20,19));
#61=IFCINDEXEDPOLYGONALFACE((21,23,24,22));
#62=IFCINDEXEDPOLYGONALFACE((17,21,22,18));
#63=IFCINDEXEDPOLYGONALFACE((19,20,24,23));
#64=IFCINDEXEDPOLYGONALFACE((17,19,23,21));
#65=IFCINDEXEDPOLYGONALFACE((18,22,24,20));
#66=IFCINDEXEDPOLYGONALFACE((25,26,28,27));
#67=IFCINDEXEDPOLYGONALFACE((29,31,32,30));
#68=IFCINDEXEDPOLYGONALFACE((25,29,30,26));
#69=IFCINDEXEDPOLYGONALFACE((27,28,32,31));
#70=IFCINDEXEDPOLYGONALFACE((25,27,31,29));
#71=IFCINDEXEDPOLYGONALFACE((26,30,32,28));
#72=IFCPOLYGONALFACESET(#47,$,(#48,#49,#50,#51,#52,#53,#54,#55,#56,#57,#58,#59,#60,#61,#62,#63,#64,#65,#66,#67,#68,#69,#70,#71),$);
#73=IFCSHAPEREPRESENTATION(#13,'Body','Tessellation',(#72));
#74=IFCPRODUCTDEFINITIONSHAPE($,$,(#73));
#75=IFCBUILDINGELEMENTPROXY('1Ce72tOw9UEgjmiA6dEeWS',$,'replaceable window pressure frame, dry seal, drain, and captive retention kit','Supplier bonds glass within its aluminium cassette; the OSR pressure frame and dry seal allow routine removal without cutting adhesive at the carbody.',$,#244,#191,'LM3-WIN-P010',$);
#76=IFCPROPERTYSINGLEVALUE('OSRId',$,IFCTEXT('LM3-WIN-P010'),$);
#77=IFCPROPERTYSINGLEVALUE('Parent',$,IFCTEXT('LM3-WIN-SA320'),$);
#78=IFCPROPERTYSINGLEVALUE('Route',$,IFCTEXT('MAKE'),$);
#79=IFCPROPERTYSINGLEVALUE('Maturity',$,IFCTEXT('concept'),$);
#80=IFCPROPERTYSINGLEVALUE('QuantityPerTrainset',$,IFCINTEGER(18),$);
#81=IFCPROPERTYSINGLEVALUE('Unit',$,IFCTEXT('opening kit'),$);
#82=IFCPROPERTYSINGLEVALUE('GeometryStatus',$,IFCTEXT('design-reference-not-released'),$);
#83=IFCPROPERTYSINGLEVALUE('GeometryLevel',$,IFCTEXT('interface-detailed'),$);
#84=IFCPROPERTYSET('2a3fJlRDvIrfAHSQZfoX5W',$,'OSR_ProductDefinition',$,(#76,#77,#78,#79,#80,#81,#82,#83));
#85=IFCRELDEFINESBYPROPERTIES('1Y54y4wNzKigtvo5GvlLAM',$,$,$,(#75),#84);
#86=IFCCARTESIANPOINTLIST3D(((-0.82499999999999996,-0.070000000000000007,-0.625),(-0.82499999999999996,-0.070000000000000007,0.625),(-0.82499999999999996,0.070000000000000007,-0.625),(-0.82499999999999996,0.070000000000000007,0.625),(-0.69999999999999996,-0.070000000000000007,-0.625),(-0.69999999999999996,-0.070000000000000007,0.625),(-0.69999999999999996,0.070000000000000007,-0.625),(-0.69999999999999996,0.070000000000000007,0.625),(0.69999999999999996,-0.070000000000000007,-0.625),(0.69999999999999996,-0.070000000000000007,0.625),(0.69999999999999996,0.070000000000000007,-0.625),(0.69999999999999996,0.070000000000000007,0.625),(0.82499999999999996,-0.070000000000000007,-0.625),(0.82499999999999996,-0.070000000000000007,0.625),(0.82499999999999996,0.070000000000000007,-0.625),(0.82499999999999996,0.070000000000000007,0.625),(-0.69999999999999996,-0.070000000000000007,0.5),(-0.69999999999999996,-0.070000000000000007,0.625),(-0.69999999999999996,0.070000000000000007,0.5),(-0.69999999999999996,0.070000000000000007,0.625),(0.69999999999999996,-0.070000000000000007,0.5),(0.69999999999999996,-0.070000000000000007,0.625),(0.69999999999999996,0.070000000000000007,0.5),(0.69999999999999996,0.070000000000000007,0.625),(-0.69999999999999996,-0.070000000000000007,-0.625),(-0.69999999999999996,-0.070000000000000007,-0.5),(-0.69999999999999996,0.070000000000000007,-0.625),(-0.69999999999999996,0.070000000000000007,-0.5),(0.69999999999999996,-0.070000000000000007,-0.625),(0.69999999999999996,-0.070000000000000007,-0.5),(0.69999999999999996,0.070000000000000007,-0.625),(0.69999999999999996,0.070000000000000007,-0.5),(-0.70950000000000002,-0.026600000000000002,-0.51249999999999996),(-0.70950000000000002,-0.026600000000000002,0.51249999999999996),(-0.70950000000000002,0.026600000000000002,-0.51249999999999996),(-0.70950000000000002,0.026600000000000002,0.51249999999999996),(-0.60699999999999998,-0.026600000000000002,-0.51249999999999996),(-0.60699999999999998,-0.026600000000000002,0.51249999999999996),(-0.60699999999999998,0.026600000000000002,-0.51249999999999996),(-0.60699999999999998,0.026600000000000002,0.51249999999999996),(0.60699999999999998,-0.026600000000000002,-0.51249999999999996),(0.60699999999999998,-0.026600000000000002,0.51249999999999996),(0.60699999999999998,0.026600000000000002,-0.51249999999999996),(0.60699999999999998,0.026600000000000002,0.51249999999999996),(0.70950000000000002,-0.026600000000000002,-0.51249999999999996),(0.70950000000000002,-0.026600000000000002,0.51249999999999996),(0.70950000000000002,0.026600000000000002,-0.51249999999999996),(0.70950000000000002,0.026600000000000002,0.51249999999999996),(-0.60699999999999998,-0.026600000000000002,0.40999999999999998),(-0.60699999999999998,-0.026600000000000002,0.51249999999999996),(-0.60699999999999998,0.026600000000000002,0.40999999999999998),(-0.60699999999999998,0.026600000000000002,0.51249999999999996),(0.60699999999999998,-0.026600000000000002,0.40999999999999998),(0.60699999999999998,-0.026600000000000002,0.51249999999999996),(0.60699999999999998,0.026600000000000002,0.40999999999999998),(0.60699999999999998,0.026600000000000002,0.51249999999999996),(-0.60699999999999998,-0.026600000000000002,-0.51249999999999996),(-0.60699999999999998,-0.026600000000000002,-0.40999999999999998),(-0.60699999999999998,0.026600000000000002,-0.51249999999999996),(-0.60699999999999998,0.026600000000000002,-0.40999999999999998),(0.60699999999999998,-0.026600000000000002,-0.51249999999999996),(0.60699999999999998,-0.026600000000000002,-0.40999999999999998),(0.60699999999999998,0.026600000000000002,-0.51249999999999996),(0.60699999999999998,0.026600000000000002,-0.40999999999999998),(-0.64349999999999996,-0.022400000000000003,-0.51000000000000001),(-0.64349999999999996,-0.022400000000000003,-0.46500000000000002),(-0.64349999999999996,0.022400000000000003,-0.51000000000000001),(-0.64349999999999996,0.022400000000000003,-0.46500000000000002),(0.64349999999999996,-0.022400000000000003,-0.51000000000000001),(0.64349999999999996,-0.022400000000000003,-0.46500000000000002),(0.64349999999999996,0.022400000000000003,-0.51000000000000001),(0.64349999999999996,0.022400000000000003,-0.46500000000000002),(-0.70950000000000002,-0.0385,-0.53749999999999998),(-0.70950000000000002,-0.0385,-0.31250000000000006),(-0.70950000000000002,0.0385,-0.53749999999999998),(-0.70950000000000002,0.0385,-0.31250000000000006),(-0.51149999999999995,-0.0385,-0.53749999999999998),(-0.51149999999999995,-0.0385,-0.31250000000000006),(-0.51149999999999995,0.0385,-0.53749999999999998),(-0.51149999999999995,0.0385,-0.31250000000000006),(0.51149999999999995,-0.0385,-0.53749999999999998),(0.51149999999999995,-0.0385,-0.31250000000000006),(0.51149999999999995,0.0385,-0.53749999999999998),(0.51149999999999995,0.0385,-0.31250000000000006),(0.70950000000000002,-0.0385,-0.53749999999999998),(0.70950000000000002,-0.0385,-0.31250000000000006),(0.70950000000000002,0.0385,-0.53749999999999998),(0.70950000000000002,0.0385,-0.31250000000000006),(-0.57099999999999995,-0.0504,-0.51000000000000001),(-0.57099999999999995,-0.0504,-0.48999999999999999),(-0.57099999999999995,0.0504,-0.51000000000000001),(-0.57099999999999995,0.0504,-0.48999999999999999),(-0.55100000000000005,-0.0504,-0.51000000000000001),(-0.55100000000000005,-0.0504,-0.48999999999999999),(-0.55100000000000005,0.0504,-0.51000000000000001),(-0.55100000000000005,0.0504,-0.48999999999999999),(-0.57099999999999995,-0.0504,0.48999999999999999),(-0.57099999999999995,-0.0504,0.51000000000000001),(-0.57099999999999995,0.0504,0.48999999999999999),(-0.57099999999999995,0.0504,0.51000000000000001),(-0.55100000000000005,-0.0504,0.48999999999999999),(-0.55100000000000005,-0.0504,0.51000000000000001),(-0.55100000000000005,0.0504,0.48999999999999999),(-0.55100000000000005,0.0504,0.51000000000000001),(-0.01,-0.0504,-0.51000000000000001),(-0.01,-0.0504,-0.48999999999999999),(-0.01,0.0504,-0.51000000000000001),(-0.01,0.0504,-0.48999999999999999),(0.01,-0.0504,-0.51000000000000001),(0.01,-0.0504,-0.48999999999999999),(0.01,0.0504,-0.51000000000000001),(0.01,0.0504,-0.48999999999999999),(-0.01,-0.0504,0.48999999999999999),(-0.01,-0.0504,0.51000000000000001),(-0.01,0.0504,0.48999999999999999),(-0.01,0.0504,0.51000000000000001),(0.01,-0.0504,0.48999999999999999),(0.01,-0.0504,0.51000000000000001),(0.01,0.0504,0.48999999999999999),(0.01,0.0504,0.51000000000000001),(0.55100000000000005,-0.0504,-0.51000000000000001),(0.55100000000000005,-0.0504,-0.48999999999999999),(0.55100000000000005,0.0504,-0.51000000000000001),(0.55100000000000005,0.0504,-0.48999999999999999),(0.57099999999999995,-0.0504,-0.51000000000000001),(0.57099999999999995,-0.0504,-0.48999999999999999),(0.57099999999999995,0.0504,-0.51000000000000001),(0.57099999999999995,0.0504,-0.48999999999999999),(0.55100000000000005,-0.0504,0.48999999999999999),(0.55100000000000005,-0.0504,0.51000000000000001),(0.55100000000000005,0.0504,0.48999999999999999),(0.55100000000000005,0.0504,0.51000000000000001),(0.57099999999999995,-0.0504,0.48999999999999999),(0.57099999999999995,-0.0504,0.51000000000000001),(0.57099999999999995,0.0504,0.48999999999999999),(0.57099999999999995,0.0504,0.51000000000000001)),$);
#87=IFCINDEXEDPOLYGONALFACE((1,2,4,3));
#88=IFCINDEXEDPOLYGONALFACE((5,7,8,6));
#89=IFCINDEXEDPOLYGONALFACE((1,5,6,2));
#90=IFCINDEXEDPOLYGONALFACE((3,4,8,7));
#91=IFCINDEXEDPOLYGONALFACE((1,3,7,5));
#92=IFCINDEXEDPOLYGONALFACE((2,6,8,4));
#93=IFCINDEXEDPOLYGONALFACE((9,10,12,11));
#94=IFCINDEXEDPOLYGONALFACE((13,15,16,14));
#95=IFCINDEXEDPOLYGONALFACE((9,13,14,10));
#96=IFCINDEXEDPOLYGONALFACE((11,12,16,15));
#97=IFCINDEXEDPOLYGONALFACE((9,11,15,13));
#98=IFCINDEXEDPOLYGONALFACE((10,14,16,12));
#99=IFCINDEXEDPOLYGONALFACE((17,18,20,19));
#100=IFCINDEXEDPOLYGONALFACE((21,23,24,22));
#101=IFCINDEXEDPOLYGONALFACE((17,21,22,18));
#102=IFCINDEXEDPOLYGONALFACE((19,20,24,23));
#103=IFCINDEXEDPOLYGONALFACE((17,19,23,21));
#104=IFCINDEXEDPOLYGONALFACE((18,22,24,20));
#105=IFCINDEXEDPOLYGONALFACE((25,26,28,27));
#106=IFCINDEXEDPOLYGONALFACE((29,31,32,30));
#107=IFCINDEXEDPOLYGONALFACE((25,29,30,26));
#108=IFCINDEXEDPOLYGONALFACE((27,28,32,31));
#109=IFCINDEXEDPOLYGONALFACE((25,27,31,29));
#110=IFCINDEXEDPOLYGONALFACE((26,30,32,28));
#111=IFCINDEXEDPOLYGONALFACE((33,34,36,35));
#112=IFCINDEXEDPOLYGONALFACE((37,39,40,38));
#113=IFCINDEXEDPOLYGONALFACE((33,37,38,34));
#114=IFCINDEXEDPOLYGONALFACE((35,36,40,39));
#115=IFCINDEXEDPOLYGONALFACE((33,35,39,37));
#116=IFCINDEXEDPOLYGONALFACE((34,38,40,36));
#117=IFCINDEXEDPOLYGONALFACE((41,42,44,43));
#118=IFCINDEXEDPOLYGONALFACE((45,47,48,46));
#119=IFCINDEXEDPOLYGONALFACE((41,45,46,42));
#120=IFCINDEXEDPOLYGONALFACE((43,44,48,47));
#121=IFCINDEXEDPOLYGONALFACE((41,43,47,45));
#122=IFCINDEXEDPOLYGONALFACE((42,46,48,44));
#123=IFCINDEXEDPOLYGONALFACE((49,50,52,51));
#124=IFCINDEXEDPOLYGONALFACE((53,55,56,54));
#125=IFCINDEXEDPOLYGONALFACE((49,53,54,50));
#126=IFCINDEXEDPOLYGONALFACE((51,52,56,55));
#127=IFCINDEXEDPOLYGONALFACE((49,51,55,53));
#128=IFCINDEXEDPOLYGONALFACE((50,54,56,52));
#129=IFCINDEXEDPOLYGONALFACE((57,58,60,59));
#130=IFCINDEXEDPOLYGONALFACE((61,63,64,62));
#131=IFCINDEXEDPOLYGONALFACE((57,61,62,58));
#132=IFCINDEXEDPOLYGONALFACE((59,60,64,63));
#133=IFCINDEXEDPOLYGONALFACE((57,59,63,61));
#134=IFCINDEXEDPOLYGONALFACE((58,62,64,60));
#135=IFCINDEXEDPOLYGONALFACE((65,66,68,67));
#136=IFCINDEXEDPOLYGONALFACE((69,71,72,70));
#137=IFCINDEXEDPOLYGONALFACE((65,69,70,66));
#138=IFCINDEXEDPOLYGONALFACE((67,68,72,71));
#139=IFCINDEXEDPOLYGONALFACE((65,67,71,69));
#140=IFCINDEXEDPOLYGONALFACE((66,70,72,68));
#141=IFCINDEXEDPOLYGONALFACE((73,74,76,75));
#142=IFCINDEXEDPOLYGONALFACE((77,79,80,78));
#143=IFCINDEXEDPOLYGONALFACE((73,77,78,74));
#144=IFCINDEXEDPOLYGONALFACE((75,76,80,79));
#145=IFCINDEXEDPOLYGONALFACE((73,75,79,77));
#146=IFCINDEXEDPOLYGONALFACE((74,78,80,76));
#147=IFCINDEXEDPOLYGONALFACE((81,82,84,83));
#148=IFCINDEXEDPOLYGONALFACE((85,87,88,86));
#149=IFCINDEXEDPOLYGONALFACE((81,85,86,82));
#150=IFCINDEXEDPOLYGONALFACE((83,84,88,87));
#151=IFCINDEXEDPOLYGONALFACE((81,83,87,85));
#152=IFCINDEXEDPOLYGONALFACE((82,86,88,84));
#153=IFCINDEXEDPOLYGONALFACE((89,90,92,91));
#154=IFCINDEXEDPOLYGONALFACE((93,95,96,94));
#155=IFCINDEXEDPOLYGONALFACE((89,93,94,90));
#156=IFCINDEXEDPOLYGONALFACE((91,92,96,95));
#157=IFCINDEXEDPOLYGONALFACE((89,91,95,93));
#158=IFCINDEXEDPOLYGONALFACE((90,94,96,92));
#159=IFCINDEXEDPOLYGONALFACE((97,98,100,99));
#160=IFCINDEXEDPOLYGONALFACE((101,103,104,102));
#161=IFCINDEXEDPOLYGONALFACE((97,101,102,98));
#162=IFCINDEXEDPOLYGONALFACE((99,100,104,103));
#163=IFCINDEXEDPOLYGONALFACE((97,99,103,101));
#164=IFCINDEXEDPOLYGONALFACE((98,102,104,100));
#165=IFCINDEXEDPOLYGONALFACE((105,106,108,107));
#166=IFCINDEXEDPOLYGONALFACE((109,111,112,110));
#167=IFCINDEXEDPOLYGONALFACE((105,109,110,106));
#168=IFCINDEXEDPOLYGONALFACE((107,108,112,111));
#169=IFCINDEXEDPOLYGONALFACE((105,107,111,109));
#170=IFCINDEXEDPOLYGONALFACE((106,110,112,108));
#171=IFCINDEXEDPOLYGONALFACE((113,114,116,115));
#172=IFCINDEXEDPOLYGONALFACE((117,119,120,118));
#173=IFCINDEXEDPOLYGONALFACE((113,117,118,114));
#174=IFCINDEXEDPOLYGONALFACE((115,116,120,119));
#175=IFCINDEXEDPOLYGONALFACE((113,115,119,117));
#176=IFCINDEXEDPOLYGONALFACE((114,118,120,116));
#177=IFCINDEXEDPOLYGONALFACE((121,122,124,123));
#178=IFCINDEXEDPOLYGONALFACE((125,127,128,126));
#179=IFCINDEXEDPOLYGONALFACE((121,125,126,122));
#180=IFCINDEXEDPOLYGONALFACE((123,124,128,127));
#181=IFCINDEXEDPOLYGONALFACE((121,123,127,125));
#182=IFCINDEXEDPOLYGONALFACE((122,126,128,124));
#183=IFCINDEXEDPOLYGONALFACE((129,130,132,131));
#184=IFCINDEXEDPOLYGONALFACE((133,135,136,134));
#185=IFCINDEXEDPOLYGONALFACE((129,133,134,130));
#186=IFCINDEXEDPOLYGONALFACE((131,132,136,135));
#187=IFCINDEXEDPOLYGONALFACE((129,131,135,133));
#188=IFCINDEXEDPOLYGONALFACE((130,134,136,132));
#189=IFCPOLYGONALFACESET(#86,$,(#87,#88,#89,#90,#91,#92,#93,#94,#95,#96,#97,#98,#99,#100,#101,#102,#103,#104,#105,#106,#107,#108,#109,#110,#111,#112,#113,#114,#115,#116,#117,#118,#119,#120,#121,#122,#123,#124,#125,#126,#127,#128,#129,#130,#131,#132,#133,#134,#135,#136,#137,#138,#139,#140,#141,#142,#143,#144,#145,#146,#147,#148,#149,#150,#151,#152,#153,#154,#155,#156,#157,#158,#159,#160,#161,#162,#163,#164,#165,#166,#167,#168,#169,#170,#171,#172,#173,#174,#175,#176,#177,#178,#179,#180,#181,#182,#183,#184,#185,#186,#187,#188),$);
#190=IFCSHAPEREPRESENTATION(#13,'Body','Tessellation',(#189));
#191=IFCPRODUCTDEFINITIONSHAPE($,$,(#190));
#192=IFCWINDOW('1wQ8Ltrq5RnOfZv5VL75UL',$,'side laminated glazing cassette','Supplier-neutral bonded/gasketed cassette sized by OSR aperture.',$,#247,#236,'LM3-EXT-P020',$,$,$,$,$);
#193=IFCPROPERTYSINGLEVALUE('OSRId',$,IFCTEXT('LM3-EXT-P020'),$);
#194=IFCPROPERTYSINGLEVALUE('Parent',$,IFCTEXT('LM3-WIN-SA320'),$);
#195=IFCPROPERTYSINGLEVALUE('Route',$,IFCTEXT('SOURCE'),$);
#196=IFCPROPERTYSINGLEVALUE('Maturity',$,IFCTEXT('buildable-after-supplier-freeze'),$);
#197=IFCPROPERTYSINGLEVALUE('QuantityPerTrainset',$,IFCINTEGER(18),$);
#198=IFCPROPERTYSINGLEVALUE('Unit',$,IFCTEXT('ea'),$);
#199=IFCPROPERTYSINGLEVALUE('GeometryStatus',$,IFCTEXT('design-reference-not-released'),$);
#200=IFCPROPERTYSINGLEVALUE('GeometryLevel',$,IFCTEXT('coordination-envelope'),$);
#201=IFCPROPERTYSET('0veVn$WULJcQpmwHT5lrbd',$,'OSR_ProductDefinition',$,(#193,#194,#195,#196,#197,#198,#199,#200));
#202=IFCRELDEFINESBYPROPERTIES('2y1A7YbJ1L$OaM9XMtzws5',$,$,$,(#192),#201);
#203=IFCCARTESIANPOINTLIST3D(((-0.76000000000000001,-0.044999999999999998,-0.55000000000000004),(-0.76000000000000001,-0.044999999999999998,0.55000000000000004),(-0.76000000000000001,0.044999999999999998,-0.55000000000000004),(-0.76000000000000001,0.044999999999999998,0.55000000000000004),(-0.65000000000000002,-0.044999999999999998,-0.55000000000000004),(-0.65000000000000002,-0.044999999999999998,0.55000000000000004),(-0.65000000000000002,0.044999999999999998,-0.55000000000000004),(-0.65000000000000002,0.044999999999999998,0.55000000000000004),(0.65000000000000002,-0.044999999999999998,-0.55000000000000004),(0.65000000000000002,-0.044999999999999998,0.55000000000000004),(0.65000000000000002,0.044999999999999998,-0.55000000000000004),(0.65000000000000002,0.044999999999999998,0.55000000000000004),(0.76000000000000001,-0.044999999999999998,-0.55000000000000004),(0.76000000000000001,-0.044999999999999998,0.55000000000000004),(0.76000000000000001,0.044999999999999998,-0.55000000000000004),(0.76000000000000001,0.044999999999999998,0.55000000000000004),(-0.65000000000000002,-0.044999999999999998,0.44),(-0.65000000000000002,-0.044999999999999998,0.55000000000000004),(-0.65000000000000002,0.044999999999999998,0.44),(-0.65000000000000002,0.044999999999999998,0.55000000000000004),(0.65000000000000002,-0.044999999999999998,0.44),(0.65000000000000002,-0.044999999999999998,0.55000000000000004),(0.65000000000000002,0.044999999999999998,0.44),(0.65000000000000002,0.044999999999999998,0.55000000000000004),(-0.65000000000000002,-0.044999999999999998,-0.55000000000000004),(-0.65000000000000002,-0.044999999999999998,-0.44),(-0.65000000000000002,0.044999999999999998,-0.55000000000000004),(-0.65000000000000002,0.044999999999999998,-0.44),(0.65000000000000002,-0.044999999999999998,-0.55000000000000004),(0.65000000000000002,-0.044999999999999998,-0.44),(0.65000000000000002,0.044999999999999998,-0.55000000000000004),(0.65000000000000002,0.044999999999999998,-0.44),(-0.62319999999999998,-0.020250000000000001,-0.45100000000000001),(-0.62319999999999998,-0.020250000000000001,0.45100000000000001),(-0.62319999999999998,0.020250000000000001,-0.45100000000000001),(-0.62319999999999998,0.020250000000000001,0.45100000000000001),(0.62319999999999998,-0.020250000000000001,-0.45100000000000001),(0.62319999999999998,-0.020250000000000001,0.45100000000000001),(0.62319999999999998,0.020250000000000001,-0.45100000000000001),(0.62319999999999998,0.020250000000000001,0.45100000000000001)),$);
#204=IFCINDEXEDPOLYGONALFACE((1,2,4,3));
#205=IFCINDEXEDPOLYGONALFACE((5,7,8,6));
#206=IFCINDEXEDPOLYGONALFACE((1,5,6,2));
#207=IFCINDEXEDPOLYGONALFACE((3,4,8,7));
#208=IFCINDEXEDPOLYGONALFACE((1,3,7,5));
#209=IFCINDEXEDPOLYGONALFACE((2,6,8,4));
#210=IFCINDEXEDPOLYGONALFACE((9,10,12,11));
#211=IFCINDEXEDPOLYGONALFACE((13,15,16,14));
#212=IFCINDEXEDPOLYGONALFACE((9,13,14,10));
#213=IFCINDEXEDPOLYGONALFACE((11,12,16,15));
#214=IFCINDEXEDPOLYGONALFACE((9,11,15,13));
#215=IFCINDEXEDPOLYGONALFACE((10,14,16,12));
#216=IFCINDEXEDPOLYGONALFACE((17,18,20,19));
#217=IFCINDEXEDPOLYGONALFACE((21,23,24,22));
#218=IFCINDEXEDPOLYGONALFACE((17,21,22,18));
#219=IFCINDEXEDPOLYGONALFACE((19,20,24,23));
#220=IFCINDEXEDPOLYGONALFACE((17,19,23,21));
#221=IFCINDEXEDPOLYGONALFACE((18,22,24,20));
#222=IFCINDEXEDPOLYGONALFACE((25,26,28,27));
#223=IFCINDEXEDPOLYGONALFACE((29,31,32,30));
#224=IFCINDEXEDPOLYGONALFACE((25,29,30,26));
#225=IFCINDEXEDPOLYGONALFACE((27,28,32,31));
#226=IFCINDEXEDPOLYGONALFACE((25,27,31,29));
#227=IFCINDEXEDPOLYGONALFACE((26,30,32,28));
#228=IFCINDEXEDPOLYGONALFACE((33,34,36,35));
#229=IFCINDEXEDPOLYGONALFACE((37,39,40,38));
#230=IFCINDEXEDPOLYGONALFACE((33,37,38,34));
#231=IFCINDEXEDPOLYGONALFACE((35,36,40,39));
#232=IFCINDEXEDPOLYGONALFACE((33,35,39,37));
#233=IFCINDEXEDPOLYGONALFACE((34,38,40,36));
#234=IFCPOLYGONALFACESET(#203,$,(#204,#205,#206,#207,#208,#209,#210,#211,#212,#213,#214,#215,#216,#217,#218,#219,#220,#221,#222,#223,#224,#225,#226,#227,#228,#229,#230,#231,#232,#233),$);
#235=IFCSHAPEREPRESENTATION(#13,'Body','Tessellation',(#234));
#236=IFCPRODUCTDEFINITIONSHAPE($,$,(#235));
#237=IFCRELAGGREGATES('1ToDnEOK9M3uq1debMUCvA',$,$,$,#28,(#36,#192,#75));
#238=IFCRELCONTAINEDINSPATIALSTRUCTURE('2a3LxGw7LHTgEcjriiH9P4',$,$,$,(#28),#3);
#239=IFCCARTESIANPOINT((0.,0.,0.));
#240=IFCAXIS2PLACEMENT3D(#239,$,$);
#241=IFCLOCALPLACEMENT($,#240);
#242=IFCCARTESIANPOINT((2.4500000000000002,0.,0.));
#243=IFCAXIS2PLACEMENT3D(#242,$,$);
#244=IFCLOCALPLACEMENT($,#243);
#245=IFCCARTESIANPOINT((4.9000000000000004,0.,0.));
#246=IFCAXIS2PLACEMENT3D(#245,$,$);
#247=IFCLOCALPLACEMENT($,#246);
ENDSEC;
END-ISO-10303-21;
