ISO-10303-21;
HEADER;
FILE_DESCRIPTION(('Open CASCADE Model'),'2;1');
FILE_NAME('Nose sensor cowl','2026-04-23T14:56:25',('Author'),(
    'Open CASCADE'),'Open CASCADE STEP processor 7.8','build123d',
  'Unknown');
FILE_SCHEMA(('AUTOMOTIVE_DESIGN { 1 0 10303 214 1 1 1 1 }'));
ENDSEC;
DATA;
#1 = APPLICATION_PROTOCOL_DEFINITION('international standard',
  'automotive_design',2000,#2);
#2 = APPLICATION_CONTEXT(
  'core data for automotive mechanical design processes');
#3 = SHAPE_DEFINITION_REPRESENTATION(#4,#10);
#4 = PRODUCT_DEFINITION_SHAPE('','',#5);
#5 = PRODUCT_DEFINITION('design','',#6,#9);
#6 = PRODUCT_DEFINITION_FORMATION('','',#7);
#7 = PRODUCT('Nose sensor cowl','Nose sensor cowl','',(#8));
#8 = PRODUCT_CONTEXT('',#2,'mechanical');
#9 = PRODUCT_DEFINITION_CONTEXT('part definition',#2,'design');
#10 = ADVANCED_BREP_SHAPE_REPRESENTATION('',(#11,#15),#673);
#11 = AXIS2_PLACEMENT_3D('',#12,#13,#14);
#12 = CARTESIAN_POINT('',(0.,0.,0.));
#13 = DIRECTION('',(0.,0.,1.));
#14 = DIRECTION('',(1.,0.,-0.));
#15 = MANIFOLD_SOLID_BREP('',#16);
#16 = CLOSED_SHELL('',(#17,#260,#336,#383,#429,#487,#533,#589,#636,#662)
  );
#17 = ADVANCED_FACE('',(#18),#32,.T.);
#18 = FACE_BOUND('',#19,.T.);
#19 = EDGE_LOOP('',(#20,#55,#82,#109,#146,#171,#208,#235));
#20 = ORIENTED_EDGE('',*,*,#21,.F.);
#21 = EDGE_CURVE('',#22,#24,#26,.T.);
#22 = VERTEX_POINT('',#23);
#23 = CARTESIAN_POINT('',(0.,-1.325E+03,0.));
#24 = VERTEX_POINT('',#25);
#25 = CARTESIAN_POINT('',(0.,-1.325E+03,3.6E+03));
#26 = SURFACE_CURVE('',#27,(#31,#43),.PCURVE_S1.);
#27 = LINE('',#28,#29);
#28 = CARTESIAN_POINT('',(0.,-1.325E+03,1.8E+03));
#29 = VECTOR('',#30,1.);
#30 = DIRECTION('',(0.,0.,1.));
#31 = PCURVE('',#32,#37);
#32 = B_SPLINE_SURFACE_WITH_KNOTS('',1,1,(
    (#33,#34)
    ,(#35,#36
  )),.UNSPECIFIED.,.F.,.F.,.F.,(2,2),(2,2),(-1.8E+03,1.8E+03),(0.,1.),
  .PIECEWISE_BEZIER_KNOTS.);
#33 = CARTESIAN_POINT('',(0.,-1.325E+03,3.6E+03));
#34 = CARTESIAN_POINT('',(1.8E+03,-300.,2.4E+03));
#35 = CARTESIAN_POINT('',(0.,-1.325E+03,0.));
#36 = CARTESIAN_POINT('',(1.8E+03,-300.,0.));
#37 = DEFINITIONAL_REPRESENTATION('',(#38),#42);
#38 = LINE('',#39,#40);
#39 = CARTESIAN_POINT('',(0.,0.));
#40 = VECTOR('',#41,1.);
#41 = DIRECTION('',(-1.,0.));
#42 = ( GEOMETRIC_REPRESENTATION_CONTEXT(2) 
PARAMETRIC_REPRESENTATION_CONTEXT() REPRESENTATION_CONTEXT('2D SPACE',''
  ) );
#43 = PCURVE('',#44,#49);
#44 = PLANE('',#45);
#45 = AXIS2_PLACEMENT_3D('',#46,#47,#48);
#46 = CARTESIAN_POINT('',(0.,-1.325E+03,0.));
#47 = DIRECTION('',(1.,0.,0.));
#48 = DIRECTION('',(-0.,0.592817428422,0.805336883894));
#49 = DEFINITIONAL_REPRESENTATION('',(#50),#54);
#50 = LINE('',#51,#52);
#51 = CARTESIAN_POINT('',(1.449606391009E+03,1.067071371159E+03));
#52 = VECTOR('',#53,1.);
#53 = DIRECTION('',(0.805336883894,0.592817428422));
#54 = ( GEOMETRIC_REPRESENTATION_CONTEXT(2) 
PARAMETRIC_REPRESENTATION_CONTEXT() REPRESENTATION_CONTEXT('2D SPACE',''
  ) );
#55 = ORIENTED_EDGE('',*,*,#56,.T.);
#56 = EDGE_CURVE('',#22,#57,#59,.T.);
#57 = VERTEX_POINT('',#58);
#58 = CARTESIAN_POINT('',(1.8E+03,-300.,0.));
#59 = SURFACE_CURVE('',#60,(#63,#70),.PCURVE_S1.);
#60 = B_SPLINE_CURVE_WITH_KNOTS('',1,(#61,#62),.UNSPECIFIED.,.F.,.F.,(2,
    2),(0.,1.),.PIECEWISE_BEZIER_KNOTS.);
#61 = CARTESIAN_POINT('',(0.,-1.325E+03,0.));
#62 = CARTESIAN_POINT('',(1.8E+03,-300.,0.));
#63 = PCURVE('',#32,#64);
#64 = DEFINITIONAL_REPRESENTATION('',(#65),#69);
#65 = LINE('',#66,#67);
#66 = CARTESIAN_POINT('',(1.8E+03,0.));
#67 = VECTOR('',#68,1.);
#68 = DIRECTION('',(0.,1.));
#69 = ( GEOMETRIC_REPRESENTATION_CONTEXT(2) 
PARAMETRIC_REPRESENTATION_CONTEXT() REPRESENTATION_CONTEXT('2D SPACE',''
  ) );
#70 = PCURVE('',#71,#76);
#71 = B_SPLINE_SURFACE_WITH_KNOTS('',1,1,(
    (#72,#73)
    ,(#74,#75
    )),.UNSPECIFIED.,.F.,.F.,.F.,(2,2),(2,2),(-1.325E+03,1.325E+03),(0.,
    1.),.PIECEWISE_BEZIER_KNOTS.);
#72 = CARTESIAN_POINT('',(0.,-1.325E+03,0.));
#73 = CARTESIAN_POINT('',(1.8E+03,-300.,0.));
#74 = CARTESIAN_POINT('',(0.,1.325E+03,0.));
#75 = CARTESIAN_POINT('',(1.8E+03,300.,0.));
#76 = DEFINITIONAL_REPRESENTATION('',(#77),#81);
#77 = LINE('',#78,#79);
#78 = CARTESIAN_POINT('',(-1.325E+03,0.));
#79 = VECTOR('',#80,1.);
#80 = DIRECTION('',(0.,1.));
#81 = ( GEOMETRIC_REPRESENTATION_CONTEXT(2) 
PARAMETRIC_REPRESENTATION_CONTEXT() REPRESENTATION_CONTEXT('2D SPACE',''
  ) );
#82 = ORIENTED_EDGE('',*,*,#83,.T.);
#83 = EDGE_CURVE('',#57,#84,#86,.T.);
#84 = VERTEX_POINT('',#85);
#85 = CARTESIAN_POINT('',(1.8E+03,-300.,940.));
#86 = SURFACE_CURVE('',#87,(#91,#97),.PCURVE_S1.);
#87 = LINE('',#88,#89);
#88 = CARTESIAN_POINT('',(1.8E+03,-300.,1.2E+03));
#89 = VECTOR('',#90,1.);
#90 = DIRECTION('',(0.,0.,1.));
#91 = PCURVE('',#32,#92);
#92 = DEFINITIONAL_REPRESENTATION('',(#93),#96);
#93 = B_SPLINE_CURVE_WITH_KNOTS('',1,(#94,#95),.UNSPECIFIED.,.F.,.F.,(2,
    2),(-1.2E+03,1.2E+03),.PIECEWISE_BEZIER_KNOTS.);
#94 = CARTESIAN_POINT('',(1.8E+03,1.));
#95 = CARTESIAN_POINT('',(-1.8E+03,1.));
#96 = ( GEOMETRIC_REPRESENTATION_CONTEXT(2) 
PARAMETRIC_REPRESENTATION_CONTEXT() REPRESENTATION_CONTEXT('2D SPACE',''
  ) );
#97 = PCURVE('',#98,#103);
#98 = PLANE('',#99);
#99 = AXIS2_PLACEMENT_3D('',#100,#101,#102);
#100 = CARTESIAN_POINT('',(1.8E+03,-300.,0.));
#101 = DIRECTION('',(1.,0.,0.));
#102 = DIRECTION('',(-0.,0.242535625036,0.970142500145));
#103 = DEFINITIONAL_REPRESENTATION('',(#104),#108);
#104 = LINE('',#105,#106);
#105 = CARTESIAN_POINT('',(1.164171000174E+03,291.0427500436));
#106 = VECTOR('',#107,1.);
#107 = DIRECTION('',(0.970142500145,0.242535625036));
#108 = ( GEOMETRIC_REPRESENTATION_CONTEXT(2) 
PARAMETRIC_REPRESENTATION_CONTEXT() REPRESENTATION_CONTEXT('2D SPACE',''
  ) );
#109 = ORIENTED_EDGE('',*,*,#110,.F.);
#110 = EDGE_CURVE('',#111,#84,#113,.T.);
#111 = VERTEX_POINT('',#112);
#112 = CARTESIAN_POINT('',(1.6E+03,-413.8888888888,940.));
#113 = SURFACE_CURVE('',#114,(#121,#131),.PCURVE_S1.);
#114 = B_SPLINE_CURVE_WITH_KNOTS('',5,(#115,#116,#117,#118,#119,#120),
  .UNSPECIFIED.,.F.,.F.,(6,6),(0.,1.),.PIECEWISE_BEZIER_KNOTS.);
#115 = CARTESIAN_POINT('',(1.6E+03,-413.8888888888,940.));
#116 = CARTESIAN_POINT('',(1.640196130124E+03,-390.9994259018,940.));
#117 = CARTESIAN_POINT('',(1.680301523173E+03,-368.1616326376,940.));
#118 = CARTESIAN_POINT('',(1.72030931657E+03,-345.3794169533,940.));
#119 = CARTESIAN_POINT('',(1.760211716255E+03,-322.6572171328,940.));
#120 = CARTESIAN_POINT('',(1.8E+03,-300.,940.));
#121 = PCURVE('',#32,#122);
#122 = DEFINITIONAL_REPRESENTATION('',(#123),#130);
#123 = B_SPLINE_CURVE_WITH_KNOTS('',5,(#124,#125,#126,#127,#128,#129),
  .UNSPECIFIED.,.F.,.F.,(6,6),(0.,1.),.PIECEWISE_BEZIER_KNOTS.);
#124 = CARTESIAN_POINT('',(464.21052631579,0.888888888889));
#125 = CARTESIAN_POINT('',(450.08064013104,0.911220072291));
#126 = CARTESIAN_POINT('',(435.60898763115,0.933500846207));
#127 = CARTESIAN_POINT('',(420.78159353857,0.955727398094));
#128 = CARTESIAN_POINT('',(405.58374446697,0.977895397919));
#129 = CARTESIAN_POINT('',(390.,1.));
#130 = ( GEOMETRIC_REPRESENTATION_CONTEXT(2) 
PARAMETRIC_REPRESENTATION_CONTEXT() REPRESENTATION_CONTEXT('2D SPACE',''
  ) );
#131 = PCURVE('',#132,#137);
#132 = PLANE('',#133);
#133 = AXIS2_PLACEMENT_3D('',#134,#135,#136);
#134 = CARTESIAN_POINT('',(1.6E+03,-600.,940.));
#135 = DIRECTION('',(0.,0.,1.));
#136 = DIRECTION('',(0.,1.,0.));
#137 = DEFINITIONAL_REPRESENTATION('',(#138),#145);
#138 = B_SPLINE_CURVE_WITH_KNOTS('',5,(#139,#140,#141,#142,#143,#144),
  .UNSPECIFIED.,.F.,.F.,(6,6),(0.,1.),.PIECEWISE_BEZIER_KNOTS.);
#139 = CARTESIAN_POINT('',(186.11111111111,0.));
#140 = CARTESIAN_POINT('',(209.00057409819,-40.19613012365));
#141 = CARTESIAN_POINT('',(231.83836736238,-80.30152317297));
#142 = CARTESIAN_POINT('',(254.62058304662,-120.3093165696));
#143 = CARTESIAN_POINT('',(277.34278286717,-160.2117162545));
#144 = CARTESIAN_POINT('',(300.,-200.));
#145 = ( GEOMETRIC_REPRESENTATION_CONTEXT(2) 
PARAMETRIC_REPRESENTATION_CONTEXT() REPRESENTATION_CONTEXT('2D SPACE',''
  ) );
#146 = ORIENTED_EDGE('',*,*,#147,.T.);
#147 = EDGE_CURVE('',#111,#148,#150,.T.);
#148 = VERTEX_POINT('',#149);
#149 = CARTESIAN_POINT('',(1.6E+03,-413.8888888888,1.94E+03));
#150 = SURFACE_CURVE('',#151,(#154,#160),.PCURVE_S1.);
#151 = B_SPLINE_CURVE_WITH_KNOTS('',1,(#152,#153),.UNSPECIFIED.,.F.,.F.,
  (2,2),(0.,1.),.PIECEWISE_BEZIER_KNOTS.);
#152 = CARTESIAN_POINT('',(1.6E+03,-413.8888888888,940.));
#153 = CARTESIAN_POINT('',(1.6E+03,-413.8888888888,1.94E+03));
#154 = PCURVE('',#32,#155);
#155 = DEFINITIONAL_REPRESENTATION('',(#156),#159);
#156 = B_SPLINE_CURVE_WITH_KNOTS('',1,(#157,#158),.UNSPECIFIED.,.F.,.F.,
  (2,2),(0.,1.),.PIECEWISE_BEZIER_KNOTS.);
#157 = CARTESIAN_POINT('',(464.21052631579,0.888888888889));
#158 = CARTESIAN_POINT('',(-956.8421052631,0.888888888889));
#159 = ( GEOMETRIC_REPRESENTATION_CONTEXT(2) 
PARAMETRIC_REPRESENTATION_CONTEXT() REPRESENTATION_CONTEXT('2D SPACE',''
  ) );
#160 = PCURVE('',#161,#166);
#161 = PLANE('',#162);
#162 = AXIS2_PLACEMENT_3D('',#163,#164,#165);
#163 = CARTESIAN_POINT('',(1.6E+03,0.,1.44E+03));
#164 = DIRECTION('',(1.,0.,0.));
#165 = DIRECTION('',(0.,1.,0.));
#166 = DEFINITIONAL_REPRESENTATION('',(#167),#170);
#167 = B_SPLINE_CURVE_WITH_KNOTS('',1,(#168,#169),.UNSPECIFIED.,.F.,.F.,
  (2,2),(0.,1.),.PIECEWISE_BEZIER_KNOTS.);
#168 = CARTESIAN_POINT('',(-413.8888888888,-500.));
#169 = CARTESIAN_POINT('',(-413.8888888888,500.));
#170 = ( GEOMETRIC_REPRESENTATION_CONTEXT(2) 
PARAMETRIC_REPRESENTATION_CONTEXT() REPRESENTATION_CONTEXT('2D SPACE',''
  ) );
#171 = ORIENTED_EDGE('',*,*,#172,.T.);
#172 = EDGE_CURVE('',#148,#173,#175,.T.);
#173 = VERTEX_POINT('',#174);
#174 = CARTESIAN_POINT('',(1.8E+03,-300.,1.94E+03));
#175 = SURFACE_CURVE('',#176,(#183,#193),.PCURVE_S1.);
#176 = B_SPLINE_CURVE_WITH_KNOTS('',5,(#177,#178,#179,#180,#181,#182),
  .UNSPECIFIED.,.F.,.F.,(6,6),(0.,1.),.PIECEWISE_BEZIER_KNOTS.);
#177 = CARTESIAN_POINT('',(1.6E+03,-413.8888888888,1.94E+03));
#178 = CARTESIAN_POINT('',(1.640648597131E+03,-390.741771078,1.94E+03));
#179 = CARTESIAN_POINT('',(1.680988037783E+03,-367.7707007067,1.94E+03)
  );
#180 = CARTESIAN_POINT('',(1.721003277764E+03,-344.9842446068,1.94E+03)
  );
#181 = CARTESIAN_POINT('',(1.76067901431E+03,-322.391116851,1.94E+03));
#182 = CARTESIAN_POINT('',(1.8E+03,-300.,1.94E+03));
#183 = PCURVE('',#32,#184);
#184 = DEFINITIONAL_REPRESENTATION('',(#185),#192);
#185 = B_SPLINE_CURVE_WITH_KNOTS('',5,(#186,#187,#188,#189,#190,#191),
  .UNSPECIFIED.,.F.,.F.,(6,6),(0.,1.),.PIECEWISE_BEZIER_KNOTS.);
#186 = CARTESIAN_POINT('',(-956.8421052631,0.888888888889));
#187 = CARTESIAN_POINT('',(-986.3320431819,0.911471442851));
#188 = CARTESIAN_POINT('',(-1.016386327662E+03,0.933882243213));
#189 = CARTESIAN_POINT('',(-1.047012230638E+03,0.956112932091));
#190 = CARTESIAN_POINT('',(-1.078215536567E+03,0.97815500795));
#191 = CARTESIAN_POINT('',(-1.11E+03,1.));
#192 = ( GEOMETRIC_REPRESENTATION_CONTEXT(2) 
PARAMETRIC_REPRESENTATION_CONTEXT() REPRESENTATION_CONTEXT('2D SPACE',''
  ) );
#193 = PCURVE('',#194,#199);
#194 = PLANE('',#195);
#195 = AXIS2_PLACEMENT_3D('',#196,#197,#198);
#196 = CARTESIAN_POINT('',(1.6E+03,-600.,1.94E+03));
#197 = DIRECTION('',(0.,0.,1.));
#198 = DIRECTION('',(0.,1.,0.));
#199 = DEFINITIONAL_REPRESENTATION('',(#200),#207);
#200 = B_SPLINE_CURVE_WITH_KNOTS('',5,(#201,#202,#203,#204,#205,#206),
  .UNSPECIFIED.,.F.,.F.,(6,6),(0.,1.),.PIECEWISE_BEZIER_KNOTS.);
#201 = CARTESIAN_POINT('',(186.11111111111,0.));
#202 = CARTESIAN_POINT('',(209.25822892195,-40.64859713122));
#203 = CARTESIAN_POINT('',(232.22929929323,-80.98803778323));
#204 = CARTESIAN_POINT('',(255.01575539314,-121.0032777635));
#205 = CARTESIAN_POINT('',(277.60888314892,-160.6790143103));
#206 = CARTESIAN_POINT('',(300.,-200.));
#207 = ( GEOMETRIC_REPRESENTATION_CONTEXT(2) 
PARAMETRIC_REPRESENTATION_CONTEXT() REPRESENTATION_CONTEXT('2D SPACE',''
  ) );
#208 = ORIENTED_EDGE('',*,*,#209,.T.);
#209 = EDGE_CURVE('',#173,#210,#212,.T.);
#210 = VERTEX_POINT('',#211);
#211 = CARTESIAN_POINT('',(1.8E+03,-300.,2.4E+03));
#212 = SURFACE_CURVE('',#213,(#217,#223),.PCURVE_S1.);
#213 = LINE('',#214,#215);
#214 = CARTESIAN_POINT('',(1.8E+03,-300.,1.2E+03));
#215 = VECTOR('',#216,1.);
#216 = DIRECTION('',(0.,0.,1.));
#217 = PCURVE('',#32,#218);
#218 = DEFINITIONAL_REPRESENTATION('',(#219),#222);
#219 = B_SPLINE_CURVE_WITH_KNOTS('',1,(#220,#221),.UNSPECIFIED.,.F.,.F.,
  (2,2),(-1.2E+03,1.2E+03),.PIECEWISE_BEZIER_KNOTS.);
#220 = CARTESIAN_POINT('',(1.8E+03,1.));
#221 = CARTESIAN_POINT('',(-1.8E+03,1.));
#222 = ( GEOMETRIC_REPRESENTATION_CONTEXT(2) 
PARAMETRIC_REPRESENTATION_CONTEXT() REPRESENTATION_CONTEXT('2D SPACE',''
  ) );
#223 = PCURVE('',#224,#229);
#224 = PLANE('',#225);
#225 = AXIS2_PLACEMENT_3D('',#226,#227,#228);
#226 = CARTESIAN_POINT('',(1.8E+03,-300.,0.));
#227 = DIRECTION('',(1.,0.,0.));
#228 = DIRECTION('',(-0.,0.242535625036,0.970142500145));
#229 = DEFINITIONAL_REPRESENTATION('',(#230),#234);
#230 = LINE('',#231,#232);
#231 = CARTESIAN_POINT('',(1.164171000174E+03,291.0427500436));
#232 = VECTOR('',#233,1.);
#233 = DIRECTION('',(0.970142500145,0.242535625036));
#234 = ( GEOMETRIC_REPRESENTATION_CONTEXT(2) 
PARAMETRIC_REPRESENTATION_CONTEXT() REPRESENTATION_CONTEXT('2D SPACE',''
  ) );
#235 = ORIENTED_EDGE('',*,*,#236,.F.);
#236 = EDGE_CURVE('',#24,#210,#237,.T.);
#237 = SURFACE_CURVE('',#238,(#241,#248),.PCURVE_S1.);
#238 = B_SPLINE_CURVE_WITH_KNOTS('',1,(#239,#240),.UNSPECIFIED.,.F.,.F.,
  (2,2),(0.,1.),.PIECEWISE_BEZIER_KNOTS.);
#239 = CARTESIAN_POINT('',(0.,-1.325E+03,3.6E+03));
#240 = CARTESIAN_POINT('',(1.8E+03,-300.,2.4E+03));
#241 = PCURVE('',#32,#242);
#242 = DEFINITIONAL_REPRESENTATION('',(#243),#247);
#243 = LINE('',#244,#245);
#244 = CARTESIAN_POINT('',(-1.8E+03,0.));
#245 = VECTOR('',#246,1.);
#246 = DIRECTION('',(0.,1.));
#247 = ( GEOMETRIC_REPRESENTATION_CONTEXT(2) 
PARAMETRIC_REPRESENTATION_CONTEXT() REPRESENTATION_CONTEXT('2D SPACE',''
  ) );
#248 = PCURVE('',#249,#254);
#249 = B_SPLINE_SURFACE_WITH_KNOTS('',1,1,(
    (#250,#251)
    ,(#252,#253
    )),.UNSPECIFIED.,.F.,.F.,.F.,(2,2),(2,2),(-1.325E+03,1.325E+03),(0.,
    1.),.PIECEWISE_BEZIER_KNOTS.);
#250 = CARTESIAN_POINT('',(0.,1.325E+03,3.6E+03));
#251 = CARTESIAN_POINT('',(1.8E+03,300.,2.4E+03));
#252 = CARTESIAN_POINT('',(0.,-1.325E+03,3.6E+03));
#253 = CARTESIAN_POINT('',(1.8E+03,-300.,2.4E+03));
#254 = DEFINITIONAL_REPRESENTATION('',(#255),#259);
#255 = LINE('',#256,#257);
#256 = CARTESIAN_POINT('',(1.325E+03,0.));
#257 = VECTOR('',#258,1.);
#258 = DIRECTION('',(0.,1.));
#259 = ( GEOMETRIC_REPRESENTATION_CONTEXT(2) 
PARAMETRIC_REPRESENTATION_CONTEXT() REPRESENTATION_CONTEXT('2D SPACE',''
  ) );
#260 = ADVANCED_FACE('',(#261),#44,.F.);
#261 = FACE_BOUND('',#262,.F.);
#262 = EDGE_LOOP('',(#263,#264,#287,#315));
#263 = ORIENTED_EDGE('',*,*,#21,.F.);
#264 = ORIENTED_EDGE('',*,*,#265,.T.);
#265 = EDGE_CURVE('',#22,#266,#268,.T.);
#266 = VERTEX_POINT('',#267);
#267 = CARTESIAN_POINT('',(0.,1.325E+03,0.));
#268 = SURFACE_CURVE('',#269,(#273,#280),.PCURVE_S1.);
#269 = LINE('',#270,#271);
#270 = CARTESIAN_POINT('',(0.,0.,0.));
#271 = VECTOR('',#272,1.);
#272 = DIRECTION('',(0.,1.,0.));
#273 = PCURVE('',#44,#274);
#274 = DEFINITIONAL_REPRESENTATION('',(#275),#279);
#275 = LINE('',#276,#277);
#276 = CARTESIAN_POINT('',(785.48309265874,-1.067071371159E+03));
#277 = VECTOR('',#278,1.);
#278 = DIRECTION('',(0.592817428422,-0.805336883894));
#279 = ( GEOMETRIC_REPRESENTATION_CONTEXT(2) 
PARAMETRIC_REPRESENTATION_CONTEXT() REPRESENTATION_CONTEXT('2D SPACE',''
  ) );
#280 = PCURVE('',#71,#281);
#281 = DEFINITIONAL_REPRESENTATION('',(#282),#286);
#282 = LINE('',#283,#284);
#283 = CARTESIAN_POINT('',(0.,0.));
#284 = VECTOR('',#285,1.);
#285 = DIRECTION('',(1.,0.));
#286 = ( GEOMETRIC_REPRESENTATION_CONTEXT(2) 
PARAMETRIC_REPRESENTATION_CONTEXT() REPRESENTATION_CONTEXT('2D SPACE',''
  ) );
#287 = ORIENTED_EDGE('',*,*,#288,.T.);
#288 = EDGE_CURVE('',#266,#289,#291,.T.);
#289 = VERTEX_POINT('',#290);
#290 = CARTESIAN_POINT('',(0.,1.325E+03,3.6E+03));
#291 = SURFACE_CURVE('',#292,(#296,#303),.PCURVE_S1.);
#292 = LINE('',#293,#294);
#293 = CARTESIAN_POINT('',(0.,1.325E+03,1.8E+03));
#294 = VECTOR('',#295,1.);
#295 = DIRECTION('',(0.,0.,1.));
#296 = PCURVE('',#44,#297);
#297 = DEFINITIONAL_REPRESENTATION('',(#298),#302);
#298 = LINE('',#299,#300);
#299 = CARTESIAN_POINT('',(3.020572576326E+03,-1.067071371159E+03));
#300 = VECTOR('',#301,1.);
#301 = DIRECTION('',(0.805336883894,0.592817428422));
#302 = ( GEOMETRIC_REPRESENTATION_CONTEXT(2) 
PARAMETRIC_REPRESENTATION_CONTEXT() REPRESENTATION_CONTEXT('2D SPACE',''
  ) );
#303 = PCURVE('',#304,#309);
#304 = B_SPLINE_SURFACE_WITH_KNOTS('',1,1,(
    (#305,#306)
    ,(#307,#308
    )),.UNSPECIFIED.,.F.,.F.,.F.,(2,2),(2,2),(-1.8E+03,1.8E+03),(0.,1.),
  .PIECEWISE_BEZIER_KNOTS.);
#305 = CARTESIAN_POINT('',(0.,1.325E+03,0.));
#306 = CARTESIAN_POINT('',(1.8E+03,300.,0.));
#307 = CARTESIAN_POINT('',(0.,1.325E+03,3.6E+03));
#308 = CARTESIAN_POINT('',(1.8E+03,300.,2.4E+03));
#309 = DEFINITIONAL_REPRESENTATION('',(#310),#314);
#310 = LINE('',#311,#312);
#311 = CARTESIAN_POINT('',(0.,0.));
#312 = VECTOR('',#313,1.);
#313 = DIRECTION('',(1.,0.));
#314 = ( GEOMETRIC_REPRESENTATION_CONTEXT(2) 
PARAMETRIC_REPRESENTATION_CONTEXT() REPRESENTATION_CONTEXT('2D SPACE',''
  ) );
#315 = ORIENTED_EDGE('',*,*,#316,.F.);
#316 = EDGE_CURVE('',#24,#289,#317,.T.);
#317 = SURFACE_CURVE('',#318,(#322,#329),.PCURVE_S1.);
#318 = LINE('',#319,#320);
#319 = CARTESIAN_POINT('',(0.,0.,3.6E+03));
#320 = VECTOR('',#321,1.);
#321 = DIRECTION('',(0.,1.,0.));
#322 = PCURVE('',#44,#323);
#323 = DEFINITIONAL_REPRESENTATION('',(#324),#328);
#324 = LINE('',#325,#326);
#325 = CARTESIAN_POINT('',(3.684695874676E+03,1.067071371159E+03));
#326 = VECTOR('',#327,1.);
#327 = DIRECTION('',(0.592817428422,-0.805336883894));
#328 = ( GEOMETRIC_REPRESENTATION_CONTEXT(2) 
PARAMETRIC_REPRESENTATION_CONTEXT() REPRESENTATION_CONTEXT('2D SPACE',''
  ) );
#329 = PCURVE('',#249,#330);
#330 = DEFINITIONAL_REPRESENTATION('',(#331),#335);
#331 = LINE('',#332,#333);
#332 = CARTESIAN_POINT('',(0.,0.));
#333 = VECTOR('',#334,1.);
#334 = DIRECTION('',(-1.,0.));
#335 = ( GEOMETRIC_REPRESENTATION_CONTEXT(2) 
PARAMETRIC_REPRESENTATION_CONTEXT() REPRESENTATION_CONTEXT('2D SPACE',''
  ) );
#336 = ADVANCED_FACE('',(#337),#249,.T.);
#337 = FACE_BOUND('',#338,.T.);
#338 = EDGE_LOOP('',(#339,#340,#341,#363));
#339 = ORIENTED_EDGE('',*,*,#316,.F.);
#340 = ORIENTED_EDGE('',*,*,#236,.T.);
#341 = ORIENTED_EDGE('',*,*,#342,.T.);
#342 = EDGE_CURVE('',#210,#343,#345,.T.);
#343 = VERTEX_POINT('',#344);
#344 = CARTESIAN_POINT('',(1.8E+03,300.,2.4E+03));
#345 = SURFACE_CURVE('',#346,(#350,#356),.PCURVE_S1.);
#346 = LINE('',#347,#348);
#347 = CARTESIAN_POINT('',(1.8E+03,0.,2.4E+03));
#348 = VECTOR('',#349,1.);
#349 = DIRECTION('',(0.,1.,0.));
#350 = PCURVE('',#249,#351);
#351 = DEFINITIONAL_REPRESENTATION('',(#352),#355);
#352 = B_SPLINE_CURVE_WITH_KNOTS('',1,(#353,#354),.UNSPECIFIED.,.F.,.F.,
  (2,2),(-300.,300.),.PIECEWISE_BEZIER_KNOTS.);
#353 = CARTESIAN_POINT('',(1.325E+03,1.));
#354 = CARTESIAN_POINT('',(-1.325E+03,1.));
#355 = ( GEOMETRIC_REPRESENTATION_CONTEXT(2) 
PARAMETRIC_REPRESENTATION_CONTEXT() REPRESENTATION_CONTEXT('2D SPACE',''
  ) );
#356 = PCURVE('',#224,#357);
#357 = DEFINITIONAL_REPRESENTATION('',(#358),#362);
#358 = LINE('',#359,#360);
#359 = CARTESIAN_POINT('',(2.40110268786E+03,291.0427500436));
#360 = VECTOR('',#361,1.);
#361 = DIRECTION('',(0.242535625036,-0.970142500145));
#362 = ( GEOMETRIC_REPRESENTATION_CONTEXT(2) 
PARAMETRIC_REPRESENTATION_CONTEXT() REPRESENTATION_CONTEXT('2D SPACE',''
  ) );
#363 = ORIENTED_EDGE('',*,*,#364,.F.);
#364 = EDGE_CURVE('',#289,#343,#365,.T.);
#365 = SURFACE_CURVE('',#366,(#369,#376),.PCURVE_S1.);
#366 = B_SPLINE_CURVE_WITH_KNOTS('',1,(#367,#368),.UNSPECIFIED.,.F.,.F.,
  (2,2),(0.,1.),.PIECEWISE_BEZIER_KNOTS.);
#367 = CARTESIAN_POINT('',(0.,1.325E+03,3.6E+03));
#368 = CARTESIAN_POINT('',(1.8E+03,300.,2.4E+03));
#369 = PCURVE('',#249,#370);
#370 = DEFINITIONAL_REPRESENTATION('',(#371),#375);
#371 = LINE('',#372,#373);
#372 = CARTESIAN_POINT('',(-1.325E+03,0.));
#373 = VECTOR('',#374,1.);
#374 = DIRECTION('',(0.,1.));
#375 = ( GEOMETRIC_REPRESENTATION_CONTEXT(2) 
PARAMETRIC_REPRESENTATION_CONTEXT() REPRESENTATION_CONTEXT('2D SPACE',''
  ) );
#376 = PCURVE('',#304,#377);
#377 = DEFINITIONAL_REPRESENTATION('',(#378),#382);
#378 = LINE('',#379,#380);
#379 = CARTESIAN_POINT('',(1.8E+03,0.));
#380 = VECTOR('',#381,1.);
#381 = DIRECTION('',(0.,1.));
#382 = ( GEOMETRIC_REPRESENTATION_CONTEXT(2) 
PARAMETRIC_REPRESENTATION_CONTEXT() REPRESENTATION_CONTEXT('2D SPACE',''
  ) );
#383 = ADVANCED_FACE('',(#384),#224,.T.);
#384 = FACE_BOUND('',#385,.T.);
#385 = EDGE_LOOP('',(#386,#387,#408,#428));
#386 = ORIENTED_EDGE('',*,*,#209,.F.);
#387 = ORIENTED_EDGE('',*,*,#388,.F.);
#388 = EDGE_CURVE('',#389,#173,#391,.T.);
#389 = VERTEX_POINT('',#390);
#390 = CARTESIAN_POINT('',(1.8E+03,300.,1.94E+03));
#391 = SURFACE_CURVE('',#392,(#396,#402),.PCURVE_S1.);
#392 = LINE('',#393,#394);
#393 = CARTESIAN_POINT('',(1.8E+03,-450.,1.94E+03));
#394 = VECTOR('',#395,1.);
#395 = DIRECTION('',(0.,-1.,0.));
#396 = PCURVE('',#224,#397);
#397 = DEFINITIONAL_REPRESENTATION('',(#398),#401);
#398 = B_SPLINE_CURVE_WITH_KNOTS('',1,(#399,#400),.UNSPECIFIED.,.F.,.F.,
  (2,2),(-1.05E+03,-35.),.PIECEWISE_BEZIER_KNOTS.);
#399 = CARTESIAN_POINT('',(2.100358512815E+03,-402.6091375603));
#400 = CARTESIAN_POINT('',(1.854184853403E+03,582.08550008719));
#401 = ( GEOMETRIC_REPRESENTATION_CONTEXT(2) 
PARAMETRIC_REPRESENTATION_CONTEXT() REPRESENTATION_CONTEXT('2D SPACE',''
  ) );
#402 = PCURVE('',#194,#403);
#403 = DEFINITIONAL_REPRESENTATION('',(#404),#407);
#404 = B_SPLINE_CURVE_WITH_KNOTS('',1,(#405,#406),.UNSPECIFIED.,.F.,.F.,
  (2,2),(-1.05E+03,-35.),.PIECEWISE_BEZIER_KNOTS.);
#405 = CARTESIAN_POINT('',(1.2E+03,-200.));
#406 = CARTESIAN_POINT('',(185.,-200.));
#407 = ( GEOMETRIC_REPRESENTATION_CONTEXT(2) 
PARAMETRIC_REPRESENTATION_CONTEXT() REPRESENTATION_CONTEXT('2D SPACE',''
  ) );
#408 = ORIENTED_EDGE('',*,*,#409,.T.);
#409 = EDGE_CURVE('',#389,#343,#410,.T.);
#410 = SURFACE_CURVE('',#411,(#415,#422),.PCURVE_S1.);
#411 = LINE('',#412,#413);
#412 = CARTESIAN_POINT('',(1.8E+03,300.,1.2E+03));
#413 = VECTOR('',#414,1.);
#414 = DIRECTION('',(0.,0.,1.));
#415 = PCURVE('',#224,#416);
#416 = DEFINITIONAL_REPRESENTATION('',(#417),#421);
#417 = LINE('',#418,#419);
#418 = CARTESIAN_POINT('',(1.309692375196E+03,-291.0427500436));
#419 = VECTOR('',#420,1.);
#420 = DIRECTION('',(0.970142500145,0.242535625036));
#421 = ( GEOMETRIC_REPRESENTATION_CONTEXT(2) 
PARAMETRIC_REPRESENTATION_CONTEXT() REPRESENTATION_CONTEXT('2D SPACE',''
  ) );
#422 = PCURVE('',#304,#423);
#423 = DEFINITIONAL_REPRESENTATION('',(#424),#427);
#424 = B_SPLINE_CURVE_WITH_KNOTS('',1,(#425,#426),.UNSPECIFIED.,.F.,.F.,
  (2,2),(-1.2E+03,1.2E+03),.PIECEWISE_BEZIER_KNOTS.);
#425 = CARTESIAN_POINT('',(-1.8E+03,1.));
#426 = CARTESIAN_POINT('',(1.8E+03,1.));
#427 = ( GEOMETRIC_REPRESENTATION_CONTEXT(2) 
PARAMETRIC_REPRESENTATION_CONTEXT() REPRESENTATION_CONTEXT('2D SPACE',''
  ) );
#428 = ORIENTED_EDGE('',*,*,#342,.F.);
#429 = ADVANCED_FACE('',(#430),#194,.F.);
#430 = FACE_BOUND('',#431,.F.);
#431 = EDGE_LOOP('',(#432,#455,#456,#457));
#432 = ORIENTED_EDGE('',*,*,#433,.F.);
#433 = EDGE_CURVE('',#148,#434,#436,.T.);
#434 = VERTEX_POINT('',#435);
#435 = CARTESIAN_POINT('',(1.6E+03,413.88888888888,1.94E+03));
#436 = SURFACE_CURVE('',#437,(#441,#448),.PCURVE_S1.);
#437 = LINE('',#438,#439);
#438 = CARTESIAN_POINT('',(1.6E+03,0.,1.94E+03));
#439 = VECTOR('',#440,1.);
#440 = DIRECTION('',(0.,1.,0.));
#441 = PCURVE('',#194,#442);
#442 = DEFINITIONAL_REPRESENTATION('',(#443),#447);
#443 = LINE('',#444,#445);
#444 = CARTESIAN_POINT('',(600.,0.));
#445 = VECTOR('',#446,1.);
#446 = DIRECTION('',(1.,0.));
#447 = ( GEOMETRIC_REPRESENTATION_CONTEXT(2) 
PARAMETRIC_REPRESENTATION_CONTEXT() REPRESENTATION_CONTEXT('2D SPACE',''
  ) );
#448 = PCURVE('',#161,#449);
#449 = DEFINITIONAL_REPRESENTATION('',(#450),#454);
#450 = LINE('',#451,#452);
#451 = CARTESIAN_POINT('',(0.,500.));
#452 = VECTOR('',#453,1.);
#453 = DIRECTION('',(1.,0.));
#454 = ( GEOMETRIC_REPRESENTATION_CONTEXT(2) 
PARAMETRIC_REPRESENTATION_CONTEXT() REPRESENTATION_CONTEXT('2D SPACE',''
  ) );
#455 = ORIENTED_EDGE('',*,*,#172,.T.);
#456 = ORIENTED_EDGE('',*,*,#388,.F.);
#457 = ORIENTED_EDGE('',*,*,#458,.F.);
#458 = EDGE_CURVE('',#434,#389,#459,.T.);
#459 = SURFACE_CURVE('',#460,(#467,#477),.PCURVE_S1.);
#460 = B_SPLINE_CURVE_WITH_KNOTS('',5,(#461,#462,#463,#464,#465,#466),
  .UNSPECIFIED.,.F.,.F.,(6,6),(0.,1.),.PIECEWISE_BEZIER_KNOTS.);
#461 = CARTESIAN_POINT('',(1.6E+03,413.88888888888,1.94E+03));
#462 = CARTESIAN_POINT('',(1.640648597131E+03,390.74177107805,1.94E+03)
  );
#463 = CARTESIAN_POINT('',(1.680988037783E+03,367.77070070676,1.94E+03)
  );
#464 = CARTESIAN_POINT('',(1.721003277764E+03,344.98424460685,1.94E+03)
  );
#465 = CARTESIAN_POINT('',(1.76067901431E+03,322.39111685107,1.94E+03));
#466 = CARTESIAN_POINT('',(1.8E+03,300.,1.94E+03));
#467 = PCURVE('',#194,#468);
#468 = DEFINITIONAL_REPRESENTATION('',(#469),#476);
#469 = B_SPLINE_CURVE_WITH_KNOTS('',5,(#470,#471,#472,#473,#474,#475),
  .UNSPECIFIED.,.F.,.F.,(6,6),(0.,1.),.PIECEWISE_BEZIER_KNOTS.);
#470 = CARTESIAN_POINT('',(1.013888888889E+03,0.));
#471 = CARTESIAN_POINT('',(990.74177107805,-40.64859713122));
#472 = CARTESIAN_POINT('',(967.77070070676,-80.98803778323));
#473 = CARTESIAN_POINT('',(944.98424460685,-121.0032777635));
#474 = CARTESIAN_POINT('',(922.39111685107,-160.6790143103));
#475 = CARTESIAN_POINT('',(900.,-200.));
#476 = ( GEOMETRIC_REPRESENTATION_CONTEXT(2) 
PARAMETRIC_REPRESENTATION_CONTEXT() REPRESENTATION_CONTEXT('2D SPACE',''
  ) );
#477 = PCURVE('',#304,#478);
#478 = DEFINITIONAL_REPRESENTATION('',(#479),#486);
#479 = B_SPLINE_CURVE_WITH_KNOTS('',5,(#480,#481,#482,#483,#484,#485),
  .UNSPECIFIED.,.F.,.F.,(6,6),(0.,1.),.PIECEWISE_BEZIER_KNOTS.);
#480 = CARTESIAN_POINT('',(956.84210526315,0.888888888889));
#481 = CARTESIAN_POINT('',(986.3320431819,0.911471442851));
#482 = CARTESIAN_POINT('',(1.016386327662E+03,0.933882243213));
#483 = CARTESIAN_POINT('',(1.047012230638E+03,0.956112932091));
#484 = CARTESIAN_POINT('',(1.078215536567E+03,0.97815500795));
#485 = CARTESIAN_POINT('',(1.11E+03,1.));
#486 = ( GEOMETRIC_REPRESENTATION_CONTEXT(2) 
PARAMETRIC_REPRESENTATION_CONTEXT() REPRESENTATION_CONTEXT('2D SPACE',''
  ) );
#487 = ADVANCED_FACE('',(#488),#161,.T.);
#488 = FACE_BOUND('',#489,.T.);
#489 = EDGE_LOOP('',(#490,#491,#514,#532));
#490 = ORIENTED_EDGE('',*,*,#147,.F.);
#491 = ORIENTED_EDGE('',*,*,#492,.T.);
#492 = EDGE_CURVE('',#111,#493,#495,.T.);
#493 = VERTEX_POINT('',#494);
#494 = CARTESIAN_POINT('',(1.6E+03,413.88888888888,940.));
#495 = SURFACE_CURVE('',#496,(#500,#507),.PCURVE_S1.);
#496 = LINE('',#497,#498);
#497 = CARTESIAN_POINT('',(1.6E+03,0.,940.));
#498 = VECTOR('',#499,1.);
#499 = DIRECTION('',(0.,1.,0.));
#500 = PCURVE('',#161,#501);
#501 = DEFINITIONAL_REPRESENTATION('',(#502),#506);
#502 = LINE('',#503,#504);
#503 = CARTESIAN_POINT('',(0.,-500.));
#504 = VECTOR('',#505,1.);
#505 = DIRECTION('',(1.,0.));
#506 = ( GEOMETRIC_REPRESENTATION_CONTEXT(2) 
PARAMETRIC_REPRESENTATION_CONTEXT() REPRESENTATION_CONTEXT('2D SPACE',''
  ) );
#507 = PCURVE('',#132,#508);
#508 = DEFINITIONAL_REPRESENTATION('',(#509),#513);
#509 = LINE('',#510,#511);
#510 = CARTESIAN_POINT('',(600.,0.));
#511 = VECTOR('',#512,1.);
#512 = DIRECTION('',(1.,0.));
#513 = ( GEOMETRIC_REPRESENTATION_CONTEXT(2) 
PARAMETRIC_REPRESENTATION_CONTEXT() REPRESENTATION_CONTEXT('2D SPACE',''
  ) );
#514 = ORIENTED_EDGE('',*,*,#515,.F.);
#515 = EDGE_CURVE('',#434,#493,#516,.T.);
#516 = SURFACE_CURVE('',#517,(#520,#526),.PCURVE_S1.);
#517 = B_SPLINE_CURVE_WITH_KNOTS('',1,(#518,#519),.UNSPECIFIED.,.F.,.F.,
  (2,2),(0.,1.),.PIECEWISE_BEZIER_KNOTS.);
#518 = CARTESIAN_POINT('',(1.6E+03,413.88888888888,1.94E+03));
#519 = CARTESIAN_POINT('',(1.6E+03,413.88888888888,940.));
#520 = PCURVE('',#161,#521);
#521 = DEFINITIONAL_REPRESENTATION('',(#522),#525);
#522 = B_SPLINE_CURVE_WITH_KNOTS('',1,(#523,#524),.UNSPECIFIED.,.F.,.F.,
  (2,2),(0.,1.),.PIECEWISE_BEZIER_KNOTS.);
#523 = CARTESIAN_POINT('',(413.88888888888,500.));
#524 = CARTESIAN_POINT('',(413.88888888888,-500.));
#525 = ( GEOMETRIC_REPRESENTATION_CONTEXT(2) 
PARAMETRIC_REPRESENTATION_CONTEXT() REPRESENTATION_CONTEXT('2D SPACE',''
  ) );
#526 = PCURVE('',#304,#527);
#527 = DEFINITIONAL_REPRESENTATION('',(#528),#531);
#528 = B_SPLINE_CURVE_WITH_KNOTS('',1,(#529,#530),.UNSPECIFIED.,.F.,.F.,
  (2,2),(0.,1.),.PIECEWISE_BEZIER_KNOTS.);
#529 = CARTESIAN_POINT('',(956.84210526315,0.888888888889));
#530 = CARTESIAN_POINT('',(-464.2105263157,0.888888888889));
#531 = ( GEOMETRIC_REPRESENTATION_CONTEXT(2) 
PARAMETRIC_REPRESENTATION_CONTEXT() REPRESENTATION_CONTEXT('2D SPACE',''
  ) );
#532 = ORIENTED_EDGE('',*,*,#433,.F.);
#533 = ADVANCED_FACE('',(#534),#132,.T.);
#534 = FACE_BOUND('',#535,.T.);
#535 = EDGE_LOOP('',(#536,#537,#538,#559));
#536 = ORIENTED_EDGE('',*,*,#492,.F.);
#537 = ORIENTED_EDGE('',*,*,#110,.T.);
#538 = ORIENTED_EDGE('',*,*,#539,.F.);
#539 = EDGE_CURVE('',#540,#84,#542,.T.);
#540 = VERTEX_POINT('',#541);
#541 = CARTESIAN_POINT('',(1.8E+03,300.,940.));
#542 = SURFACE_CURVE('',#543,(#547,#553),.PCURVE_S1.);
#543 = LINE('',#544,#545);
#544 = CARTESIAN_POINT('',(1.8E+03,-450.,940.));
#545 = VECTOR('',#546,1.);
#546 = DIRECTION('',(0.,-1.,0.));
#547 = PCURVE('',#132,#548);
#548 = DEFINITIONAL_REPRESENTATION('',(#549),#552);
#549 = B_SPLINE_CURVE_WITH_KNOTS('',1,(#550,#551),.UNSPECIFIED.,.F.,.F.,
  (2,2),(-985.,150.),.PIECEWISE_BEZIER_KNOTS.);
#550 = CARTESIAN_POINT('',(1.135E+03,-200.));
#551 = CARTESIAN_POINT('',(0.,-200.));
#552 = ( GEOMETRIC_REPRESENTATION_CONTEXT(2) 
PARAMETRIC_REPRESENTATION_CONTEXT() REPRESENTATION_CONTEXT('2D SPACE',''
  ) );
#553 = PCURVE('',#98,#554);
#554 = DEFINITIONAL_REPRESENTATION('',(#555),#558);
#555 = B_SPLINE_CURVE_WITH_KNOTS('',1,(#556,#557),.UNSPECIFIED.,.F.,.F.,
  (2,2),(-985.,150.),.PIECEWISE_BEZIER_KNOTS.);
#556 = CARTESIAN_POINT('',(1.114451197042E+03,-582.0855000871));
#557 = CARTESIAN_POINT('',(839.17326262571,519.02623757775));
#558 = ( GEOMETRIC_REPRESENTATION_CONTEXT(2) 
PARAMETRIC_REPRESENTATION_CONTEXT() REPRESENTATION_CONTEXT('2D SPACE',''
  ) );
#559 = ORIENTED_EDGE('',*,*,#560,.F.);
#560 = EDGE_CURVE('',#493,#540,#561,.T.);
#561 = SURFACE_CURVE('',#562,(#569,#579),.PCURVE_S1.);
#562 = B_SPLINE_CURVE_WITH_KNOTS('',5,(#563,#564,#565,#566,#567,#568),
  .UNSPECIFIED.,.F.,.F.,(6,6),(0.,1.),.PIECEWISE_BEZIER_KNOTS.);
#563 = CARTESIAN_POINT('',(1.6E+03,413.88888888888,940.));
#564 = CARTESIAN_POINT('',(1.640196130124E+03,390.9994259018,940.));
#565 = CARTESIAN_POINT('',(1.680301523173E+03,368.16163263761,940.));
#566 = CARTESIAN_POINT('',(1.72030931657E+03,345.37941695338,940.));
#567 = CARTESIAN_POINT('',(1.760211716255E+03,322.65721713282,940.));
#568 = CARTESIAN_POINT('',(1.8E+03,300.,940.));
#569 = PCURVE('',#132,#570);
#570 = DEFINITIONAL_REPRESENTATION('',(#571),#578);
#571 = B_SPLINE_CURVE_WITH_KNOTS('',5,(#572,#573,#574,#575,#576,#577),
  .UNSPECIFIED.,.F.,.F.,(6,6),(0.,1.),.PIECEWISE_BEZIER_KNOTS.);
#572 = CARTESIAN_POINT('',(1.013888888889E+03,0.));
#573 = CARTESIAN_POINT('',(990.9994259018,-40.19613012365));
#574 = CARTESIAN_POINT('',(968.16163263761,-80.30152317297));
#575 = CARTESIAN_POINT('',(945.37941695338,-120.3093165696));
#576 = CARTESIAN_POINT('',(922.65721713282,-160.2117162545));
#577 = CARTESIAN_POINT('',(900.,-200.));
#578 = ( GEOMETRIC_REPRESENTATION_CONTEXT(2) 
PARAMETRIC_REPRESENTATION_CONTEXT() REPRESENTATION_CONTEXT('2D SPACE',''
  ) );
#579 = PCURVE('',#304,#580);
#580 = DEFINITIONAL_REPRESENTATION('',(#581),#588);
#581 = B_SPLINE_CURVE_WITH_KNOTS('',5,(#582,#583,#584,#585,#586,#587),
  .UNSPECIFIED.,.F.,.F.,(6,6),(0.,1.),.PIECEWISE_BEZIER_KNOTS.);
#582 = CARTESIAN_POINT('',(-464.2105263157,0.888888888889));
#583 = CARTESIAN_POINT('',(-450.080640131,0.911220072291));
#584 = CARTESIAN_POINT('',(-435.6089876311,0.933500846207));
#585 = CARTESIAN_POINT('',(-420.7815935385,0.955727398094));
#586 = CARTESIAN_POINT('',(-405.5837444669,0.977895397919));
#587 = CARTESIAN_POINT('',(-390.,1.));
#588 = ( GEOMETRIC_REPRESENTATION_CONTEXT(2) 
PARAMETRIC_REPRESENTATION_CONTEXT() REPRESENTATION_CONTEXT('2D SPACE',''
  ) );
#589 = ADVANCED_FACE('',(#590),#98,.T.);
#590 = FACE_BOUND('',#591,.T.);
#591 = EDGE_LOOP('',(#592,#593,#615,#635));
#592 = ORIENTED_EDGE('',*,*,#83,.F.);
#593 = ORIENTED_EDGE('',*,*,#594,.T.);
#594 = EDGE_CURVE('',#57,#595,#597,.T.);
#595 = VERTEX_POINT('',#596);
#596 = CARTESIAN_POINT('',(1.8E+03,300.,0.));
#597 = SURFACE_CURVE('',#598,(#602,#609),.PCURVE_S1.);
#598 = LINE('',#599,#600);
#599 = CARTESIAN_POINT('',(1.8E+03,0.,0.));
#600 = VECTOR('',#601,1.);
#601 = DIRECTION('',(0.,1.,0.));
#602 = PCURVE('',#98,#603);
#603 = DEFINITIONAL_REPRESENTATION('',(#604),#608);
#604 = LINE('',#605,#606);
#605 = CARTESIAN_POINT('',(72.7606875109,-291.0427500436));
#606 = VECTOR('',#607,1.);
#607 = DIRECTION('',(0.242535625036,-0.970142500145));
#608 = ( GEOMETRIC_REPRESENTATION_CONTEXT(2) 
PARAMETRIC_REPRESENTATION_CONTEXT() REPRESENTATION_CONTEXT('2D SPACE',''
  ) );
#609 = PCURVE('',#71,#610);
#610 = DEFINITIONAL_REPRESENTATION('',(#611),#614);
#611 = B_SPLINE_CURVE_WITH_KNOTS('',1,(#612,#613),.UNSPECIFIED.,.F.,.F.,
  (2,2),(-300.,300.),.PIECEWISE_BEZIER_KNOTS.);
#612 = CARTESIAN_POINT('',(-1.325E+03,1.));
#613 = CARTESIAN_POINT('',(1.325E+03,1.));
#614 = ( GEOMETRIC_REPRESENTATION_CONTEXT(2) 
PARAMETRIC_REPRESENTATION_CONTEXT() REPRESENTATION_CONTEXT('2D SPACE',''
  ) );
#615 = ORIENTED_EDGE('',*,*,#616,.T.);
#616 = EDGE_CURVE('',#595,#540,#617,.T.);
#617 = SURFACE_CURVE('',#618,(#622,#629),.PCURVE_S1.);
#618 = LINE('',#619,#620);
#619 = CARTESIAN_POINT('',(1.8E+03,300.,1.2E+03));
#620 = VECTOR('',#621,1.);
#621 = DIRECTION('',(0.,0.,1.));
#622 = PCURVE('',#98,#623);
#623 = DEFINITIONAL_REPRESENTATION('',(#624),#628);
#624 = LINE('',#625,#626);
#625 = CARTESIAN_POINT('',(1.309692375196E+03,-291.0427500436));
#626 = VECTOR('',#627,1.);
#627 = DIRECTION('',(0.970142500145,0.242535625036));
#628 = ( GEOMETRIC_REPRESENTATION_CONTEXT(2) 
PARAMETRIC_REPRESENTATION_CONTEXT() REPRESENTATION_CONTEXT('2D SPACE',''
  ) );
#629 = PCURVE('',#304,#630);
#630 = DEFINITIONAL_REPRESENTATION('',(#631),#634);
#631 = B_SPLINE_CURVE_WITH_KNOTS('',1,(#632,#633),.UNSPECIFIED.,.F.,.F.,
  (2,2),(-1.2E+03,1.2E+03),.PIECEWISE_BEZIER_KNOTS.);
#632 = CARTESIAN_POINT('',(-1.8E+03,1.));
#633 = CARTESIAN_POINT('',(1.8E+03,1.));
#634 = ( GEOMETRIC_REPRESENTATION_CONTEXT(2) 
PARAMETRIC_REPRESENTATION_CONTEXT() REPRESENTATION_CONTEXT('2D SPACE',''
  ) );
#635 = ORIENTED_EDGE('',*,*,#539,.T.);
#636 = ADVANCED_FACE('',(#637),#71,.T.);
#637 = FACE_BOUND('',#638,.T.);
#638 = EDGE_LOOP('',(#639,#640,#660,#661));
#639 = ORIENTED_EDGE('',*,*,#265,.T.);
#640 = ORIENTED_EDGE('',*,*,#641,.T.);
#641 = EDGE_CURVE('',#266,#595,#642,.T.);
#642 = SURFACE_CURVE('',#643,(#646,#653),.PCURVE_S1.);
#643 = B_SPLINE_CURVE_WITH_KNOTS('',1,(#644,#645),.UNSPECIFIED.,.F.,.F.,
  (2,2),(0.,1.),.PIECEWISE_BEZIER_KNOTS.);
#644 = CARTESIAN_POINT('',(0.,1.325E+03,0.));
#645 = CARTESIAN_POINT('',(1.8E+03,300.,0.));
#646 = PCURVE('',#71,#647);
#647 = DEFINITIONAL_REPRESENTATION('',(#648),#652);
#648 = LINE('',#649,#650);
#649 = CARTESIAN_POINT('',(1.325E+03,0.));
#650 = VECTOR('',#651,1.);
#651 = DIRECTION('',(0.,1.));
#652 = ( GEOMETRIC_REPRESENTATION_CONTEXT(2) 
PARAMETRIC_REPRESENTATION_CONTEXT() REPRESENTATION_CONTEXT('2D SPACE',''
  ) );
#653 = PCURVE('',#304,#654);
#654 = DEFINITIONAL_REPRESENTATION('',(#655),#659);
#655 = LINE('',#656,#657);
#656 = CARTESIAN_POINT('',(-1.8E+03,0.));
#657 = VECTOR('',#658,1.);
#658 = DIRECTION('',(0.,1.));
#659 = ( GEOMETRIC_REPRESENTATION_CONTEXT(2) 
PARAMETRIC_REPRESENTATION_CONTEXT() REPRESENTATION_CONTEXT('2D SPACE',''
  ) );
#660 = ORIENTED_EDGE('',*,*,#594,.F.);
#661 = ORIENTED_EDGE('',*,*,#56,.F.);
#662 = ADVANCED_FACE('',(#663),#304,.T.);
#663 = FACE_BOUND('',#664,.T.);
#664 = EDGE_LOOP('',(#665,#666,#667,#668,#669,#670,#671,#672));
#665 = ORIENTED_EDGE('',*,*,#641,.F.);
#666 = ORIENTED_EDGE('',*,*,#288,.T.);
#667 = ORIENTED_EDGE('',*,*,#364,.T.);
#668 = ORIENTED_EDGE('',*,*,#409,.F.);
#669 = ORIENTED_EDGE('',*,*,#458,.F.);
#670 = ORIENTED_EDGE('',*,*,#515,.T.);
#671 = ORIENTED_EDGE('',*,*,#560,.T.);
#672 = ORIENTED_EDGE('',*,*,#616,.F.);
#673 = ( GEOMETRIC_REPRESENTATION_CONTEXT(3) 
GLOBAL_UNCERTAINTY_ASSIGNED_CONTEXT((#677)) GLOBAL_UNIT_ASSIGNED_CONTEXT
((#674,#675,#676)) REPRESENTATION_CONTEXT('Context #1',
  '3D Context with UNIT and UNCERTAINTY') );
#674 = ( LENGTH_UNIT() NAMED_UNIT(*) SI_UNIT(.MILLI.,.METRE.) );
#675 = ( NAMED_UNIT(*) PLANE_ANGLE_UNIT() SI_UNIT($,.RADIAN.) );
#676 = ( NAMED_UNIT(*) SI_UNIT($,.STERADIAN.) SOLID_ANGLE_UNIT() );
#677 = UNCERTAINTY_MEASURE_WITH_UNIT(LENGTH_MEASURE(2.E-06),#674,
  'distance_accuracy_value','confusion accuracy');
#678 = PRODUCT_RELATED_PRODUCT_CATEGORY('part',$,(#7));
#679 = MECHANICAL_DESIGN_GEOMETRIC_PRESENTATION_REPRESENTATION('',(#680)
  ,#673);
#680 = STYLED_ITEM('color',(#681),#15);
#681 = PRESENTATION_STYLE_ASSIGNMENT((#682));
#682 = SURFACE_STYLE_USAGE(.BOTH.,#683);
#683 = SURFACE_SIDE_STYLE('',(#684));
#684 = SURFACE_STYLE_FILL_AREA(#685);
#685 = FILL_AREA_STYLE('',(#686));
#686 = FILL_AREA_STYLE_COLOUR('',#687);
#687 = COLOUR_RGB('',0.954687160741,0.954687160741,0.963976240446);
ENDSEC;
END-ISO-10303-21;
