ISO-10303-21;
HEADER;
FILE_DESCRIPTION(('ViewDefinition [CoordinationView]'),'2;1');
FILE_NAME('LM3-BOG-P041.ifc','2026-08-30T00:00:00+00:00',('OpenSourceRail'),('OpenSourceRail'),'IfcOpenShell 0.8.5','OpenSourceRail deterministic LM3 product-library exporter','design-reference / not for construction');
FILE_SCHEMA(('IFC4X3_ADD2'));
ENDSEC;
DATA;
#1=IFCPROJECT('20IqDeZrTJyRFI1RX_QyAD',$,'LM3-BOG-P041 \X2\2014\X0\ trailer-bogie wheelset with axle-mounted brake discs','Design-reference geometry and assembly hierarchy only; supplier freeze, released drawings/tolerances, calculations, qualified processes and first-article tests remain mandatory.',$,$,$,(#12),#7);
#2=IFCSITE('13Jug6F0LJQRRYjDdirhqg',$,'LM3 product library',$,$,#18,$,$,.ELEMENT.,$,$,$,$,$);
#3=IFCBUILDING('13IvkkpFLVohPnnOcCHeWX',$,'LM3 assembly inspection fixture',$,$,#21,$,$,.ELEMENT.,$,$,$);
#4=IFCSIUNIT(*,.LENGTHUNIT.,$,.METRE.);
#5=IFCSIUNIT(*,.AREAUNIT.,$,.SQUARE_METRE.);
#6=IFCSIUNIT(*,.VOLUMEUNIT.,$,.CUBIC_METRE.);
#7=IFCUNITASSIGNMENT((#6,#4,#5));
#8=IFCCARTESIANPOINT((0.,0.,0.));
#9=IFCDIRECTION((0.,0.,1.));
#10=IFCDIRECTION((1.,0.,0.));
#11=IFCAXIS2PLACEMENT3D(#8,#9,#10);
#12=IFCGEOMETRICREPRESENTATIONCONTEXT($,'Model',3,1.0000000000000001E-05,#11,$);
#13=IFCGEOMETRICREPRESENTATIONSUBCONTEXT('Body','Model',*,*,*,*,#12,$,.MODEL_VIEW.,$);
#14=IFCRELAGGREGATES('24ylR4yjDOxQqKch$GaVEp',$,$,$,#1,(#2));
#15=IFCRELAGGREGATES('3K3$5jc5DReQSxbuPcRBw4',$,$,$,#2,(#3));
#16=IFCCARTESIANPOINT((0.,0.,0.));
#17=IFCAXIS2PLACEMENT3D(#16,$,$);
#18=IFCLOCALPLACEMENT($,#17);
#19=IFCCARTESIANPOINT((0.,0.,0.));
#20=IFCAXIS2PLACEMENT3D(#19,$,$);
#21=IFCLOCALPLACEMENT($,#20);
#22=IFCPROPERTYSINGLEVALUE('Status',$,IFCTEXT('design-reference-not-released'),$);
#23=IFCPROPERTYSINGLEVALUE('ReleaseBoundary',$,IFCTEXT('Design-reference geometry and assembly hierarchy only; supplier freeze, released drawings/tolerances, calculations, qualified processes and first-article tests remain mandatory.'),$);
#24=IFCPROPERTYSINGLEVALUE('Manifest',$,IFCTEXT('design/component-catalogue/catalog/buildable-trainset/buildable-trainset-manifest.json'),$);
#25=IFCPROPERTYSINGLEVALUE('ManifestSha256',$,IFCTEXT('1179a30e147f3569fc4ccc8ce621621cec7985f620d2c788f8da93eec9ed7c05'),$);
#26=IFCPROPERTYSET('0$3umqN09Mvvx4rj2VCGx3',$,'OSR_ProductLibrary',$,(#22,#23,#24,#25));
#27=IFCRELDEFINESBYPROPERTIES('1X4dTnRhXIq9MDsRieFQum',$,$,$,(#1),#26);
#28=IFCBUILDINGELEMENTPROXY('0NS3Zj4TrMqQxbL$U00pSL',$,'trailer-bogie wheelset with axle-mounted brake discs','Supplier-machined axle, wheels and brake-disc seats are procured as a dynamically balanced, traceable railway wheelset using the same released wheel profile as the powered bogie.',$,#156,#152,'LM3-BOG-P041',$);
#29=IFCPROPERTYSINGLEVALUE('OSRId',$,IFCTEXT('LM3-BOG-P041'),$);
#30=IFCPROPERTYSINGLEVALUE('Parent',$,IFCTEXT('LM3-BOG-SA621'),$);
#31=IFCPROPERTYSINGLEVALUE('Route',$,IFCTEXT('BID'),$);
#32=IFCPROPERTYSINGLEVALUE('Maturity',$,IFCTEXT('buildable-after-supplier-freeze'),$);
#33=IFCPROPERTYSINGLEVALUE('QuantityPerTrainset',$,IFCINTEGER(6),$);
#34=IFCPROPERTYSINGLEVALUE('Unit',$,IFCTEXT('wheelset'),$);
#35=IFCPROPERTYSINGLEVALUE('GeometryStatus',$,IFCTEXT('design-reference-not-released'),$);
#36=IFCPROPERTYSINGLEVALUE('GeometryLevel',$,IFCTEXT('coordination-envelope'),$);
#37=IFCPROPERTYSET('0ye4GMuibGDBFtwYx_zTLS',$,'OSR_ProductDefinition',$,(#29,#30,#31,#32,#33,#34,#35,#36));
#38=IFCRELDEFINESBYPROPERTIES('1BNYcEkXHTRu8JNQsYAsPq',$,$,$,(#28),#37);
#39=IFCCARTESIANPOINTLIST3D(((0.085000000000000006,-1.0249999999999999,0.),(0.08083980388508806,-1.0249999999999999,0.026266444521870529),(0.068766444521870543,-1.0249999999999999,0.049961746444860219),(0.049961746444860219,-1.0249999999999999,0.068766444521870543),(0.026266444521870536,-1.0249999999999999,0.08083980388508806),(5.2047488963762512E-18,-1.0249999999999999,0.085000000000000006),(-0.026266444521870526,-1.0249999999999999,0.08083980388508806),(-0.049961746444860212,-1.0249999999999999,0.068766444521870543),(-0.068766444521870529,-1.0249999999999999,0.049961746444860226),(-0.08083980388508806,-1.0249999999999999,0.02626644452187054),(-0.085000000000000006,-1.0249999999999999,1.0409497792752502E-17),(-0.080839803885088074,-1.0249999999999999,-0.026266444521870488),(-0.068766444521870543,-1.0249999999999999,-0.049961746444860212),(-0.049961746444860226,-1.0249999999999999,-0.068766444521870529),(-0.026266444521870543,-1.0249999999999999,-0.08083980388508806),(-1.5614246689128753E-17,-1.0249999999999999,-0.085000000000000006),(0.026266444521870515,-1.0249999999999999,-0.08083980388508806),(0.049961746444860199,-1.0249999999999999,-0.068766444521870543),(0.068766444521870529,-1.0249999999999999,-0.04996174644486024),(0.08083980388508806,-1.0249999999999999,-0.02626644452187055),(0.085000000000000006,1.0249999999999999,0.),(0.08083980388508806,1.0249999999999999,0.026266444521870529),(0.068766444521870543,1.0249999999999999,0.049961746444860219),(0.049961746444860219,1.0249999999999999,0.068766444521870543),(0.026266444521870536,1.0249999999999999,0.08083980388508806),(5.2047488963762512E-18,1.0249999999999999,0.085000000000000006),(-0.026266444521870526,1.0249999999999999,0.08083980388508806),(-0.049961746444860212,1.0249999999999999,0.068766444521870543),(-0.068766444521870529,1.0249999999999999,0.049961746444860226),(-0.08083980388508806,1.0249999999999999,0.02626644452187054),(-0.085000000000000006,1.0249999999999999,1.0409497792752502E-17),(-0.080839803885088074,1.0249999999999999,-0.026266444521870488),(-0.068766444521870543,1.0249999999999999,-0.049961746444860212),(-0.049961746444860226,1.0249999999999999,-0.068766444521870529),(-0.026266444521870543,1.0249999999999999,-0.08083980388508806),(-1.5614246689128753E-17,1.0249999999999999,-0.085000000000000006),(0.026266444521870515,1.0249999999999999,-0.08083980388508806),(0.049961746444860199,1.0249999999999999,-0.068766444521870543),(0.068766444521870529,1.0249999999999999,-0.04996174644486024),(0.08083980388508806,1.0249999999999999,-0.02626644452187055),(0.46000000000000002,-1.1000000000000001,0.),(0.43748599749577066,-1.1000000000000001,0.14214781741247581),(0.37214781741247582,-1.1000000000000001,0.27038121605453763),(0.27038121605453763,-1.1000000000000001,0.37214781741247582),(0.14214781741247584,-1.1000000000000001,0.43748599749577066),(2.8166876380389123E-17,-1.1000000000000001,0.46000000000000002),(-0.14214781741247579,-1.1000000000000001,0.43748599749577072),(-0.27038121605453758,-1.1000000000000001,0.37214781741247582),(-0.37214781741247577,-1.1000000000000001,0.27038121605453769),(-0.43748599749577066,-1.1000000000000001,0.14214781741247587),(-0.46000000000000002,-1.1000000000000001,5.6333752760778246E-17),(-0.43748599749577077,-1.1000000000000001,-0.14214781741247559),(-0.37214781741247588,-1.1000000000000001,-0.27038121605453758),(-0.27038121605453769,-1.1000000000000001,-0.37214781741247577),(-0.1421478174124759,-1.1000000000000001,-0.43748599749577066),(-8.4500629141167369E-17,-1.1000000000000001,-0.46000000000000002),(0.14214781741247573,-1.1000000000000001,-0.43748599749577072),(0.27038121605453758,-1.1000000000000001,-0.37214781741247588),(0.37214781741247577,-1.1000000000000001,-0.27038121605453774),(0.43748599749577066,-1.1000000000000001,-0.14214781741247592),(0.46000000000000002,-0.94999999999999996,0.),(0.43748599749577066,-0.94999999999999996,0.14214781741247581),(0.37214781741247582,-0.94999999999999996,0.27038121605453763),(0.27038121605453763,-0.94999999999999996,0.37214781741247582),(0.14214781741247584,-0.94999999999999996,0.43748599749577066),(2.8166876380389123E-17,-0.94999999999999996,0.46000000000000002),(-0.14214781741247579,-0.94999999999999996,0.43748599749577072),(-0.27038121605453758,-0.94999999999999996,0.37214781741247582),(-0.37214781741247577,-0.94999999999999996,0.27038121605453769),(-0.43748599749577066,-0.94999999999999996,0.14214781741247587),(-0.46000000000000002,-0.94999999999999996,5.6333752760778246E-17),(-0.43748599749577077,-0.94999999999999996,-0.14214781741247559),(-0.37214781741247588,-0.94999999999999996,-0.27038121605453758),(-0.27038121605453769,-0.94999999999999996,-0.37214781741247577),(-0.1421478174124759,-0.94999999999999996,-0.43748599749577066),(-8.4500629141167369E-17,-0.94999999999999996,-0.46000000000000002),(0.14214781741247573,-0.94999999999999996,-0.43748599749577072),(0.27038121605453758,-0.94999999999999996,-0.37214781741247588),(0.37214781741247577,-0.94999999999999996,-0.27038121605453774),(0.43748599749577066,-0.94999999999999996,-0.14214781741247592),(0.31280000000000002,-0.72150000000000003,0.),(0.29749047829712405,-0.72150000000000003,0.096660515840483546),(0.25306051584048356,-0.72150000000000003,0.18385922691708562),(0.18385922691708562,-0.72150000000000003,0.25306051584048356),(0.096660515840483574,-0.72150000000000003,0.29749047829712405),(1.9153475938664606E-17,-0.72150000000000003,0.31280000000000002),(-0.096660515840483532,-0.72150000000000003,0.29749047829712411),(-0.18385922691708559,-0.72150000000000003,0.25306051584048356),(-0.25306051584048356,-0.72150000000000003,0.18385922691708564),(-0.29749047829712405,-0.72150000000000003,0.096660515840483588),(-0.31280000000000002,-0.72150000000000003,3.8306951877329211E-17),(-0.29749047829712411,-0.72150000000000003,-0.096660515840483394),(-0.25306051584048361,-0.72150000000000003,-0.18385922691708559),(-0.18385922691708564,-0.72150000000000003,-0.25306051584048356),(-0.096660515840483602,-0.72150000000000003,-0.29749047829712405),(-5.7460427815993813E-17,-0.72150000000000003,-0.31280000000000002),(0.096660515840483505,-0.72150000000000003,-0.29749047829712411),(0.18385922691708553,-0.72150000000000003,-0.25306051584048361),(0.25306051584048356,-0.72150000000000003,-0.18385922691708567),(0.29749047829712405,-0.72150000000000003,-0.096660515840483616),(0.31280000000000002,-0.6865,0.),(0.29749047829712405,-0.6865,0.096660515840483546),(0.25306051584048356,-0.6865,0.18385922691708562),(0.18385922691708562,-0.6865,0.25306051584048356),(0.096660515840483574,-0.6865,0.29749047829712405),(1.9153475938664606E-17,-0.6865,0.31280000000000002),(-0.096660515840483532,-0.6865,0.29749047829712411),(-0.18385922691708559,-0.6865,0.25306051584048356),(-0.25306051584048356,-0.6865,0.18385922691708564),(-0.29749047829712405,-0.6865,0.096660515840483588),(-0.31280000000000002,-0.6865,3.8306951877329211E-17),(-0.29749047829712411,-0.6865,-0.096660515840483394),(-0.25306051584048361,-0.6865,-0.18385922691708559),(-0.18385922691708564,-0.6865,-0.25306051584048356),(-0.096660515840483602,-0.6865,-0.29749047829712405),(-5.7460427815993813E-17,-0.6865,-0.31280000000000002),(0.096660515840483505,-0.6865,-0.29749047829712411),(0.18385922691708553,-0.6865,-0.25306051584048361),(0.25306051584048356,-0.6865,-0.18385922691708567),(0.29749047829712405,-0.6865,-0.096660515840483616),(0.46000000000000002,0.94999999999999996,0.),(0.43748599749577066,0.94999999999999996,0.14214781741247581),(0.37214781741247582,0.94999999999999996,0.27038121605453763),(0.27038121605453763,0.94999999999999996,0.37214781741247582),(0.14214781741247584,0.94999999999999996,0.43748599749577066),(2.8166876380389123E-17,0.94999999999999996,0.46000000000000002),(-0.14214781741247579,0.94999999999999996,0.43748599749577072),(-0.27038121605453758,0.94999999999999996,0.37214781741247582),(-0.37214781741247577,0.94999999999999996,0.27038121605453769),(-0.43748599749577066,0.94999999999999996,0.14214781741247587),(-0.46000000000000002,0.94999999999999996,5.6333752760778246E-17),(-0.43748599749577077,0.94999999999999996,-0.14214781741247559),(-0.37214781741247588,0.94999999999999996,-0.27038121605453758),(-0.27038121605453769,0.94999999999999996,-0.37214781741247577),(-0.1421478174124759,0.94999999999999996,-0.43748599749577066),(-8.4500629141167369E-17,0.94999999999999996,-0.46000000000000002),(0.14214781741247573,0.94999999999999996,-0.43748599749577072),(0.27038121605453758,0.94999999999999996,-0.37214781741247588),(0.37214781741247577,0.94999999999999996,-0.27038121605453774),(0.43748599749577066,0.94999999999999996,-0.14214781741247592),(0.46000000000000002,1.1000000000000001,0.),(0.43748599749577066,1.1000000000000001,0.14214781741247581),(0.37214781741247582,1.1000000000000001,0.27038121605453763),(0.27038121605453763,1.1000000000000001,0.37214781741247582),(0.14214781741247584,1.1000000000000001,0.43748599749577066),(2.8166876380389123E-17,1.1000000000000001,0.46000000000000002),(-0.14214781741247579,1.1000000000000001,0.43748599749577072),(-0.27038121605453758,1.1000000000000001,0.37214781741247582),(-0.37214781741247577,1.1000000000000001,0.27038121605453769),(-0.43748599749577066,1.1000000000000001,0.14214781741247587),(-0.46000000000000002,1.1000000000000001,5.6333752760778246E-17),(-0.43748599749577077,1.1000000000000001,-0.14214781741247559),(-0.37214781741247588,1.1000000000000001,-0.27038121605453758),(-0.27038121605453769,1.1000000000000001,-0.37214781741247577),(-0.1421478174124759,1.1000000000000001,-0.43748599749577066),(-8.4500629141167369E-17,1.1000000000000001,-0.46000000000000002),(0.14214781741247573,1.1000000000000001,-0.43748599749577072),(0.27038121605453758,1.1000000000000001,-0.37214781741247588),(0.37214781741247577,1.1000000000000001,-0.27038121605453774),(0.43748599749577066,1.1000000000000001,-0.14214781741247592),(0.31280000000000002,0.6865,0.),(0.29749047829712405,0.6865,0.096660515840483546),(0.25306051584048356,0.6865,0.18385922691708562),(0.18385922691708562,0.6865,0.25306051584048356),(0.096660515840483574,0.6865,0.29749047829712405),(1.9153475938664606E-17,0.6865,0.31280000000000002),(-0.096660515840483532,0.6865,0.29749047829712411),(-0.18385922691708559,0.6865,0.25306051584048356),(-0.25306051584048356,0.6865,0.18385922691708564),(-0.29749047829712405,0.6865,0.096660515840483588),(-0.31280000000000002,0.6865,3.8306951877329211E-17),(-0.29749047829712411,0.6865,-0.096660515840483394),(-0.25306051584048361,0.6865,-0.18385922691708559),(-0.18385922691708564,0.6865,-0.25306051584048356),(-0.096660515840483602,0.6865,-0.29749047829712405),(-5.7460427815993813E-17,0.6865,-0.31280000000000002),(0.096660515840483505,0.6865,-0.29749047829712411),(0.18385922691708553,0.6865,-0.25306051584048361),(0.25306051584048356,0.6865,-0.18385922691708567),(0.29749047829712405,0.6865,-0.096660515840483616),(0.31280000000000002,0.72150000000000003,0.),(0.29749047829712405,0.72150000000000003,0.096660515840483546),(0.25306051584048356,0.72150000000000003,0.18385922691708562),(0.18385922691708562,0.72150000000000003,0.25306051584048356),(0.096660515840483574,0.72150000000000003,0.29749047829712405),(1.9153475938664606E-17,0.72150000000000003,0.31280000000000002),(-0.096660515840483532,0.72150000000000003,0.29749047829712411),(-0.18385922691708559,0.72150000000000003,0.25306051584048356),(-0.25306051584048356,0.72150000000000003,0.18385922691708564),(-0.29749047829712405,0.72150000000000003,0.096660515840483588),(-0.31280000000000002,0.72150000000000003,3.8306951877329211E-17),(-0.29749047829712411,0.72150000000000003,-0.096660515840483394),(-0.25306051584048361,0.72150000000000003,-0.18385922691708559),(-0.18385922691708564,0.72150000000000003,-0.25306051584048356),(-0.096660515840483602,0.72150000000000003,-0.29749047829712405),(-5.7460427815993813E-17,0.72150000000000003,-0.31280000000000002),(0.096660515840483505,0.72150000000000003,-0.29749047829712411),(0.18385922691708553,0.72150000000000003,-0.25306051584048361),(0.25306051584048356,0.72150000000000003,-0.18385922691708567),(0.29749047829712405,0.72150000000000003,-0.096660515840483616)),$);
#40=IFCINDEXEDPOLYGONALFACE((20,19,18,17,16,15,14,13,12,11,10,9,8,7,6,5,4,3,2,1));
#41=IFCINDEXEDPOLYGONALFACE((21,22,23,24,25,26,27,28,29,30,31,32,33,34,35,36,37,38,39,40));
#42=IFCINDEXEDPOLYGONALFACE((1,2,22,21));
#43=IFCINDEXEDPOLYGONALFACE((2,3,23,22));
#44=IFCINDEXEDPOLYGONALFACE((3,4,24,23));
#45=IFCINDEXEDPOLYGONALFACE((4,5,25,24));
#46=IFCINDEXEDPOLYGONALFACE((5,6,26,25));
#47=IFCINDEXEDPOLYGONALFACE((6,7,27,26));
#48=IFCINDEXEDPOLYGONALFACE((7,8,28,27));
#49=IFCINDEXEDPOLYGONALFACE((8,9,29,28));
#50=IFCINDEXEDPOLYGONALFACE((9,10,30,29));
#51=IFCINDEXEDPOLYGONALFACE((10,11,31,30));
#52=IFCINDEXEDPOLYGONALFACE((11,12,32,31));
#53=IFCINDEXEDPOLYGONALFACE((12,13,33,32));
#54=IFCINDEXEDPOLYGONALFACE((13,14,34,33));
#55=IFCINDEXEDPOLYGONALFACE((14,15,35,34));
#56=IFCINDEXEDPOLYGONALFACE((15,16,36,35));
#57=IFCINDEXEDPOLYGONALFACE((16,17,37,36));
#58=IFCINDEXEDPOLYGONALFACE((17,18,38,37));
#59=IFCINDEXEDPOLYGONALFACE((18,19,39,38));
#60=IFCINDEXEDPOLYGONALFACE((19,20,40,39));
#61=IFCINDEXEDPOLYGONALFACE((20,1,21,40));
#62=IFCINDEXEDPOLYGONALFACE((60,59,58,57,56,55,54,53,52,51,50,49,48,47,46,45,44,43,42,41));
#63=IFCINDEXEDPOLYGONALFACE((61,62,63,64,65,66,67,68,69,70,71,72,73,74,75,76,77,78,79,80));
#64=IFCINDEXEDPOLYGONALFACE((41,42,62,61));
#65=IFCINDEXEDPOLYGONALFACE((42,43,63,62));
#66=IFCINDEXEDPOLYGONALFACE((43,44,64,63));
#67=IFCINDEXEDPOLYGONALFACE((44,45,65,64));
#68=IFCINDEXEDPOLYGONALFACE((45,46,66,65));
#69=IFCINDEXEDPOLYGONALFACE((46,47,67,66));
#70=IFCINDEXEDPOLYGONALFACE((47,48,68,67));
#71=IFCINDEXEDPOLYGONALFACE((48,49,69,68));
#72=IFCINDEXEDPOLYGONALFACE((49,50,70,69));
#73=IFCINDEXEDPOLYGONALFACE((50,51,71,70));
#74=IFCINDEXEDPOLYGONALFACE((51,52,72,71));
#75=IFCINDEXEDPOLYGONALFACE((52,53,73,72));
#76=IFCINDEXEDPOLYGONALFACE((53,54,74,73));
#77=IFCINDEXEDPOLYGONALFACE((54,55,75,74));
#78=IFCINDEXEDPOLYGONALFACE((55,56,76,75));
#79=IFCINDEXEDPOLYGONALFACE((56,57,77,76));
#80=IFCINDEXEDPOLYGONALFACE((57,58,78,77));
#81=IFCINDEXEDPOLYGONALFACE((58,59,79,78));
#82=IFCINDEXEDPOLYGONALFACE((59,60,80,79));
#83=IFCINDEXEDPOLYGONALFACE((60,41,61,80));
#84=IFCINDEXEDPOLYGONALFACE((100,99,98,97,96,95,94,93,92,91,90,89,88,87,86,85,84,83,82,81));
#85=IFCINDEXEDPOLYGONALFACE((101,102,103,104,105,106,107,108,109,110,111,112,113,114,115,116,117,118,119,120));
#86=IFCINDEXEDPOLYGONALFACE((81,82,102,101));
#87=IFCINDEXEDPOLYGONALFACE((82,83,103,102));
#88=IFCINDEXEDPOLYGONALFACE((83,84,104,103));
#89=IFCINDEXEDPOLYGONALFACE((84,85,105,104));
#90=IFCINDEXEDPOLYGONALFACE((85,86,106,105));
#91=IFCINDEXEDPOLYGONALFACE((86,87,107,106));
#92=IFCINDEXEDPOLYGONALFACE((87,88,108,107));
#93=IFCINDEXEDPOLYGONALFACE((88,89,109,108));
#94=IFCINDEXEDPOLYGONALFACE((89,90,110,109));
#95=IFCINDEXEDPOLYGONALFACE((90,91,111,110));
#96=IFCINDEXEDPOLYGONALFACE((91,92,112,111));
#97=IFCINDEXEDPOLYGONALFACE((92,93,113,112));
#98=IFCINDEXEDPOLYGONALFACE((93,94,114,113));
#99=IFCINDEXEDPOLYGONALFACE((94,95,115,114));
#100=IFCINDEXEDPOLYGONALFACE((95,96,116,115));
#101=IFCINDEXEDPOLYGONALFACE((96,97,117,116));
#102=IFCINDEXEDPOLYGONALFACE((97,98,118,117));
#103=IFCINDEXEDPOLYGONALFACE((98,99,119,118));
#104=IFCINDEXEDPOLYGONALFACE((99,100,120,119));
#105=IFCINDEXEDPOLYGONALFACE((100,81,101,120));
#106=IFCINDEXEDPOLYGONALFACE((140,139,138,137,136,135,134,133,132,131,130,129,128,127,126,125,124,123,122,121));
#107=IFCINDEXEDPOLYGONALFACE((141,142,143,144,145,146,147,148,149,150,151,152,153,154,155,156,157,158,159,160));
#108=IFCINDEXEDPOLYGONALFACE((121,122,142,141));
#109=IFCINDEXEDPOLYGONALFACE((122,123,143,142));
#110=IFCINDEXEDPOLYGONALFACE((123,124,144,143));
#111=IFCINDEXEDPOLYGONALFACE((124,125,145,144));
#112=IFCINDEXEDPOLYGONALFACE((125,126,146,145));
#113=IFCINDEXEDPOLYGONALFACE((126,127,147,146));
#114=IFCINDEXEDPOLYGONALFACE((127,128,148,147));
#115=IFCINDEXEDPOLYGONALFACE((128,129,149,148));
#116=IFCINDEXEDPOLYGONALFACE((129,130,150,149));
#117=IFCINDEXEDPOLYGONALFACE((130,131,151,150));
#118=IFCINDEXEDPOLYGONALFACE((131,132,152,151));
#119=IFCINDEXEDPOLYGONALFACE((132,133,153,152));
#120=IFCINDEXEDPOLYGONALFACE((133,134,154,153));
#121=IFCINDEXEDPOLYGONALFACE((134,135,155,154));
#122=IFCINDEXEDPOLYGONALFACE((135,136,156,155));
#123=IFCINDEXEDPOLYGONALFACE((136,137,157,156));
#124=IFCINDEXEDPOLYGONALFACE((137,138,158,157));
#125=IFCINDEXEDPOLYGONALFACE((138,139,159,158));
#126=IFCINDEXEDPOLYGONALFACE((139,140,160,159));
#127=IFCINDEXEDPOLYGONALFACE((140,121,141,160));
#128=IFCINDEXEDPOLYGONALFACE((180,179,178,177,176,175,174,173,172,171,170,169,168,167,166,165,164,163,162,161));
#129=IFCINDEXEDPOLYGONALFACE((181,182,183,184,185,186,187,188,189,190,191,192,193,194,195,196,197,198,199,200));
#130=IFCINDEXEDPOLYGONALFACE((161,162,182,181));
#131=IFCINDEXEDPOLYGONALFACE((162,163,183,182));
#132=IFCINDEXEDPOLYGONALFACE((163,164,184,183));
#133=IFCINDEXEDPOLYGONALFACE((164,165,185,184));
#134=IFCINDEXEDPOLYGONALFACE((165,166,186,185));
#135=IFCINDEXEDPOLYGONALFACE((166,167,187,186));
#136=IFCINDEXEDPOLYGONALFACE((167,168,188,187));
#137=IFCINDEXEDPOLYGONALFACE((168,169,189,188));
#138=IFCINDEXEDPOLYGONALFACE((169,170,190,189));
#139=IFCINDEXEDPOLYGONALFACE((170,171,191,190));
#140=IFCINDEXEDPOLYGONALFACE((171,172,192,191));
#141=IFCINDEXEDPOLYGONALFACE((172,173,193,192));
#142=IFCINDEXEDPOLYGONALFACE((173,174,194,193));
#143=IFCINDEXEDPOLYGONALFACE((174,175,195,194));
#144=IFCINDEXEDPOLYGONALFACE((175,176,196,195));
#145=IFCINDEXEDPOLYGONALFACE((176,177,197,196));
#146=IFCINDEXEDPOLYGONALFACE((177,178,198,197));
#147=IFCINDEXEDPOLYGONALFACE((178,179,199,198));
#148=IFCINDEXEDPOLYGONALFACE((179,180,200,199));
#149=IFCINDEXEDPOLYGONALFACE((180,161,181,200));
#150=IFCPOLYGONALFACESET(#39,$,(#40,#41,#42,#43,#44,#45,#46,#47,#48,#49,#50,#51,#52,#53,#54,#55,#56,#57,#58,#59,#60,#61,#62,#63,#64,#65,#66,#67,#68,#69,#70,#71,#72,#73,#74,#75,#76,#77,#78,#79,#80,#81,#82,#83,#84,#85,#86,#87,#88,#89,#90,#91,#92,#93,#94,#95,#96,#97,#98,#99,#100,#101,#102,#103,#104,#105,#106,#107,#108,#109,#110,#111,#112,#113,#114,#115,#116,#117,#118,#119,#120,#121,#122,#123,#124,#125,#126,#127,#128,#129,#130,#131,#132,#133,#134,#135,#136,#137,#138,#139,#140,#141,#142,#143,#144,#145,#146,#147,#148,#149),$);
#151=IFCSHAPEREPRESENTATION(#13,'Body','Tessellation',(#150));
#152=IFCPRODUCTDEFINITIONSHAPE($,$,(#151));
#153=IFCRELCONTAINEDINSPATIALSTRUCTURE('3ASTd8KknNRxH6VEOZzLY0',$,$,$,(#28),#3);
#154=IFCCARTESIANPOINT((0.,0.,0.));
#155=IFCAXIS2PLACEMENT3D(#154,$,$);
#156=IFCLOCALPLACEMENT($,#155);
ENDSEC;
END-ISO-10303-21;
