ISO-10303-21;
HEADER;
FILE_DESCRIPTION(('ViewDefinition [CoordinationView]'),'2;1');
FILE_NAME('LM3-BOG-P030.ifc','2026-08-30T00:00:00+00:00',('OpenSourceRail'),('OpenSourceRail'),'IfcOpenShell 0.8.5','OpenSourceRail deterministic LM3 product-library exporter','design-reference / not for construction');
FILE_SCHEMA(('IFC4X3_ADD2'));
ENDSEC;
DATA;
#1=IFCPROJECT('3N8tw$mSXINgwHMywYX4_6',$,'LM3-BOG-P030 \X2\2014\X0\ powered-bogie guards, cable guides, WSP brackets, and inspection covers','Design-reference geometry and assembly hierarchy only; supplier freeze, released drawings/tolerances, calculations, qualified processes and first-article tests remain mandatory.',$,$,$,(#12),#7);
#2=IFCSITE('3DTVwyfM1JsBHl8wXNkUDb',$,'LM3 product library',$,$,#18,$,$,.ELEMENT.,$,$,$,$,$);
#3=IFCBUILDING('1dNGqfvWvJlhgUL0jDzaZC',$,'LM3 assembly inspection fixture',$,$,#21,$,$,.ELEMENT.,$,$,$);
#4=IFCSIUNIT(*,.LENGTHUNIT.,$,.METRE.);
#5=IFCSIUNIT(*,.AREAUNIT.,$,.SQUARE_METRE.);
#6=IFCSIUNIT(*,.VOLUMEUNIT.,$,.CUBIC_METRE.);
#7=IFCUNITASSIGNMENT((#6,#4,#5));
#8=IFCCARTESIANPOINT((0.,0.,0.));
#9=IFCDIRECTION((0.,0.,1.));
#10=IFCDIRECTION((1.,0.,0.));
#11=IFCAXIS2PLACEMENT3D(#8,#9,#10);
#12=IFCGEOMETRICREPRESENTATIONCONTEXT($,'Model',3,1.0000000000000001E-05,#11,$);
#13=IFCGEOMETRICREPRESENTATIONSUBCONTEXT('Body','Model',*,*,*,*,#12,$,.MODEL_VIEW.,$);
#14=IFCRELAGGREGATES('1Hr07oT9HJyfJrzjL3IsP8',$,$,$,#1,(#2));
#15=IFCRELAGGREGATES('1B7uIngB1VtB8cOtUJ9k8g',$,$,$,#2,(#3));
#16=IFCCARTESIANPOINT((0.,0.,0.));
#17=IFCAXIS2PLACEMENT3D(#16,$,$);
#18=IFCLOCALPLACEMENT($,#17);
#19=IFCCARTESIANPOINT((0.,0.,0.));
#20=IFCAXIS2PLACEMENT3D(#19,$,$);
#21=IFCLOCALPLACEMENT($,#20);
#22=IFCPROPERTYSINGLEVALUE('Status',$,IFCTEXT('design-reference-not-released'),$);
#23=IFCPROPERTYSINGLEVALUE('ReleaseBoundary',$,IFCTEXT('Design-reference geometry and assembly hierarchy only; supplier freeze, released drawings/tolerances, calculations, qualified processes and first-article tests remain mandatory.'),$);
#24=IFCPROPERTYSINGLEVALUE('Manifest',$,IFCTEXT('design/component-catalogue/catalog/buildable-trainset/buildable-trainset-manifest.json'),$);
#25=IFCPROPERTYSINGLEVALUE('ManifestSha256',$,IFCTEXT('1179a30e147f3569fc4ccc8ce621621cec7985f620d2c788f8da93eec9ed7c05'),$);
#26=IFCPROPERTYSET('2LZXUS8hDHtepSOJswIR7P',$,'OSR_ProductLibrary',$,(#22,#23,#24,#25));
#27=IFCRELDEFINESBYPROPERTIES('2rBnMM7NjPhRrsemJ_2VRS',$,$,$,(#1),#26);
#28=IFCDISCRETEACCESSORY('2b5iletEfSFB2I6f8fU6HL',$,'powered-bogie guards, cable guides, WSP brackets, and inspection covers','Powered-bogie removable guards and harness brackets installed after wheelset fit.',$,#64,#60,'LM3-BOG-P030',$);
#29=IFCPROPERTYSINGLEVALUE('OSRId',$,IFCTEXT('LM3-BOG-P030'),$);
#30=IFCPROPERTYSINGLEVALUE('Parent',$,IFCTEXT('LM3-BOG-SA610'),$);
#31=IFCPROPERTYSINGLEVALUE('Route',$,IFCTEXT('MAKE'),$);
#32=IFCPROPERTYSINGLEVALUE('Maturity',$,IFCTEXT('release-candidate'),$);
#33=IFCPROPERTYSINGLEVALUE('QuantityPerTrainset',$,IFCINTEGER(3),$);
#34=IFCPROPERTYSINGLEVALUE('Unit',$,IFCTEXT('kit'),$);
#35=IFCPROPERTYSINGLEVALUE('GeometryStatus',$,IFCTEXT('design-reference-not-released'),$);
#36=IFCPROPERTYSINGLEVALUE('GeometryLevel',$,IFCTEXT('design-reference-detail'),$);
#37=IFCPROPERTYSET('14Trfu61nPTgweOQIRb2E0',$,'OSR_ProductDefinition',$,(#29,#30,#31,#32,#33,#34,#35,#36));
#38=IFCRELDEFINESBYPROPERTIES('3cR8w5f1zTnfVF$eTr$Vfs',$,$,$,(#28),#37);
#39=IFCCARTESIANPOINTLIST3D(((-1.6000000000000001,-0.49349999999999999,-0.096599999999999991),(-1.6000000000000001,-0.49349999999999999,0.096599999999999991),(-1.6000000000000001,0.49349999999999999,-0.096599999999999991),(-1.6000000000000001,0.49349999999999999,0.096599999999999991),(1.6000000000000001,-0.49349999999999999,-0.096599999999999991),(1.6000000000000001,-0.49349999999999999,0.096599999999999991),(1.6000000000000001,0.49349999999999999,-0.096599999999999991),(1.6000000000000001,0.49349999999999999,0.096599999999999991),(-0.76800000000000002,-1.175,-0.073600000000000013),(-0.76800000000000002,-1.175,0.073600000000000013),(-0.76800000000000002,1.175,-0.073600000000000013),(-0.76800000000000002,1.175,0.073600000000000013),(0.76800000000000002,-1.175,-0.073600000000000013),(0.76800000000000002,-1.175,0.073600000000000013),(0.76800000000000002,1.175,-0.073600000000000013),(0.76800000000000002,1.175,0.073600000000000013),(-0.28799999999999998,-0.25850000000000001,-0.23000000000000001),(-0.28799999999999998,-0.25850000000000001,0.23000000000000001),(-0.28799999999999998,0.25850000000000001,-0.23000000000000001),(-0.28799999999999998,0.25850000000000001,0.23000000000000001),(0.28799999999999998,-0.25850000000000001,-0.23000000000000001),(0.28799999999999998,-0.25850000000000001,0.23000000000000001),(0.28799999999999998,0.25850000000000001,-0.23000000000000001),(0.28799999999999998,0.25850000000000001,0.23000000000000001)),$);
#40=IFCINDEXEDPOLYGONALFACE((1,2,4,3));
#41=IFCINDEXEDPOLYGONALFACE((5,7,8,6));
#42=IFCINDEXEDPOLYGONALFACE((1,5,6,2));
#43=IFCINDEXEDPOLYGONALFACE((3,4,8,7));
#44=IFCINDEXEDPOLYGONALFACE((1,3,7,5));
#45=IFCINDEXEDPOLYGONALFACE((2,6,8,4));
#46=IFCINDEXEDPOLYGONALFACE((9,10,12,11));
#47=IFCINDEXEDPOLYGONALFACE((13,15,16,14));
#48=IFCINDEXEDPOLYGONALFACE((9,13,14,10));
#49=IFCINDEXEDPOLYGONALFACE((11,12,16,15));
#50=IFCINDEXEDPOLYGONALFACE((9,11,15,13));
#51=IFCINDEXEDPOLYGONALFACE((10,14,16,12));
#52=IFCINDEXEDPOLYGONALFACE((17,18,20,19));
#53=IFCINDEXEDPOLYGONALFACE((21,23,24,22));
#54=IFCINDEXEDPOLYGONALFACE((17,21,22,18));
#55=IFCINDEXEDPOLYGONALFACE((19,20,24,23));
#56=IFCINDEXEDPOLYGONALFACE((17,19,23,21));
#57=IFCINDEXEDPOLYGONALFACE((18,22,24,20));
#58=IFCPOLYGONALFACESET(#39,$,(#40,#41,#42,#43,#44,#45,#46,#47,#48,#49,#50,#51,#52,#53,#54,#55,#56,#57),$);
#59=IFCSHAPEREPRESENTATION(#13,'Body','Tessellation',(#58));
#60=IFCPRODUCTDEFINITIONSHAPE($,$,(#59));
#61=IFCRELCONTAINEDINSPATIALSTRUCTURE('06ySvoLg5I$xEeX6kc$si$',$,$,$,(#28),#3);
#62=IFCCARTESIANPOINT((0.,0.,0.));
#63=IFCAXIS2PLACEMENT3D(#62,$,$);
#64=IFCLOCALPLACEMENT($,#63);
ENDSEC;
END-ISO-10303-21;
