ISO-10303-21;
HEADER;
FILE_DESCRIPTION(('ViewDefinition [CoordinationView]'),'2;1');
FILE_NAME('LM3-BOG-P010.ifc','2026-08-30T00:00:00+00:00',('OpenSourceRail'),('OpenSourceRail'),'IfcOpenShell 0.8.5','OpenSourceRail deterministic LM3 product-library exporter','design-reference / not for construction');
FILE_SCHEMA(('IFC4X3_ADD2'));
ENDSEC;
DATA;
#1=IFCPROJECT('0euakarRnVNQCMumb2HDir',$,'LM3-BOG-P010 \X2\2014\X0\ powered bogie welded H-frame and motor-cradle weldment','Design-reference geometry and assembly hierarchy only; supplier freeze, released drawings/tolerances, calculations, qualified processes and first-article tests remain mandatory.',$,$,$,(#12),#7);
#2=IFCSITE('2i8tdQBnDM6QQ3obhQlATo',$,'LM3 product library',$,$,#18,$,$,.ELEMENT.,$,$,$,$,$);
#3=IFCBUILDING('3yKziimBHVRu4glFM3TJB7',$,'LM3 assembly inspection fixture',$,$,#21,$,$,.ELEMENT.,$,$,$);
#4=IFCSIUNIT(*,.LENGTHUNIT.,$,.METRE.);
#5=IFCSIUNIT(*,.AREAUNIT.,$,.SQUARE_METRE.);
#6=IFCSIUNIT(*,.VOLUMEUNIT.,$,.CUBIC_METRE.);
#7=IFCUNITASSIGNMENT((#6,#4,#5));
#8=IFCCARTESIANPOINT((0.,0.,0.));
#9=IFCDIRECTION((0.,0.,1.));
#10=IFCDIRECTION((1.,0.,0.));
#11=IFCAXIS2PLACEMENT3D(#8,#9,#10);
#12=IFCGEOMETRICREPRESENTATIONCONTEXT($,'Model',3,1.0000000000000001E-05,#11,$);
#13=IFCGEOMETRICREPRESENTATIONSUBCONTEXT('Body','Model',*,*,*,*,#12,$,.MODEL_VIEW.,$);
#14=IFCRELAGGREGATES('2WE$vhJfXM6e1$d8hJH4n0',$,$,$,#1,(#2));
#15=IFCRELAGGREGATES('1qXkkjo79RXBMUYOlLcfzF',$,$,$,#2,(#3));
#16=IFCCARTESIANPOINT((0.,0.,0.));
#17=IFCAXIS2PLACEMENT3D(#16,$,$);
#18=IFCLOCALPLACEMENT($,#17);
#19=IFCCARTESIANPOINT((0.,0.,0.));
#20=IFCAXIS2PLACEMENT3D(#19,$,$);
#21=IFCLOCALPLACEMENT($,#20);
#22=IFCPROPERTYSINGLEVALUE('Status',$,IFCTEXT('design-reference-not-released'),$);
#23=IFCPROPERTYSINGLEVALUE('ReleaseBoundary',$,IFCTEXT('Design-reference geometry and assembly hierarchy only; supplier freeze, released drawings/tolerances, calculations, qualified processes and first-article tests remain mandatory.'),$);
#24=IFCPROPERTYSINGLEVALUE('Manifest',$,IFCTEXT('design/component-catalogue/catalog/buildable-trainset/buildable-trainset-manifest.json'),$);
#25=IFCPROPERTYSINGLEVALUE('ManifestSha256',$,IFCTEXT('7654747909805305ce2018109b5b649c4817a8f8c44a3ec8f2e8a6f74d48243e'),$);
#26=IFCPROPERTYSET('22dpFLaqzPFxn3D1voANIw',$,'OSR_ProductLibrary',$,(#22,#23,#24,#25));
#27=IFCRELDEFINESBYPROPERTIES('1TRFndG6vGdQzNYT1Nvvl2',$,$,$,(#1),#26);
#28=IFCMEMBER('1EdWCPPYPKNvlHvIAtz4iM',$,'powered bogie welded H-frame and motor-cradle weldment','Fresh EN 15085-controlled bogie frame; no recovered freight-frame splice.',$,#308,#304,'LM3-BOG-P010',$);
#29=IFCPROPERTYSINGLEVALUE('OSRId',$,IFCTEXT('LM3-BOG-P010'),$);
#30=IFCPROPERTYSINGLEVALUE('Parent',$,IFCTEXT('LM3-BOG-SA610'),$);
#31=IFCPROPERTYSINGLEVALUE('Route',$,IFCTEXT('MAKE'),$);
#32=IFCPROPERTYSINGLEVALUE('Maturity',$,IFCTEXT('release-candidate'),$);
#33=IFCPROPERTYSINGLEVALUE('QuantityPerTrainset',$,IFCINTEGER(3),$);
#34=IFCPROPERTYSINGLEVALUE('Unit',$,IFCTEXT('ea'),$);
#35=IFCPROPERTYSINGLEVALUE('GeometryStatus',$,IFCTEXT('design-reference-not-released'),$);
#36=IFCPROPERTYSINGLEVALUE('GeometryLevel',$,IFCTEXT('interface-detailed'),$);
#37=IFCPROPERTYSET('1Bg_VlxSDSXeUThpJufn$_',$,'OSR_ProductDefinition',$,(#29,#30,#31,#32,#33,#34,#35,#36));
#38=IFCRELDEFINESBYPROPERTIES('1tKcwGs2bIbQXhmLTYsQm5',$,$,$,(#28),#37);
#39=IFCCARTESIANPOINTLIST3D(((-1.7,-1.25,-0.17050000000000001),(-1.7,-1.25,0.17050000000000001),(-1.7,-1.03,-0.17050000000000001),(-1.7,-1.03,0.17050000000000001),(1.7,-1.25,-0.17050000000000001),(1.7,-1.25,0.17050000000000001),(1.7,-1.03,-0.17050000000000001),(1.7,-1.03,0.17050000000000001),(-1.7,1.03,-0.17050000000000001),(-1.7,1.03,0.17050000000000001),(-1.7,1.25,-0.17050000000000001),(-1.7,1.25,0.17050000000000001),(1.7,1.03,-0.17050000000000001),(1.7,1.03,0.17050000000000001),(1.7,1.25,-0.17050000000000001),(1.7,1.25,0.17050000000000001),(-1.286,-1.1000000000000001,-0.13950000000000001),(-1.286,-1.1000000000000001,0.13950000000000001),(-1.286,1.1000000000000001,-0.13950000000000001),(-1.286,1.1000000000000001,0.13950000000000001),(-1.026,-1.1000000000000001,-0.13950000000000001),(-1.026,-1.1000000000000001,0.13950000000000001),(-1.026,1.1000000000000001,-0.13950000000000001),(-1.026,1.1000000000000001,0.13950000000000001),(-0.13,-1.1000000000000001,-0.13950000000000001),(-0.13,-1.1000000000000001,0.13950000000000001),(-0.13,1.1000000000000001,-0.13950000000000001),(-0.13,1.1000000000000001,0.13950000000000001),(0.13,-1.1000000000000001,-0.13950000000000001),(0.13,-1.1000000000000001,0.13950000000000001),(0.13,1.1000000000000001,-0.13950000000000001),(0.13,1.1000000000000001,0.13950000000000001),(1.026,-1.1000000000000001,-0.13950000000000001),(1.026,-1.1000000000000001,0.13950000000000001),(1.026,1.1000000000000001,-0.13950000000000001),(1.026,1.1000000000000001,0.13950000000000001),(1.286,-1.1000000000000001,-0.13950000000000001),(1.286,-1.1000000000000001,0.13950000000000001),(1.286,1.1000000000000001,-0.13950000000000001),(1.286,1.1000000000000001,0.13950000000000001),(-1.0072000000000001,-1.1100000000000001,-0.12399999999999997),(-1.0144827903752813,-1.1100000000000001,-0.078018271237007802),(-1.0356182712370079,-1.1100000000000001,-0.036537554458879989),(-1.0685375544588802,-1.1100000000000001,-0.0036182712370078224),(-1.1100182712370079,-1.1100000000000001,0.017517209624718838),(-1.1560000000000001,-1.1100000000000001,0.024799999999999989),(-1.2019817287629924,-1.1100000000000001,0.017517209624718866),(-1.2434624455411201,-1.1100000000000001,-0.0036182712370078224),(-1.2763817287629924,-1.1100000000000001,-0.036537554458879976),(-1.2975172096247189,-1.1100000000000001,-0.078018271237007802),(-1.3048000000000002,-1.1100000000000001,-0.12399999999999996),(-1.2975172096247189,-1.1100000000000001,-0.16998172876299206),(-1.2763817287629924,-1.1100000000000001,-0.21146244554111993),(-1.2434624455411201,-1.1100000000000001,-0.24438172876299211),(-1.2019817287629924,-1.1100000000000001,-0.26551720962471881),(-1.1560000000000001,-1.1100000000000001,-0.27279999999999993),(-1.1100182712370079,-1.1100000000000001,-0.26551720962471881),(-1.0685375544588802,-1.1100000000000001,-0.24438172876299213),(-1.0356182712370079,-1.1100000000000001,-0.21146244554111998),(-1.0144827903752813,-1.1100000000000001,-0.16998172876299217),(-1.0072000000000001,-0.79000000000000004,-0.12399999999999997),(-1.0144827903752813,-0.79000000000000004,-0.078018271237007802),(-1.0356182712370079,-0.79000000000000004,-0.036537554458879989),(-1.0685375544588802,-0.79000000000000004,-0.0036182712370078224),(-1.1100182712370079,-0.79000000000000004,0.017517209624718838),(-1.1560000000000001,-0.79000000000000004,0.024799999999999989),(-1.2019817287629924,-0.79000000000000004,0.017517209624718866),(-1.2434624455411201,-0.79000000000000004,-0.0036182712370078224),(-1.2763817287629924,-0.79000000000000004,-0.036537554458879976),(-1.2975172096247189,-0.79000000000000004,-0.078018271237007802),(-1.3048000000000002,-0.79000000000000004,-0.12399999999999996),(-1.2975172096247189,-0.79000000000000004,-0.16998172876299206),(-1.2763817287629924,-0.79000000000000004,-0.21146244554111993),(-1.2434624455411201,-0.79000000000000004,-0.24438172876299211),(-1.2019817287629924,-0.79000000000000004,-0.26551720962471881),(-1.1560000000000001,-0.79000000000000004,-0.27279999999999993),(-1.1100182712370079,-0.79000000000000004,-0.26551720962471881),(-1.0685375544588802,-0.79000000000000004,-0.24438172876299213),(-1.0356182712370079,-0.79000000000000004,-0.21146244554111998),(-1.0144827903752813,-0.79000000000000004,-0.16998172876299217),(-0.9760000000000002,-0.94999999999999996,0.1658),(-0.98480982706687259,-0.89437694101250942,0.1658),(-1.0103769410125096,-0.84419865458735477,0.1658),(-1.050198654587355,-0.80437694101250945,0.1658),(-1.1003769410125097,-0.77880982706687241,0.1658),(-1.1560000000000001,-0.77000000000000002,0.1658),(-1.2116230589874906,-0.77880982706687241,0.1658),(-1.2618013454126453,-0.80437694101250945,0.1658),(-1.3016230589874906,-0.84419865458735477,0.1658),(-1.3271901729331277,-0.89437694101250942,0.1658),(-1.3360000000000001,-0.94999999999999996,0.1658),(-1.3271901729331277,-1.0056230589874904,0.1658),(-1.3016230589874906,-1.0558013454126451,0.1658),(-1.2618013454126453,-1.0956230589874905,0.1658),(-1.2116230589874908,-1.1211901729331275,0.1658),(-1.1560000000000001,-1.1299999999999999,0.1658),(-1.1003769410125097,-1.1211901729331275,0.1658),(-1.050198654587355,-1.0956230589874905,0.1658),(-1.0103769410125096,-1.0558013454126451,0.1658),(-0.98480982706687259,-1.0056230589874906,0.1658),(-0.9760000000000002,-0.94999999999999996,0.25580000000000003),(-0.98480982706687259,-0.89437694101250942,0.25580000000000003),(-1.0103769410125096,-0.84419865458735477,0.25580000000000003),(-1.050198654587355,-0.80437694101250945,0.25580000000000003),(-1.1003769410125097,-0.77880982706687241,0.25580000000000003),(-1.1560000000000001,-0.77000000000000002,0.25580000000000003),(-1.2116230589874906,-0.77880982706687241,0.25580000000000003),(-1.2618013454126453,-0.80437694101250945,0.25580000000000003),(-1.3016230589874906,-0.84419865458735477,0.25580000000000003),(-1.3271901729331277,-0.89437694101250942,0.25580000000000003),(-1.3360000000000001,-0.94999999999999996,0.25580000000000003),(-1.3271901729331277,-1.0056230589874904,0.25580000000000003),(-1.3016230589874906,-1.0558013454126451,0.25580000000000003),(-1.2618013454126453,-1.0956230589874905,0.25580000000000003),(-1.2116230589874908,-1.1211901729331275,0.25580000000000003),(-1.1560000000000001,-1.1299999999999999,0.25580000000000003),(-1.1003769410125097,-1.1211901729331275,0.25580000000000003),(-1.050198654587355,-1.0956230589874905,0.25580000000000003),(-1.0103769410125096,-1.0558013454126451,0.25580000000000003),(-0.98480982706687259,-1.0056230589874906,0.25580000000000003),(-1.0072000000000001,0.79000000000000004,-0.12399999999999997),(-1.0144827903752813,0.79000000000000004,-0.078018271237007802),(-1.0356182712370079,0.79000000000000004,-0.036537554458879989),(-1.0685375544588802,0.79000000000000004,-0.0036182712370078224),(-1.1100182712370079,0.79000000000000004,0.017517209624718838),(-1.1560000000000001,0.79000000000000004,0.024799999999999989),(-1.2019817287629924,0.79000000000000004,0.017517209624718866),(-1.2434624455411201,0.79000000000000004,-0.0036182712370078224),(-1.2763817287629924,0.79000000000000004,-0.036537554458879976),(-1.2975172096247189,0.79000000000000004,-0.078018271237007802),(-1.3048000000000002,0.79000000000000004,-0.12399999999999996),(-1.2975172096247189,0.79000000000000004,-0.16998172876299206),(-1.2763817287629924,0.79000000000000004,-0.21146244554111993),(-1.2434624455411201,0.79000000000000004,-0.24438172876299211),(-1.2019817287629924,0.79000000000000004,-0.26551720962471881),(-1.1560000000000001,0.79000000000000004,-0.27279999999999993),(-1.1100182712370079,0.79000000000000004,-0.26551720962471881),(-1.0685375544588802,0.79000000000000004,-0.24438172876299213),(-1.0356182712370079,0.79000000000000004,-0.21146244554111998),(-1.0144827903752813,0.79000000000000004,-0.16998172876299217),(-1.0072000000000001,1.1100000000000001,-0.12399999999999997),(-1.0144827903752813,1.1100000000000001,-0.078018271237007802),(-1.0356182712370079,1.1100000000000001,-0.036537554458879989),(-1.0685375544588802,1.1100000000000001,-0.0036182712370078224),(-1.1100182712370079,1.1100000000000001,0.017517209624718838),(-1.1560000000000001,1.1100000000000001,0.024799999999999989),(-1.2019817287629924,1.1100000000000001,0.017517209624718866),(-1.2434624455411201,1.1100000000000001,-0.0036182712370078224),(-1.2763817287629924,1.1100000000000001,-0.036537554458879976),(-1.2975172096247189,1.1100000000000001,-0.078018271237007802),(-1.3048000000000002,1.1100000000000001,-0.12399999999999996),(-1.2975172096247189,1.1100000000000001,-0.16998172876299206),(-1.2763817287629924,1.1100000000000001,-0.21146244554111993),(-1.2434624455411201,1.1100000000000001,-0.24438172876299211),(-1.2019817287629924,1.1100000000000001,-0.26551720962471881),(-1.1560000000000001,1.1100000000000001,-0.27279999999999993),(-1.1100182712370079,1.1100000000000001,-0.26551720962471881),(-1.0685375544588802,1.1100000000000001,-0.24438172876299213),(-1.0356182712370079,1.1100000000000001,-0.21146244554111998),(-1.0144827903752813,1.1100000000000001,-0.16998172876299217),(-0.9760000000000002,0.94999999999999996,0.1658),(-0.98480982706687259,1.0056230589874904,0.1658),(-1.0103769410125096,1.0558013454126451,0.1658),(-1.050198654587355,1.0956230589874905,0.1658),(-1.1003769410125097,1.1211901729331275,0.1658),(-1.1560000000000001,1.1299999999999999,0.1658),(-1.2116230589874906,1.1211901729331275,0.1658),(-1.2618013454126453,1.0956230589874905,0.1658),(-1.3016230589874906,1.0558013454126451,0.1658),(-1.3271901729331277,1.0056230589874904,0.1658),(-1.3360000000000001,0.94999999999999996,0.1658),(-1.3271901729331277,0.89437694101250953,0.1658),(-1.3016230589874906,0.84419865458735488,0.1658),(-1.2618013454126453,0.80437694101250945,0.1658),(-1.2116230589874908,0.77880982706687241,0.1658),(-1.1560000000000001,0.77000000000000002,0.1658),(-1.1003769410125097,0.77880982706687241,0.1658),(-1.050198654587355,0.80437694101250945,0.1658),(-1.0103769410125096,0.84419865458735477,0.1658),(-0.98480982706687259,0.89437694101250942,0.1658),(-0.9760000000000002,0.94999999999999996,0.25580000000000003),(-0.98480982706687259,1.0056230589874904,0.25580000000000003),(-1.0103769410125096,1.0558013454126451,0.25580000000000003),(-1.050198654587355,1.0956230589874905,0.25580000000000003),(-1.1003769410125097,1.1211901729331275,0.25580000000000003),(-1.1560000000000001,1.1299999999999999,0.25580000000000003),(-1.2116230589874906,1.1211901729331275,0.25580000000000003),(-1.2618013454126453,1.0956230589874905,0.25580000000000003),(-1.3016230589874906,1.0558013454126451,0.25580000000000003),(-1.3271901729331277,1.0056230589874904,0.25580000000000003),(-1.3360000000000001,0.94999999999999996,0.25580000000000003),(-1.3271901729331277,0.89437694101250953,0.25580000000000003),(-1.3016230589874906,0.84419865458735488,0.25580000000000003),(-1.2618013454126453,0.80437694101250945,0.25580000000000003),(-1.2116230589874908,0.77880982706687241,0.25580000000000003),(-1.1560000000000001,0.77000000000000002,0.25580000000000003),(-1.1003769410125097,0.77880982706687241,0.25580000000000003),(-1.050198654587355,0.80437694101250945,0.25580000000000003),(-1.0103769410125096,0.84419865458735477,0.25580000000000003),(-0.98480982706687259,0.89437694101250942,0.25580000000000003),(1.3048000000000002,-1.1100000000000001,-0.12399999999999997),(1.2975172096247189,-1.1100000000000001,-0.078018271237007802),(1.2763817287629924,-1.1100000000000001,-0.036537554458879989),(1.2434624455411201,-1.1100000000000001,-0.0036182712370078224),(1.2019817287629924,-1.1100000000000001,0.017517209624718838),(1.1560000000000001,-1.1100000000000001,0.024799999999999989),(1.1100182712370079,-1.1100000000000001,0.017517209624718866),(1.0685375544588802,-1.1100000000000001,-0.0036182712370078224),(1.0356182712370079,-1.1100000000000001,-0.036537554458879976),(1.0144827903752813,-1.1100000000000001,-0.078018271237007802),(1.0072000000000001,-1.1100000000000001,-0.12399999999999996),(1.0144827903752813,-1.1100000000000001,-0.16998172876299206),(1.0356182712370079,-1.1100000000000001,-0.21146244554111993),(1.0685375544588802,-1.1100000000000001,-0.24438172876299211),(1.1100182712370079,-1.1100000000000001,-0.26551720962471881),(1.1560000000000001,-1.1100000000000001,-0.27279999999999993),(1.2019817287629924,-1.1100000000000001,-0.26551720962471881),(1.2434624455411201,-1.1100000000000001,-0.24438172876299213),(1.2763817287629924,-1.1100000000000001,-0.21146244554111998),(1.2975172096247189,-1.1100000000000001,-0.16998172876299217),(1.3048000000000002,-0.79000000000000004,-0.12399999999999997),(1.2975172096247189,-0.79000000000000004,-0.078018271237007802),(1.2763817287629924,-0.79000000000000004,-0.036537554458879989),(1.2434624455411201,-0.79000000000000004,-0.0036182712370078224),(1.2019817287629924,-0.79000000000000004,0.017517209624718838),(1.1560000000000001,-0.79000000000000004,0.024799999999999989),(1.1100182712370079,-0.79000000000000004,0.017517209624718866),(1.0685375544588802,-0.79000000000000004,-0.0036182712370078224),(1.0356182712370079,-0.79000000000000004,-0.036537554458879976),(1.0144827903752813,-0.79000000000000004,-0.078018271237007802),(1.0072000000000001,-0.79000000000000004,-0.12399999999999996),(1.0144827903752813,-0.79000000000000004,-0.16998172876299206),(1.0356182712370079,-0.79000000000000004,-0.21146244554111993),(1.0685375544588802,-0.79000000000000004,-0.24438172876299211),(1.1100182712370079,-0.79000000000000004,-0.26551720962471881),(1.1560000000000001,-0.79000000000000004,-0.27279999999999993),(1.2019817287629924,-0.79000000000000004,-0.26551720962471881),(1.2434624455411201,-0.79000000000000004,-0.24438172876299213),(1.2763817287629924,-0.79000000000000004,-0.21146244554111998),(1.2975172096247189,-0.79000000000000004,-0.16998172876299217),(1.3360000000000001,-0.94999999999999996,0.1658),(1.3271901729331277,-0.89437694101250942,0.1658),(1.3016230589874906,-0.84419865458735477,0.1658),(1.2618013454126453,-0.80437694101250945,0.1658),(1.2116230589874906,-0.77880982706687241,0.1658),(1.1560000000000001,-0.77000000000000002,0.1658),(1.1003769410125097,-0.77880982706687241,0.1658),(1.050198654587355,-0.80437694101250945,0.1658),(1.0103769410125096,-0.84419865458735477,0.1658),(0.98480982706687259,-0.89437694101250942,0.1658),(0.9760000000000002,-0.94999999999999996,0.1658),(0.98480982706687259,-1.0056230589874904,0.1658),(1.0103769410125096,-1.0558013454126451,0.1658),(1.050198654587355,-1.0956230589874905,0.1658),(1.1003769410125095,-1.1211901729331275,0.1658),(1.1560000000000001,-1.1299999999999999,0.1658),(1.2116230589874906,-1.1211901729331275,0.1658),(1.2618013454126453,-1.0956230589874905,0.1658),(1.3016230589874906,-1.0558013454126451,0.1658),(1.3271901729331277,-1.0056230589874906,0.1658),(1.3360000000000001,-0.94999999999999996,0.25580000000000003),(1.3271901729331277,-0.89437694101250942,0.25580000000000003),(1.3016230589874906,-0.84419865458735477,0.25580000000000003),(1.2618013454126453,-0.80437694101250945,0.25580000000000003),(1.2116230589874906,-0.77880982706687241,0.25580000000000003),(1.1560000000000001,-0.77000000000000002,0.25580000000000003),(1.1003769410125097,-0.77880982706687241,0.25580000000000003),(1.050198654587355,-0.80437694101250945,0.25580000000000003),(1.0103769410125096,-0.84419865458735477,0.25580000000000003),(0.98480982706687259,-0.89437694101250942,0.25580000000000003),(0.9760000000000002,-0.94999999999999996,0.25580000000000003),(0.98480982706687259,-1.0056230589874904,0.25580000000000003),(1.0103769410125096,-1.0558013454126451,0.25580000000000003),(1.050198654587355,-1.0956230589874905,0.25580000000000003),(1.1003769410125095,-1.1211901729331275,0.25580000000000003),(1.1560000000000001,-1.1299999999999999,0.25580000000000003),(1.2116230589874906,-1.1211901729331275,0.25580000000000003),(1.2618013454126453,-1.0956230589874905,0.25580000000000003),(1.3016230589874906,-1.0558013454126451,0.25580000000000003),(1.3271901729331277,-1.0056230589874906,0.25580000000000003),(1.3048000000000002,0.79000000000000004,-0.12399999999999997),(1.2975172096247189,0.79000000000000004,-0.078018271237007802),(1.2763817287629924,0.79000000000000004,-0.036537554458879989),(1.2434624455411201,0.79000000000000004,-0.0036182712370078224),(1.2019817287629924,0.79000000000000004,0.017517209624718838),(1.1560000000000001,0.79000000000000004,0.024799999999999989),(1.1100182712370079,0.79000000000000004,0.017517209624718866),(1.0685375544588802,0.79000000000000004,-0.0036182712370078224),(1.0356182712370079,0.79000000000000004,-0.036537554458879976),(1.0144827903752813,0.79000000000000004,-0.078018271237007802),(1.0072000000000001,0.79000000000000004,-0.12399999999999996),(1.0144827903752813,0.79000000000000004,-0.16998172876299206),(1.0356182712370079,0.79000000000000004,-0.21146244554111993),(1.0685375544588802,0.79000000000000004,-0.24438172876299211),(1.1100182712370079,0.79000000000000004,-0.26551720962471881),(1.1560000000000001,0.79000000000000004,-0.27279999999999993),(1.2019817287629924,0.79000000000000004,-0.26551720962471881),(1.2434624455411201,0.79000000000000004,-0.24438172876299213),(1.2763817287629924,0.79000000000000004,-0.21146244554111998),(1.2975172096247189,0.79000000000000004,-0.16998172876299217),(1.3048000000000002,1.1100000000000001,-0.12399999999999997),(1.2975172096247189,1.1100000000000001,-0.078018271237007802),(1.2763817287629924,1.1100000000000001,-0.036537554458879989),(1.2434624455411201,1.1100000000000001,-0.0036182712370078224),(1.2019817287629924,1.1100000000000001,0.017517209624718838),(1.1560000000000001,1.1100000000000001,0.024799999999999989),(1.1100182712370079,1.1100000000000001,0.017517209624718866),(1.0685375544588802,1.1100000000000001,-0.0036182712370078224),(1.0356182712370079,1.1100000000000001,-0.036537554458879976),(1.0144827903752813,1.1100000000000001,-0.078018271237007802),(1.0072000000000001,1.1100000000000001,-0.12399999999999996),(1.0144827903752813,1.1100000000000001,-0.16998172876299206),(1.0356182712370079,1.1100000000000001,-0.21146244554111993),(1.0685375544588802,1.1100000000000001,-0.24438172876299211),(1.1100182712370079,1.1100000000000001,-0.26551720962471881),(1.1560000000000001,1.1100000000000001,-0.27279999999999993),(1.2019817287629924,1.1100000000000001,-0.26551720962471881),(1.2434624455411201,1.1100000000000001,-0.24438172876299213),(1.2763817287629924,1.1100000000000001,-0.21146244554111998),(1.2975172096247189,1.1100000000000001,-0.16998172876299217),(1.3360000000000001,0.94999999999999996,0.1658),(1.3271901729331277,1.0056230589874904,0.1658),(1.3016230589874906,1.0558013454126451,0.1658),(1.2618013454126453,1.0956230589874905,0.1658),(1.2116230589874906,1.1211901729331275,0.1658),(1.1560000000000001,1.1299999999999999,0.1658),(1.1003769410125097,1.1211901729331275,0.1658),(1.050198654587355,1.0956230589874905,0.1658),(1.0103769410125096,1.0558013454126451,0.1658),(0.98480982706687259,1.0056230589874904,0.1658),(0.9760000000000002,0.94999999999999996,0.1658),(0.98480982706687259,0.89437694101250953,0.1658),(1.0103769410125096,0.84419865458735488,0.1658),(1.050198654587355,0.80437694101250945,0.1658),(1.1003769410125095,0.77880982706687241,0.1658),(1.1560000000000001,0.77000000000000002,0.1658),(1.2116230589874906,0.77880982706687241,0.1658),(1.2618013454126453,0.80437694101250945,0.1658),(1.3016230589874906,0.84419865458735477,0.1658),(1.3271901729331277,0.89437694101250942,0.1658),(1.3360000000000001,0.94999999999999996,0.25580000000000003),(1.3271901729331277,1.0056230589874904,0.25580000000000003),(1.3016230589874906,1.0558013454126451,0.25580000000000003),(1.2618013454126453,1.0956230589874905,0.25580000000000003),(1.2116230589874906,1.1211901729331275,0.25580000000000003),(1.1560000000000001,1.1299999999999999,0.25580000000000003),(1.1003769410125097,1.1211901729331275,0.25580000000000003),(1.050198654587355,1.0956230589874905,0.25580000000000003),(1.0103769410125096,1.0558013454126451,0.25580000000000003),(0.98480982706687259,1.0056230589874904,0.25580000000000003),(0.9760000000000002,0.94999999999999996,0.25580000000000003),(0.98480982706687259,0.89437694101250953,0.25580000000000003),(1.0103769410125096,0.84419865458735488,0.25580000000000003),(1.050198654587355,0.80437694101250945,0.25580000000000003),(1.1003769410125095,0.77880982706687241,0.25580000000000003),(1.1560000000000001,0.77000000000000002,0.25580000000000003),(1.2116230589874906,0.77880982706687241,0.25580000000000003),(1.2618013454126453,0.80437694101250945,0.25580000000000003),(1.3016230589874906,0.84419865458735477,0.25580000000000003),(1.3271901729331277,0.89437694101250942,0.25580000000000003),(0.20999999999999999,-0.67500000000000004,0.1608),(0.19972186842198222,-0.61010643118126107,0.1608),(0.16989356881873896,-0.5515650970185807,0.1608),(0.12343490298141935,-0.50510643118126108,0.1608),(0.064893568818738964,-0.47527813157801779,0.1608),(1.2858791391047208E-17,-0.46500000000000008,0.1608),(-0.064893568818738936,-0.47527813157801779,0.1608),(-0.12343490298141933,-0.50510643118126108,0.1608),(-0.16989356881873893,-0.5515650970185807,0.1608),(-0.19972186842198222,-0.61010643118126107,0.1608),(-0.20999999999999999,-0.67500000000000004,0.1608),(-0.19972186842198228,-0.73989356881873891,0.1608),(-0.16989356881873899,-0.79843490298141939,0.1608),(-0.12343490298141938,-0.844893568818739,0.1608),(-0.064893568818738992,-0.8747218684219823,0.1608),(-3.8576374173141621E-17,-0.88500000000000001,0.1608),(0.064893568818738923,-0.8747218684219823,0.1608),(0.12343490298141931,-0.844893568818739,0.1608),(0.16989356881873893,-0.7984349029814195,0.1608),(0.19972186842198222,-0.73989356881873902,0.1608),(0.20999999999999999,-0.67500000000000004,0.26080000000000003),(0.19972186842198222,-0.61010643118126107,0.26080000000000003),(0.16989356881873896,-0.5515650970185807,0.26080000000000003),(0.12343490298141935,-0.50510643118126108,0.26080000000000003),(0.064893568818738964,-0.47527813157801779,0.26080000000000003),(1.2858791391047208E-17,-0.46500000000000008,0.26080000000000003),(-0.064893568818738936,-0.47527813157801779,0.26080000000000003),(-0.12343490298141933,-0.50510643118126108,0.26080000000000003),(-0.16989356881873893,-0.5515650970185807,0.26080000000000003),(-0.19972186842198222,-0.61010643118126107,0.26080000000000003),(-0.20999999999999999,-0.67500000000000004,0.26080000000000003),(-0.19972186842198228,-0.73989356881873891,0.26080000000000003),(-0.16989356881873899,-0.79843490298141939,0.26080000000000003),(-0.12343490298141938,-0.844893568818739,0.26080000000000003),(-0.064893568818738992,-0.8747218684219823,0.26080000000000003),(-3.8576374173141621E-17,-0.88500000000000001,0.26080000000000003),(0.064893568818738923,-0.8747218684219823,0.26080000000000003),(0.12343490298141931,-0.844893568818739,0.26080000000000003),(0.16989356881873893,-0.7984349029814195,0.26080000000000003),(0.19972186842198222,-0.73989356881873902,0.26080000000000003),(0.20999999999999999,0.67500000000000004,0.1608),(0.19972186842198222,0.73989356881873902,0.1608),(0.16989356881873896,0.79843490298141939,0.1608),(0.12343490298141935,0.844893568818739,0.1608),(0.064893568818738964,0.8747218684219823,0.1608),(1.2858791391047208E-17,0.88500000000000001,0.1608),(-0.064893568818738936,0.8747218684219823,0.1608),(-0.12343490298141933,0.844893568818739,0.1608),(-0.16989356881873893,0.79843490298141939,0.1608),(-0.19972186842198222,0.73989356881873902,0.1608),(-0.20999999999999999,0.67500000000000004,0.1608),(-0.19972186842198228,0.61010643118126118,0.1608),(-0.16989356881873899,0.5515650970185807,0.1608),(-0.12343490298141938,0.50510643118126108,0.1608),(-0.064893568818738992,0.47527813157801779,0.1608),(-3.8576374173141621E-17,0.46500000000000008,0.1608),(0.064893568818738923,0.47527813157801779,0.1608),(0.12343490298141931,0.50510643118126108,0.1608),(0.16989356881873893,0.55156509701858059,0.1608),(0.19972186842198222,0.61010643118126107,0.1608),(0.20999999999999999,0.67500000000000004,0.26080000000000003),(0.19972186842198222,0.73989356881873902,0.26080000000000003),(0.16989356881873896,0.79843490298141939,0.26080000000000003),(0.12343490298141935,0.844893568818739,0.26080000000000003),(0.064893568818738964,0.8747218684219823,0.26080000000000003),(1.2858791391047208E-17,0.88500000000000001,0.26080000000000003),(-0.064893568818738936,0.8747218684219823,0.26080000000000003),(-0.12343490298141933,0.844893568818739,0.26080000000000003),(-0.16989356881873893,0.79843490298141939,0.26080000000000003),(-0.19972186842198222,0.73989356881873902,0.26080000000000003),(-0.20999999999999999,0.67500000000000004,0.26080000000000003),(-0.19972186842198228,0.61010643118126118,0.26080000000000003),(-0.16989356881873899,0.5515650970185807,0.26080000000000003),(-0.12343490298141938,0.50510643118126108,0.26080000000000003),(-0.064893568818738992,0.47527813157801779,0.26080000000000003),(-3.8576374173141621E-17,0.46500000000000008,0.26080000000000003),(0.064893568818738923,0.47527813157801779,0.26080000000000003),(0.12343490298141931,0.50510643118126108,0.26080000000000003),(0.16989356881873893,0.55156509701858059,0.26080000000000003),(0.19972186842198222,0.61010643118126107,0.26080000000000003),(-0.97199999999999998,-0.23999999999999999,-0.245),(-0.97199999999999998,-0.23999999999999999,-0.065000000000000002),(-0.97199999999999998,0.23999999999999999,-0.245),(-0.97199999999999998,0.23999999999999999,-0.065000000000000002),(-0.252,-0.23999999999999999,-0.245),(-0.252,-0.23999999999999999,-0.065000000000000002),(-0.252,0.23999999999999999,-0.245),(-0.252,0.23999999999999999,-0.065000000000000002),(0.41999999999999998,-0.19,-0.23499999999999999),(0.41999999999999998,-0.19,-0.074999999999999997),(0.41999999999999998,0.19,-0.23499999999999999),(0.41999999999999998,0.19,-0.074999999999999997),(0.93999999999999995,-0.19,-0.23499999999999999),(0.93999999999999995,-0.19,-0.074999999999999997),(0.93999999999999995,0.19,-0.23499999999999999),(0.93999999999999995,0.19,-0.074999999999999997)),$);
#40=IFCINDEXEDPOLYGONALFACE((1,2,4,3));
#41=IFCINDEXEDPOLYGONALFACE((5,7,8,6));
#42=IFCINDEXEDPOLYGONALFACE((1,5,6,2));
#43=IFCINDEXEDPOLYGONALFACE((3,4,8,7));
#44=IFCINDEXEDPOLYGONALFACE((1,3,7,5));
#45=IFCINDEXEDPOLYGONALFACE((2,6,8,4));
#46=IFCINDEXEDPOLYGONALFACE((9,10,12,11));
#47=IFCINDEXEDPOLYGONALFACE((13,15,16,14));
#48=IFCINDEXEDPOLYGONALFACE((9,13,14,10));
#49=IFCINDEXEDPOLYGONALFACE((11,12,16,15));
#50=IFCINDEXEDPOLYGONALFACE((9,11,15,13));
#51=IFCINDEXEDPOLYGONALFACE((10,14,16,12));
#52=IFCINDEXEDPOLYGONALFACE((17,18,20,19));
#53=IFCINDEXEDPOLYGONALFACE((21,23,24,22));
#54=IFCINDEXEDPOLYGONALFACE((17,21,22,18));
#55=IFCINDEXEDPOLYGONALFACE((19,20,24,23));
#56=IFCINDEXEDPOLYGONALFACE((17,19,23,21));
#57=IFCINDEXEDPOLYGONALFACE((18,22,24,20));
#58=IFCINDEXEDPOLYGONALFACE((25,26,28,27));
#59=IFCINDEXEDPOLYGONALFACE((29,31,32,30));
#60=IFCINDEXEDPOLYGONALFACE((25,29,30,26));
#61=IFCINDEXEDPOLYGONALFACE((27,28,32,31));
#62=IFCINDEXEDPOLYGONALFACE((25,27,31,29));
#63=IFCINDEXEDPOLYGONALFACE((26,30,32,28));
#64=IFCINDEXEDPOLYGONALFACE((33,34,36,35));
#65=IFCINDEXEDPOLYGONALFACE((37,39,40,38));
#66=IFCINDEXEDPOLYGONALFACE((33,37,38,34));
#67=IFCINDEXEDPOLYGONALFACE((35,36,40,39));
#68=IFCINDEXEDPOLYGONALFACE((33,35,39,37));
#69=IFCINDEXEDPOLYGONALFACE((34,38,40,36));
#70=IFCINDEXEDPOLYGONALFACE((60,59,58,57,56,55,54,53,52,51,50,49,48,47,46,45,44,43,42,41));
#71=IFCINDEXEDPOLYGONALFACE((61,62,63,64,65,66,67,68,69,70,71,72,73,74,75,76,77,78,79,80));
#72=IFCINDEXEDPOLYGONALFACE((41,42,62,61));
#73=IFCINDEXEDPOLYGONALFACE((42,43,63,62));
#74=IFCINDEXEDPOLYGONALFACE((43,44,64,63));
#75=IFCINDEXEDPOLYGONALFACE((44,45,65,64));
#76=IFCINDEXEDPOLYGONALFACE((45,46,66,65));
#77=IFCINDEXEDPOLYGONALFACE((46,47,67,66));
#78=IFCINDEXEDPOLYGONALFACE((47,48,68,67));
#79=IFCINDEXEDPOLYGONALFACE((48,49,69,68));
#80=IFCINDEXEDPOLYGONALFACE((49,50,70,69));
#81=IFCINDEXEDPOLYGONALFACE((50,51,71,70));
#82=IFCINDEXEDPOLYGONALFACE((51,52,72,71));
#83=IFCINDEXEDPOLYGONALFACE((52,53,73,72));
#84=IFCINDEXEDPOLYGONALFACE((53,54,74,73));
#85=IFCINDEXEDPOLYGONALFACE((54,55,75,74));
#86=IFCINDEXEDPOLYGONALFACE((55,56,76,75));
#87=IFCINDEXEDPOLYGONALFACE((56,57,77,76));
#88=IFCINDEXEDPOLYGONALFACE((57,58,78,77));
#89=IFCINDEXEDPOLYGONALFACE((58,59,79,78));
#90=IFCINDEXEDPOLYGONALFACE((59,60,80,79));
#91=IFCINDEXEDPOLYGONALFACE((60,41,61,80));
#92=IFCINDEXEDPOLYGONALFACE((100,99,98,97,96,95,94,93,92,91,90,89,88,87,86,85,84,83,82,81));
#93=IFCINDEXEDPOLYGONALFACE((101,102,103,104,105,106,107,108,109,110,111,112,113,114,115,116,117,118,119,120));
#94=IFCINDEXEDPOLYGONALFACE((81,82,102,101));
#95=IFCINDEXEDPOLYGONALFACE((82,83,103,102));
#96=IFCINDEXEDPOLYGONALFACE((83,84,104,103));
#97=IFCINDEXEDPOLYGONALFACE((84,85,105,104));
#98=IFCINDEXEDPOLYGONALFACE((85,86,106,105));
#99=IFCINDEXEDPOLYGONALFACE((86,87,107,106));
#100=IFCINDEXEDPOLYGONALFACE((87,88,108,107));
#101=IFCINDEXEDPOLYGONALFACE((88,89,109,108));
#102=IFCINDEXEDPOLYGONALFACE((89,90,110,109));
#103=IFCINDEXEDPOLYGONALFACE((90,91,111,110));
#104=IFCINDEXEDPOLYGONALFACE((91,92,112,111));
#105=IFCINDEXEDPOLYGONALFACE((92,93,113,112));
#106=IFCINDEXEDPOLYGONALFACE((93,94,114,113));
#107=IFCINDEXEDPOLYGONALFACE((94,95,115,114));
#108=IFCINDEXEDPOLYGONALFACE((95,96,116,115));
#109=IFCINDEXEDPOLYGONALFACE((96,97,117,116));
#110=IFCINDEXEDPOLYGONALFACE((97,98,118,117));
#111=IFCINDEXEDPOLYGONALFACE((98,99,119,118));
#112=IFCINDEXEDPOLYGONALFACE((99,100,120,119));
#113=IFCINDEXEDPOLYGONALFACE((100,81,101,120));
#114=IFCINDEXEDPOLYGONALFACE((140,139,138,137,136,135,134,133,132,131,130,129,128,127,126,125,124,123,122,121));
#115=IFCINDEXEDPOLYGONALFACE((141,142,143,144,145,146,147,148,149,150,151,152,153,154,155,156,157,158,159,160));
#116=IFCINDEXEDPOLYGONALFACE((121,122,142,141));
#117=IFCINDEXEDPOLYGONALFACE((122,123,143,142));
#118=IFCINDEXEDPOLYGONALFACE((123,124,144,143));
#119=IFCINDEXEDPOLYGONALFACE((124,125,145,144));
#120=IFCINDEXEDPOLYGONALFACE((125,126,146,145));
#121=IFCINDEXEDPOLYGONALFACE((126,127,147,146));
#122=IFCINDEXEDPOLYGONALFACE((127,128,148,147));
#123=IFCINDEXEDPOLYGONALFACE((128,129,149,148));
#124=IFCINDEXEDPOLYGONALFACE((129,130,150,149));
#125=IFCINDEXEDPOLYGONALFACE((130,131,151,150));
#126=IFCINDEXEDPOLYGONALFACE((131,132,152,151));
#127=IFCINDEXEDPOLYGONALFACE((132,133,153,152));
#128=IFCINDEXEDPOLYGONALFACE((133,134,154,153));
#129=IFCINDEXEDPOLYGONALFACE((134,135,155,154));
#130=IFCINDEXEDPOLYGONALFACE((135,136,156,155));
#131=IFCINDEXEDPOLYGONALFACE((136,137,157,156));
#132=IFCINDEXEDPOLYGONALFACE((137,138,158,157));
#133=IFCINDEXEDPOLYGONALFACE((138,139,159,158));
#134=IFCINDEXEDPOLYGONALFACE((139,140,160,159));
#135=IFCINDEXEDPOLYGONALFACE((140,121,141,160));
#136=IFCINDEXEDPOLYGONALFACE((180,179,178,177,176,175,174,173,172,171,170,169,168,167,166,165,164,163,162,161));
#137=IFCINDEXEDPOLYGONALFACE((181,182,183,184,185,186,187,188,189,190,191,192,193,194,195,196,197,198,199,200));
#138=IFCINDEXEDPOLYGONALFACE((161,162,182,181));
#139=IFCINDEXEDPOLYGONALFACE((162,163,183,182));
#140=IFCINDEXEDPOLYGONALFACE((163,164,184,183));
#141=IFCINDEXEDPOLYGONALFACE((164,165,185,184));
#142=IFCINDEXEDPOLYGONALFACE((165,166,186,185));
#143=IFCINDEXEDPOLYGONALFACE((166,167,187,186));
#144=IFCINDEXEDPOLYGONALFACE((167,168,188,187));
#145=IFCINDEXEDPOLYGONALFACE((168,169,189,188));
#146=IFCINDEXEDPOLYGONALFACE((169,170,190,189));
#147=IFCINDEXEDPOLYGONALFACE((170,171,191,190));
#148=IFCINDEXEDPOLYGONALFACE((171,172,192,191));
#149=IFCINDEXEDPOLYGONALFACE((172,173,193,192));
#150=IFCINDEXEDPOLYGONALFACE((173,174,194,193));
#151=IFCINDEXEDPOLYGONALFACE((174,175,195,194));
#152=IFCINDEXEDPOLYGONALFACE((175,176,196,195));
#153=IFCINDEXEDPOLYGONALFACE((176,177,197,196));
#154=IFCINDEXEDPOLYGONALFACE((177,178,198,197));
#155=IFCINDEXEDPOLYGONALFACE((178,179,199,198));
#156=IFCINDEXEDPOLYGONALFACE((179,180,200,199));
#157=IFCINDEXEDPOLYGONALFACE((180,161,181,200));
#158=IFCINDEXEDPOLYGONALFACE((220,219,218,217,216,215,214,213,212,211,210,209,208,207,206,205,204,203,202,201));
#159=IFCINDEXEDPOLYGONALFACE((221,222,223,224,225,226,227,228,229,230,231,232,233,234,235,236,237,238,239,240));
#160=IFCINDEXEDPOLYGONALFACE((201,202,222,221));
#161=IFCINDEXEDPOLYGONALFACE((202,203,223,222));
#162=IFCINDEXEDPOLYGONALFACE((203,204,224,223));
#163=IFCINDEXEDPOLYGONALFACE((204,205,225,224));
#164=IFCINDEXEDPOLYGONALFACE((205,206,226,225));
#165=IFCINDEXEDPOLYGONALFACE((206,207,227,226));
#166=IFCINDEXEDPOLYGONALFACE((207,208,228,227));
#167=IFCINDEXEDPOLYGONALFACE((208,209,229,228));
#168=IFCINDEXEDPOLYGONALFACE((209,210,230,229));
#169=IFCINDEXEDPOLYGONALFACE((210,211,231,230));
#170=IFCINDEXEDPOLYGONALFACE((211,212,232,231));
#171=IFCINDEXEDPOLYGONALFACE((212,213,233,232));
#172=IFCINDEXEDPOLYGONALFACE((213,214,234,233));
#173=IFCINDEXEDPOLYGONALFACE((214,215,235,234));
#174=IFCINDEXEDPOLYGONALFACE((215,216,236,235));
#175=IFCINDEXEDPOLYGONALFACE((216,217,237,236));
#176=IFCINDEXEDPOLYGONALFACE((217,218,238,237));
#177=IFCINDEXEDPOLYGONALFACE((218,219,239,238));
#178=IFCINDEXEDPOLYGONALFACE((219,220,240,239));
#179=IFCINDEXEDPOLYGONALFACE((220,201,221,240));
#180=IFCINDEXEDPOLYGONALFACE((260,259,258,257,256,255,254,253,252,251,250,249,248,247,246,245,244,243,242,241));
#181=IFCINDEXEDPOLYGONALFACE((261,262,263,264,265,266,267,268,269,270,271,272,273,274,275,276,277,278,279,280));
#182=IFCINDEXEDPOLYGONALFACE((241,242,262,261));
#183=IFCINDEXEDPOLYGONALFACE((242,243,263,262));
#184=IFCINDEXEDPOLYGONALFACE((243,244,264,263));
#185=IFCINDEXEDPOLYGONALFACE((244,245,265,264));
#186=IFCINDEXEDPOLYGONALFACE((245,246,266,265));
#187=IFCINDEXEDPOLYGONALFACE((246,247,267,266));
#188=IFCINDEXEDPOLYGONALFACE((247,248,268,267));
#189=IFCINDEXEDPOLYGONALFACE((248,249,269,268));
#190=IFCINDEXEDPOLYGONALFACE((249,250,270,269));
#191=IFCINDEXEDPOLYGONALFACE((250,251,271,270));
#192=IFCINDEXEDPOLYGONALFACE((251,252,272,271));
#193=IFCINDEXEDPOLYGONALFACE((252,253,273,272));
#194=IFCINDEXEDPOLYGONALFACE((253,254,274,273));
#195=IFCINDEXEDPOLYGONALFACE((254,255,275,274));
#196=IFCINDEXEDPOLYGONALFACE((255,256,276,275));
#197=IFCINDEXEDPOLYGONALFACE((256,257,277,276));
#198=IFCINDEXEDPOLYGONALFACE((257,258,278,277));
#199=IFCINDEXEDPOLYGONALFACE((258,259,279,278));
#200=IFCINDEXEDPOLYGONALFACE((259,260,280,279));
#201=IFCINDEXEDPOLYGONALFACE((260,241,261,280));
#202=IFCINDEXEDPOLYGONALFACE((300,299,298,297,296,295,294,293,292,291,290,289,288,287,286,285,284,283,282,281));
#203=IFCINDEXEDPOLYGONALFACE((301,302,303,304,305,306,307,308,309,310,311,312,313,314,315,316,317,318,319,320));
#204=IFCINDEXEDPOLYGONALFACE((281,282,302,301));
#205=IFCINDEXEDPOLYGONALFACE((282,283,303,302));
#206=IFCINDEXEDPOLYGONALFACE((283,284,304,303));
#207=IFCINDEXEDPOLYGONALFACE((284,285,305,304));
#208=IFCINDEXEDPOLYGONALFACE((285,286,306,305));
#209=IFCINDEXEDPOLYGONALFACE((286,287,307,306));
#210=IFCINDEXEDPOLYGONALFACE((287,288,308,307));
#211=IFCINDEXEDPOLYGONALFACE((288,289,309,308));
#212=IFCINDEXEDPOLYGONALFACE((289,290,310,309));
#213=IFCINDEXEDPOLYGONALFACE((290,291,311,310));
#214=IFCINDEXEDPOLYGONALFACE((291,292,312,311));
#215=IFCINDEXEDPOLYGONALFACE((292,293,313,312));
#216=IFCINDEXEDPOLYGONALFACE((293,294,314,313));
#217=IFCINDEXEDPOLYGONALFACE((294,295,315,314));
#218=IFCINDEXEDPOLYGONALFACE((295,296,316,315));
#219=IFCINDEXEDPOLYGONALFACE((296,297,317,316));
#220=IFCINDEXEDPOLYGONALFACE((297,298,318,317));
#221=IFCINDEXEDPOLYGONALFACE((298,299,319,318));
#222=IFCINDEXEDPOLYGONALFACE((299,300,320,319));
#223=IFCINDEXEDPOLYGONALFACE((300,281,301,320));
#224=IFCINDEXEDPOLYGONALFACE((340,339,338,337,336,335,334,333,332,331,330,329,328,327,326,325,324,323,322,321));
#225=IFCINDEXEDPOLYGONALFACE((341,342,343,344,345,346,347,348,349,350,351,352,353,354,355,356,357,358,359,360));
#226=IFCINDEXEDPOLYGONALFACE((321,322,342,341));
#227=IFCINDEXEDPOLYGONALFACE((322,323,343,342));
#228=IFCINDEXEDPOLYGONALFACE((323,324,344,343));
#229=IFCINDEXEDPOLYGONALFACE((324,325,345,344));
#230=IFCINDEXEDPOLYGONALFACE((325,326,346,345));
#231=IFCINDEXEDPOLYGONALFACE((326,327,347,346));
#232=IFCINDEXEDPOLYGONALFACE((327,328,348,347));
#233=IFCINDEXEDPOLYGONALFACE((328,329,349,348));
#234=IFCINDEXEDPOLYGONALFACE((329,330,350,349));
#235=IFCINDEXEDPOLYGONALFACE((330,331,351,350));
#236=IFCINDEXEDPOLYGONALFACE((331,332,352,351));
#237=IFCINDEXEDPOLYGONALFACE((332,333,353,352));
#238=IFCINDEXEDPOLYGONALFACE((333,334,354,353));
#239=IFCINDEXEDPOLYGONALFACE((334,335,355,354));
#240=IFCINDEXEDPOLYGONALFACE((335,336,356,355));
#241=IFCINDEXEDPOLYGONALFACE((336,337,357,356));
#242=IFCINDEXEDPOLYGONALFACE((337,338,358,357));
#243=IFCINDEXEDPOLYGONALFACE((338,339,359,358));
#244=IFCINDEXEDPOLYGONALFACE((339,340,360,359));
#245=IFCINDEXEDPOLYGONALFACE((340,321,341,360));
#246=IFCINDEXEDPOLYGONALFACE((380,379,378,377,376,375,374,373,372,371,370,369,368,367,366,365,364,363,362,361));
#247=IFCINDEXEDPOLYGONALFACE((381,382,383,384,385,386,387,388,389,390,391,392,393,394,395,396,397,398,399,400));
#248=IFCINDEXEDPOLYGONALFACE((361,362,382,381));
#249=IFCINDEXEDPOLYGONALFACE((362,363,383,382));
#250=IFCINDEXEDPOLYGONALFACE((363,364,384,383));
#251=IFCINDEXEDPOLYGONALFACE((364,365,385,384));
#252=IFCINDEXEDPOLYGONALFACE((365,366,386,385));
#253=IFCINDEXEDPOLYGONALFACE((366,367,387,386));
#254=IFCINDEXEDPOLYGONALFACE((367,368,388,387));
#255=IFCINDEXEDPOLYGONALFACE((368,369,389,388));
#256=IFCINDEXEDPOLYGONALFACE((369,370,390,389));
#257=IFCINDEXEDPOLYGONALFACE((370,371,391,390));
#258=IFCINDEXEDPOLYGONALFACE((371,372,392,391));
#259=IFCINDEXEDPOLYGONALFACE((372,373,393,392));
#260=IFCINDEXEDPOLYGONALFACE((373,374,394,393));
#261=IFCINDEXEDPOLYGONALFACE((374,375,395,394));
#262=IFCINDEXEDPOLYGONALFACE((375,376,396,395));
#263=IFCINDEXEDPOLYGONALFACE((376,377,397,396));
#264=IFCINDEXEDPOLYGONALFACE((377,378,398,397));
#265=IFCINDEXEDPOLYGONALFACE((378,379,399,398));
#266=IFCINDEXEDPOLYGONALFACE((379,380,400,399));
#267=IFCINDEXEDPOLYGONALFACE((380,361,381,400));
#268=IFCINDEXEDPOLYGONALFACE((420,419,418,417,416,415,414,413,412,411,410,409,408,407,406,405,404,403,402,401));
#269=IFCINDEXEDPOLYGONALFACE((421,422,423,424,425,426,427,428,429,430,431,432,433,434,435,436,437,438,439,440));
#270=IFCINDEXEDPOLYGONALFACE((401,402,422,421));
#271=IFCINDEXEDPOLYGONALFACE((402,403,423,422));
#272=IFCINDEXEDPOLYGONALFACE((403,404,424,423));
#273=IFCINDEXEDPOLYGONALFACE((404,405,425,424));
#274=IFCINDEXEDPOLYGONALFACE((405,406,426,425));
#275=IFCINDEXEDPOLYGONALFACE((406,407,427,426));
#276=IFCINDEXEDPOLYGONALFACE((407,408,428,427));
#277=IFCINDEXEDPOLYGONALFACE((408,409,429,428));
#278=IFCINDEXEDPOLYGONALFACE((409,410,430,429));
#279=IFCINDEXEDPOLYGONALFACE((410,411,431,430));
#280=IFCINDEXEDPOLYGONALFACE((411,412,432,431));
#281=IFCINDEXEDPOLYGONALFACE((412,413,433,432));
#282=IFCINDEXEDPOLYGONALFACE((413,414,434,433));
#283=IFCINDEXEDPOLYGONALFACE((414,415,435,434));
#284=IFCINDEXEDPOLYGONALFACE((415,416,436,435));
#285=IFCINDEXEDPOLYGONALFACE((416,417,437,436));
#286=IFCINDEXEDPOLYGONALFACE((417,418,438,437));
#287=IFCINDEXEDPOLYGONALFACE((418,419,439,438));
#288=IFCINDEXEDPOLYGONALFACE((419,420,440,439));
#289=IFCINDEXEDPOLYGONALFACE((420,401,421,440));
#290=IFCINDEXEDPOLYGONALFACE((441,442,444,443));
#291=IFCINDEXEDPOLYGONALFACE((445,447,448,446));
#292=IFCINDEXEDPOLYGONALFACE((441,445,446,442));
#293=IFCINDEXEDPOLYGONALFACE((443,444,448,447));
#294=IFCINDEXEDPOLYGONALFACE((441,443,447,445));
#295=IFCINDEXEDPOLYGONALFACE((442,446,448,444));
#296=IFCINDEXEDPOLYGONALFACE((449,450,452,451));
#297=IFCINDEXEDPOLYGONALFACE((453,455,456,454));
#298=IFCINDEXEDPOLYGONALFACE((449,453,454,450));
#299=IFCINDEXEDPOLYGONALFACE((451,452,456,455));
#300=IFCINDEXEDPOLYGONALFACE((449,451,455,453));
#301=IFCINDEXEDPOLYGONALFACE((450,454,456,452));
#302=IFCPOLYGONALFACESET(#39,$,(#40,#41,#42,#43,#44,#45,#46,#47,#48,#49,#50,#51,#52,#53,#54,#55,#56,#57,#58,#59,#60,#61,#62,#63,#64,#65,#66,#67,#68,#69,#70,#71,#72,#73,#74,#75,#76,#77,#78,#79,#80,#81,#82,#83,#84,#85,#86,#87,#88,#89,#90,#91,#92,#93,#94,#95,#96,#97,#98,#99,#100,#101,#102,#103,#104,#105,#106,#107,#108,#109,#110,#111,#112,#113,#114,#115,#116,#117,#118,#119,#120,#121,#122,#123,#124,#125,#126,#127,#128,#129,#130,#131,#132,#133,#134,#135,#136,#137,#138,#139,#140,#141,#142,#143,#144,#145,#146,#147,#148,#149,#150,#151,#152,#153,#154,#155,#156,#157,#158,#159,#160,#161,#162,#163,#164,#165,#166,#167,#168,#169,#170,#171,#172,#173,#174,#175,#176,#177,#178,#179,#180,#181,#182,#183,#184,#185,#186,#187,#188,#189,#190,#191,#192,#193,#194,#195,#196,#197,#198,#199,#200,#201,#202,#203,#204,#205,#206,#207,#208,#209,#210,#211,#212,#213,#214,#215,#216,#217,#218,#219,#220,#221,#222,#223,#224,#225,#226,#227,#228,#229,#230,#231,#232,#233,#234,#235,#236,#237,#238,#239,#240,#241,#242,#243,#244,#245,#246,#247,#248,#249,#250,#251,#252,#253,#254,#255,#256,#257,#258,#259,#260,#261,#262,#263,#264,#265,#266,#267,#268,#269,#270,#271,#272,#273,#274,#275,#276,#277,#278,#279,#280,#281,#282,#283,#284,#285,#286,#287,#288,#289,#290,#291,#292,#293,#294,#295,#296,#297,#298,#299,#300,#301),$);
#303=IFCSHAPEREPRESENTATION(#13,'Body','Tessellation',(#302));
#304=IFCPRODUCTDEFINITIONSHAPE($,$,(#303));
#305=IFCRELCONTAINEDINSPATIALSTRUCTURE('2z9cSH0RDTgQAihtlpNZBB',$,$,$,(#28),#3);
#306=IFCCARTESIANPOINT((0.,0.,0.));
#307=IFCAXIS2PLACEMENT3D(#306,$,$);
#308=IFCLOCALPLACEMENT($,#307);
ENDSEC;
END-ISO-10303-21;
