ISO-10303-21;
HEADER;
FILE_DESCRIPTION(('ViewDefinition [CoordinationView]'),'2;1');
FILE_NAME('LM3-EXT-P090.ifc','2026-08-30T00:00:00+00:00',('OpenSourceRail'),('OpenSourceRail'),'IfcOpenShell 0.8.5','OpenSourceRail deterministic LM3 product-library exporter','design-reference / not for construction');
FILE_SCHEMA(('IFC4X3_ADD2'));
ENDSEC;
DATA;
#1=IFCPROJECT('3D34Km9GTPwBETbBKuvRDF',$,'LM3-EXT-P090 \X2\2014\X0\ fire-rated GFRP roof-module, dry-seal, and removable skirt material kit','Design-reference geometry and assembly hierarchy only; supplier freeze, released drawings/tolerances, calculations, qualified processes and first-article tests remain mandatory.',$,$,$,(#12),#7);
#2=IFCSITE('0gxVqacR1R3edmFbqP$hv8',$,'LM3 product library',$,$,#18,$,$,.ELEMENT.,$,$,$,$,$);
#3=IFCBUILDING('3KucMLCp1IU9SgD9rIlWmR',$,'LM3 assembly inspection fixture',$,$,#21,$,$,.ELEMENT.,$,$,$);
#4=IFCSIUNIT(*,.LENGTHUNIT.,$,.METRE.);
#5=IFCSIUNIT(*,.AREAUNIT.,$,.SQUARE_METRE.);
#6=IFCSIUNIT(*,.VOLUMEUNIT.,$,.CUBIC_METRE.);
#7=IFCUNITASSIGNMENT((#6,#4,#5));
#8=IFCCARTESIANPOINT((0.,0.,0.));
#9=IFCDIRECTION((0.,0.,1.));
#10=IFCDIRECTION((1.,0.,0.));
#11=IFCAXIS2PLACEMENT3D(#8,#9,#10);
#12=IFCGEOMETRICREPRESENTATIONCONTEXT($,'Model',3,1.0000000000000001E-05,#11,$);
#13=IFCGEOMETRICREPRESENTATIONSUBCONTEXT('Body','Model',*,*,*,*,#12,$,.MODEL_VIEW.,$);
#14=IFCRELAGGREGATES('2AqiHJMLnIZeVJ1YCA_XNR',$,$,$,#1,(#2));
#15=IFCRELAGGREGATES('2Zr6Q2BdHGQRCcnd4RdTIx',$,$,$,#2,(#3));
#16=IFCCARTESIANPOINT((0.,0.,0.));
#17=IFCAXIS2PLACEMENT3D(#16,$,$);
#18=IFCLOCALPLACEMENT($,#17);
#19=IFCCARTESIANPOINT((0.,0.,0.));
#20=IFCAXIS2PLACEMENT3D(#19,$,$);
#21=IFCLOCALPLACEMENT($,#20);
#22=IFCPROPERTYSINGLEVALUE('Status',$,IFCTEXT('design-reference-not-released'),$);
#23=IFCPROPERTYSINGLEVALUE('ReleaseBoundary',$,IFCTEXT('Design-reference geometry and assembly hierarchy only; supplier freeze, released drawings/tolerances, calculations, qualified processes and first-article tests remain mandatory.'),$);
#24=IFCPROPERTYSINGLEVALUE('Manifest',$,IFCTEXT('design/component-catalogue/catalog/buildable-trainset/buildable-trainset-manifest.json'),$);
#25=IFCPROPERTYSINGLEVALUE('ManifestSha256',$,IFCTEXT('4c2ec91449f361762556e35852f8b914e3bcec03c1b9f940d8c756e5db7cf7a5'),$);
#26=IFCPROPERTYSET('03k280xwTOQ8EwUjhNvjJY',$,'OSR_ProductLibrary',$,(#22,#23,#24,#25));
#27=IFCRELDEFINESBYPROPERTIES('1I4XKliqzOb97w7K_AwUQd',$,$,$,(#1),#26);
#28=IFCMEMBER('1lN4JXMV5MNAnokPN4Wlx_',$,'fire-rated GFRP roof-module, dry-seal, and removable skirt material kit','Supplier-qualified roof-module laminate consumables, EPDM seal stock, trim materials, and removable skirt blanks feed the local mould/trim/clip process.',$,#76,#72,'LM3-EXT-P090',$);
#29=IFCPROPERTYSINGLEVALUE('OSRId',$,IFCTEXT('LM3-EXT-P090'),$);
#30=IFCPROPERTYSINGLEVALUE('Parent',$,IFCTEXT('LM3-SHELL-A200'),$);
#31=IFCPROPERTYSINGLEVALUE('Route',$,IFCTEXT('BID'),$);
#32=IFCPROPERTYSINGLEVALUE('Maturity',$,IFCTEXT('buildable-after-supplier-freeze'),$);
#33=IFCPROPERTYSINGLEVALUE('QuantityPerTrainset',$,IFCINTEGER(3),$);
#34=IFCPROPERTYSINGLEVALUE('Unit',$,IFCTEXT('car kit'),$);
#35=IFCPROPERTYSINGLEVALUE('GeometryStatus',$,IFCTEXT('design-reference-not-released'),$);
#36=IFCPROPERTYSINGLEVALUE('GeometryLevel',$,IFCTEXT('coordination-envelope'),$);
#37=IFCPROPERTYSET('39XE21WMnSm9MFkP5bUXc0',$,'OSR_ProductDefinition',$,(#29,#30,#31,#32,#33,#34,#35,#36));
#38=IFCRELDEFINESBYPROPERTIES('2cCOl7m_zK0hRxHu0OOSoL',$,$,$,(#28),#37);
#39=IFCCARTESIANPOINTLIST3D(((-0.5,-0.999,-0.021599999999999998),(-0.5,-0.999,0.021599999999999998),(-0.5,-0.72899999999999998,-0.021599999999999998),(-0.5,-0.72899999999999998,0.021599999999999998),(0.5,-0.999,-0.021599999999999998),(0.5,-0.999,0.021599999999999998),(0.5,-0.72899999999999998,-0.021599999999999998),(0.5,-0.72899999999999998,0.021599999999999998),(-0.5,0.72899999999999998,-0.021599999999999998),(-0.5,0.72899999999999998,0.021599999999999998),(-0.5,0.999,-0.021599999999999998),(-0.5,0.999,0.021599999999999998),(0.5,0.72899999999999998,-0.021599999999999998),(0.5,0.72899999999999998,0.021599999999999998),(0.5,0.999,-0.021599999999999998),(0.5,0.999,0.021599999999999998),(-0.36499999999999999,-1.0800000000000001,-0.027),(-0.36499999999999999,-1.0800000000000001,0.027),(-0.36499999999999999,1.0800000000000001,-0.027),(-0.36499999999999999,1.0800000000000001,0.027),(-0.33500000000000002,-1.0800000000000001,-0.027),(-0.33500000000000002,-1.0800000000000001,0.027),(-0.33500000000000002,1.0800000000000001,-0.027),(-0.33500000000000002,1.0800000000000001,0.027),(-0.014999999999999999,-1.0800000000000001,-0.027),(-0.014999999999999999,-1.0800000000000001,0.027),(-0.014999999999999999,1.0800000000000001,-0.027),(-0.014999999999999999,1.0800000000000001,0.027),(0.014999999999999999,-1.0800000000000001,-0.027),(0.014999999999999999,-1.0800000000000001,0.027),(0.014999999999999999,1.0800000000000001,-0.027),(0.014999999999999999,1.0800000000000001,0.027),(0.33500000000000002,-1.0800000000000001,-0.027),(0.33500000000000002,-1.0800000000000001,0.027),(0.33500000000000002,1.0800000000000001,-0.027),(0.33500000000000002,1.0800000000000001,0.027),(0.36499999999999999,-1.0800000000000001,-0.027),(0.36499999999999999,-1.0800000000000001,0.027),(0.36499999999999999,1.0800000000000001,-0.027),(0.36499999999999999,1.0800000000000001,0.027)),$);
#40=IFCINDEXEDPOLYGONALFACE((1,2,4,3));
#41=IFCINDEXEDPOLYGONALFACE((5,7,8,6));
#42=IFCINDEXEDPOLYGONALFACE((1,5,6,2));
#43=IFCINDEXEDPOLYGONALFACE((3,4,8,7));
#44=IFCINDEXEDPOLYGONALFACE((1,3,7,5));
#45=IFCINDEXEDPOLYGONALFACE((2,6,8,4));
#46=IFCINDEXEDPOLYGONALFACE((9,10,12,11));
#47=IFCINDEXEDPOLYGONALFACE((13,15,16,14));
#48=IFCINDEXEDPOLYGONALFACE((9,13,14,10));
#49=IFCINDEXEDPOLYGONALFACE((11,12,16,15));
#50=IFCINDEXEDPOLYGONALFACE((9,11,15,13));
#51=IFCINDEXEDPOLYGONALFACE((10,14,16,12));
#52=IFCINDEXEDPOLYGONALFACE((17,18,20,19));
#53=IFCINDEXEDPOLYGONALFACE((21,23,24,22));
#54=IFCINDEXEDPOLYGONALFACE((17,21,22,18));
#55=IFCINDEXEDPOLYGONALFACE((19,20,24,23));
#56=IFCINDEXEDPOLYGONALFACE((17,19,23,21));
#57=IFCINDEXEDPOLYGONALFACE((18,22,24,20));
#58=IFCINDEXEDPOLYGONALFACE((25,26,28,27));
#59=IFCINDEXEDPOLYGONALFACE((29,31,32,30));
#60=IFCINDEXEDPOLYGONALFACE((25,29,30,26));
#61=IFCINDEXEDPOLYGONALFACE((27,28,32,31));
#62=IFCINDEXEDPOLYGONALFACE((25,27,31,29));
#63=IFCINDEXEDPOLYGONALFACE((26,30,32,28));
#64=IFCINDEXEDPOLYGONALFACE((33,34,36,35));
#65=IFCINDEXEDPOLYGONALFACE((37,39,40,38));
#66=IFCINDEXEDPOLYGONALFACE((33,37,38,34));
#67=IFCINDEXEDPOLYGONALFACE((35,36,40,39));
#68=IFCINDEXEDPOLYGONALFACE((33,35,39,37));
#69=IFCINDEXEDPOLYGONALFACE((34,38,40,36));
#70=IFCPOLYGONALFACESET(#39,$,(#40,#41,#42,#43,#44,#45,#46,#47,#48,#49,#50,#51,#52,#53,#54,#55,#56,#57,#58,#59,#60,#61,#62,#63,#64,#65,#66,#67,#68,#69),$);
#71=IFCSHAPEREPRESENTATION(#13,'Body','Tessellation',(#70));
#72=IFCPRODUCTDEFINITIONSHAPE($,$,(#71));
#73=IFCRELCONTAINEDINSPATIALSTRUCTURE('2Swd8_xNnPtAbgiupB7Xpg',$,$,$,(#28),#3);
#74=IFCCARTESIANPOINT((0.,0.,0.));
#75=IFCAXIS2PLACEMENT3D(#74,$,$);
#76=IFCLOCALPLACEMENT($,#75);
ENDSEC;
END-ISO-10303-21;
