ISO-10303-21;
HEADER;
FILE_DESCRIPTION(('ViewDefinition [CoordinationView]'),'2;1');
FILE_NAME('LM3-EXT-P050.ifc','2026-08-30T00:00:00+00:00',('OpenSourceRail'),('OpenSourceRail'),'IfcOpenShell 0.8.5','OpenSourceRail deterministic LM3 product-library exporter','design-reference / not for construction');
FILE_SCHEMA(('IFC4X3_ADD2'));
ENDSEC;
DATA;
#1=IFCPROJECT('2plg4iBiHOrfdIuKmMTmhl',$,'LM3-EXT-P050 \X2\2014\X0\ roof PV module and edge-clamp kit','Design-reference geometry and assembly hierarchy only; supplier freeze, released drawings/tolerances, calculations, qualified processes and first-article tests remain mandatory.',$,$,$,(#12),#7);
#2=IFCSITE('3HH5NsjtXOkRWwRRJnjUxq',$,'LM3 product library',$,$,#18,$,$,.ELEMENT.,$,$,$,$,$);
#3=IFCBUILDING('0BfdSp5hbTquMnFPE8ibMk',$,'LM3 assembly inspection fixture',$,$,#21,$,$,.ELEMENT.,$,$,$);
#4=IFCSIUNIT(*,.LENGTHUNIT.,$,.METRE.);
#5=IFCSIUNIT(*,.AREAUNIT.,$,.SQUARE_METRE.);
#6=IFCSIUNIT(*,.VOLUMEUNIT.,$,.CUBIC_METRE.);
#7=IFCUNITASSIGNMENT((#6,#4,#5));
#8=IFCCARTESIANPOINT((0.,0.,0.));
#9=IFCDIRECTION((0.,0.,1.));
#10=IFCDIRECTION((1.,0.,0.));
#11=IFCAXIS2PLACEMENT3D(#8,#9,#10);
#12=IFCGEOMETRICREPRESENTATIONCONTEXT($,'Model',3,1.0000000000000001E-05,#11,$);
#13=IFCGEOMETRICREPRESENTATIONSUBCONTEXT('Body','Model',*,*,*,*,#12,$,.MODEL_VIEW.,$);
#14=IFCRELAGGREGATES('1zf4m3TmzTE9zIfjtLineN',$,$,$,#1,(#2));
#15=IFCRELAGGREGATES('2pabAolt5VJgaTglUcgrkQ',$,$,$,#2,(#3));
#16=IFCCARTESIANPOINT((0.,0.,0.));
#17=IFCAXIS2PLACEMENT3D(#16,$,$);
#18=IFCLOCALPLACEMENT($,#17);
#19=IFCCARTESIANPOINT((0.,0.,0.));
#20=IFCAXIS2PLACEMENT3D(#19,$,$);
#21=IFCLOCALPLACEMENT($,#20);
#22=IFCPROPERTYSINGLEVALUE('Status',$,IFCTEXT('design-reference-not-released'),$);
#23=IFCPROPERTYSINGLEVALUE('ReleaseBoundary',$,IFCTEXT('Design-reference geometry and assembly hierarchy only; supplier freeze, released drawings/tolerances, calculations, qualified processes and first-article tests remain mandatory.'),$);
#24=IFCPROPERTYSINGLEVALUE('Manifest',$,IFCTEXT('design/component-catalogue/catalog/buildable-trainset/buildable-trainset-manifest.json'),$);
#25=IFCPROPERTYSINGLEVALUE('ManifestSha256',$,IFCTEXT('7654747909805305ce2018109b5b649c4817a8f8c44a3ec8f2e8a6f74d48243e'),$);
#26=IFCPROPERTYSET('2uW3i_gcPIGebbU5lyR1f2',$,'OSR_ProductLibrary',$,(#22,#23,#24,#25));
#27=IFCRELDEFINESBYPROPERTIES('2OHW34S_XSnRvp9fjtH86s',$,$,$,(#1),#26);
#28=IFCBUILDINGELEMENTPROXY('2jd1ApKUnKG9TAX1ttQ02y',$,'roof PV module and edge-clamp kit','Flexible/rigid PV modules plus isolators and roof harness.',$,#57,#53,'LM3-EXT-P050',$);
#29=IFCPROPERTYSINGLEVALUE('OSRId',$,IFCTEXT('LM3-EXT-P050'),$);
#30=IFCPROPERTYSINGLEVALUE('Parent',$,IFCTEXT('LM3-ROOF-SA410'),$);
#31=IFCPROPERTYSINGLEVALUE('Route',$,IFCTEXT('SOURCE'),$);
#32=IFCPROPERTYSINGLEVALUE('Maturity',$,IFCTEXT('release-candidate'),$);
#33=IFCPROPERTYSINGLEVALUE('QuantityPerTrainset',$,IFCINTEGER(36),$);
#34=IFCPROPERTYSINGLEVALUE('Unit',$,IFCTEXT('module'),$);
#35=IFCPROPERTYSINGLEVALUE('GeometryStatus',$,IFCTEXT('design-reference-not-released'),$);
#36=IFCPROPERTYSET('2LHbIxOq5O3xhhIx0M9o$d',$,'OSR_ProductDefinition',$,(#29,#30,#31,#32,#33,#34,#35));
#37=IFCRELDEFINESBYPROPERTIES('1FXtNm5$1P$u4o8Pr86SHU',$,$,$,(#28),#36);
#38=IFCCARTESIANPOINTLIST3D(((-0.84999999999999998,-0.52500000000000002,-0.022499999999999999),(-0.84999999999999998,-0.52500000000000002,0.022499999999999999),(-0.84999999999999998,0.52500000000000002,-0.022499999999999999),(-0.84999999999999998,0.52500000000000002,0.022499999999999999),(0.84999999999999998,-0.52500000000000002,-0.022499999999999999),(0.84999999999999998,-0.52500000000000002,0.022499999999999999),(0.84999999999999998,0.52500000000000002,-0.022499999999999999),(0.84999999999999998,0.52500000000000002,0.022499999999999999),(-0.84999999999999998,-0.0315,-0.020250000000000001),(-0.84999999999999998,-0.0315,0.020250000000000001),(-0.84999999999999998,0.0315,-0.020250000000000001),(-0.84999999999999998,0.0315,0.020250000000000001),(0.84999999999999998,-0.0315,-0.020250000000000001),(0.84999999999999998,-0.0315,0.020250000000000001),(0.84999999999999998,0.0315,-0.020250000000000001),(0.84999999999999998,0.0315,0.020250000000000001)),$);
#39=IFCINDEXEDPOLYGONALFACE((1,2,4,3));
#40=IFCINDEXEDPOLYGONALFACE((5,7,8,6));
#41=IFCINDEXEDPOLYGONALFACE((1,5,6,2));
#42=IFCINDEXEDPOLYGONALFACE((3,4,8,7));
#43=IFCINDEXEDPOLYGONALFACE((1,3,7,5));
#44=IFCINDEXEDPOLYGONALFACE((2,6,8,4));
#45=IFCINDEXEDPOLYGONALFACE((9,10,12,11));
#46=IFCINDEXEDPOLYGONALFACE((13,15,16,14));
#47=IFCINDEXEDPOLYGONALFACE((9,13,14,10));
#48=IFCINDEXEDPOLYGONALFACE((11,12,16,15));
#49=IFCINDEXEDPOLYGONALFACE((9,11,15,13));
#50=IFCINDEXEDPOLYGONALFACE((10,14,16,12));
#51=IFCPOLYGONALFACESET(#38,$,(#39,#40,#41,#42,#43,#44,#45,#46,#47,#48,#49,#50),$);
#52=IFCSHAPEREPRESENTATION(#13,'Body','Tessellation',(#51));
#53=IFCPRODUCTDEFINITIONSHAPE($,$,(#52));
#54=IFCRELCONTAINEDINSPATIALSTRUCTURE('1HSjkUaWrMgufHKoVtjxjz',$,$,$,(#28),#3);
#55=IFCCARTESIANPOINT((0.,0.,0.));
#56=IFCAXIS2PLACEMENT3D(#55,$,$);
#57=IFCLOCALPLACEMENT($,#56);
ENDSEC;
END-ISO-10303-21;
