ISO-10303-21;
HEADER;
FILE_DESCRIPTION(('ViewDefinition [CoordinationView]'),'2;1');
FILE_NAME('LM3-ART-P020.ifc','2026-08-30T00:00:00+00:00',('OpenSourceRail'),('OpenSourceRail'),'IfcOpenShell 0.8.5','OpenSourceRail deterministic LM3 product-library exporter','design-reference / not for construction');
FILE_SCHEMA(('IFC4X3_ADD2'));
ENDSEC;
DATA;
#1=IFCPROJECT('0DB1YX3a9L_AFP7bt$u5O5',$,'LM3-ART-P020 \X2\2014\X0\ articulation lower spherical pivot, bearing housing and pin set','Design-reference geometry and assembly hierarchy only; supplier freeze, released drawings/tolerances, calculations, qualified processes and first-article tests remain mandatory.',$,$,$,(#12),#7);
#2=IFCSITE('2CnEGDvvfOyPuF$8L5ScMD',$,'LM3 product library',$,$,#18,$,$,.ELEMENT.,$,$,$,$,$);
#3=IFCBUILDING('2UND2fmgzJhBFjWZ3yZ59J',$,'LM3 assembly inspection fixture',$,$,#21,$,$,.ELEMENT.,$,$,$);
#4=IFCSIUNIT(*,.LENGTHUNIT.,$,.METRE.);
#5=IFCSIUNIT(*,.AREAUNIT.,$,.SQUARE_METRE.);
#6=IFCSIUNIT(*,.VOLUMEUNIT.,$,.CUBIC_METRE.);
#7=IFCUNITASSIGNMENT((#6,#4,#5));
#8=IFCCARTESIANPOINT((0.,0.,0.));
#9=IFCDIRECTION((0.,0.,1.));
#10=IFCDIRECTION((1.,0.,0.));
#11=IFCAXIS2PLACEMENT3D(#8,#9,#10);
#12=IFCGEOMETRICREPRESENTATIONCONTEXT($,'Model',3,1.0000000000000001E-05,#11,$);
#13=IFCGEOMETRICREPRESENTATIONSUBCONTEXT('Body','Model',*,*,*,*,#12,$,.MODEL_VIEW.,$);
#14=IFCRELAGGREGATES('2eP_p_kTXL$P_SQ3vLvqLq',$,$,$,#1,(#2));
#15=IFCRELAGGREGATES('2Po0coTpLHtQD4zmF3VIfD',$,$,$,#2,(#3));
#16=IFCCARTESIANPOINT((0.,0.,0.));
#17=IFCAXIS2PLACEMENT3D(#16,$,$);
#18=IFCLOCALPLACEMENT($,#17);
#19=IFCCARTESIANPOINT((0.,0.,0.));
#20=IFCAXIS2PLACEMENT3D(#19,$,$);
#21=IFCLOCALPLACEMENT($,#20);
#22=IFCPROPERTYSINGLEVALUE('Status',$,IFCTEXT('design-reference-not-released'),$);
#23=IFCPROPERTYSINGLEVALUE('ReleaseBoundary',$,IFCTEXT('Design-reference geometry and assembly hierarchy only; supplier freeze, released drawings/tolerances, calculations, qualified processes and first-article tests remain mandatory.'),$);
#24=IFCPROPERTYSINGLEVALUE('Manifest',$,IFCTEXT('design/component-catalogue/catalog/buildable-trainset/buildable-trainset-manifest.json'),$);
#25=IFCPROPERTYSINGLEVALUE('ManifestSha256',$,IFCTEXT('4c2ec91449f361762556e35852f8b914e3bcec03c1b9f940d8c756e5db7cf7a5'),$);
#26=IFCPROPERTYSET('35cZlRV8nUrwAl81s1RgSV',$,'OSR_ProductLibrary',$,(#22,#23,#24,#25));
#27=IFCRELDEFINESBYPROPERTIES('1eNcRPMLPQMOiLI03L8j6V',$,$,$,(#1),#26);
#28=IFCDISCRETEACCESSORY('2eLh036b5KCel3DTXLM3dz',$,'articulation lower spherical pivot, bearing housing and pin set','Supplier-sized spherical bearing, housing, pin, bushes and retainers transmit the released draw, buff, vertical and anti-lift loads through the OSR adapter.',$,#74,#70,'LM3-ART-P020',$);
#29=IFCPROPERTYSINGLEVALUE('OSRId',$,IFCTEXT('LM3-ART-P020'),$);
#30=IFCPROPERTYSINGLEVALUE('Parent',$,IFCTEXT('LM3-ART-SA810'),$);
#31=IFCPROPERTYSINGLEVALUE('Route',$,IFCTEXT('BID'),$);
#32=IFCPROPERTYSINGLEVALUE('Maturity',$,IFCTEXT('buildable-after-supplier-freeze'),$);
#33=IFCPROPERTYSINGLEVALUE('QuantityPerTrainset',$,IFCINTEGER(2),$);
#34=IFCPROPERTYSINGLEVALUE('Unit',$,IFCTEXT('joint set'),$);
#35=IFCPROPERTYSINGLEVALUE('GeometryStatus',$,IFCTEXT('design-reference-not-released'),$);
#36=IFCPROPERTYSINGLEVALUE('GeometryLevel',$,IFCTEXT('coordination-envelope'),$);
#37=IFCPROPERTYSET('1cIaohqF1LPxx3D$DOzh9q',$,'OSR_ProductDefinition',$,(#29,#30,#31,#32,#33,#34,#35,#36));
#38=IFCRELDEFINESBYPROPERTIES('0k8ongZ9fMjQPPH8cKKBEg',$,$,$,(#28),#37);
#39=IFCCARTESIANPOINTLIST3D(((0.21840000000000004,0.,-0.18719999999999998),(0.20771074315886157,0.067489311571488519,-0.18719999999999998),(0.17668931157148857,0.12837229910067616,-0.18719999999999998),(0.12837229910067616,0.17668931157148857,-0.18719999999999998),(0.067489311571488533,0.20771074315886157,-0.18719999999999998),(1.33731430466891E-17,0.21840000000000004,-0.18719999999999998),(-0.067489311571488506,0.20771074315886159,-0.18719999999999998),(-0.12837229910067613,0.17668931157148857,-0.18719999999999998),(-0.17668931157148854,0.12837229910067618,-0.18719999999999998),(-0.20771074315886157,0.067489311571488547,-0.18719999999999998),(-0.21840000000000004,2.67462860933782E-17,-0.18719999999999998),(-0.20771074315886162,-0.067489311571488408,-0.18719999999999998),(-0.17668931157148857,-0.12837229910067613,-0.18719999999999998),(-0.12837229910067618,-0.17668931157148854,-0.18719999999999998),(-0.067489311571488561,-0.20771074315886157,-0.18719999999999998),(-4.0119429140067297E-17,-0.21840000000000004,-0.18719999999999998),(0.067489311571488492,-0.20771074315886159,-0.18719999999999998),(0.1283722991006761,-0.17668931157148857,-0.18719999999999998),(0.17668931157148854,-0.12837229910067621,-0.18719999999999998),(0.20771074315886157,-0.067489311571488575,-0.18719999999999998),(0.21840000000000004,0.,0.18719999999999998),(0.20771074315886157,0.067489311571488519,0.18719999999999998),(0.17668931157148857,0.12837229910067616,0.18719999999999998),(0.12837229910067616,0.17668931157148857,0.18719999999999998),(0.067489311571488533,0.20771074315886157,0.18719999999999998),(1.33731430466891E-17,0.21840000000000004,0.18719999999999998),(-0.067489311571488506,0.20771074315886159,0.18719999999999998),(-0.12837229910067613,0.17668931157148857,0.18719999999999998),(-0.17668931157148854,0.12837229910067618,0.18719999999999998),(-0.20771074315886157,0.067489311571488547,0.18719999999999998),(-0.21840000000000004,2.67462860933782E-17,0.18719999999999998),(-0.20771074315886162,-0.067489311571488408,0.18719999999999998),(-0.17668931157148857,-0.12837229910067613,0.18719999999999998),(-0.12837229910067618,-0.17668931157148854,0.18719999999999998),(-0.067489311571488561,-0.20771074315886157,0.18719999999999998),(-4.0119429140067297E-17,-0.21840000000000004,0.18719999999999998),(0.067489311571488492,-0.20771074315886159,0.18719999999999998),(0.1283722991006761,-0.17668931157148857,0.18719999999999998),(0.17668931157148854,-0.12837229910067621,0.18719999999999998),(0.20771074315886157,-0.067489311571488575,0.18719999999999998),(-0.39000000000000001,-0.39000000000000001,-0.26000000000000001),(-0.39000000000000001,-0.39000000000000001,-0.13519999999999999),(-0.39000000000000001,0.39000000000000001,-0.26000000000000001),(-0.39000000000000001,0.39000000000000001,-0.13519999999999999),(0.39000000000000001,-0.39000000000000001,-0.26000000000000001),(0.39000000000000001,-0.39000000000000001,-0.13519999999999999),(0.39000000000000001,0.39000000000000001,-0.26000000000000001),(0.39000000000000001,0.39000000000000001,-0.13519999999999999)),$);
#40=IFCINDEXEDPOLYGONALFACE((20,19,18,17,16,15,14,13,12,11,10,9,8,7,6,5,4,3,2,1));
#41=IFCINDEXEDPOLYGONALFACE((21,22,23,24,25,26,27,28,29,30,31,32,33,34,35,36,37,38,39,40));
#42=IFCINDEXEDPOLYGONALFACE((1,2,22,21));
#43=IFCINDEXEDPOLYGONALFACE((2,3,23,22));
#44=IFCINDEXEDPOLYGONALFACE((3,4,24,23));
#45=IFCINDEXEDPOLYGONALFACE((4,5,25,24));
#46=IFCINDEXEDPOLYGONALFACE((5,6,26,25));
#47=IFCINDEXEDPOLYGONALFACE((6,7,27,26));
#48=IFCINDEXEDPOLYGONALFACE((7,8,28,27));
#49=IFCINDEXEDPOLYGONALFACE((8,9,29,28));
#50=IFCINDEXEDPOLYGONALFACE((9,10,30,29));
#51=IFCINDEXEDPOLYGONALFACE((10,11,31,30));
#52=IFCINDEXEDPOLYGONALFACE((11,12,32,31));
#53=IFCINDEXEDPOLYGONALFACE((12,13,33,32));
#54=IFCINDEXEDPOLYGONALFACE((13,14,34,33));
#55=IFCINDEXEDPOLYGONALFACE((14,15,35,34));
#56=IFCINDEXEDPOLYGONALFACE((15,16,36,35));
#57=IFCINDEXEDPOLYGONALFACE((16,17,37,36));
#58=IFCINDEXEDPOLYGONALFACE((17,18,38,37));
#59=IFCINDEXEDPOLYGONALFACE((18,19,39,38));
#60=IFCINDEXEDPOLYGONALFACE((19,20,40,39));
#61=IFCINDEXEDPOLYGONALFACE((20,1,21,40));
#62=IFCINDEXEDPOLYGONALFACE((41,42,44,43));
#63=IFCINDEXEDPOLYGONALFACE((45,47,48,46));
#64=IFCINDEXEDPOLYGONALFACE((41,45,46,42));
#65=IFCINDEXEDPOLYGONALFACE((43,44,48,47));
#66=IFCINDEXEDPOLYGONALFACE((41,43,47,45));
#67=IFCINDEXEDPOLYGONALFACE((42,46,48,44));
#68=IFCPOLYGONALFACESET(#39,$,(#40,#41,#42,#43,#44,#45,#46,#47,#48,#49,#50,#51,#52,#53,#54,#55,#56,#57,#58,#59,#60,#61,#62,#63,#64,#65,#66,#67),$);
#69=IFCSHAPEREPRESENTATION(#13,'Body','Tessellation',(#68));
#70=IFCPRODUCTDEFINITIONSHAPE($,$,(#69));
#71=IFCRELCONTAINEDINSPATIALSTRUCTURE('0AEIp$uL1V8OqprH5YCxBs',$,$,$,(#28),#3);
#72=IFCCARTESIANPOINT((0.,0.,0.));
#73=IFCAXIS2PLACEMENT3D(#72,$,$);
#74=IFCLOCALPLACEMENT($,#73);
ENDSEC;
END-ISO-10303-21;
