ISO-10303-21;
HEADER;
FILE_DESCRIPTION(('ViewDefinition [CoordinationView]'),'2;1');
FILE_NAME('LM3-EXT-P020.ifc','2026-08-30T00:00:00+00:00',('OpenSourceRail'),('OpenSourceRail'),'IfcOpenShell 0.8.5','OpenSourceRail deterministic LM3 product-library exporter','design-reference / not for construction');
FILE_SCHEMA(('IFC4X3_ADD2'));
ENDSEC;
DATA;
#1=IFCPROJECT('3no1jQlxbLM8c_g49iwc1y',$,'LM3-EXT-P020 \X2\2014\X0\ side laminated glazing cassette','Design-reference geometry and assembly hierarchy only; supplier freeze, released drawings/tolerances, calculations, qualified processes and first-article tests remain mandatory.',$,$,$,(#12),#7);
#2=IFCSITE('3TvUMS$YXH2A9lOD4obOS_',$,'LM3 product library',$,$,#18,$,$,.ELEMENT.,$,$,$,$,$);
#3=IFCBUILDING('37p2kdZU1M6u9l0nzvqb53',$,'LM3 assembly inspection fixture',$,$,#21,$,$,.ELEMENT.,$,$,$);
#4=IFCSIUNIT(*,.LENGTHUNIT.,$,.METRE.);
#5=IFCSIUNIT(*,.AREAUNIT.,$,.SQUARE_METRE.);
#6=IFCSIUNIT(*,.VOLUMEUNIT.,$,.CUBIC_METRE.);
#7=IFCUNITASSIGNMENT((#6,#4,#5));
#8=IFCCARTESIANPOINT((0.,0.,0.));
#9=IFCDIRECTION((0.,0.,1.));
#10=IFCDIRECTION((1.,0.,0.));
#11=IFCAXIS2PLACEMENT3D(#8,#9,#10);
#12=IFCGEOMETRICREPRESENTATIONCONTEXT($,'Model',3,1.0000000000000001E-05,#11,$);
#13=IFCGEOMETRICREPRESENTATIONSUBCONTEXT('Body','Model',*,*,*,*,#12,$,.MODEL_VIEW.,$);
#14=IFCRELAGGREGATES('1$KE1sU25RtO_yMsj3XuMQ',$,$,$,#1,(#2));
#15=IFCRELAGGREGATES('0kuDRvkgzTKhBXcgV8LcOw',$,$,$,#2,(#3));
#16=IFCCARTESIANPOINT((0.,0.,0.));
#17=IFCAXIS2PLACEMENT3D(#16,$,$);
#18=IFCLOCALPLACEMENT($,#17);
#19=IFCCARTESIANPOINT((0.,0.,0.));
#20=IFCAXIS2PLACEMENT3D(#19,$,$);
#21=IFCLOCALPLACEMENT($,#20);
#22=IFCPROPERTYSINGLEVALUE('Status',$,IFCTEXT('design-reference-not-released'),$);
#23=IFCPROPERTYSINGLEVALUE('ReleaseBoundary',$,IFCTEXT('Design-reference geometry and assembly hierarchy only; supplier freeze, released drawings/tolerances, calculations, qualified processes and first-article tests remain mandatory.'),$);
#24=IFCPROPERTYSINGLEVALUE('Manifest',$,IFCTEXT('design/component-catalogue/catalog/buildable-trainset/buildable-trainset-manifest.json'),$);
#25=IFCPROPERTYSINGLEVALUE('ManifestSha256',$,IFCTEXT('7654747909805305ce2018109b5b649c4817a8f8c44a3ec8f2e8a6f74d48243e'),$);
#26=IFCPROPERTYSET('1M$HPBkv9V1QQJ6h4Z$CD$',$,'OSR_ProductLibrary',$,(#22,#23,#24,#25));
#27=IFCRELDEFINESBYPROPERTIES('0umTLIND1VLgvapXLDWYFN',$,$,$,(#1),#26);
#28=IFCWINDOW('13P2z03njLoOpZzPbt6rng',$,'side laminated glazing cassette','Supplier-neutral bonded/gasketed cassette sized by OSR aperture.',$,#75,#71,'LM3-EXT-P020',$,$,$,$,$);
#29=IFCPROPERTYSINGLEVALUE('OSRId',$,IFCTEXT('LM3-EXT-P020'),$);
#30=IFCPROPERTYSINGLEVALUE('Parent',$,IFCTEXT('LM3-WIN-SA320'),$);
#31=IFCPROPERTYSINGLEVALUE('Route',$,IFCTEXT('SOURCE'),$);
#32=IFCPROPERTYSINGLEVALUE('Maturity',$,IFCTEXT('buildable-after-supplier-freeze'),$);
#33=IFCPROPERTYSINGLEVALUE('QuantityPerTrainset',$,IFCINTEGER(18),$);
#34=IFCPROPERTYSINGLEVALUE('Unit',$,IFCTEXT('ea'),$);
#35=IFCPROPERTYSINGLEVALUE('GeometryStatus',$,IFCTEXT('design-reference-not-released'),$);
#36=IFCPROPERTYSET('1xPRITNvDHLBYAOKv_5xAF',$,'OSR_ProductDefinition',$,(#29,#30,#31,#32,#33,#34,#35));
#37=IFCRELDEFINESBYPROPERTIES('0rzVkOjNDJox7osVP_f2fW',$,$,$,(#28),#36);
#38=IFCCARTESIANPOINTLIST3D(((-0.76000000000000001,-0.044999999999999998,-0.55000000000000004),(-0.76000000000000001,-0.044999999999999998,0.55000000000000004),(-0.76000000000000001,0.044999999999999998,-0.55000000000000004),(-0.76000000000000001,0.044999999999999998,0.55000000000000004),(-0.65000000000000002,-0.044999999999999998,-0.55000000000000004),(-0.65000000000000002,-0.044999999999999998,0.55000000000000004),(-0.65000000000000002,0.044999999999999998,-0.55000000000000004),(-0.65000000000000002,0.044999999999999998,0.55000000000000004),(0.65000000000000002,-0.044999999999999998,-0.55000000000000004),(0.65000000000000002,-0.044999999999999998,0.55000000000000004),(0.65000000000000002,0.044999999999999998,-0.55000000000000004),(0.65000000000000002,0.044999999999999998,0.55000000000000004),(0.76000000000000001,-0.044999999999999998,-0.55000000000000004),(0.76000000000000001,-0.044999999999999998,0.55000000000000004),(0.76000000000000001,0.044999999999999998,-0.55000000000000004),(0.76000000000000001,0.044999999999999998,0.55000000000000004),(-0.65000000000000002,-0.044999999999999998,0.44),(-0.65000000000000002,-0.044999999999999998,0.55000000000000004),(-0.65000000000000002,0.044999999999999998,0.44),(-0.65000000000000002,0.044999999999999998,0.55000000000000004),(0.65000000000000002,-0.044999999999999998,0.44),(0.65000000000000002,-0.044999999999999998,0.55000000000000004),(0.65000000000000002,0.044999999999999998,0.44),(0.65000000000000002,0.044999999999999998,0.55000000000000004),(-0.65000000000000002,-0.044999999999999998,-0.55000000000000004),(-0.65000000000000002,-0.044999999999999998,-0.44),(-0.65000000000000002,0.044999999999999998,-0.55000000000000004),(-0.65000000000000002,0.044999999999999998,-0.44),(0.65000000000000002,-0.044999999999999998,-0.55000000000000004),(0.65000000000000002,-0.044999999999999998,-0.44),(0.65000000000000002,0.044999999999999998,-0.55000000000000004),(0.65000000000000002,0.044999999999999998,-0.44),(-0.62319999999999998,-0.020250000000000001,-0.45100000000000001),(-0.62319999999999998,-0.020250000000000001,0.45100000000000001),(-0.62319999999999998,0.020250000000000001,-0.45100000000000001),(-0.62319999999999998,0.020250000000000001,0.45100000000000001),(0.62319999999999998,-0.020250000000000001,-0.45100000000000001),(0.62319999999999998,-0.020250000000000001,0.45100000000000001),(0.62319999999999998,0.020250000000000001,-0.45100000000000001),(0.62319999999999998,0.020250000000000001,0.45100000000000001)),$);
#39=IFCINDEXEDPOLYGONALFACE((1,2,4,3));
#40=IFCINDEXEDPOLYGONALFACE((5,7,8,6));
#41=IFCINDEXEDPOLYGONALFACE((1,5,6,2));
#42=IFCINDEXEDPOLYGONALFACE((3,4,8,7));
#43=IFCINDEXEDPOLYGONALFACE((1,3,7,5));
#44=IFCINDEXEDPOLYGONALFACE((2,6,8,4));
#45=IFCINDEXEDPOLYGONALFACE((9,10,12,11));
#46=IFCINDEXEDPOLYGONALFACE((13,15,16,14));
#47=IFCINDEXEDPOLYGONALFACE((9,13,14,10));
#48=IFCINDEXEDPOLYGONALFACE((11,12,16,15));
#49=IFCINDEXEDPOLYGONALFACE((9,11,15,13));
#50=IFCINDEXEDPOLYGONALFACE((10,14,16,12));
#51=IFCINDEXEDPOLYGONALFACE((17,18,20,19));
#52=IFCINDEXEDPOLYGONALFACE((21,23,24,22));
#53=IFCINDEXEDPOLYGONALFACE((17,21,22,18));
#54=IFCINDEXEDPOLYGONALFACE((19,20,24,23));
#55=IFCINDEXEDPOLYGONALFACE((17,19,23,21));
#56=IFCINDEXEDPOLYGONALFACE((18,22,24,20));
#57=IFCINDEXEDPOLYGONALFACE((25,26,28,27));
#58=IFCINDEXEDPOLYGONALFACE((29,31,32,30));
#59=IFCINDEXEDPOLYGONALFACE((25,29,30,26));
#60=IFCINDEXEDPOLYGONALFACE((27,28,32,31));
#61=IFCINDEXEDPOLYGONALFACE((25,27,31,29));
#62=IFCINDEXEDPOLYGONALFACE((26,30,32,28));
#63=IFCINDEXEDPOLYGONALFACE((33,34,36,35));
#64=IFCINDEXEDPOLYGONALFACE((37,39,40,38));
#65=IFCINDEXEDPOLYGONALFACE((33,37,38,34));
#66=IFCINDEXEDPOLYGONALFACE((35,36,40,39));
#67=IFCINDEXEDPOLYGONALFACE((33,35,39,37));
#68=IFCINDEXEDPOLYGONALFACE((34,38,40,36));
#69=IFCPOLYGONALFACESET(#38,$,(#39,#40,#41,#42,#43,#44,#45,#46,#47,#48,#49,#50,#51,#52,#53,#54,#55,#56,#57,#58,#59,#60,#61,#62,#63,#64,#65,#66,#67,#68),$);
#70=IFCSHAPEREPRESENTATION(#13,'Body','Tessellation',(#69));
#71=IFCPRODUCTDEFINITIONSHAPE($,$,(#70));
#72=IFCRELCONTAINEDINSPATIALSTRUCTURE('1nBgYWCqPKsvE4Od6IkmLp',$,$,$,(#28),#3);
#73=IFCCARTESIANPOINT((0.,0.,0.));
#74=IFCAXIS2PLACEMENT3D(#73,$,$);
#75=IFCLOCALPLACEMENT($,#74);
ENDSEC;
END-ISO-10303-21;
