ISO-10303-21;
HEADER;
FILE_DESCRIPTION(('ViewDefinition [CoordinationView]'),'2;1');
FILE_NAME('LM3-BOG-P044.ifc','2026-08-30T00:00:00+00:00',('OpenSourceRail'),('OpenSourceRail'),'IfcOpenShell 0.8.5','OpenSourceRail deterministic LM3 product-library exporter','design-reference / not for construction');
FILE_SCHEMA(('IFC4X3_ADD2'));
ENDSEC;
DATA;
#1=IFCPROJECT('3QUwRygErNW8e2XDYTUsK$',$,'LM3-BOG-P044 \X2\2014\X0\ powered-bogie primary suspension spring, guide and bump-stop set','Design-reference geometry and assembly hierarchy only; supplier freeze, released drawings/tolerances, calculations, qualified processes and first-article tests remain mandatory.',$,$,$,(#12),#7);
#2=IFCSITE('1NTM_y_x1NovsVvmM2En1m',$,'LM3 product library',$,$,#18,$,$,.ELEMENT.,$,$,$,$,$);
#3=IFCBUILDING('2aVh4_byPTpAOSvk3l8TgT',$,'LM3 assembly inspection fixture',$,$,#21,$,$,.ELEMENT.,$,$,$);
#4=IFCSIUNIT(*,.LENGTHUNIT.,$,.METRE.);
#5=IFCSIUNIT(*,.AREAUNIT.,$,.SQUARE_METRE.);
#6=IFCSIUNIT(*,.VOLUMEUNIT.,$,.CUBIC_METRE.);
#7=IFCUNITASSIGNMENT((#6,#4,#5));
#8=IFCCARTESIANPOINT((0.,0.,0.));
#9=IFCDIRECTION((0.,0.,1.));
#10=IFCDIRECTION((1.,0.,0.));
#11=IFCAXIS2PLACEMENT3D(#8,#9,#10);
#12=IFCGEOMETRICREPRESENTATIONCONTEXT($,'Model',3,1.0000000000000001E-05,#11,$);
#13=IFCGEOMETRICREPRESENTATIONSUBCONTEXT('Body','Model',*,*,*,*,#12,$,.MODEL_VIEW.,$);
#14=IFCRELAGGREGATES('1wFFQre4XPiQlpLiOQeM5N',$,$,$,#1,(#2));
#15=IFCRELAGGREGATES('2V0YbPEbbLXuYylZ8bAwhT',$,$,$,#2,(#3));
#16=IFCCARTESIANPOINT((0.,0.,0.));
#17=IFCAXIS2PLACEMENT3D(#16,$,$);
#18=IFCLOCALPLACEMENT($,#17);
#19=IFCCARTESIANPOINT((0.,0.,0.));
#20=IFCAXIS2PLACEMENT3D(#19,$,$);
#21=IFCLOCALPLACEMENT($,#20);
#22=IFCPROPERTYSINGLEVALUE('Status',$,IFCTEXT('design-reference-not-released'),$);
#23=IFCPROPERTYSINGLEVALUE('ReleaseBoundary',$,IFCTEXT('Design-reference geometry and assembly hierarchy only; supplier freeze, released drawings/tolerances, calculations, qualified processes and first-article tests remain mandatory.'),$);
#24=IFCPROPERTYSINGLEVALUE('Manifest',$,IFCTEXT('design/component-catalogue/catalog/buildable-trainset/buildable-trainset-manifest.json'),$);
#25=IFCPROPERTYSINGLEVALUE('ManifestSha256',$,IFCTEXT('7654747909805305ce2018109b5b649c4817a8f8c44a3ec8f2e8a6f74d48243e'),$);
#26=IFCPROPERTYSET('2$l16aD85L$QhyGdnL89dm',$,'OSR_ProductLibrary',$,(#22,#23,#24,#25));
#27=IFCRELDEFINESBYPROPERTIES('3BlHHP6D1UfB6oqWc35dSB',$,$,$,(#1),#26);
#28=IFCBUILDINGELEMENTPROXY('35k3gacDrGkfqNStKj9Mc9',$,'powered-bogie primary suspension spring, guide and bump-stop set','Matched, batch-traceable primary springs and elastomer guides are selected from the released axle-load and dynamic model.',$,#155,#151,'LM3-BOG-P044',$);
#29=IFCPROPERTYSINGLEVALUE('OSRId',$,IFCTEXT('LM3-BOG-P044'),$);
#30=IFCPROPERTYSINGLEVALUE('Parent',$,IFCTEXT('LM3-BOG-SA611'),$);
#31=IFCPROPERTYSINGLEVALUE('Route',$,IFCTEXT('BID'),$);
#32=IFCPROPERTYSINGLEVALUE('Maturity',$,IFCTEXT('buildable-after-supplier-freeze'),$);
#33=IFCPROPERTYSINGLEVALUE('QuantityPerTrainset',$,IFCINTEGER(3),$);
#34=IFCPROPERTYSINGLEVALUE('Unit',$,IFCTEXT('bogie set'),$);
#35=IFCPROPERTYSINGLEVALUE('GeometryStatus',$,IFCTEXT('design-reference-not-released'),$);
#36=IFCPROPERTYSET('3vsH5ETg9UyvS3SUFS_S3a',$,'OSR_ProductDefinition',$,(#29,#30,#31,#32,#33,#34,#35));
#37=IFCRELDEFINESBYPROPERTIES('0B2m9zmgPMxw2YRkZgUZOg',$,$,$,(#28),#36);
#38=IFCCARTESIANPOINTLIST3D(((-0.3600000000000001,-0.75600000000000001,-0.26000000000000001),(-0.37057179248024696,-0.68925232921501134,-0.26000000000000001),(-0.40125232921501142,-0.62903838550482583,-0.26000000000000001),(-0.44903838550482589,-0.58125232921501135,-0.26000000000000001),(-0.5092523292150114,-0.5505717924802469,-0.26000000000000001),(-0.57600000000000007,-0.54000000000000004,-0.26000000000000001),(-0.64274767078498862,-0.5505717924802469,-0.26000000000000001),(-0.70296161449517425,-0.58125232921501135,-0.26000000000000001),(-0.75074767078498872,-0.62903838550482583,-0.26000000000000001),(-0.78142820751975317,-0.68925232921501134,-0.26000000000000001),(-0.79200000000000004,-0.75600000000000001,-0.26000000000000001),(-0.78142820751975328,-0.82274767078498856,-0.26000000000000001),(-0.75074767078498872,-0.88296161449517419,-0.26000000000000001),(-0.70296161449517425,-0.93074767078498866,-0.26000000000000001),(-0.64274767078498873,-0.96142820751975311,-0.26000000000000001),(-0.57600000000000007,-0.97199999999999998,-0.26000000000000001),(-0.50925232921501151,-0.96142820751975311,-0.26000000000000001),(-0.44903838550482594,-0.93074767078498866,-0.26000000000000001),(-0.40125232921501147,-0.88296161449517419,-0.26000000000000001),(-0.37057179248024696,-0.82274767078498867,-0.26000000000000001),(-0.3600000000000001,-0.75600000000000001,0.26000000000000001),(-0.37057179248024696,-0.68925232921501134,0.26000000000000001),(-0.40125232921501142,-0.62903838550482583,0.26000000000000001),(-0.44903838550482589,-0.58125232921501135,0.26000000000000001),(-0.5092523292150114,-0.5505717924802469,0.26000000000000001),(-0.57600000000000007,-0.54000000000000004,0.26000000000000001),(-0.64274767078498862,-0.5505717924802469,0.26000000000000001),(-0.70296161449517425,-0.58125232921501135,0.26000000000000001),(-0.75074767078498872,-0.62903838550482583,0.26000000000000001),(-0.78142820751975317,-0.68925232921501134,0.26000000000000001),(-0.79200000000000004,-0.75600000000000001,0.26000000000000001),(-0.78142820751975328,-0.82274767078498856,0.26000000000000001),(-0.75074767078498872,-0.88296161449517419,0.26000000000000001),(-0.70296161449517425,-0.93074767078498866,0.26000000000000001),(-0.64274767078498873,-0.96142820751975311,0.26000000000000001),(-0.57600000000000007,-0.97199999999999998,0.26000000000000001),(-0.50925232921501151,-0.96142820751975311,0.26000000000000001),(-0.44903838550482594,-0.93074767078498866,0.26000000000000001),(-0.40125232921501147,-0.88296161449517419,0.26000000000000001),(-0.37057179248024696,-0.82274767078498867,0.26000000000000001),(-0.3600000000000001,0.75600000000000001,-0.26000000000000001),(-0.37057179248024696,0.82274767078498867,-0.26000000000000001),(-0.40125232921501142,0.88296161449517419,-0.26000000000000001),(-0.44903838550482589,0.93074767078498866,-0.26000000000000001),(-0.5092523292150114,0.96142820751975311,-0.26000000000000001),(-0.57600000000000007,0.97199999999999998,-0.26000000000000001),(-0.64274767078498862,0.96142820751975311,-0.26000000000000001),(-0.70296161449517425,0.93074767078498866,-0.26000000000000001),(-0.75074767078498872,0.88296161449517419,-0.26000000000000001),(-0.78142820751975317,0.82274767078498867,-0.26000000000000001),(-0.79200000000000004,0.75600000000000001,-0.26000000000000001),(-0.78142820751975328,0.68925232921501145,-0.26000000000000001),(-0.75074767078498872,0.62903838550482583,-0.26000000000000001),(-0.70296161449517425,0.58125232921501135,-0.26000000000000001),(-0.64274767078498873,0.5505717924802469,-0.26000000000000001),(-0.57600000000000007,0.54000000000000004,-0.26000000000000001),(-0.50925232921501151,0.5505717924802469,-0.26000000000000001),(-0.44903838550482594,0.58125232921501135,-0.26000000000000001),(-0.40125232921501147,0.62903838550482583,-0.26000000000000001),(-0.37057179248024696,0.68925232921501134,-0.26000000000000001),(-0.3600000000000001,0.75600000000000001,0.26000000000000001),(-0.37057179248024696,0.82274767078498867,0.26000000000000001),(-0.40125232921501142,0.88296161449517419,0.26000000000000001),(-0.44903838550482589,0.93074767078498866,0.26000000000000001),(-0.5092523292150114,0.96142820751975311,0.26000000000000001),(-0.57600000000000007,0.97199999999999998,0.26000000000000001),(-0.64274767078498862,0.96142820751975311,0.26000000000000001),(-0.70296161449517425,0.93074767078498866,0.26000000000000001),(-0.75074767078498872,0.88296161449517419,0.26000000000000001),(-0.78142820751975317,0.82274767078498867,0.26000000000000001),(-0.79200000000000004,0.75600000000000001,0.26000000000000001),(-0.78142820751975328,0.68925232921501145,0.26000000000000001),(-0.75074767078498872,0.62903838550482583,0.26000000000000001),(-0.70296161449517425,0.58125232921501135,0.26000000000000001),(-0.64274767078498873,0.5505717924802469,0.26000000000000001),(-0.57600000000000007,0.54000000000000004,0.26000000000000001),(-0.50925232921501151,0.5505717924802469,0.26000000000000001),(-0.44903838550482594,0.58125232921501135,0.26000000000000001),(-0.40125232921501147,0.62903838550482583,0.26000000000000001),(-0.37057179248024696,0.68925232921501134,0.26000000000000001),(0.79200000000000004,-0.75600000000000001,-0.26000000000000001),(0.78142820751975317,-0.68925232921501134,-0.26000000000000001),(0.75074767078498872,-0.62903838550482583,-0.26000000000000001),(0.70296161449517425,-0.58125232921501135,-0.26000000000000001),(0.64274767078498873,-0.5505717924802469,-0.26000000000000001),(0.57600000000000007,-0.54000000000000004,-0.26000000000000001),(0.50925232921501151,-0.5505717924802469,-0.26000000000000001),(0.44903838550482589,-0.58125232921501135,-0.26000000000000001),(0.40125232921501147,-0.62903838550482583,-0.26000000000000001),(0.37057179248024696,-0.68925232921501134,-0.26000000000000001),(0.3600000000000001,-0.75600000000000001,-0.26000000000000001),(0.37057179248024685,-0.82274767078498856,-0.26000000000000001),(0.40125232921501142,-0.88296161449517419,-0.26000000000000001),(0.44903838550482589,-0.93074767078498866,-0.26000000000000001),(0.5092523292150114,-0.96142820751975311,-0.26000000000000001),(0.57600000000000007,-0.97199999999999998,-0.26000000000000001),(0.64274767078498862,-0.96142820751975311,-0.26000000000000001),(0.70296161449517425,-0.93074767078498866,-0.26000000000000001),(0.75074767078498872,-0.88296161449517419,-0.26000000000000001),(0.78142820751975317,-0.82274767078498867,-0.26000000000000001),(0.79200000000000004,-0.75600000000000001,0.26000000000000001),(0.78142820751975317,-0.68925232921501134,0.26000000000000001),(0.75074767078498872,-0.62903838550482583,0.26000000000000001),(0.70296161449517425,-0.58125232921501135,0.26000000000000001),(0.64274767078498873,-0.5505717924802469,0.26000000000000001),(0.57600000000000007,-0.54000000000000004,0.26000000000000001),(0.50925232921501151,-0.5505717924802469,0.26000000000000001),(0.44903838550482589,-0.58125232921501135,0.26000000000000001),(0.40125232921501147,-0.62903838550482583,0.26000000000000001),(0.37057179248024696,-0.68925232921501134,0.26000000000000001),(0.3600000000000001,-0.75600000000000001,0.26000000000000001),(0.37057179248024685,-0.82274767078498856,0.26000000000000001),(0.40125232921501142,-0.88296161449517419,0.26000000000000001),(0.44903838550482589,-0.93074767078498866,0.26000000000000001),(0.5092523292150114,-0.96142820751975311,0.26000000000000001),(0.57600000000000007,-0.97199999999999998,0.26000000000000001),(0.64274767078498862,-0.96142820751975311,0.26000000000000001),(0.70296161449517425,-0.93074767078498866,0.26000000000000001),(0.75074767078498872,-0.88296161449517419,0.26000000000000001),(0.78142820751975317,-0.82274767078498867,0.26000000000000001),(0.79200000000000004,0.75600000000000001,-0.26000000000000001),(0.78142820751975317,0.82274767078498867,-0.26000000000000001),(0.75074767078498872,0.88296161449517419,-0.26000000000000001),(0.70296161449517425,0.93074767078498866,-0.26000000000000001),(0.64274767078498873,0.96142820751975311,-0.26000000000000001),(0.57600000000000007,0.97199999999999998,-0.26000000000000001),(0.50925232921501151,0.96142820751975311,-0.26000000000000001),(0.44903838550482589,0.93074767078498866,-0.26000000000000001),(0.40125232921501147,0.88296161449517419,-0.26000000000000001),(0.37057179248024696,0.82274767078498867,-0.26000000000000001),(0.3600000000000001,0.75600000000000001,-0.26000000000000001),(0.37057179248024685,0.68925232921501145,-0.26000000000000001),(0.40125232921501142,0.62903838550482583,-0.26000000000000001),(0.44903838550482589,0.58125232921501135,-0.26000000000000001),(0.5092523292150114,0.5505717924802469,-0.26000000000000001),(0.57600000000000007,0.54000000000000004,-0.26000000000000001),(0.64274767078498862,0.5505717924802469,-0.26000000000000001),(0.70296161449517425,0.58125232921501135,-0.26000000000000001),(0.75074767078498872,0.62903838550482583,-0.26000000000000001),(0.78142820751975317,0.68925232921501134,-0.26000000000000001),(0.79200000000000004,0.75600000000000001,0.26000000000000001),(0.78142820751975317,0.82274767078498867,0.26000000000000001),(0.75074767078498872,0.88296161449517419,0.26000000000000001),(0.70296161449517425,0.93074767078498866,0.26000000000000001),(0.64274767078498873,0.96142820751975311,0.26000000000000001),(0.57600000000000007,0.97199999999999998,0.26000000000000001),(0.50925232921501151,0.96142820751975311,0.26000000000000001),(0.44903838550482589,0.93074767078498866,0.26000000000000001),(0.40125232921501147,0.88296161449517419,0.26000000000000001),(0.37057179248024696,0.82274767078498867,0.26000000000000001),(0.3600000000000001,0.75600000000000001,0.26000000000000001),(0.37057179248024685,0.68925232921501145,0.26000000000000001),(0.40125232921501142,0.62903838550482583,0.26000000000000001),(0.44903838550482589,0.58125232921501135,0.26000000000000001),(0.5092523292150114,0.5505717924802469,0.26000000000000001),(0.57600000000000007,0.54000000000000004,0.26000000000000001),(0.64274767078498862,0.5505717924802469,0.26000000000000001),(0.70296161449517425,0.58125232921501135,0.26000000000000001),(0.75074767078498872,0.62903838550482583,0.26000000000000001),(0.78142820751975317,0.68925232921501134,0.26000000000000001),(0.36749999999999999,0.,-0.046799999999999994),(0.34951326973846891,0.11356374543279317,-0.046799999999999994),(0.29731374543279321,0.21601108021748389,-0.046799999999999994),(0.21601108021748389,0.29731374543279321,-0.046799999999999994),(0.11356374543279318,0.34951326973846891,-0.046799999999999994),(2.2502884934332615E-17,0.36749999999999999,-0.046799999999999994),(-0.11356374543279314,0.34951326973846897,-0.046799999999999994),(-0.21601108021748383,0.29731374543279321,-0.046799999999999994),(-0.29731374543279315,0.21601108021748391,-0.046799999999999994),(-0.34951326973846891,0.11356374543279321,-0.046799999999999994),(-0.36749999999999999,4.5005769868665229E-17,-0.046799999999999994),(-0.34951326973846902,-0.11356374543279298,-0.046799999999999994),(-0.29731374543279321,-0.21601108021748383,-0.046799999999999994),(-0.21601108021748391,-0.29731374543279315,-0.046799999999999994),(-0.11356374543279323,-0.34951326973846891,-0.046799999999999994),(-6.7508654802997835E-17,-0.36749999999999999,-0.046799999999999994),(0.1135637454327931,-0.34951326973846897,-0.046799999999999994),(0.2160110802174838,-0.29731374543279321,-0.046799999999999994),(0.29731374543279315,-0.21601108021748394,-0.046799999999999994),(0.34951326973846891,-0.11356374543279325,-0.046799999999999994),(0.36749999999999999,0.,0.046799999999999994),(0.34951326973846891,0.11356374543279317,0.046799999999999994),(0.29731374543279321,0.21601108021748389,0.046799999999999994),(0.21601108021748389,0.29731374543279321,0.046799999999999994),(0.11356374543279318,0.34951326973846891,0.046799999999999994),(2.2502884934332615E-17,0.36749999999999999,0.046799999999999994),(-0.11356374543279314,0.34951326973846897,0.046799999999999994),(-0.21601108021748383,0.29731374543279321,0.046799999999999994),(-0.29731374543279315,0.21601108021748391,0.046799999999999994),(-0.34951326973846891,0.11356374543279321,0.046799999999999994),(-0.36749999999999999,4.5005769868665229E-17,0.046799999999999994),(-0.34951326973846902,-0.11356374543279298,0.046799999999999994),(-0.29731374543279321,-0.21601108021748383,0.046799999999999994),(-0.21601108021748391,-0.29731374543279315,0.046799999999999994),(-0.11356374543279323,-0.34951326973846891,0.046799999999999994),(-6.7508654802997835E-17,-0.36749999999999999,0.046799999999999994),(0.1135637454327931,-0.34951326973846897,0.046799999999999994),(0.2160110802174838,-0.29731374543279321,0.046799999999999994),(0.29731374543279315,-0.21601108021748394,0.046799999999999994),(0.34951326973846891,-0.11356374543279325,0.046799999999999994)),$);
#39=IFCINDEXEDPOLYGONALFACE((20,19,18,17,16,15,14,13,12,11,10,9,8,7,6,5,4,3,2,1));
#40=IFCINDEXEDPOLYGONALFACE((21,22,23,24,25,26,27,28,29,30,31,32,33,34,35,36,37,38,39,40));
#41=IFCINDEXEDPOLYGONALFACE((1,2,22,21));
#42=IFCINDEXEDPOLYGONALFACE((2,3,23,22));
#43=IFCINDEXEDPOLYGONALFACE((3,4,24,23));
#44=IFCINDEXEDPOLYGONALFACE((4,5,25,24));
#45=IFCINDEXEDPOLYGONALFACE((5,6,26,25));
#46=IFCINDEXEDPOLYGONALFACE((6,7,27,26));
#47=IFCINDEXEDPOLYGONALFACE((7,8,28,27));
#48=IFCINDEXEDPOLYGONALFACE((8,9,29,28));
#49=IFCINDEXEDPOLYGONALFACE((9,10,30,29));
#50=IFCINDEXEDPOLYGONALFACE((10,11,31,30));
#51=IFCINDEXEDPOLYGONALFACE((11,12,32,31));
#52=IFCINDEXEDPOLYGONALFACE((12,13,33,32));
#53=IFCINDEXEDPOLYGONALFACE((13,14,34,33));
#54=IFCINDEXEDPOLYGONALFACE((14,15,35,34));
#55=IFCINDEXEDPOLYGONALFACE((15,16,36,35));
#56=IFCINDEXEDPOLYGONALFACE((16,17,37,36));
#57=IFCINDEXEDPOLYGONALFACE((17,18,38,37));
#58=IFCINDEXEDPOLYGONALFACE((18,19,39,38));
#59=IFCINDEXEDPOLYGONALFACE((19,20,40,39));
#60=IFCINDEXEDPOLYGONALFACE((20,1,21,40));
#61=IFCINDEXEDPOLYGONALFACE((60,59,58,57,56,55,54,53,52,51,50,49,48,47,46,45,44,43,42,41));
#62=IFCINDEXEDPOLYGONALFACE((61,62,63,64,65,66,67,68,69,70,71,72,73,74,75,76,77,78,79,80));
#63=IFCINDEXEDPOLYGONALFACE((41,42,62,61));
#64=IFCINDEXEDPOLYGONALFACE((42,43,63,62));
#65=IFCINDEXEDPOLYGONALFACE((43,44,64,63));
#66=IFCINDEXEDPOLYGONALFACE((44,45,65,64));
#67=IFCINDEXEDPOLYGONALFACE((45,46,66,65));
#68=IFCINDEXEDPOLYGONALFACE((46,47,67,66));
#69=IFCINDEXEDPOLYGONALFACE((47,48,68,67));
#70=IFCINDEXEDPOLYGONALFACE((48,49,69,68));
#71=IFCINDEXEDPOLYGONALFACE((49,50,70,69));
#72=IFCINDEXEDPOLYGONALFACE((50,51,71,70));
#73=IFCINDEXEDPOLYGONALFACE((51,52,72,71));
#74=IFCINDEXEDPOLYGONALFACE((52,53,73,72));
#75=IFCINDEXEDPOLYGONALFACE((53,54,74,73));
#76=IFCINDEXEDPOLYGONALFACE((54,55,75,74));
#77=IFCINDEXEDPOLYGONALFACE((55,56,76,75));
#78=IFCINDEXEDPOLYGONALFACE((56,57,77,76));
#79=IFCINDEXEDPOLYGONALFACE((57,58,78,77));
#80=IFCINDEXEDPOLYGONALFACE((58,59,79,78));
#81=IFCINDEXEDPOLYGONALFACE((59,60,80,79));
#82=IFCINDEXEDPOLYGONALFACE((60,41,61,80));
#83=IFCINDEXEDPOLYGONALFACE((100,99,98,97,96,95,94,93,92,91,90,89,88,87,86,85,84,83,82,81));
#84=IFCINDEXEDPOLYGONALFACE((101,102,103,104,105,106,107,108,109,110,111,112,113,114,115,116,117,118,119,120));
#85=IFCINDEXEDPOLYGONALFACE((81,82,102,101));
#86=IFCINDEXEDPOLYGONALFACE((82,83,103,102));
#87=IFCINDEXEDPOLYGONALFACE((83,84,104,103));
#88=IFCINDEXEDPOLYGONALFACE((84,85,105,104));
#89=IFCINDEXEDPOLYGONALFACE((85,86,106,105));
#90=IFCINDEXEDPOLYGONALFACE((86,87,107,106));
#91=IFCINDEXEDPOLYGONALFACE((87,88,108,107));
#92=IFCINDEXEDPOLYGONALFACE((88,89,109,108));
#93=IFCINDEXEDPOLYGONALFACE((89,90,110,109));
#94=IFCINDEXEDPOLYGONALFACE((90,91,111,110));
#95=IFCINDEXEDPOLYGONALFACE((91,92,112,111));
#96=IFCINDEXEDPOLYGONALFACE((92,93,113,112));
#97=IFCINDEXEDPOLYGONALFACE((93,94,114,113));
#98=IFCINDEXEDPOLYGONALFACE((94,95,115,114));
#99=IFCINDEXEDPOLYGONALFACE((95,96,116,115));
#100=IFCINDEXEDPOLYGONALFACE((96,97,117,116));
#101=IFCINDEXEDPOLYGONALFACE((97,98,118,117));
#102=IFCINDEXEDPOLYGONALFACE((98,99,119,118));
#103=IFCINDEXEDPOLYGONALFACE((99,100,120,119));
#104=IFCINDEXEDPOLYGONALFACE((100,81,101,120));
#105=IFCINDEXEDPOLYGONALFACE((140,139,138,137,136,135,134,133,132,131,130,129,128,127,126,125,124,123,122,121));
#106=IFCINDEXEDPOLYGONALFACE((141,142,143,144,145,146,147,148,149,150,151,152,153,154,155,156,157,158,159,160));
#107=IFCINDEXEDPOLYGONALFACE((121,122,142,141));
#108=IFCINDEXEDPOLYGONALFACE((122,123,143,142));
#109=IFCINDEXEDPOLYGONALFACE((123,124,144,143));
#110=IFCINDEXEDPOLYGONALFACE((124,125,145,144));
#111=IFCINDEXEDPOLYGONALFACE((125,126,146,145));
#112=IFCINDEXEDPOLYGONALFACE((126,127,147,146));
#113=IFCINDEXEDPOLYGONALFACE((127,128,148,147));
#114=IFCINDEXEDPOLYGONALFACE((128,129,149,148));
#115=IFCINDEXEDPOLYGONALFACE((129,130,150,149));
#116=IFCINDEXEDPOLYGONALFACE((130,131,151,150));
#117=IFCINDEXEDPOLYGONALFACE((131,132,152,151));
#118=IFCINDEXEDPOLYGONALFACE((132,133,153,152));
#119=IFCINDEXEDPOLYGONALFACE((133,134,154,153));
#120=IFCINDEXEDPOLYGONALFACE((134,135,155,154));
#121=IFCINDEXEDPOLYGONALFACE((135,136,156,155));
#122=IFCINDEXEDPOLYGONALFACE((136,137,157,156));
#123=IFCINDEXEDPOLYGONALFACE((137,138,158,157));
#124=IFCINDEXEDPOLYGONALFACE((138,139,159,158));
#125=IFCINDEXEDPOLYGONALFACE((139,140,160,159));
#126=IFCINDEXEDPOLYGONALFACE((140,121,141,160));
#127=IFCINDEXEDPOLYGONALFACE((180,179,178,177,176,175,174,173,172,171,170,169,168,167,166,165,164,163,162,161));
#128=IFCINDEXEDPOLYGONALFACE((181,182,183,184,185,186,187,188,189,190,191,192,193,194,195,196,197,198,199,200));
#129=IFCINDEXEDPOLYGONALFACE((161,162,182,181));
#130=IFCINDEXEDPOLYGONALFACE((162,163,183,182));
#131=IFCINDEXEDPOLYGONALFACE((163,164,184,183));
#132=IFCINDEXEDPOLYGONALFACE((164,165,185,184));
#133=IFCINDEXEDPOLYGONALFACE((165,166,186,185));
#134=IFCINDEXEDPOLYGONALFACE((166,167,187,186));
#135=IFCINDEXEDPOLYGONALFACE((167,168,188,187));
#136=IFCINDEXEDPOLYGONALFACE((168,169,189,188));
#137=IFCINDEXEDPOLYGONALFACE((169,170,190,189));
#138=IFCINDEXEDPOLYGONALFACE((170,171,191,190));
#139=IFCINDEXEDPOLYGONALFACE((171,172,192,191));
#140=IFCINDEXEDPOLYGONALFACE((172,173,193,192));
#141=IFCINDEXEDPOLYGONALFACE((173,174,194,193));
#142=IFCINDEXEDPOLYGONALFACE((174,175,195,194));
#143=IFCINDEXEDPOLYGONALFACE((175,176,196,195));
#144=IFCINDEXEDPOLYGONALFACE((176,177,197,196));
#145=IFCINDEXEDPOLYGONALFACE((177,178,198,197));
#146=IFCINDEXEDPOLYGONALFACE((178,179,199,198));
#147=IFCINDEXEDPOLYGONALFACE((179,180,200,199));
#148=IFCINDEXEDPOLYGONALFACE((180,161,181,200));
#149=IFCPOLYGONALFACESET(#38,$,(#39,#40,#41,#42,#43,#44,#45,#46,#47,#48,#49,#50,#51,#52,#53,#54,#55,#56,#57,#58,#59,#60,#61,#62,#63,#64,#65,#66,#67,#68,#69,#70,#71,#72,#73,#74,#75,#76,#77,#78,#79,#80,#81,#82,#83,#84,#85,#86,#87,#88,#89,#90,#91,#92,#93,#94,#95,#96,#97,#98,#99,#100,#101,#102,#103,#104,#105,#106,#107,#108,#109,#110,#111,#112,#113,#114,#115,#116,#117,#118,#119,#120,#121,#122,#123,#124,#125,#126,#127,#128,#129,#130,#131,#132,#133,#134,#135,#136,#137,#138,#139,#140,#141,#142,#143,#144,#145,#146,#147,#148),$);
#150=IFCSHAPEREPRESENTATION(#13,'Body','Tessellation',(#149));
#151=IFCPRODUCTDEFINITIONSHAPE($,$,(#150));
#152=IFCRELCONTAINEDINSPATIALSTRUCTURE('2VYpV1GL5QrvAl5SJZO7ks',$,$,$,(#28),#3);
#153=IFCCARTESIANPOINT((0.,0.,0.));
#154=IFCAXIS2PLACEMENT3D(#153,$,$);
#155=IFCLOCALPLACEMENT($,#154);
ENDSEC;
END-ISO-10303-21;
