ISO-10303-21;
HEADER;
FILE_DESCRIPTION(('ViewDefinition [CoordinationView]'),'2;1');
FILE_NAME('LM3-TRC-P060.ifc','2026-08-30T00:00:00+00:00',('OpenSourceRail'),('OpenSourceRail'),'IfcOpenShell 0.8.5','OpenSourceRail deterministic LM3 product-library exporter','design-reference / not for construction');
FILE_SCHEMA(('IFC4X3_ADD2'));
ENDSEC;
DATA;
#1=IFCPROJECT('11FEK3SDXOYe7i5O$PBtqS',$,'LM3-TRC-P060 \X2\2014\X0\ station side-pin charging connector, actuator, shutter, and alignment target','Design-reference geometry and assembly hierarchy only; supplier freeze, released drawings/tolerances, calculations, qualified processes and first-article tests remain mandatory.',$,$,$,(#12),#7);
#2=IFCSITE('2$206zz4HOLuyZRu5mQ89b',$,'LM3 product library',$,$,#18,$,$,.ELEMENT.,$,$,$,$,$);
#3=IFCBUILDING('3QDsSegcLRJfvQeeQHLOvb',$,'LM3 assembly inspection fixture',$,$,#21,$,$,.ELEMENT.,$,$,$);
#4=IFCSIUNIT(*,.LENGTHUNIT.,$,.METRE.);
#5=IFCSIUNIT(*,.AREAUNIT.,$,.SQUARE_METRE.);
#6=IFCSIUNIT(*,.VOLUMEUNIT.,$,.CUBIC_METRE.);
#7=IFCUNITASSIGNMENT((#6,#4,#5));
#8=IFCCARTESIANPOINT((0.,0.,0.));
#9=IFCDIRECTION((0.,0.,1.));
#10=IFCDIRECTION((1.,0.,0.));
#11=IFCAXIS2PLACEMENT3D(#8,#9,#10);
#12=IFCGEOMETRICREPRESENTATIONCONTEXT($,'Model',3,1.0000000000000001E-05,#11,$);
#13=IFCGEOMETRICREPRESENTATIONSUBCONTEXT('Body','Model',*,*,*,*,#12,$,.MODEL_VIEW.,$);
#14=IFCRELAGGREGATES('0fBT3TJC5Hl9oVnEN6C15A',$,$,$,#1,(#2));
#15=IFCRELAGGREGATES('1P3$wHJ7jIoe5ttTEcR2wP',$,$,$,#2,(#3));
#16=IFCCARTESIANPOINT((0.,0.,0.));
#17=IFCAXIS2PLACEMENT3D(#16,$,$);
#18=IFCLOCALPLACEMENT($,#17);
#19=IFCCARTESIANPOINT((0.,0.,0.));
#20=IFCAXIS2PLACEMENT3D(#19,$,$);
#21=IFCLOCALPLACEMENT($,#20);
#22=IFCPROPERTYSINGLEVALUE('Status',$,IFCTEXT('design-reference-not-released'),$);
#23=IFCPROPERTYSINGLEVALUE('ReleaseBoundary',$,IFCTEXT('Design-reference geometry and assembly hierarchy only; supplier freeze, released drawings/tolerances, calculations, qualified processes and first-article tests remain mandatory.'),$);
#24=IFCPROPERTYSINGLEVALUE('Manifest',$,IFCTEXT('design/component-catalogue/catalog/buildable-trainset/buildable-trainset-manifest.json'),$);
#25=IFCPROPERTYSINGLEVALUE('ManifestSha256',$,IFCTEXT('7654747909805305ce2018109b5b649c4817a8f8c44a3ec8f2e8a6f74d48243e'),$);
#26=IFCPROPERTYSET('33X58ZKG1G7h0yNS0$J5RD',$,'OSR_ProductLibrary',$,(#22,#23,#24,#25));
#27=IFCRELDEFINESBYPROPERTIES('3I5uR4_0jUYQdMtlhNji6H',$,$,$,(#1),#26);
#28=IFCELECTRICDISTRIBUTIONBOARD('3zZwWoHR5Me9rGMBxQy$Zw',$,'station side-pin charging connector, actuator, shutter, and alignment target','Conductive station charging interface with mechanical guide datum and safety interlocks.',$,#64,#60,'LM3-TRC-P060',$);
#29=IFCPROPERTYSINGLEVALUE('OSRId',$,IFCTEXT('LM3-TRC-P060'),$);
#30=IFCPROPERTYSINGLEVALUE('Parent',$,IFCTEXT('LM3-HV-SA510'),$);
#31=IFCPROPERTYSINGLEVALUE('Route',$,IFCTEXT('BID'),$);
#32=IFCPROPERTYSINGLEVALUE('Maturity',$,IFCTEXT('buildable-after-supplier-freeze'),$);
#33=IFCPROPERTYSINGLEVALUE('QuantityPerTrainset',$,IFCINTEGER(3),$);
#34=IFCPROPERTYSINGLEVALUE('Unit',$,IFCTEXT('car kit'),$);
#35=IFCPROPERTYSINGLEVALUE('GeometryStatus',$,IFCTEXT('design-reference-not-released'),$);
#36=IFCPROPERTYSINGLEVALUE('GeometryLevel',$,IFCTEXT('coordination-envelope'),$);
#37=IFCPROPERTYSET('2r7PLnTWvQyOP_5AchGS5q',$,'OSR_ProductDefinition',$,(#29,#30,#31,#32,#33,#34,#35,#36));
#38=IFCRELDEFINESBYPROPERTIES('1A6ERILPHI3h5ssyg2RxUG',$,$,$,(#28),#37);
#39=IFCCARTESIANPOINTLIST3D(((-0.52500000000000002,-0.31,-0.22139999999999999),(-0.52500000000000002,-0.31,0.22139999999999999),(-0.52500000000000002,0.31,-0.22139999999999999),(-0.52500000000000002,0.31,0.22139999999999999),(0.52500000000000002,-0.31,-0.22139999999999999),(0.52500000000000002,-0.31,0.22139999999999999),(0.52500000000000002,0.31,-0.22139999999999999),(0.52500000000000002,0.31,0.22139999999999999),(-0.43049999999999999,-0.31,-0.25919999999999999),(-0.43049999999999999,-0.31,-0.19439999999999999),(-0.43049999999999999,-0.23560000000000003,-0.25919999999999999),(-0.43049999999999999,-0.23560000000000003,-0.19439999999999999),(0.43049999999999999,-0.31,-0.25919999999999999),(0.43049999999999999,-0.31,-0.19439999999999999),(0.43049999999999999,-0.23560000000000003,-0.25919999999999999),(0.43049999999999999,-0.23560000000000003,-0.19439999999999999),(0.189,0.2046,-0.043200000000000002),(0.189,0.2046,0.043200000000000002),(0.189,0.29139999999999999,-0.043200000000000002),(0.189,0.29139999999999999,0.043200000000000002),(0.441,0.2046,-0.043200000000000002),(0.441,0.2046,0.043200000000000002),(0.441,0.29139999999999999,-0.043200000000000002),(0.441,0.29139999999999999,0.043200000000000002)),$);
#40=IFCINDEXEDPOLYGONALFACE((1,2,4,3));
#41=IFCINDEXEDPOLYGONALFACE((5,7,8,6));
#42=IFCINDEXEDPOLYGONALFACE((1,5,6,2));
#43=IFCINDEXEDPOLYGONALFACE((3,4,8,7));
#44=IFCINDEXEDPOLYGONALFACE((1,3,7,5));
#45=IFCINDEXEDPOLYGONALFACE((2,6,8,4));
#46=IFCINDEXEDPOLYGONALFACE((9,10,12,11));
#47=IFCINDEXEDPOLYGONALFACE((13,15,16,14));
#48=IFCINDEXEDPOLYGONALFACE((9,13,14,10));
#49=IFCINDEXEDPOLYGONALFACE((11,12,16,15));
#50=IFCINDEXEDPOLYGONALFACE((9,11,15,13));
#51=IFCINDEXEDPOLYGONALFACE((10,14,16,12));
#52=IFCINDEXEDPOLYGONALFACE((17,18,20,19));
#53=IFCINDEXEDPOLYGONALFACE((21,23,24,22));
#54=IFCINDEXEDPOLYGONALFACE((17,21,22,18));
#55=IFCINDEXEDPOLYGONALFACE((19,20,24,23));
#56=IFCINDEXEDPOLYGONALFACE((17,19,23,21));
#57=IFCINDEXEDPOLYGONALFACE((18,22,24,20));
#58=IFCPOLYGONALFACESET(#39,$,(#40,#41,#42,#43,#44,#45,#46,#47,#48,#49,#50,#51,#52,#53,#54,#55,#56,#57),$);
#59=IFCSHAPEREPRESENTATION(#13,'Body','Tessellation',(#58));
#60=IFCPRODUCTDEFINITIONSHAPE($,$,(#59));
#61=IFCRELCONTAINEDINSPATIALSTRUCTURE('1XscjYXVjTkPviJCz3lDvO',$,$,$,(#28),#3);
#62=IFCCARTESIANPOINT((0.,0.,0.));
#63=IFCAXIS2PLACEMENT3D(#62,$,$);
#64=IFCLOCALPLACEMENT($,#63);
ENDSEC;
END-ISO-10303-21;
