ISO-10303-21;
HEADER;
FILE_DESCRIPTION(('ViewDefinition [CoordinationView]'),'2;1');
FILE_NAME('LM3-END-P062.ifc','2026-08-30T00:00:00+00:00',('OpenSourceRail'),('OpenSourceRail'),'IfcOpenShell 0.8.5','OpenSourceRail deterministic LM3 product-library exporter','design-reference / not for construction');
FILE_SCHEMA(('IFC4X3_ADD2'));
ENDSEC;
DATA;
#1=IFCPROJECT('1tqqQXTufIlwWM6gfzp95R',$,'LM3-END-P062 \X2\2014\X0\ mid open-connection option portal trim, bellows clamp, threshold bridge, and drain kit','Design-reference geometry and assembly hierarchy only; supplier freeze, released drawings/tolerances, calculations, qualified processes and first-article tests remain mandatory.',$,$,$,(#12),#7);
#2=IFCSITE('2sZYzT2_PV8P1tFPhQ6WQC',$,'LM3 product library',$,$,#18,$,$,.ELEMENT.,$,$,$,$,$);
#3=IFCBUILDING('1I44OpBB1MhfqeN634Fyvt',$,'LM3 assembly inspection fixture',$,$,#21,$,$,.ELEMENT.,$,$,$);
#4=IFCSIUNIT(*,.LENGTHUNIT.,$,.METRE.);
#5=IFCSIUNIT(*,.AREAUNIT.,$,.SQUARE_METRE.);
#6=IFCSIUNIT(*,.VOLUMEUNIT.,$,.CUBIC_METRE.);
#7=IFCUNITASSIGNMENT((#6,#4,#5));
#8=IFCCARTESIANPOINT((0.,0.,0.));
#9=IFCDIRECTION((0.,0.,1.));
#10=IFCDIRECTION((1.,0.,0.));
#11=IFCAXIS2PLACEMENT3D(#8,#9,#10);
#12=IFCGEOMETRICREPRESENTATIONCONTEXT($,'Model',3,1.0000000000000001E-05,#11,$);
#13=IFCGEOMETRICREPRESENTATIONSUBCONTEXT('Body','Model',*,*,*,*,#12,$,.MODEL_VIEW.,$);
#14=IFCRELAGGREGATES('3lAixcOCvQBxGlLrlw_5$8',$,$,$,#1,(#2));
#15=IFCRELAGGREGATES('2pYUK2l3LIWg5XnHHyuvc0',$,$,$,#2,(#3));
#16=IFCCARTESIANPOINT((0.,0.,0.));
#17=IFCAXIS2PLACEMENT3D(#16,$,$);
#18=IFCLOCALPLACEMENT($,#17);
#19=IFCCARTESIANPOINT((0.,0.,0.));
#20=IFCAXIS2PLACEMENT3D(#19,$,$);
#21=IFCLOCALPLACEMENT($,#20);
#22=IFCPROPERTYSINGLEVALUE('Status',$,IFCTEXT('design-reference-not-released'),$);
#23=IFCPROPERTYSINGLEVALUE('ReleaseBoundary',$,IFCTEXT('Design-reference geometry and assembly hierarchy only; supplier freeze, released drawings/tolerances, calculations, qualified processes and first-article tests remain mandatory.'),$);
#24=IFCPROPERTYSINGLEVALUE('Manifest',$,IFCTEXT('design/component-catalogue/catalog/buildable-trainset/buildable-trainset-manifest.json'),$);
#25=IFCPROPERTYSINGLEVALUE('ManifestSha256',$,IFCTEXT('7654747909805305ce2018109b5b649c4817a8f8c44a3ec8f2e8a6f74d48243e'),$);
#26=IFCPROPERTYSET('1eUdJE3aTLAhgAnJ763DEa',$,'OSR_ProductLibrary',$,(#22,#23,#24,#25));
#27=IFCRELDEFINESBYPROPERTIES('21U1rCxnDSVhaG_0vipGHS',$,$,$,(#1),#26);
#28=IFCBUILDINGELEMENTPROXY('2$3GZ5tkfKVOu7ljqQ5_ol',$,'mid open-connection option portal trim, bellows clamp, threshold bridge, and drain kit','Optional end treatment for marrying two train modules into a walk-through consist; it replaces the panoramic cowl/glass with an open passenger portal and gangway clamp datum.',$,#213,#209,'LM3-END-P062',$);
#29=IFCPROPERTYSINGLEVALUE('OSRId',$,IFCTEXT('LM3-END-P062'),$);
#30=IFCPROPERTYSINGLEVALUE('Parent',$,IFCTEXT('LM3-EIF-SA650'),$);
#31=IFCPROPERTYSINGLEVALUE('Route',$,IFCTEXT('MAKE'),$);
#32=IFCPROPERTYSINGLEVALUE('Maturity',$,IFCTEXT('release-candidate'),$);
#33=IFCPROPERTYSINGLEVALUE('QuantityPerTrainset',$,IFCINTEGER(0),$);
#34=IFCPROPERTYSINGLEVALUE('Unit',$,IFCTEXT('option kit'),$);
#35=IFCPROPERTYSINGLEVALUE('GeometryStatus',$,IFCTEXT('design-reference-not-released'),$);
#36=IFCPROPERTYSET('3Y4uCgdpnMrwkI_CWrq$VP',$,'OSR_ProductDefinition',$,(#29,#30,#31,#32,#33,#34,#35));
#37=IFCRELDEFINESBYPROPERTIES('1NFTTiJRzUuwCSGCwmFttO',$,$,$,(#28),#36);
#38=IFCCARTESIANPOINTLIST3D(((-0.59325396825396826,-1.05,-1.175),(-0.59325396825396826,-1.05,1.175),(-0.59325396825396826,-0.91000000000000003,-1.175),(-0.59325396825396826,-0.91000000000000003,1.175),(-0.52103174603174607,-1.05,-1.175),(-0.52103174603174607,-1.05,1.175),(-0.52103174603174607,-0.91000000000000003,-1.175),(-0.52103174603174607,-0.91000000000000003,1.175),(-0.59325396825396814,0.91000000000000003,-1.175),(-0.59325396825396814,0.91000000000000003,1.175),(-0.59325396825396814,1.05,-1.175),(-0.59325396825396814,1.05,1.175),(-0.52103174603174596,0.91000000000000003,-1.175),(-0.52103174603174596,0.91000000000000003,1.175),(-0.52103174603174596,1.05,-1.175),(-0.52103174603174596,1.05,1.175),(-0.59325396825396826,-0.91000000000000003,1.0349999999999999),(-0.59325396825396826,-0.91000000000000003,1.175),(-0.59325396825396826,0.91000000000000003,1.0349999999999999),(-0.59325396825396826,0.91000000000000003,1.175),(-0.52103174603174596,-0.91000000000000003,1.0349999999999999),(-0.52103174603174596,-0.91000000000000003,1.175),(-0.52103174603174596,0.91000000000000003,1.0349999999999999),(-0.52103174603174596,0.91000000000000003,1.175),(-0.59325396825396826,-0.91000000000000003,-1.175),(-0.59325396825396826,-0.91000000000000003,-1.0349999999999999),(-0.59325396825396826,0.91000000000000003,-1.175),(-0.59325396825396826,0.91000000000000003,-1.0349999999999999),(-0.52103174603174596,-0.91000000000000003,-1.175),(-0.52103174603174596,-0.91000000000000003,-1.0349999999999999),(-0.52103174603174596,0.91000000000000003,-1.175),(-0.52103174603174596,0.91000000000000003,-1.0349999999999999),(-0.40753968253968265,-1.05,-1.175),(-0.40753968253968265,-1.05,1.175),(-0.40753968253968265,-0.91000000000000003,-1.175),(-0.40753968253968265,-0.91000000000000003,1.175),(-0.33531746031746035,-1.05,-1.175),(-0.33531746031746035,-1.05,1.175),(-0.33531746031746035,-0.91000000000000003,-1.175),(-0.33531746031746035,-0.91000000000000003,1.175),(-0.40753968253968254,0.91000000000000003,-1.175),(-0.40753968253968254,0.91000000000000003,1.175),(-0.40753968253968254,1.05,-1.175),(-0.40753968253968254,1.05,1.175),(-0.33531746031746024,0.91000000000000003,-1.175),(-0.33531746031746024,0.91000000000000003,1.175),(-0.33531746031746024,1.05,-1.175),(-0.33531746031746024,1.05,1.175),(-0.40753968253968265,-0.91000000000000003,1.0349999999999999),(-0.40753968253968265,-0.91000000000000003,1.175),(-0.40753968253968265,0.91000000000000003,1.0349999999999999),(-0.40753968253968265,0.91000000000000003,1.175),(-0.33531746031746024,-0.91000000000000003,1.0349999999999999),(-0.33531746031746024,-0.91000000000000003,1.175),(-0.33531746031746024,0.91000000000000003,1.0349999999999999),(-0.33531746031746024,0.91000000000000003,1.175),(-0.40753968253968265,-0.91000000000000003,-1.175),(-0.40753968253968265,-0.91000000000000003,-1.0349999999999999),(-0.40753968253968265,0.91000000000000003,-1.175),(-0.40753968253968265,0.91000000000000003,-1.0349999999999999),(-0.33531746031746024,-0.91000000000000003,-1.175),(-0.33531746031746024,-0.91000000000000003,-1.0349999999999999),(-0.33531746031746024,0.91000000000000003,-1.175),(-0.33531746031746024,0.91000000000000003,-1.0349999999999999),(-0.2218253968253969,-1.05,-1.175),(-0.2218253968253969,-1.05,1.175),(-0.2218253968253969,-0.91000000000000003,-1.175),(-0.2218253968253969,-0.91000000000000003,1.175),(-0.14960317460317465,-1.05,-1.175),(-0.14960317460317465,-1.05,1.175),(-0.14960317460317465,-0.91000000000000003,-1.175),(-0.14960317460317465,-0.91000000000000003,1.175),(-0.22182539682539679,0.91000000000000003,-1.175),(-0.22182539682539679,0.91000000000000003,1.175),(-0.22182539682539679,1.05,-1.175),(-0.22182539682539679,1.05,1.175),(-0.14960317460317454,0.91000000000000003,-1.175),(-0.14960317460317454,0.91000000000000003,1.175),(-0.14960317460317454,1.05,-1.175),(-0.14960317460317454,1.05,1.175),(-0.2218253968253969,-0.91000000000000003,1.0349999999999999),(-0.2218253968253969,-0.91000000000000003,1.175),(-0.2218253968253969,0.91000000000000003,1.0349999999999999),(-0.2218253968253969,0.91000000000000003,1.175),(-0.14960317460317454,-0.91000000000000003,1.0349999999999999),(-0.14960317460317454,-0.91000000000000003,1.175),(-0.14960317460317454,0.91000000000000003,1.0349999999999999),(-0.14960317460317454,0.91000000000000003,1.175),(-0.2218253968253969,-0.91000000000000003,-1.175),(-0.2218253968253969,-0.91000000000000003,-1.0349999999999999),(-0.2218253968253969,0.91000000000000003,-1.175),(-0.2218253968253969,0.91000000000000003,-1.0349999999999999),(-0.14960317460317454,-0.91000000000000003,-1.175),(-0.14960317460317454,-0.91000000000000003,-1.0349999999999999),(-0.14960317460317454,0.91000000000000003,-1.175),(-0.14960317460317454,0.91000000000000003,-1.0349999999999999),(-0.036111111111111177,-1.05,-1.175),(-0.036111111111111177,-1.05,1.175),(-0.036111111111111177,-0.91000000000000003,-1.175),(-0.036111111111111177,-0.91000000000000003,1.175),(0.036111111111111059,-1.05,-1.175),(0.036111111111111059,-1.05,1.175),(0.036111111111111059,-0.91000000000000003,-1.175),(0.036111111111111059,-0.91000000000000003,1.175),(-0.036111111111111059,0.91000000000000003,-1.175),(-0.036111111111111059,0.91000000000000003,1.175),(-0.036111111111111059,1.05,-1.175),(-0.036111111111111059,1.05,1.175),(0.036111111111111177,0.91000000000000003,-1.175),(0.036111111111111177,0.91000000000000003,1.175),(0.036111111111111177,1.05,-1.175),(0.036111111111111177,1.05,1.175),(-0.03611111111111117,-0.91000000000000003,1.0349999999999999),(-0.03611111111111117,-0.91000000000000003,1.175),(-0.03611111111111117,0.91000000000000003,1.0349999999999999),(-0.03611111111111117,0.91000000000000003,1.175),(0.03611111111111117,-0.91000000000000003,1.0349999999999999),(0.03611111111111117,-0.91000000000000003,1.175),(0.03611111111111117,0.91000000000000003,1.0349999999999999),(0.03611111111111117,0.91000000000000003,1.175),(-0.03611111111111117,-0.91000000000000003,-1.175),(-0.03611111111111117,-0.91000000000000003,-1.0349999999999999),(-0.03611111111111117,0.91000000000000003,-1.175),(-0.03611111111111117,0.91000000000000003,-1.0349999999999999),(0.03611111111111117,-0.91000000000000003,-1.175),(0.03611111111111117,-0.91000000000000003,-1.0349999999999999),(0.03611111111111117,0.91000000000000003,-1.175),(0.03611111111111117,0.91000000000000003,-1.0349999999999999),(0.14960317460317449,-1.05,-1.175),(0.14960317460317449,-1.05,1.175),(0.14960317460317449,-0.91000000000000003,-1.175),(0.14960317460317449,-0.91000000000000003,1.175),(0.22182539682539673,-1.05,-1.175),(0.22182539682539673,-1.05,1.175),(0.22182539682539673,-0.91000000000000003,-1.175),(0.22182539682539673,-0.91000000000000003,1.175),(0.1496031746031746,0.91000000000000003,-1.175),(0.1496031746031746,0.91000000000000003,1.175),(0.1496031746031746,1.05,-1.175),(0.1496031746031746,1.05,1.175),(0.22182539682539684,0.91000000000000003,-1.175),(0.22182539682539684,0.91000000000000003,1.175),(0.22182539682539684,1.05,-1.175),(0.22182539682539684,1.05,1.175),(0.14960317460317449,-0.91000000000000003,1.0349999999999999),(0.14960317460317449,-0.91000000000000003,1.175),(0.14960317460317449,0.91000000000000003,1.0349999999999999),(0.14960317460317449,0.91000000000000003,1.175),(0.22182539682539684,-0.91000000000000003,1.0349999999999999),(0.22182539682539684,-0.91000000000000003,1.175),(0.22182539682539684,0.91000000000000003,1.0349999999999999),(0.22182539682539684,0.91000000000000003,1.175),(0.14960317460317449,-0.91000000000000003,-1.175),(0.14960317460317449,-0.91000000000000003,-1.0349999999999999),(0.14960317460317449,0.91000000000000003,-1.175),(0.14960317460317449,0.91000000000000003,-1.0349999999999999),(0.22182539682539684,-0.91000000000000003,-1.175),(0.22182539682539684,-0.91000000000000003,-1.0349999999999999),(0.22182539682539684,0.91000000000000003,-1.175),(0.22182539682539684,0.91000000000000003,-1.0349999999999999),(0.33531746031746024,-1.05,-1.175),(0.33531746031746024,-1.05,1.175),(0.33531746031746024,-0.91000000000000003,-1.175),(0.33531746031746024,-0.91000000000000003,1.175),(0.40753968253968254,-1.05,-1.175),(0.40753968253968254,-1.05,1.175),(0.40753968253968254,-0.91000000000000003,-1.175),(0.40753968253968254,-0.91000000000000003,1.175),(0.33531746031746035,0.91000000000000003,-1.175),(0.33531746031746035,0.91000000000000003,1.175),(0.33531746031746035,1.05,-1.175),(0.33531746031746035,1.05,1.175),(0.40753968253968265,0.91000000000000003,-1.175),(0.40753968253968265,0.91000000000000003,1.175),(0.40753968253968265,1.05,-1.175),(0.40753968253968265,1.05,1.175),(0.33531746031746024,-0.91000000000000003,1.0349999999999999),(0.33531746031746024,-0.91000000000000003,1.175),(0.33531746031746024,0.91000000000000003,1.0349999999999999),(0.33531746031746024,0.91000000000000003,1.175),(0.40753968253968265,-0.91000000000000003,1.0349999999999999),(0.40753968253968265,-0.91000000000000003,1.175),(0.40753968253968265,0.91000000000000003,1.0349999999999999),(0.40753968253968265,0.91000000000000003,1.175),(0.33531746031746024,-0.91000000000000003,-1.175),(0.33531746031746024,-0.91000000000000003,-1.0349999999999999),(0.33531746031746024,0.91000000000000003,-1.175),(0.33531746031746024,0.91000000000000003,-1.0349999999999999),(0.40753968253968265,-0.91000000000000003,-1.175),(0.40753968253968265,-0.91000000000000003,-1.0349999999999999),(0.40753968253968265,0.91000000000000003,-1.175),(0.40753968253968265,0.91000000000000003,-1.0349999999999999),(0.52103174603174596,-1.05,-1.175),(0.52103174603174596,-1.05,1.175),(0.52103174603174596,-0.91000000000000003,-1.175),(0.52103174603174596,-0.91000000000000003,1.175),(0.59325396825396814,-1.05,-1.175),(0.59325396825396814,-1.05,1.175),(0.59325396825396814,-0.91000000000000003,-1.175),(0.59325396825396814,-0.91000000000000003,1.175),(0.52103174603174607,0.91000000000000003,-1.175),(0.52103174603174607,0.91000000000000003,1.175),(0.52103174603174607,1.05,-1.175),(0.52103174603174607,1.05,1.175),(0.59325396825396826,0.91000000000000003,-1.175),(0.59325396825396826,0.91000000000000003,1.175),(0.59325396825396826,1.05,-1.175),(0.59325396825396826,1.05,1.175),(0.52103174603174596,-0.91000000000000003,1.0349999999999999),(0.52103174603174596,-0.91000000000000003,1.175),(0.52103174603174596,0.91000000000000003,1.0349999999999999),(0.52103174603174596,0.91000000000000003,1.175),(0.59325396825396826,-0.91000000000000003,1.0349999999999999),(0.59325396825396826,-0.91000000000000003,1.175),(0.59325396825396826,0.91000000000000003,1.0349999999999999),(0.59325396825396826,0.91000000000000003,1.175),(0.52103174603174596,-0.91000000000000003,-1.175),(0.52103174603174596,-0.91000000000000003,-1.0349999999999999),(0.52103174603174596,0.91000000000000003,-1.175),(0.52103174603174596,0.91000000000000003,-1.0349999999999999),(0.59325396825396826,-0.91000000000000003,-1.175),(0.59325396825396826,-0.91000000000000003,-1.0349999999999999),(0.59325396825396826,0.91000000000000003,-1.175),(0.59325396825396826,0.91000000000000003,-1.0349999999999999)),$);
#39=IFCINDEXEDPOLYGONALFACE((1,2,4,3));
#40=IFCINDEXEDPOLYGONALFACE((5,7,8,6));
#41=IFCINDEXEDPOLYGONALFACE((1,5,6,2));
#42=IFCINDEXEDPOLYGONALFACE((3,4,8,7));
#43=IFCINDEXEDPOLYGONALFACE((1,3,7,5));
#44=IFCINDEXEDPOLYGONALFACE((2,6,8,4));
#45=IFCINDEXEDPOLYGONALFACE((9,10,12,11));
#46=IFCINDEXEDPOLYGONALFACE((13,15,16,14));
#47=IFCINDEXEDPOLYGONALFACE((9,13,14,10));
#48=IFCINDEXEDPOLYGONALFACE((11,12,16,15));
#49=IFCINDEXEDPOLYGONALFACE((9,11,15,13));
#50=IFCINDEXEDPOLYGONALFACE((10,14,16,12));
#51=IFCINDEXEDPOLYGONALFACE((17,18,20,19));
#52=IFCINDEXEDPOLYGONALFACE((21,23,24,22));
#53=IFCINDEXEDPOLYGONALFACE((17,21,22,18));
#54=IFCINDEXEDPOLYGONALFACE((19,20,24,23));
#55=IFCINDEXEDPOLYGONALFACE((17,19,23,21));
#56=IFCINDEXEDPOLYGONALFACE((18,22,24,20));
#57=IFCINDEXEDPOLYGONALFACE((25,26,28,27));
#58=IFCINDEXEDPOLYGONALFACE((29,31,32,30));
#59=IFCINDEXEDPOLYGONALFACE((25,29,30,26));
#60=IFCINDEXEDPOLYGONALFACE((27,28,32,31));
#61=IFCINDEXEDPOLYGONALFACE((25,27,31,29));
#62=IFCINDEXEDPOLYGONALFACE((26,30,32,28));
#63=IFCINDEXEDPOLYGONALFACE((33,34,36,35));
#64=IFCINDEXEDPOLYGONALFACE((37,39,40,38));
#65=IFCINDEXEDPOLYGONALFACE((33,37,38,34));
#66=IFCINDEXEDPOLYGONALFACE((35,36,40,39));
#67=IFCINDEXEDPOLYGONALFACE((33,35,39,37));
#68=IFCINDEXEDPOLYGONALFACE((34,38,40,36));
#69=IFCINDEXEDPOLYGONALFACE((41,42,44,43));
#70=IFCINDEXEDPOLYGONALFACE((45,47,48,46));
#71=IFCINDEXEDPOLYGONALFACE((41,45,46,42));
#72=IFCINDEXEDPOLYGONALFACE((43,44,48,47));
#73=IFCINDEXEDPOLYGONALFACE((41,43,47,45));
#74=IFCINDEXEDPOLYGONALFACE((42,46,48,44));
#75=IFCINDEXEDPOLYGONALFACE((49,50,52,51));
#76=IFCINDEXEDPOLYGONALFACE((53,55,56,54));
#77=IFCINDEXEDPOLYGONALFACE((49,53,54,50));
#78=IFCINDEXEDPOLYGONALFACE((51,52,56,55));
#79=IFCINDEXEDPOLYGONALFACE((49,51,55,53));
#80=IFCINDEXEDPOLYGONALFACE((50,54,56,52));
#81=IFCINDEXEDPOLYGONALFACE((57,58,60,59));
#82=IFCINDEXEDPOLYGONALFACE((61,63,64,62));
#83=IFCINDEXEDPOLYGONALFACE((57,61,62,58));
#84=IFCINDEXEDPOLYGONALFACE((59,60,64,63));
#85=IFCINDEXEDPOLYGONALFACE((57,59,63,61));
#86=IFCINDEXEDPOLYGONALFACE((58,62,64,60));
#87=IFCINDEXEDPOLYGONALFACE((65,66,68,67));
#88=IFCINDEXEDPOLYGONALFACE((69,71,72,70));
#89=IFCINDEXEDPOLYGONALFACE((65,69,70,66));
#90=IFCINDEXEDPOLYGONALFACE((67,68,72,71));
#91=IFCINDEXEDPOLYGONALFACE((65,67,71,69));
#92=IFCINDEXEDPOLYGONALFACE((66,70,72,68));
#93=IFCINDEXEDPOLYGONALFACE((73,74,76,75));
#94=IFCINDEXEDPOLYGONALFACE((77,79,80,78));
#95=IFCINDEXEDPOLYGONALFACE((73,77,78,74));
#96=IFCINDEXEDPOLYGONALFACE((75,76,80,79));
#97=IFCINDEXEDPOLYGONALFACE((73,75,79,77));
#98=IFCINDEXEDPOLYGONALFACE((74,78,80,76));
#99=IFCINDEXEDPOLYGONALFACE((81,82,84,83));
#100=IFCINDEXEDPOLYGONALFACE((85,87,88,86));
#101=IFCINDEXEDPOLYGONALFACE((81,85,86,82));
#102=IFCINDEXEDPOLYGONALFACE((83,84,88,87));
#103=IFCINDEXEDPOLYGONALFACE((81,83,87,85));
#104=IFCINDEXEDPOLYGONALFACE((82,86,88,84));
#105=IFCINDEXEDPOLYGONALFACE((89,90,92,91));
#106=IFCINDEXEDPOLYGONALFACE((93,95,96,94));
#107=IFCINDEXEDPOLYGONALFACE((89,93,94,90));
#108=IFCINDEXEDPOLYGONALFACE((91,92,96,95));
#109=IFCINDEXEDPOLYGONALFACE((89,91,95,93));
#110=IFCINDEXEDPOLYGONALFACE((90,94,96,92));
#111=IFCINDEXEDPOLYGONALFACE((97,98,100,99));
#112=IFCINDEXEDPOLYGONALFACE((101,103,104,102));
#113=IFCINDEXEDPOLYGONALFACE((97,101,102,98));
#114=IFCINDEXEDPOLYGONALFACE((99,100,104,103));
#115=IFCINDEXEDPOLYGONALFACE((97,99,103,101));
#116=IFCINDEXEDPOLYGONALFACE((98,102,104,100));
#117=IFCINDEXEDPOLYGONALFACE((105,106,108,107));
#118=IFCINDEXEDPOLYGONALFACE((109,111,112,110));
#119=IFCINDEXEDPOLYGONALFACE((105,109,110,106));
#120=IFCINDEXEDPOLYGONALFACE((107,108,112,111));
#121=IFCINDEXEDPOLYGONALFACE((105,107,111,109));
#122=IFCINDEXEDPOLYGONALFACE((106,110,112,108));
#123=IFCINDEXEDPOLYGONALFACE((113,114,116,115));
#124=IFCINDEXEDPOLYGONALFACE((117,119,120,118));
#125=IFCINDEXEDPOLYGONALFACE((113,117,118,114));
#126=IFCINDEXEDPOLYGONALFACE((115,116,120,119));
#127=IFCINDEXEDPOLYGONALFACE((113,115,119,117));
#128=IFCINDEXEDPOLYGONALFACE((114,118,120,116));
#129=IFCINDEXEDPOLYGONALFACE((121,122,124,123));
#130=IFCINDEXEDPOLYGONALFACE((125,127,128,126));
#131=IFCINDEXEDPOLYGONALFACE((121,125,126,122));
#132=IFCINDEXEDPOLYGONALFACE((123,124,128,127));
#133=IFCINDEXEDPOLYGONALFACE((121,123,127,125));
#134=IFCINDEXEDPOLYGONALFACE((122,126,128,124));
#135=IFCINDEXEDPOLYGONALFACE((129,130,132,131));
#136=IFCINDEXEDPOLYGONALFACE((133,135,136,134));
#137=IFCINDEXEDPOLYGONALFACE((129,133,134,130));
#138=IFCINDEXEDPOLYGONALFACE((131,132,136,135));
#139=IFCINDEXEDPOLYGONALFACE((129,131,135,133));
#140=IFCINDEXEDPOLYGONALFACE((130,134,136,132));
#141=IFCINDEXEDPOLYGONALFACE((137,138,140,139));
#142=IFCINDEXEDPOLYGONALFACE((141,143,144,142));
#143=IFCINDEXEDPOLYGONALFACE((137,141,142,138));
#144=IFCINDEXEDPOLYGONALFACE((139,140,144,143));
#145=IFCINDEXEDPOLYGONALFACE((137,139,143,141));
#146=IFCINDEXEDPOLYGONALFACE((138,142,144,140));
#147=IFCINDEXEDPOLYGONALFACE((145,146,148,147));
#148=IFCINDEXEDPOLYGONALFACE((149,151,152,150));
#149=IFCINDEXEDPOLYGONALFACE((145,149,150,146));
#150=IFCINDEXEDPOLYGONALFACE((147,148,152,151));
#151=IFCINDEXEDPOLYGONALFACE((145,147,151,149));
#152=IFCINDEXEDPOLYGONALFACE((146,150,152,148));
#153=IFCINDEXEDPOLYGONALFACE((153,154,156,155));
#154=IFCINDEXEDPOLYGONALFACE((157,159,160,158));
#155=IFCINDEXEDPOLYGONALFACE((153,157,158,154));
#156=IFCINDEXEDPOLYGONALFACE((155,156,160,159));
#157=IFCINDEXEDPOLYGONALFACE((153,155,159,157));
#158=IFCINDEXEDPOLYGONALFACE((154,158,160,156));
#159=IFCINDEXEDPOLYGONALFACE((161,162,164,163));
#160=IFCINDEXEDPOLYGONALFACE((165,167,168,166));
#161=IFCINDEXEDPOLYGONALFACE((161,165,166,162));
#162=IFCINDEXEDPOLYGONALFACE((163,164,168,167));
#163=IFCINDEXEDPOLYGONALFACE((161,163,167,165));
#164=IFCINDEXEDPOLYGONALFACE((162,166,168,164));
#165=IFCINDEXEDPOLYGONALFACE((169,170,172,171));
#166=IFCINDEXEDPOLYGONALFACE((173,175,176,174));
#167=IFCINDEXEDPOLYGONALFACE((169,173,174,170));
#168=IFCINDEXEDPOLYGONALFACE((171,172,176,175));
#169=IFCINDEXEDPOLYGONALFACE((169,171,175,173));
#170=IFCINDEXEDPOLYGONALFACE((170,174,176,172));
#171=IFCINDEXEDPOLYGONALFACE((177,178,180,179));
#172=IFCINDEXEDPOLYGONALFACE((181,183,184,182));
#173=IFCINDEXEDPOLYGONALFACE((177,181,182,178));
#174=IFCINDEXEDPOLYGONALFACE((179,180,184,183));
#175=IFCINDEXEDPOLYGONALFACE((177,179,183,181));
#176=IFCINDEXEDPOLYGONALFACE((178,182,184,180));
#177=IFCINDEXEDPOLYGONALFACE((185,186,188,187));
#178=IFCINDEXEDPOLYGONALFACE((189,191,192,190));
#179=IFCINDEXEDPOLYGONALFACE((185,189,190,186));
#180=IFCINDEXEDPOLYGONALFACE((187,188,192,191));
#181=IFCINDEXEDPOLYGONALFACE((185,187,191,189));
#182=IFCINDEXEDPOLYGONALFACE((186,190,192,188));
#183=IFCINDEXEDPOLYGONALFACE((193,194,196,195));
#184=IFCINDEXEDPOLYGONALFACE((197,199,200,198));
#185=IFCINDEXEDPOLYGONALFACE((193,197,198,194));
#186=IFCINDEXEDPOLYGONALFACE((195,196,200,199));
#187=IFCINDEXEDPOLYGONALFACE((193,195,199,197));
#188=IFCINDEXEDPOLYGONALFACE((194,198,200,196));
#189=IFCINDEXEDPOLYGONALFACE((201,202,204,203));
#190=IFCINDEXEDPOLYGONALFACE((205,207,208,206));
#191=IFCINDEXEDPOLYGONALFACE((201,205,206,202));
#192=IFCINDEXEDPOLYGONALFACE((203,204,208,207));
#193=IFCINDEXEDPOLYGONALFACE((201,203,207,205));
#194=IFCINDEXEDPOLYGONALFACE((202,206,208,204));
#195=IFCINDEXEDPOLYGONALFACE((209,210,212,211));
#196=IFCINDEXEDPOLYGONALFACE((213,215,216,214));
#197=IFCINDEXEDPOLYGONALFACE((209,213,214,210));
#198=IFCINDEXEDPOLYGONALFACE((211,212,216,215));
#199=IFCINDEXEDPOLYGONALFACE((209,211,215,213));
#200=IFCINDEXEDPOLYGONALFACE((210,214,216,212));
#201=IFCINDEXEDPOLYGONALFACE((217,218,220,219));
#202=IFCINDEXEDPOLYGONALFACE((221,223,224,222));
#203=IFCINDEXEDPOLYGONALFACE((217,221,222,218));
#204=IFCINDEXEDPOLYGONALFACE((219,220,224,223));
#205=IFCINDEXEDPOLYGONALFACE((217,219,223,221));
#206=IFCINDEXEDPOLYGONALFACE((218,222,224,220));
#207=IFCPOLYGONALFACESET(#38,$,(#39,#40,#41,#42,#43,#44,#45,#46,#47,#48,#49,#50,#51,#52,#53,#54,#55,#56,#57,#58,#59,#60,#61,#62,#63,#64,#65,#66,#67,#68,#69,#70,#71,#72,#73,#74,#75,#76,#77,#78,#79,#80,#81,#82,#83,#84,#85,#86,#87,#88,#89,#90,#91,#92,#93,#94,#95,#96,#97,#98,#99,#100,#101,#102,#103,#104,#105,#106,#107,#108,#109,#110,#111,#112,#113,#114,#115,#116,#117,#118,#119,#120,#121,#122,#123,#124,#125,#126,#127,#128,#129,#130,#131,#132,#133,#134,#135,#136,#137,#138,#139,#140,#141,#142,#143,#144,#145,#146,#147,#148,#149,#150,#151,#152,#153,#154,#155,#156,#157,#158,#159,#160,#161,#162,#163,#164,#165,#166,#167,#168,#169,#170,#171,#172,#173,#174,#175,#176,#177,#178,#179,#180,#181,#182,#183,#184,#185,#186,#187,#188,#189,#190,#191,#192,#193,#194,#195,#196,#197,#198,#199,#200,#201,#202,#203,#204,#205,#206),$);
#208=IFCSHAPEREPRESENTATION(#13,'Body','Tessellation',(#207));
#209=IFCPRODUCTDEFINITIONSHAPE($,$,(#208));
#210=IFCRELCONTAINEDINSPATIALSTRUCTURE('2wQduKrgTTF869PJfmX1wl',$,$,$,(#28),#3);
#211=IFCCARTESIANPOINT((0.,0.,0.));
#212=IFCAXIS2PLACEMENT3D(#211,$,$);
#213=IFCLOCALPLACEMENT($,#212);
ENDSEC;
END-ISO-10303-21;
