ISO-10303-21;
HEADER;
FILE_DESCRIPTION(('ViewDefinition [CoordinationView]'),'2;1');
FILE_NAME('LM3-BDY-P070.ifc','2026-08-30T00:00:00+00:00',('OpenSourceRail'),('OpenSourceRail'),'IfcOpenShell 0.8.5','OpenSourceRail deterministic LM3 product-library exporter','design-reference / not for construction');
FILE_SCHEMA(('IFC4X3_ADD2'));
ENDSEC;
DATA;
#1=IFCPROJECT('05aBgk91LOzfyje0Z0r6xl',$,'LM3-BDY-P070 \X2\2014\X0\ side-wall post, door portal, waist rail, and cant rail kit','Design-reference geometry and assembly hierarchy only; supplier freeze, released drawings/tolerances, calculations, qualified processes and first-article tests remain mandatory.',$,$,$,(#12),#7);
#2=IFCSITE('0AJ7vPQwXSJ89LpP382a5Q',$,'LM3 product library',$,$,#18,$,$,.ELEMENT.,$,$,$,$,$);
#3=IFCBUILDING('0oaSjTJtbLIuBd4Dj_MsMw',$,'LM3 assembly inspection fixture',$,$,#21,$,$,.ELEMENT.,$,$,$);
#4=IFCSIUNIT(*,.LENGTHUNIT.,$,.METRE.);
#5=IFCSIUNIT(*,.AREAUNIT.,$,.SQUARE_METRE.);
#6=IFCSIUNIT(*,.VOLUMEUNIT.,$,.CUBIC_METRE.);
#7=IFCUNITASSIGNMENT((#6,#4,#5));
#8=IFCCARTESIANPOINT((0.,0.,0.));
#9=IFCDIRECTION((0.,0.,1.));
#10=IFCDIRECTION((1.,0.,0.));
#11=IFCAXIS2PLACEMENT3D(#8,#9,#10);
#12=IFCGEOMETRICREPRESENTATIONCONTEXT($,'Model',3,1.0000000000000001E-05,#11,$);
#13=IFCGEOMETRICREPRESENTATIONSUBCONTEXT('Body','Model',*,*,*,*,#12,$,.MODEL_VIEW.,$);
#14=IFCRELAGGREGATES('3ea9qdMjfN6hxU5xd3Y$qN',$,$,$,#1,(#2));
#15=IFCRELAGGREGATES('3OO6UlD1rNtRuoQCmVqWzL',$,$,$,#2,(#3));
#16=IFCCARTESIANPOINT((0.,0.,0.));
#17=IFCAXIS2PLACEMENT3D(#16,$,$);
#18=IFCLOCALPLACEMENT($,#17);
#19=IFCCARTESIANPOINT((0.,0.,0.));
#20=IFCAXIS2PLACEMENT3D(#19,$,$);
#21=IFCLOCALPLACEMENT($,#20);
#22=IFCPROPERTYSINGLEVALUE('Status',$,IFCTEXT('design-reference-not-released'),$);
#23=IFCPROPERTYSINGLEVALUE('ReleaseBoundary',$,IFCTEXT('Design-reference geometry and assembly hierarchy only; supplier freeze, released drawings/tolerances, calculations, qualified processes and first-article tests remain mandatory.'),$);
#24=IFCPROPERTYSINGLEVALUE('Manifest',$,IFCTEXT('design/component-catalogue/catalog/buildable-trainset/buildable-trainset-manifest.json'),$);
#25=IFCPROPERTYSINGLEVALUE('ManifestSha256',$,IFCTEXT('7654747909805305ce2018109b5b649c4817a8f8c44a3ec8f2e8a6f74d48243e'),$);
#26=IFCPROPERTYSET('2wXjb67lvHEA9o7BcOV7io',$,'OSR_ProductLibrary',$,(#22,#23,#24,#25));
#27=IFCRELDEFINESBYPROPERTIES('0a1QaU6wLTS9T4y$o2c0_M',$,$,$,(#1),#26);
#28=IFCBUILDINGELEMENTPROXY('2s_29W4K9U7RJwjScl9Htj',$,'side-wall post, door portal, waist rail, and cant rail kit','Side frame welded in fixture before body close-up.',$,#105,#101,'LM3-BDY-P070',$);
#29=IFCPROPERTYSINGLEVALUE('OSRId',$,IFCTEXT('LM3-BDY-P070'),$);
#30=IFCPROPERTYSINGLEVALUE('Parent',$,IFCTEXT('LM3-BDY-SA120'),$);
#31=IFCPROPERTYSINGLEVALUE('Route',$,IFCTEXT('MAKE'),$);
#32=IFCPROPERTYSINGLEVALUE('Maturity',$,IFCTEXT('release-candidate'),$);
#33=IFCPROPERTYSINGLEVALUE('QuantityPerTrainset',$,IFCINTEGER(6),$);
#34=IFCPROPERTYSINGLEVALUE('Unit',$,IFCTEXT('side'),$);
#35=IFCPROPERTYSINGLEVALUE('GeometryStatus',$,IFCTEXT('design-reference-not-released'),$);
#36=IFCPROPERTYSET('2R3DrDPBDK0fpxV1ZHaMA2',$,'OSR_ProductDefinition',$,(#29,#30,#31,#32,#33,#34,#35));
#37=IFCRELDEFINESBYPROPERTIES('0lDh_LAq1OsgRoV7eMPy8$',$,$,$,(#28),#36);
#38=IFCCARTESIANPOINTLIST3D(((-7.9000000000000004,-0.089999999999999997,-0.059999999999999998),(-7.9000000000000004,-0.089999999999999997,0.059999999999999998),(-7.9000000000000004,0.089999999999999997,-0.059999999999999998),(-7.9000000000000004,0.089999999999999997,0.059999999999999998),(7.9000000000000004,-0.089999999999999997,-0.059999999999999998),(7.9000000000000004,-0.089999999999999997,0.059999999999999998),(7.9000000000000004,0.089999999999999997,-0.059999999999999998),(7.9000000000000004,0.089999999999999997,0.059999999999999998),(-7.9000000000000004,-0.089999999999999997,1.2509999999999999),(-7.9000000000000004,-0.089999999999999997,1.371),(-7.9000000000000004,0.089999999999999997,1.2509999999999999),(-7.9000000000000004,0.089999999999999997,1.371),(7.9000000000000004,-0.089999999999999997,1.2509999999999999),(7.9000000000000004,-0.089999999999999997,1.371),(7.9000000000000004,0.089999999999999997,1.2509999999999999),(7.9000000000000004,0.089999999999999997,1.371),(-7.9000000000000004,-0.089999999999999997,-1.371),(-7.9000000000000004,-0.089999999999999997,-1.2509999999999999),(-7.9000000000000004,0.089999999999999997,-1.371),(-7.9000000000000004,0.089999999999999997,-1.2509999999999999),(7.9000000000000004,-0.089999999999999997,-1.371),(7.9000000000000004,-0.089999999999999997,-1.2509999999999999),(7.9000000000000004,0.089999999999999997,-1.371),(7.9000000000000004,0.089999999999999997,-1.2509999999999999),(-7.1600000000000001,-0.089999999999999997,-1.425),(-7.1600000000000001,-0.089999999999999997,1.425),(-7.1600000000000001,0.089999999999999997,-1.425),(-7.1600000000000001,0.089999999999999997,1.425),(-7.0599999999999996,-0.089999999999999997,-1.425),(-7.0599999999999996,-0.089999999999999997,1.425),(-7.0599999999999996,0.089999999999999997,-1.425),(-7.0599999999999996,0.089999999999999997,1.425),(-4.79,-0.089999999999999997,-1.425),(-4.79,-0.089999999999999997,1.425),(-4.79,0.089999999999999997,-1.425),(-4.79,0.089999999999999997,1.425),(-4.6900000000000004,-0.089999999999999997,-1.425),(-4.6900000000000004,-0.089999999999999997,1.425),(-4.6900000000000004,0.089999999999999997,-1.425),(-4.6900000000000004,0.089999999999999997,1.425),(-2.4199999999999999,-0.089999999999999997,-1.425),(-2.4199999999999999,-0.089999999999999997,1.425),(-2.4199999999999999,0.089999999999999997,-1.425),(-2.4199999999999999,0.089999999999999997,1.425),(-2.3199999999999998,-0.089999999999999997,-1.425),(-2.3199999999999998,-0.089999999999999997,1.425),(-2.3199999999999998,0.089999999999999997,-1.425),(-2.3199999999999998,0.089999999999999997,1.425),(-0.050000000000000003,-0.089999999999999997,-1.425),(-0.050000000000000003,-0.089999999999999997,1.425),(-0.050000000000000003,0.089999999999999997,-1.425),(-0.050000000000000003,0.089999999999999997,1.425),(0.050000000000000003,-0.089999999999999997,-1.425),(0.050000000000000003,-0.089999999999999997,1.425),(0.050000000000000003,0.089999999999999997,-1.425),(0.050000000000000003,0.089999999999999997,1.425),(2.3199999999999998,-0.089999999999999997,-1.425),(2.3199999999999998,-0.089999999999999997,1.425),(2.3199999999999998,0.089999999999999997,-1.425),(2.3199999999999998,0.089999999999999997,1.425),(2.4199999999999999,-0.089999999999999997,-1.425),(2.4199999999999999,-0.089999999999999997,1.425),(2.4199999999999999,0.089999999999999997,-1.425),(2.4199999999999999,0.089999999999999997,1.425),(4.6900000000000004,-0.089999999999999997,-1.425),(4.6900000000000004,-0.089999999999999997,1.425),(4.6900000000000004,0.089999999999999997,-1.425),(4.6900000000000004,0.089999999999999997,1.425),(4.79,-0.089999999999999997,-1.425),(4.79,-0.089999999999999997,1.425),(4.79,0.089999999999999997,-1.425),(4.79,0.089999999999999997,1.425),(7.0599999999999996,-0.089999999999999997,-1.425),(7.0599999999999996,-0.089999999999999997,1.425),(7.0599999999999996,0.089999999999999997,-1.425),(7.0599999999999996,0.089999999999999997,1.425),(7.1600000000000001,-0.089999999999999997,-1.425),(7.1600000000000001,-0.089999999999999997,1.425),(7.1600000000000001,0.089999999999999997,-1.425),(7.1600000000000001,0.089999999999999997,1.425)),$);
#39=IFCINDEXEDPOLYGONALFACE((1,2,4,3));
#40=IFCINDEXEDPOLYGONALFACE((5,7,8,6));
#41=IFCINDEXEDPOLYGONALFACE((1,5,6,2));
#42=IFCINDEXEDPOLYGONALFACE((3,4,8,7));
#43=IFCINDEXEDPOLYGONALFACE((1,3,7,5));
#44=IFCINDEXEDPOLYGONALFACE((2,6,8,4));
#45=IFCINDEXEDPOLYGONALFACE((9,10,12,11));
#46=IFCINDEXEDPOLYGONALFACE((13,15,16,14));
#47=IFCINDEXEDPOLYGONALFACE((9,13,14,10));
#48=IFCINDEXEDPOLYGONALFACE((11,12,16,15));
#49=IFCINDEXEDPOLYGONALFACE((9,11,15,13));
#50=IFCINDEXEDPOLYGONALFACE((10,14,16,12));
#51=IFCINDEXEDPOLYGONALFACE((17,18,20,19));
#52=IFCINDEXEDPOLYGONALFACE((21,23,24,22));
#53=IFCINDEXEDPOLYGONALFACE((17,21,22,18));
#54=IFCINDEXEDPOLYGONALFACE((19,20,24,23));
#55=IFCINDEXEDPOLYGONALFACE((17,19,23,21));
#56=IFCINDEXEDPOLYGONALFACE((18,22,24,20));
#57=IFCINDEXEDPOLYGONALFACE((25,26,28,27));
#58=IFCINDEXEDPOLYGONALFACE((29,31,32,30));
#59=IFCINDEXEDPOLYGONALFACE((25,29,30,26));
#60=IFCINDEXEDPOLYGONALFACE((27,28,32,31));
#61=IFCINDEXEDPOLYGONALFACE((25,27,31,29));
#62=IFCINDEXEDPOLYGONALFACE((26,30,32,28));
#63=IFCINDEXEDPOLYGONALFACE((33,34,36,35));
#64=IFCINDEXEDPOLYGONALFACE((37,39,40,38));
#65=IFCINDEXEDPOLYGONALFACE((33,37,38,34));
#66=IFCINDEXEDPOLYGONALFACE((35,36,40,39));
#67=IFCINDEXEDPOLYGONALFACE((33,35,39,37));
#68=IFCINDEXEDPOLYGONALFACE((34,38,40,36));
#69=IFCINDEXEDPOLYGONALFACE((41,42,44,43));
#70=IFCINDEXEDPOLYGONALFACE((45,47,48,46));
#71=IFCINDEXEDPOLYGONALFACE((41,45,46,42));
#72=IFCINDEXEDPOLYGONALFACE((43,44,48,47));
#73=IFCINDEXEDPOLYGONALFACE((41,43,47,45));
#74=IFCINDEXEDPOLYGONALFACE((42,46,48,44));
#75=IFCINDEXEDPOLYGONALFACE((49,50,52,51));
#76=IFCINDEXEDPOLYGONALFACE((53,55,56,54));
#77=IFCINDEXEDPOLYGONALFACE((49,53,54,50));
#78=IFCINDEXEDPOLYGONALFACE((51,52,56,55));
#79=IFCINDEXEDPOLYGONALFACE((49,51,55,53));
#80=IFCINDEXEDPOLYGONALFACE((50,54,56,52));
#81=IFCINDEXEDPOLYGONALFACE((57,58,60,59));
#82=IFCINDEXEDPOLYGONALFACE((61,63,64,62));
#83=IFCINDEXEDPOLYGONALFACE((57,61,62,58));
#84=IFCINDEXEDPOLYGONALFACE((59,60,64,63));
#85=IFCINDEXEDPOLYGONALFACE((57,59,63,61));
#86=IFCINDEXEDPOLYGONALFACE((58,62,64,60));
#87=IFCINDEXEDPOLYGONALFACE((65,66,68,67));
#88=IFCINDEXEDPOLYGONALFACE((69,71,72,70));
#89=IFCINDEXEDPOLYGONALFACE((65,69,70,66));
#90=IFCINDEXEDPOLYGONALFACE((67,68,72,71));
#91=IFCINDEXEDPOLYGONALFACE((65,67,71,69));
#92=IFCINDEXEDPOLYGONALFACE((66,70,72,68));
#93=IFCINDEXEDPOLYGONALFACE((73,74,76,75));
#94=IFCINDEXEDPOLYGONALFACE((77,79,80,78));
#95=IFCINDEXEDPOLYGONALFACE((73,77,78,74));
#96=IFCINDEXEDPOLYGONALFACE((75,76,80,79));
#97=IFCINDEXEDPOLYGONALFACE((73,75,79,77));
#98=IFCINDEXEDPOLYGONALFACE((74,78,80,76));
#99=IFCPOLYGONALFACESET(#38,$,(#39,#40,#41,#42,#43,#44,#45,#46,#47,#48,#49,#50,#51,#52,#53,#54,#55,#56,#57,#58,#59,#60,#61,#62,#63,#64,#65,#66,#67,#68,#69,#70,#71,#72,#73,#74,#75,#76,#77,#78,#79,#80,#81,#82,#83,#84,#85,#86,#87,#88,#89,#90,#91,#92,#93,#94,#95,#96,#97,#98),$);
#100=IFCSHAPEREPRESENTATION(#13,'Body','Tessellation',(#99));
#101=IFCPRODUCTDEFINITIONSHAPE($,$,(#100));
#102=IFCRELCONTAINEDINSPATIALSTRUCTURE('1IMlrUuTbRlxz3ptRgt5v5',$,$,$,(#28),#3);
#103=IFCCARTESIANPOINT((0.,0.,0.));
#104=IFCAXIS2PLACEMENT3D(#103,$,$);
#105=IFCLOCALPLACEMENT($,#104);
ENDSEC;
END-ISO-10303-21;
