ISO-10303-21;
HEADER;
FILE_DESCRIPTION(('ViewDefinition [CoordinationView]'),'2;1');
FILE_NAME('LM3-BDY-P133.ifc','2026-08-30T00:00:00+00:00',('OpenSourceRail'),('OpenSourceRail'),'IfcOpenShell 0.8.5','OpenSourceRail deterministic LM3 product-library exporter','design-reference / not for construction');
FILE_SCHEMA(('IFC4X3_ADD2'));
ENDSEC;
DATA;
#1=IFCPROJECT('0eq2j0d4LN5fGqxNRkss1A',$,'LM3-BDY-P133 \X2\2014\X0\ one-metre clip-on fiberglass roof skin and equipment-fairing module','Design-reference geometry and assembly hierarchy only; supplier freeze, released drawings/tolerances, calculations, qualified processes and first-article tests remain mandatory.',$,$,$,(#12),#7);
#2=IFCSITE('3U6eXk_kTGARU38Ab60BRF',$,'LM3 product library',$,$,#18,$,$,.ELEMENT.,$,$,$,$,$);
#3=IFCBUILDING('2pZn4UT5HSuv3iWDniohti',$,'LM3 assembly inspection fixture',$,$,#21,$,$,.ELEMENT.,$,$,$);
#4=IFCSIUNIT(*,.LENGTHUNIT.,$,.METRE.);
#5=IFCSIUNIT(*,.AREAUNIT.,$,.SQUARE_METRE.);
#6=IFCSIUNIT(*,.VOLUMEUNIT.,$,.CUBIC_METRE.);
#7=IFCUNITASSIGNMENT((#6,#4,#5));
#8=IFCCARTESIANPOINT((0.,0.,0.));
#9=IFCDIRECTION((0.,0.,1.));
#10=IFCDIRECTION((1.,0.,0.));
#11=IFCAXIS2PLACEMENT3D(#8,#9,#10);
#12=IFCGEOMETRICREPRESENTATIONCONTEXT($,'Model',3,1.0000000000000001E-05,#11,$);
#13=IFCGEOMETRICREPRESENTATIONSUBCONTEXT('Body','Model',*,*,*,*,#12,$,.MODEL_VIEW.,$);
#14=IFCRELAGGREGATES('1zEYOZC$TQW8Na8uM8WSYy',$,$,$,#1,(#2));
#15=IFCRELAGGREGATES('0cuEDqD49GHwJXORjUxiow',$,$,$,#2,(#3));
#16=IFCCARTESIANPOINT((0.,0.,0.));
#17=IFCAXIS2PLACEMENT3D(#16,$,$);
#18=IFCLOCALPLACEMENT($,#17);
#19=IFCCARTESIANPOINT((0.,0.,0.));
#20=IFCAXIS2PLACEMENT3D(#19,$,$);
#21=IFCLOCALPLACEMENT($,#20);
#22=IFCPROPERTYSINGLEVALUE('Status',$,IFCTEXT('design-reference-not-released'),$);
#23=IFCPROPERTYSINGLEVALUE('ReleaseBoundary',$,IFCTEXT('Design-reference geometry and assembly hierarchy only; supplier freeze, released drawings/tolerances, calculations, qualified processes and first-article tests remain mandatory.'),$);
#24=IFCPROPERTYSINGLEVALUE('Manifest',$,IFCTEXT('design/component-catalogue/catalog/buildable-trainset/buildable-trainset-manifest.json'),$);
#25=IFCPROPERTYSINGLEVALUE('ManifestSha256',$,IFCTEXT('1179a30e147f3569fc4ccc8ce621621cec7985f620d2c788f8da93eec9ed7c05'),$);
#26=IFCPROPERTYSET('264csB8FLTMhR_1MevTi$1',$,'OSR_ProductLibrary',$,(#22,#23,#24,#25));
#27=IFCRELDEFINESBYPROPERTIES('0uuywFcHrOZhnKv4ggOGbO',$,$,$,(#1),#26);
#28=IFCBUILDINGELEMENTPROXY('2POpodBAbRuemmxBNpZhRP',$,'one-metre clip-on fiberglass roof skin and equipment-fairing module','Dedicated roof-bay moulding uses the common pitch with controlled HVAC, PV, antenna, access, and drainage trim variants.',$,#70,#66,'LM3-BDY-P133',$);
#29=IFCPROPERTYSINGLEVALUE('OSRId',$,IFCTEXT('LM3-BDY-P133'),$);
#30=IFCPROPERTYSINGLEVALUE('Parent',$,IFCTEXT('LM3-SHELL-A200'),$);
#31=IFCPROPERTYSINGLEVALUE('Route',$,IFCTEXT('MAKE'),$);
#32=IFCPROPERTYSINGLEVALUE('Maturity',$,IFCTEXT('release-candidate'),$);
#33=IFCPROPERTYSINGLEVALUE('QuantityPerTrainset',$,IFCINTEGER(48),$);
#34=IFCPROPERTYSINGLEVALUE('Unit',$,IFCTEXT('module'),$);
#35=IFCPROPERTYSINGLEVALUE('GeometryStatus',$,IFCTEXT('design-reference-not-released'),$);
#36=IFCPROPERTYSINGLEVALUE('GeometryLevel',$,IFCTEXT('interface-detailed'),$);
#37=IFCPROPERTYSET('0jKY5_y9vI8v1RypnQuE8u',$,'OSR_ProductDefinition',$,(#29,#30,#31,#32,#33,#34,#35,#36));
#38=IFCRELDEFINESBYPROPERTIES('3B2qTWCzfGW8xcOb26r1QD',$,$,$,(#28),#37);
#39=IFCCARTESIANPOINTLIST3D(((-0.5,-1.425,-0.046200000000000005),(-0.5,-1.425,0.046200000000000005),(-0.5,1.425,-0.046200000000000005),(-0.5,1.425,0.046200000000000005),(0.5,-1.425,-0.046200000000000005),(0.5,-1.425,0.046200000000000005),(0.5,1.425,-0.046200000000000005),(0.5,1.425,0.046200000000000005),(-0.35999999999999999,-1.026,0.),(-0.35999999999999999,-1.026,0.20999999999999999),(-0.35999999999999999,1.026,0.),(-0.35999999999999999,1.026,0.20999999999999999),(0.35999999999999999,-1.026,0.),(0.35999999999999999,-1.026,0.20999999999999999),(0.35999999999999999,1.026,0.),(0.35999999999999999,1.026,0.20999999999999999),(-0.31,-1.3680000000000001,-0.071399999999999991),(-0.31,-1.3680000000000001,0.20580000000000001),(-0.31,-1.083,-0.071399999999999991),(-0.31,-1.083,0.20580000000000001),(0.31,-1.3680000000000001,-0.071399999999999991),(0.31,-1.3680000000000001,0.20580000000000001),(0.31,-1.083,-0.071399999999999991),(0.31,-1.083,0.20580000000000001),(0.19,0.7410000000000001,0.046200000000000005),(0.19,0.7410000000000001,0.12179999999999999),(0.19,1.1970000000000001,0.046200000000000005),(0.19,1.1970000000000001,0.12179999999999999),(0.40999999999999998,0.7410000000000001,0.046200000000000005),(0.40999999999999998,0.7410000000000001,0.12179999999999999),(0.40999999999999998,1.1970000000000001,0.046200000000000005),(0.40999999999999998,1.1970000000000001,0.12179999999999999)),$);
#40=IFCINDEXEDPOLYGONALFACE((1,2,4,3));
#41=IFCINDEXEDPOLYGONALFACE((5,7,8,6));
#42=IFCINDEXEDPOLYGONALFACE((1,5,6,2));
#43=IFCINDEXEDPOLYGONALFACE((3,4,8,7));
#44=IFCINDEXEDPOLYGONALFACE((1,3,7,5));
#45=IFCINDEXEDPOLYGONALFACE((2,6,8,4));
#46=IFCINDEXEDPOLYGONALFACE((9,10,12,11));
#47=IFCINDEXEDPOLYGONALFACE((13,15,16,14));
#48=IFCINDEXEDPOLYGONALFACE((9,13,14,10));
#49=IFCINDEXEDPOLYGONALFACE((11,12,16,15));
#50=IFCINDEXEDPOLYGONALFACE((9,11,15,13));
#51=IFCINDEXEDPOLYGONALFACE((10,14,16,12));
#52=IFCINDEXEDPOLYGONALFACE((17,18,20,19));
#53=IFCINDEXEDPOLYGONALFACE((21,23,24,22));
#54=IFCINDEXEDPOLYGONALFACE((17,21,22,18));
#55=IFCINDEXEDPOLYGONALFACE((19,20,24,23));
#56=IFCINDEXEDPOLYGONALFACE((17,19,23,21));
#57=IFCINDEXEDPOLYGONALFACE((18,22,24,20));
#58=IFCINDEXEDPOLYGONALFACE((25,26,28,27));
#59=IFCINDEXEDPOLYGONALFACE((29,31,32,30));
#60=IFCINDEXEDPOLYGONALFACE((25,29,30,26));
#61=IFCINDEXEDPOLYGONALFACE((27,28,32,31));
#62=IFCINDEXEDPOLYGONALFACE((25,27,31,29));
#63=IFCINDEXEDPOLYGONALFACE((26,30,32,28));
#64=IFCPOLYGONALFACESET(#39,$,(#40,#41,#42,#43,#44,#45,#46,#47,#48,#49,#50,#51,#52,#53,#54,#55,#56,#57,#58,#59,#60,#61,#62,#63),$);
#65=IFCSHAPEREPRESENTATION(#13,'Body','Tessellation',(#64));
#66=IFCPRODUCTDEFINITIONSHAPE($,$,(#65));
#67=IFCRELCONTAINEDINSPATIALSTRUCTURE('3k9R7bBmrTHv7EX5wXl8fH',$,$,$,(#28),#3);
#68=IFCCARTESIANPOINT((0.,0.,0.));
#69=IFCAXIS2PLACEMENT3D(#68,$,$);
#70=IFCLOCALPLACEMENT($,#69);
ENDSEC;
END-ISO-10303-21;
