ISO-10303-21;
HEADER;
FILE_DESCRIPTION(('ViewDefinition [CoordinationView]'),'2;1');
FILE_NAME('LM3-BOG-P042.ifc','2026-08-30T00:00:00+00:00',('OpenSourceRail'),('OpenSourceRail'),'IfcOpenShell 0.8.5','OpenSourceRail deterministic LM3 product-library exporter','design-reference / not for construction');
FILE_SCHEMA(('IFC4X3_ADD2'));
ENDSEC;
DATA;
#1=IFCPROJECT('3yHHNlSC1OBfcXKluezAL6',$,'LM3-BOG-P042 \X2\2014\X0\ powered-wheelset axlebox, sealed bearing unit, speed and temperature sensor set','Design-reference geometry and assembly hierarchy only; supplier freeze, released drawings/tolerances, calculations, qualified processes and first-article tests remain mandatory.',$,$,$,(#12),#7);
#2=IFCSITE('0E1RuHOn1RqPzGlUic5Bmo',$,'LM3 product library',$,$,#18,$,$,.ELEMENT.,$,$,$,$,$);
#3=IFCBUILDING('2IL98hjzzHUO8vQoxWQdWg',$,'LM3 assembly inspection fixture',$,$,#21,$,$,.ELEMENT.,$,$,$);
#4=IFCSIUNIT(*,.LENGTHUNIT.,$,.METRE.);
#5=IFCSIUNIT(*,.AREAUNIT.,$,.SQUARE_METRE.);
#6=IFCSIUNIT(*,.VOLUMEUNIT.,$,.CUBIC_METRE.);
#7=IFCUNITASSIGNMENT((#6,#4,#5));
#8=IFCCARTESIANPOINT((0.,0.,0.));
#9=IFCDIRECTION((0.,0.,1.));
#10=IFCDIRECTION((1.,0.,0.));
#11=IFCAXIS2PLACEMENT3D(#8,#9,#10);
#12=IFCGEOMETRICREPRESENTATIONCONTEXT($,'Model',3,1.0000000000000001E-05,#11,$);
#13=IFCGEOMETRICREPRESENTATIONSUBCONTEXT('Body','Model',*,*,*,*,#12,$,.MODEL_VIEW.,$);
#14=IFCRELAGGREGATES('34hrBTilPRJv6RrVFDhTLQ',$,$,$,#1,(#2));
#15=IFCRELAGGREGATES('3Tb7XhBsnSSfKOe5415c1t',$,$,$,#2,(#3));
#16=IFCCARTESIANPOINT((0.,0.,0.));
#17=IFCAXIS2PLACEMENT3D(#16,$,$);
#18=IFCLOCALPLACEMENT($,#17);
#19=IFCCARTESIANPOINT((0.,0.,0.));
#20=IFCAXIS2PLACEMENT3D(#19,$,$);
#21=IFCLOCALPLACEMENT($,#20);
#22=IFCPROPERTYSINGLEVALUE('Status',$,IFCTEXT('design-reference-not-released'),$);
#23=IFCPROPERTYSINGLEVALUE('ReleaseBoundary',$,IFCTEXT('Design-reference geometry and assembly hierarchy only; supplier freeze, released drawings/tolerances, calculations, qualified processes and first-article tests remain mandatory.'),$);
#24=IFCPROPERTYSINGLEVALUE('Manifest',$,IFCTEXT('design/component-catalogue/catalog/buildable-trainset/buildable-trainset-manifest.json'),$);
#25=IFCPROPERTYSINGLEVALUE('ManifestSha256',$,IFCTEXT('1179a30e147f3569fc4ccc8ce621621cec7985f620d2c788f8da93eec9ed7c05'),$);
#26=IFCPROPERTYSET('2zFD7W581Q8BsMev7XggQO',$,'OSR_ProductLibrary',$,(#22,#23,#24,#25));
#27=IFCRELDEFINESBYPROPERTIES('2Lsl_Yq1XSbfalBTGp0LKh',$,$,$,(#1),#26);
#28=IFCBUILDINGELEMENTPROXY('360OhEGdPNvBtxyu3u56gd',$,'powered-wheelset axlebox, sealed bearing unit, speed and temperature sensor set','Ready-to-mount railway axlebox bearing units keep bearing setting, seals and sensor interfaces under one supplier responsibility.',$,#90,#86,'LM3-BOG-P042',$);
#29=IFCPROPERTYSINGLEVALUE('OSRId',$,IFCTEXT('LM3-BOG-P042'),$);
#30=IFCPROPERTYSINGLEVALUE('Parent',$,IFCTEXT('LM3-BOG-SA611'),$);
#31=IFCPROPERTYSINGLEVALUE('Route',$,IFCTEXT('BID'),$);
#32=IFCPROPERTYSINGLEVALUE('Maturity',$,IFCTEXT('buildable-after-supplier-freeze'),$);
#33=IFCPROPERTYSINGLEVALUE('QuantityPerTrainset',$,IFCINTEGER(6),$);
#34=IFCPROPERTYSINGLEVALUE('Unit',$,IFCTEXT('wheelset set'),$);
#35=IFCPROPERTYSINGLEVALUE('GeometryStatus',$,IFCTEXT('design-reference-not-released'),$);
#36=IFCPROPERTYSINGLEVALUE('GeometryLevel',$,IFCTEXT('coordination-envelope'),$);
#37=IFCPROPERTYSET('3Z5bGMhRvUIfa1wTEalncJ',$,'OSR_ProductDefinition',$,(#29,#30,#31,#32,#33,#34,#35,#36));
#38=IFCRELDEFINESBYPROPERTIES('3V7nWIJovS0R0hlbd5zwb1',$,$,$,(#28),#37);
#39=IFCCARTESIANPOINTLIST3D(((0.17360000000000003,-0.17360000000000003,0.),(0.16510341122883868,-0.17360000000000003,0.05364535022349088),(0.14044535022349092,-0.17360000000000003,0.10203951979797335),(0.10203951979797335,-0.17360000000000003,0.14044535022349092),(0.053645350223490887,-0.17360000000000003,0.16510341122883868),(1.0629934216599028E-17,-0.17360000000000003,0.17360000000000003),(-0.053645350223490866,-0.17360000000000003,0.1651034112288387),(-0.10203951979797334,-0.17360000000000003,0.14044535022349092),(-0.14044535022349089,-0.17360000000000003,0.10203951979797338),(-0.16510341122883868,-0.17360000000000003,0.053645350223490894),(-0.17360000000000003,-0.17360000000000003,2.1259868433198056E-17),(-0.16510341122883873,-0.17360000000000003,-0.05364535022349079),(-0.14044535022349092,-0.17360000000000003,-0.10203951979797334),(-0.10203951979797338,-0.17360000000000003,-0.14044535022349089),(-0.053645350223490908,-0.17360000000000003,-0.16510341122883868),(-3.1889802649797078E-17,-0.17360000000000003,-0.17360000000000003),(0.053645350223490852,-0.17360000000000003,-0.1651034112288387),(0.10203951979797332,-0.17360000000000003,-0.14044535022349092),(0.14044535022349089,-0.17360000000000003,-0.10203951979797339),(0.16510341122883868,-0.17360000000000003,-0.053645350223490915),(0.17360000000000003,0.17360000000000003,0.),(0.16510341122883868,0.17360000000000003,0.05364535022349088),(0.14044535022349092,0.17360000000000003,0.10203951979797335),(0.10203951979797335,0.17360000000000003,0.14044535022349092),(0.053645350223490887,0.17360000000000003,0.16510341122883868),(1.0629934216599028E-17,0.17360000000000003,0.17360000000000003),(-0.053645350223490866,0.17360000000000003,0.1651034112288387),(-0.10203951979797334,0.17360000000000003,0.14044535022349092),(-0.14044535022349089,0.17360000000000003,0.10203951979797338),(-0.16510341122883868,0.17360000000000003,0.053645350223490894),(-0.17360000000000003,0.17360000000000003,2.1259868433198056E-17),(-0.16510341122883873,0.17360000000000003,-0.05364535022349079),(-0.14044535022349092,0.17360000000000003,-0.10203951979797334),(-0.10203951979797338,0.17360000000000003,-0.14044535022349089),(-0.053645350223490908,0.17360000000000003,-0.16510341122883868),(-3.1889802649797078E-17,0.17360000000000003,-0.17360000000000003),(0.053645350223490852,0.17360000000000003,-0.1651034112288387),(0.10203951979797332,0.17360000000000003,-0.14044535022349092),(0.14044535022349089,0.17360000000000003,-0.10203951979797339),(0.16510341122883868,0.17360000000000003,-0.053645350223490915),(0.074400000000000008,-0.31,-0.23559999999999998),(0.070758604812359432,-0.31,-0.21260913561850389),(0.060190864381496095,-0.31,-0.19186877722943996),(0.043731222770560005,-0.31,-0.17540913561850388),(0.022990864381496091,-0.31,-0.16484139518764054),(4.5556860928281542E-18,-0.31,-0.16119999999999995),(-0.022990864381496084,-0.31,-0.16484139518764054),(-0.043731222770559998,-0.31,-0.17540913561850388),(-0.060190864381496088,-0.31,-0.19186877722943996),(-0.070758604812359432,-0.31,-0.21260913561850386),(-0.074400000000000008,-0.31,-0.23559999999999998),(-0.070758604812359446,-0.31,-0.25859086438149603),(-0.060190864381496102,-0.31,-0.27933122277055999),(-0.043731222770560012,-0.31,-0.29579086438149604),(-0.022990864381496102,-0.31,-0.30635860481235944),(-1.3667058278484462E-17,-0.31,-0.31),(0.022990864381496078,-0.31,-0.30635860481235944),(0.043731222770559991,-0.31,-0.2957908643814961),(0.060190864381496088,-0.31,-0.27933122277055999),(0.070758604812359432,-0.31,-0.25859086438149609),(0.074400000000000008,0.31,-0.23559999999999998),(0.070758604812359432,0.31,-0.21260913561850389),(0.060190864381496095,0.31,-0.19186877722943996),(0.043731222770560005,0.31,-0.17540913561850388),(0.022990864381496091,0.31,-0.16484139518764054),(4.5556860928281542E-18,0.31,-0.16119999999999995),(-0.022990864381496084,0.31,-0.16484139518764054),(-0.043731222770559998,0.31,-0.17540913561850388),(-0.060190864381496088,0.31,-0.19186877722943996),(-0.070758604812359432,0.31,-0.21260913561850386),(-0.074400000000000008,0.31,-0.23559999999999998),(-0.070758604812359446,0.31,-0.25859086438149603),(-0.060190864381496102,0.31,-0.27933122277055999),(-0.043731222770560012,0.31,-0.29579086438149604),(-0.022990864381496102,0.31,-0.30635860481235944),(-1.3667058278484462E-17,0.31,-0.31),(0.022990864381496078,0.31,-0.30635860481235944),(0.043731222770559991,0.31,-0.2957908643814961),(0.060190864381496088,0.31,-0.27933122277055999),(0.070758604812359432,0.31,-0.25859086438149609)),$);
#40=IFCINDEXEDPOLYGONALFACE((20,19,18,17,16,15,14,13,12,11,10,9,8,7,6,5,4,3,2,1));
#41=IFCINDEXEDPOLYGONALFACE((21,22,23,24,25,26,27,28,29,30,31,32,33,34,35,36,37,38,39,40));
#42=IFCINDEXEDPOLYGONALFACE((1,2,22,21));
#43=IFCINDEXEDPOLYGONALFACE((2,3,23,22));
#44=IFCINDEXEDPOLYGONALFACE((3,4,24,23));
#45=IFCINDEXEDPOLYGONALFACE((4,5,25,24));
#46=IFCINDEXEDPOLYGONALFACE((5,6,26,25));
#47=IFCINDEXEDPOLYGONALFACE((6,7,27,26));
#48=IFCINDEXEDPOLYGONALFACE((7,8,28,27));
#49=IFCINDEXEDPOLYGONALFACE((8,9,29,28));
#50=IFCINDEXEDPOLYGONALFACE((9,10,30,29));
#51=IFCINDEXEDPOLYGONALFACE((10,11,31,30));
#52=IFCINDEXEDPOLYGONALFACE((11,12,32,31));
#53=IFCINDEXEDPOLYGONALFACE((12,13,33,32));
#54=IFCINDEXEDPOLYGONALFACE((13,14,34,33));
#55=IFCINDEXEDPOLYGONALFACE((14,15,35,34));
#56=IFCINDEXEDPOLYGONALFACE((15,16,36,35));
#57=IFCINDEXEDPOLYGONALFACE((16,17,37,36));
#58=IFCINDEXEDPOLYGONALFACE((17,18,38,37));
#59=IFCINDEXEDPOLYGONALFACE((18,19,39,38));
#60=IFCINDEXEDPOLYGONALFACE((19,20,40,39));
#61=IFCINDEXEDPOLYGONALFACE((20,1,21,40));
#62=IFCINDEXEDPOLYGONALFACE((60,59,58,57,56,55,54,53,52,51,50,49,48,47,46,45,44,43,42,41));
#63=IFCINDEXEDPOLYGONALFACE((61,62,63,64,65,66,67,68,69,70,71,72,73,74,75,76,77,78,79,80));
#64=IFCINDEXEDPOLYGONALFACE((41,42,62,61));
#65=IFCINDEXEDPOLYGONALFACE((42,43,63,62));
#66=IFCINDEXEDPOLYGONALFACE((43,44,64,63));
#67=IFCINDEXEDPOLYGONALFACE((44,45,65,64));
#68=IFCINDEXEDPOLYGONALFACE((45,46,66,65));
#69=IFCINDEXEDPOLYGONALFACE((46,47,67,66));
#70=IFCINDEXEDPOLYGONALFACE((47,48,68,67));
#71=IFCINDEXEDPOLYGONALFACE((48,49,69,68));
#72=IFCINDEXEDPOLYGONALFACE((49,50,70,69));
#73=IFCINDEXEDPOLYGONALFACE((50,51,71,70));
#74=IFCINDEXEDPOLYGONALFACE((51,52,72,71));
#75=IFCINDEXEDPOLYGONALFACE((52,53,73,72));
#76=IFCINDEXEDPOLYGONALFACE((53,54,74,73));
#77=IFCINDEXEDPOLYGONALFACE((54,55,75,74));
#78=IFCINDEXEDPOLYGONALFACE((55,56,76,75));
#79=IFCINDEXEDPOLYGONALFACE((56,57,77,76));
#80=IFCINDEXEDPOLYGONALFACE((57,58,78,77));
#81=IFCINDEXEDPOLYGONALFACE((58,59,79,78));
#82=IFCINDEXEDPOLYGONALFACE((59,60,80,79));
#83=IFCINDEXEDPOLYGONALFACE((60,41,61,80));
#84=IFCPOLYGONALFACESET(#39,$,(#40,#41,#42,#43,#44,#45,#46,#47,#48,#49,#50,#51,#52,#53,#54,#55,#56,#57,#58,#59,#60,#61,#62,#63,#64,#65,#66,#67,#68,#69,#70,#71,#72,#73,#74,#75,#76,#77,#78,#79,#80,#81,#82,#83),$);
#85=IFCSHAPEREPRESENTATION(#13,'Body','Tessellation',(#84));
#86=IFCPRODUCTDEFINITIONSHAPE($,$,(#85));
#87=IFCRELCONTAINEDINSPATIALSTRUCTURE('1IelhpZRzM5QrJzwrkmcaS',$,$,$,(#28),#3);
#88=IFCCARTESIANPOINT((0.,0.,0.));
#89=IFCAXIS2PLACEMENT3D(#88,$,$);
#90=IFCLOCALPLACEMENT($,#89);
ENDSEC;
END-ISO-10303-21;
