ISO-10303-21;
HEADER;
FILE_DESCRIPTION(('ViewDefinition [CoordinationView]'),'2;1');
FILE_NAME('LM3-ART-P041.ifc','2026-08-30T00:00:00+00:00',('OpenSourceRail'),('OpenSourceRail'),'IfcOpenShell 0.8.5','OpenSourceRail deterministic LM3 product-library exporter','design-reference / not for construction');
FILE_SCHEMA(('IFC4X3_ADD2'));
ENDSEC;
DATA;
#1=IFCPROJECT('2xrozAnibHXAPnztNkQHRF',$,'LM3-ART-P041 \X2\2014\X0\ train-to-train jumper blanking, transition harness, isolation label, and dust-cover kit','Design-reference geometry and assembly hierarchy only; supplier freeze, released drawings/tolerances, calculations, qualified processes and first-article tests remain mandatory.',$,$,$,(#12),#7);
#2=IFCSITE('0388QR2v9OdQr1bQH0ui$S',$,'LM3 product library',$,$,#18,$,$,.ELEMENT.,$,$,$,$,$);
#3=IFCBUILDING('34iS2guXvVW8RdbxFjmGM9',$,'LM3 assembly inspection fixture',$,$,#21,$,$,.ELEMENT.,$,$,$);
#4=IFCSIUNIT(*,.LENGTHUNIT.,$,.METRE.);
#5=IFCSIUNIT(*,.AREAUNIT.,$,.SQUARE_METRE.);
#6=IFCSIUNIT(*,.VOLUMEUNIT.,$,.CUBIC_METRE.);
#7=IFCUNITASSIGNMENT((#6,#4,#5));
#8=IFCCARTESIANPOINT((0.,0.,0.));
#9=IFCDIRECTION((0.,0.,1.));
#10=IFCDIRECTION((1.,0.,0.));
#11=IFCAXIS2PLACEMENT3D(#8,#9,#10);
#12=IFCGEOMETRICREPRESENTATIONCONTEXT($,'Model',3,1.0000000000000001E-05,#11,$);
#13=IFCGEOMETRICREPRESENTATIONSUBCONTEXT('Body','Model',*,*,*,*,#12,$,.MODEL_VIEW.,$);
#14=IFCRELAGGREGATES('1GbYyh3OLRPQh73vIa3Jci',$,$,$,#1,(#2));
#15=IFCRELAGGREGATES('3LrLnK5qTRSPmSbz68ey_w',$,$,$,#2,(#3));
#16=IFCCARTESIANPOINT((0.,0.,0.));
#17=IFCAXIS2PLACEMENT3D(#16,$,$);
#18=IFCLOCALPLACEMENT($,#17);
#19=IFCCARTESIANPOINT((0.,0.,0.));
#20=IFCAXIS2PLACEMENT3D(#19,$,$);
#21=IFCLOCALPLACEMENT($,#20);
#22=IFCPROPERTYSINGLEVALUE('Status',$,IFCTEXT('design-reference-not-released'),$);
#23=IFCPROPERTYSINGLEVALUE('ReleaseBoundary',$,IFCTEXT('Design-reference geometry and assembly hierarchy only; supplier freeze, released drawings/tolerances, calculations, qualified processes and first-article tests remain mandatory.'),$);
#24=IFCPROPERTYSINGLEVALUE('Manifest',$,IFCTEXT('design/component-catalogue/catalog/buildable-trainset/buildable-trainset-manifest.json'),$);
#25=IFCPROPERTYSINGLEVALUE('ManifestSha256',$,IFCTEXT('7654747909805305ce2018109b5b649c4817a8f8c44a3ec8f2e8a6f74d48243e'),$);
#26=IFCPROPERTYSET('09B5NjmlfO9AeyKljFSGDp',$,'OSR_ProductLibrary',$,(#22,#23,#24,#25));
#27=IFCRELDEFINESBYPROPERTIES('1Wcq4Ec99Ijv3vd2XQWQh8',$,$,$,(#1),#26);
#28=IFCCABLESEGMENT('0ah1d3061QUxRiNgwApoF6',$,'train-to-train jumper blanking, transition harness, isolation label, and dust-cover kit','Pre-terminated service transition and blanking hardware for open-end train-to-train gangway joints and protected unused end connectors.',$,#76,#72,'LM3-ART-P041',$);
#29=IFCPROPERTYSINGLEVALUE('OSRId',$,IFCTEXT('LM3-ART-P041'),$);
#30=IFCPROPERTYSINGLEVALUE('Parent',$,IFCTEXT('LM3-TTART-SA850'),$);
#31=IFCPROPERTYSINGLEVALUE('Route',$,IFCTEXT('SOURCE'),$);
#32=IFCPROPERTYSINGLEVALUE('Maturity',$,IFCTEXT('buildable-after-supplier-freeze'),$);
#33=IFCPROPERTYSINGLEVALUE('QuantityPerTrainset',$,IFCINTEGER(0),$);
#34=IFCPROPERTYSINGLEVALUE('Unit',$,IFCTEXT('joint kit'),$);
#35=IFCPROPERTYSINGLEVALUE('GeometryStatus',$,IFCTEXT('design-reference-not-released'),$);
#36=IFCPROPERTYSINGLEVALUE('GeometryLevel',$,IFCTEXT('coordination-envelope'),$);
#37=IFCPROPERTYSET('0PMrPDc1TPw8YIcsj738pM',$,'OSR_ProductDefinition',$,(#29,#30,#31,#32,#33,#34,#35,#36));
#38=IFCRELDEFINESBYPROPERTIES('0YkRTWna5IKxiAFR0g3ouv',$,$,$,(#28),#37);
#39=IFCCARTESIANPOINTLIST3D(((-0.59999999999999998,-0.3145,-0.031199999999999999),(-0.59999999999999998,-0.3145,0.031199999999999999),(-0.59999999999999998,-0.22950000000000001,-0.031199999999999999),(-0.59999999999999998,-0.22950000000000001,0.031199999999999999),(0.59999999999999998,-0.3145,-0.031199999999999999),(0.59999999999999998,-0.3145,0.031199999999999999),(0.59999999999999998,-0.22950000000000001,-0.031199999999999999),(0.59999999999999998,-0.22950000000000001,0.031199999999999999),(-0.59999999999999998,0.22950000000000001,-0.031199999999999999),(-0.59999999999999998,0.22950000000000001,0.031199999999999999),(-0.59999999999999998,0.3145,-0.031199999999999999),(-0.59999999999999998,0.3145,0.031199999999999999),(0.59999999999999998,0.22950000000000001,-0.031199999999999999),(0.59999999999999998,0.22950000000000001,0.031199999999999999),(0.59999999999999998,0.3145,-0.031199999999999999),(0.59999999999999998,0.3145,0.031199999999999999),(-0.435,-0.34000000000000002,-0.039),(-0.435,-0.34000000000000002,0.039),(-0.435,0.34000000000000002,-0.039),(-0.435,0.34000000000000002,0.039),(-0.40500000000000003,-0.34000000000000002,-0.039),(-0.40500000000000003,-0.34000000000000002,0.039),(-0.40500000000000003,0.34000000000000002,-0.039),(-0.40500000000000003,0.34000000000000002,0.039),(-0.014999999999999999,-0.34000000000000002,-0.039),(-0.014999999999999999,-0.34000000000000002,0.039),(-0.014999999999999999,0.34000000000000002,-0.039),(-0.014999999999999999,0.34000000000000002,0.039),(0.014999999999999999,-0.34000000000000002,-0.039),(0.014999999999999999,-0.34000000000000002,0.039),(0.014999999999999999,0.34000000000000002,-0.039),(0.014999999999999999,0.34000000000000002,0.039),(0.40500000000000003,-0.34000000000000002,-0.039),(0.40500000000000003,-0.34000000000000002,0.039),(0.40500000000000003,0.34000000000000002,-0.039),(0.40500000000000003,0.34000000000000002,0.039),(0.435,-0.34000000000000002,-0.039),(0.435,-0.34000000000000002,0.039),(0.435,0.34000000000000002,-0.039),(0.435,0.34000000000000002,0.039)),$);
#40=IFCINDEXEDPOLYGONALFACE((1,2,4,3));
#41=IFCINDEXEDPOLYGONALFACE((5,7,8,6));
#42=IFCINDEXEDPOLYGONALFACE((1,5,6,2));
#43=IFCINDEXEDPOLYGONALFACE((3,4,8,7));
#44=IFCINDEXEDPOLYGONALFACE((1,3,7,5));
#45=IFCINDEXEDPOLYGONALFACE((2,6,8,4));
#46=IFCINDEXEDPOLYGONALFACE((9,10,12,11));
#47=IFCINDEXEDPOLYGONALFACE((13,15,16,14));
#48=IFCINDEXEDPOLYGONALFACE((9,13,14,10));
#49=IFCINDEXEDPOLYGONALFACE((11,12,16,15));
#50=IFCINDEXEDPOLYGONALFACE((9,11,15,13));
#51=IFCINDEXEDPOLYGONALFACE((10,14,16,12));
#52=IFCINDEXEDPOLYGONALFACE((17,18,20,19));
#53=IFCINDEXEDPOLYGONALFACE((21,23,24,22));
#54=IFCINDEXEDPOLYGONALFACE((17,21,22,18));
#55=IFCINDEXEDPOLYGONALFACE((19,20,24,23));
#56=IFCINDEXEDPOLYGONALFACE((17,19,23,21));
#57=IFCINDEXEDPOLYGONALFACE((18,22,24,20));
#58=IFCINDEXEDPOLYGONALFACE((25,26,28,27));
#59=IFCINDEXEDPOLYGONALFACE((29,31,32,30));
#60=IFCINDEXEDPOLYGONALFACE((25,29,30,26));
#61=IFCINDEXEDPOLYGONALFACE((27,28,32,31));
#62=IFCINDEXEDPOLYGONALFACE((25,27,31,29));
#63=IFCINDEXEDPOLYGONALFACE((26,30,32,28));
#64=IFCINDEXEDPOLYGONALFACE((33,34,36,35));
#65=IFCINDEXEDPOLYGONALFACE((37,39,40,38));
#66=IFCINDEXEDPOLYGONALFACE((33,37,38,34));
#67=IFCINDEXEDPOLYGONALFACE((35,36,40,39));
#68=IFCINDEXEDPOLYGONALFACE((33,35,39,37));
#69=IFCINDEXEDPOLYGONALFACE((34,38,40,36));
#70=IFCPOLYGONALFACESET(#39,$,(#40,#41,#42,#43,#44,#45,#46,#47,#48,#49,#50,#51,#52,#53,#54,#55,#56,#57,#58,#59,#60,#61,#62,#63,#64,#65,#66,#67,#68,#69),$);
#71=IFCSHAPEREPRESENTATION(#13,'Body','Tessellation',(#70));
#72=IFCPRODUCTDEFINITIONSHAPE($,$,(#71));
#73=IFCRELCONTAINEDINSPATIALSTRUCTURE('132ErHevTMKQMULWEfLTsg',$,$,$,(#28),#3);
#74=IFCCARTESIANPOINT((0.,0.,0.));
#75=IFCAXIS2PLACEMENT3D(#74,$,$);
#76=IFCLOCALPLACEMENT($,#75);
ENDSEC;
END-ISO-10303-21;
