ISO-10303-21;
HEADER;
FILE_DESCRIPTION(('ViewDefinition [CoordinationView]'),'2;1');
FILE_NAME('LM3-BOG-P049.ifc','2026-08-30T00:00:00+00:00',('OpenSourceRail'),('OpenSourceRail'),'IfcOpenShell 0.8.5','OpenSourceRail deterministic LM3 product-library exporter','design-reference / not for construction');
FILE_SCHEMA(('IFC4X3_ADD2'));
ENDSEC;
DATA;
#1=IFCPROJECT('1GZS04CNzK1gWfRSkT5POr',$,'LM3-BOG-P049 \X2\2014\X0\ trailer-bogie brake calipers, parking actuators, pads and wheel-slide hardware','Design-reference geometry and assembly hierarchy only; supplier freeze, released drawings/tolerances, calculations, qualified processes and first-article tests remain mandatory.',$,$,$,(#12),#7);
#2=IFCSITE('0kxGOUGk1QMvk$dLPWktGo',$,'LM3 product library',$,$,#18,$,$,.ELEMENT.,$,$,$,$,$);
#3=IFCBUILDING('0hchQCYCfP1fdQlarOA9mu',$,'LM3 assembly inspection fixture',$,$,#21,$,$,.ELEMENT.,$,$,$);
#4=IFCSIUNIT(*,.LENGTHUNIT.,$,.METRE.);
#5=IFCSIUNIT(*,.AREAUNIT.,$,.SQUARE_METRE.);
#6=IFCSIUNIT(*,.VOLUMEUNIT.,$,.CUBIC_METRE.);
#7=IFCUNITASSIGNMENT((#6,#4,#5));
#8=IFCCARTESIANPOINT((0.,0.,0.));
#9=IFCDIRECTION((0.,0.,1.));
#10=IFCDIRECTION((1.,0.,0.));
#11=IFCAXIS2PLACEMENT3D(#8,#9,#10);
#12=IFCGEOMETRICREPRESENTATIONCONTEXT($,'Model',3,1.0000000000000001E-05,#11,$);
#13=IFCGEOMETRICREPRESENTATIONSUBCONTEXT('Body','Model',*,*,*,*,#12,$,.MODEL_VIEW.,$);
#14=IFCRELAGGREGATES('0PldMZXTnSsv8lfzUmcqvU',$,$,$,#1,(#2));
#15=IFCRELAGGREGATES('2AVJxta7fHDvLp4JMIcgrt',$,$,$,#2,(#3));
#16=IFCCARTESIANPOINT((0.,0.,0.));
#17=IFCAXIS2PLACEMENT3D(#16,$,$);
#18=IFCLOCALPLACEMENT($,#17);
#19=IFCCARTESIANPOINT((0.,0.,0.));
#20=IFCAXIS2PLACEMENT3D(#19,$,$);
#21=IFCLOCALPLACEMENT($,#20);
#22=IFCPROPERTYSINGLEVALUE('Status',$,IFCTEXT('design-reference-not-released'),$);
#23=IFCPROPERTYSINGLEVALUE('ReleaseBoundary',$,IFCTEXT('Design-reference geometry and assembly hierarchy only; supplier freeze, released drawings/tolerances, calculations, qualified processes and first-article tests remain mandatory.'),$);
#24=IFCPROPERTYSINGLEVALUE('Manifest',$,IFCTEXT('design/component-catalogue/catalog/buildable-trainset/buildable-trainset-manifest.json'),$);
#25=IFCPROPERTYSINGLEVALUE('ManifestSha256',$,IFCTEXT('1179a30e147f3569fc4ccc8ce621621cec7985f620d2c788f8da93eec9ed7c05'),$);
#26=IFCPROPERTYSET('0I52l_5PbNeuaf$8vSidse',$,'OSR_ProductLibrary',$,(#22,#23,#24,#25));
#27=IFCRELDEFINESBYPROPERTIES('1X4TBtHcLR5QbxX2N4Rmwu',$,$,$,(#1),#26);
#28=IFCDISCRETEACCESSORY('1NtuC_0Q9UYfpOgUOSKXZi',$,'trailer-bogie brake calipers, parking actuators, pads and wheel-slide hardware','A rail brake supplier matches caliper, actuator, disc and pad friction pair to the released stopping, thermal and parking-brake cases.',$,#112,#108,'LM3-BOG-P049',$);
#29=IFCPROPERTYSINGLEVALUE('OSRId',$,IFCTEXT('LM3-BOG-P049'),$);
#30=IFCPROPERTYSINGLEVALUE('Parent',$,IFCTEXT('LM3-BOG-SA621'),$);
#31=IFCPROPERTYSINGLEVALUE('Route',$,IFCTEXT('BID'),$);
#32=IFCPROPERTYSINGLEVALUE('Maturity',$,IFCTEXT('buildable-after-supplier-freeze'),$);
#33=IFCPROPERTYSINGLEVALUE('QuantityPerTrainset',$,IFCINTEGER(3),$);
#34=IFCPROPERTYSINGLEVALUE('Unit',$,IFCTEXT('bogie set'),$);
#35=IFCPROPERTYSINGLEVALUE('GeometryStatus',$,IFCTEXT('design-reference-not-released'),$);
#36=IFCPROPERTYSINGLEVALUE('GeometryLevel',$,IFCTEXT('coordination-envelope'),$);
#37=IFCPROPERTYSET('2SFokx4VbMWx$Ux28bodtS',$,'OSR_ProductDefinition',$,(#29,#30,#31,#32,#33,#34,#35,#36));
#38=IFCRELDEFINESBYPROPERTIES('2ptxA5AA9H3f3jqY7mE5NS',$,$,$,(#28),#37);
#39=IFCCARTESIANPOINTLIST3D(((0.10920000000000001,-0.46200000000000002,0.),(0.10385537157943077,-0.46200000000000002,0.03374465578574426),(0.088344655785744269,-0.46200000000000002,0.064186149550338065),(0.064186149550338065,-0.46200000000000002,0.088344655785744269),(0.033744655785744267,-0.46200000000000002,0.10385537157943077),(6.6865715233445485E-18,-0.46200000000000002,0.10920000000000001),(-0.033744655785744253,-0.46200000000000002,0.10385537157943078),(-0.064186149550338051,-0.46200000000000002,0.088344655785744269),(-0.088344655785744255,-0.46200000000000002,0.064186149550338079),(-0.10385537157943077,-0.46200000000000002,0.033744655785744267),(-0.10920000000000001,-0.46200000000000002,1.3373143046689097E-17),(-0.1038553715794308,-0.46200000000000002,-0.033744655785744204),(-0.088344655785744283,-0.46200000000000002,-0.064186149550338051),(-0.064186149550338079,-0.46200000000000002,-0.088344655785744255),(-0.033744655785744274,-0.46200000000000002,-0.10385537157943077),(-2.0059714570033645E-17,-0.46200000000000002,-0.10920000000000001),(0.033744655785744239,-0.46200000000000002,-0.10385537157943078),(0.064186149550338051,-0.46200000000000002,-0.088344655785744283),(0.088344655785744255,-0.46200000000000002,-0.064186149550338092),(0.10385537157943077,-0.46200000000000002,-0.033744655785744281),(0.10920000000000001,0.46200000000000002,0.),(0.10385537157943077,0.46200000000000002,0.03374465578574426),(0.088344655785744269,0.46200000000000002,0.064186149550338065),(0.064186149550338065,0.46200000000000002,0.088344655785744269),(0.033744655785744267,0.46200000000000002,0.10385537157943077),(6.6865715233445485E-18,0.46200000000000002,0.10920000000000001),(-0.033744655785744253,0.46200000000000002,0.10385537157943078),(-0.064186149550338051,0.46200000000000002,0.088344655785744269),(-0.088344655785744255,0.46200000000000002,0.064186149550338079),(-0.10385537157943077,0.46200000000000002,0.033744655785744267),(-0.10920000000000001,0.46200000000000002,1.3373143046689097E-17),(-0.1038553715794308,0.46200000000000002,-0.033744655785744204),(-0.088344655785744283,0.46200000000000002,-0.064186149550338051),(-0.064186149550338079,0.46200000000000002,-0.088344655785744255),(-0.033744655785744274,0.46200000000000002,-0.10385537157943077),(-2.0059714570033645E-17,0.46200000000000002,-0.10920000000000001),(0.033744655785744239,0.46200000000000002,-0.10385537157943078),(0.064186149550338051,0.46200000000000002,-0.088344655785744283),(0.088344655785744255,0.46200000000000002,-0.064186149550338092),(0.10385537157943077,0.46200000000000002,-0.033744655785744281),(0.083199999999999996,-1.1000000000000001,0.),(0.079127902155756769,-1.1000000000000001,0.025710213931995622),(0.067310213931995627,-1.1000000000000001,0.048903732990733764),(0.048903732990733764,-1.1000000000000001,0.067310213931995627),(0.025710213931995626,-1.1000000000000001,0.079127902155756769),(5.094530684452989E-18,-1.1000000000000001,0.083199999999999996),(-0.025710213931995619,-1.1000000000000001,0.079127902155756782),(-0.04890373299073375,-1.1000000000000001,0.067310213931995627),(-0.067310213931995613,-1.1000000000000001,0.048903732990733771),(-0.079127902155756769,-1.1000000000000001,0.025710213931995633),(-0.083199999999999996,-1.1000000000000001,1.0189061368905978E-17),(-0.079127902155756782,-1.1000000000000001,-0.025710213931995581),(-0.067310213931995627,-1.1000000000000001,-0.04890373299073375),(-0.048903732990733771,-1.1000000000000001,-0.067310213931995613),(-0.025710213931995636,-1.1000000000000001,-0.079127902155756769),(-1.5283592053358966E-17,-1.1000000000000001,-0.083199999999999996),(0.025710213931995608,-1.1000000000000001,-0.079127902155756782),(0.048903732990733743,-1.1000000000000001,-0.067310213931995627),(0.067310213931995613,-1.1000000000000001,-0.048903732990733778),(0.079127902155756769,-1.1000000000000001,-0.02571021393199564),(0.083199999999999996,1.1000000000000001,0.),(0.079127902155756769,1.1000000000000001,0.025710213931995622),(0.067310213931995627,1.1000000000000001,0.048903732990733764),(0.048903732990733764,1.1000000000000001,0.067310213931995627),(0.025710213931995626,1.1000000000000001,0.079127902155756769),(5.094530684452989E-18,1.1000000000000001,0.083199999999999996),(-0.025710213931995619,1.1000000000000001,0.079127902155756782),(-0.04890373299073375,1.1000000000000001,0.067310213931995627),(-0.067310213931995613,1.1000000000000001,0.048903732990733771),(-0.079127902155756769,1.1000000000000001,0.025710213931995633),(-0.083199999999999996,1.1000000000000001,1.0189061368905978E-17),(-0.079127902155756782,1.1000000000000001,-0.025710213931995581),(-0.067310213931995627,1.1000000000000001,-0.04890373299073375),(-0.048903732990733771,1.1000000000000001,-0.067310213931995613),(-0.025710213931995636,1.1000000000000001,-0.079127902155756769),(-1.5283592053358966E-17,1.1000000000000001,-0.083199999999999996),(0.025710213931995608,1.1000000000000001,-0.079127902155756782),(0.048903732990733743,1.1000000000000001,-0.067310213931995627),(0.067310213931995613,1.1000000000000001,-0.048903732990733778),(0.079127902155756769,1.1000000000000001,-0.02571021393199564),(0.189,-0.24199999999999999,0.),(0.17974968157978402,-0.24199999999999999,0.058404211936865055),(0.15290421193686507,-0.24199999999999999,0.11109141268327742),(0.11109141268327742,-0.24199999999999999,0.15290421193686507),(0.058404211936865069,-0.24199999999999999,0.17974968157978402),(1.1572912251942488E-17,-0.24199999999999999,0.189),(-0.058404211936865048,-0.24199999999999999,0.17974968157978405),(-0.11109141268327741,-0.24199999999999999,0.15290421193686507),(-0.15290421193686504,-0.24199999999999999,0.11109141268327745),(-0.17974968157978402,-0.24199999999999999,0.058404211936865076),(-0.189,-0.24199999999999999,2.3145824503884977E-17),(-0.17974968157978405,-0.24199999999999999,-0.058404211936864965),(-0.1529042119368651,-0.24199999999999999,-0.11109141268327741),(-0.11109141268327745,-0.24199999999999999,-0.15290421193686504),(-0.05840421193686509,-0.24199999999999999,-0.17974968157978402),(-3.4718736755827461E-17,-0.24199999999999999,-0.189),(0.058404211936865028,-0.24199999999999999,-0.17974968157978405),(0.11109141268327738,-0.24199999999999999,-0.1529042119368651),(0.15290421193686504,-0.24199999999999999,-0.11109141268327746),(0.17974968157978402,-0.24199999999999999,-0.058404211936865097),(0.189,0.24199999999999999,0.),(0.17974968157978402,0.24199999999999999,0.058404211936865055),(0.15290421193686507,0.24199999999999999,0.11109141268327742),(0.11109141268327742,0.24199999999999999,0.15290421193686507),(0.058404211936865069,0.24199999999999999,0.17974968157978402),(1.1572912251942488E-17,0.24199999999999999,0.189),(-0.058404211936865048,0.24199999999999999,0.17974968157978405),(-0.11109141268327741,0.24199999999999999,0.15290421193686507),(-0.15290421193686504,0.24199999999999999,0.11109141268327745),(-0.17974968157978402,0.24199999999999999,0.058404211936865076),(-0.189,0.24199999999999999,2.3145824503884977E-17),(-0.17974968157978405,0.24199999999999999,-0.058404211936864965),(-0.1529042119368651,0.24199999999999999,-0.11109141268327741),(-0.11109141268327745,0.24199999999999999,-0.15290421193686504),(-0.05840421193686509,0.24199999999999999,-0.17974968157978402),(-3.4718736755827461E-17,0.24199999999999999,-0.189),(0.058404211936865028,0.24199999999999999,-0.17974968157978405),(0.11109141268327738,0.24199999999999999,-0.1529042119368651),(0.15290421193686504,0.24199999999999999,-0.11109141268327746),(0.17974968157978402,0.24199999999999999,-0.058404211936865097)),$);
#40=IFCINDEXEDPOLYGONALFACE((20,19,18,17,16,15,14,13,12,11,10,9,8,7,6,5,4,3,2,1));
#41=IFCINDEXEDPOLYGONALFACE((21,22,23,24,25,26,27,28,29,30,31,32,33,34,35,36,37,38,39,40));
#42=IFCINDEXEDPOLYGONALFACE((1,2,22,21));
#43=IFCINDEXEDPOLYGONALFACE((2,3,23,22));
#44=IFCINDEXEDPOLYGONALFACE((3,4,24,23));
#45=IFCINDEXEDPOLYGONALFACE((4,5,25,24));
#46=IFCINDEXEDPOLYGONALFACE((5,6,26,25));
#47=IFCINDEXEDPOLYGONALFACE((6,7,27,26));
#48=IFCINDEXEDPOLYGONALFACE((7,8,28,27));
#49=IFCINDEXEDPOLYGONALFACE((8,9,29,28));
#50=IFCINDEXEDPOLYGONALFACE((9,10,30,29));
#51=IFCINDEXEDPOLYGONALFACE((10,11,31,30));
#52=IFCINDEXEDPOLYGONALFACE((11,12,32,31));
#53=IFCINDEXEDPOLYGONALFACE((12,13,33,32));
#54=IFCINDEXEDPOLYGONALFACE((13,14,34,33));
#55=IFCINDEXEDPOLYGONALFACE((14,15,35,34));
#56=IFCINDEXEDPOLYGONALFACE((15,16,36,35));
#57=IFCINDEXEDPOLYGONALFACE((16,17,37,36));
#58=IFCINDEXEDPOLYGONALFACE((17,18,38,37));
#59=IFCINDEXEDPOLYGONALFACE((18,19,39,38));
#60=IFCINDEXEDPOLYGONALFACE((19,20,40,39));
#61=IFCINDEXEDPOLYGONALFACE((20,1,21,40));
#62=IFCINDEXEDPOLYGONALFACE((60,59,58,57,56,55,54,53,52,51,50,49,48,47,46,45,44,43,42,41));
#63=IFCINDEXEDPOLYGONALFACE((61,62,63,64,65,66,67,68,69,70,71,72,73,74,75,76,77,78,79,80));
#64=IFCINDEXEDPOLYGONALFACE((41,42,62,61));
#65=IFCINDEXEDPOLYGONALFACE((42,43,63,62));
#66=IFCINDEXEDPOLYGONALFACE((43,44,64,63));
#67=IFCINDEXEDPOLYGONALFACE((44,45,65,64));
#68=IFCINDEXEDPOLYGONALFACE((45,46,66,65));
#69=IFCINDEXEDPOLYGONALFACE((46,47,67,66));
#70=IFCINDEXEDPOLYGONALFACE((47,48,68,67));
#71=IFCINDEXEDPOLYGONALFACE((48,49,69,68));
#72=IFCINDEXEDPOLYGONALFACE((49,50,70,69));
#73=IFCINDEXEDPOLYGONALFACE((50,51,71,70));
#74=IFCINDEXEDPOLYGONALFACE((51,52,72,71));
#75=IFCINDEXEDPOLYGONALFACE((52,53,73,72));
#76=IFCINDEXEDPOLYGONALFACE((53,54,74,73));
#77=IFCINDEXEDPOLYGONALFACE((54,55,75,74));
#78=IFCINDEXEDPOLYGONALFACE((55,56,76,75));
#79=IFCINDEXEDPOLYGONALFACE((56,57,77,76));
#80=IFCINDEXEDPOLYGONALFACE((57,58,78,77));
#81=IFCINDEXEDPOLYGONALFACE((58,59,79,78));
#82=IFCINDEXEDPOLYGONALFACE((59,60,80,79));
#83=IFCINDEXEDPOLYGONALFACE((60,41,61,80));
#84=IFCINDEXEDPOLYGONALFACE((100,99,98,97,96,95,94,93,92,91,90,89,88,87,86,85,84,83,82,81));
#85=IFCINDEXEDPOLYGONALFACE((101,102,103,104,105,106,107,108,109,110,111,112,113,114,115,116,117,118,119,120));
#86=IFCINDEXEDPOLYGONALFACE((81,82,102,101));
#87=IFCINDEXEDPOLYGONALFACE((82,83,103,102));
#88=IFCINDEXEDPOLYGONALFACE((83,84,104,103));
#89=IFCINDEXEDPOLYGONALFACE((84,85,105,104));
#90=IFCINDEXEDPOLYGONALFACE((85,86,106,105));
#91=IFCINDEXEDPOLYGONALFACE((86,87,107,106));
#92=IFCINDEXEDPOLYGONALFACE((87,88,108,107));
#93=IFCINDEXEDPOLYGONALFACE((88,89,109,108));
#94=IFCINDEXEDPOLYGONALFACE((89,90,110,109));
#95=IFCINDEXEDPOLYGONALFACE((90,91,111,110));
#96=IFCINDEXEDPOLYGONALFACE((91,92,112,111));
#97=IFCINDEXEDPOLYGONALFACE((92,93,113,112));
#98=IFCINDEXEDPOLYGONALFACE((93,94,114,113));
#99=IFCINDEXEDPOLYGONALFACE((94,95,115,114));
#100=IFCINDEXEDPOLYGONALFACE((95,96,116,115));
#101=IFCINDEXEDPOLYGONALFACE((96,97,117,116));
#102=IFCINDEXEDPOLYGONALFACE((97,98,118,117));
#103=IFCINDEXEDPOLYGONALFACE((98,99,119,118));
#104=IFCINDEXEDPOLYGONALFACE((99,100,120,119));
#105=IFCINDEXEDPOLYGONALFACE((100,81,101,120));
#106=IFCPOLYGONALFACESET(#39,$,(#40,#41,#42,#43,#44,#45,#46,#47,#48,#49,#50,#51,#52,#53,#54,#55,#56,#57,#58,#59,#60,#61,#62,#63,#64,#65,#66,#67,#68,#69,#70,#71,#72,#73,#74,#75,#76,#77,#78,#79,#80,#81,#82,#83,#84,#85,#86,#87,#88,#89,#90,#91,#92,#93,#94,#95,#96,#97,#98,#99,#100,#101,#102,#103,#104,#105),$);
#107=IFCSHAPEREPRESENTATION(#13,'Body','Tessellation',(#106));
#108=IFCPRODUCTDEFINITIONSHAPE($,$,(#107));
#109=IFCRELCONTAINEDINSPATIALSTRUCTURE('2V$t0MsUfP3AwTXDVI1E83',$,$,$,(#28),#3);
#110=IFCCARTESIANPOINT((0.,0.,0.));
#111=IFCAXIS2PLACEMENT3D(#110,$,$);
#112=IFCLOCALPLACEMENT($,#111);
ENDSEC;
END-ISO-10303-21;
