ISO-10303-21;
HEADER;
FILE_DESCRIPTION(('ViewDefinition [CoordinationView]'),'2;1');
FILE_NAME('LM3-ART-P040.ifc','2026-08-30T00:00:00+00:00',('OpenSourceRail'),('OpenSourceRail'),'IfcOpenShell 0.8.5','OpenSourceRail deterministic LM3 product-library exporter','design-reference / not for construction');
FILE_SCHEMA(('IFC4X3_ADD2'));
ENDSEC;
DATA;
#1=IFCPROJECT('3$0Q94tJPIKgQNI8HXv31h',$,'LM3-ART-P040 \X2\2014\X0\ train-to-train open-end articulation, gangway, drawbar, turntable, and service-jumper cassette','Design-reference geometry and assembly hierarchy only; supplier freeze, released drawings/tolerances, calculations, qualified processes and first-article tests remain mandatory.',$,$,$,(#12),#7);
#2=IFCSITE('09nfTWlFPMnAe5b5nQsXvr',$,'LM3 product library',$,$,#18,$,$,.ELEMENT.,$,$,$,$,$);
#3=IFCBUILDING('39KOmnmnTQzPVIM_UPWx4Q',$,'LM3 assembly inspection fixture',$,$,#21,$,$,.ELEMENT.,$,$,$);
#4=IFCSIUNIT(*,.LENGTHUNIT.,$,.METRE.);
#5=IFCSIUNIT(*,.AREAUNIT.,$,.SQUARE_METRE.);
#6=IFCSIUNIT(*,.VOLUMEUNIT.,$,.CUBIC_METRE.);
#7=IFCUNITASSIGNMENT((#6,#4,#5));
#8=IFCCARTESIANPOINT((0.,0.,0.));
#9=IFCDIRECTION((0.,0.,1.));
#10=IFCDIRECTION((1.,0.,0.));
#11=IFCAXIS2PLACEMENT3D(#8,#9,#10);
#12=IFCGEOMETRICREPRESENTATIONCONTEXT($,'Model',3,1.0000000000000001E-05,#11,$);
#13=IFCGEOMETRICREPRESENTATIONSUBCONTEXT('Body','Model',*,*,*,*,#12,$,.MODEL_VIEW.,$);
#14=IFCRELAGGREGATES('1E8klt4nrH5uVZ2o7g8Sb6',$,$,$,#1,(#2));
#15=IFCRELAGGREGATES('0PhsMpWpHQPRO541tMaJTh',$,$,$,#2,(#3));
#16=IFCCARTESIANPOINT((0.,0.,0.));
#17=IFCAXIS2PLACEMENT3D(#16,$,$);
#18=IFCLOCALPLACEMENT($,#17);
#19=IFCCARTESIANPOINT((0.,0.,0.));
#20=IFCAXIS2PLACEMENT3D(#19,$,$);
#21=IFCLOCALPLACEMENT($,#20);
#22=IFCPROPERTYSINGLEVALUE('Status',$,IFCTEXT('design-reference-not-released'),$);
#23=IFCPROPERTYSINGLEVALUE('ReleaseBoundary',$,IFCTEXT('Design-reference geometry and assembly hierarchy only; supplier freeze, released drawings/tolerances, calculations, qualified processes and first-article tests remain mandatory.'),$);
#24=IFCPROPERTYSINGLEVALUE('Manifest',$,IFCTEXT('design/component-catalogue/catalog/buildable-trainset/buildable-trainset-manifest.json'),$);
#25=IFCPROPERTYSINGLEVALUE('ManifestSha256',$,IFCTEXT('1179a30e147f3569fc4ccc8ce621621cec7985f620d2c788f8da93eec9ed7c05'),$);
#26=IFCPROPERTYSET('1zdWrsWzvHiQUph32FlbI3',$,'OSR_ProductLibrary',$,(#22,#23,#24,#25));
#27=IFCRELDEFINESBYPROPERTIES('2xP9w7sdLU9RRLGlawov8Z',$,$,$,(#1),#26);
#28=IFCBUILDINGELEMENTPROXY('1BAgSAcVTGJfSGhEEyjZt1',$,'train-to-train open-end articulation, gangway, drawbar, turntable, and service-jumper cassette','Supplier open-end gangway/articulation cassette for joining two otherwise complete train modules through their common end-interface frames.',$,#214,#210,'LM3-ART-P040',$);
#29=IFCPROPERTYSINGLEVALUE('OSRId',$,IFCTEXT('LM3-ART-P040'),$);
#30=IFCPROPERTYSINGLEVALUE('Parent',$,IFCTEXT('LM3-TTART-SA850'),$);
#31=IFCPROPERTYSINGLEVALUE('Route',$,IFCTEXT('BID'),$);
#32=IFCPROPERTYSINGLEVALUE('Maturity',$,IFCTEXT('buildable-after-supplier-freeze'),$);
#33=IFCPROPERTYSINGLEVALUE('QuantityPerTrainset',$,IFCINTEGER(0),$);
#34=IFCPROPERTYSINGLEVALUE('Unit',$,IFCTEXT('joint kit'),$);
#35=IFCPROPERTYSINGLEVALUE('GeometryStatus',$,IFCTEXT('design-reference-not-released'),$);
#36=IFCPROPERTYSINGLEVALUE('GeometryLevel',$,IFCTEXT('coordination-envelope'),$);
#37=IFCPROPERTYSET('0x8RSczrrRAw3_0M0ubWEy',$,'OSR_ProductDefinition',$,(#29,#30,#31,#32,#33,#34,#35,#36));
#38=IFCRELDEFINESBYPROPERTIES('1J3dfxnUHUxhMaCD4Q58rP',$,$,$,(#28),#37);
#39=IFCCARTESIANPOINTLIST3D(((-0.6617063492063493,-1.125,-1.2),(-0.6617063492063493,-1.125,1.2),(-0.6617063492063493,-0.98499999999999999,-1.2),(-0.6617063492063493,-0.98499999999999999,1.2),(-0.5811507936507937,-1.125,-1.2),(-0.5811507936507937,-1.125,1.2),(-0.5811507936507937,-0.98499999999999999,-1.2),(-0.5811507936507937,-0.98499999999999999,1.2),(-0.66170634920634919,0.98499999999999999,-1.2),(-0.66170634920634919,0.98499999999999999,1.2),(-0.66170634920634919,1.125,-1.2),(-0.66170634920634919,1.125,1.2),(-0.58115079365079358,0.98499999999999999,-1.2),(-0.58115079365079358,0.98499999999999999,1.2),(-0.58115079365079358,1.125,-1.2),(-0.58115079365079358,1.125,1.2),(-0.6617063492063493,-0.98499999999999999,1.0600000000000001),(-0.6617063492063493,-0.98499999999999999,1.2),(-0.6617063492063493,0.98499999999999999,1.0600000000000001),(-0.6617063492063493,0.98499999999999999,1.2),(-0.58115079365079358,-0.98499999999999999,1.0600000000000001),(-0.58115079365079358,-0.98499999999999999,1.2),(-0.58115079365079358,0.98499999999999999,1.0600000000000001),(-0.58115079365079358,0.98499999999999999,1.2),(-0.6617063492063493,-0.98499999999999999,-1.2),(-0.6617063492063493,-0.98499999999999999,-1.0600000000000001),(-0.6617063492063493,0.98499999999999999,-1.2),(-0.6617063492063493,0.98499999999999999,-1.0600000000000001),(-0.58115079365079358,-0.98499999999999999,-1.2),(-0.58115079365079358,-0.98499999999999999,-1.0600000000000001),(-0.58115079365079358,0.98499999999999999,-1.2),(-0.58115079365079358,0.98499999999999999,-1.0600000000000001),(-0.45456349206349211,-1.125,-1.2),(-0.45456349206349211,-1.125,1.2),(-0.45456349206349211,-0.98499999999999999,-1.2),(-0.45456349206349211,-0.98499999999999999,1.2),(-0.37400793650793657,-1.125,-1.2),(-0.37400793650793657,-1.125,1.2),(-0.37400793650793657,-0.98499999999999999,-1.2),(-0.37400793650793657,-0.98499999999999999,1.2),(-0.454563492063492,0.98499999999999999,-1.2),(-0.454563492063492,0.98499999999999999,1.2),(-0.454563492063492,1.125,-1.2),(-0.454563492063492,1.125,1.2),(-0.37400793650793646,0.98499999999999999,-1.2),(-0.37400793650793646,0.98499999999999999,1.2),(-0.37400793650793646,1.125,-1.2),(-0.37400793650793646,1.125,1.2),(-0.45456349206349211,-0.98499999999999999,1.0600000000000001),(-0.45456349206349211,-0.98499999999999999,1.2),(-0.45456349206349211,0.98499999999999999,1.0600000000000001),(-0.45456349206349211,0.98499999999999999,1.2),(-0.37400793650793646,-0.98499999999999999,1.0600000000000001),(-0.37400793650793646,-0.98499999999999999,1.2),(-0.37400793650793646,0.98499999999999999,1.0600000000000001),(-0.37400793650793646,0.98499999999999999,1.2),(-0.45456349206349211,-0.98499999999999999,-1.2),(-0.45456349206349211,-0.98499999999999999,-1.0600000000000001),(-0.45456349206349211,0.98499999999999999,-1.2),(-0.45456349206349211,0.98499999999999999,-1.0600000000000001),(-0.37400793650793646,-0.98499999999999999,-1.2),(-0.37400793650793646,-0.98499999999999999,-1.0600000000000001),(-0.37400793650793646,0.98499999999999999,-1.2),(-0.37400793650793646,0.98499999999999999,-1.0600000000000001),(-0.24742063492063496,-1.125,-1.2),(-0.24742063492063496,-1.125,1.2),(-0.24742063492063496,-0.98499999999999999,-1.2),(-0.24742063492063496,-0.98499999999999999,1.2),(-0.16686507936507938,-1.125,-1.2),(-0.16686507936507938,-1.125,1.2),(-0.16686507936507938,-0.98499999999999999,-1.2),(-0.16686507936507938,-0.98499999999999999,1.2),(-0.24742063492063482,0.98499999999999999,-1.2),(-0.24742063492063482,0.98499999999999999,1.2),(-0.24742063492063482,1.125,-1.2),(-0.24742063492063482,1.125,1.2),(-0.16686507936507924,0.98499999999999999,-1.2),(-0.16686507936507924,0.98499999999999999,1.2),(-0.16686507936507924,1.125,-1.2),(-0.16686507936507924,1.125,1.2),(-0.24742063492063493,-0.98499999999999999,1.0600000000000001),(-0.24742063492063493,-0.98499999999999999,1.2),(-0.24742063492063493,0.98499999999999999,1.0600000000000001),(-0.24742063492063493,0.98499999999999999,1.2),(-0.16686507936507927,-0.98499999999999999,1.0600000000000001),(-0.16686507936507927,-0.98499999999999999,1.2),(-0.16686507936507927,0.98499999999999999,1.0600000000000001),(-0.16686507936507927,0.98499999999999999,1.2),(-0.24742063492063493,-0.98499999999999999,-1.2),(-0.24742063492063493,-0.98499999999999999,-1.0600000000000001),(-0.24742063492063493,0.98499999999999999,-1.2),(-0.24742063492063493,0.98499999999999999,-1.0600000000000001),(-0.16686507936507927,-0.98499999999999999,-1.2),(-0.16686507936507927,-0.98499999999999999,-1.0600000000000001),(-0.16686507936507927,0.98499999999999999,-1.2),(-0.16686507936507927,0.98499999999999999,-1.0600000000000001),(-0.04027777777777785,-1.125,-1.2),(-0.04027777777777785,-1.125,1.2),(-0.04027777777777785,-0.98499999999999999,-1.2),(-0.04027777777777785,-0.98499999999999999,1.2),(0.040277777777777725,-1.125,-1.2),(0.040277777777777725,-1.125,1.2),(0.040277777777777725,-0.98499999999999999,-1.2),(0.040277777777777725,-0.98499999999999999,1.2),(-0.040277777777777725,0.98499999999999999,-1.2),(-0.040277777777777725,0.98499999999999999,1.2),(-0.040277777777777725,1.125,-1.2),(-0.040277777777777725,1.125,1.2),(0.04027777777777785,0.98499999999999999,-1.2),(0.04027777777777785,0.98499999999999999,1.2),(0.04027777777777785,1.125,-1.2),(0.04027777777777785,1.125,1.2),(-0.040277777777777836,-0.98499999999999999,1.0600000000000001),(-0.040277777777777836,-0.98499999999999999,1.2),(-0.040277777777777836,0.98499999999999999,1.0600000000000001),(-0.040277777777777836,0.98499999999999999,1.2),(0.040277777777777836,-0.98499999999999999,1.0600000000000001),(0.040277777777777836,-0.98499999999999999,1.2),(0.040277777777777836,0.98499999999999999,1.0600000000000001),(0.040277777777777836,0.98499999999999999,1.2),(-0.040277777777777836,-0.98499999999999999,-1.2),(-0.040277777777777836,-0.98499999999999999,-1.0600000000000001),(-0.040277777777777836,0.98499999999999999,-1.2),(-0.040277777777777836,0.98499999999999999,-1.0600000000000001),(0.040277777777777836,-0.98499999999999999,-1.2),(0.040277777777777836,-0.98499999999999999,-1.0600000000000001),(0.040277777777777836,0.98499999999999999,-1.2),(0.040277777777777836,0.98499999999999999,-1.0600000000000001),(0.16686507936507924,-1.125,-1.2),(0.16686507936507924,-1.125,1.2),(0.16686507936507924,-0.98499999999999999,-1.2),(0.16686507936507924,-0.98499999999999999,1.2),(0.24742063492063482,-1.125,-1.2),(0.24742063492063482,-1.125,1.2),(0.24742063492063482,-0.98499999999999999,-1.2),(0.24742063492063482,-0.98499999999999999,1.2),(0.16686507936507938,0.98499999999999999,-1.2),(0.16686507936507938,0.98499999999999999,1.2),(0.16686507936507938,1.125,-1.2),(0.16686507936507938,1.125,1.2),(0.24742063492063496,0.98499999999999999,-1.2),(0.24742063492063496,0.98499999999999999,1.2),(0.24742063492063496,1.125,-1.2),(0.24742063492063496,1.125,1.2),(0.16686507936507927,-0.98499999999999999,1.0600000000000001),(0.16686507936507927,-0.98499999999999999,1.2),(0.16686507936507927,0.98499999999999999,1.0600000000000001),(0.16686507936507927,0.98499999999999999,1.2),(0.24742063492063493,-0.98499999999999999,1.0600000000000001),(0.24742063492063493,-0.98499999999999999,1.2),(0.24742063492063493,0.98499999999999999,1.0600000000000001),(0.24742063492063493,0.98499999999999999,1.2),(0.16686507936507927,-0.98499999999999999,-1.2),(0.16686507936507927,-0.98499999999999999,-1.0600000000000001),(0.16686507936507927,0.98499999999999999,-1.2),(0.16686507936507927,0.98499999999999999,-1.0600000000000001),(0.24742063492063493,-0.98499999999999999,-1.2),(0.24742063492063493,-0.98499999999999999,-1.0600000000000001),(0.24742063492063493,0.98499999999999999,-1.2),(0.24742063492063493,0.98499999999999999,-1.0600000000000001),(0.3740079365079364,-1.125,-1.2),(0.3740079365079364,-1.125,1.2),(0.3740079365079364,-0.98499999999999999,-1.2),(0.3740079365079364,-0.98499999999999999,1.2),(0.45456349206349195,-1.125,-1.2),(0.45456349206349195,-1.125,1.2),(0.45456349206349195,-0.98499999999999999,-1.2),(0.45456349206349195,-0.98499999999999999,1.2),(0.37400793650793651,0.98499999999999999,-1.2),(0.37400793650793651,0.98499999999999999,1.2),(0.37400793650793651,1.125,-1.2),(0.37400793650793651,1.125,1.2),(0.45456349206349206,0.98499999999999999,-1.2),(0.45456349206349206,0.98499999999999999,1.2),(0.45456349206349206,1.125,-1.2),(0.45456349206349206,1.125,1.2),(0.3740079365079364,-0.98499999999999999,1.0600000000000001),(0.3740079365079364,-0.98499999999999999,1.2),(0.3740079365079364,0.98499999999999999,1.0600000000000001),(0.3740079365079364,0.98499999999999999,1.2),(0.45456349206349206,-0.98499999999999999,1.0600000000000001),(0.45456349206349206,-0.98499999999999999,1.2),(0.45456349206349206,0.98499999999999999,1.0600000000000001),(0.45456349206349206,0.98499999999999999,1.2),(0.3740079365079364,-0.98499999999999999,-1.2),(0.3740079365079364,-0.98499999999999999,-1.0600000000000001),(0.3740079365079364,0.98499999999999999,-1.2),(0.3740079365079364,0.98499999999999999,-1.0600000000000001),(0.45456349206349206,-0.98499999999999999,-1.2),(0.45456349206349206,-0.98499999999999999,-1.0600000000000001),(0.45456349206349206,0.98499999999999999,-1.2),(0.45456349206349206,0.98499999999999999,-1.0600000000000001),(0.58115079365079347,-1.125,-1.2),(0.58115079365079347,-1.125,1.2),(0.58115079365079347,-0.98499999999999999,-1.2),(0.58115079365079347,-0.98499999999999999,1.2),(0.66170634920634908,-1.125,-1.2),(0.66170634920634908,-1.125,1.2),(0.66170634920634908,-0.98499999999999999,-1.2),(0.66170634920634908,-0.98499999999999999,1.2),(0.58115079365079358,0.98499999999999999,-1.2),(0.58115079365079358,0.98499999999999999,1.2),(0.58115079365079358,1.125,-1.2),(0.58115079365079358,1.125,1.2),(0.66170634920634919,0.98499999999999999,-1.2),(0.66170634920634919,0.98499999999999999,1.2),(0.66170634920634919,1.125,-1.2),(0.66170634920634919,1.125,1.2),(0.58115079365079347,-0.98499999999999999,1.0600000000000001),(0.58115079365079347,-0.98499999999999999,1.2),(0.58115079365079347,0.98499999999999999,1.0600000000000001),(0.58115079365079347,0.98499999999999999,1.2),(0.66170634920634919,-0.98499999999999999,1.0600000000000001),(0.66170634920634919,-0.98499999999999999,1.2),(0.66170634920634919,0.98499999999999999,1.0600000000000001),(0.66170634920634919,0.98499999999999999,1.2),(0.58115079365079347,-0.98499999999999999,-1.2),(0.58115079365079347,-0.98499999999999999,-1.0600000000000001),(0.58115079365079347,0.98499999999999999,-1.2),(0.58115079365079347,0.98499999999999999,-1.0600000000000001),(0.66170634920634919,-0.98499999999999999,-1.2),(0.66170634920634919,-0.98499999999999999,-1.0600000000000001),(0.66170634920634919,0.98499999999999999,-1.2),(0.66170634920634919,0.98499999999999999,-1.0600000000000001)),$);
#40=IFCINDEXEDPOLYGONALFACE((1,2,4,3));
#41=IFCINDEXEDPOLYGONALFACE((5,7,8,6));
#42=IFCINDEXEDPOLYGONALFACE((1,5,6,2));
#43=IFCINDEXEDPOLYGONALFACE((3,4,8,7));
#44=IFCINDEXEDPOLYGONALFACE((1,3,7,5));
#45=IFCINDEXEDPOLYGONALFACE((2,6,8,4));
#46=IFCINDEXEDPOLYGONALFACE((9,10,12,11));
#47=IFCINDEXEDPOLYGONALFACE((13,15,16,14));
#48=IFCINDEXEDPOLYGONALFACE((9,13,14,10));
#49=IFCINDEXEDPOLYGONALFACE((11,12,16,15));
#50=IFCINDEXEDPOLYGONALFACE((9,11,15,13));
#51=IFCINDEXEDPOLYGONALFACE((10,14,16,12));
#52=IFCINDEXEDPOLYGONALFACE((17,18,20,19));
#53=IFCINDEXEDPOLYGONALFACE((21,23,24,22));
#54=IFCINDEXEDPOLYGONALFACE((17,21,22,18));
#55=IFCINDEXEDPOLYGONALFACE((19,20,24,23));
#56=IFCINDEXEDPOLYGONALFACE((17,19,23,21));
#57=IFCINDEXEDPOLYGONALFACE((18,22,24,20));
#58=IFCINDEXEDPOLYGONALFACE((25,26,28,27));
#59=IFCINDEXEDPOLYGONALFACE((29,31,32,30));
#60=IFCINDEXEDPOLYGONALFACE((25,29,30,26));
#61=IFCINDEXEDPOLYGONALFACE((27,28,32,31));
#62=IFCINDEXEDPOLYGONALFACE((25,27,31,29));
#63=IFCINDEXEDPOLYGONALFACE((26,30,32,28));
#64=IFCINDEXEDPOLYGONALFACE((33,34,36,35));
#65=IFCINDEXEDPOLYGONALFACE((37,39,40,38));
#66=IFCINDEXEDPOLYGONALFACE((33,37,38,34));
#67=IFCINDEXEDPOLYGONALFACE((35,36,40,39));
#68=IFCINDEXEDPOLYGONALFACE((33,35,39,37));
#69=IFCINDEXEDPOLYGONALFACE((34,38,40,36));
#70=IFCINDEXEDPOLYGONALFACE((41,42,44,43));
#71=IFCINDEXEDPOLYGONALFACE((45,47,48,46));
#72=IFCINDEXEDPOLYGONALFACE((41,45,46,42));
#73=IFCINDEXEDPOLYGONALFACE((43,44,48,47));
#74=IFCINDEXEDPOLYGONALFACE((41,43,47,45));
#75=IFCINDEXEDPOLYGONALFACE((42,46,48,44));
#76=IFCINDEXEDPOLYGONALFACE((49,50,52,51));
#77=IFCINDEXEDPOLYGONALFACE((53,55,56,54));
#78=IFCINDEXEDPOLYGONALFACE((49,53,54,50));
#79=IFCINDEXEDPOLYGONALFACE((51,52,56,55));
#80=IFCINDEXEDPOLYGONALFACE((49,51,55,53));
#81=IFCINDEXEDPOLYGONALFACE((50,54,56,52));
#82=IFCINDEXEDPOLYGONALFACE((57,58,60,59));
#83=IFCINDEXEDPOLYGONALFACE((61,63,64,62));
#84=IFCINDEXEDPOLYGONALFACE((57,61,62,58));
#85=IFCINDEXEDPOLYGONALFACE((59,60,64,63));
#86=IFCINDEXEDPOLYGONALFACE((57,59,63,61));
#87=IFCINDEXEDPOLYGONALFACE((58,62,64,60));
#88=IFCINDEXEDPOLYGONALFACE((65,66,68,67));
#89=IFCINDEXEDPOLYGONALFACE((69,71,72,70));
#90=IFCINDEXEDPOLYGONALFACE((65,69,70,66));
#91=IFCINDEXEDPOLYGONALFACE((67,68,72,71));
#92=IFCINDEXEDPOLYGONALFACE((65,67,71,69));
#93=IFCINDEXEDPOLYGONALFACE((66,70,72,68));
#94=IFCINDEXEDPOLYGONALFACE((73,74,76,75));
#95=IFCINDEXEDPOLYGONALFACE((77,79,80,78));
#96=IFCINDEXEDPOLYGONALFACE((73,77,78,74));
#97=IFCINDEXEDPOLYGONALFACE((75,76,80,79));
#98=IFCINDEXEDPOLYGONALFACE((73,75,79,77));
#99=IFCINDEXEDPOLYGONALFACE((74,78,80,76));
#100=IFCINDEXEDPOLYGONALFACE((81,82,84,83));
#101=IFCINDEXEDPOLYGONALFACE((85,87,88,86));
#102=IFCINDEXEDPOLYGONALFACE((81,85,86,82));
#103=IFCINDEXEDPOLYGONALFACE((83,84,88,87));
#104=IFCINDEXEDPOLYGONALFACE((81,83,87,85));
#105=IFCINDEXEDPOLYGONALFACE((82,86,88,84));
#106=IFCINDEXEDPOLYGONALFACE((89,90,92,91));
#107=IFCINDEXEDPOLYGONALFACE((93,95,96,94));
#108=IFCINDEXEDPOLYGONALFACE((89,93,94,90));
#109=IFCINDEXEDPOLYGONALFACE((91,92,96,95));
#110=IFCINDEXEDPOLYGONALFACE((89,91,95,93));
#111=IFCINDEXEDPOLYGONALFACE((90,94,96,92));
#112=IFCINDEXEDPOLYGONALFACE((97,98,100,99));
#113=IFCINDEXEDPOLYGONALFACE((101,103,104,102));
#114=IFCINDEXEDPOLYGONALFACE((97,101,102,98));
#115=IFCINDEXEDPOLYGONALFACE((99,100,104,103));
#116=IFCINDEXEDPOLYGONALFACE((97,99,103,101));
#117=IFCINDEXEDPOLYGONALFACE((98,102,104,100));
#118=IFCINDEXEDPOLYGONALFACE((105,106,108,107));
#119=IFCINDEXEDPOLYGONALFACE((109,111,112,110));
#120=IFCINDEXEDPOLYGONALFACE((105,109,110,106));
#121=IFCINDEXEDPOLYGONALFACE((107,108,112,111));
#122=IFCINDEXEDPOLYGONALFACE((105,107,111,109));
#123=IFCINDEXEDPOLYGONALFACE((106,110,112,108));
#124=IFCINDEXEDPOLYGONALFACE((113,114,116,115));
#125=IFCINDEXEDPOLYGONALFACE((117,119,120,118));
#126=IFCINDEXEDPOLYGONALFACE((113,117,118,114));
#127=IFCINDEXEDPOLYGONALFACE((115,116,120,119));
#128=IFCINDEXEDPOLYGONALFACE((113,115,119,117));
#129=IFCINDEXEDPOLYGONALFACE((114,118,120,116));
#130=IFCINDEXEDPOLYGONALFACE((121,122,124,123));
#131=IFCINDEXEDPOLYGONALFACE((125,127,128,126));
#132=IFCINDEXEDPOLYGONALFACE((121,125,126,122));
#133=IFCINDEXEDPOLYGONALFACE((123,124,128,127));
#134=IFCINDEXEDPOLYGONALFACE((121,123,127,125));
#135=IFCINDEXEDPOLYGONALFACE((122,126,128,124));
#136=IFCINDEXEDPOLYGONALFACE((129,130,132,131));
#137=IFCINDEXEDPOLYGONALFACE((133,135,136,134));
#138=IFCINDEXEDPOLYGONALFACE((129,133,134,130));
#139=IFCINDEXEDPOLYGONALFACE((131,132,136,135));
#140=IFCINDEXEDPOLYGONALFACE((129,131,135,133));
#141=IFCINDEXEDPOLYGONALFACE((130,134,136,132));
#142=IFCINDEXEDPOLYGONALFACE((137,138,140,139));
#143=IFCINDEXEDPOLYGONALFACE((141,143,144,142));
#144=IFCINDEXEDPOLYGONALFACE((137,141,142,138));
#145=IFCINDEXEDPOLYGONALFACE((139,140,144,143));
#146=IFCINDEXEDPOLYGONALFACE((137,139,143,141));
#147=IFCINDEXEDPOLYGONALFACE((138,142,144,140));
#148=IFCINDEXEDPOLYGONALFACE((145,146,148,147));
#149=IFCINDEXEDPOLYGONALFACE((149,151,152,150));
#150=IFCINDEXEDPOLYGONALFACE((145,149,150,146));
#151=IFCINDEXEDPOLYGONALFACE((147,148,152,151));
#152=IFCINDEXEDPOLYGONALFACE((145,147,151,149));
#153=IFCINDEXEDPOLYGONALFACE((146,150,152,148));
#154=IFCINDEXEDPOLYGONALFACE((153,154,156,155));
#155=IFCINDEXEDPOLYGONALFACE((157,159,160,158));
#156=IFCINDEXEDPOLYGONALFACE((153,157,158,154));
#157=IFCINDEXEDPOLYGONALFACE((155,156,160,159));
#158=IFCINDEXEDPOLYGONALFACE((153,155,159,157));
#159=IFCINDEXEDPOLYGONALFACE((154,158,160,156));
#160=IFCINDEXEDPOLYGONALFACE((161,162,164,163));
#161=IFCINDEXEDPOLYGONALFACE((165,167,168,166));
#162=IFCINDEXEDPOLYGONALFACE((161,165,166,162));
#163=IFCINDEXEDPOLYGONALFACE((163,164,168,167));
#164=IFCINDEXEDPOLYGONALFACE((161,163,167,165));
#165=IFCINDEXEDPOLYGONALFACE((162,166,168,164));
#166=IFCINDEXEDPOLYGONALFACE((169,170,172,171));
#167=IFCINDEXEDPOLYGONALFACE((173,175,176,174));
#168=IFCINDEXEDPOLYGONALFACE((169,173,174,170));
#169=IFCINDEXEDPOLYGONALFACE((171,172,176,175));
#170=IFCINDEXEDPOLYGONALFACE((169,171,175,173));
#171=IFCINDEXEDPOLYGONALFACE((170,174,176,172));
#172=IFCINDEXEDPOLYGONALFACE((177,178,180,179));
#173=IFCINDEXEDPOLYGONALFACE((181,183,184,182));
#174=IFCINDEXEDPOLYGONALFACE((177,181,182,178));
#175=IFCINDEXEDPOLYGONALFACE((179,180,184,183));
#176=IFCINDEXEDPOLYGONALFACE((177,179,183,181));
#177=IFCINDEXEDPOLYGONALFACE((178,182,184,180));
#178=IFCINDEXEDPOLYGONALFACE((185,186,188,187));
#179=IFCINDEXEDPOLYGONALFACE((189,191,192,190));
#180=IFCINDEXEDPOLYGONALFACE((185,189,190,186));
#181=IFCINDEXEDPOLYGONALFACE((187,188,192,191));
#182=IFCINDEXEDPOLYGONALFACE((185,187,191,189));
#183=IFCINDEXEDPOLYGONALFACE((186,190,192,188));
#184=IFCINDEXEDPOLYGONALFACE((193,194,196,195));
#185=IFCINDEXEDPOLYGONALFACE((197,199,200,198));
#186=IFCINDEXEDPOLYGONALFACE((193,197,198,194));
#187=IFCINDEXEDPOLYGONALFACE((195,196,200,199));
#188=IFCINDEXEDPOLYGONALFACE((193,195,199,197));
#189=IFCINDEXEDPOLYGONALFACE((194,198,200,196));
#190=IFCINDEXEDPOLYGONALFACE((201,202,204,203));
#191=IFCINDEXEDPOLYGONALFACE((205,207,208,206));
#192=IFCINDEXEDPOLYGONALFACE((201,205,206,202));
#193=IFCINDEXEDPOLYGONALFACE((203,204,208,207));
#194=IFCINDEXEDPOLYGONALFACE((201,203,207,205));
#195=IFCINDEXEDPOLYGONALFACE((202,206,208,204));
#196=IFCINDEXEDPOLYGONALFACE((209,210,212,211));
#197=IFCINDEXEDPOLYGONALFACE((213,215,216,214));
#198=IFCINDEXEDPOLYGONALFACE((209,213,214,210));
#199=IFCINDEXEDPOLYGONALFACE((211,212,216,215));
#200=IFCINDEXEDPOLYGONALFACE((209,211,215,213));
#201=IFCINDEXEDPOLYGONALFACE((210,214,216,212));
#202=IFCINDEXEDPOLYGONALFACE((217,218,220,219));
#203=IFCINDEXEDPOLYGONALFACE((221,223,224,222));
#204=IFCINDEXEDPOLYGONALFACE((217,221,222,218));
#205=IFCINDEXEDPOLYGONALFACE((219,220,224,223));
#206=IFCINDEXEDPOLYGONALFACE((217,219,223,221));
#207=IFCINDEXEDPOLYGONALFACE((218,222,224,220));
#208=IFCPOLYGONALFACESET(#39,$,(#40,#41,#42,#43,#44,#45,#46,#47,#48,#49,#50,#51,#52,#53,#54,#55,#56,#57,#58,#59,#60,#61,#62,#63,#64,#65,#66,#67,#68,#69,#70,#71,#72,#73,#74,#75,#76,#77,#78,#79,#80,#81,#82,#83,#84,#85,#86,#87,#88,#89,#90,#91,#92,#93,#94,#95,#96,#97,#98,#99,#100,#101,#102,#103,#104,#105,#106,#107,#108,#109,#110,#111,#112,#113,#114,#115,#116,#117,#118,#119,#120,#121,#122,#123,#124,#125,#126,#127,#128,#129,#130,#131,#132,#133,#134,#135,#136,#137,#138,#139,#140,#141,#142,#143,#144,#145,#146,#147,#148,#149,#150,#151,#152,#153,#154,#155,#156,#157,#158,#159,#160,#161,#162,#163,#164,#165,#166,#167,#168,#169,#170,#171,#172,#173,#174,#175,#176,#177,#178,#179,#180,#181,#182,#183,#184,#185,#186,#187,#188,#189,#190,#191,#192,#193,#194,#195,#196,#197,#198,#199,#200,#201,#202,#203,#204,#205,#206,#207),$);
#209=IFCSHAPEREPRESENTATION(#13,'Body','Tessellation',(#208));
#210=IFCPRODUCTDEFINITIONSHAPE($,$,(#209));
#211=IFCRELCONTAINEDINSPATIALSTRUCTURE('26bKzJj_vK2uGm6u7byqNS',$,$,$,(#28),#3);
#212=IFCCARTESIANPOINT((0.,0.,0.));
#213=IFCAXIS2PLACEMENT3D(#212,$,$);
#214=IFCLOCALPLACEMENT($,#213);
ENDSEC;
END-ISO-10303-21;
