ISO-10303-21;
HEADER;
FILE_DESCRIPTION(('ViewDefinition [CoordinationView]'),'2;1');
FILE_NAME('LM3-TRC-P010.ifc','2026-08-30T00:00:00+00:00',('OpenSourceRail'),('OpenSourceRail'),'IfcOpenShell 0.8.5','OpenSourceRail deterministic LM3 product-library exporter','design-reference / not for construction');
FILE_SCHEMA(('IFC4X3_ADD2'));
ENDSEC;
DATA;
#1=IFCPROJECT('2Abycnm4XJzPIvY77EuDeX',$,'LM3-TRC-P010 \X2\2014\X0\ motor-350kw-hm47-class axle traction motor','Design-reference geometry and assembly hierarchy only; supplier freeze, released drawings/tolerances, calculations, qualified processes and first-article tests remain mandatory.',$,$,$,(#12),#7);
#2=IFCSITE('0GZO0z9GjJwRKzWRzn166$',$,'LM3 product library',$,$,#18,$,$,.ELEMENT.,$,$,$,$,$);
#3=IFCBUILDING('0g9PvvEbzPDem6wSoSJ3bB',$,'LM3 assembly inspection fixture',$,$,#21,$,$,.ELEMENT.,$,$,$);
#4=IFCSIUNIT(*,.LENGTHUNIT.,$,.METRE.);
#5=IFCSIUNIT(*,.AREAUNIT.,$,.SQUARE_METRE.);
#6=IFCSIUNIT(*,.VOLUMEUNIT.,$,.CUBIC_METRE.);
#7=IFCUNITASSIGNMENT((#6,#4,#5));
#8=IFCCARTESIANPOINT((0.,0.,0.));
#9=IFCDIRECTION((0.,0.,1.));
#10=IFCDIRECTION((1.,0.,0.));
#11=IFCAXIS2PLACEMENT3D(#8,#9,#10);
#12=IFCGEOMETRICREPRESENTATIONCONTEXT($,'Model',3,1.0000000000000001E-05,#11,$);
#13=IFCGEOMETRICREPRESENTATIONSUBCONTEXT('Body','Model',*,*,*,*,#12,$,.MODEL_VIEW.,$);
#14=IFCRELAGGREGATES('3yhLtipjPGbgWtOSCX9oqZ',$,$,$,#1,(#2));
#15=IFCRELAGGREGATES('0Y2gELgPrIgRm6lLEO6o9h',$,$,$,#2,(#3));
#16=IFCCARTESIANPOINT((0.,0.,0.));
#17=IFCAXIS2PLACEMENT3D(#16,$,$);
#18=IFCLOCALPLACEMENT($,#17);
#19=IFCCARTESIANPOINT((0.,0.,0.));
#20=IFCAXIS2PLACEMENT3D(#19,$,$);
#21=IFCLOCALPLACEMENT($,#20);
#22=IFCPROPERTYSINGLEVALUE('Status',$,IFCTEXT('design-reference-not-released'),$);
#23=IFCPROPERTYSINGLEVALUE('ReleaseBoundary',$,IFCTEXT('Design-reference geometry and assembly hierarchy only; supplier freeze, released drawings/tolerances, calculations, qualified processes and first-article tests remain mandatory.'),$);
#24=IFCPROPERTYSINGLEVALUE('Manifest',$,IFCTEXT('design/component-catalogue/catalog/buildable-trainset/buildable-trainset-manifest.json'),$);
#25=IFCPROPERTYSINGLEVALUE('ManifestSha256',$,IFCTEXT('7654747909805305ce2018109b5b649c4817a8f8c44a3ec8f2e8a6f74d48243e'),$);
#26=IFCPROPERTYSET('2ysJvH4ffKBAW9ye5wbjve',$,'OSR_ProductLibrary',$,(#22,#23,#24,#25));
#27=IFCRELDEFINESBYPROPERTIES('2HB9RMAtzTFuRdUnY5eF9X',$,$,$,(#1),#26);
#28=IFCELECTRICMOTOR('0C3LfOu25LuB4ToA$dx8pW',$,'motor-350kw-hm47-class axle traction motor','Optimizer-selected 250 kW motor class; CAD baseline carries the promoted envelope.',$,#200,#196,'LM3-TRC-P010',$);
#29=IFCPROPERTYSINGLEVALUE('OSRId',$,IFCTEXT('LM3-TRC-P010'),$);
#30=IFCPROPERTYSINGLEVALUE('Parent',$,IFCTEXT('LM3-TRC-SA615'),$);
#31=IFCPROPERTYSINGLEVALUE('Route',$,IFCTEXT('BID'),$);
#32=IFCPROPERTYSINGLEVALUE('Maturity',$,IFCTEXT('buildable-after-supplier-freeze'),$);
#33=IFCPROPERTYSINGLEVALUE('QuantityPerTrainset',$,IFCINTEGER(6),$);
#34=IFCPROPERTYSINGLEVALUE('Unit',$,IFCTEXT('ea'),$);
#35=IFCPROPERTYSINGLEVALUE('GeometryStatus',$,IFCTEXT('design-reference-not-released'),$);
#36=IFCPROPERTYSINGLEVALUE('GeometryLevel',$,IFCTEXT('coordination-envelope'),$);
#37=IFCPROPERTYSET('0a2TfCagjTDh_ZLlNbwlWy',$,'OSR_ProductDefinition',$,(#29,#30,#31,#32,#33,#34,#35,#36));
#38=IFCRELDEFINESBYPROPERTIES('1EiaUzg65Uv9Oc$X_XyYwH',$,$,$,(#28),#37);
#39=IFCCARTESIANPOINTLIST3D(((0.3024,-0.25919999999999999,0.),(0.28759949052765443,-0.25919999999999999,0.0934467390989841),(0.2446467390989841,-0.25919999999999999,0.17774626029324389),(0.17774626029324389,-0.25919999999999999,0.2446467390989841),(0.093446739098984113,-0.25919999999999999,0.28759949052765443),(1.8516659603107981E-17,-0.25919999999999999,0.3024),(-0.093446739098984072,-0.25919999999999999,0.28759949052765449),(-0.17774626029324384,-0.25919999999999999,0.2446467390989841),(-0.24464673909898407,-0.25919999999999999,0.17774626029324392),(-0.28759949052765443,-0.25919999999999999,0.093446739098984127),(-0.3024,-0.25919999999999999,3.7033319206215963E-17),(-0.28759949052765449,-0.25919999999999999,-0.093446739098983947),(-0.24464673909898416,-0.25919999999999999,-0.17774626029324384),(-0.17774626029324392,-0.25919999999999999,-0.24464673909898407),(-0.093446739098984141,-0.25919999999999999,-0.28759949052765443),(-5.5549978809323944E-17,-0.25919999999999999,-0.3024),(0.093446739098984044,-0.25919999999999999,-0.28759949052765449),(0.17774626029324381,-0.25919999999999999,-0.24464673909898416),(0.24464673909898407,-0.25919999999999999,-0.17774626029324395),(0.28759949052765443,-0.25919999999999999,-0.093446739098984155),(0.3024,0.25919999999999999,0.),(0.28759949052765443,0.25919999999999999,0.0934467390989841),(0.2446467390989841,0.25919999999999999,0.17774626029324389),(0.17774626029324389,0.25919999999999999,0.2446467390989841),(0.093446739098984113,0.25919999999999999,0.28759949052765443),(1.8516659603107981E-17,0.25919999999999999,0.3024),(-0.093446739098984072,0.25919999999999999,0.28759949052765449),(-0.17774626029324384,0.25919999999999999,0.2446467390989841),(-0.24464673909898407,0.25919999999999999,0.17774626029324392),(-0.28759949052765443,0.25919999999999999,0.093446739098984127),(-0.3024,0.25919999999999999,3.7033319206215963E-17),(-0.28759949052765449,0.25919999999999999,-0.093446739098983947),(-0.24464673909898416,0.25919999999999999,-0.17774626029324384),(-0.17774626029324392,0.25919999999999999,-0.24464673909898407),(-0.093446739098984141,0.25919999999999999,-0.28759949052765443),(-5.5549978809323944E-17,0.25919999999999999,-0.3024),(0.093446739098984044,0.25919999999999999,-0.28759949052765449),(0.17774626029324381,0.25919999999999999,-0.24464673909898416),(0.24464673909898407,0.25919999999999999,-0.17774626029324395),(0.28759949052765443,0.25919999999999999,-0.093446739098984155),(0.086399999999999991,-0.35999999999999999,0.),(0.082171283007901261,-0.35999999999999999,0.026699068313995451),(0.069899068313995449,-0.35999999999999999,0.050784645798069676),(0.050784645798069676,-0.35999999999999999,0.069899068313995449),(0.026699068313995458,-0.35999999999999999,0.082171283007901261),(5.2904741723165652E-18,-0.35999999999999999,0.086399999999999991),(-0.026699068313995447,-0.35999999999999999,0.082171283007901261),(-0.050784645798069662,-0.35999999999999999,0.069899068313995449),(-0.069899068313995449,-0.35999999999999999,0.050784645798069683),(-0.082171283007901261,-0.35999999999999999,0.026699068313995461),(-0.086399999999999991,-0.35999999999999999,1.058094834463313E-17),(-0.082171283007901275,-0.35999999999999999,-0.026699068313995409),(-0.069899068313995463,-0.35999999999999999,-0.050784645798069662),(-0.050784645798069683,-0.35999999999999999,-0.069899068313995449),(-0.026699068313995468,-0.35999999999999999,-0.082171283007901261),(-1.5871422516949696E-17,-0.35999999999999999,-0.086399999999999991),(0.026699068313995437,-0.35999999999999999,-0.082171283007901261),(0.050784645798069655,-0.35999999999999999,-0.069899068313995463),(0.069899068313995449,-0.35999999999999999,-0.05078464579806969),(0.082171283007901261,-0.35999999999999999,-0.026699068313995471),(0.086399999999999991,0.35999999999999999,0.),(0.082171283007901261,0.35999999999999999,0.026699068313995451),(0.069899068313995449,0.35999999999999999,0.050784645798069676),(0.050784645798069676,0.35999999999999999,0.069899068313995449),(0.026699068313995458,0.35999999999999999,0.082171283007901261),(5.2904741723165652E-18,0.35999999999999999,0.086399999999999991),(-0.026699068313995447,0.35999999999999999,0.082171283007901261),(-0.050784645798069662,0.35999999999999999,0.069899068313995449),(-0.069899068313995449,0.35999999999999999,0.050784645798069683),(-0.082171283007901261,0.35999999999999999,0.026699068313995461),(-0.086399999999999991,0.35999999999999999,1.058094834463313E-17),(-0.082171283007901275,0.35999999999999999,-0.026699068313995409),(-0.069899068313995463,0.35999999999999999,-0.050784645798069662),(-0.050784645798069683,0.35999999999999999,-0.069899068313995449),(-0.026699068313995468,0.35999999999999999,-0.082171283007901261),(-1.5871422516949696E-17,0.35999999999999999,-0.086399999999999991),(0.026699068313995437,0.35999999999999999,-0.082171283007901261),(0.050784645798069655,0.35999999999999999,-0.069899068313995463),(0.069899068313995449,0.35999999999999999,-0.05078464579806969),(0.082171283007901261,0.35999999999999999,-0.026699068313995471),(0.089999999999999983,-0.1152,0.24480000000000002),(0.085595086466563802,-0.1152,0.27261152949374529),(0.072811529493745253,-0.1152,0.29770067270632261),(0.052900672706322573,-0.1152,0.31761152949374527),(0.027811529493745265,-0.1152,0.33039508646656379),(5.510910596163088E-18,-0.1152,0.33479999999999999),(-0.027811529493745255,-0.1152,0.33039508646656385),(-0.052900672706322566,-0.1152,0.31761152949374527),(-0.072811529493745253,-0.1152,0.29770067270632261),(-0.085595086466563802,-0.1152,0.27261152949374529),(-0.089999999999999983,-0.1152,0.24480000000000002),(-0.085595086466563816,-0.1152,0.2169884705062548),(-0.072811529493745267,-0.1152,0.19189932729367745),(-0.05290067270632258,-0.1152,0.17198847050625476),(-0.027811529493745275,-0.1152,0.15920491353343622),(-1.6532731788489263E-17,-0.1152,0.15480000000000005),(0.027811529493745244,-0.1152,0.15920491353343619),(0.052900672706322552,-0.1152,0.17198847050625476),(0.072811529493745253,-0.1152,0.19189932729367742),(0.085595086466563802,-0.1152,0.21698847050625475),(0.089999999999999983,0.1152,0.24480000000000002),(0.085595086466563802,0.1152,0.27261152949374529),(0.072811529493745253,0.1152,0.29770067270632261),(0.052900672706322573,0.1152,0.31761152949374527),(0.027811529493745265,0.1152,0.33039508646656379),(5.510910596163088E-18,0.1152,0.33479999999999999),(-0.027811529493745255,0.1152,0.33039508646656385),(-0.052900672706322566,0.1152,0.31761152949374527),(-0.072811529493745253,0.1152,0.29770067270632261),(-0.085595086466563802,0.1152,0.27261152949374529),(-0.089999999999999983,0.1152,0.24480000000000002),(-0.085595086466563816,0.1152,0.2169884705062548),(-0.072811529493745267,0.1152,0.19189932729367745),(-0.05290067270632258,0.1152,0.17198847050625476),(-0.027811529493745275,0.1152,0.15920491353343622),(-1.6532731788489263E-17,0.1152,0.15480000000000005),(0.027811529493745244,0.1152,0.15920491353343619),(0.052900672706322552,0.1152,0.17198847050625476),(0.072811529493745253,0.1152,0.19189932729367742),(0.085595086466563802,0.1152,0.21698847050625475),(-0.25080000000000002,-0.057599999999999998,-0.28800000000000003),(-0.25291435849604937,-0.057599999999999998,-0.27465046584300229),(-0.25905046584300229,-0.057599999999999998,-0.26260767710096522),(-0.26860767710096517,-0.057599999999999998,-0.25305046584300234),(-0.28065046584300224,-0.057599999999999998,-0.24691435849604942),(-0.29399999999999998,-0.057599999999999998,-0.24480000000000005),(-0.30734953415699773,-0.057599999999999998,-0.24691435849604942),(-0.3193923228990348,-0.057599999999999998,-0.25305046584300234),(-0.32894953415699768,-0.057599999999999998,-0.26260767710096522),(-0.33508564150395059,-0.057599999999999998,-0.27465046584300229),(-0.33719999999999994,-0.057599999999999998,-0.28800000000000003),(-0.33508564150395059,-0.057599999999999998,-0.30134953415699772),(-0.32894953415699768,-0.057599999999999998,-0.31339232289903485),(-0.3193923228990348,-0.057599999999999998,-0.32294953415699773),(-0.30734953415699773,-0.057599999999999998,-0.32908564150395064),(-0.29399999999999998,-0.057599999999999998,-0.33120000000000005),(-0.28065046584300224,-0.057599999999999998,-0.32908564150395064),(-0.26860767710096517,-0.057599999999999998,-0.32294953415699779),(-0.25905046584300229,-0.057599999999999998,-0.31339232289903485),(-0.25291435849604937,-0.057599999999999998,-0.30134953415699778),(-0.25080000000000002,0.057599999999999998,-0.28800000000000003),(-0.25291435849604937,0.057599999999999998,-0.27465046584300229),(-0.25905046584300229,0.057599999999999998,-0.26260767710096522),(-0.26860767710096517,0.057599999999999998,-0.25305046584300234),(-0.28065046584300224,0.057599999999999998,-0.24691435849604942),(-0.29399999999999998,0.057599999999999998,-0.24480000000000005),(-0.30734953415699773,0.057599999999999998,-0.24691435849604942),(-0.3193923228990348,0.057599999999999998,-0.25305046584300234),(-0.32894953415699768,0.057599999999999998,-0.26260767710096522),(-0.33508564150395059,0.057599999999999998,-0.27465046584300229),(-0.33719999999999994,0.057599999999999998,-0.28800000000000003),(-0.33508564150395059,0.057599999999999998,-0.30134953415699772),(-0.32894953415699768,0.057599999999999998,-0.31339232289903485),(-0.3193923228990348,0.057599999999999998,-0.32294953415699773),(-0.30734953415699773,0.057599999999999998,-0.32908564150395064),(-0.29399999999999998,0.057599999999999998,-0.33120000000000005),(-0.28065046584300224,0.057599999999999998,-0.32908564150395064),(-0.26860767710096517,0.057599999999999998,-0.32294953415699779),(-0.25905046584300229,0.057599999999999998,-0.31339232289903485),(-0.25291435849604937,0.057599999999999998,-0.30134953415699778),(0.33719999999999994,-0.057599999999999998,-0.28800000000000003),(0.33508564150395059,-0.057599999999999998,-0.27465046584300229),(0.32894953415699768,-0.057599999999999998,-0.26260767710096522),(0.3193923228990348,-0.057599999999999998,-0.25305046584300234),(0.30734953415699773,-0.057599999999999998,-0.24691435849604942),(0.29399999999999998,-0.057599999999999998,-0.24480000000000005),(0.28065046584300224,-0.057599999999999998,-0.24691435849604942),(0.26860767710096517,-0.057599999999999998,-0.25305046584300234),(0.25905046584300229,-0.057599999999999998,-0.26260767710096522),(0.25291435849604937,-0.057599999999999998,-0.27465046584300229),(0.25080000000000002,-0.057599999999999998,-0.28800000000000003),(0.25291435849604937,-0.057599999999999998,-0.30134953415699772),(0.25905046584300229,-0.057599999999999998,-0.31339232289903485),(0.26860767710096517,-0.057599999999999998,-0.32294953415699773),(0.28065046584300224,-0.057599999999999998,-0.32908564150395064),(0.29399999999999998,-0.057599999999999998,-0.33120000000000005),(0.30734953415699773,-0.057599999999999998,-0.32908564150395064),(0.3193923228990348,-0.057599999999999998,-0.32294953415699779),(0.32894953415699768,-0.057599999999999998,-0.31339232289903485),(0.33508564150395059,-0.057599999999999998,-0.30134953415699778),(0.33719999999999994,0.057599999999999998,-0.28800000000000003),(0.33508564150395059,0.057599999999999998,-0.27465046584300229),(0.32894953415699768,0.057599999999999998,-0.26260767710096522),(0.3193923228990348,0.057599999999999998,-0.25305046584300234),(0.30734953415699773,0.057599999999999998,-0.24691435849604942),(0.29399999999999998,0.057599999999999998,-0.24480000000000005),(0.28065046584300224,0.057599999999999998,-0.24691435849604942),(0.26860767710096517,0.057599999999999998,-0.25305046584300234),(0.25905046584300229,0.057599999999999998,-0.26260767710096522),(0.25291435849604937,0.057599999999999998,-0.27465046584300229),(0.25080000000000002,0.057599999999999998,-0.28800000000000003),(0.25291435849604937,0.057599999999999998,-0.30134953415699772),(0.25905046584300229,0.057599999999999998,-0.31339232289903485),(0.26860767710096517,0.057599999999999998,-0.32294953415699773),(0.28065046584300224,0.057599999999999998,-0.32908564150395064),(0.29399999999999998,0.057599999999999998,-0.33120000000000005),(0.30734953415699773,0.057599999999999998,-0.32908564150395064),(0.3193923228990348,0.057599999999999998,-0.32294953415699779),(0.32894953415699768,0.057599999999999998,-0.31339232289903485),(0.33508564150395059,0.057599999999999998,-0.30134953415699778),(0.043199999999999988,0.24480000000000002,0.12959999999999999),(0.041085641503950623,0.24480000000000002,0.14294953415699771),(0.034949534156997718,0.24480000000000002,0.15499232289903483),(0.025392322899034831,0.24480000000000002,0.16454953415699772),(0.013349534156997727,0.24480000000000002,0.1706856415039506),(2.6452370861582822E-18,0.24480000000000002,0.17279999999999998),(-0.013349534156997722,0.24480000000000002,0.1706856415039506),(-0.025392322899034828,0.24480000000000002,0.16454953415699772),(-0.034949534156997718,0.24480000000000002,0.15499232289903483),(-0.041085641503950623,0.24480000000000002,0.14294953415699771),(-0.043199999999999988,0.24480000000000002,0.12959999999999999),(-0.04108564150395063,0.24480000000000002,0.11625046584300229),(-0.034949534156997725,0.24480000000000002,0.10420767710096517),(-0.025392322899034838,0.24480000000000002,0.094650465843002268),(-0.01334953415699773,0.24480000000000002,0.08851435849604937),(-7.9357112584748463E-18,0.24480000000000002,0.086400000000000005),(0.013349534156997717,0.24480000000000002,0.08851435849604937),(0.025392322899034824,0.24480000000000002,0.094650465843002268),(0.034949534156997718,0.24480000000000002,0.10420767710096515),(0.041085641503950623,0.24480000000000002,0.11625046584300226),(0.043199999999999988,0.33119999999999999,0.12959999999999999),(0.041085641503950623,0.33119999999999999,0.14294953415699771),(0.034949534156997718,0.33119999999999999,0.15499232289903483),(0.025392322899034831,0.33119999999999999,0.16454953415699772),(0.013349534156997727,0.33119999999999999,0.1706856415039506),(2.6452370861582822E-18,0.33119999999999999,0.17279999999999998),(-0.013349534156997722,0.33119999999999999,0.1706856415039506),(-0.025392322899034828,0.33119999999999999,0.16454953415699772),(-0.034949534156997718,0.33119999999999999,0.15499232289903483),(-0.041085641503950623,0.33119999999999999,0.14294953415699771),(-0.043199999999999988,0.33119999999999999,0.12959999999999999),(-0.04108564150395063,0.33119999999999999,0.11625046584300229),(-0.034949534156997725,0.33119999999999999,0.10420767710096517),(-0.025392322899034838,0.33119999999999999,0.094650465843002268),(-0.01334953415699773,0.33119999999999999,0.08851435849604937),(-7.9357112584748463E-18,0.33119999999999999,0.086400000000000005),(0.013349534156997717,0.33119999999999999,0.08851435849604937),(0.025392322899034824,0.33119999999999999,0.094650465843002268),(0.034949534156997718,0.33119999999999999,0.10420767710096515),(0.041085641503950623,0.33119999999999999,0.11625046584300226),(0.24600000000000002,-0.043199999999999995,-0.12959999999999999),(0.24423803458662555,-0.043199999999999995,-0.11847538820250189),(0.23912461179749814,-0.043199999999999995,-0.10843973091747096),(0.23116026908252907,-0.043199999999999995,-0.10047538820250188),(0.22112461179749812,-0.043199999999999995,-0.095361965413374467),(0.21000000000000002,-0.043199999999999995,-0.093599999999999989),(0.19887538820250192,-0.043199999999999995,-0.095361965413374467),(0.188839730917471,-0.043199999999999995,-0.10047538820250188),(0.1808753882025019,-0.043199999999999995,-0.10843973091747096),(0.17576196541337449,-0.043199999999999995,-0.11847538820250188),(0.17400000000000002,-0.043199999999999995,-0.12959999999999999),(0.17576196541337447,-0.043199999999999995,-0.14072461179749809),(0.1808753882025019,-0.043199999999999995,-0.15076026908252901),(0.18883973091747097,-0.043199999999999995,-0.15872461179749811),(0.19887538820250192,-0.043199999999999995,-0.16383803458662552),(0.21000000000000002,-0.043199999999999995,-0.1656),(0.22112461179749812,-0.043199999999999995,-0.16383803458662552),(0.23116026908252904,-0.043199999999999995,-0.15872461179749811),(0.23912461179749814,-0.043199999999999995,-0.15076026908252904),(0.24423803458662555,-0.043199999999999995,-0.14072461179749812),(0.24600000000000002,0.043199999999999995,-0.12959999999999999),(0.24423803458662555,0.043199999999999995,-0.11847538820250189),(0.23912461179749814,0.043199999999999995,-0.10843973091747096),(0.23116026908252907,0.043199999999999995,-0.10047538820250188),(0.22112461179749812,0.043199999999999995,-0.095361965413374467),(0.21000000000000002,0.043199999999999995,-0.093599999999999989),(0.19887538820250192,0.043199999999999995,-0.095361965413374467),(0.188839730917471,0.043199999999999995,-0.10047538820250188),(0.1808753882025019,0.043199999999999995,-0.10843973091747096),(0.17576196541337449,0.043199999999999995,-0.11847538820250188),(0.17400000000000002,0.043199999999999995,-0.12959999999999999),(0.17576196541337447,0.043199999999999995,-0.14072461179749809),(0.1808753882025019,0.043199999999999995,-0.15076026908252901),(0.18883973091747097,0.043199999999999995,-0.15872461179749811),(0.19887538820250192,0.043199999999999995,-0.16383803458662552),(0.21000000000000002,0.043199999999999995,-0.1656),(0.22112461179749812,0.043199999999999995,-0.16383803458662552),(0.23116026908252904,0.043199999999999995,-0.15872461179749811),(0.23912461179749814,0.043199999999999995,-0.15076026908252904),(0.24423803458662555,0.043199999999999995,-0.14072461179749812)),$);
#40=IFCINDEXEDPOLYGONALFACE((20,19,18,17,16,15,14,13,12,11,10,9,8,7,6,5,4,3,2,1));
#41=IFCINDEXEDPOLYGONALFACE((21,22,23,24,25,26,27,28,29,30,31,32,33,34,35,36,37,38,39,40));
#42=IFCINDEXEDPOLYGONALFACE((1,2,22,21));
#43=IFCINDEXEDPOLYGONALFACE((2,3,23,22));
#44=IFCINDEXEDPOLYGONALFACE((3,4,24,23));
#45=IFCINDEXEDPOLYGONALFACE((4,5,25,24));
#46=IFCINDEXEDPOLYGONALFACE((5,6,26,25));
#47=IFCINDEXEDPOLYGONALFACE((6,7,27,26));
#48=IFCINDEXEDPOLYGONALFACE((7,8,28,27));
#49=IFCINDEXEDPOLYGONALFACE((8,9,29,28));
#50=IFCINDEXEDPOLYGONALFACE((9,10,30,29));
#51=IFCINDEXEDPOLYGONALFACE((10,11,31,30));
#52=IFCINDEXEDPOLYGONALFACE((11,12,32,31));
#53=IFCINDEXEDPOLYGONALFACE((12,13,33,32));
#54=IFCINDEXEDPOLYGONALFACE((13,14,34,33));
#55=IFCINDEXEDPOLYGONALFACE((14,15,35,34));
#56=IFCINDEXEDPOLYGONALFACE((15,16,36,35));
#57=IFCINDEXEDPOLYGONALFACE((16,17,37,36));
#58=IFCINDEXEDPOLYGONALFACE((17,18,38,37));
#59=IFCINDEXEDPOLYGONALFACE((18,19,39,38));
#60=IFCINDEXEDPOLYGONALFACE((19,20,40,39));
#61=IFCINDEXEDPOLYGONALFACE((20,1,21,40));
#62=IFCINDEXEDPOLYGONALFACE((60,59,58,57,56,55,54,53,52,51,50,49,48,47,46,45,44,43,42,41));
#63=IFCINDEXEDPOLYGONALFACE((61,62,63,64,65,66,67,68,69,70,71,72,73,74,75,76,77,78,79,80));
#64=IFCINDEXEDPOLYGONALFACE((41,42,62,61));
#65=IFCINDEXEDPOLYGONALFACE((42,43,63,62));
#66=IFCINDEXEDPOLYGONALFACE((43,44,64,63));
#67=IFCINDEXEDPOLYGONALFACE((44,45,65,64));
#68=IFCINDEXEDPOLYGONALFACE((45,46,66,65));
#69=IFCINDEXEDPOLYGONALFACE((46,47,67,66));
#70=IFCINDEXEDPOLYGONALFACE((47,48,68,67));
#71=IFCINDEXEDPOLYGONALFACE((48,49,69,68));
#72=IFCINDEXEDPOLYGONALFACE((49,50,70,69));
#73=IFCINDEXEDPOLYGONALFACE((50,51,71,70));
#74=IFCINDEXEDPOLYGONALFACE((51,52,72,71));
#75=IFCINDEXEDPOLYGONALFACE((52,53,73,72));
#76=IFCINDEXEDPOLYGONALFACE((53,54,74,73));
#77=IFCINDEXEDPOLYGONALFACE((54,55,75,74));
#78=IFCINDEXEDPOLYGONALFACE((55,56,76,75));
#79=IFCINDEXEDPOLYGONALFACE((56,57,77,76));
#80=IFCINDEXEDPOLYGONALFACE((57,58,78,77));
#81=IFCINDEXEDPOLYGONALFACE((58,59,79,78));
#82=IFCINDEXEDPOLYGONALFACE((59,60,80,79));
#83=IFCINDEXEDPOLYGONALFACE((60,41,61,80));
#84=IFCINDEXEDPOLYGONALFACE((100,99,98,97,96,95,94,93,92,91,90,89,88,87,86,85,84,83,82,81));
#85=IFCINDEXEDPOLYGONALFACE((101,102,103,104,105,106,107,108,109,110,111,112,113,114,115,116,117,118,119,120));
#86=IFCINDEXEDPOLYGONALFACE((81,82,102,101));
#87=IFCINDEXEDPOLYGONALFACE((82,83,103,102));
#88=IFCINDEXEDPOLYGONALFACE((83,84,104,103));
#89=IFCINDEXEDPOLYGONALFACE((84,85,105,104));
#90=IFCINDEXEDPOLYGONALFACE((85,86,106,105));
#91=IFCINDEXEDPOLYGONALFACE((86,87,107,106));
#92=IFCINDEXEDPOLYGONALFACE((87,88,108,107));
#93=IFCINDEXEDPOLYGONALFACE((88,89,109,108));
#94=IFCINDEXEDPOLYGONALFACE((89,90,110,109));
#95=IFCINDEXEDPOLYGONALFACE((90,91,111,110));
#96=IFCINDEXEDPOLYGONALFACE((91,92,112,111));
#97=IFCINDEXEDPOLYGONALFACE((92,93,113,112));
#98=IFCINDEXEDPOLYGONALFACE((93,94,114,113));
#99=IFCINDEXEDPOLYGONALFACE((94,95,115,114));
#100=IFCINDEXEDPOLYGONALFACE((95,96,116,115));
#101=IFCINDEXEDPOLYGONALFACE((96,97,117,116));
#102=IFCINDEXEDPOLYGONALFACE((97,98,118,117));
#103=IFCINDEXEDPOLYGONALFACE((98,99,119,118));
#104=IFCINDEXEDPOLYGONALFACE((99,100,120,119));
#105=IFCINDEXEDPOLYGONALFACE((100,81,101,120));
#106=IFCINDEXEDPOLYGONALFACE((140,139,138,137,136,135,134,133,132,131,130,129,128,127,126,125,124,123,122,121));
#107=IFCINDEXEDPOLYGONALFACE((141,142,143,144,145,146,147,148,149,150,151,152,153,154,155,156,157,158,159,160));
#108=IFCINDEXEDPOLYGONALFACE((121,122,142,141));
#109=IFCINDEXEDPOLYGONALFACE((122,123,143,142));
#110=IFCINDEXEDPOLYGONALFACE((123,124,144,143));
#111=IFCINDEXEDPOLYGONALFACE((124,125,145,144));
#112=IFCINDEXEDPOLYGONALFACE((125,126,146,145));
#113=IFCINDEXEDPOLYGONALFACE((126,127,147,146));
#114=IFCINDEXEDPOLYGONALFACE((127,128,148,147));
#115=IFCINDEXEDPOLYGONALFACE((128,129,149,148));
#116=IFCINDEXEDPOLYGONALFACE((129,130,150,149));
#117=IFCINDEXEDPOLYGONALFACE((130,131,151,150));
#118=IFCINDEXEDPOLYGONALFACE((131,132,152,151));
#119=IFCINDEXEDPOLYGONALFACE((132,133,153,152));
#120=IFCINDEXEDPOLYGONALFACE((133,134,154,153));
#121=IFCINDEXEDPOLYGONALFACE((134,135,155,154));
#122=IFCINDEXEDPOLYGONALFACE((135,136,156,155));
#123=IFCINDEXEDPOLYGONALFACE((136,137,157,156));
#124=IFCINDEXEDPOLYGONALFACE((137,138,158,157));
#125=IFCINDEXEDPOLYGONALFACE((138,139,159,158));
#126=IFCINDEXEDPOLYGONALFACE((139,140,160,159));
#127=IFCINDEXEDPOLYGONALFACE((140,121,141,160));
#128=IFCINDEXEDPOLYGONALFACE((180,179,178,177,176,175,174,173,172,171,170,169,168,167,166,165,164,163,162,161));
#129=IFCINDEXEDPOLYGONALFACE((181,182,183,184,185,186,187,188,189,190,191,192,193,194,195,196,197,198,199,200));
#130=IFCINDEXEDPOLYGONALFACE((161,162,182,181));
#131=IFCINDEXEDPOLYGONALFACE((162,163,183,182));
#132=IFCINDEXEDPOLYGONALFACE((163,164,184,183));
#133=IFCINDEXEDPOLYGONALFACE((164,165,185,184));
#134=IFCINDEXEDPOLYGONALFACE((165,166,186,185));
#135=IFCINDEXEDPOLYGONALFACE((166,167,187,186));
#136=IFCINDEXEDPOLYGONALFACE((167,168,188,187));
#137=IFCINDEXEDPOLYGONALFACE((168,169,189,188));
#138=IFCINDEXEDPOLYGONALFACE((169,170,190,189));
#139=IFCINDEXEDPOLYGONALFACE((170,171,191,190));
#140=IFCINDEXEDPOLYGONALFACE((171,172,192,191));
#141=IFCINDEXEDPOLYGONALFACE((172,173,193,192));
#142=IFCINDEXEDPOLYGONALFACE((173,174,194,193));
#143=IFCINDEXEDPOLYGONALFACE((174,175,195,194));
#144=IFCINDEXEDPOLYGONALFACE((175,176,196,195));
#145=IFCINDEXEDPOLYGONALFACE((176,177,197,196));
#146=IFCINDEXEDPOLYGONALFACE((177,178,198,197));
#147=IFCINDEXEDPOLYGONALFACE((178,179,199,198));
#148=IFCINDEXEDPOLYGONALFACE((179,180,200,199));
#149=IFCINDEXEDPOLYGONALFACE((180,161,181,200));
#150=IFCINDEXEDPOLYGONALFACE((220,219,218,217,216,215,214,213,212,211,210,209,208,207,206,205,204,203,202,201));
#151=IFCINDEXEDPOLYGONALFACE((221,222,223,224,225,226,227,228,229,230,231,232,233,234,235,236,237,238,239,240));
#152=IFCINDEXEDPOLYGONALFACE((201,202,222,221));
#153=IFCINDEXEDPOLYGONALFACE((202,203,223,222));
#154=IFCINDEXEDPOLYGONALFACE((203,204,224,223));
#155=IFCINDEXEDPOLYGONALFACE((204,205,225,224));
#156=IFCINDEXEDPOLYGONALFACE((205,206,226,225));
#157=IFCINDEXEDPOLYGONALFACE((206,207,227,226));
#158=IFCINDEXEDPOLYGONALFACE((207,208,228,227));
#159=IFCINDEXEDPOLYGONALFACE((208,209,229,228));
#160=IFCINDEXEDPOLYGONALFACE((209,210,230,229));
#161=IFCINDEXEDPOLYGONALFACE((210,211,231,230));
#162=IFCINDEXEDPOLYGONALFACE((211,212,232,231));
#163=IFCINDEXEDPOLYGONALFACE((212,213,233,232));
#164=IFCINDEXEDPOLYGONALFACE((213,214,234,233));
#165=IFCINDEXEDPOLYGONALFACE((214,215,235,234));
#166=IFCINDEXEDPOLYGONALFACE((215,216,236,235));
#167=IFCINDEXEDPOLYGONALFACE((216,217,237,236));
#168=IFCINDEXEDPOLYGONALFACE((217,218,238,237));
#169=IFCINDEXEDPOLYGONALFACE((218,219,239,238));
#170=IFCINDEXEDPOLYGONALFACE((219,220,240,239));
#171=IFCINDEXEDPOLYGONALFACE((220,201,221,240));
#172=IFCINDEXEDPOLYGONALFACE((260,259,258,257,256,255,254,253,252,251,250,249,248,247,246,245,244,243,242,241));
#173=IFCINDEXEDPOLYGONALFACE((261,262,263,264,265,266,267,268,269,270,271,272,273,274,275,276,277,278,279,280));
#174=IFCINDEXEDPOLYGONALFACE((241,242,262,261));
#175=IFCINDEXEDPOLYGONALFACE((242,243,263,262));
#176=IFCINDEXEDPOLYGONALFACE((243,244,264,263));
#177=IFCINDEXEDPOLYGONALFACE((244,245,265,264));
#178=IFCINDEXEDPOLYGONALFACE((245,246,266,265));
#179=IFCINDEXEDPOLYGONALFACE((246,247,267,266));
#180=IFCINDEXEDPOLYGONALFACE((247,248,268,267));
#181=IFCINDEXEDPOLYGONALFACE((248,249,269,268));
#182=IFCINDEXEDPOLYGONALFACE((249,250,270,269));
#183=IFCINDEXEDPOLYGONALFACE((250,251,271,270));
#184=IFCINDEXEDPOLYGONALFACE((251,252,272,271));
#185=IFCINDEXEDPOLYGONALFACE((252,253,273,272));
#186=IFCINDEXEDPOLYGONALFACE((253,254,274,273));
#187=IFCINDEXEDPOLYGONALFACE((254,255,275,274));
#188=IFCINDEXEDPOLYGONALFACE((255,256,276,275));
#189=IFCINDEXEDPOLYGONALFACE((256,257,277,276));
#190=IFCINDEXEDPOLYGONALFACE((257,258,278,277));
#191=IFCINDEXEDPOLYGONALFACE((258,259,279,278));
#192=IFCINDEXEDPOLYGONALFACE((259,260,280,279));
#193=IFCINDEXEDPOLYGONALFACE((260,241,261,280));
#194=IFCPOLYGONALFACESET(#39,$,(#40,#41,#42,#43,#44,#45,#46,#47,#48,#49,#50,#51,#52,#53,#54,#55,#56,#57,#58,#59,#60,#61,#62,#63,#64,#65,#66,#67,#68,#69,#70,#71,#72,#73,#74,#75,#76,#77,#78,#79,#80,#81,#82,#83,#84,#85,#86,#87,#88,#89,#90,#91,#92,#93,#94,#95,#96,#97,#98,#99,#100,#101,#102,#103,#104,#105,#106,#107,#108,#109,#110,#111,#112,#113,#114,#115,#116,#117,#118,#119,#120,#121,#122,#123,#124,#125,#126,#127,#128,#129,#130,#131,#132,#133,#134,#135,#136,#137,#138,#139,#140,#141,#142,#143,#144,#145,#146,#147,#148,#149,#150,#151,#152,#153,#154,#155,#156,#157,#158,#159,#160,#161,#162,#163,#164,#165,#166,#167,#168,#169,#170,#171,#172,#173,#174,#175,#176,#177,#178,#179,#180,#181,#182,#183,#184,#185,#186,#187,#188,#189,#190,#191,#192,#193),$);
#195=IFCSHAPEREPRESENTATION(#13,'Body','Tessellation',(#194));
#196=IFCPRODUCTDEFINITIONSHAPE($,$,(#195));
#197=IFCRELCONTAINEDINSPATIALSTRUCTURE('3voFr5HoTGIAS3c5jAD$r2',$,$,$,(#28),#3);
#198=IFCCARTESIANPOINT((0.,0.,0.));
#199=IFCAXIS2PLACEMENT3D(#198,$,$);
#200=IFCLOCALPLACEMENT($,#199);
ENDSEC;
END-ISO-10303-21;
