ISO-10303-21;
HEADER;
FILE_DESCRIPTION(('ViewDefinition [CoordinationView]'),'2;1');
FILE_NAME('LM3-BDY-P030.ifc','2026-08-30T00:00:00+00:00',('OpenSourceRail'),('OpenSourceRail'),'IfcOpenShell 0.8.5','OpenSourceRail deterministic LM3 product-library exporter','design-reference / not for construction');
FILE_SCHEMA(('IFC4X3_ADD2'));
ENDSEC;
DATA;
#1=IFCPROJECT('2UEVXKl1XLt9TXQ3qEqM3y',$,'LM3-BDY-P030 \X2\2014\X0\ bolster box, air-spring pad, and centre-pivot insert set','Design-reference geometry and assembly hierarchy only; supplier freeze, released drawings/tolerances, calculations, qualified processes and first-article tests remain mandatory.',$,$,$,(#12),#7);
#2=IFCSITE('0RUHp1XoPR7wCDqOCtjQaG',$,'LM3 product library',$,$,#18,$,$,.ELEMENT.,$,$,$,$,$);
#3=IFCBUILDING('03_1XYFObLqhx3xNSBi05i',$,'LM3 assembly inspection fixture',$,$,#21,$,$,.ELEMENT.,$,$,$);
#4=IFCSIUNIT(*,.LENGTHUNIT.,$,.METRE.);
#5=IFCSIUNIT(*,.AREAUNIT.,$,.SQUARE_METRE.);
#6=IFCSIUNIT(*,.VOLUMEUNIT.,$,.CUBIC_METRE.);
#7=IFCUNITASSIGNMENT((#6,#4,#5));
#8=IFCCARTESIANPOINT((0.,0.,0.));
#9=IFCDIRECTION((0.,0.,1.));
#10=IFCDIRECTION((1.,0.,0.));
#11=IFCAXIS2PLACEMENT3D(#8,#9,#10);
#12=IFCGEOMETRICREPRESENTATIONCONTEXT($,'Model',3,1.0000000000000001E-05,#11,$);
#13=IFCGEOMETRICREPRESENTATIONSUBCONTEXT('Body','Model',*,*,*,*,#12,$,.MODEL_VIEW.,$);
#14=IFCRELAGGREGATES('2XXg7lQkvNIuAhvN2dMHV1',$,$,$,#1,(#2));
#15=IFCRELAGGREGATES('1uu6wE3PjV2BDBYGYuCbQP',$,$,$,#2,(#3));
#16=IFCCARTESIANPOINT((0.,0.,0.));
#17=IFCAXIS2PLACEMENT3D(#16,$,$);
#18=IFCLOCALPLACEMENT($,#17);
#19=IFCCARTESIANPOINT((0.,0.,0.));
#20=IFCAXIS2PLACEMENT3D(#19,$,$);
#21=IFCLOCALPLACEMENT($,#20);
#22=IFCPROPERTYSINGLEVALUE('Status',$,IFCTEXT('design-reference-not-released'),$);
#23=IFCPROPERTYSINGLEVALUE('ReleaseBoundary',$,IFCTEXT('Design-reference geometry and assembly hierarchy only; supplier freeze, released drawings/tolerances, calculations, qualified processes and first-article tests remain mandatory.'),$);
#24=IFCPROPERTYSINGLEVALUE('Manifest',$,IFCTEXT('design/component-catalogue/catalog/buildable-trainset/buildable-trainset-manifest.json'),$);
#25=IFCPROPERTYSINGLEVALUE('ManifestSha256',$,IFCTEXT('7654747909805305ce2018109b5b649c4817a8f8c44a3ec8f2e8a6f74d48243e'),$);
#26=IFCPROPERTYSET('2b36tMJYzUXBrHLDc6HeUQ',$,'OSR_ProductLibrary',$,(#22,#23,#24,#25));
#27=IFCRELDEFINESBYPROPERTIES('3klsw7OSbUVO5L0hiOIqU4',$,$,$,(#1),#26);
#28=IFCBUILDINGELEMENTPROXY('0Eb0maDCnTWemLWDtlvLWT',$,'bolster box, air-spring pad, and centre-pivot insert set','Folded and welded bolster boxes, machined after weld where required.',$,#89,#85,'LM3-BDY-P030',$);
#29=IFCPROPERTYSINGLEVALUE('OSRId',$,IFCTEXT('LM3-BDY-P030'),$);
#30=IFCPROPERTYSINGLEVALUE('Parent',$,IFCTEXT('LM3-BDY-SA110'),$);
#31=IFCPROPERTYSINGLEVALUE('Route',$,IFCTEXT('MAKE'),$);
#32=IFCPROPERTYSINGLEVALUE('Maturity',$,IFCTEXT('release-candidate'),$);
#33=IFCPROPERTYSINGLEVALUE('QuantityPerTrainset',$,IFCINTEGER(6),$);
#34=IFCPROPERTYSINGLEVALUE('Unit',$,IFCTEXT('set'),$);
#35=IFCPROPERTYSINGLEVALUE('GeometryStatus',$,IFCTEXT('design-reference-not-released'),$);
#36=IFCPROPERTYSET('1O3uNv2r1PaRiD4LTXja1N',$,'OSR_ProductDefinition',$,(#29,#30,#31,#32,#33,#34,#35));
#37=IFCRELDEFINESBYPROPERTIES('3Cl5CzqzXVlxJogizzbktD',$,$,$,(#28),#36);
#38=IFCCARTESIANPOINTLIST3D(((0.84999999999999998,0.,-0.13019999999999998),(0.80839803885088046,0.2626644452187053,-0.13019999999999998),(0.68766444521870529,0.49961746444860217,-0.13019999999999998),(0.49961746444860217,0.68766444521870529,-0.13019999999999998),(0.2626644452187053,0.80839803885088046,-0.13019999999999998),(5.2047488963762507E-17,0.84999999999999998,-0.13019999999999998),(-0.26266444521870524,0.80839803885088057,-0.13019999999999998),(-0.49961746444860206,0.68766444521870529,-0.13019999999999998),(-0.68766444521870518,0.49961746444860222,-0.13019999999999998),(-0.80839803885088046,0.26266444521870536,-0.13019999999999998),(-0.84999999999999998,1.0409497792752501E-16,-0.13019999999999998),(-0.80839803885088068,-0.26266444521870486,-0.13019999999999998),(-0.6876644452187054,-0.49961746444860206,-0.13019999999999998),(-0.49961746444860222,-0.68766444521870518,-0.13019999999999998),(-0.26266444521870541,-0.80839803885088046,-0.13019999999999998),(-1.5614246689128752E-16,-0.84999999999999998,-0.13019999999999998),(0.26266444521870513,-0.80839803885088057,-0.13019999999999998),(0.49961746444860194,-0.6876644452187054,-0.13019999999999998),(0.68766444521870518,-0.49961746444860233,-0.13019999999999998),(0.80839803885088046,-0.26266444521870547,-0.13019999999999998),(0.84999999999999998,0.,0.13019999999999998),(0.80839803885088046,0.2626644452187053,0.13019999999999998),(0.68766444521870529,0.49961746444860217,0.13019999999999998),(0.49961746444860217,0.68766444521870529,0.13019999999999998),(0.2626644452187053,0.80839803885088046,0.13019999999999998),(5.2047488963762507E-17,0.84999999999999998,0.13019999999999998),(-0.26266444521870524,0.80839803885088057,0.13019999999999998),(-0.49961746444860206,0.68766444521870529,0.13019999999999998),(-0.68766444521870518,0.49961746444860222,0.13019999999999998),(-0.80839803885088046,0.26266444521870536,0.13019999999999998),(-0.84999999999999998,1.0409497792752501E-16,0.13019999999999998),(-0.80839803885088068,-0.26266444521870486,0.13019999999999998),(-0.6876644452187054,-0.49961746444860206,0.13019999999999998),(-0.49961746444860222,-0.68766444521870518,0.13019999999999998),(-0.26266444521870541,-0.80839803885088046,0.13019999999999998),(-1.5614246689128752E-16,-0.84999999999999998,0.13019999999999998),(0.26266444521870513,-0.80839803885088057,0.13019999999999998),(0.49961746444860194,-0.6876644452187054,0.13019999999999998),(0.68766444521870518,-0.49961746444860233,0.13019999999999998),(0.80839803885088046,-0.26266444521870547,0.13019999999999998),(0.20399999999999999,0.,-0.20999999999999999),(0.19401552932421132,0.063039466852489262,-0.20999999999999999),(0.16503946685248927,0.11990819146766452,-0.20999999999999999),(0.11990819146766452,0.16503946685248927,-0.20999999999999999),(0.063039466852489276,0.19401552932421132,-0.20999999999999999),(1.2491397351303001E-17,0.20399999999999999,-0.20999999999999999),(-0.063039466852489248,0.19401552932421134,-0.20999999999999999),(-0.11990819146766449,0.16503946685248927,-0.20999999999999999),(-0.16503946685248924,0.11990819146766453,-0.20999999999999999),(-0.19401552932421132,0.06303946685248929,-0.20999999999999999),(-0.20399999999999999,2.4982794702606002E-17,-0.20999999999999999),(-0.19401552932421134,-0.063039466852489165,-0.20999999999999999),(-0.1650394668524893,-0.11990819146766449,-0.20999999999999999),(-0.11990819146766453,-0.16503946685248924,-0.20999999999999999),(-0.063039466852489304,-0.19401552932421132,-0.20999999999999999),(-3.7474192053909005E-17,-0.20399999999999999,-0.20999999999999999),(0.063039466852489234,-0.19401552932421134,-0.20999999999999999),(0.11990819146766447,-0.1650394668524893,-0.20999999999999999),(0.16503946685248924,-0.11990819146766456,-0.20999999999999999),(0.19401552932421132,-0.063039466852489304,-0.20999999999999999),(0.20399999999999999,0.,0.20999999999999999),(0.19401552932421132,0.063039466852489262,0.20999999999999999),(0.16503946685248927,0.11990819146766452,0.20999999999999999),(0.11990819146766452,0.16503946685248927,0.20999999999999999),(0.063039466852489276,0.19401552932421132,0.20999999999999999),(1.2491397351303001E-17,0.20399999999999999,0.20999999999999999),(-0.063039466852489248,0.19401552932421134,0.20999999999999999),(-0.11990819146766449,0.16503946685248927,0.20999999999999999),(-0.16503946685248924,0.11990819146766453,0.20999999999999999),(-0.19401552932421132,0.06303946685248929,0.20999999999999999),(-0.20399999999999999,2.4982794702606002E-17,0.20999999999999999),(-0.19401552932421134,-0.063039466852489165,0.20999999999999999),(-0.1650394668524893,-0.11990819146766449,0.20999999999999999),(-0.11990819146766453,-0.16503946685248924,0.20999999999999999),(-0.063039466852489304,-0.19401552932421132,0.20999999999999999),(-3.7474192053909005E-17,-0.20399999999999999,0.20999999999999999),(0.063039466852489234,-0.19401552932421134,0.20999999999999999),(0.11990819146766447,-0.1650394668524893,0.20999999999999999),(0.16503946685248924,-0.11990819146766456,0.20999999999999999),(0.19401552932421132,-0.063039466852489304,0.20999999999999999)),$);
#39=IFCINDEXEDPOLYGONALFACE((20,19,18,17,16,15,14,13,12,11,10,9,8,7,6,5,4,3,2,1));
#40=IFCINDEXEDPOLYGONALFACE((21,22,23,24,25,26,27,28,29,30,31,32,33,34,35,36,37,38,39,40));
#41=IFCINDEXEDPOLYGONALFACE((1,2,22,21));
#42=IFCINDEXEDPOLYGONALFACE((2,3,23,22));
#43=IFCINDEXEDPOLYGONALFACE((3,4,24,23));
#44=IFCINDEXEDPOLYGONALFACE((4,5,25,24));
#45=IFCINDEXEDPOLYGONALFACE((5,6,26,25));
#46=IFCINDEXEDPOLYGONALFACE((6,7,27,26));
#47=IFCINDEXEDPOLYGONALFACE((7,8,28,27));
#48=IFCINDEXEDPOLYGONALFACE((8,9,29,28));
#49=IFCINDEXEDPOLYGONALFACE((9,10,30,29));
#50=IFCINDEXEDPOLYGONALFACE((10,11,31,30));
#51=IFCINDEXEDPOLYGONALFACE((11,12,32,31));
#52=IFCINDEXEDPOLYGONALFACE((12,13,33,32));
#53=IFCINDEXEDPOLYGONALFACE((13,14,34,33));
#54=IFCINDEXEDPOLYGONALFACE((14,15,35,34));
#55=IFCINDEXEDPOLYGONALFACE((15,16,36,35));
#56=IFCINDEXEDPOLYGONALFACE((16,17,37,36));
#57=IFCINDEXEDPOLYGONALFACE((17,18,38,37));
#58=IFCINDEXEDPOLYGONALFACE((18,19,39,38));
#59=IFCINDEXEDPOLYGONALFACE((19,20,40,39));
#60=IFCINDEXEDPOLYGONALFACE((20,1,21,40));
#61=IFCINDEXEDPOLYGONALFACE((60,59,58,57,56,55,54,53,52,51,50,49,48,47,46,45,44,43,42,41));
#62=IFCINDEXEDPOLYGONALFACE((61,62,63,64,65,66,67,68,69,70,71,72,73,74,75,76,77,78,79,80));
#63=IFCINDEXEDPOLYGONALFACE((41,42,62,61));
#64=IFCINDEXEDPOLYGONALFACE((42,43,63,62));
#65=IFCINDEXEDPOLYGONALFACE((43,44,64,63));
#66=IFCINDEXEDPOLYGONALFACE((44,45,65,64));
#67=IFCINDEXEDPOLYGONALFACE((45,46,66,65));
#68=IFCINDEXEDPOLYGONALFACE((46,47,67,66));
#69=IFCINDEXEDPOLYGONALFACE((47,48,68,67));
#70=IFCINDEXEDPOLYGONALFACE((48,49,69,68));
#71=IFCINDEXEDPOLYGONALFACE((49,50,70,69));
#72=IFCINDEXEDPOLYGONALFACE((50,51,71,70));
#73=IFCINDEXEDPOLYGONALFACE((51,52,72,71));
#74=IFCINDEXEDPOLYGONALFACE((52,53,73,72));
#75=IFCINDEXEDPOLYGONALFACE((53,54,74,73));
#76=IFCINDEXEDPOLYGONALFACE((54,55,75,74));
#77=IFCINDEXEDPOLYGONALFACE((55,56,76,75));
#78=IFCINDEXEDPOLYGONALFACE((56,57,77,76));
#79=IFCINDEXEDPOLYGONALFACE((57,58,78,77));
#80=IFCINDEXEDPOLYGONALFACE((58,59,79,78));
#81=IFCINDEXEDPOLYGONALFACE((59,60,80,79));
#82=IFCINDEXEDPOLYGONALFACE((60,41,61,80));
#83=IFCPOLYGONALFACESET(#38,$,(#39,#40,#41,#42,#43,#44,#45,#46,#47,#48,#49,#50,#51,#52,#53,#54,#55,#56,#57,#58,#59,#60,#61,#62,#63,#64,#65,#66,#67,#68,#69,#70,#71,#72,#73,#74,#75,#76,#77,#78,#79,#80,#81,#82),$);
#84=IFCSHAPEREPRESENTATION(#13,'Body','Tessellation',(#83));
#85=IFCPRODUCTDEFINITIONSHAPE($,$,(#84));
#86=IFCRELCONTAINEDINSPATIALSTRUCTURE('39hlGQBk5TMPJFw_pP2rzZ',$,$,$,(#28),#3);
#87=IFCCARTESIANPOINT((0.,0.,0.));
#88=IFCAXIS2PLACEMENT3D(#87,$,$);
#89=IFCLOCALPLACEMENT($,#88);
ENDSEC;
END-ISO-10303-21;
