ISO-10303-21;
HEADER;
FILE_DESCRIPTION(('ViewDefinition [CoordinationView]'),'2;1');
FILE_NAME('LM3-HV-P010.ifc','2026-08-30T00:00:00+00:00',('OpenSourceRail'),('OpenSourceRail'),'IfcOpenShell 0.8.5','OpenSourceRail deterministic LM3 product-library exporter','design-reference / not for construction');
FILE_SCHEMA(('IFC4X3_ADD2'));
ENDSEC;
DATA;
#1=IFCPROJECT('3CRXUkwlzPpAhog0KShQUL',$,'LM3-HV-P010 \X2\2014\X0\ battery sliding trays, retention straps, service interlocks, and drain pans','Design-reference geometry and assembly hierarchy only; supplier freeze, released drawings/tolerances, calculations, qualified processes and first-article tests remain mandatory.',$,$,$,(#12),#7);
#2=IFCSITE('0I0cNvenjH1REX0kfYAqQj',$,'LM3 product library',$,$,#18,$,$,.ELEMENT.,$,$,$,$,$);
#3=IFCBUILDING('0HOT$vI0XIYhTOsDiMykc0',$,'LM3 assembly inspection fixture',$,$,#21,$,$,.ELEMENT.,$,$,$);
#4=IFCSIUNIT(*,.LENGTHUNIT.,$,.METRE.);
#5=IFCSIUNIT(*,.AREAUNIT.,$,.SQUARE_METRE.);
#6=IFCSIUNIT(*,.VOLUMEUNIT.,$,.CUBIC_METRE.);
#7=IFCUNITASSIGNMENT((#6,#4,#5));
#8=IFCCARTESIANPOINT((0.,0.,0.));
#9=IFCDIRECTION((0.,0.,1.));
#10=IFCDIRECTION((1.,0.,0.));
#11=IFCAXIS2PLACEMENT3D(#8,#9,#10);
#12=IFCGEOMETRICREPRESENTATIONCONTEXT($,'Model',3,1.0000000000000001E-05,#11,$);
#13=IFCGEOMETRICREPRESENTATIONSUBCONTEXT('Body','Model',*,*,*,*,#12,$,.MODEL_VIEW.,$);
#14=IFCRELAGGREGATES('3aPh9$eqrIHP2p3X_0kQgD',$,$,$,#1,(#2));
#15=IFCRELAGGREGATES('2CyKCBYmTSvg40vIxYU3ZZ',$,$,$,#2,(#3));
#16=IFCCARTESIANPOINT((0.,0.,0.));
#17=IFCAXIS2PLACEMENT3D(#16,$,$);
#18=IFCLOCALPLACEMENT($,#17);
#19=IFCCARTESIANPOINT((0.,0.,0.));
#20=IFCAXIS2PLACEMENT3D(#19,$,$);
#21=IFCLOCALPLACEMENT($,#20);
#22=IFCPROPERTYSINGLEVALUE('Status',$,IFCTEXT('design-reference-not-released'),$);
#23=IFCPROPERTYSINGLEVALUE('ReleaseBoundary',$,IFCTEXT('Design-reference geometry and assembly hierarchy only; supplier freeze, released drawings/tolerances, calculations, qualified processes and first-article tests remain mandatory.'),$);
#24=IFCPROPERTYSINGLEVALUE('Manifest',$,IFCTEXT('design/component-catalogue/catalog/buildable-trainset/buildable-trainset-manifest.json'),$);
#25=IFCPROPERTYSINGLEVALUE('ManifestSha256',$,IFCTEXT('7654747909805305ce2018109b5b649c4817a8f8c44a3ec8f2e8a6f74d48243e'),$);
#26=IFCPROPERTYSET('1xCNgtfInVmu4$qAklx26w',$,'OSR_ProductLibrary',$,(#22,#23,#24,#25));
#27=IFCRELDEFINESBYPROPERTIES('1aP7dpTtHSYPVS9QDtB9Hj',$,$,$,(#1),#26);
#28=IFCBUILDINGELEMENTPROXY('1FwpabPNXVDvyYjb0g7Ft5',$,'battery sliding trays, retention straps, service interlocks, and drain pans','Local mechanical retention and service hardware for the supplier battery modules.',$,#63,#59,'LM3-HV-P010',$);
#29=IFCPROPERTYSINGLEVALUE('OSRId',$,IFCTEXT('LM3-HV-P010'),$);
#30=IFCPROPERTYSINGLEVALUE('Parent',$,IFCTEXT('LM3-HV-SA510'),$);
#31=IFCPROPERTYSINGLEVALUE('Route',$,IFCTEXT('MAKE'),$);
#32=IFCPROPERTYSINGLEVALUE('Maturity',$,IFCTEXT('release-candidate'),$);
#33=IFCPROPERTYSINGLEVALUE('QuantityPerTrainset',$,IFCINTEGER(3),$);
#34=IFCPROPERTYSINGLEVALUE('Unit',$,IFCTEXT('car kit'),$);
#35=IFCPROPERTYSINGLEVALUE('GeometryStatus',$,IFCTEXT('design-reference-not-released'),$);
#36=IFCPROPERTYSET('08sZSm3zrTgwBX22am1Il0',$,'OSR_ProductDefinition',$,(#29,#30,#31,#32,#33,#34,#35));
#37=IFCRELDEFINESBYPROPERTIES('2QEfeDslvUEwsSLFDu3TrE',$,$,$,(#28),#36);
#38=IFCCARTESIANPOINTLIST3D(((-2.7000000000000002,-0.189,-0.06720000000000001),(-2.7000000000000002,-0.189,0.06720000000000001),(-2.7000000000000002,0.189,-0.06720000000000001),(-2.7000000000000002,0.189,0.06720000000000001),(2.7000000000000002,-0.189,-0.06720000000000001),(2.7000000000000002,-0.189,0.06720000000000001),(2.7000000000000002,0.189,-0.06720000000000001),(2.7000000000000002,0.189,0.06720000000000001),(-1.296,-0.45000000000000001,-0.051200000000000002),(-1.296,-0.45000000000000001,0.051200000000000002),(-1.296,0.45000000000000001,-0.051200000000000002),(-1.296,0.45000000000000001,0.051200000000000002),(1.296,-0.45000000000000001,-0.051200000000000002),(1.296,-0.45000000000000001,0.051200000000000002),(1.296,0.45000000000000001,-0.051200000000000002),(1.296,0.45000000000000001,0.051200000000000002),(-0.48599999999999999,-0.099000000000000005,-0.16),(-0.48599999999999999,-0.099000000000000005,0.16),(-0.48599999999999999,0.099000000000000005,-0.16),(-0.48599999999999999,0.099000000000000005,0.16),(0.48599999999999999,-0.099000000000000005,-0.16),(0.48599999999999999,-0.099000000000000005,0.16),(0.48599999999999999,0.099000000000000005,-0.16),(0.48599999999999999,0.099000000000000005,0.16)),$);
#39=IFCINDEXEDPOLYGONALFACE((1,2,4,3));
#40=IFCINDEXEDPOLYGONALFACE((5,7,8,6));
#41=IFCINDEXEDPOLYGONALFACE((1,5,6,2));
#42=IFCINDEXEDPOLYGONALFACE((3,4,8,7));
#43=IFCINDEXEDPOLYGONALFACE((1,3,7,5));
#44=IFCINDEXEDPOLYGONALFACE((2,6,8,4));
#45=IFCINDEXEDPOLYGONALFACE((9,10,12,11));
#46=IFCINDEXEDPOLYGONALFACE((13,15,16,14));
#47=IFCINDEXEDPOLYGONALFACE((9,13,14,10));
#48=IFCINDEXEDPOLYGONALFACE((11,12,16,15));
#49=IFCINDEXEDPOLYGONALFACE((9,11,15,13));
#50=IFCINDEXEDPOLYGONALFACE((10,14,16,12));
#51=IFCINDEXEDPOLYGONALFACE((17,18,20,19));
#52=IFCINDEXEDPOLYGONALFACE((21,23,24,22));
#53=IFCINDEXEDPOLYGONALFACE((17,21,22,18));
#54=IFCINDEXEDPOLYGONALFACE((19,20,24,23));
#55=IFCINDEXEDPOLYGONALFACE((17,19,23,21));
#56=IFCINDEXEDPOLYGONALFACE((18,22,24,20));
#57=IFCPOLYGONALFACESET(#38,$,(#39,#40,#41,#42,#43,#44,#45,#46,#47,#48,#49,#50,#51,#52,#53,#54,#55,#56),$);
#58=IFCSHAPEREPRESENTATION(#13,'Body','Tessellation',(#57));
#59=IFCPRODUCTDEFINITIONSHAPE($,$,(#58));
#60=IFCRELCONTAINEDINSPATIALSTRUCTURE('1LPF7kxbzOBgB_HWbh0EoE',$,$,$,(#28),#3);
#61=IFCCARTESIANPOINT((0.,0.,0.));
#62=IFCAXIS2PLACEMENT3D(#61,$,$);
#63=IFCLOCALPLACEMENT($,#62);
ENDSEC;
END-ISO-10303-21;
