ISO-10303-21;
HEADER;
FILE_DESCRIPTION(('ViewDefinition [CoordinationView]'),'2;1');
FILE_NAME('LM3-BDY-P120.ifc','2026-08-30T00:00:00+00:00',('OpenSourceRail'),('OpenSourceRail'),'IfcOpenShell 0.8.5','OpenSourceRail deterministic LM3 product-library exporter','design-reference / not for construction');
FILE_SCHEMA(('IFC4X3_ADD2'));
ENDSEC;
DATA;
#1=IFCPROJECT('3OvpzPDh1PQuiKeWfhbrkp',$,'LM3-BDY-P120 \X2\2014\X0\ jacking pad, lifting eye, towing lug, and recovery-label kit','Design-reference geometry and assembly hierarchy only; supplier freeze, released drawings/tolerances, calculations, qualified processes and first-article tests remain mandatory.',$,$,$,(#12),#7);
#2=IFCSITE('0kAd3mLR5Sf8WOMFx9GHRW',$,'LM3 product library',$,$,#18,$,$,.ELEMENT.,$,$,$,$,$);
#3=IFCBUILDING('1P2PP8xWzOGx4Z5NsOJjRC',$,'LM3 assembly inspection fixture',$,$,#21,$,$,.ELEMENT.,$,$,$);
#4=IFCSIUNIT(*,.LENGTHUNIT.,$,.METRE.);
#5=IFCSIUNIT(*,.AREAUNIT.,$,.SQUARE_METRE.);
#6=IFCSIUNIT(*,.VOLUMEUNIT.,$,.CUBIC_METRE.);
#7=IFCUNITASSIGNMENT((#6,#4,#5));
#8=IFCCARTESIANPOINT((0.,0.,0.));
#9=IFCDIRECTION((0.,0.,1.));
#10=IFCDIRECTION((1.,0.,0.));
#11=IFCAXIS2PLACEMENT3D(#8,#9,#10);
#12=IFCGEOMETRICREPRESENTATIONCONTEXT($,'Model',3,1.0000000000000001E-05,#11,$);
#13=IFCGEOMETRICREPRESENTATIONSUBCONTEXT('Body','Model',*,*,*,*,#12,$,.MODEL_VIEW.,$);
#14=IFCRELAGGREGATES('0uVqrm15fT_9WmkIi6Odph',$,$,$,#1,(#2));
#15=IFCRELAGGREGATES('0FtghYVC5Q691UcH9CqHcY',$,$,$,#2,(#3));
#16=IFCCARTESIANPOINT((0.,0.,0.));
#17=IFCAXIS2PLACEMENT3D(#16,$,$);
#18=IFCLOCALPLACEMENT($,#17);
#19=IFCCARTESIANPOINT((0.,0.,0.));
#20=IFCAXIS2PLACEMENT3D(#19,$,$);
#21=IFCLOCALPLACEMENT($,#20);
#22=IFCPROPERTYSINGLEVALUE('Status',$,IFCTEXT('design-reference-not-released'),$);
#23=IFCPROPERTYSINGLEVALUE('ReleaseBoundary',$,IFCTEXT('Design-reference geometry and assembly hierarchy only; supplier freeze, released drawings/tolerances, calculations, qualified processes and first-article tests remain mandatory.'),$);
#24=IFCPROPERTYSINGLEVALUE('Manifest',$,IFCTEXT('design/component-catalogue/catalog/buildable-trainset/buildable-trainset-manifest.json'),$);
#25=IFCPROPERTYSINGLEVALUE('ManifestSha256',$,IFCTEXT('1179a30e147f3569fc4ccc8ce621621cec7985f620d2c788f8da93eec9ed7c05'),$);
#26=IFCPROPERTYSET('36tgJIQqrO1A2teWUADRv0',$,'OSR_ProductLibrary',$,(#22,#23,#24,#25));
#27=IFCRELDEFINESBYPROPERTIES('2Pi2JAIWjI9Ok5AGcgJnYG',$,$,$,(#1),#26);
#28=IFCDISCRETEACCESSORY('3Mz63X6pvT0xBg0wVVcSuN',$,'jacking pad, lifting eye, towing lug, and recovery-label kit','Locally fabricated and proof-marked recovery fittings tied into released underframe load paths.',$,#130,#126,'LM3-BDY-P120',$);
#29=IFCPROPERTYSINGLEVALUE('OSRId',$,IFCTEXT('LM3-BDY-P120'),$);
#30=IFCPROPERTYSINGLEVALUE('Parent',$,IFCTEXT('LM3-BDY-SA110'),$);
#31=IFCPROPERTYSINGLEVALUE('Route',$,IFCTEXT('MAKE'),$);
#32=IFCPROPERTYSINGLEVALUE('Maturity',$,IFCTEXT('release-candidate'),$);
#33=IFCPROPERTYSINGLEVALUE('QuantityPerTrainset',$,IFCINTEGER(3),$);
#34=IFCPROPERTYSINGLEVALUE('Unit',$,IFCTEXT('car kit'),$);
#35=IFCPROPERTYSINGLEVALUE('GeometryStatus',$,IFCTEXT('design-reference-not-released'),$);
#36=IFCPROPERTYSINGLEVALUE('GeometryLevel',$,IFCTEXT('design-reference-detail'),$);
#37=IFCPROPERTYSET('16yTjur2LLjQFplaxktPKk',$,'OSR_ProductDefinition',$,(#29,#30,#31,#32,#33,#34,#35,#36));
#38=IFCRELDEFINESBYPROPERTIES('2jWiUhEFLJbBrIuNDn$5_B',$,$,$,(#28),#37);
#39=IFCCARTESIANPOINTLIST3D(((-0.64500000000000002,-0.35599999999999998,-0.096599999999999991),(-0.64500000000000002,-0.35599999999999998,-0.026600000000000002),(-0.64500000000000002,-0.075999999999999998,-0.096599999999999991),(-0.64500000000000002,-0.075999999999999998,-0.026600000000000002),(-0.315,-0.35599999999999998,-0.096599999999999991),(-0.315,-0.35599999999999998,-0.026600000000000002),(-0.315,-0.075999999999999998,-0.096599999999999991),(-0.315,-0.075999999999999998,-0.026600000000000002),(-0.52200000000000002,-0.25800000000000001,-0.022599999999999999),(-0.52200000000000002,-0.25800000000000001,0.067400000000000002),(-0.52200000000000002,-0.17399999999999999,-0.022599999999999999),(-0.52200000000000002,-0.17399999999999999,0.067400000000000002),(-0.438,-0.25800000000000001,-0.022599999999999999),(-0.438,-0.25800000000000001,0.067400000000000002),(-0.438,-0.17399999999999999,-0.022599999999999999),(-0.438,-0.17399999999999999,0.067400000000000002),(-0.64500000000000002,0.075999999999999998,-0.096599999999999991),(-0.64500000000000002,0.075999999999999998,-0.026600000000000002),(-0.64500000000000002,0.35599999999999998,-0.096599999999999991),(-0.64500000000000002,0.35599999999999998,-0.026600000000000002),(-0.315,0.075999999999999998,-0.096599999999999991),(-0.315,0.075999999999999998,-0.026600000000000002),(-0.315,0.35599999999999998,-0.096599999999999991),(-0.315,0.35599999999999998,-0.026600000000000002),(-0.52200000000000002,0.17399999999999999,-0.022599999999999999),(-0.52200000000000002,0.17399999999999999,0.067400000000000002),(-0.52200000000000002,0.25800000000000001,-0.022599999999999999),(-0.52200000000000002,0.25800000000000001,0.067400000000000002),(-0.438,0.17399999999999999,-0.022599999999999999),(-0.438,0.17399999999999999,0.067400000000000002),(-0.438,0.25800000000000001,-0.022599999999999999),(-0.438,0.25800000000000001,0.067400000000000002),(0.315,-0.35599999999999998,-0.096599999999999991),(0.315,-0.35599999999999998,-0.026600000000000002),(0.315,-0.075999999999999998,-0.096599999999999991),(0.315,-0.075999999999999998,-0.026600000000000002),(0.64500000000000002,-0.35599999999999998,-0.096599999999999991),(0.64500000000000002,-0.35599999999999998,-0.026600000000000002),(0.64500000000000002,-0.075999999999999998,-0.096599999999999991),(0.64500000000000002,-0.075999999999999998,-0.026600000000000002),(0.438,-0.25800000000000001,-0.022599999999999999),(0.438,-0.25800000000000001,0.067400000000000002),(0.438,-0.17399999999999999,-0.022599999999999999),(0.438,-0.17399999999999999,0.067400000000000002),(0.52200000000000002,-0.25800000000000001,-0.022599999999999999),(0.52200000000000002,-0.25800000000000001,0.067400000000000002),(0.52200000000000002,-0.17399999999999999,-0.022599999999999999),(0.52200000000000002,-0.17399999999999999,0.067400000000000002),(0.315,0.075999999999999998,-0.096599999999999991),(0.315,0.075999999999999998,-0.026600000000000002),(0.315,0.35599999999999998,-0.096599999999999991),(0.315,0.35599999999999998,-0.026600000000000002),(0.64500000000000002,0.075999999999999998,-0.096599999999999991),(0.64500000000000002,0.075999999999999998,-0.026600000000000002),(0.64500000000000002,0.35599999999999998,-0.096599999999999991),(0.64500000000000002,0.35599999999999998,-0.026600000000000002),(0.438,0.17399999999999999,-0.022599999999999999),(0.438,0.17399999999999999,0.067400000000000002),(0.438,0.25800000000000001,-0.022599999999999999),(0.438,0.25800000000000001,0.067400000000000002),(0.52200000000000002,0.17399999999999999,-0.022599999999999999),(0.52200000000000002,0.17399999999999999,0.067400000000000002),(0.52200000000000002,0.25800000000000001,-0.022599999999999999),(0.52200000000000002,0.25800000000000001,0.067400000000000002),(-0.070000000000000007,-0.376,0.044700000000000004),(-0.070000000000000007,-0.376,0.089700000000000002),(-0.070000000000000007,-0.23599999999999999,0.044700000000000004),(-0.070000000000000007,-0.23599999999999999,0.089700000000000002),(0.070000000000000007,-0.376,0.044700000000000004),(0.070000000000000007,-0.376,0.089700000000000002),(0.070000000000000007,-0.23599999999999999,0.044700000000000004),(0.070000000000000007,-0.23599999999999999,0.089700000000000002),(-0.070000000000000007,0.23599999999999999,0.044700000000000004),(-0.070000000000000007,0.23599999999999999,0.089700000000000002),(-0.070000000000000007,0.376,0.044700000000000004),(-0.070000000000000007,0.376,0.089700000000000002),(0.070000000000000007,0.23599999999999999,0.044700000000000004),(0.070000000000000007,0.23599999999999999,0.089700000000000002),(0.070000000000000007,0.376,0.044700000000000004),(0.070000000000000007,0.376,0.089700000000000002),(-0.749,-0.059999999999999998,0.010999999999999999),(-0.749,-0.059999999999999998,0.10100000000000001),(-0.749,0.059999999999999998,0.010999999999999999),(-0.749,0.059999999999999998,0.10100000000000001),(-0.499,-0.059999999999999998,0.010999999999999999),(-0.499,-0.059999999999999998,0.10100000000000001),(-0.499,0.059999999999999998,0.010999999999999999),(-0.499,0.059999999999999998,0.10100000000000001),(0.499,-0.059999999999999998,0.010999999999999999),(0.499,-0.059999999999999998,0.10100000000000001),(0.499,0.059999999999999998,0.010999999999999999),(0.499,0.059999999999999998,0.10100000000000001),(0.749,-0.059999999999999998,0.010999999999999999),(0.749,-0.059999999999999998,0.10100000000000001),(0.749,0.059999999999999998,0.010999999999999999),(0.749,0.059999999999999998,0.10100000000000001),(-0.17499999999999999,-0.42699999999999999,-0.050000000000000003),(-0.17499999999999999,-0.42699999999999999,0.050000000000000003),(-0.17499999999999999,-0.41899999999999998,-0.050000000000000003),(-0.17499999999999999,-0.41899999999999998,0.050000000000000003),(0.17499999999999999,-0.42699999999999999,-0.050000000000000003),(0.17499999999999999,-0.42699999999999999,0.050000000000000003),(0.17499999999999999,-0.41899999999999998,-0.050000000000000003),(0.17499999999999999,-0.41899999999999998,0.050000000000000003),(-0.17499999999999999,0.41899999999999998,-0.050000000000000003),(-0.17499999999999999,0.41899999999999998,0.050000000000000003),(-0.17499999999999999,0.42699999999999999,-0.050000000000000003),(-0.17499999999999999,0.42699999999999999,0.050000000000000003),(0.17499999999999999,0.41899999999999998,-0.050000000000000003),(0.17499999999999999,0.41899999999999998,0.050000000000000003),(0.17499999999999999,0.42699999999999999,-0.050000000000000003),(0.17499999999999999,0.42699999999999999,0.050000000000000003)),$);
#40=IFCINDEXEDPOLYGONALFACE((1,2,4,3));
#41=IFCINDEXEDPOLYGONALFACE((5,7,8,6));
#42=IFCINDEXEDPOLYGONALFACE((1,5,6,2));
#43=IFCINDEXEDPOLYGONALFACE((3,4,8,7));
#44=IFCINDEXEDPOLYGONALFACE((1,3,7,5));
#45=IFCINDEXEDPOLYGONALFACE((2,6,8,4));
#46=IFCINDEXEDPOLYGONALFACE((9,10,12,11));
#47=IFCINDEXEDPOLYGONALFACE((13,15,16,14));
#48=IFCINDEXEDPOLYGONALFACE((9,13,14,10));
#49=IFCINDEXEDPOLYGONALFACE((11,12,16,15));
#50=IFCINDEXEDPOLYGONALFACE((9,11,15,13));
#51=IFCINDEXEDPOLYGONALFACE((10,14,16,12));
#52=IFCINDEXEDPOLYGONALFACE((17,18,20,19));
#53=IFCINDEXEDPOLYGONALFACE((21,23,24,22));
#54=IFCINDEXEDPOLYGONALFACE((17,21,22,18));
#55=IFCINDEXEDPOLYGONALFACE((19,20,24,23));
#56=IFCINDEXEDPOLYGONALFACE((17,19,23,21));
#57=IFCINDEXEDPOLYGONALFACE((18,22,24,20));
#58=IFCINDEXEDPOLYGONALFACE((25,26,28,27));
#59=IFCINDEXEDPOLYGONALFACE((29,31,32,30));
#60=IFCINDEXEDPOLYGONALFACE((25,29,30,26));
#61=IFCINDEXEDPOLYGONALFACE((27,28,32,31));
#62=IFCINDEXEDPOLYGONALFACE((25,27,31,29));
#63=IFCINDEXEDPOLYGONALFACE((26,30,32,28));
#64=IFCINDEXEDPOLYGONALFACE((33,34,36,35));
#65=IFCINDEXEDPOLYGONALFACE((37,39,40,38));
#66=IFCINDEXEDPOLYGONALFACE((33,37,38,34));
#67=IFCINDEXEDPOLYGONALFACE((35,36,40,39));
#68=IFCINDEXEDPOLYGONALFACE((33,35,39,37));
#69=IFCINDEXEDPOLYGONALFACE((34,38,40,36));
#70=IFCINDEXEDPOLYGONALFACE((41,42,44,43));
#71=IFCINDEXEDPOLYGONALFACE((45,47,48,46));
#72=IFCINDEXEDPOLYGONALFACE((41,45,46,42));
#73=IFCINDEXEDPOLYGONALFACE((43,44,48,47));
#74=IFCINDEXEDPOLYGONALFACE((41,43,47,45));
#75=IFCINDEXEDPOLYGONALFACE((42,46,48,44));
#76=IFCINDEXEDPOLYGONALFACE((49,50,52,51));
#77=IFCINDEXEDPOLYGONALFACE((53,55,56,54));
#78=IFCINDEXEDPOLYGONALFACE((49,53,54,50));
#79=IFCINDEXEDPOLYGONALFACE((51,52,56,55));
#80=IFCINDEXEDPOLYGONALFACE((49,51,55,53));
#81=IFCINDEXEDPOLYGONALFACE((50,54,56,52));
#82=IFCINDEXEDPOLYGONALFACE((57,58,60,59));
#83=IFCINDEXEDPOLYGONALFACE((61,63,64,62));
#84=IFCINDEXEDPOLYGONALFACE((57,61,62,58));
#85=IFCINDEXEDPOLYGONALFACE((59,60,64,63));
#86=IFCINDEXEDPOLYGONALFACE((57,59,63,61));
#87=IFCINDEXEDPOLYGONALFACE((58,62,64,60));
#88=IFCINDEXEDPOLYGONALFACE((65,66,68,67));
#89=IFCINDEXEDPOLYGONALFACE((69,71,72,70));
#90=IFCINDEXEDPOLYGONALFACE((65,69,70,66));
#91=IFCINDEXEDPOLYGONALFACE((67,68,72,71));
#92=IFCINDEXEDPOLYGONALFACE((65,67,71,69));
#93=IFCINDEXEDPOLYGONALFACE((66,70,72,68));
#94=IFCINDEXEDPOLYGONALFACE((73,74,76,75));
#95=IFCINDEXEDPOLYGONALFACE((77,79,80,78));
#96=IFCINDEXEDPOLYGONALFACE((73,77,78,74));
#97=IFCINDEXEDPOLYGONALFACE((75,76,80,79));
#98=IFCINDEXEDPOLYGONALFACE((73,75,79,77));
#99=IFCINDEXEDPOLYGONALFACE((74,78,80,76));
#100=IFCINDEXEDPOLYGONALFACE((81,82,84,83));
#101=IFCINDEXEDPOLYGONALFACE((85,87,88,86));
#102=IFCINDEXEDPOLYGONALFACE((81,85,86,82));
#103=IFCINDEXEDPOLYGONALFACE((83,84,88,87));
#104=IFCINDEXEDPOLYGONALFACE((81,83,87,85));
#105=IFCINDEXEDPOLYGONALFACE((82,86,88,84));
#106=IFCINDEXEDPOLYGONALFACE((89,90,92,91));
#107=IFCINDEXEDPOLYGONALFACE((93,95,96,94));
#108=IFCINDEXEDPOLYGONALFACE((89,93,94,90));
#109=IFCINDEXEDPOLYGONALFACE((91,92,96,95));
#110=IFCINDEXEDPOLYGONALFACE((89,91,95,93));
#111=IFCINDEXEDPOLYGONALFACE((90,94,96,92));
#112=IFCINDEXEDPOLYGONALFACE((97,98,100,99));
#113=IFCINDEXEDPOLYGONALFACE((101,103,104,102));
#114=IFCINDEXEDPOLYGONALFACE((97,101,102,98));
#115=IFCINDEXEDPOLYGONALFACE((99,100,104,103));
#116=IFCINDEXEDPOLYGONALFACE((97,99,103,101));
#117=IFCINDEXEDPOLYGONALFACE((98,102,104,100));
#118=IFCINDEXEDPOLYGONALFACE((105,106,108,107));
#119=IFCINDEXEDPOLYGONALFACE((109,111,112,110));
#120=IFCINDEXEDPOLYGONALFACE((105,109,110,106));
#121=IFCINDEXEDPOLYGONALFACE((107,108,112,111));
#122=IFCINDEXEDPOLYGONALFACE((105,107,111,109));
#123=IFCINDEXEDPOLYGONALFACE((106,110,112,108));
#124=IFCPOLYGONALFACESET(#39,$,(#40,#41,#42,#43,#44,#45,#46,#47,#48,#49,#50,#51,#52,#53,#54,#55,#56,#57,#58,#59,#60,#61,#62,#63,#64,#65,#66,#67,#68,#69,#70,#71,#72,#73,#74,#75,#76,#77,#78,#79,#80,#81,#82,#83,#84,#85,#86,#87,#88,#89,#90,#91,#92,#93,#94,#95,#96,#97,#98,#99,#100,#101,#102,#103,#104,#105,#106,#107,#108,#109,#110,#111,#112,#113,#114,#115,#116,#117,#118,#119,#120,#121,#122,#123),$);
#125=IFCSHAPEREPRESENTATION(#13,'Body','Tessellation',(#124));
#126=IFCPRODUCTDEFINITIONSHAPE($,$,(#125));
#127=IFCRELCONTAINEDINSPATIALSTRUCTURE('2iHJIPeF5UEOQq3bqQHmYx',$,$,$,(#28),#3);
#128=IFCCARTESIANPOINT((0.,0.,0.));
#129=IFCAXIS2PLACEMENT3D(#128,$,$);
#130=IFCLOCALPLACEMENT($,#129);
ENDSEC;
END-ISO-10303-21;
