ISO-10303-21;
HEADER;
FILE_DESCRIPTION(('ViewDefinition [CoordinationView]'),'2;1');
FILE_NAME('LM3-TRC-P070.ifc','2026-08-30T00:00:00+00:00',('OpenSourceRail'),('OpenSourceRail'),'IfcOpenShell 0.8.5','OpenSourceRail deterministic LM3 product-library exporter','design-reference / not for construction');
FILE_SCHEMA(('IFC4X3_ADD2'));
ENDSEC;
DATA;
#1=IFCPROJECT('3gI8Bk73XSi8T6cJg3xulk',$,'LM3-TRC-P070 \X2\2014\X0\ HV contactor, fuse, pre-charge, service-disconnect, and current-sensor panel','Design-reference geometry and assembly hierarchy only; supplier freeze, released drawings/tolerances, calculations, qualified processes and first-article tests remain mandatory.',$,$,$,(#12),#7);
#2=IFCSITE('0djS4iqKvJ4R8PSokp$zrp',$,'LM3 product library',$,$,#18,$,$,.ELEMENT.,$,$,$,$,$);
#3=IFCBUILDING('2YwvZ9ORvP1xF9fiFEbLGg',$,'LM3 assembly inspection fixture',$,$,#21,$,$,.ELEMENT.,$,$,$);
#4=IFCSIUNIT(*,.LENGTHUNIT.,$,.METRE.);
#5=IFCSIUNIT(*,.AREAUNIT.,$,.SQUARE_METRE.);
#6=IFCSIUNIT(*,.VOLUMEUNIT.,$,.CUBIC_METRE.);
#7=IFCUNITASSIGNMENT((#6,#4,#5));
#8=IFCCARTESIANPOINT((0.,0.,0.));
#9=IFCDIRECTION((0.,0.,1.));
#10=IFCDIRECTION((1.,0.,0.));
#11=IFCAXIS2PLACEMENT3D(#8,#9,#10);
#12=IFCGEOMETRICREPRESENTATIONCONTEXT($,'Model',3,1.0000000000000001E-05,#11,$);
#13=IFCGEOMETRICREPRESENTATIONSUBCONTEXT('Body','Model',*,*,*,*,#12,$,.MODEL_VIEW.,$);
#14=IFCRELAGGREGATES('26jHSWmkHH5eTv5JfuTkGB',$,$,$,#1,(#2));
#15=IFCRELAGGREGATES('0qpnlU5D5VWeXHDOFVJiTz',$,$,$,#2,(#3));
#16=IFCCARTESIANPOINT((0.,0.,0.));
#17=IFCAXIS2PLACEMENT3D(#16,$,$);
#18=IFCLOCALPLACEMENT($,#17);
#19=IFCCARTESIANPOINT((0.,0.,0.));
#20=IFCAXIS2PLACEMENT3D(#19,$,$);
#21=IFCLOCALPLACEMENT($,#20);
#22=IFCPROPERTYSINGLEVALUE('Status',$,IFCTEXT('design-reference-not-released'),$);
#23=IFCPROPERTYSINGLEVALUE('ReleaseBoundary',$,IFCTEXT('Design-reference geometry and assembly hierarchy only; supplier freeze, released drawings/tolerances, calculations, qualified processes and first-article tests remain mandatory.'),$);
#24=IFCPROPERTYSINGLEVALUE('Manifest',$,IFCTEXT('design/component-catalogue/catalog/buildable-trainset/buildable-trainset-manifest.json'),$);
#25=IFCPROPERTYSINGLEVALUE('ManifestSha256',$,IFCTEXT('4c2ec91449f361762556e35852f8b914e3bcec03c1b9f940d8c756e5db7cf7a5'),$);
#26=IFCPROPERTYSET('3ytOcNi35G$R7jMegiq_Jl',$,'OSR_ProductLibrary',$,(#22,#23,#24,#25));
#27=IFCRELDEFINESBYPROPERTIES('22bvXEKrzHv8KjZvo_nU3o',$,$,$,(#1),#26);
#28=IFCELECTRICDISTRIBUTIONBOARD('06AOl_rEfOLe0tn24E3E3T',$,'HV contactor, fuse, pre-charge, service-disconnect, and current-sensor panel','Supplier-certified high-voltage protection panel between battery, charger, PV, and inverter.',$,#100,#96,'LM3-TRC-P070',$);
#29=IFCPROPERTYSINGLEVALUE('OSRId',$,IFCTEXT('LM3-TRC-P070'),$);
#30=IFCPROPERTYSINGLEVALUE('Parent',$,IFCTEXT('LM3-HV-SA510'),$);
#31=IFCPROPERTYSINGLEVALUE('Route',$,IFCTEXT('SOURCE'),$);
#32=IFCPROPERTYSINGLEVALUE('Maturity',$,IFCTEXT('buildable-after-supplier-freeze'),$);
#33=IFCPROPERTYSINGLEVALUE('QuantityPerTrainset',$,IFCINTEGER(3),$);
#34=IFCPROPERTYSINGLEVALUE('Unit',$,IFCTEXT('car kit'),$);
#35=IFCPROPERTYSINGLEVALUE('GeometryStatus',$,IFCTEXT('design-reference-not-released'),$);
#36=IFCPROPERTYSINGLEVALUE('GeometryLevel',$,IFCTEXT('coordination-envelope'),$);
#37=IFCPROPERTYSET('3bioGaznnNhxBbPWk$3Lhn',$,'OSR_ProductDefinition',$,(#29,#30,#31,#32,#33,#34,#35,#36));
#38=IFCRELDEFINESBYPROPERTIES('3LrvhNHjLTXBonN6EAs0oi',$,$,$,(#28),#37);
#39=IFCCARTESIANPOINTLIST3D(((-0.75,-0.20999999999999999,-0.52500000000000002),(-0.75,-0.20999999999999999,0.52500000000000002),(-0.75,0.20999999999999999,-0.52500000000000002),(-0.75,0.20999999999999999,0.52500000000000002),(0.75,-0.20999999999999999,-0.52500000000000002),(0.75,-0.20999999999999999,0.52500000000000002),(0.75,0.20999999999999999,-0.52500000000000002),(0.75,0.20999999999999999,0.52500000000000002),(-0.73499999999999999,-0.13019999999999998,-0.40949999999999998),(-0.73499999999999999,-0.13019999999999998,-0.11550000000000001),(-0.73499999999999999,0.13019999999999998,-0.40949999999999998),(-0.73499999999999999,0.13019999999999998,-0.11550000000000001),(-0.40500000000000003,-0.13019999999999998,-0.40949999999999998),(-0.40500000000000003,-0.13019999999999998,-0.11550000000000001),(-0.40500000000000003,0.13019999999999998,-0.40949999999999998),(-0.40500000000000003,0.13019999999999998,-0.11550000000000001),(-0.16500000000000001,-0.13019999999999998,-0.40949999999999998),(-0.16500000000000001,-0.13019999999999998,-0.11550000000000001),(-0.16500000000000001,0.13019999999999998,-0.40949999999999998),(-0.16500000000000001,0.13019999999999998,-0.11550000000000001),(0.16500000000000001,-0.13019999999999998,-0.40949999999999998),(0.16500000000000001,-0.13019999999999998,-0.11550000000000001),(0.16500000000000001,0.13019999999999998,-0.40949999999999998),(0.16500000000000001,0.13019999999999998,-0.11550000000000001),(0.40500000000000003,-0.13019999999999998,-0.40949999999999998),(0.40500000000000003,-0.13019999999999998,-0.11550000000000001),(0.40500000000000003,0.13019999999999998,-0.40949999999999998),(0.40500000000000003,0.13019999999999998,-0.11550000000000001),(0.73499999999999999,-0.13019999999999998,-0.40949999999999998),(0.73499999999999999,-0.13019999999999998,-0.11550000000000001),(0.73499999999999999,0.13019999999999998,-0.40949999999999998),(0.73499999999999999,0.13019999999999998,-0.11550000000000001),(-0.73499999999999999,-0.13019999999999998,0.11550000000000001),(-0.73499999999999999,-0.13019999999999998,0.40949999999999998),(-0.73499999999999999,0.13019999999999998,0.11550000000000001),(-0.73499999999999999,0.13019999999999998,0.40949999999999998),(-0.40500000000000003,-0.13019999999999998,0.11550000000000001),(-0.40500000000000003,-0.13019999999999998,0.40949999999999998),(-0.40500000000000003,0.13019999999999998,0.11550000000000001),(-0.40500000000000003,0.13019999999999998,0.40949999999999998),(-0.16500000000000001,-0.13019999999999998,0.11550000000000001),(-0.16500000000000001,-0.13019999999999998,0.40949999999999998),(-0.16500000000000001,0.13019999999999998,0.11550000000000001),(-0.16500000000000001,0.13019999999999998,0.40949999999999998),(0.16500000000000001,-0.13019999999999998,0.11550000000000001),(0.16500000000000001,-0.13019999999999998,0.40949999999999998),(0.16500000000000001,0.13019999999999998,0.11550000000000001),(0.16500000000000001,0.13019999999999998,0.40949999999999998),(0.40500000000000003,-0.13019999999999998,0.11550000000000001),(0.40500000000000003,-0.13019999999999998,0.40949999999999998),(0.40500000000000003,0.13019999999999998,0.11550000000000001),(0.40500000000000003,0.13019999999999998,0.40949999999999998),(0.73499999999999999,-0.13019999999999998,0.11550000000000001),(0.73499999999999999,-0.13019999999999998,0.40949999999999998),(0.73499999999999999,0.13019999999999998,0.11550000000000001),(0.73499999999999999,0.13019999999999998,0.40949999999999998),(-0.52500000000000002,0.15120000000000003,0.34649999999999997),(-0.52500000000000002,0.15120000000000003,0.45150000000000001),(-0.52500000000000002,0.2016,0.34649999999999997),(-0.52500000000000002,0.2016,0.45150000000000001),(0.52500000000000002,0.15120000000000003,0.34649999999999997),(0.52500000000000002,0.15120000000000003,0.45150000000000001),(0.52500000000000002,0.2016,0.34649999999999997),(0.52500000000000002,0.2016,0.45150000000000001),(0.40500000000000003,-0.20580000000000001,-0.46200000000000002),(0.40500000000000003,-0.20580000000000001,-0.27300000000000002),(0.40500000000000003,-0.11339999999999999,-0.46200000000000002),(0.40500000000000003,-0.11339999999999999,-0.27300000000000002),(0.73499999999999999,-0.20580000000000001,-0.46200000000000002),(0.73499999999999999,-0.20580000000000001,-0.27300000000000002),(0.73499999999999999,-0.11339999999999999,-0.46200000000000002),(0.73499999999999999,-0.11339999999999999,-0.27300000000000002)),$);
#40=IFCINDEXEDPOLYGONALFACE((1,2,4,3));
#41=IFCINDEXEDPOLYGONALFACE((5,7,8,6));
#42=IFCINDEXEDPOLYGONALFACE((1,5,6,2));
#43=IFCINDEXEDPOLYGONALFACE((3,4,8,7));
#44=IFCINDEXEDPOLYGONALFACE((1,3,7,5));
#45=IFCINDEXEDPOLYGONALFACE((2,6,8,4));
#46=IFCINDEXEDPOLYGONALFACE((9,10,12,11));
#47=IFCINDEXEDPOLYGONALFACE((13,15,16,14));
#48=IFCINDEXEDPOLYGONALFACE((9,13,14,10));
#49=IFCINDEXEDPOLYGONALFACE((11,12,16,15));
#50=IFCINDEXEDPOLYGONALFACE((9,11,15,13));
#51=IFCINDEXEDPOLYGONALFACE((10,14,16,12));
#52=IFCINDEXEDPOLYGONALFACE((17,18,20,19));
#53=IFCINDEXEDPOLYGONALFACE((21,23,24,22));
#54=IFCINDEXEDPOLYGONALFACE((17,21,22,18));
#55=IFCINDEXEDPOLYGONALFACE((19,20,24,23));
#56=IFCINDEXEDPOLYGONALFACE((17,19,23,21));
#57=IFCINDEXEDPOLYGONALFACE((18,22,24,20));
#58=IFCINDEXEDPOLYGONALFACE((25,26,28,27));
#59=IFCINDEXEDPOLYGONALFACE((29,31,32,30));
#60=IFCINDEXEDPOLYGONALFACE((25,29,30,26));
#61=IFCINDEXEDPOLYGONALFACE((27,28,32,31));
#62=IFCINDEXEDPOLYGONALFACE((25,27,31,29));
#63=IFCINDEXEDPOLYGONALFACE((26,30,32,28));
#64=IFCINDEXEDPOLYGONALFACE((33,34,36,35));
#65=IFCINDEXEDPOLYGONALFACE((37,39,40,38));
#66=IFCINDEXEDPOLYGONALFACE((33,37,38,34));
#67=IFCINDEXEDPOLYGONALFACE((35,36,40,39));
#68=IFCINDEXEDPOLYGONALFACE((33,35,39,37));
#69=IFCINDEXEDPOLYGONALFACE((34,38,40,36));
#70=IFCINDEXEDPOLYGONALFACE((41,42,44,43));
#71=IFCINDEXEDPOLYGONALFACE((45,47,48,46));
#72=IFCINDEXEDPOLYGONALFACE((41,45,46,42));
#73=IFCINDEXEDPOLYGONALFACE((43,44,48,47));
#74=IFCINDEXEDPOLYGONALFACE((41,43,47,45));
#75=IFCINDEXEDPOLYGONALFACE((42,46,48,44));
#76=IFCINDEXEDPOLYGONALFACE((49,50,52,51));
#77=IFCINDEXEDPOLYGONALFACE((53,55,56,54));
#78=IFCINDEXEDPOLYGONALFACE((49,53,54,50));
#79=IFCINDEXEDPOLYGONALFACE((51,52,56,55));
#80=IFCINDEXEDPOLYGONALFACE((49,51,55,53));
#81=IFCINDEXEDPOLYGONALFACE((50,54,56,52));
#82=IFCINDEXEDPOLYGONALFACE((57,58,60,59));
#83=IFCINDEXEDPOLYGONALFACE((61,63,64,62));
#84=IFCINDEXEDPOLYGONALFACE((57,61,62,58));
#85=IFCINDEXEDPOLYGONALFACE((59,60,64,63));
#86=IFCINDEXEDPOLYGONALFACE((57,59,63,61));
#87=IFCINDEXEDPOLYGONALFACE((58,62,64,60));
#88=IFCINDEXEDPOLYGONALFACE((65,66,68,67));
#89=IFCINDEXEDPOLYGONALFACE((69,71,72,70));
#90=IFCINDEXEDPOLYGONALFACE((65,69,70,66));
#91=IFCINDEXEDPOLYGONALFACE((67,68,72,71));
#92=IFCINDEXEDPOLYGONALFACE((65,67,71,69));
#93=IFCINDEXEDPOLYGONALFACE((66,70,72,68));
#94=IFCPOLYGONALFACESET(#39,$,(#40,#41,#42,#43,#44,#45,#46,#47,#48,#49,#50,#51,#52,#53,#54,#55,#56,#57,#58,#59,#60,#61,#62,#63,#64,#65,#66,#67,#68,#69,#70,#71,#72,#73,#74,#75,#76,#77,#78,#79,#80,#81,#82,#83,#84,#85,#86,#87,#88,#89,#90,#91,#92,#93),$);
#95=IFCSHAPEREPRESENTATION(#13,'Body','Tessellation',(#94));
#96=IFCPRODUCTDEFINITIONSHAPE($,$,(#95));
#97=IFCRELCONTAINEDINSPATIALSTRUCTURE('0Mrd2xs2vQjwYrSLnMmLaH',$,$,$,(#28),#3);
#98=IFCCARTESIANPOINT((0.,0.,0.));
#99=IFCAXIS2PLACEMENT3D(#98,$,$);
#100=IFCLOCALPLACEMENT($,#99);
ENDSEC;
END-ISO-10303-21;
