ISO-10303-21;
HEADER;
FILE_DESCRIPTION(('ViewDefinition [CoordinationView]'),'2;1');
FILE_NAME('LM3-BOG-P046.ifc','2026-08-30T00:00:00+00:00',('OpenSourceRail'),('OpenSourceRail'),'IfcOpenShell 0.8.5','OpenSourceRail deterministic LM3 product-library exporter','design-reference / not for construction');
FILE_SCHEMA(('IFC4X3_ADD2'));
ENDSEC;
DATA;
#1=IFCPROJECT('0BxaVk_BTPYg4KvMen_xdo',$,'LM3-BOG-P046 \X2\2014\X0\ powered-bogie to carbody connection: air springs, emergency spring, centre pivot, yaw links and dampers','Design-reference geometry and assembly hierarchy only; supplier freeze, released drawings/tolerances, calculations, qualified processes and first-article tests remain mandatory.',$,$,$,(#12),#7);
#2=IFCSITE('2MdZO8T25Megj5XInHMxu0',$,'LM3 product library',$,$,#18,$,$,.ELEMENT.,$,$,$,$,$);
#3=IFCBUILDING('050d9E38zH3ujE3841myUf',$,'LM3 assembly inspection fixture',$,$,#21,$,$,.ELEMENT.,$,$,$);
#4=IFCSIUNIT(*,.LENGTHUNIT.,$,.METRE.);
#5=IFCSIUNIT(*,.AREAUNIT.,$,.SQUARE_METRE.);
#6=IFCSIUNIT(*,.VOLUMEUNIT.,$,.CUBIC_METRE.);
#7=IFCUNITASSIGNMENT((#6,#4,#5));
#8=IFCCARTESIANPOINT((0.,0.,0.));
#9=IFCDIRECTION((0.,0.,1.));
#10=IFCDIRECTION((1.,0.,0.));
#11=IFCAXIS2PLACEMENT3D(#8,#9,#10);
#12=IFCGEOMETRICREPRESENTATIONCONTEXT($,'Model',3,1.0000000000000001E-05,#11,$);
#13=IFCGEOMETRICREPRESENTATIONSUBCONTEXT('Body','Model',*,*,*,*,#12,$,.MODEL_VIEW.,$);
#14=IFCRELAGGREGATES('3t5Cf$9DbLlgRq54OOKYkI',$,$,$,#1,(#2));
#15=IFCRELAGGREGATES('2nWtM1w_9MFfJFI9x4WqfZ',$,$,$,#2,(#3));
#16=IFCCARTESIANPOINT((0.,0.,0.));
#17=IFCAXIS2PLACEMENT3D(#16,$,$);
#18=IFCLOCALPLACEMENT($,#17);
#19=IFCCARTESIANPOINT((0.,0.,0.));
#20=IFCAXIS2PLACEMENT3D(#19,$,$);
#21=IFCLOCALPLACEMENT($,#20);
#22=IFCPROPERTYSINGLEVALUE('Status',$,IFCTEXT('design-reference-not-released'),$);
#23=IFCPROPERTYSINGLEVALUE('ReleaseBoundary',$,IFCTEXT('Design-reference geometry and assembly hierarchy only; supplier freeze, released drawings/tolerances, calculations, qualified processes and first-article tests remain mandatory.'),$);
#24=IFCPROPERTYSINGLEVALUE('Manifest',$,IFCTEXT('design/component-catalogue/catalog/buildable-trainset/buildable-trainset-manifest.json'),$);
#25=IFCPROPERTYSINGLEVALUE('ManifestSha256',$,IFCTEXT('7654747909805305ce2018109b5b649c4817a8f8c44a3ec8f2e8a6f74d48243e'),$);
#26=IFCPROPERTYSET('1arDaQIrnTfAn5Ae250Q2x',$,'OSR_ProductLibrary',$,(#22,#23,#24,#25));
#27=IFCRELDEFINESBYPROPERTIES('2RYSGmW15SrB86CBBMwofK',$,$,$,(#1),#26);
#28=IFCBUILDINGELEMENTPROXY('1cv8iAWfTJFBiNXE6TNsPg',$,'powered-bogie to carbody connection: air springs, emergency spring, centre pivot, yaw links and dampers','The complete body-to-bogie load path is one interface-controlled package even when springs, pivot and dampers are sourced from different qualified suppliers.',$,#244,#240,'LM3-BOG-P046',$);
#29=IFCPROPERTYSINGLEVALUE('OSRId',$,IFCTEXT('LM3-BOG-P046'),$);
#30=IFCPROPERTYSINGLEVALUE('Parent',$,IFCTEXT('LM3-BOG-SA610'),$);
#31=IFCPROPERTYSINGLEVALUE('Route',$,IFCTEXT('BID'),$);
#32=IFCPROPERTYSINGLEVALUE('Maturity',$,IFCTEXT('buildable-after-supplier-freeze'),$);
#33=IFCPROPERTYSINGLEVALUE('QuantityPerTrainset',$,IFCINTEGER(3),$);
#34=IFCPROPERTYSINGLEVALUE('Unit',$,IFCTEXT('bogie set'),$);
#35=IFCPROPERTYSINGLEVALUE('GeometryStatus',$,IFCTEXT('design-reference-not-released'),$);
#36=IFCPROPERTYSINGLEVALUE('GeometryLevel',$,IFCTEXT('coordination-envelope'),$);
#37=IFCPROPERTYSET('0WpCHD5DDH2vT$UrYoXyk_',$,'OSR_ProductDefinition',$,(#29,#30,#31,#32,#33,#34,#35,#36));
#38=IFCRELDEFINESBYPROPERTIES('0d8NCGA1PLpPR$xy8SccB_',$,$,$,(#28),#37);
#39=IFCCARTESIANPOINTLIST3D(((-0.38,-0.79200000000000004,-0.32500000000000001),(-0.39115911428470501,-0.72154412528251199,-0.32500000000000001),(-0.42354412528251195,-0.65798496247731619,-0.32500000000000001),(-0.47398496247731614,-0.607544125282512,-0.32500000000000001),(-0.53754412528251194,-0.57515911428470501,-0.32500000000000001),(-0.60799999999999998,-0.56400000000000006,-0.32500000000000001),(-0.67845587471748803,-0.57515911428470501,-0.32500000000000001),(-0.74201503752268383,-0.607544125282512,-0.32500000000000001),(-0.79245587471748791,-0.65798496247731619,-0.32500000000000001),(-0.8248408857152949,-0.72154412528251199,-0.32500000000000001),(-0.83599999999999997,-0.79200000000000004,-0.32500000000000001),(-0.82484088571529501,-0.86245587471748797,-0.32500000000000001),(-0.79245587471748802,-0.92601503752268388,-0.32500000000000001),(-0.74201503752268394,-0.97645587471748807,-0.32500000000000001),(-0.67845587471748803,-1.0088408857152951,-0.32500000000000001),(-0.60799999999999998,-1.02,-0.32500000000000001),(-0.53754412528251205,-1.0088408857152951,-0.32500000000000001),(-0.47398496247731614,-0.97645587471748807,-0.32500000000000001),(-0.42354412528251201,-0.92601503752268399,-0.32500000000000001),(-0.39115911428470501,-0.86245587471748808,-0.32500000000000001),(-0.38,-0.79200000000000004,0.32500000000000001),(-0.39115911428470501,-0.72154412528251199,0.32500000000000001),(-0.42354412528251195,-0.65798496247731619,0.32500000000000001),(-0.47398496247731614,-0.607544125282512,0.32500000000000001),(-0.53754412528251194,-0.57515911428470501,0.32500000000000001),(-0.60799999999999998,-0.56400000000000006,0.32500000000000001),(-0.67845587471748803,-0.57515911428470501,0.32500000000000001),(-0.74201503752268383,-0.607544125282512,0.32500000000000001),(-0.79245587471748791,-0.65798496247731619,0.32500000000000001),(-0.8248408857152949,-0.72154412528251199,0.32500000000000001),(-0.83599999999999997,-0.79200000000000004,0.32500000000000001),(-0.82484088571529501,-0.86245587471748797,0.32500000000000001),(-0.79245587471748802,-0.92601503752268388,0.32500000000000001),(-0.74201503752268394,-0.97645587471748807,0.32500000000000001),(-0.67845587471748803,-1.0088408857152951,0.32500000000000001),(-0.60799999999999998,-1.02,0.32500000000000001),(-0.53754412528251205,-1.0088408857152951,0.32500000000000001),(-0.47398496247731614,-0.97645587471748807,0.32500000000000001),(-0.42354412528251201,-0.92601503752268399,0.32500000000000001),(-0.39115911428470501,-0.86245587471748808,0.32500000000000001),(-0.38,0.79200000000000004,-0.32500000000000001),(-0.39115911428470501,0.86245587471748808,-0.32500000000000001),(-0.42354412528251195,0.92601503752268388,-0.32500000000000001),(-0.47398496247731614,0.97645587471748807,-0.32500000000000001),(-0.53754412528251194,1.0088408857152951,-0.32500000000000001),(-0.60799999999999998,1.02,-0.32500000000000001),(-0.67845587471748803,1.0088408857152951,-0.32500000000000001),(-0.74201503752268383,0.97645587471748807,-0.32500000000000001),(-0.79245587471748791,0.92601503752268388,-0.32500000000000001),(-0.8248408857152949,0.86245587471748808,-0.32500000000000001),(-0.83599999999999997,0.79200000000000004,-0.32500000000000001),(-0.82484088571529501,0.72154412528251211,-0.32500000000000001),(-0.79245587471748802,0.65798496247731619,-0.32500000000000001),(-0.74201503752268394,0.607544125282512,-0.32500000000000001),(-0.67845587471748803,0.57515911428470501,-0.32500000000000001),(-0.60799999999999998,0.56400000000000006,-0.32500000000000001),(-0.53754412528251205,0.57515911428470501,-0.32500000000000001),(-0.47398496247731614,0.607544125282512,-0.32500000000000001),(-0.42354412528251201,0.65798496247731608,-0.32500000000000001),(-0.39115911428470501,0.72154412528251199,-0.32500000000000001),(-0.38,0.79200000000000004,0.32500000000000001),(-0.39115911428470501,0.86245587471748808,0.32500000000000001),(-0.42354412528251195,0.92601503752268388,0.32500000000000001),(-0.47398496247731614,0.97645587471748807,0.32500000000000001),(-0.53754412528251194,1.0088408857152951,0.32500000000000001),(-0.60799999999999998,1.02,0.32500000000000001),(-0.67845587471748803,1.0088408857152951,0.32500000000000001),(-0.74201503752268383,0.97645587471748807,0.32500000000000001),(-0.79245587471748791,0.92601503752268388,0.32500000000000001),(-0.8248408857152949,0.86245587471748808,0.32500000000000001),(-0.83599999999999997,0.79200000000000004,0.32500000000000001),(-0.82484088571529501,0.72154412528251211,0.32500000000000001),(-0.79245587471748802,0.65798496247731619,0.32500000000000001),(-0.74201503752268394,0.607544125282512,0.32500000000000001),(-0.67845587471748803,0.57515911428470501,0.32500000000000001),(-0.60799999999999998,0.56400000000000006,0.32500000000000001),(-0.53754412528251205,0.57515911428470501,0.32500000000000001),(-0.47398496247731614,0.607544125282512,0.32500000000000001),(-0.42354412528251201,0.65798496247731608,0.32500000000000001),(-0.39115911428470501,0.72154412528251199,0.32500000000000001),(0.83599999999999997,-0.79200000000000004,-0.32500000000000001),(0.8248408857152949,-0.72154412528251199,-0.32500000000000001),(0.79245587471748802,-0.65798496247731619,-0.32500000000000001),(0.74201503752268383,-0.607544125282512,-0.32500000000000001),(0.67845587471748803,-0.57515911428470501,-0.32500000000000001),(0.60799999999999998,-0.56400000000000006,-0.32500000000000001),(0.53754412528251194,-0.57515911428470501,-0.32500000000000001),(0.47398496247731614,-0.607544125282512,-0.32500000000000001),(0.42354412528251201,-0.65798496247731619,-0.32500000000000001),(0.39115911428470501,-0.72154412528251199,-0.32500000000000001),(0.38,-0.79200000000000004,-0.32500000000000001),(0.39115911428470496,-0.86245587471748797,-0.32500000000000001),(0.42354412528251195,-0.92601503752268388,-0.32500000000000001),(0.47398496247731609,-0.97645587471748807,-0.32500000000000001),(0.53754412528251194,-1.0088408857152951,-0.32500000000000001),(0.60799999999999998,-1.02,-0.32500000000000001),(0.67845587471748792,-1.0088408857152951,-0.32500000000000001),(0.74201503752268383,-0.97645587471748807,-0.32500000000000001),(0.79245587471748791,-0.92601503752268399,-0.32500000000000001),(0.8248408857152949,-0.86245587471748808,-0.32500000000000001),(0.83599999999999997,-0.79200000000000004,0.32500000000000001),(0.8248408857152949,-0.72154412528251199,0.32500000000000001),(0.79245587471748802,-0.65798496247731619,0.32500000000000001),(0.74201503752268383,-0.607544125282512,0.32500000000000001),(0.67845587471748803,-0.57515911428470501,0.32500000000000001),(0.60799999999999998,-0.56400000000000006,0.32500000000000001),(0.53754412528251194,-0.57515911428470501,0.32500000000000001),(0.47398496247731614,-0.607544125282512,0.32500000000000001),(0.42354412528251201,-0.65798496247731619,0.32500000000000001),(0.39115911428470501,-0.72154412528251199,0.32500000000000001),(0.38,-0.79200000000000004,0.32500000000000001),(0.39115911428470496,-0.86245587471748797,0.32500000000000001),(0.42354412528251195,-0.92601503752268388,0.32500000000000001),(0.47398496247731609,-0.97645587471748807,0.32500000000000001),(0.53754412528251194,-1.0088408857152951,0.32500000000000001),(0.60799999999999998,-1.02,0.32500000000000001),(0.67845587471748792,-1.0088408857152951,0.32500000000000001),(0.74201503752268383,-0.97645587471748807,0.32500000000000001),(0.79245587471748791,-0.92601503752268399,0.32500000000000001),(0.8248408857152949,-0.86245587471748808,0.32500000000000001),(0.83599999999999997,0.79200000000000004,-0.32500000000000001),(0.8248408857152949,0.86245587471748808,-0.32500000000000001),(0.79245587471748802,0.92601503752268388,-0.32500000000000001),(0.74201503752268383,0.97645587471748807,-0.32500000000000001),(0.67845587471748803,1.0088408857152951,-0.32500000000000001),(0.60799999999999998,1.02,-0.32500000000000001),(0.53754412528251194,1.0088408857152951,-0.32500000000000001),(0.47398496247731614,0.97645587471748807,-0.32500000000000001),(0.42354412528251201,0.92601503752268388,-0.32500000000000001),(0.39115911428470501,0.86245587471748808,-0.32500000000000001),(0.38,0.79200000000000004,-0.32500000000000001),(0.39115911428470496,0.72154412528251211,-0.32500000000000001),(0.42354412528251195,0.65798496247731619,-0.32500000000000001),(0.47398496247731609,0.607544125282512,-0.32500000000000001),(0.53754412528251194,0.57515911428470501,-0.32500000000000001),(0.60799999999999998,0.56400000000000006,-0.32500000000000001),(0.67845587471748792,0.57515911428470501,-0.32500000000000001),(0.74201503752268383,0.607544125282512,-0.32500000000000001),(0.79245587471748791,0.65798496247731608,-0.32500000000000001),(0.8248408857152949,0.72154412528251199,-0.32500000000000001),(0.83599999999999997,0.79200000000000004,0.32500000000000001),(0.8248408857152949,0.86245587471748808,0.32500000000000001),(0.79245587471748802,0.92601503752268388,0.32500000000000001),(0.74201503752268383,0.97645587471748807,0.32500000000000001),(0.67845587471748803,1.0088408857152951,0.32500000000000001),(0.60799999999999998,1.02,0.32500000000000001),(0.53754412528251194,1.0088408857152951,0.32500000000000001),(0.47398496247731614,0.97645587471748807,0.32500000000000001),(0.42354412528251201,0.92601503752268388,0.32500000000000001),(0.39115911428470501,0.86245587471748808,0.32500000000000001),(0.38,0.79200000000000004,0.32500000000000001),(0.39115911428470496,0.72154412528251211,0.32500000000000001),(0.42354412528251195,0.65798496247731619,0.32500000000000001),(0.47398496247731609,0.607544125282512,0.32500000000000001),(0.53754412528251194,0.57515911428470501,0.32500000000000001),(0.60799999999999998,0.56400000000000006,0.32500000000000001),(0.67845587471748792,0.57515911428470501,0.32500000000000001),(0.74201503752268383,0.607544125282512,0.32500000000000001),(0.79245587471748791,0.65798496247731608,0.32500000000000001),(0.8248408857152949,0.72154412528251199,0.32500000000000001),(0.38500000000000001,0.,-0.058500000000000003),(0.36615675877363413,0.11897154283435475,-0.058500000000000003),(0.3114715428343548,0.22629732213260217,-0.058500000000000003),(0.22629732213260217,0.3114715428343548,-0.058500000000000003),(0.11897154283435477,0.36615675877363413,-0.058500000000000003),(2.3574450883586549E-17,0.38500000000000001,-0.058500000000000003),(-0.11897154283435472,0.36615675877363418,-0.058500000000000003),(-0.22629732213260212,0.3114715428343548,-0.058500000000000003),(-0.31147154283435474,0.2262973221326022,-0.058500000000000003),(-0.36615675877363413,0.11897154283435479,-0.058500000000000003),(-0.38500000000000001,4.7148901767173099E-17,-0.058500000000000003),(-0.36615675877363418,-0.11897154283435456,-0.058500000000000003),(-0.3114715428343548,-0.22629732213260212,-0.058500000000000003),(-0.2262973221326022,-0.31147154283435474,-0.058500000000000003),(-0.11897154283435482,-0.36615675877363413,-0.058500000000000003),(-7.0723352650759645E-17,-0.38500000000000001,-0.058500000000000003),(0.11897154283435468,-0.36615675877363418,-0.058500000000000003),(0.22629732213260209,-0.3114715428343548,-0.058500000000000003),(0.31147154283435474,-0.22629732213260226,-0.058500000000000003),(0.36615675877363413,-0.11897154283435483,-0.058500000000000003),(0.38500000000000001,0.,0.058500000000000003),(0.36615675877363413,0.11897154283435475,0.058500000000000003),(0.3114715428343548,0.22629732213260217,0.058500000000000003),(0.22629732213260217,0.3114715428343548,0.058500000000000003),(0.11897154283435477,0.36615675877363413,0.058500000000000003),(2.3574450883586549E-17,0.38500000000000001,0.058500000000000003),(-0.11897154283435472,0.36615675877363418,0.058500000000000003),(-0.22629732213260212,0.3114715428343548,0.058500000000000003),(-0.31147154283435474,0.2262973221326022,0.058500000000000003),(-0.36615675877363413,0.11897154283435479,0.058500000000000003),(-0.38500000000000001,4.7148901767173099E-17,0.058500000000000003),(-0.36615675877363418,-0.11897154283435456,0.058500000000000003),(-0.3114715428343548,-0.22629732213260212,0.058500000000000003),(-0.2262973221326022,-0.31147154283435474,0.058500000000000003),(-0.11897154283435482,-0.36615675877363413,0.058500000000000003),(-7.0723352650759645E-17,-0.38500000000000001,0.058500000000000003),(0.11897154283435468,-0.36615675877363418,0.058500000000000003),(0.22629732213260209,-0.3114715428343548,0.058500000000000003),(0.31147154283435474,-0.22629732213260226,0.058500000000000003),(0.36615675877363413,-0.11897154283435483,0.058500000000000003),(-0.66500000000000004,0.,-0.26650000000000001),(-0.6696496309519604,0.029356614465619994,-0.26650000000000001),(-0.68314338553438003,0.055839598967784933,-0.26650000000000001),(-0.70416040103221511,0.076856614465619991,-0.26650000000000001),(-0.73064338553438002,0.090350369048039558,-0.26650000000000001),(-0.76000000000000001,0.094999999999999973,-0.26650000000000001),(-0.78935661446562,0.090350369048039572,-0.26650000000000001),(-0.81583959896778491,0.076856614465619991,-0.26650000000000001),(-0.83685661446561999,0.05583959896778494,-0.26650000000000001),(-0.85035036904803962,0.029356614465620004,-0.26650000000000001),(-0.85499999999999998,1.1634144591899853E-17,-0.26650000000000001),(-0.85035036904803962,-0.029356614465619948,-0.26650000000000001),(-0.83685661446561999,-0.055839598967784919,-0.26650000000000001),(-0.81583959896778491,-0.076856614465619977,-0.26650000000000001),(-0.78935661446562,-0.090350369048039558,-0.26650000000000001),(-0.76000000000000001,-0.094999999999999973,-0.26650000000000001),(-0.73064338553438002,-0.090350369048039572,-0.26650000000000001),(-0.70416040103221511,-0.076856614465619991,-0.26650000000000001),(-0.68314338553438003,-0.055839598967784954,-0.26650000000000001),(-0.6696496309519604,-0.029356614465620014,-0.26650000000000001),(-0.66500000000000004,0.,0.26650000000000001),(-0.6696496309519604,0.029356614465619994,0.26650000000000001),(-0.68314338553438003,0.055839598967784933,0.26650000000000001),(-0.70416040103221511,0.076856614465619991,0.26650000000000001),(-0.73064338553438002,0.090350369048039558,0.26650000000000001),(-0.76000000000000001,0.094999999999999973,0.26650000000000001),(-0.78935661446562,0.090350369048039572,0.26650000000000001),(-0.81583959896778491,0.076856614465619991,0.26650000000000001),(-0.83685661446561999,0.05583959896778494,0.26650000000000001),(-0.85035036904803962,0.029356614465620004,0.26650000000000001),(-0.85499999999999998,1.1634144591899853E-17,0.26650000000000001),(-0.85035036904803962,-0.029356614465619948,0.26650000000000001),(-0.83685661446561999,-0.055839598967784919,0.26650000000000001),(-0.81583959896778491,-0.076856614465619977,0.26650000000000001),(-0.78935661446562,-0.090350369048039558,0.26650000000000001),(-0.76000000000000001,-0.094999999999999973,0.26650000000000001),(-0.73064338553438002,-0.090350369048039572,0.26650000000000001),(-0.70416040103221511,-0.076856614465619991,0.26650000000000001),(-0.68314338553438003,-0.055839598967784954,0.26650000000000001),(-0.6696496309519604,-0.029356614465620014,0.26650000000000001),(0.088000000000000023,-0.79200000000000004,-0.14624999999999999),(0.083692973433973528,-0.76480650449500465,-0.14624999999999999),(0.071193495504995388,-0.74027489779826239,-0.14624999999999999),(0.051725102201737649,-0.72080650449500461,-0.14624999999999999),(0.027193495504995384,-0.70830702656602651,-0.14624999999999999),(5.3884459162483553E-18,-0.70399999999999996,-0.14624999999999999),(-0.027193495504995373,-0.70830702656602651,-0.14624999999999999),(-0.051725102201737642,-0.72080650449500461,-0.14624999999999999),(-0.071193495504995388,-0.74027489779826239,-0.14624999999999999),(-0.083692973433973528,-0.76480650449500465,-0.14624999999999999),(-0.088000000000000023,-0.79200000000000004,-0.14624999999999999),(-0.083692973433973555,-0.81919349550499532,-0.14624999999999999),(-0.071193495504995402,-0.84372510220173769,-0.14624999999999999),(-0.051725102201737656,-0.86319349550499547,-0.14624999999999999),(-0.027193495504995391,-0.87569297343397356,-0.14624999999999999),(-1.6165337748745067E-17,-0.88000000000000012,-0.14624999999999999),(0.027193495504995363,-0.87569297343397356,-0.14624999999999999),(0.051725102201737629,-0.86319349550499547,-0.14624999999999999),(0.071193495504995388,-0.84372510220173769,-0.14624999999999999),(0.083692973433973528,-0.81919349550499543,-0.14624999999999999),(0.088000000000000023,-0.79200000000000004,-0.087749999999999995),(0.083692973433973528,-0.76480650449500465,-0.087749999999999995),(0.071193495504995388,-0.74027489779826239,-0.087749999999999995),(0.051725102201737649,-0.72080650449500461,-0.087749999999999995),(0.027193495504995384,-0.70830702656602651,-0.087749999999999995),(5.3884459162483553E-18,-0.70399999999999996,-0.087749999999999995),(-0.027193495504995373,-0.70830702656602651,-0.087749999999999995),(-0.051725102201737642,-0.72080650449500461,-0.087749999999999995),(-0.071193495504995388,-0.74027489779826239,-0.087749999999999995),(-0.083692973433973528,-0.76480650449500465,-0.087749999999999995),(-0.088000000000000023,-0.79200000000000004,-0.087749999999999995),(-0.083692973433973555,-0.81919349550499532,-0.087749999999999995),(-0.071193495504995402,-0.84372510220173769,-0.087749999999999995),(-0.051725102201737656,-0.86319349550499547,-0.087749999999999995),(-0.027193495504995391,-0.87569297343397356,-0.087749999999999995),(-1.6165337748745067E-17,-0.88000000000000012,-0.087749999999999995),(0.027193495504995363,-0.87569297343397356,-0.087749999999999995),(0.051725102201737629,-0.86319349550499547,-0.087749999999999995),(0.071193495504995388,-0.84372510220173769,-0.087749999999999995),(0.083692973433973528,-0.81919349550499543,-0.087749999999999995),(0.85499999999999998,0.,-0.26650000000000001),(0.85035036904803962,0.029356614465619994,-0.26650000000000001),(0.83685661446561999,0.055839598967784933,-0.26650000000000001),(0.81583959896778491,0.076856614465619991,-0.26650000000000001),(0.78935661446562,0.090350369048039558,-0.26650000000000001),(0.76000000000000001,0.094999999999999973,-0.26650000000000001),(0.73064338553438002,0.090350369048039572,-0.26650000000000001),(0.70416040103221511,0.076856614465619991,-0.26650000000000001),(0.68314338553438003,0.05583959896778494,-0.26650000000000001),(0.6696496309519604,0.029356614465620004,-0.26650000000000001),(0.66500000000000004,1.1634144591899853E-17,-0.26650000000000001),(0.6696496309519604,-0.029356614465619948,-0.26650000000000001),(0.68314338553438003,-0.055839598967784919,-0.26650000000000001),(0.70416040103221511,-0.076856614465619977,-0.26650000000000001),(0.73064338553438002,-0.090350369048039558,-0.26650000000000001),(0.76000000000000001,-0.094999999999999973,-0.26650000000000001),(0.78935661446562,-0.090350369048039572,-0.26650000000000001),(0.81583959896778491,-0.076856614465619991,-0.26650000000000001),(0.83685661446561999,-0.055839598967784954,-0.26650000000000001),(0.85035036904803962,-0.029356614465620014,-0.26650000000000001),(0.85499999999999998,0.,0.26650000000000001),(0.85035036904803962,0.029356614465619994,0.26650000000000001),(0.83685661446561999,0.055839598967784933,0.26650000000000001),(0.81583959896778491,0.076856614465619991,0.26650000000000001),(0.78935661446562,0.090350369048039558,0.26650000000000001),(0.76000000000000001,0.094999999999999973,0.26650000000000001),(0.73064338553438002,0.090350369048039572,0.26650000000000001),(0.70416040103221511,0.076856614465619991,0.26650000000000001),(0.68314338553438003,0.05583959896778494,0.26650000000000001),(0.6696496309519604,0.029356614465620004,0.26650000000000001),(0.66500000000000004,1.1634144591899853E-17,0.26650000000000001),(0.6696496309519604,-0.029356614465619948,0.26650000000000001),(0.68314338553438003,-0.055839598967784919,0.26650000000000001),(0.70416040103221511,-0.076856614465619977,0.26650000000000001),(0.73064338553438002,-0.090350369048039558,0.26650000000000001),(0.76000000000000001,-0.094999999999999973,0.26650000000000001),(0.78935661446562,-0.090350369048039572,0.26650000000000001),(0.81583959896778491,-0.076856614465619991,0.26650000000000001),(0.83685661446561999,-0.055839598967784954,0.26650000000000001),(0.85035036904803962,-0.029356614465620014,0.26650000000000001),(0.088000000000000023,0.79200000000000004,-0.14624999999999999),(0.083692973433973528,0.81919349550499543,-0.14624999999999999),(0.071193495504995388,0.84372510220173769,-0.14624999999999999),(0.051725102201737649,0.86319349550499547,-0.14624999999999999),(0.027193495504995384,0.87569297343397356,-0.14624999999999999),(5.3884459162483553E-18,0.88000000000000012,-0.14624999999999999),(-0.027193495504995373,0.87569297343397356,-0.14624999999999999),(-0.051725102201737642,0.86319349550499547,-0.14624999999999999),(-0.071193495504995388,0.84372510220173769,-0.14624999999999999),(-0.083692973433973528,0.81919349550499543,-0.14624999999999999),(-0.088000000000000023,0.79200000000000004,-0.14624999999999999),(-0.083692973433973555,0.76480650449500476,-0.14624999999999999),(-0.071193495504995402,0.74027489779826239,-0.14624999999999999),(-0.051725102201737656,0.72080650449500461,-0.14624999999999999),(-0.027193495504995391,0.70830702656602651,-0.14624999999999999),(-1.6165337748745067E-17,0.70399999999999996,-0.14624999999999999),(0.027193495504995363,0.70830702656602651,-0.14624999999999999),(0.051725102201737629,0.72080650449500461,-0.14624999999999999),(0.071193495504995388,0.74027489779826239,-0.14624999999999999),(0.083692973433973528,0.76480650449500465,-0.14624999999999999),(0.088000000000000023,0.79200000000000004,-0.087749999999999995),(0.083692973433973528,0.81919349550499543,-0.087749999999999995),(0.071193495504995388,0.84372510220173769,-0.087749999999999995),(0.051725102201737649,0.86319349550499547,-0.087749999999999995),(0.027193495504995384,0.87569297343397356,-0.087749999999999995),(5.3884459162483553E-18,0.88000000000000012,-0.087749999999999995),(-0.027193495504995373,0.87569297343397356,-0.087749999999999995),(-0.051725102201737642,0.86319349550499547,-0.087749999999999995),(-0.071193495504995388,0.84372510220173769,-0.087749999999999995),(-0.083692973433973528,0.81919349550499543,-0.087749999999999995),(-0.088000000000000023,0.79200000000000004,-0.087749999999999995),(-0.083692973433973555,0.76480650449500476,-0.087749999999999995),(-0.071193495504995402,0.74027489779826239,-0.087749999999999995),(-0.051725102201737656,0.72080650449500461,-0.087749999999999995),(-0.027193495504995391,0.70830702656602651,-0.087749999999999995),(-1.6165337748745067E-17,0.70399999999999996,-0.087749999999999995),(0.027193495504995363,0.70830702656602651,-0.087749999999999995),(0.051725102201737629,0.72080650449500461,-0.087749999999999995),(0.071193495504995388,0.74027489779826239,-0.087749999999999995),(0.083692973433973528,0.76480650449500465,-0.087749999999999995)),$);
#40=IFCINDEXEDPOLYGONALFACE((20,19,18,17,16,15,14,13,12,11,10,9,8,7,6,5,4,3,2,1));
#41=IFCINDEXEDPOLYGONALFACE((21,22,23,24,25,26,27,28,29,30,31,32,33,34,35,36,37,38,39,40));
#42=IFCINDEXEDPOLYGONALFACE((1,2,22,21));
#43=IFCINDEXEDPOLYGONALFACE((2,3,23,22));
#44=IFCINDEXEDPOLYGONALFACE((3,4,24,23));
#45=IFCINDEXEDPOLYGONALFACE((4,5,25,24));
#46=IFCINDEXEDPOLYGONALFACE((5,6,26,25));
#47=IFCINDEXEDPOLYGONALFACE((6,7,27,26));
#48=IFCINDEXEDPOLYGONALFACE((7,8,28,27));
#49=IFCINDEXEDPOLYGONALFACE((8,9,29,28));
#50=IFCINDEXEDPOLYGONALFACE((9,10,30,29));
#51=IFCINDEXEDPOLYGONALFACE((10,11,31,30));
#52=IFCINDEXEDPOLYGONALFACE((11,12,32,31));
#53=IFCINDEXEDPOLYGONALFACE((12,13,33,32));
#54=IFCINDEXEDPOLYGONALFACE((13,14,34,33));
#55=IFCINDEXEDPOLYGONALFACE((14,15,35,34));
#56=IFCINDEXEDPOLYGONALFACE((15,16,36,35));
#57=IFCINDEXEDPOLYGONALFACE((16,17,37,36));
#58=IFCINDEXEDPOLYGONALFACE((17,18,38,37));
#59=IFCINDEXEDPOLYGONALFACE((18,19,39,38));
#60=IFCINDEXEDPOLYGONALFACE((19,20,40,39));
#61=IFCINDEXEDPOLYGONALFACE((20,1,21,40));
#62=IFCINDEXEDPOLYGONALFACE((60,59,58,57,56,55,54,53,52,51,50,49,48,47,46,45,44,43,42,41));
#63=IFCINDEXEDPOLYGONALFACE((61,62,63,64,65,66,67,68,69,70,71,72,73,74,75,76,77,78,79,80));
#64=IFCINDEXEDPOLYGONALFACE((41,42,62,61));
#65=IFCINDEXEDPOLYGONALFACE((42,43,63,62));
#66=IFCINDEXEDPOLYGONALFACE((43,44,64,63));
#67=IFCINDEXEDPOLYGONALFACE((44,45,65,64));
#68=IFCINDEXEDPOLYGONALFACE((45,46,66,65));
#69=IFCINDEXEDPOLYGONALFACE((46,47,67,66));
#70=IFCINDEXEDPOLYGONALFACE((47,48,68,67));
#71=IFCINDEXEDPOLYGONALFACE((48,49,69,68));
#72=IFCINDEXEDPOLYGONALFACE((49,50,70,69));
#73=IFCINDEXEDPOLYGONALFACE((50,51,71,70));
#74=IFCINDEXEDPOLYGONALFACE((51,52,72,71));
#75=IFCINDEXEDPOLYGONALFACE((52,53,73,72));
#76=IFCINDEXEDPOLYGONALFACE((53,54,74,73));
#77=IFCINDEXEDPOLYGONALFACE((54,55,75,74));
#78=IFCINDEXEDPOLYGONALFACE((55,56,76,75));
#79=IFCINDEXEDPOLYGONALFACE((56,57,77,76));
#80=IFCINDEXEDPOLYGONALFACE((57,58,78,77));
#81=IFCINDEXEDPOLYGONALFACE((58,59,79,78));
#82=IFCINDEXEDPOLYGONALFACE((59,60,80,79));
#83=IFCINDEXEDPOLYGONALFACE((60,41,61,80));
#84=IFCINDEXEDPOLYGONALFACE((100,99,98,97,96,95,94,93,92,91,90,89,88,87,86,85,84,83,82,81));
#85=IFCINDEXEDPOLYGONALFACE((101,102,103,104,105,106,107,108,109,110,111,112,113,114,115,116,117,118,119,120));
#86=IFCINDEXEDPOLYGONALFACE((81,82,102,101));
#87=IFCINDEXEDPOLYGONALFACE((82,83,103,102));
#88=IFCINDEXEDPOLYGONALFACE((83,84,104,103));
#89=IFCINDEXEDPOLYGONALFACE((84,85,105,104));
#90=IFCINDEXEDPOLYGONALFACE((85,86,106,105));
#91=IFCINDEXEDPOLYGONALFACE((86,87,107,106));
#92=IFCINDEXEDPOLYGONALFACE((87,88,108,107));
#93=IFCINDEXEDPOLYGONALFACE((88,89,109,108));
#94=IFCINDEXEDPOLYGONALFACE((89,90,110,109));
#95=IFCINDEXEDPOLYGONALFACE((90,91,111,110));
#96=IFCINDEXEDPOLYGONALFACE((91,92,112,111));
#97=IFCINDEXEDPOLYGONALFACE((92,93,113,112));
#98=IFCINDEXEDPOLYGONALFACE((93,94,114,113));
#99=IFCINDEXEDPOLYGONALFACE((94,95,115,114));
#100=IFCINDEXEDPOLYGONALFACE((95,96,116,115));
#101=IFCINDEXEDPOLYGONALFACE((96,97,117,116));
#102=IFCINDEXEDPOLYGONALFACE((97,98,118,117));
#103=IFCINDEXEDPOLYGONALFACE((98,99,119,118));
#104=IFCINDEXEDPOLYGONALFACE((99,100,120,119));
#105=IFCINDEXEDPOLYGONALFACE((100,81,101,120));
#106=IFCINDEXEDPOLYGONALFACE((140,139,138,137,136,135,134,133,132,131,130,129,128,127,126,125,124,123,122,121));
#107=IFCINDEXEDPOLYGONALFACE((141,142,143,144,145,146,147,148,149,150,151,152,153,154,155,156,157,158,159,160));
#108=IFCINDEXEDPOLYGONALFACE((121,122,142,141));
#109=IFCINDEXEDPOLYGONALFACE((122,123,143,142));
#110=IFCINDEXEDPOLYGONALFACE((123,124,144,143));
#111=IFCINDEXEDPOLYGONALFACE((124,125,145,144));
#112=IFCINDEXEDPOLYGONALFACE((125,126,146,145));
#113=IFCINDEXEDPOLYGONALFACE((126,127,147,146));
#114=IFCINDEXEDPOLYGONALFACE((127,128,148,147));
#115=IFCINDEXEDPOLYGONALFACE((128,129,149,148));
#116=IFCINDEXEDPOLYGONALFACE((129,130,150,149));
#117=IFCINDEXEDPOLYGONALFACE((130,131,151,150));
#118=IFCINDEXEDPOLYGONALFACE((131,132,152,151));
#119=IFCINDEXEDPOLYGONALFACE((132,133,153,152));
#120=IFCINDEXEDPOLYGONALFACE((133,134,154,153));
#121=IFCINDEXEDPOLYGONALFACE((134,135,155,154));
#122=IFCINDEXEDPOLYGONALFACE((135,136,156,155));
#123=IFCINDEXEDPOLYGONALFACE((136,137,157,156));
#124=IFCINDEXEDPOLYGONALFACE((137,138,158,157));
#125=IFCINDEXEDPOLYGONALFACE((138,139,159,158));
#126=IFCINDEXEDPOLYGONALFACE((139,140,160,159));
#127=IFCINDEXEDPOLYGONALFACE((140,121,141,160));
#128=IFCINDEXEDPOLYGONALFACE((180,179,178,177,176,175,174,173,172,171,170,169,168,167,166,165,164,163,162,161));
#129=IFCINDEXEDPOLYGONALFACE((181,182,183,184,185,186,187,188,189,190,191,192,193,194,195,196,197,198,199,200));
#130=IFCINDEXEDPOLYGONALFACE((161,162,182,181));
#131=IFCINDEXEDPOLYGONALFACE((162,163,183,182));
#132=IFCINDEXEDPOLYGONALFACE((163,164,184,183));
#133=IFCINDEXEDPOLYGONALFACE((164,165,185,184));
#134=IFCINDEXEDPOLYGONALFACE((165,166,186,185));
#135=IFCINDEXEDPOLYGONALFACE((166,167,187,186));
#136=IFCINDEXEDPOLYGONALFACE((167,168,188,187));
#137=IFCINDEXEDPOLYGONALFACE((168,169,189,188));
#138=IFCINDEXEDPOLYGONALFACE((169,170,190,189));
#139=IFCINDEXEDPOLYGONALFACE((170,171,191,190));
#140=IFCINDEXEDPOLYGONALFACE((171,172,192,191));
#141=IFCINDEXEDPOLYGONALFACE((172,173,193,192));
#142=IFCINDEXEDPOLYGONALFACE((173,174,194,193));
#143=IFCINDEXEDPOLYGONALFACE((174,175,195,194));
#144=IFCINDEXEDPOLYGONALFACE((175,176,196,195));
#145=IFCINDEXEDPOLYGONALFACE((176,177,197,196));
#146=IFCINDEXEDPOLYGONALFACE((177,178,198,197));
#147=IFCINDEXEDPOLYGONALFACE((178,179,199,198));
#148=IFCINDEXEDPOLYGONALFACE((179,180,200,199));
#149=IFCINDEXEDPOLYGONALFACE((180,161,181,200));
#150=IFCINDEXEDPOLYGONALFACE((220,219,218,217,216,215,214,213,212,211,210,209,208,207,206,205,204,203,202,201));
#151=IFCINDEXEDPOLYGONALFACE((221,222,223,224,225,226,227,228,229,230,231,232,233,234,235,236,237,238,239,240));
#152=IFCINDEXEDPOLYGONALFACE((201,202,222,221));
#153=IFCINDEXEDPOLYGONALFACE((202,203,223,222));
#154=IFCINDEXEDPOLYGONALFACE((203,204,224,223));
#155=IFCINDEXEDPOLYGONALFACE((204,205,225,224));
#156=IFCINDEXEDPOLYGONALFACE((205,206,226,225));
#157=IFCINDEXEDPOLYGONALFACE((206,207,227,226));
#158=IFCINDEXEDPOLYGONALFACE((207,208,228,227));
#159=IFCINDEXEDPOLYGONALFACE((208,209,229,228));
#160=IFCINDEXEDPOLYGONALFACE((209,210,230,229));
#161=IFCINDEXEDPOLYGONALFACE((210,211,231,230));
#162=IFCINDEXEDPOLYGONALFACE((211,212,232,231));
#163=IFCINDEXEDPOLYGONALFACE((212,213,233,232));
#164=IFCINDEXEDPOLYGONALFACE((213,214,234,233));
#165=IFCINDEXEDPOLYGONALFACE((214,215,235,234));
#166=IFCINDEXEDPOLYGONALFACE((215,216,236,235));
#167=IFCINDEXEDPOLYGONALFACE((216,217,237,236));
#168=IFCINDEXEDPOLYGONALFACE((217,218,238,237));
#169=IFCINDEXEDPOLYGONALFACE((218,219,239,238));
#170=IFCINDEXEDPOLYGONALFACE((219,220,240,239));
#171=IFCINDEXEDPOLYGONALFACE((220,201,221,240));
#172=IFCINDEXEDPOLYGONALFACE((260,259,258,257,256,255,254,253,252,251,250,249,248,247,246,245,244,243,242,241));
#173=IFCINDEXEDPOLYGONALFACE((261,262,263,264,265,266,267,268,269,270,271,272,273,274,275,276,277,278,279,280));
#174=IFCINDEXEDPOLYGONALFACE((241,242,262,261));
#175=IFCINDEXEDPOLYGONALFACE((242,243,263,262));
#176=IFCINDEXEDPOLYGONALFACE((243,244,264,263));
#177=IFCINDEXEDPOLYGONALFACE((244,245,265,264));
#178=IFCINDEXEDPOLYGONALFACE((245,246,266,265));
#179=IFCINDEXEDPOLYGONALFACE((246,247,267,266));
#180=IFCINDEXEDPOLYGONALFACE((247,248,268,267));
#181=IFCINDEXEDPOLYGONALFACE((248,249,269,268));
#182=IFCINDEXEDPOLYGONALFACE((249,250,270,269));
#183=IFCINDEXEDPOLYGONALFACE((250,251,271,270));
#184=IFCINDEXEDPOLYGONALFACE((251,252,272,271));
#185=IFCINDEXEDPOLYGONALFACE((252,253,273,272));
#186=IFCINDEXEDPOLYGONALFACE((253,254,274,273));
#187=IFCINDEXEDPOLYGONALFACE((254,255,275,274));
#188=IFCINDEXEDPOLYGONALFACE((255,256,276,275));
#189=IFCINDEXEDPOLYGONALFACE((256,257,277,276));
#190=IFCINDEXEDPOLYGONALFACE((257,258,278,277));
#191=IFCINDEXEDPOLYGONALFACE((258,259,279,278));
#192=IFCINDEXEDPOLYGONALFACE((259,260,280,279));
#193=IFCINDEXEDPOLYGONALFACE((260,241,261,280));
#194=IFCINDEXEDPOLYGONALFACE((300,299,298,297,296,295,294,293,292,291,290,289,288,287,286,285,284,283,282,281));
#195=IFCINDEXEDPOLYGONALFACE((301,302,303,304,305,306,307,308,309,310,311,312,313,314,315,316,317,318,319,320));
#196=IFCINDEXEDPOLYGONALFACE((281,282,302,301));
#197=IFCINDEXEDPOLYGONALFACE((282,283,303,302));
#198=IFCINDEXEDPOLYGONALFACE((283,284,304,303));
#199=IFCINDEXEDPOLYGONALFACE((284,285,305,304));
#200=IFCINDEXEDPOLYGONALFACE((285,286,306,305));
#201=IFCINDEXEDPOLYGONALFACE((286,287,307,306));
#202=IFCINDEXEDPOLYGONALFACE((287,288,308,307));
#203=IFCINDEXEDPOLYGONALFACE((288,289,309,308));
#204=IFCINDEXEDPOLYGONALFACE((289,290,310,309));
#205=IFCINDEXEDPOLYGONALFACE((290,291,311,310));
#206=IFCINDEXEDPOLYGONALFACE((291,292,312,311));
#207=IFCINDEXEDPOLYGONALFACE((292,293,313,312));
#208=IFCINDEXEDPOLYGONALFACE((293,294,314,313));
#209=IFCINDEXEDPOLYGONALFACE((294,295,315,314));
#210=IFCINDEXEDPOLYGONALFACE((295,296,316,315));
#211=IFCINDEXEDPOLYGONALFACE((296,297,317,316));
#212=IFCINDEXEDPOLYGONALFACE((297,298,318,317));
#213=IFCINDEXEDPOLYGONALFACE((298,299,319,318));
#214=IFCINDEXEDPOLYGONALFACE((299,300,320,319));
#215=IFCINDEXEDPOLYGONALFACE((300,281,301,320));
#216=IFCINDEXEDPOLYGONALFACE((340,339,338,337,336,335,334,333,332,331,330,329,328,327,326,325,324,323,322,321));
#217=IFCINDEXEDPOLYGONALFACE((341,342,343,344,345,346,347,348,349,350,351,352,353,354,355,356,357,358,359,360));
#218=IFCINDEXEDPOLYGONALFACE((321,322,342,341));
#219=IFCINDEXEDPOLYGONALFACE((322,323,343,342));
#220=IFCINDEXEDPOLYGONALFACE((323,324,344,343));
#221=IFCINDEXEDPOLYGONALFACE((324,325,345,344));
#222=IFCINDEXEDPOLYGONALFACE((325,326,346,345));
#223=IFCINDEXEDPOLYGONALFACE((326,327,347,346));
#224=IFCINDEXEDPOLYGONALFACE((327,328,348,347));
#225=IFCINDEXEDPOLYGONALFACE((328,329,349,348));
#226=IFCINDEXEDPOLYGONALFACE((329,330,350,349));
#227=IFCINDEXEDPOLYGONALFACE((330,331,351,350));
#228=IFCINDEXEDPOLYGONALFACE((331,332,352,351));
#229=IFCINDEXEDPOLYGONALFACE((332,333,353,352));
#230=IFCINDEXEDPOLYGONALFACE((333,334,354,353));
#231=IFCINDEXEDPOLYGONALFACE((334,335,355,354));
#232=IFCINDEXEDPOLYGONALFACE((335,336,356,355));
#233=IFCINDEXEDPOLYGONALFACE((336,337,357,356));
#234=IFCINDEXEDPOLYGONALFACE((337,338,358,357));
#235=IFCINDEXEDPOLYGONALFACE((338,339,359,358));
#236=IFCINDEXEDPOLYGONALFACE((339,340,360,359));
#237=IFCINDEXEDPOLYGONALFACE((340,321,341,360));
#238=IFCPOLYGONALFACESET(#39,$,(#40,#41,#42,#43,#44,#45,#46,#47,#48,#49,#50,#51,#52,#53,#54,#55,#56,#57,#58,#59,#60,#61,#62,#63,#64,#65,#66,#67,#68,#69,#70,#71,#72,#73,#74,#75,#76,#77,#78,#79,#80,#81,#82,#83,#84,#85,#86,#87,#88,#89,#90,#91,#92,#93,#94,#95,#96,#97,#98,#99,#100,#101,#102,#103,#104,#105,#106,#107,#108,#109,#110,#111,#112,#113,#114,#115,#116,#117,#118,#119,#120,#121,#122,#123,#124,#125,#126,#127,#128,#129,#130,#131,#132,#133,#134,#135,#136,#137,#138,#139,#140,#141,#142,#143,#144,#145,#146,#147,#148,#149,#150,#151,#152,#153,#154,#155,#156,#157,#158,#159,#160,#161,#162,#163,#164,#165,#166,#167,#168,#169,#170,#171,#172,#173,#174,#175,#176,#177,#178,#179,#180,#181,#182,#183,#184,#185,#186,#187,#188,#189,#190,#191,#192,#193,#194,#195,#196,#197,#198,#199,#200,#201,#202,#203,#204,#205,#206,#207,#208,#209,#210,#211,#212,#213,#214,#215,#216,#217,#218,#219,#220,#221,#222,#223,#224,#225,#226,#227,#228,#229,#230,#231,#232,#233,#234,#235,#236,#237),$);
#239=IFCSHAPEREPRESENTATION(#13,'Body','Tessellation',(#238));
#240=IFCPRODUCTDEFINITIONSHAPE($,$,(#239));
#241=IFCRELCONTAINEDINSPATIALSTRUCTURE('3YErLA3yPUhODn07YxJuvA',$,$,$,(#28),#3);
#242=IFCCARTESIANPOINT((0.,0.,0.));
#243=IFCAXIS2PLACEMENT3D(#242,$,$);
#244=IFCLOCALPLACEMENT($,#243);
ENDSEC;
END-ISO-10303-21;
