ISO-10303-21;
HEADER;
FILE_DESCRIPTION(('ViewDefinition [CoordinationView]'),'2;1');
FILE_NAME('LM3-BDY-P110.ifc','2026-08-30T00:00:00+00:00',('OpenSourceRail'),('OpenSourceRail'),'IfcOpenShell 0.8.5','OpenSourceRail deterministic LM3 product-library exporter','design-reference / not for construction');
FILE_SCHEMA(('IFC4X3_ADD2'));
ENDSEC;
DATA;
#1=IFCPROJECT('23CF0GogrOQPrRAmNvjt3x',$,'LM3-BDY-P110 \X2\2014\X0\ window carrier ring, bonded-gasket land, and replacement jack-point inserts','Design-reference geometry and assembly hierarchy only; supplier freeze, released drawings/tolerances, calculations, qualified processes and first-article tests remain mandatory.',$,$,$,(#12),#7);
#2=IFCSITE('2VxEh2d0TTzBjhg8yYjipt',$,'LM3 product library',$,$,#18,$,$,.ELEMENT.,$,$,$,$,$);
#3=IFCBUILDING('1bC8n4$XfHHOgNfKeXCLwD',$,'LM3 assembly inspection fixture',$,$,#21,$,$,.ELEMENT.,$,$,$);
#4=IFCSIUNIT(*,.LENGTHUNIT.,$,.METRE.);
#5=IFCSIUNIT(*,.AREAUNIT.,$,.SQUARE_METRE.);
#6=IFCSIUNIT(*,.VOLUMEUNIT.,$,.CUBIC_METRE.);
#7=IFCUNITASSIGNMENT((#6,#4,#5));
#8=IFCCARTESIANPOINT((0.,0.,0.));
#9=IFCDIRECTION((0.,0.,1.));
#10=IFCDIRECTION((1.,0.,0.));
#11=IFCAXIS2PLACEMENT3D(#8,#9,#10);
#12=IFCGEOMETRICREPRESENTATIONCONTEXT($,'Model',3,1.0000000000000001E-05,#11,$);
#13=IFCGEOMETRICREPRESENTATIONSUBCONTEXT('Body','Model',*,*,*,*,#12,$,.MODEL_VIEW.,$);
#14=IFCRELAGGREGATES('00$URoKH9VoecPFqXgbUmE',$,$,$,#1,(#2));
#15=IFCRELAGGREGATES('0Jj2x44wbMJvJoK9_Q$geM',$,$,$,#2,(#3));
#16=IFCCARTESIANPOINT((0.,0.,0.));
#17=IFCAXIS2PLACEMENT3D(#16,$,$);
#18=IFCLOCALPLACEMENT($,#17);
#19=IFCCARTESIANPOINT((0.,0.,0.));
#20=IFCAXIS2PLACEMENT3D(#19,$,$);
#21=IFCLOCALPLACEMENT($,#20);
#22=IFCPROPERTYSINGLEVALUE('Status',$,IFCTEXT('design-reference-not-released'),$);
#23=IFCPROPERTYSINGLEVALUE('ReleaseBoundary',$,IFCTEXT('Design-reference geometry and assembly hierarchy only; supplier freeze, released drawings/tolerances, calculations, qualified processes and first-article tests remain mandatory.'),$);
#24=IFCPROPERTYSINGLEVALUE('Manifest',$,IFCTEXT('design/component-catalogue/catalog/buildable-trainset/buildable-trainset-manifest.json'),$);
#25=IFCPROPERTYSINGLEVALUE('ManifestSha256',$,IFCTEXT('1179a30e147f3569fc4ccc8ce621621cec7985f620d2c788f8da93eec9ed7c05'),$);
#26=IFCPROPERTYSET('1u6y4tipvSMR2cAF1NqFgr',$,'OSR_ProductLibrary',$,(#22,#23,#24,#25));
#27=IFCRELDEFINESBYPROPERTIES('0keuhs4bvP2vFezVId7Igf',$,$,$,(#1),#26);
#28=IFCBUILDINGELEMENTPROXY('2vUTUC5afJMgu5mC5otMkH',$,'window carrier ring, bonded-gasket land, and replacement jack-point inserts','Laser-cut carrier ring and local backing plates for bonded/gasketed glazing replacement.',$,#70,#66,'LM3-BDY-P110',$);
#29=IFCPROPERTYSINGLEVALUE('OSRId',$,IFCTEXT('LM3-BDY-P110'),$);
#30=IFCPROPERTYSINGLEVALUE('Parent',$,IFCTEXT('LM3-WIN-SA320'),$);
#31=IFCPROPERTYSINGLEVALUE('Route',$,IFCTEXT('MAKE'),$);
#32=IFCPROPERTYSINGLEVALUE('Maturity',$,IFCTEXT('release-candidate'),$);
#33=IFCPROPERTYSINGLEVALUE('QuantityPerTrainset',$,IFCINTEGER(18),$);
#34=IFCPROPERTYSINGLEVALUE('Unit',$,IFCTEXT('opening kit'),$);
#35=IFCPROPERTYSINGLEVALUE('GeometryStatus',$,IFCTEXT('design-reference-not-released'),$);
#36=IFCPROPERTYSINGLEVALUE('GeometryLevel',$,IFCTEXT('interface-detailed'),$);
#37=IFCPROPERTYSET('1cfgexezDQogyOSpeg_sr5',$,'OSR_ProductDefinition',$,(#29,#30,#31,#32,#33,#34,#35,#36));
#38=IFCRELDEFINESBYPROPERTIES('2yn4SiDl1SmhqN40XJQ8rK',$,$,$,(#28),#37);
#39=IFCCARTESIANPOINTLIST3D(((-0.82499999999999996,-0.070000000000000007,-0.625),(-0.82499999999999996,-0.070000000000000007,0.625),(-0.82499999999999996,0.070000000000000007,-0.625),(-0.82499999999999996,0.070000000000000007,0.625),(-0.69999999999999996,-0.070000000000000007,-0.625),(-0.69999999999999996,-0.070000000000000007,0.625),(-0.69999999999999996,0.070000000000000007,-0.625),(-0.69999999999999996,0.070000000000000007,0.625),(0.69999999999999996,-0.070000000000000007,-0.625),(0.69999999999999996,-0.070000000000000007,0.625),(0.69999999999999996,0.070000000000000007,-0.625),(0.69999999999999996,0.070000000000000007,0.625),(0.82499999999999996,-0.070000000000000007,-0.625),(0.82499999999999996,-0.070000000000000007,0.625),(0.82499999999999996,0.070000000000000007,-0.625),(0.82499999999999996,0.070000000000000007,0.625),(-0.69999999999999996,-0.070000000000000007,0.5),(-0.69999999999999996,-0.070000000000000007,0.625),(-0.69999999999999996,0.070000000000000007,0.5),(-0.69999999999999996,0.070000000000000007,0.625),(0.69999999999999996,-0.070000000000000007,0.5),(0.69999999999999996,-0.070000000000000007,0.625),(0.69999999999999996,0.070000000000000007,0.5),(0.69999999999999996,0.070000000000000007,0.625),(-0.69999999999999996,-0.070000000000000007,-0.625),(-0.69999999999999996,-0.070000000000000007,-0.5),(-0.69999999999999996,0.070000000000000007,-0.625),(-0.69999999999999996,0.070000000000000007,-0.5),(0.69999999999999996,-0.070000000000000007,-0.625),(0.69999999999999996,-0.070000000000000007,-0.5),(0.69999999999999996,0.070000000000000007,-0.625),(0.69999999999999996,0.070000000000000007,-0.5)),$);
#40=IFCINDEXEDPOLYGONALFACE((1,2,4,3));
#41=IFCINDEXEDPOLYGONALFACE((5,7,8,6));
#42=IFCINDEXEDPOLYGONALFACE((1,5,6,2));
#43=IFCINDEXEDPOLYGONALFACE((3,4,8,7));
#44=IFCINDEXEDPOLYGONALFACE((1,3,7,5));
#45=IFCINDEXEDPOLYGONALFACE((2,6,8,4));
#46=IFCINDEXEDPOLYGONALFACE((9,10,12,11));
#47=IFCINDEXEDPOLYGONALFACE((13,15,16,14));
#48=IFCINDEXEDPOLYGONALFACE((9,13,14,10));
#49=IFCINDEXEDPOLYGONALFACE((11,12,16,15));
#50=IFCINDEXEDPOLYGONALFACE((9,11,15,13));
#51=IFCINDEXEDPOLYGONALFACE((10,14,16,12));
#52=IFCINDEXEDPOLYGONALFACE((17,18,20,19));
#53=IFCINDEXEDPOLYGONALFACE((21,23,24,22));
#54=IFCINDEXEDPOLYGONALFACE((17,21,22,18));
#55=IFCINDEXEDPOLYGONALFACE((19,20,24,23));
#56=IFCINDEXEDPOLYGONALFACE((17,19,23,21));
#57=IFCINDEXEDPOLYGONALFACE((18,22,24,20));
#58=IFCINDEXEDPOLYGONALFACE((25,26,28,27));
#59=IFCINDEXEDPOLYGONALFACE((29,31,32,30));
#60=IFCINDEXEDPOLYGONALFACE((25,29,30,26));
#61=IFCINDEXEDPOLYGONALFACE((27,28,32,31));
#62=IFCINDEXEDPOLYGONALFACE((25,27,31,29));
#63=IFCINDEXEDPOLYGONALFACE((26,30,32,28));
#64=IFCPOLYGONALFACESET(#39,$,(#40,#41,#42,#43,#44,#45,#46,#47,#48,#49,#50,#51,#52,#53,#54,#55,#56,#57,#58,#59,#60,#61,#62,#63),$);
#65=IFCSHAPEREPRESENTATION(#13,'Body','Tessellation',(#64));
#66=IFCPRODUCTDEFINITIONSHAPE($,$,(#65));
#67=IFCRELCONTAINEDINSPATIALSTRUCTURE('0cTZvZx5TIjul7ZXK8V04I',$,$,$,(#28),#3);
#68=IFCCARTESIANPOINT((0.,0.,0.));
#69=IFCAXIS2PLACEMENT3D(#68,$,$);
#70=IFCLOCALPLACEMENT($,#69);
ENDSEC;
END-ISO-10303-21;
