ISO-10303-21;
HEADER;
FILE_DESCRIPTION(('ViewDefinition [CoordinationView]'),'2;1');
FILE_NAME('LM3-END-P060.ifc','2026-08-30T00:00:00+00:00',('OpenSourceRail'),('OpenSourceRail'),'IfcOpenShell 0.8.5','OpenSourceRail deterministic LM3 product-library exporter','design-reference / not for construction');
FILE_SCHEMA(('IFC4X3_ADD2'));
ENDSEC;
DATA;
#1=IFCPROJECT('3TBDvG3QLK5QN4gyRwp9_3',$,'LM3-END-P060 \X2\2014\X0\ common reversible end-interface carrier ring, option bolt grid, and sealing datum kit','Design-reference geometry and assembly hierarchy only; supplier freeze, released drawings/tolerances, calculations, qualified processes and first-article tests remain mandatory.',$,$,$,(#12),#7);
#2=IFCSITE('3WDBbpz9zJ_Pr9D8s2tBXe',$,'LM3 product library',$,$,#18,$,$,.ELEMENT.,$,$,$,$,$);
#3=IFCBUILDING('3VjiuJK6POQxL9PJb5$lwm',$,'LM3 assembly inspection fixture',$,$,#21,$,$,.ELEMENT.,$,$,$);
#4=IFCSIUNIT(*,.LENGTHUNIT.,$,.METRE.);
#5=IFCSIUNIT(*,.AREAUNIT.,$,.SQUARE_METRE.);
#6=IFCSIUNIT(*,.VOLUMEUNIT.,$,.CUBIC_METRE.);
#7=IFCUNITASSIGNMENT((#6,#4,#5));
#8=IFCCARTESIANPOINT((0.,0.,0.));
#9=IFCDIRECTION((0.,0.,1.));
#10=IFCDIRECTION((1.,0.,0.));
#11=IFCAXIS2PLACEMENT3D(#8,#9,#10);
#12=IFCGEOMETRICREPRESENTATIONCONTEXT($,'Model',3,1.0000000000000001E-05,#11,$);
#13=IFCGEOMETRICREPRESENTATIONSUBCONTEXT('Body','Model',*,*,*,*,#12,$,.MODEL_VIEW.,$);
#14=IFCRELAGGREGATES('29VsmRosTS_x5bIG15mcXu',$,$,$,#1,(#2));
#15=IFCRELAGGREGATES('2oKA1w4lrTreQWbPG0$9lB',$,$,$,#2,(#3));
#16=IFCCARTESIANPOINT((0.,0.,0.));
#17=IFCAXIS2PLACEMENT3D(#16,$,$);
#18=IFCLOCALPLACEMENT($,#17);
#19=IFCCARTESIANPOINT((0.,0.,0.));
#20=IFCAXIS2PLACEMENT3D(#19,$,$);
#21=IFCLOCALPLACEMENT($,#20);
#22=IFCPROPERTYSINGLEVALUE('Status',$,IFCTEXT('design-reference-not-released'),$);
#23=IFCPROPERTYSINGLEVALUE('ReleaseBoundary',$,IFCTEXT('Design-reference geometry and assembly hierarchy only; supplier freeze, released drawings/tolerances, calculations, qualified processes and first-article tests remain mandatory.'),$);
#24=IFCPROPERTYSINGLEVALUE('Manifest',$,IFCTEXT('design/component-catalogue/catalog/buildable-trainset/buildable-trainset-manifest.json'),$);
#25=IFCPROPERTYSINGLEVALUE('ManifestSha256',$,IFCTEXT('4c2ec91449f361762556e35852f8b914e3bcec03c1b9f940d8c756e5db7cf7a5'),$);
#26=IFCPROPERTYSET('34hnFMOaLTwuOCabPynjiU',$,'OSR_ProductLibrary',$,(#22,#23,#24,#25));
#27=IFCRELDEFINESBYPROPERTIES('1F44aCDkjTpOjAwj$h8Xcs',$,$,$,(#1),#26);
#28=IFCMEMBER('12qxtcLYLJ$92GZK0qBBD$',$,'common reversible end-interface carrier ring, option bolt grid, and sealing datum kit','Common structural and sealing datum that lets the same train end accept either the panoramic closed nose or the open mid-train connection.',$,#70,#66,'LM3-END-P060',$);
#29=IFCPROPERTYSINGLEVALUE('OSRId',$,IFCTEXT('LM3-END-P060'),$);
#30=IFCPROPERTYSINGLEVALUE('Parent',$,IFCTEXT('LM3-EIF-SA650'),$);
#31=IFCPROPERTYSINGLEVALUE('Route',$,IFCTEXT('MAKE'),$);
#32=IFCPROPERTYSINGLEVALUE('Maturity',$,IFCTEXT('release-candidate'),$);
#33=IFCPROPERTYSINGLEVALUE('QuantityPerTrainset',$,IFCINTEGER(2),$);
#34=IFCPROPERTYSINGLEVALUE('Unit',$,IFCTEXT('end position'),$);
#35=IFCPROPERTYSINGLEVALUE('GeometryStatus',$,IFCTEXT('design-reference-not-released'),$);
#36=IFCPROPERTYSINGLEVALUE('GeometryLevel',$,IFCTEXT('interface-detailed'),$);
#37=IFCPROPERTYSET('2H736IUEfQze6ACiB$FG9h',$,'OSR_ProductDefinition',$,(#29,#30,#31,#32,#33,#34,#35,#36));
#38=IFCRELDEFINESBYPROPERTIES('1XIwtQS19NHxcsDRWJzkqN',$,$,$,(#28),#37);
#39=IFCCARTESIANPOINTLIST3D(((-1.325,-0.14000000000000001,-1.325),(-1.325,-0.14000000000000001,1.325),(-1.325,0.14000000000000001,-1.325),(-1.325,0.14000000000000001,1.325),(-1.1850000000000001,-0.14000000000000001,-1.325),(-1.1850000000000001,-0.14000000000000001,1.325),(-1.1850000000000001,0.14000000000000001,-1.325),(-1.1850000000000001,0.14000000000000001,1.325),(1.1850000000000001,-0.14000000000000001,-1.325),(1.1850000000000001,-0.14000000000000001,1.325),(1.1850000000000001,0.14000000000000001,-1.325),(1.1850000000000001,0.14000000000000001,1.325),(1.325,-0.14000000000000001,-1.325),(1.325,-0.14000000000000001,1.325),(1.325,0.14000000000000001,-1.325),(1.325,0.14000000000000001,1.325),(-1.1850000000000001,-0.14000000000000001,1.1850000000000001),(-1.1850000000000001,-0.14000000000000001,1.325),(-1.1850000000000001,0.14000000000000001,1.1850000000000001),(-1.1850000000000001,0.14000000000000001,1.325),(1.1850000000000001,-0.14000000000000001,1.1850000000000001),(1.1850000000000001,-0.14000000000000001,1.325),(1.1850000000000001,0.14000000000000001,1.1850000000000001),(1.1850000000000001,0.14000000000000001,1.325),(-1.1850000000000001,-0.14000000000000001,-1.325),(-1.1850000000000001,-0.14000000000000001,-1.1850000000000001),(-1.1850000000000001,0.14000000000000001,-1.325),(-1.1850000000000001,0.14000000000000001,-1.1850000000000001),(1.1850000000000001,-0.14000000000000001,-1.325),(1.1850000000000001,-0.14000000000000001,-1.1850000000000001),(1.1850000000000001,0.14000000000000001,-1.325),(1.1850000000000001,0.14000000000000001,-1.1850000000000001)),$);
#40=IFCINDEXEDPOLYGONALFACE((1,2,4,3));
#41=IFCINDEXEDPOLYGONALFACE((5,7,8,6));
#42=IFCINDEXEDPOLYGONALFACE((1,5,6,2));
#43=IFCINDEXEDPOLYGONALFACE((3,4,8,7));
#44=IFCINDEXEDPOLYGONALFACE((1,3,7,5));
#45=IFCINDEXEDPOLYGONALFACE((2,6,8,4));
#46=IFCINDEXEDPOLYGONALFACE((9,10,12,11));
#47=IFCINDEXEDPOLYGONALFACE((13,15,16,14));
#48=IFCINDEXEDPOLYGONALFACE((9,13,14,10));
#49=IFCINDEXEDPOLYGONALFACE((11,12,16,15));
#50=IFCINDEXEDPOLYGONALFACE((9,11,15,13));
#51=IFCINDEXEDPOLYGONALFACE((10,14,16,12));
#52=IFCINDEXEDPOLYGONALFACE((17,18,20,19));
#53=IFCINDEXEDPOLYGONALFACE((21,23,24,22));
#54=IFCINDEXEDPOLYGONALFACE((17,21,22,18));
#55=IFCINDEXEDPOLYGONALFACE((19,20,24,23));
#56=IFCINDEXEDPOLYGONALFACE((17,19,23,21));
#57=IFCINDEXEDPOLYGONALFACE((18,22,24,20));
#58=IFCINDEXEDPOLYGONALFACE((25,26,28,27));
#59=IFCINDEXEDPOLYGONALFACE((29,31,32,30));
#60=IFCINDEXEDPOLYGONALFACE((25,29,30,26));
#61=IFCINDEXEDPOLYGONALFACE((27,28,32,31));
#62=IFCINDEXEDPOLYGONALFACE((25,27,31,29));
#63=IFCINDEXEDPOLYGONALFACE((26,30,32,28));
#64=IFCPOLYGONALFACESET(#39,$,(#40,#41,#42,#43,#44,#45,#46,#47,#48,#49,#50,#51,#52,#53,#54,#55,#56,#57,#58,#59,#60,#61,#62,#63),$);
#65=IFCSHAPEREPRESENTATION(#13,'Body','Tessellation',(#64));
#66=IFCPRODUCTDEFINITIONSHAPE($,$,(#65));
#67=IFCRELCONTAINEDINSPATIALSTRUCTURE('2YGg4F_IvUDfXqKGU$1eTr',$,$,$,(#28),#3);
#68=IFCCARTESIANPOINT((0.,0.,0.));
#69=IFCAXIS2PLACEMENT3D(#68,$,$);
#70=IFCLOCALPLACEMENT($,#69);
ENDSEC;
END-ISO-10303-21;
