ISO-10303-21;
HEADER;
FILE_DESCRIPTION(('ViewDefinition [CoordinationView]'),'2;1');
FILE_NAME('LM3-ART-P030.ifc','2026-08-30T00:00:00+00:00',('OpenSourceRail'),('OpenSourceRail'),'IfcOpenShell 0.8.5','OpenSourceRail deterministic LM3 product-library exporter','design-reference / not for construction');
FILE_SCHEMA(('IFC4X3_ADD2'));
ENDSEC;
DATA;
#1=IFCPROJECT('1JwVbbDm9L5vCs15uK3_$i',$,'LM3-ART-P030 \X2\2014\X0\ inter-car HV/LV jumper, coolant hose loop, energy chain, and drain sleeve kit','Design-reference geometry and assembly hierarchy only; supplier freeze, released drawings/tolerances, calculations, qualified processes and first-article tests remain mandatory.',$,$,$,(#12),#7);
#2=IFCSITE('1OjXr6T19IYwLVOhOOrecN',$,'LM3 product library',$,$,#18,$,$,.ELEMENT.,$,$,$,$,$);
#3=IFCBUILDING('0CQironyzGSREEt2Tah0qD',$,'LM3 assembly inspection fixture',$,$,#21,$,$,.ELEMENT.,$,$,$);
#4=IFCSIUNIT(*,.LENGTHUNIT.,$,.METRE.);
#5=IFCSIUNIT(*,.AREAUNIT.,$,.SQUARE_METRE.);
#6=IFCSIUNIT(*,.VOLUMEUNIT.,$,.CUBIC_METRE.);
#7=IFCUNITASSIGNMENT((#6,#4,#5));
#8=IFCCARTESIANPOINT((0.,0.,0.));
#9=IFCDIRECTION((0.,0.,1.));
#10=IFCDIRECTION((1.,0.,0.));
#11=IFCAXIS2PLACEMENT3D(#8,#9,#10);
#12=IFCGEOMETRICREPRESENTATIONCONTEXT($,'Model',3,1.0000000000000001E-05,#11,$);
#13=IFCGEOMETRICREPRESENTATIONSUBCONTEXT('Body','Model',*,*,*,*,#12,$,.MODEL_VIEW.,$);
#14=IFCRELAGGREGATES('2RqVEz0y9TNBI7kyemE_ZX',$,$,$,#1,(#2));
#15=IFCRELAGGREGATES('2ZmDo2dXnIY8$b0MS7TY40',$,$,$,#2,(#3));
#16=IFCCARTESIANPOINT((0.,0.,0.));
#17=IFCAXIS2PLACEMENT3D(#16,$,$);
#18=IFCLOCALPLACEMENT($,#17);
#19=IFCCARTESIANPOINT((0.,0.,0.));
#20=IFCAXIS2PLACEMENT3D(#19,$,$);
#21=IFCLOCALPLACEMENT($,#20);
#22=IFCPROPERTYSINGLEVALUE('Status',$,IFCTEXT('design-reference-not-released'),$);
#23=IFCPROPERTYSINGLEVALUE('ReleaseBoundary',$,IFCTEXT('Design-reference geometry and assembly hierarchy only; supplier freeze, released drawings/tolerances, calculations, qualified processes and first-article tests remain mandatory.'),$);
#24=IFCPROPERTYSINGLEVALUE('Manifest',$,IFCTEXT('design/component-catalogue/catalog/buildable-trainset/buildable-trainset-manifest.json'),$);
#25=IFCPROPERTYSINGLEVALUE('ManifestSha256',$,IFCTEXT('7654747909805305ce2018109b5b649c4817a8f8c44a3ec8f2e8a6f74d48243e'),$);
#26=IFCPROPERTYSET('0zeOL479XKkgF69ITtH_$H',$,'OSR_ProductLibrary',$,(#22,#23,#24,#25));
#27=IFCRELDEFINESBYPROPERTIES('0VGEDjFqLQOOaV29AJVHkX',$,$,$,(#1),#26);
#28=IFCBUILDINGELEMENTPROXY('2kKNaPXDbPbAGGfBPOFNw7',$,'inter-car HV/LV jumper, coolant hose loop, energy chain, and drain sleeve kit','Flexible services package that follows articulation yaw/pitch/roll without violating segregation or bend radius.',$,#75,#71,'LM3-ART-P030',$);
#29=IFCPROPERTYSINGLEVALUE('OSRId',$,IFCTEXT('LM3-ART-P030'),$);
#30=IFCPROPERTYSINGLEVALUE('Parent',$,IFCTEXT('LM3-ART-SA830'),$);
#31=IFCPROPERTYSINGLEVALUE('Route',$,IFCTEXT('BID'),$);
#32=IFCPROPERTYSINGLEVALUE('Maturity',$,IFCTEXT('buildable-after-supplier-freeze'),$);
#33=IFCPROPERTYSINGLEVALUE('QuantityPerTrainset',$,IFCINTEGER(2),$);
#34=IFCPROPERTYSINGLEVALUE('Unit',$,IFCTEXT('articulation kit'),$);
#35=IFCPROPERTYSINGLEVALUE('GeometryStatus',$,IFCTEXT('design-reference-not-released'),$);
#36=IFCPROPERTYSET('0fC6b4xkfUuwKfFr4AKHf8',$,'OSR_ProductDefinition',$,(#29,#30,#31,#32,#33,#34,#35));
#37=IFCRELDEFINESBYPROPERTIES('0SR_m5LbDSNAilZmcZkTB2',$,$,$,(#28),#36);
#38=IFCCARTESIANPOINTLIST3D(((-0.69999999999999996,-0.59199999999999997,-0.043199999999999995),(-0.69999999999999996,-0.59199999999999997,0.043199999999999995),(-0.69999999999999996,-0.432,-0.043199999999999995),(-0.69999999999999996,-0.432,0.043199999999999995),(0.69999999999999996,-0.59199999999999997,-0.043199999999999995),(0.69999999999999996,-0.59199999999999997,0.043199999999999995),(0.69999999999999996,-0.432,-0.043199999999999995),(0.69999999999999996,-0.432,0.043199999999999995),(-0.69999999999999996,0.432,-0.043199999999999995),(-0.69999999999999996,0.432,0.043199999999999995),(-0.69999999999999996,0.59199999999999997,-0.043199999999999995),(-0.69999999999999996,0.59199999999999997,0.043199999999999995),(0.69999999999999996,0.432,-0.043199999999999995),(0.69999999999999996,0.432,0.043199999999999995),(0.69999999999999996,0.59199999999999997,-0.043199999999999995),(0.69999999999999996,0.59199999999999997,0.043199999999999995),(-0.50749999999999995,-0.64000000000000001,-0.053999999999999999),(-0.50749999999999995,-0.64000000000000001,0.053999999999999999),(-0.50749999999999995,0.64000000000000001,-0.053999999999999999),(-0.50749999999999995,0.64000000000000001,0.053999999999999999),(-0.47249999999999992,-0.64000000000000001,-0.053999999999999999),(-0.47249999999999992,-0.64000000000000001,0.053999999999999999),(-0.47249999999999992,0.64000000000000001,-0.053999999999999999),(-0.47249999999999992,0.64000000000000001,0.053999999999999999),(-0.017500000000000002,-0.64000000000000001,-0.053999999999999999),(-0.017500000000000002,-0.64000000000000001,0.053999999999999999),(-0.017500000000000002,0.64000000000000001,-0.053999999999999999),(-0.017500000000000002,0.64000000000000001,0.053999999999999999),(0.017500000000000002,-0.64000000000000001,-0.053999999999999999),(0.017500000000000002,-0.64000000000000001,0.053999999999999999),(0.017500000000000002,0.64000000000000001,-0.053999999999999999),(0.017500000000000002,0.64000000000000001,0.053999999999999999),(0.47249999999999992,-0.64000000000000001,-0.053999999999999999),(0.47249999999999992,-0.64000000000000001,0.053999999999999999),(0.47249999999999992,0.64000000000000001,-0.053999999999999999),(0.47249999999999992,0.64000000000000001,0.053999999999999999),(0.50749999999999995,-0.64000000000000001,-0.053999999999999999),(0.50749999999999995,-0.64000000000000001,0.053999999999999999),(0.50749999999999995,0.64000000000000001,-0.053999999999999999),(0.50749999999999995,0.64000000000000001,0.053999999999999999)),$);
#39=IFCINDEXEDPOLYGONALFACE((1,2,4,3));
#40=IFCINDEXEDPOLYGONALFACE((5,7,8,6));
#41=IFCINDEXEDPOLYGONALFACE((1,5,6,2));
#42=IFCINDEXEDPOLYGONALFACE((3,4,8,7));
#43=IFCINDEXEDPOLYGONALFACE((1,3,7,5));
#44=IFCINDEXEDPOLYGONALFACE((2,6,8,4));
#45=IFCINDEXEDPOLYGONALFACE((9,10,12,11));
#46=IFCINDEXEDPOLYGONALFACE((13,15,16,14));
#47=IFCINDEXEDPOLYGONALFACE((9,13,14,10));
#48=IFCINDEXEDPOLYGONALFACE((11,12,16,15));
#49=IFCINDEXEDPOLYGONALFACE((9,11,15,13));
#50=IFCINDEXEDPOLYGONALFACE((10,14,16,12));
#51=IFCINDEXEDPOLYGONALFACE((17,18,20,19));
#52=IFCINDEXEDPOLYGONALFACE((21,23,24,22));
#53=IFCINDEXEDPOLYGONALFACE((17,21,22,18));
#54=IFCINDEXEDPOLYGONALFACE((19,20,24,23));
#55=IFCINDEXEDPOLYGONALFACE((17,19,23,21));
#56=IFCINDEXEDPOLYGONALFACE((18,22,24,20));
#57=IFCINDEXEDPOLYGONALFACE((25,26,28,27));
#58=IFCINDEXEDPOLYGONALFACE((29,31,32,30));
#59=IFCINDEXEDPOLYGONALFACE((25,29,30,26));
#60=IFCINDEXEDPOLYGONALFACE((27,28,32,31));
#61=IFCINDEXEDPOLYGONALFACE((25,27,31,29));
#62=IFCINDEXEDPOLYGONALFACE((26,30,32,28));
#63=IFCINDEXEDPOLYGONALFACE((33,34,36,35));
#64=IFCINDEXEDPOLYGONALFACE((37,39,40,38));
#65=IFCINDEXEDPOLYGONALFACE((33,37,38,34));
#66=IFCINDEXEDPOLYGONALFACE((35,36,40,39));
#67=IFCINDEXEDPOLYGONALFACE((33,35,39,37));
#68=IFCINDEXEDPOLYGONALFACE((34,38,40,36));
#69=IFCPOLYGONALFACESET(#38,$,(#39,#40,#41,#42,#43,#44,#45,#46,#47,#48,#49,#50,#51,#52,#53,#54,#55,#56,#57,#58,#59,#60,#61,#62,#63,#64,#65,#66,#67,#68),$);
#70=IFCSHAPEREPRESENTATION(#13,'Body','Tessellation',(#69));
#71=IFCPRODUCTDEFINITIONSHAPE($,$,(#70));
#72=IFCRELCONTAINEDINSPATIALSTRUCTURE('1dG_2SPHrHC9r2MXvQwEsW',$,$,$,(#28),#3);
#73=IFCCARTESIANPOINT((0.,0.,0.));
#74=IFCAXIS2PLACEMENT3D(#73,$,$);
#75=IFCLOCALPLACEMENT($,#74);
ENDSEC;
END-ISO-10303-21;
