ISO-10303-21;
HEADER;
FILE_DESCRIPTION(('ViewDefinition [CoordinationView]'),'2;1');
FILE_NAME('LM3-AUX-P010.ifc','2026-08-30T00:00:00+00:00',('OpenSourceRail'),('OpenSourceRail'),'IfcOpenShell 0.8.5','OpenSourceRail deterministic LM3 product-library exporter','design-reference / not for construction');
FILE_SCHEMA(('IFC4X3_ADD2'));
ENDSEC;
DATA;
#1=IFCPROJECT('1Io4PALU1UDA8wEsm7mkde',$,'LM3-AUX-P010 \X2\2014\X0\ secondary-suspension compressor, dryer, reservoir, and isolation-manifold kit','Design-reference geometry and assembly hierarchy only; supplier freeze, released drawings/tolerances, calculations, qualified processes and first-article tests remain mandatory.',$,$,$,(#12),#7);
#2=IFCSITE('3qNH2D39nN48FYm3Rb8nVl',$,'LM3 product library',$,$,#18,$,$,.ELEMENT.,$,$,$,$,$);
#3=IFCBUILDING('2AsX2coPzVg9sbT_cnkpxS',$,'LM3 assembly inspection fixture',$,$,#21,$,$,.ELEMENT.,$,$,$);
#4=IFCSIUNIT(*,.LENGTHUNIT.,$,.METRE.);
#5=IFCSIUNIT(*,.AREAUNIT.,$,.SQUARE_METRE.);
#6=IFCSIUNIT(*,.VOLUMEUNIT.,$,.CUBIC_METRE.);
#7=IFCUNITASSIGNMENT((#6,#4,#5));
#8=IFCCARTESIANPOINT((0.,0.,0.));
#9=IFCDIRECTION((0.,0.,1.));
#10=IFCDIRECTION((1.,0.,0.));
#11=IFCAXIS2PLACEMENT3D(#8,#9,#10);
#12=IFCGEOMETRICREPRESENTATIONCONTEXT($,'Model',3,1.0000000000000001E-05,#11,$);
#13=IFCGEOMETRICREPRESENTATIONSUBCONTEXT('Body','Model',*,*,*,*,#12,$,.MODEL_VIEW.,$);
#14=IFCRELAGGREGATES('3c2rKeVaLPYuz17YryTG5I',$,$,$,#1,(#2));
#15=IFCRELAGGREGATES('2bqx3P8VfJfRaGpMNHnVcr',$,$,$,#2,(#3));
#16=IFCCARTESIANPOINT((0.,0.,0.));
#17=IFCAXIS2PLACEMENT3D(#16,$,$);
#18=IFCLOCALPLACEMENT($,#17);
#19=IFCCARTESIANPOINT((0.,0.,0.));
#20=IFCAXIS2PLACEMENT3D(#19,$,$);
#21=IFCLOCALPLACEMENT($,#20);
#22=IFCPROPERTYSINGLEVALUE('Status',$,IFCTEXT('design-reference-not-released'),$);
#23=IFCPROPERTYSINGLEVALUE('ReleaseBoundary',$,IFCTEXT('Design-reference geometry and assembly hierarchy only; supplier freeze, released drawings/tolerances, calculations, qualified processes and first-article tests remain mandatory.'),$);
#24=IFCPROPERTYSINGLEVALUE('Manifest',$,IFCTEXT('design/component-catalogue/catalog/buildable-trainset/buildable-trainset-manifest.json'),$);
#25=IFCPROPERTYSINGLEVALUE('ManifestSha256',$,IFCTEXT('7654747909805305ce2018109b5b649c4817a8f8c44a3ec8f2e8a6f74d48243e'),$);
#26=IFCPROPERTYSET('0OxXi5fYHR8fulFqFJeWR6',$,'OSR_ProductLibrary',$,(#22,#23,#24,#25));
#27=IFCRELDEFINESBYPROPERTIES('2lqRMv741NDAE4UGq2Bzp7',$,$,$,(#1),#26);
#28=IFCCOMPRESSOR('2BWl8ueLvSJAD1WtHOGtuw',$,'secondary-suspension compressor, dryer, reservoir, and isolation-manifold kit','One local air-supply package per car serves its two secondary-suspension bogies without creating a trainwide pneumatic brake line.',$,#74,#70,'LM3-AUX-P010',$);
#29=IFCPROPERTYSINGLEVALUE('OSRId',$,IFCTEXT('LM3-AUX-P010'),$);
#30=IFCPROPERTYSINGLEVALUE('Parent',$,IFCTEXT('LM3-CAR-A900'),$);
#31=IFCPROPERTYSINGLEVALUE('Route',$,IFCTEXT('SOURCE'),$);
#32=IFCPROPERTYSINGLEVALUE('Maturity',$,IFCTEXT('buildable-after-supplier-freeze'),$);
#33=IFCPROPERTYSINGLEVALUE('QuantityPerTrainset',$,IFCINTEGER(3),$);
#34=IFCPROPERTYSINGLEVALUE('Unit',$,IFCTEXT('car kit'),$);
#35=IFCPROPERTYSINGLEVALUE('GeometryStatus',$,IFCTEXT('design-reference-not-released'),$);
#36=IFCPROPERTYSINGLEVALUE('GeometryLevel',$,IFCTEXT('coordination-envelope'),$);
#37=IFCPROPERTYSET('25NX6JO5vP5w_KwdxqoQIy',$,'OSR_ProductDefinition',$,(#29,#30,#31,#32,#33,#34,#35,#36));
#38=IFCRELDEFINESBYPROPERTIES('3JBxnoOy9T4xQ9lApJvmTL',$,$,$,(#28),#37);
#39=IFCCARTESIANPOINTLIST3D(((0.23800000000000002,0.,-0.25919999999999999),(0.22635145087824657,0.073546044661237486,-0.25919999999999999),(0.19254604466123751,0.13989289004560862,-0.25919999999999999),(0.13989289004560862,0.19254604466123751,-0.25919999999999999),(0.0735460446612375,0.22635145087824657,-0.25919999999999999),(1.4573296909853505E-17,0.23800000000000002,-0.25919999999999999),(-0.073546044661237472,0.2263514508782466,-0.25919999999999999),(-0.13989289004560859,0.19254604466123751,-0.25919999999999999),(-0.19254604466123748,0.13989289004560865,-0.25919999999999999),(-0.22635145087824657,0.073546044661237514,-0.25919999999999999),(-0.23800000000000002,2.914659381970701E-17,-0.25919999999999999),(-0.2263514508782466,-0.073546044661237361,-0.25919999999999999),(-0.19254604466123754,-0.13989289004560859,-0.25919999999999999),(-0.13989289004560865,-0.19254604466123748,-0.25919999999999999),(-0.073546044661237528,-0.22635145087824657,-0.25919999999999999),(-4.3719890729560511E-17,-0.23800000000000002,-0.25919999999999999),(0.073546044661237445,-0.2263514508782466,-0.25919999999999999),(0.13989289004560856,-0.19254604466123754,-0.25919999999999999),(0.19254604466123748,-0.13989289004560868,-0.25919999999999999),(0.22635145087824657,-0.073546044661237542,-0.25919999999999999),(0.23800000000000002,0.,0.25919999999999999),(0.22635145087824657,0.073546044661237486,0.25919999999999999),(0.19254604466123751,0.13989289004560862,0.25919999999999999),(0.13989289004560862,0.19254604466123751,0.25919999999999999),(0.0735460446612375,0.22635145087824657,0.25919999999999999),(1.4573296909853505E-17,0.23800000000000002,0.25919999999999999),(-0.073546044661237472,0.2263514508782466,0.25919999999999999),(-0.13989289004560859,0.19254604466123751,0.25919999999999999),(-0.19254604466123748,0.13989289004560865,0.25919999999999999),(-0.22635145087824657,0.073546044661237514,0.25919999999999999),(-0.23800000000000002,2.914659381970701E-17,0.25919999999999999),(-0.2263514508782466,-0.073546044661237361,0.25919999999999999),(-0.19254604466123754,-0.13989289004560859,0.25919999999999999),(-0.13989289004560865,-0.19254604466123748,0.25919999999999999),(-0.073546044661237528,-0.22635145087824657,0.25919999999999999),(-4.3719890729560511E-17,-0.23800000000000002,0.25919999999999999),(0.073546044661237445,-0.2263514508782466,0.25919999999999999),(0.13989289004560856,-0.19254604466123754,0.25919999999999999),(0.19254604466123748,-0.13989289004560868,0.25919999999999999),(0.22635145087824657,-0.073546044661237542,0.25919999999999999),(-0.65000000000000002,-0.42499999999999999,-0.35999999999999999),(-0.65000000000000002,-0.42499999999999999,-0.18720000000000003),(-0.65000000000000002,0.42499999999999999,-0.35999999999999999),(-0.65000000000000002,0.42499999999999999,-0.18720000000000003),(0.65000000000000002,-0.42499999999999999,-0.35999999999999999),(0.65000000000000002,-0.42499999999999999,-0.18720000000000003),(0.65000000000000002,0.42499999999999999,-0.35999999999999999),(0.65000000000000002,0.42499999999999999,-0.18720000000000003)),$);
#40=IFCINDEXEDPOLYGONALFACE((20,19,18,17,16,15,14,13,12,11,10,9,8,7,6,5,4,3,2,1));
#41=IFCINDEXEDPOLYGONALFACE((21,22,23,24,25,26,27,28,29,30,31,32,33,34,35,36,37,38,39,40));
#42=IFCINDEXEDPOLYGONALFACE((1,2,22,21));
#43=IFCINDEXEDPOLYGONALFACE((2,3,23,22));
#44=IFCINDEXEDPOLYGONALFACE((3,4,24,23));
#45=IFCINDEXEDPOLYGONALFACE((4,5,25,24));
#46=IFCINDEXEDPOLYGONALFACE((5,6,26,25));
#47=IFCINDEXEDPOLYGONALFACE((6,7,27,26));
#48=IFCINDEXEDPOLYGONALFACE((7,8,28,27));
#49=IFCINDEXEDPOLYGONALFACE((8,9,29,28));
#50=IFCINDEXEDPOLYGONALFACE((9,10,30,29));
#51=IFCINDEXEDPOLYGONALFACE((10,11,31,30));
#52=IFCINDEXEDPOLYGONALFACE((11,12,32,31));
#53=IFCINDEXEDPOLYGONALFACE((12,13,33,32));
#54=IFCINDEXEDPOLYGONALFACE((13,14,34,33));
#55=IFCINDEXEDPOLYGONALFACE((14,15,35,34));
#56=IFCINDEXEDPOLYGONALFACE((15,16,36,35));
#57=IFCINDEXEDPOLYGONALFACE((16,17,37,36));
#58=IFCINDEXEDPOLYGONALFACE((17,18,38,37));
#59=IFCINDEXEDPOLYGONALFACE((18,19,39,38));
#60=IFCINDEXEDPOLYGONALFACE((19,20,40,39));
#61=IFCINDEXEDPOLYGONALFACE((20,1,21,40));
#62=IFCINDEXEDPOLYGONALFACE((41,42,44,43));
#63=IFCINDEXEDPOLYGONALFACE((45,47,48,46));
#64=IFCINDEXEDPOLYGONALFACE((41,45,46,42));
#65=IFCINDEXEDPOLYGONALFACE((43,44,48,47));
#66=IFCINDEXEDPOLYGONALFACE((41,43,47,45));
#67=IFCINDEXEDPOLYGONALFACE((42,46,48,44));
#68=IFCPOLYGONALFACESET(#39,$,(#40,#41,#42,#43,#44,#45,#46,#47,#48,#49,#50,#51,#52,#53,#54,#55,#56,#57,#58,#59,#60,#61,#62,#63,#64,#65,#66,#67),$);
#69=IFCSHAPEREPRESENTATION(#13,'Body','Tessellation',(#68));
#70=IFCPRODUCTDEFINITIONSHAPE($,$,(#69));
#71=IFCRELCONTAINEDINSPATIALSTRUCTURE('23pouCucrM0e1DIlPUnFPn',$,$,$,(#28),#3);
#72=IFCCARTESIANPOINT((0.,0.,0.));
#73=IFCAXIS2PLACEMENT3D(#72,$,$);
#74=IFCLOCALPLACEMENT($,#73);
ENDSEC;
END-ISO-10303-21;
