<svg xmlns="http://www.w3.org/2000/svg" width="900" height="530" viewBox="0 0 900 530">
<rect width="900" height="530" fill="white"/><g font-family="sans-serif" fill="#17324d">
<text x="30" y="30" font-size="21">Baghdad line-12: storage and workshop planning study</text>
<text x="30" y="57" font-size="13">Local coordinates only. NOT a surveyed, structurally released or operationally authorised layout.</text>
<rect x="85" y="90" width="295.00" height="38.26" fill="#edf5f3" stroke="#168477"/>
<path d="M90 96.96 H375.00" stroke="#34495e" stroke-width="2"/><rect x="93.93" y="94.96" width="87.15" height="4" fill="#168477"/><rect x="188.93" y="94.96" width="87.15" height="4" fill="#168477"/><rect x="283.93" y="94.96" width="87.15" height="4" fill="#168477"/><path d="M90 100.89 H375.00" stroke="#34495e" stroke-width="2"/><rect x="93.93" y="98.89" width="87.15" height="4" fill="#168477"/><rect x="188.93" y="98.89" width="87.15" height="4" fill="#168477"/><rect x="283.93" y="98.89" width="87.15" height="4" fill="#168477"/><path d="M90 104.81 H375.00" stroke="#34495e" stroke-width="2"/><rect x="93.93" y="102.81" width="87.15" height="4" fill="#168477"/><rect x="188.93" y="102.81" width="87.15" height="4" fill="#168477"/><rect x="283.93" y="102.81" width="87.15" height="4" fill="#168477"/><path d="M90 108.74 H280.00" stroke="#34495e" stroke-width="2"/><rect x="93.93" y="106.74" width="87.15" height="4" fill="#168477"/><rect x="188.93" y="106.74" width="87.15" height="4" fill="#168477"/>
<rect x="500" y="95" width="380.00" height="7.85" fill="#e5effa" stroke="#316caa"/><rect x="500.00" y="95.00" width="95.00" height="7.85" fill="none" stroke="#316caa" stroke-width="0.5"/><rect x="595.00" y="95.00" width="95.00" height="7.85" fill="none" stroke="#316caa" stroke-width="0.5"/><rect x="690.00" y="95.00" width="95.00" height="7.85" fill="none" stroke="#316caa" stroke-width="0.5"/><rect x="785.00" y="95.00" width="95.00" height="7.85" fill="none" stroke="#316caa" stroke-width="0.5"/><text x="500" y="80" font-size="12">Workshop packing; internal track access unresolved</text>
<text x="30" y="355">4 storage tracks / 11 slots / 1331 usable track m</text>
<text x="30" y="382">Yard packing envelope 363 x 36 m; access/point/land geometry unresolved</text>
<text x="30" y="409">Workshop: 4 bays; shell packing 484 x 10 m</text>
<text x="30" y="436">Inspection, rescue, battery quarantine, PV/BESS, drainage outfall and fire access require located design.</text>
<text x="30" y="465">Green blocks: 111 m trains + 10 m slot clearance. Actual train assignments and charger circuits remain empty.</text>
<text x="30" y="497">No drawing footprint is credited as acquired land or accepted turnout geometry.</text></g></svg>