ISO-10303-21;
HEADER;
FILE_DESCRIPTION(('Open CASCADE Model'),'2;1');
FILE_NAME('Secondary suspension (air spring + lateral damper)',
  '2026-05-01T14:19:51',('Author'),('Open CASCADE'),
  'Open CASCADE STEP processor 7.8','build123d','Unknown');
FILE_SCHEMA(('AUTOMOTIVE_DESIGN { 1 0 10303 214 1 1 1 1 }'));
ENDSEC;
DATA;
#1 = APPLICATION_PROTOCOL_DEFINITION('international standard',
  'automotive_design',2000,#2);
#2 = APPLICATION_CONTEXT(
  'core data for automotive mechanical design processes');
#3 = SHAPE_DEFINITION_REPRESENTATION(#4,#10);
#4 = PRODUCT_DEFINITION_SHAPE('','',#5);
#5 = PRODUCT_DEFINITION('design','',#6,#9);
#6 = PRODUCT_DEFINITION_FORMATION('','',#7);
#7 = PRODUCT('Secondary suspension (air spring + lateral damper)',
  'Secondary suspension (air spring + lateral damper)','',(#8));
#8 = PRODUCT_CONTEXT('',#2,'mechanical');
#9 = PRODUCT_DEFINITION_CONTEXT('part definition',#2,'design');
#10 = SHAPE_REPRESENTATION('',(#11,#15,#19,#23,#27),#31);
#11 = AXIS2_PLACEMENT_3D('',#12,#13,#14);
#12 = CARTESIAN_POINT('',(0.,0.,0.));
#13 = DIRECTION('',(0.,0.,1.));
#14 = DIRECTION('',(1.,0.,-0.));
#15 = AXIS2_PLACEMENT_3D('',#16,#17,#18);
#16 = CARTESIAN_POINT('',(0.,0.,-6.));
#17 = DIRECTION('',(0.,0.,1.));
#18 = DIRECTION('',(1.,0.,-0.));
#19 = AXIS2_PLACEMENT_3D('',#20,#21,#22);
#20 = CARTESIAN_POINT('',(0.,0.,0.));
#21 = DIRECTION('',(0.,0.,1.));
#22 = DIRECTION('',(1.,0.,-0.));
#23 = AXIS2_PLACEMENT_3D('',#24,#25,#26);
#24 = CARTESIAN_POINT('',(0.,0.,214.));
#25 = DIRECTION('',(0.,0.,1.));
#26 = DIRECTION('',(1.,0.,-0.));
#27 = AXIS2_PLACEMENT_3D('',#28,#29,#30);
#28 = CARTESIAN_POINT('',(0.,-210.,50.));
#29 = DIRECTION('',(0.,0.,1.));
#30 = DIRECTION('',(1.,0.,-0.));
#31 = ( GEOMETRIC_REPRESENTATION_CONTEXT(3) 
GLOBAL_UNCERTAINTY_ASSIGNED_CONTEXT((#35)) GLOBAL_UNIT_ASSIGNED_CONTEXT(
(#32,#33,#34)) REPRESENTATION_CONTEXT('Context #1',
  '3D Context with UNIT and UNCERTAINTY') );
#32 = ( LENGTH_UNIT() NAMED_UNIT(*) SI_UNIT(.MILLI.,.METRE.) );
#33 = ( NAMED_UNIT(*) PLANE_ANGLE_UNIT() SI_UNIT($,.RADIAN.) );
#34 = ( NAMED_UNIT(*) SI_UNIT($,.STERADIAN.) SOLID_ANGLE_UNIT() );
#35 = UNCERTAINTY_MEASURE_WITH_UNIT(LENGTH_MEASURE(1.E-07),#32,
  'distance_accuracy_value','confusion accuracy');
#36 = PRODUCT_RELATED_PRODUCT_CATEGORY('part',$,(#7));
#37 = SHAPE_DEFINITION_REPRESENTATION(#38,#44);
#38 = PRODUCT_DEFINITION_SHAPE('','',#39);
#39 = PRODUCT_DEFINITION('design','',#40,#43);
#40 = PRODUCT_DEFINITION_FORMATION('','',#41);
#41 = PRODUCT('Air spring bottom plate','Air spring bottom plate','',(
    #42));
#42 = PRODUCT_CONTEXT('',#2,'mechanical');
#43 = PRODUCT_DEFINITION_CONTEXT('part definition',#2,'design');
#44 = SHAPE_REPRESENTATION('',(#11,#45),#49);
#45 = AXIS2_PLACEMENT_3D('',#46,#47,#48);
#46 = CARTESIAN_POINT('',(0.,0.,0.));
#47 = DIRECTION('',(0.,0.,1.));
#48 = DIRECTION('',(1.,0.,-0.));
#49 = ( GEOMETRIC_REPRESENTATION_CONTEXT(3) 
GLOBAL_UNCERTAINTY_ASSIGNED_CONTEXT((#53)) GLOBAL_UNIT_ASSIGNED_CONTEXT(
(#50,#51,#52)) REPRESENTATION_CONTEXT('Context #1',
  '3D Context with UNIT and UNCERTAINTY') );
#50 = ( LENGTH_UNIT() NAMED_UNIT(*) SI_UNIT(.MILLI.,.METRE.) );
#51 = ( NAMED_UNIT(*) PLANE_ANGLE_UNIT() SI_UNIT($,.RADIAN.) );
#52 = ( NAMED_UNIT(*) SI_UNIT($,.STERADIAN.) SOLID_ANGLE_UNIT() );
#53 = UNCERTAINTY_MEASURE_WITH_UNIT(LENGTH_MEASURE(1.E-07),#50,
  'distance_accuracy_value','confusion accuracy');
#54 = CONTEXT_DEPENDENT_SHAPE_REPRESENTATION(#55,#57);
#55 = ( REPRESENTATION_RELATIONSHIP('','',#44,#10) 
REPRESENTATION_RELATIONSHIP_WITH_TRANSFORMATION(#56) 
SHAPE_REPRESENTATION_RELATIONSHIP() );
#56 = ITEM_DEFINED_TRANSFORMATION('','',#11,#15);
#57 = PRODUCT_DEFINITION_SHAPE('Placement','Placement of an item',#58);
#58 = NEXT_ASSEMBLY_USAGE_OCCURRENCE('1129','=>[0:1:1:2]','',#5,#39,$);
#59 = PRODUCT_RELATED_PRODUCT_CATEGORY('part',$,(#41));
#60 = SHAPE_DEFINITION_REPRESENTATION(#61,#67);
#61 = PRODUCT_DEFINITION_SHAPE('','',#62);
#62 = PRODUCT_DEFINITION('design','',#63,#66);
#63 = PRODUCT_DEFINITION_FORMATION('','',#64);
#64 = PRODUCT('SOLID','SOLID','',(#65));
#65 = PRODUCT_CONTEXT('',#2,'mechanical');
#66 = PRODUCT_DEFINITION_CONTEXT('part definition',#2,'design');
#67 = ADVANCED_BREP_SHAPE_REPRESENTATION('',(#11,#68),#166);
#68 = MANIFOLD_SOLID_BREP('',#69);
#69 = CLOSED_SHELL('',(#70,#158,#162));
#70 = ADVANCED_FACE('',(#71),#85,.T.);
#71 = FACE_BOUND('',#72,.F.);
#72 = EDGE_LOOP('',(#73,#103,#130,#131));
#73 = ORIENTED_EDGE('',*,*,#74,.T.);
#74 = EDGE_CURVE('',#75,#77,#79,.T.);
#75 = VERTEX_POINT('',#76);
#76 = CARTESIAN_POINT('',(240.,0.,0.));
#77 = VERTEX_POINT('',#78);
#78 = CARTESIAN_POINT('',(240.,0.,12.));
#79 = SEAM_CURVE('',#80,(#84,#96),.PCURVE_S1.);
#80 = LINE('',#81,#82);
#81 = CARTESIAN_POINT('',(240.,0.,0.));
#82 = VECTOR('',#83,1.);
#83 = DIRECTION('',(0.,0.,1.));
#84 = PCURVE('',#85,#90);
#85 = CYLINDRICAL_SURFACE('',#86,240.);
#86 = AXIS2_PLACEMENT_3D('',#87,#88,#89);
#87 = CARTESIAN_POINT('',(0.,0.,0.));
#88 = DIRECTION('',(-0.,-0.,-1.));
#89 = DIRECTION('',(1.,0.,0.));
#90 = DEFINITIONAL_REPRESENTATION('',(#91),#95);
#91 = LINE('',#92,#93);
#92 = CARTESIAN_POINT('',(-0.,0.));
#93 = VECTOR('',#94,1.);
#94 = DIRECTION('',(-0.,-1.));
#95 = ( GEOMETRIC_REPRESENTATION_CONTEXT(2) 
PARAMETRIC_REPRESENTATION_CONTEXT() REPRESENTATION_CONTEXT('2D SPACE',''
  ) );
#96 = PCURVE('',#85,#97);
#97 = DEFINITIONAL_REPRESENTATION('',(#98),#102);
#98 = LINE('',#99,#100);
#99 = CARTESIAN_POINT('',(-6.28318530718,0.));
#100 = VECTOR('',#101,1.);
#101 = DIRECTION('',(-0.,-1.));
#102 = ( GEOMETRIC_REPRESENTATION_CONTEXT(2) 
PARAMETRIC_REPRESENTATION_CONTEXT() REPRESENTATION_CONTEXT('2D SPACE',''
  ) );
#103 = ORIENTED_EDGE('',*,*,#104,.T.);
#104 = EDGE_CURVE('',#77,#77,#105,.T.);
#105 = SURFACE_CURVE('',#106,(#111,#118),.PCURVE_S1.);
#106 = CIRCLE('',#107,240.);
#107 = AXIS2_PLACEMENT_3D('',#108,#109,#110);
#108 = CARTESIAN_POINT('',(0.,0.,12.));
#109 = DIRECTION('',(0.,0.,1.));
#110 = DIRECTION('',(1.,0.,0.));
#111 = PCURVE('',#85,#112);
#112 = DEFINITIONAL_REPRESENTATION('',(#113),#117);
#113 = LINE('',#114,#115);
#114 = CARTESIAN_POINT('',(-0.,-12.));
#115 = VECTOR('',#116,1.);
#116 = DIRECTION('',(-1.,0.));
#117 = ( GEOMETRIC_REPRESENTATION_CONTEXT(2) 
PARAMETRIC_REPRESENTATION_CONTEXT() REPRESENTATION_CONTEXT('2D SPACE',''
  ) );
#118 = PCURVE('',#119,#124);
#119 = PLANE('',#120);
#120 = AXIS2_PLACEMENT_3D('',#121,#122,#123);
#121 = CARTESIAN_POINT('',(-1.166882246434E-14,1.871648071158E-15,12.));
#122 = DIRECTION('',(0.,0.,1.));
#123 = DIRECTION('',(1.,0.,0.));
#124 = DEFINITIONAL_REPRESENTATION('',(#125),#129);
#125 = CIRCLE('',#126,240.);
#126 = AXIS2_PLACEMENT_2D('',#127,#128);
#127 = CARTESIAN_POINT('',(1.166882246434E-14,-1.871648071158E-15));
#128 = DIRECTION('',(1.,0.));
#129 = ( GEOMETRIC_REPRESENTATION_CONTEXT(2) 
PARAMETRIC_REPRESENTATION_CONTEXT() REPRESENTATION_CONTEXT('2D SPACE',''
  ) );
#130 = ORIENTED_EDGE('',*,*,#74,.F.);
#131 = ORIENTED_EDGE('',*,*,#132,.F.);
#132 = EDGE_CURVE('',#75,#75,#133,.T.);
#133 = SURFACE_CURVE('',#134,(#139,#146),.PCURVE_S1.);
#134 = CIRCLE('',#135,240.);
#135 = AXIS2_PLACEMENT_3D('',#136,#137,#138);
#136 = CARTESIAN_POINT('',(0.,0.,0.));
#137 = DIRECTION('',(0.,0.,1.));
#138 = DIRECTION('',(1.,0.,0.));
#139 = PCURVE('',#85,#140);
#140 = DEFINITIONAL_REPRESENTATION('',(#141),#145);
#141 = LINE('',#142,#143);
#142 = CARTESIAN_POINT('',(-0.,0.));
#143 = VECTOR('',#144,1.);
#144 = DIRECTION('',(-1.,0.));
#145 = ( GEOMETRIC_REPRESENTATION_CONTEXT(2) 
PARAMETRIC_REPRESENTATION_CONTEXT() REPRESENTATION_CONTEXT('2D SPACE',''
  ) );
#146 = PCURVE('',#147,#152);
#147 = PLANE('',#148);
#148 = AXIS2_PLACEMENT_3D('',#149,#150,#151);
#149 = CARTESIAN_POINT('',(-1.166882246434E-14,1.871648071158E-15,0.));
#150 = DIRECTION('',(0.,0.,1.));
#151 = DIRECTION('',(1.,0.,0.));
#152 = DEFINITIONAL_REPRESENTATION('',(#153),#157);
#153 = CIRCLE('',#154,240.);
#154 = AXIS2_PLACEMENT_2D('',#155,#156);
#155 = CARTESIAN_POINT('',(1.166882246434E-14,-1.871648071158E-15));
#156 = DIRECTION('',(1.,0.));
#157 = ( GEOMETRIC_REPRESENTATION_CONTEXT(2) 
PARAMETRIC_REPRESENTATION_CONTEXT() REPRESENTATION_CONTEXT('2D SPACE',''
  ) );
#158 = ADVANCED_FACE('',(#159),#147,.F.);
#159 = FACE_BOUND('',#160,.F.);
#160 = EDGE_LOOP('',(#161));
#161 = ORIENTED_EDGE('',*,*,#132,.T.);
#162 = ADVANCED_FACE('',(#163),#119,.T.);
#163 = FACE_BOUND('',#164,.T.);
#164 = EDGE_LOOP('',(#165));
#165 = ORIENTED_EDGE('',*,*,#104,.T.);
#166 = ( GEOMETRIC_REPRESENTATION_CONTEXT(3) 
GLOBAL_UNCERTAINTY_ASSIGNED_CONTEXT((#170)) GLOBAL_UNIT_ASSIGNED_CONTEXT
((#167,#168,#169)) REPRESENTATION_CONTEXT('Context #1',
  '3D Context with UNIT and UNCERTAINTY') );
#167 = ( LENGTH_UNIT() NAMED_UNIT(*) SI_UNIT(.MILLI.,.METRE.) );
#168 = ( NAMED_UNIT(*) PLANE_ANGLE_UNIT() SI_UNIT($,.RADIAN.) );
#169 = ( NAMED_UNIT(*) SI_UNIT($,.STERADIAN.) SOLID_ANGLE_UNIT() );
#170 = UNCERTAINTY_MEASURE_WITH_UNIT(LENGTH_MEASURE(1.E-07),#167,
  'distance_accuracy_value','confusion accuracy');
#171 = CONTEXT_DEPENDENT_SHAPE_REPRESENTATION(#172,#174);
#172 = ( REPRESENTATION_RELATIONSHIP('','',#67,#44) 
REPRESENTATION_RELATIONSHIP_WITH_TRANSFORMATION(#173) 
SHAPE_REPRESENTATION_RELATIONSHIP() );
#173 = ITEM_DEFINED_TRANSFORMATION('','',#11,#45);
#174 = PRODUCT_DEFINITION_SHAPE('Placement','Placement of an item',#175
  );
#175 = NEXT_ASSEMBLY_USAGE_OCCURRENCE('1128','=>[0:1:1:3]','',#39,#62,$
  );
#176 = PRODUCT_RELATED_PRODUCT_CATEGORY('part',$,(#64));
#177 = SHAPE_DEFINITION_REPRESENTATION(#178,#184);
#178 = PRODUCT_DEFINITION_SHAPE('','',#179);
#179 = PRODUCT_DEFINITION('design','',#180,#183);
#180 = PRODUCT_DEFINITION_FORMATION('','',#181);
#181 = PRODUCT('Air spring bellows (Continental CF-series class)',
  'Air spring bellows (Continental CF-series class)','',(#182));
#182 = PRODUCT_CONTEXT('',#2,'mechanical');
#183 = PRODUCT_DEFINITION_CONTEXT('part definition',#2,'design');
#184 = SHAPE_REPRESENTATION('',(#11,#185),#189);
#185 = AXIS2_PLACEMENT_3D('',#186,#187,#188);
#186 = CARTESIAN_POINT('',(0.,0.,0.));
#187 = DIRECTION('',(0.,0.,1.));
#188 = DIRECTION('',(1.,0.,-0.));
#189 = ( GEOMETRIC_REPRESENTATION_CONTEXT(3) 
GLOBAL_UNCERTAINTY_ASSIGNED_CONTEXT((#193)) GLOBAL_UNIT_ASSIGNED_CONTEXT
((#190,#191,#192)) REPRESENTATION_CONTEXT('Context #1',
  '3D Context with UNIT and UNCERTAINTY') );
#190 = ( LENGTH_UNIT() NAMED_UNIT(*) SI_UNIT(.MILLI.,.METRE.) );
#191 = ( NAMED_UNIT(*) PLANE_ANGLE_UNIT() SI_UNIT($,.RADIAN.) );
#192 = ( NAMED_UNIT(*) SI_UNIT($,.STERADIAN.) SOLID_ANGLE_UNIT() );
#193 = UNCERTAINTY_MEASURE_WITH_UNIT(LENGTH_MEASURE(1.E-07),#190,
  'distance_accuracy_value','confusion accuracy');
#194 = CONTEXT_DEPENDENT_SHAPE_REPRESENTATION(#195,#197);
#195 = ( REPRESENTATION_RELATIONSHIP('','',#184,#10) 
REPRESENTATION_RELATIONSHIP_WITH_TRANSFORMATION(#196) 
SHAPE_REPRESENTATION_RELATIONSHIP() );
#196 = ITEM_DEFINED_TRANSFORMATION('','',#11,#19);
#197 = PRODUCT_DEFINITION_SHAPE('Placement','Placement of an item',#198
  );
#198 = NEXT_ASSEMBLY_USAGE_OCCURRENCE('1131','=>[0:1:1:4]','',#5,#179,$
  );
#199 = PRODUCT_RELATED_PRODUCT_CATEGORY('part',$,(#181));
#200 = SHAPE_DEFINITION_REPRESENTATION(#201,#207);
#201 = PRODUCT_DEFINITION_SHAPE('','',#202);
#202 = PRODUCT_DEFINITION('design','',#203,#206);
#203 = PRODUCT_DEFINITION_FORMATION('','',#204);
#204 = PRODUCT('SOLID','SOLID','',(#205));
#205 = PRODUCT_CONTEXT('',#2,'mechanical');
#206 = PRODUCT_DEFINITION_CONTEXT('part definition',#2,'design');
#207 = ADVANCED_BREP_SHAPE_REPRESENTATION('',(#11,#208),#456);
#208 = MANIFOLD_SOLID_BREP('',#209);
#209 = CLOSED_SHELL('',(#210,#448,#452));
#210 = ADVANCED_FACE('',(#211),#244,.T.);
#211 = FACE_BOUND('',#212,.T.);
#212 = EDGE_LOOP('',(#213,#356,#379,#447));
#213 = ORIENTED_EDGE('',*,*,#214,.T.);
#214 = EDGE_CURVE('',#215,#215,#217,.T.);
#215 = VERTEX_POINT('',#216);
#216 = CARTESIAN_POINT('',(240.,0.,0.));
#217 = SURFACE_CURVE('',#218,(#243,#323),.PCURVE_S1.);
#218 = B_SPLINE_CURVE_WITH_KNOTS('',12,(#219,#220,#221,#222,#223,#224,
    #225,#226,#227,#228,#229,#230,#231,#232,#233,#234,#235,#236,#237,
    #238,#239,#240,#241,#242),.UNSPECIFIED.,.T.,.F.,(13,11,13),(0.,0.5,
    1.),.UNSPECIFIED.);
#219 = CARTESIAN_POINT('',(240.,8.526512829121E-14,0.));
#220 = CARTESIAN_POINT('',(240.,62.831853071815,0.));
#221 = CARTESIAN_POINT('',(222.05526435654,125.6637061712,0.));
#222 = CARTESIAN_POINT('',(186.16579686837,182.85805411581,0.));
#223 = CARTESIAN_POINT('',(134.29943844405,228.77739410317,0.));
#224 = CARTESIAN_POINT('',(70.3919765594,258.55698952975,0.));
#225 = CARTESIAN_POINT('',(-3.805666892731E-11,268.87769580361,0.));
#226 = CARTESIAN_POINT('',(-70.39197655932,258.55698952974,0.));
#227 = CARTESIAN_POINT('',(-134.2994384441,228.77739410317,0.));
#228 = CARTESIAN_POINT('',(-186.1657968683,182.8580541158,0.));
#229 = CARTESIAN_POINT('',(-222.0552643565,125.6637061712,0.));
#230 = CARTESIAN_POINT('',(-240.,62.831853071818,0.));
#231 = CARTESIAN_POINT('',(-240.,-62.83185307182,0.));
#232 = CARTESIAN_POINT('',(-222.0552643565,-125.6637061711,0.));
#233 = CARTESIAN_POINT('',(-186.1657968683,-182.858054116,0.));
#234 = CARTESIAN_POINT('',(-134.2994384441,-228.7773941027,0.));
#235 = CARTESIAN_POINT('',(-70.39197655936,-258.5569895302,0.));
#236 = CARTESIAN_POINT('',(2.23402554803E-11,-268.877695803,0.));
#237 = CARTESIAN_POINT('',(70.391976559324,-258.5569895302,0.));
#238 = CARTESIAN_POINT('',(134.29943844411,-228.7773941028,0.));
#239 = CARTESIAN_POINT('',(186.16579686833,-182.8580541159,0.));
#240 = CARTESIAN_POINT('',(222.05526435656,-125.6637061711,0.));
#241 = CARTESIAN_POINT('',(240.,-62.83185307182,0.));
#242 = CARTESIAN_POINT('',(240.,-8.526512829121E-14,0.));
#243 = PCURVE('',#244,#317);
#244 = B_SPLINE_SURFACE_WITH_KNOTS('',12,2,(
    (#245,#246,#247)
    ,(#248,#249,#250)
    ,(#251,#252,#253)
    ,(#254,#255,#256)
    ,(#257,#258,#259)
    ,(#260,#261,#262)
    ,(#263,#264,#265)
    ,(#266,#267,#268)
    ,(#269,#270,#271)
    ,(#272,#273,#274)
    ,(#275,#276,#277)
    ,(#278,#279,#280)
    ,(#281,#282,#283)
    ,(#284,#285,#286)
    ,(#287,#288,#289)
    ,(#290,#291,#292)
    ,(#293,#294,#295)
    ,(#296,#297,#298)
    ,(#299,#300,#301)
    ,(#302,#303,#304)
    ,(#305,#306,#307)
    ,(#308,#309,#310)
    ,(#311,#312,#313)
    ,(#314,#315,#316
    )),.UNSPECIFIED.,.T.,.F.,.F.,(13,11,13),(3,3),(0.,0.5,1.),(0.,1.),
  .UNSPECIFIED.);
#245 = CARTESIAN_POINT('',(240.,8.526512829121E-14,0.));
#246 = CARTESIAN_POINT('',(280.,2.84217094304E-14,110.));
#247 = CARTESIAN_POINT('',(240.,8.526512829121E-14,220.));
#248 = CARTESIAN_POINT('',(240.,62.831853071815,0.));
#249 = CARTESIAN_POINT('',(280.00000000001,73.303828583778,110.));
#250 = CARTESIAN_POINT('',(240.,62.831853071815,220.));
#251 = CARTESIAN_POINT('',(222.05526435654,125.6637061712,0.));
#252 = CARTESIAN_POINT('',(259.0644750826,146.60765719977,110.));
#253 = CARTESIAN_POINT('',(222.05526435654,125.6637061712,220.));
#254 = CARTESIAN_POINT('',(186.16579686837,182.85805411581,0.));
#255 = CARTESIAN_POINT('',(217.19342967984,213.33439646836,110.));
#256 = CARTESIAN_POINT('',(186.16579686837,182.85805411581,220.));
#257 = CARTESIAN_POINT('',(134.29943844405,228.77739410317,0.));
#258 = CARTESIAN_POINT('',(156.6826781846,266.9069597872,110.));
#259 = CARTESIAN_POINT('',(134.29943844405,228.77739410317,220.));
#260 = CARTESIAN_POINT('',(70.3919765594,258.55698952975,0.));
#261 = CARTESIAN_POINT('',(82.123972652802,301.64982111774,110.));
#262 = CARTESIAN_POINT('',(70.3919765594,258.55698952975,220.));
#263 = CARTESIAN_POINT('',(-3.805666892731E-11,268.87769580361,0.));
#264 = CARTESIAN_POINT('',(-2.267768195452E-10,313.6906451046,110.));
#265 = CARTESIAN_POINT('',(-3.805666892731E-11,268.87769580361,220.));
#266 = CARTESIAN_POINT('',(-70.39197655932,258.55698952974,0.));
#267 = CARTESIAN_POINT('',(-82.12397265239,301.64982111763,110.));
#268 = CARTESIAN_POINT('',(-70.39197655932,258.55698952974,220.));
#269 = CARTESIAN_POINT('',(-134.2994384441,228.77739410317,0.));
#270 = CARTESIAN_POINT('',(-156.6826781848,266.90695978736,110.));
#271 = CARTESIAN_POINT('',(-134.2994384441,228.77739410317,220.));
#272 = CARTESIAN_POINT('',(-186.1657968683,182.8580541158,0.));
#273 = CARTESIAN_POINT('',(-217.1934296796,213.33439646825,110.));
#274 = CARTESIAN_POINT('',(-186.1657968683,182.8580541158,220.));
#275 = CARTESIAN_POINT('',(-222.0552643565,125.6637061712,0.));
#276 = CARTESIAN_POINT('',(-259.0644750826,146.60765719982,110.));
#277 = CARTESIAN_POINT('',(-222.0552643565,125.6637061712,220.));
#278 = CARTESIAN_POINT('',(-240.,62.831853071818,0.));
#279 = CARTESIAN_POINT('',(-280.,73.303828583767,110.));
#280 = CARTESIAN_POINT('',(-240.,62.831853071818,220.));
#281 = CARTESIAN_POINT('',(-240.,-62.83185307182,0.));
#282 = CARTESIAN_POINT('',(-279.9999999999,-73.30382858377,110.));
#283 = CARTESIAN_POINT('',(-240.,-62.83185307182,220.));
#284 = CARTESIAN_POINT('',(-222.0552643565,-125.6637061711,0.));
#285 = CARTESIAN_POINT('',(-259.0644750826,-146.6076571997,110.));
#286 = CARTESIAN_POINT('',(-222.0552643565,-125.6637061711,220.));
#287 = CARTESIAN_POINT('',(-186.1657968683,-182.858054116,0.));
#288 = CARTESIAN_POINT('',(-217.1934296796,-213.3343964683,110.));
#289 = CARTESIAN_POINT('',(-186.1657968683,-182.858054116,220.));
#290 = CARTESIAN_POINT('',(-134.2994384441,-228.7773941027,0.));
#291 = CARTESIAN_POINT('',(-156.6826781849,-266.9069597871,110.));
#292 = CARTESIAN_POINT('',(-134.2994384441,-228.7773941027,220.));
#293 = CARTESIAN_POINT('',(-70.39197655936,-258.5569895302,0.));
#294 = CARTESIAN_POINT('',(-82.12397265228,-301.6498211178,110.));
#295 = CARTESIAN_POINT('',(-70.39197655936,-258.5569895302,220.));
#296 = CARTESIAN_POINT('',(2.23402554803E-11,-268.877695803,0.));
#297 = CARTESIAN_POINT('',(-3.158188939731E-10,-313.6906451044,110.));
#298 = CARTESIAN_POINT('',(2.23402554803E-11,-268.877695803,220.));
#299 = CARTESIAN_POINT('',(70.391976559324,-258.5569895302,0.));
#300 = CARTESIAN_POINT('',(82.123972652843,-301.6498211177,110.));
#301 = CARTESIAN_POINT('',(70.391976559324,-258.5569895302,220.));
#302 = CARTESIAN_POINT('',(134.29943844411,-228.7773941028,0.));
#303 = CARTESIAN_POINT('',(156.6826781846,-266.9069597873,110.));
#304 = CARTESIAN_POINT('',(134.29943844411,-228.7773941028,220.));
#305 = CARTESIAN_POINT('',(186.16579686833,-182.8580541159,0.));
#306 = CARTESIAN_POINT('',(217.19342967982,-213.3343964682,110.));
#307 = CARTESIAN_POINT('',(186.16579686833,-182.8580541159,220.));
#308 = CARTESIAN_POINT('',(222.05526435656,-125.6637061711,0.));
#309 = CARTESIAN_POINT('',(259.06447508262,-146.6076571998,110.));
#310 = CARTESIAN_POINT('',(222.05526435656,-125.6637061711,220.));
#311 = CARTESIAN_POINT('',(240.,-62.83185307182,0.));
#312 = CARTESIAN_POINT('',(280.00000000001,-73.30382858375,110.));
#313 = CARTESIAN_POINT('',(240.,-62.83185307182,220.));
#314 = CARTESIAN_POINT('',(240.,-8.526512829121E-14,0.));
#315 = CARTESIAN_POINT('',(280.,8.526512829121E-14,110.));
#316 = CARTESIAN_POINT('',(240.,-8.526512829121E-14,220.));
#317 = DEFINITIONAL_REPRESENTATION('',(#318),#322);
#318 = LINE('',#319,#320);
#319 = CARTESIAN_POINT('',(0.,0.));
#320 = VECTOR('',#321,1.);
#321 = DIRECTION('',(1.,0.));
#322 = ( GEOMETRIC_REPRESENTATION_CONTEXT(2) 
PARAMETRIC_REPRESENTATION_CONTEXT() REPRESENTATION_CONTEXT('2D SPACE',''
  ) );
#323 = PCURVE('',#324,#329);
#324 = PLANE('',#325);
#325 = AXIS2_PLACEMENT_3D('',#326,#327,#328);
#326 = CARTESIAN_POINT('',(240.,8.526512829121E-14,0.));
#327 = DIRECTION('',(-0.,0.,-1.));
#328 = DIRECTION('',(-0.99766876919,-6.824241336653E-02,0.));
#329 = DEFINITIONAL_REPRESENTATION('',(#330),#355);
#330 = B_SPLINE_CURVE_WITH_KNOTS('',12,(#331,#332,#333,#334,#335,#336,
    #337,#338,#339,#340,#341,#342,#343,#344,#345,#346,#347,#348,#349,
    #350,#351,#352,#353,#354),.UNSPECIFIED.,.F.,.F.,(13,11,13),(0.,0.5,
    1.),.UNSPECIFIED.);
#331 = CARTESIAN_POINT('',(0.,0.));
#332 = CARTESIAN_POINT('',(-4.287797289919,62.68537752011));
#333 = CARTESIAN_POINT('',(9.32730774115,126.59534713526));
#334 = CARTESIAN_POINT('',(41.230028262305,186.10554572964));
#335 = CARTESIAN_POINT('',(89.841827652953,235.45732260827));
#336 = CARTESIAN_POINT('',(151.5680750325,269.52869435563));
#337 = CARTESIAN_POINT('',(221.09164174366,284.62905904311));
#338 = CARTESIAN_POINT('',(292.02382826223,279.13613107973));
#339 = CARTESIAN_POINT('',(357.81453856389,253.78715819466));
#340 = CARTESIAN_POINT('',(412.69363111631,211.51435225883));
#341 = CARTESIAN_POINT('',(452.40251230685,156.90252141613));
#342 = CARTESIAN_POINT('',(474.59321192148,95.441735936047));
#343 = CARTESIAN_POINT('',(483.16880650131,-29.92901910418));
#344 = CARTESIAN_POINT('',(469.55370147026,-93.83898871926));
#345 = CARTESIAN_POINT('',(437.65098094907,-153.3491873139));
#346 = CARTESIAN_POINT('',(389.03918155846,-202.7009641919));
#347 = CARTESIAN_POINT('',(327.31293417888,-236.7723359402));
#348 = CARTESIAN_POINT('',(257.7893674677,-251.8727006265));
#349 = CARTESIAN_POINT('',(186.8571809492,-246.3797726642));
#350 = CARTESIAN_POINT('',(121.06647064747,-221.0307997784));
#351 = CARTESIAN_POINT('',(66.187378095096,-178.757993843));
#352 = CARTESIAN_POINT('',(26.478496904539,-124.1461630001));
#353 = CARTESIAN_POINT('',(4.28779728991,-62.68537752011));
#354 = CARTESIAN_POINT('',(8.526512829121E-14,-1.634248292248E-13));
#355 = ( GEOMETRIC_REPRESENTATION_CONTEXT(2) 
PARAMETRIC_REPRESENTATION_CONTEXT() REPRESENTATION_CONTEXT('2D SPACE',''
  ) );
#356 = ORIENTED_EDGE('',*,*,#357,.T.);
#357 = EDGE_CURVE('',#215,#358,#360,.T.);
#358 = VERTEX_POINT('',#359);
#359 = CARTESIAN_POINT('',(240.,0.,220.));
#360 = SEAM_CURVE('',#361,(#365,#372),.PCURVE_S1.);
#361 = B_SPLINE_CURVE_WITH_KNOTS('',2,(#362,#363,#364),.UNSPECIFIED.,.F.
  ,.F.,(3,3),(0.,1.),.PIECEWISE_BEZIER_KNOTS.);
#362 = CARTESIAN_POINT('',(240.,8.526512829121E-14,0.));
#363 = CARTESIAN_POINT('',(280.,2.84217094304E-14,110.));
#364 = CARTESIAN_POINT('',(240.,8.526512829121E-14,220.));
#365 = PCURVE('',#244,#366);
#366 = DEFINITIONAL_REPRESENTATION('',(#367),#371);
#367 = LINE('',#368,#369);
#368 = CARTESIAN_POINT('',(1.,0.));
#369 = VECTOR('',#370,1.);
#370 = DIRECTION('',(0.,1.));
#371 = ( GEOMETRIC_REPRESENTATION_CONTEXT(2) 
PARAMETRIC_REPRESENTATION_CONTEXT() REPRESENTATION_CONTEXT('2D SPACE',''
  ) );
#372 = PCURVE('',#244,#373);
#373 = DEFINITIONAL_REPRESENTATION('',(#374),#378);
#374 = LINE('',#375,#376);
#375 = CARTESIAN_POINT('',(0.,0.));
#376 = VECTOR('',#377,1.);
#377 = DIRECTION('',(0.,1.));
#378 = ( GEOMETRIC_REPRESENTATION_CONTEXT(2) 
PARAMETRIC_REPRESENTATION_CONTEXT() REPRESENTATION_CONTEXT('2D SPACE',''
  ) );
#379 = ORIENTED_EDGE('',*,*,#380,.F.);
#380 = EDGE_CURVE('',#358,#358,#381,.T.);
#381 = SURFACE_CURVE('',#382,(#407,#414),.PCURVE_S1.);
#382 = B_SPLINE_CURVE_WITH_KNOTS('',12,(#383,#384,#385,#386,#387,#388,
    #389,#390,#391,#392,#393,#394,#395,#396,#397,#398,#399,#400,#401,
    #402,#403,#404,#405,#406),.UNSPECIFIED.,.T.,.F.,(13,11,13),(0.,0.5,
    1.),.UNSPECIFIED.);
#383 = CARTESIAN_POINT('',(240.,8.526512829121E-14,220.));
#384 = CARTESIAN_POINT('',(240.,62.831853071815,220.));
#385 = CARTESIAN_POINT('',(222.05526435654,125.6637061712,220.));
#386 = CARTESIAN_POINT('',(186.16579686837,182.85805411581,220.));
#387 = CARTESIAN_POINT('',(134.29943844405,228.77739410317,220.));
#388 = CARTESIAN_POINT('',(70.3919765594,258.55698952975,220.));
#389 = CARTESIAN_POINT('',(-3.805666892731E-11,268.87769580361,220.));
#390 = CARTESIAN_POINT('',(-70.39197655932,258.55698952974,220.));
#391 = CARTESIAN_POINT('',(-134.2994384441,228.77739410317,220.));
#392 = CARTESIAN_POINT('',(-186.1657968683,182.8580541158,220.));
#393 = CARTESIAN_POINT('',(-222.0552643565,125.6637061712,220.));
#394 = CARTESIAN_POINT('',(-240.,62.831853071818,220.));
#395 = CARTESIAN_POINT('',(-240.,-62.83185307182,220.));
#396 = CARTESIAN_POINT('',(-222.0552643565,-125.6637061711,220.));
#397 = CARTESIAN_POINT('',(-186.1657968683,-182.858054116,220.));
#398 = CARTESIAN_POINT('',(-134.2994384441,-228.7773941027,220.));
#399 = CARTESIAN_POINT('',(-70.39197655936,-258.5569895302,220.));
#400 = CARTESIAN_POINT('',(2.23402554803E-11,-268.877695803,220.));
#401 = CARTESIAN_POINT('',(70.391976559324,-258.5569895302,220.));
#402 = CARTESIAN_POINT('',(134.29943844411,-228.7773941028,220.));
#403 = CARTESIAN_POINT('',(186.16579686833,-182.8580541159,220.));
#404 = CARTESIAN_POINT('',(222.05526435656,-125.6637061711,220.));
#405 = CARTESIAN_POINT('',(240.,-62.83185307182,220.));
#406 = CARTESIAN_POINT('',(240.,-8.526512829121E-14,220.));
#407 = PCURVE('',#244,#408);
#408 = DEFINITIONAL_REPRESENTATION('',(#409),#413);
#409 = LINE('',#410,#411);
#410 = CARTESIAN_POINT('',(0.,1.));
#411 = VECTOR('',#412,1.);
#412 = DIRECTION('',(1.,0.));
#413 = ( GEOMETRIC_REPRESENTATION_CONTEXT(2) 
PARAMETRIC_REPRESENTATION_CONTEXT() REPRESENTATION_CONTEXT('2D SPACE',''
  ) );
#414 = PCURVE('',#415,#420);
#415 = PLANE('',#416);
#416 = AXIS2_PLACEMENT_3D('',#417,#418,#419);
#417 = CARTESIAN_POINT('',(240.,8.526512829121E-14,220.));
#418 = DIRECTION('',(-0.,0.,-1.));
#419 = DIRECTION('',(-0.99766876919,-6.824241336653E-02,0.));
#420 = DEFINITIONAL_REPRESENTATION('',(#421),#446);
#421 = B_SPLINE_CURVE_WITH_KNOTS('',12,(#422,#423,#424,#425,#426,#427,
    #428,#429,#430,#431,#432,#433,#434,#435,#436,#437,#438,#439,#440,
    #441,#442,#443,#444,#445),.UNSPECIFIED.,.F.,.F.,(13,11,13),(0.,0.5,
    1.),.UNSPECIFIED.);
#422 = CARTESIAN_POINT('',(0.,0.));
#423 = CARTESIAN_POINT('',(-4.287797289919,62.68537752011));
#424 = CARTESIAN_POINT('',(9.32730774115,126.59534713526));
#425 = CARTESIAN_POINT('',(41.230028262305,186.10554572964));
#426 = CARTESIAN_POINT('',(89.841827652953,235.45732260827));
#427 = CARTESIAN_POINT('',(151.5680750325,269.52869435563));
#428 = CARTESIAN_POINT('',(221.09164174366,284.62905904311));
#429 = CARTESIAN_POINT('',(292.02382826223,279.13613107973));
#430 = CARTESIAN_POINT('',(357.81453856389,253.78715819466));
#431 = CARTESIAN_POINT('',(412.69363111631,211.51435225883));
#432 = CARTESIAN_POINT('',(452.40251230685,156.90252141613));
#433 = CARTESIAN_POINT('',(474.59321192148,95.441735936047));
#434 = CARTESIAN_POINT('',(483.16880650131,-29.92901910418));
#435 = CARTESIAN_POINT('',(469.55370147026,-93.83898871926));
#436 = CARTESIAN_POINT('',(437.65098094907,-153.3491873139));
#437 = CARTESIAN_POINT('',(389.03918155846,-202.7009641919));
#438 = CARTESIAN_POINT('',(327.31293417888,-236.7723359402));
#439 = CARTESIAN_POINT('',(257.7893674677,-251.8727006265));
#440 = CARTESIAN_POINT('',(186.8571809492,-246.3797726642));
#441 = CARTESIAN_POINT('',(121.06647064747,-221.0307997784));
#442 = CARTESIAN_POINT('',(66.187378095096,-178.757993843));
#443 = CARTESIAN_POINT('',(26.478496904539,-124.1461630001));
#444 = CARTESIAN_POINT('',(4.28779728991,-62.68537752011));
#445 = CARTESIAN_POINT('',(8.526512829121E-14,-1.634248292248E-13));
#446 = ( GEOMETRIC_REPRESENTATION_CONTEXT(2) 
PARAMETRIC_REPRESENTATION_CONTEXT() REPRESENTATION_CONTEXT('2D SPACE',''
  ) );
#447 = ORIENTED_EDGE('',*,*,#357,.F.);
#448 = ADVANCED_FACE('',(#449),#324,.T.);
#449 = FACE_BOUND('',#450,.T.);
#450 = EDGE_LOOP('',(#451));
#451 = ORIENTED_EDGE('',*,*,#214,.F.);
#452 = ADVANCED_FACE('',(#453),#415,.F.);
#453 = FACE_BOUND('',#454,.T.);
#454 = EDGE_LOOP('',(#455));
#455 = ORIENTED_EDGE('',*,*,#380,.T.);
#456 = ( GEOMETRIC_REPRESENTATION_CONTEXT(3) 
GLOBAL_UNCERTAINTY_ASSIGNED_CONTEXT((#460)) GLOBAL_UNIT_ASSIGNED_CONTEXT
((#457,#458,#459)) REPRESENTATION_CONTEXT('Context #1',
  '3D Context with UNIT and UNCERTAINTY') );
#457 = ( LENGTH_UNIT() NAMED_UNIT(*) SI_UNIT(.MILLI.,.METRE.) );
#458 = ( NAMED_UNIT(*) PLANE_ANGLE_UNIT() SI_UNIT($,.RADIAN.) );
#459 = ( NAMED_UNIT(*) SI_UNIT($,.STERADIAN.) SOLID_ANGLE_UNIT() );
#460 = UNCERTAINTY_MEASURE_WITH_UNIT(LENGTH_MEASURE(1.E-07),#457,
  'distance_accuracy_value','confusion accuracy');
#461 = CONTEXT_DEPENDENT_SHAPE_REPRESENTATION(#462,#464);
#462 = ( REPRESENTATION_RELATIONSHIP('','',#207,#184) 
REPRESENTATION_RELATIONSHIP_WITH_TRANSFORMATION(#463) 
SHAPE_REPRESENTATION_RELATIONSHIP() );
#463 = ITEM_DEFINED_TRANSFORMATION('','',#11,#185);
#464 = PRODUCT_DEFINITION_SHAPE('Placement','Placement of an item',#465
  );
#465 = NEXT_ASSEMBLY_USAGE_OCCURRENCE('1130','=>[0:1:1:5]','',#179,#202,
  $);
#466 = PRODUCT_RELATED_PRODUCT_CATEGORY('part',$,(#204));
#467 = SHAPE_DEFINITION_REPRESENTATION(#468,#474);
#468 = PRODUCT_DEFINITION_SHAPE('','',#469);
#469 = PRODUCT_DEFINITION('design','',#470,#473);
#470 = PRODUCT_DEFINITION_FORMATION('','',#471);
#471 = PRODUCT('Air spring top plate','Air spring top plate','',(#472));
#472 = PRODUCT_CONTEXT('',#2,'mechanical');
#473 = PRODUCT_DEFINITION_CONTEXT('part definition',#2,'design');
#474 = SHAPE_REPRESENTATION('',(#11,#475),#479);
#475 = AXIS2_PLACEMENT_3D('',#476,#477,#478);
#476 = CARTESIAN_POINT('',(0.,0.,0.));
#477 = DIRECTION('',(0.,0.,1.));
#478 = DIRECTION('',(1.,0.,-0.));
#479 = ( GEOMETRIC_REPRESENTATION_CONTEXT(3) 
GLOBAL_UNCERTAINTY_ASSIGNED_CONTEXT((#483)) GLOBAL_UNIT_ASSIGNED_CONTEXT
((#480,#481,#482)) REPRESENTATION_CONTEXT('Context #1',
  '3D Context with UNIT and UNCERTAINTY') );
#480 = ( LENGTH_UNIT() NAMED_UNIT(*) SI_UNIT(.MILLI.,.METRE.) );
#481 = ( NAMED_UNIT(*) PLANE_ANGLE_UNIT() SI_UNIT($,.RADIAN.) );
#482 = ( NAMED_UNIT(*) SI_UNIT($,.STERADIAN.) SOLID_ANGLE_UNIT() );
#483 = UNCERTAINTY_MEASURE_WITH_UNIT(LENGTH_MEASURE(1.E-07),#480,
  'distance_accuracy_value','confusion accuracy');
#484 = CONTEXT_DEPENDENT_SHAPE_REPRESENTATION(#485,#487);
#485 = ( REPRESENTATION_RELATIONSHIP('','',#474,#10) 
REPRESENTATION_RELATIONSHIP_WITH_TRANSFORMATION(#486) 
SHAPE_REPRESENTATION_RELATIONSHIP() );
#486 = ITEM_DEFINED_TRANSFORMATION('','',#11,#23);
#487 = PRODUCT_DEFINITION_SHAPE('Placement','Placement of an item',#488
  );
#488 = NEXT_ASSEMBLY_USAGE_OCCURRENCE('1133','=>[0:1:1:6]','',#5,#469,$
  );
#489 = PRODUCT_RELATED_PRODUCT_CATEGORY('part',$,(#471));
#490 = SHAPE_DEFINITION_REPRESENTATION(#491,#497);
#491 = PRODUCT_DEFINITION_SHAPE('','',#492);
#492 = PRODUCT_DEFINITION('design','',#493,#496);
#493 = PRODUCT_DEFINITION_FORMATION('','',#494);
#494 = PRODUCT('SOLID','SOLID','',(#495));
#495 = PRODUCT_CONTEXT('',#2,'mechanical');
#496 = PRODUCT_DEFINITION_CONTEXT('part definition',#2,'design');
#497 = ADVANCED_BREP_SHAPE_REPRESENTATION('',(#11,#498),#596);
#498 = MANIFOLD_SOLID_BREP('',#499);
#499 = CLOSED_SHELL('',(#500,#588,#592));
#500 = ADVANCED_FACE('',(#501),#515,.T.);
#501 = FACE_BOUND('',#502,.F.);
#502 = EDGE_LOOP('',(#503,#533,#560,#561));
#503 = ORIENTED_EDGE('',*,*,#504,.T.);
#504 = EDGE_CURVE('',#505,#507,#509,.T.);
#505 = VERTEX_POINT('',#506);
#506 = CARTESIAN_POINT('',(240.,0.,0.));
#507 = VERTEX_POINT('',#508);
#508 = CARTESIAN_POINT('',(240.,0.,12.));
#509 = SEAM_CURVE('',#510,(#514,#526),.PCURVE_S1.);
#510 = LINE('',#511,#512);
#511 = CARTESIAN_POINT('',(240.,0.,0.));
#512 = VECTOR('',#513,1.);
#513 = DIRECTION('',(0.,0.,1.));
#514 = PCURVE('',#515,#520);
#515 = CYLINDRICAL_SURFACE('',#516,240.);
#516 = AXIS2_PLACEMENT_3D('',#517,#518,#519);
#517 = CARTESIAN_POINT('',(0.,0.,0.));
#518 = DIRECTION('',(-0.,-0.,-1.));
#519 = DIRECTION('',(1.,0.,0.));
#520 = DEFINITIONAL_REPRESENTATION('',(#521),#525);
#521 = LINE('',#522,#523);
#522 = CARTESIAN_POINT('',(-0.,0.));
#523 = VECTOR('',#524,1.);
#524 = DIRECTION('',(-0.,-1.));
#525 = ( GEOMETRIC_REPRESENTATION_CONTEXT(2) 
PARAMETRIC_REPRESENTATION_CONTEXT() REPRESENTATION_CONTEXT('2D SPACE',''
  ) );
#526 = PCURVE('',#515,#527);
#527 = DEFINITIONAL_REPRESENTATION('',(#528),#532);
#528 = LINE('',#529,#530);
#529 = CARTESIAN_POINT('',(-6.28318530718,0.));
#530 = VECTOR('',#531,1.);
#531 = DIRECTION('',(-0.,-1.));
#532 = ( GEOMETRIC_REPRESENTATION_CONTEXT(2) 
PARAMETRIC_REPRESENTATION_CONTEXT() REPRESENTATION_CONTEXT('2D SPACE',''
  ) );
#533 = ORIENTED_EDGE('',*,*,#534,.T.);
#534 = EDGE_CURVE('',#507,#507,#535,.T.);
#535 = SURFACE_CURVE('',#536,(#541,#548),.PCURVE_S1.);
#536 = CIRCLE('',#537,240.);
#537 = AXIS2_PLACEMENT_3D('',#538,#539,#540);
#538 = CARTESIAN_POINT('',(0.,0.,12.));
#539 = DIRECTION('',(0.,0.,1.));
#540 = DIRECTION('',(1.,0.,0.));
#541 = PCURVE('',#515,#542);
#542 = DEFINITIONAL_REPRESENTATION('',(#543),#547);
#543 = LINE('',#544,#545);
#544 = CARTESIAN_POINT('',(-0.,-12.));
#545 = VECTOR('',#546,1.);
#546 = DIRECTION('',(-1.,0.));
#547 = ( GEOMETRIC_REPRESENTATION_CONTEXT(2) 
PARAMETRIC_REPRESENTATION_CONTEXT() REPRESENTATION_CONTEXT('2D SPACE',''
  ) );
#548 = PCURVE('',#549,#554);
#549 = PLANE('',#550);
#550 = AXIS2_PLACEMENT_3D('',#551,#552,#553);
#551 = CARTESIAN_POINT('',(-1.166882246434E-14,1.871648071158E-15,12.));
#552 = DIRECTION('',(0.,0.,1.));
#553 = DIRECTION('',(1.,0.,0.));
#554 = DEFINITIONAL_REPRESENTATION('',(#555),#559);
#555 = CIRCLE('',#556,240.);
#556 = AXIS2_PLACEMENT_2D('',#557,#558);
#557 = CARTESIAN_POINT('',(1.166882246434E-14,-1.871648071158E-15));
#558 = DIRECTION('',(1.,0.));
#559 = ( GEOMETRIC_REPRESENTATION_CONTEXT(2) 
PARAMETRIC_REPRESENTATION_CONTEXT() REPRESENTATION_CONTEXT('2D SPACE',''
  ) );
#560 = ORIENTED_EDGE('',*,*,#504,.F.);
#561 = ORIENTED_EDGE('',*,*,#562,.F.);
#562 = EDGE_CURVE('',#505,#505,#563,.T.);
#563 = SURFACE_CURVE('',#564,(#569,#576),.PCURVE_S1.);
#564 = CIRCLE('',#565,240.);
#565 = AXIS2_PLACEMENT_3D('',#566,#567,#568);
#566 = CARTESIAN_POINT('',(0.,0.,0.));
#567 = DIRECTION('',(0.,0.,1.));
#568 = DIRECTION('',(1.,0.,0.));
#569 = PCURVE('',#515,#570);
#570 = DEFINITIONAL_REPRESENTATION('',(#571),#575);
#571 = LINE('',#572,#573);
#572 = CARTESIAN_POINT('',(-0.,0.));
#573 = VECTOR('',#574,1.);
#574 = DIRECTION('',(-1.,0.));
#575 = ( GEOMETRIC_REPRESENTATION_CONTEXT(2) 
PARAMETRIC_REPRESENTATION_CONTEXT() REPRESENTATION_CONTEXT('2D SPACE',''
  ) );
#576 = PCURVE('',#577,#582);
#577 = PLANE('',#578);
#578 = AXIS2_PLACEMENT_3D('',#579,#580,#581);
#579 = CARTESIAN_POINT('',(-1.166882246434E-14,1.871648071158E-15,0.));
#580 = DIRECTION('',(0.,0.,1.));
#581 = DIRECTION('',(1.,0.,0.));
#582 = DEFINITIONAL_REPRESENTATION('',(#583),#587);
#583 = CIRCLE('',#584,240.);
#584 = AXIS2_PLACEMENT_2D('',#585,#586);
#585 = CARTESIAN_POINT('',(1.166882246434E-14,-1.871648071158E-15));
#586 = DIRECTION('',(1.,0.));
#587 = ( GEOMETRIC_REPRESENTATION_CONTEXT(2) 
PARAMETRIC_REPRESENTATION_CONTEXT() REPRESENTATION_CONTEXT('2D SPACE',''
  ) );
#588 = ADVANCED_FACE('',(#589),#577,.F.);
#589 = FACE_BOUND('',#590,.F.);
#590 = EDGE_LOOP('',(#591));
#591 = ORIENTED_EDGE('',*,*,#562,.T.);
#592 = ADVANCED_FACE('',(#593),#549,.T.);
#593 = FACE_BOUND('',#594,.T.);
#594 = EDGE_LOOP('',(#595));
#595 = ORIENTED_EDGE('',*,*,#534,.T.);
#596 = ( GEOMETRIC_REPRESENTATION_CONTEXT(3) 
GLOBAL_UNCERTAINTY_ASSIGNED_CONTEXT((#600)) GLOBAL_UNIT_ASSIGNED_CONTEXT
((#597,#598,#599)) REPRESENTATION_CONTEXT('Context #1',
  '3D Context with UNIT and UNCERTAINTY') );
#597 = ( LENGTH_UNIT() NAMED_UNIT(*) SI_UNIT(.MILLI.,.METRE.) );
#598 = ( NAMED_UNIT(*) PLANE_ANGLE_UNIT() SI_UNIT($,.RADIAN.) );
#599 = ( NAMED_UNIT(*) SI_UNIT($,.STERADIAN.) SOLID_ANGLE_UNIT() );
#600 = UNCERTAINTY_MEASURE_WITH_UNIT(LENGTH_MEASURE(1.E-07),#597,
  'distance_accuracy_value','confusion accuracy');
#601 = CONTEXT_DEPENDENT_SHAPE_REPRESENTATION(#602,#604);
#602 = ( REPRESENTATION_RELATIONSHIP('','',#497,#474) 
REPRESENTATION_RELATIONSHIP_WITH_TRANSFORMATION(#603) 
SHAPE_REPRESENTATION_RELATIONSHIP() );
#603 = ITEM_DEFINED_TRANSFORMATION('','',#11,#475);
#604 = PRODUCT_DEFINITION_SHAPE('Placement','Placement of an item',#605
  );
#605 = NEXT_ASSEMBLY_USAGE_OCCURRENCE('1132','=>[0:1:1:7]','',#469,#492,
  $);
#606 = PRODUCT_RELATED_PRODUCT_CATEGORY('part',$,(#494));
#607 = SHAPE_DEFINITION_REPRESENTATION(#608,#614);
#608 = PRODUCT_DEFINITION_SHAPE('','',#609);
#609 = PRODUCT_DEFINITION('design','',#610,#613);
#610 = PRODUCT_DEFINITION_FORMATION('','',#611);
#611 = PRODUCT('Lateral damper','Lateral damper','',(#612));
#612 = PRODUCT_CONTEXT('',#2,'mechanical');
#613 = PRODUCT_DEFINITION_CONTEXT('part definition',#2,'design');
#614 = SHAPE_REPRESENTATION('',(#11,#615),#619);
#615 = AXIS2_PLACEMENT_3D('',#616,#617,#618);
#616 = CARTESIAN_POINT('',(0.,0.,0.));
#617 = DIRECTION('',(0.,0.,1.));
#618 = DIRECTION('',(1.,0.,-0.));
#619 = ( GEOMETRIC_REPRESENTATION_CONTEXT(3) 
GLOBAL_UNCERTAINTY_ASSIGNED_CONTEXT((#623)) GLOBAL_UNIT_ASSIGNED_CONTEXT
((#620,#621,#622)) REPRESENTATION_CONTEXT('Context #1',
  '3D Context with UNIT and UNCERTAINTY') );
#620 = ( LENGTH_UNIT() NAMED_UNIT(*) SI_UNIT(.MILLI.,.METRE.) );
#621 = ( NAMED_UNIT(*) PLANE_ANGLE_UNIT() SI_UNIT($,.RADIAN.) );
#622 = ( NAMED_UNIT(*) SI_UNIT($,.STERADIAN.) SOLID_ANGLE_UNIT() );
#623 = UNCERTAINTY_MEASURE_WITH_UNIT(LENGTH_MEASURE(1.E-07),#620,
  'distance_accuracy_value','confusion accuracy');
#624 = CONTEXT_DEPENDENT_SHAPE_REPRESENTATION(#625,#627);
#625 = ( REPRESENTATION_RELATIONSHIP('','',#614,#10) 
REPRESENTATION_RELATIONSHIP_WITH_TRANSFORMATION(#626) 
SHAPE_REPRESENTATION_RELATIONSHIP() );
#626 = ITEM_DEFINED_TRANSFORMATION('','',#11,#27);
#627 = PRODUCT_DEFINITION_SHAPE('Placement','Placement of an item',#628
  );
#628 = NEXT_ASSEMBLY_USAGE_OCCURRENCE('1135','=>[0:1:1:8]','',#5,#609,$
  );
#629 = PRODUCT_RELATED_PRODUCT_CATEGORY('part',$,(#611));
#630 = SHAPE_DEFINITION_REPRESENTATION(#631,#637);
#631 = PRODUCT_DEFINITION_SHAPE('','',#632);
#632 = PRODUCT_DEFINITION('design','',#633,#636);
#633 = PRODUCT_DEFINITION_FORMATION('','',#634);
#634 = PRODUCT('SOLID','SOLID','',(#635));
#635 = PRODUCT_CONTEXT('',#2,'mechanical');
#636 = PRODUCT_DEFINITION_CONTEXT('part definition',#2,'design');
#637 = ADVANCED_BREP_SHAPE_REPRESENTATION('',(#11,#638),#736);
#638 = MANIFOLD_SOLID_BREP('',#639);
#639 = CLOSED_SHELL('',(#640,#728,#732));
#640 = ADVANCED_FACE('',(#641),#655,.T.);
#641 = FACE_BOUND('',#642,.F.);
#642 = EDGE_LOOP('',(#643,#673,#700,#701));
#643 = ORIENTED_EDGE('',*,*,#644,.T.);
#644 = EDGE_CURVE('',#645,#647,#649,.T.);
#645 = VERTEX_POINT('',#646);
#646 = CARTESIAN_POINT('',(35.,0.,0.));
#647 = VERTEX_POINT('',#648);
#648 = CARTESIAN_POINT('',(35.,-420.,4.662936703426E-14));
#649 = SEAM_CURVE('',#650,(#654,#666),.PCURVE_S1.);
#650 = LINE('',#651,#652);
#651 = CARTESIAN_POINT('',(35.,0.,0.));
#652 = VECTOR('',#653,1.);
#653 = DIRECTION('',(0.,-1.,1.110223024625E-16));
#654 = PCURVE('',#655,#660);
#655 = CYLINDRICAL_SURFACE('',#656,35.);
#656 = AXIS2_PLACEMENT_3D('',#657,#658,#659);
#657 = CARTESIAN_POINT('',(0.,0.,0.));
#658 = DIRECTION('',(-0.,1.,-1.110223024625E-16));
#659 = DIRECTION('',(1.,0.,0.));
#660 = DEFINITIONAL_REPRESENTATION('',(#661),#665);
#661 = LINE('',#662,#663);
#662 = CARTESIAN_POINT('',(-0.,0.));
#663 = VECTOR('',#664,1.);
#664 = DIRECTION('',(-0.,-1.));
#665 = ( GEOMETRIC_REPRESENTATION_CONTEXT(2) 
PARAMETRIC_REPRESENTATION_CONTEXT() REPRESENTATION_CONTEXT('2D SPACE',''
  ) );
#666 = PCURVE('',#655,#667);
#667 = DEFINITIONAL_REPRESENTATION('',(#668),#672);
#668 = LINE('',#669,#670);
#669 = CARTESIAN_POINT('',(-6.28318530718,0.));
#670 = VECTOR('',#671,1.);
#671 = DIRECTION('',(-0.,-1.));
#672 = ( GEOMETRIC_REPRESENTATION_CONTEXT(2) 
PARAMETRIC_REPRESENTATION_CONTEXT() REPRESENTATION_CONTEXT('2D SPACE',''
  ) );
#673 = ORIENTED_EDGE('',*,*,#674,.T.);
#674 = EDGE_CURVE('',#647,#647,#675,.T.);
#675 = SURFACE_CURVE('',#676,(#681,#688),.PCURVE_S1.);
#676 = CIRCLE('',#677,35.);
#677 = AXIS2_PLACEMENT_3D('',#678,#679,#680);
#678 = CARTESIAN_POINT('',(0.,-420.,5.684341886081E-14));
#679 = DIRECTION('',(0.,-1.,1.110223024625E-16));
#680 = DIRECTION('',(1.,0.,0.));
#681 = PCURVE('',#655,#682);
#682 = DEFINITIONAL_REPRESENTATION('',(#683),#687);
#683 = LINE('',#684,#685);
#684 = CARTESIAN_POINT('',(-0.,-420.));
#685 = VECTOR('',#686,1.);
#686 = DIRECTION('',(-1.,0.));
#687 = ( GEOMETRIC_REPRESENTATION_CONTEXT(2) 
PARAMETRIC_REPRESENTATION_CONTEXT() REPRESENTATION_CONTEXT('2D SPACE',''
  ) );
#688 = PCURVE('',#689,#694);
#689 = PLANE('',#690);
#690 = AXIS2_PLACEMENT_3D('',#691,#692,#693);
#691 = CARTESIAN_POINT('',(-1.250230978322E-15,-420.,5.684341886081E-14)
  );
#692 = DIRECTION('',(0.,-1.,1.110223024625E-16));
#693 = DIRECTION('',(1.,0.,0.));
#694 = DEFINITIONAL_REPRESENTATION('',(#695),#699);
#695 = CIRCLE('',#696,35.);
#696 = AXIS2_PLACEMENT_2D('',#697,#698);
#697 = CARTESIAN_POINT('',(1.250230978322E-15,0.));
#698 = DIRECTION('',(1.,0.));
#699 = ( GEOMETRIC_REPRESENTATION_CONTEXT(2) 
PARAMETRIC_REPRESENTATION_CONTEXT() REPRESENTATION_CONTEXT('2D SPACE',''
  ) );
#700 = ORIENTED_EDGE('',*,*,#644,.F.);
#701 = ORIENTED_EDGE('',*,*,#702,.F.);
#702 = EDGE_CURVE('',#645,#645,#703,.T.);
#703 = SURFACE_CURVE('',#704,(#709,#716),.PCURVE_S1.);
#704 = CIRCLE('',#705,35.);
#705 = AXIS2_PLACEMENT_3D('',#706,#707,#708);
#706 = CARTESIAN_POINT('',(0.,0.,0.));
#707 = DIRECTION('',(0.,-1.,1.110223024625E-16));
#708 = DIRECTION('',(1.,0.,0.));
#709 = PCURVE('',#655,#710);
#710 = DEFINITIONAL_REPRESENTATION('',(#711),#715);
#711 = LINE('',#712,#713);
#712 = CARTESIAN_POINT('',(-0.,0.));
#713 = VECTOR('',#714,1.);
#714 = DIRECTION('',(-1.,0.));
#715 = ( GEOMETRIC_REPRESENTATION_CONTEXT(2) 
PARAMETRIC_REPRESENTATION_CONTEXT() REPRESENTATION_CONTEXT('2D SPACE',''
  ) );
#716 = PCURVE('',#717,#722);
#717 = PLANE('',#718);
#718 = AXIS2_PLACEMENT_3D('',#719,#720,#721);
#719 = CARTESIAN_POINT('',(-1.250230978322E-15,2.577869402343E-31,
    2.32193833596E-15));
#720 = DIRECTION('',(0.,-1.,1.110223024625E-16));
#721 = DIRECTION('',(1.,0.,0.));
#722 = DEFINITIONAL_REPRESENTATION('',(#723),#727);
#723 = CIRCLE('',#724,35.);
#724 = AXIS2_PLACEMENT_2D('',#725,#726);
#725 = CARTESIAN_POINT('',(1.250230978322E-15,-2.32193833596E-15));
#726 = DIRECTION('',(1.,0.));
#727 = ( GEOMETRIC_REPRESENTATION_CONTEXT(2) 
PARAMETRIC_REPRESENTATION_CONTEXT() REPRESENTATION_CONTEXT('2D SPACE',''
  ) );
#728 = ADVANCED_FACE('',(#729),#717,.F.);
#729 = FACE_BOUND('',#730,.F.);
#730 = EDGE_LOOP('',(#731));
#731 = ORIENTED_EDGE('',*,*,#702,.T.);
#732 = ADVANCED_FACE('',(#733),#689,.T.);
#733 = FACE_BOUND('',#734,.T.);
#734 = EDGE_LOOP('',(#735));
#735 = ORIENTED_EDGE('',*,*,#674,.T.);
#736 = ( GEOMETRIC_REPRESENTATION_CONTEXT(3) 
GLOBAL_UNCERTAINTY_ASSIGNED_CONTEXT((#740)) GLOBAL_UNIT_ASSIGNED_CONTEXT
((#737,#738,#739)) REPRESENTATION_CONTEXT('Context #1',
  '3D Context with UNIT and UNCERTAINTY') );
#737 = ( LENGTH_UNIT() NAMED_UNIT(*) SI_UNIT(.MILLI.,.METRE.) );
#738 = ( NAMED_UNIT(*) PLANE_ANGLE_UNIT() SI_UNIT($,.RADIAN.) );
#739 = ( NAMED_UNIT(*) SI_UNIT($,.STERADIAN.) SOLID_ANGLE_UNIT() );
#740 = UNCERTAINTY_MEASURE_WITH_UNIT(LENGTH_MEASURE(1.E-07),#737,
  'distance_accuracy_value','confusion accuracy');
#741 = CONTEXT_DEPENDENT_SHAPE_REPRESENTATION(#742,#744);
#742 = ( REPRESENTATION_RELATIONSHIP('','',#637,#614) 
REPRESENTATION_RELATIONSHIP_WITH_TRANSFORMATION(#743) 
SHAPE_REPRESENTATION_RELATIONSHIP() );
#743 = ITEM_DEFINED_TRANSFORMATION('','',#11,#615);
#744 = PRODUCT_DEFINITION_SHAPE('Placement','Placement of an item',#745
  );
#745 = NEXT_ASSEMBLY_USAGE_OCCURRENCE('1134','=>[0:1:1:9]','',#609,#632,
  $);
#746 = PRODUCT_RELATED_PRODUCT_CATEGORY('part',$,(#634));
#747 = MECHANICAL_DESIGN_GEOMETRIC_PRESENTATION_REPRESENTATION('',(#748)
  ,#596);
#748 = STYLED_ITEM('color',(#749),#498);
#749 = PRESENTATION_STYLE_ASSIGNMENT((#750));
#750 = SURFACE_STYLE_USAGE(.BOTH.,#751);
#751 = SURFACE_SIDE_STYLE('',(#752));
#752 = SURFACE_STYLE_FILL_AREA(#753);
#753 = FILL_AREA_STYLE('',(#754));
#754 = FILL_AREA_STYLE_COLOUR('',#755);
#755 = COLOUR_RGB('',0.79773774715,0.79773774715,0.826657050643);
#756 = MECHANICAL_DESIGN_GEOMETRIC_PRESENTATION_REPRESENTATION('',(#757)
  ,#456);
#757 = STYLED_ITEM('color',(#758),#208);
#758 = PRESENTATION_STYLE_ASSIGNMENT((#759));
#759 = SURFACE_STYLE_USAGE(.BOTH.,#760);
#760 = SURFACE_SIDE_STYLE('',(#761));
#761 = SURFACE_STYLE_FILL_AREA(#762);
#762 = FILL_AREA_STYLE('',(#763));
#763 = FILL_AREA_STYLE_COLOUR('',#764);
#764 = COLOUR_RGB('',0.506386428017,0.527112787404,0.583831500637);
#765 = MECHANICAL_DESIGN_GEOMETRIC_PRESENTATION_REPRESENTATION('',(#766)
  ,#166);
#766 = STYLED_ITEM('color',(#767),#68);
#767 = PRESENTATION_STYLE_ASSIGNMENT((#768));
#768 = SURFACE_STYLE_USAGE(.BOTH.,#769);
#769 = SURFACE_SIDE_STYLE('',(#770));
#770 = SURFACE_STYLE_FILL_AREA(#771);
#771 = FILL_AREA_STYLE('',(#772));
#772 = FILL_AREA_STYLE_COLOUR('',#755);
#773 = MECHANICAL_DESIGN_GEOMETRIC_PRESENTATION_REPRESENTATION('',(#774)
  ,#736);
#774 = STYLED_ITEM('color',(#775),#638);
#775 = PRESENTATION_STYLE_ASSIGNMENT((#776));
#776 = SURFACE_STYLE_USAGE(.BOTH.,#777);
#777 = SURFACE_SIDE_STYLE('',(#778));
#778 = SURFACE_STYLE_FILL_AREA(#779);
#779 = FILL_AREA_STYLE('',(#780));
#780 = FILL_AREA_STYLE_COLOUR('',#781);
#781 = COLOUR_RGB('',0.748379069519,0.722027348249,0.626209676391);
ENDSEC;
END-ISO-10303-21;
